<svg xmlns="http://www.w3.org/2000/svg" width="411" height="56" fill="none" viewBox="0 0 411 56"><rect width="411" height="56" fill="#ff0084" rx="8"/><path fill="#fff" d="M22.06 38.5V25.3h2.79v13.2zm1.4-15.67c-1.04 0-1.7-.65-1.7-1.66 0-.98.66-1.63 1.7-1.63 1 0 1.72.65 1.72 1.63 0 1.01-.72 1.66-1.72 1.66m10.05 21.6c-3.16 0-5.47-1.18-5.47-3.46 0-1.13.7-2.16 1.92-2.88v-.12a2.5 2.5 0 0 1-1.2-2.2c0-1.04.72-1.93 1.47-2.45v-.1a4.5 4.5 0 0 1-1.76-3.5c0-3 2.4-4.76 5.12-4.76.76 0 1.44.15 1.94.34h4.66v2.09h-2.5c.5.53.86 1.39.86 2.4 0 2.9-2.18 4.53-4.96 4.53-.58 0-1.25-.12-1.85-.38-.41.36-.72.74-.72 1.4 0 .76.55 1.26 2.2 1.26h2.45c3.12 0 4.76.96 4.76 3.22 0 2.54-2.7 4.6-6.92 4.6m.08-11.88c1.36 0 2.5-1.08 2.5-2.83 0-1.78-1.11-2.79-2.5-2.79-1.37 0-2.48 1.01-2.48 2.79 0 1.75 1.13 2.83 2.48 2.83m.33 10.05c2.3 0 3.82-1.12 3.82-2.32 0-1.1-.87-1.47-2.47-1.47h-2q-.93.01-1.75-.19c-.79.6-1.13 1.27-1.13 1.94 0 1.28 1.35 2.04 3.53 2.04m8.93-4.1V25.3h2.26l.24 1.85h.07c1.2-1.2 2.57-2.19 4.37-2.19 2.8 0 4.06 1.9 4.06 5.24v8.3h-2.79v-7.94c0-2.3-.67-3.2-2.2-3.2-1.23 0-2.07.63-3.22 1.78v9.36zm14.98 0V25.3h2.78v13.2zm1.4-15.67c-1.04 0-1.71-.65-1.71-1.66 0-.98.67-1.63 1.7-1.63 1.01 0 1.73.65 1.73 1.63 0 1.01-.72 1.66-1.73 1.66m9.95 16c-2.95 0-4-1.87-4-4.63v-6.7h-1.92v-2.06l2.06-.14.31-3.65h2.3v3.65h3.46v2.2h-3.45v6.73c0 1.56.57 2.4 1.94 2.4.46 0 1-.17 1.42-.34l.5 2.04c-.74.24-1.63.5-2.62.5m5.08-.33V25.3h2.78v13.2zm1.4-15.67c-1.04 0-1.71-.65-1.71-1.66 0-.98.67-1.63 1.7-1.63 1 0 1.73.65 1.73 1.63 0 1.01-.72 1.66-1.73 1.66m10.82 16c-3.3 0-6.22-2.54-6.22-6.9 0-4.42 2.93-6.97 6.22-6.97 3.26 0 6.21 2.55 6.21 6.96 0 4.37-2.95 6.92-6.21 6.92m0-2.27c2.06 0 3.38-1.85 3.38-4.64 0-2.8-1.32-4.65-3.38-4.65-2.1 0-3.36 1.85-3.36 4.65 0 2.79 1.27 4.64 3.36 4.64m9.46 1.94V25.3h2.25l.25 1.85h.07c1.2-1.2 2.56-2.19 4.36-2.19 2.81 0 4.06 1.9 4.06 5.24v8.3h-2.78v-7.94c0-2.3-.68-3.2-2.21-3.2-1.22 0-2.06.63-3.22 1.78v9.36zm13.22 3.53v-1.7H122v1.7zm18-3.2c-2.02 0-2.77-1.29-2.77-3.43v-16h2.79v16.15c0 .74.3 1 .64 1 .12 0 .22 0 .46-.04l.36 2.09c-.36.12-.8.24-1.49.24m9.69 0c-3.3 0-6.22-2.54-6.22-6.9 0-4.42 2.93-6.97 6.22-6.97 3.26 0 6.21 2.55 6.21 6.96 0 4.37-2.95 6.92-6.22 6.92m0-2.27c2.06 0 3.38-1.85 3.38-4.64 0-2.8-1.32-4.65-3.38-4.65-2.1 0-3.36 1.85-3.36 4.65 0 2.79 1.27 4.64 3.35 4.64m14 7.87c-3.18 0-5.48-1.18-5.48-3.46 0-1.13.7-2.16 1.92-2.88v-.12a2.5 2.5 0 0 1-1.2-2.2c0-1.04.72-1.93 1.46-2.45v-.1a4.5 4.5 0 0 1-1.75-3.5c0-3 2.4-4.76 5.11-4.76.77 0 1.44.15 1.95.34h4.65v2.09h-2.5c.51.53.87 1.39.87 2.4 0 2.9-2.18 4.53-4.97 4.53-.57 0-1.24-.12-1.84-.38-.41.36-.72.74-.72 1.4 0 .76.55 1.26 2.2 1.26h2.5c3.12 0 4.75.96 4.75 3.22 0 2.54-2.68 4.6-6.9 4.6m.06-11.88c1.37 0 2.5-1.08 2.5-2.83 0-1.78-1.1-2.79-2.5-2.79-1.36 0-2.47 1.01-2.47 2.79 0 1.75 1.13 2.83 2.47 2.83m.34 10.05c2.3 0 3.82-1.12 3.82-2.32 0-1.1-.87-1.47-2.48-1.47h-1.99q-.93.01-1.75-.19c-.8.6-1.13 1.27-1.13 1.94 0 1.28 1.35 2.04 3.53 2.04m13.74-3.76c-3.28 0-6.21-2.55-6.21-6.92 0-4.41 2.93-6.96 6.21-6.96s6.22 2.55 6.22 6.96c0 4.37-2.95 6.92-6.22 6.92m0-2.28c2.07 0 3.39-1.85 3.39-4.64 0-2.8-1.32-4.65-3.39-4.65-2.09 0-3.36 1.85-3.36 4.65 0 2.79 1.28 4.64 3.36 4.64m7.71 5.47v-1.7h12.84v1.7zm19.77 2.4c-3.17 0-5.47-1.18-5.47-3.46 0-1.13.7-2.16 1.91-2.88v-.12a2.5 2.5 0 0 1-1.2-2.2c0-1.04.72-1.93 1.47-2.45v-.1a4.5 4.5 0 0 1-1.75-3.5c0-3 2.4-4.76 5.1-4.76.78 0 1.45.15 1.95.34h4.66v2.09h-2.5c.5.53.87 1.39.87 2.4 0 2.9-2.19 4.53-4.97 4.53-.58 0-1.25-.12-1.85-.38-.4.36-.72.74-.72 1.4 0 .76.55 1.26 2.2 1.26h2.46c3.12 0 4.75.96 4.75 3.22 0 2.54-2.69 4.6-6.91 4.6m.07-11.88c1.37 0 2.5-1.08 2.5-2.83 0-1.78-1.1-2.79-2.5-2.79-1.37 0-2.47 1.01-2.47 2.79 0 1.75 1.13 2.83 2.47 2.83m.34 10.05c2.3 0 3.81-1.12 3.81-2.32 0-1.1-.86-1.47-2.47-1.47h-2q-.93.01-1.75-.19c-.79.6-1.12 1.27-1.12 1.94 0 1.28 1.34 2.04 3.53 2.04m12.81-3.76c-2.8 0-4.05-1.88-4.05-5.24v-8.3h2.76v7.97c0 2.28.67 3.17 2.23 3.17 1.22 0 2.06-.58 3.17-1.97V25.3h2.76v13.2h-2.28l-.22-2H210c-1.2 1.4-2.47 2.34-4.3 2.34m11-.34V25.3h2.78v13.2zm1.4-15.67c-1.04 0-1.71-.65-1.71-1.66 0-.98.67-1.63 1.7-1.63 1 0 1.73.65 1.73 1.63 0 1.01-.72 1.66-1.73 1.66m10.07 16c-3.3 0-5.42-2.54-5.42-6.9 0-4.3 2.71-6.97 5.64-6.97 1.51 0 2.5.58 3.55 1.5l-.12-2.2V19.4h2.78v19.1h-2.28l-.21-1.46h-.07a5.7 5.7 0 0 1-3.87 1.8m.68-2.3c1.07 0 2.03-.5 2.97-1.6V28.5a4 4 0 0 0-2.88-1.22c-1.85 0-3.34 1.77-3.34 4.6 0 3 1.18 4.66 3.25 4.66m15.4 2.3c-3.6 0-6.43-2.56-6.43-6.9 0-4.3 2.95-6.97 6.02-6.97 3.48 0 5.38 2.52 5.38 6.27a7 7 0 0 1-.12 1.41h-8.57c.22 2.52 1.8 4.01 4.08 4.01 1.18 0 2.16-.36 3.14-.98l.96 1.77a8 8 0 0 1-4.46 1.4m-3.77-8.1h6.34c0-2.29-1.01-3.58-2.93-3.58-1.66 0-3.12 1.27-3.4 3.57m14.6 8.1c-2.01 0-2.76-1.29-2.76-3.43v-16h2.79v16.15c0 .74.31 1 .65 1 .12 0 .21 0 .45-.04l.36 2.09c-.36.12-.79.24-1.49.24m4.4-.33V25.3h2.78v13.2zm1.38-15.67c-1.03 0-1.7-.65-1.7-1.66 0-.98.67-1.63 1.7-1.63 1.01 0 1.73.65 1.73 1.63 0 1.01-.72 1.66-1.73 1.66m5.53 15.67V25.3h2.25l.24 1.85h.07c1.2-1.2 2.57-2.19 4.37-2.19 2.81 0 4.06 1.9 4.06 5.24v8.3h-2.79v-7.94c0-2.3-.67-3.2-2.2-3.2-1.23 0-2.07.63-3.22 1.78v9.36zm20.5.34c-3.6 0-6.44-2.57-6.44-6.92 0-4.3 2.95-6.96 6.02-6.96 3.49 0 5.38 2.52 5.38 6.27a7 7 0 0 1-.12 1.41h-8.57c.22 2.52 1.8 4.01 4.08 4.01 1.18 0 2.16-.36 3.15-.98l.96 1.77a8 8 0 0 1-4.47 1.4m-3.77-8.12h6.33c0-2.28-1-3.57-2.93-3.57-1.65 0-3.12 1.27-3.4 3.57m13.35 8.12c-1.06 0-1.85-.82-1.85-1.95 0-1.15.8-1.94 1.85-1.94 1.03 0 1.85.79 1.85 1.94 0 1.13-.82 1.95-1.85 1.95m5.64 5.01V25.3h2.25l.24 1.46h.07c1.15-.98 2.57-1.8 4.06-1.8 3.33 0 5.23 2.67 5.23 6.75 0 4.51-2.71 7.13-5.69 7.13a5.4 5.4 0 0 1-3.48-1.5l.1 2.24v4.27zm5.63-7.32c1.9 0 3.37-1.7 3.37-4.8 0-2.76-.92-4.46-3.12-4.46-1.01 0-2 .55-3.1 1.6v6.46a4.4 4.4 0 0 0 2.86 1.2m14.04 2.3c-3.31 0-5.42-2.54-5.42-6.9 0-4.3 2.71-6.97 5.64-6.97 1.51 0 2.5.58 3.55 1.5l-.12-2.2V19.4h2.78v19.1h-2.28l-.21-1.46h-.07a5.7 5.7 0 0 1-3.87 1.8m.67-2.3c1.08 0 2.04-.5 2.98-1.6V28.5a4 4 0 0 0-2.88-1.22c-1.85 0-3.34 1.77-3.34 4.6 0 3 1.18 4.66 3.24 4.66m10.35 1.97V23.64c0-2.68 1.24-4.58 4.17-4.58.91 0 1.75.2 2.35.43l-.55 2.11a3 3 0 0 0-1.46-.33q-1.74-.02-1.75 2.37V38.5zm-1.8-11v-2.06l1.94-.14h5.3v2.2z"/><path stroke="#fff" stroke-linecap="round" stroke-linejoin="round" stroke-width="2" d="M386 33v6.67a3.33 3.33 0 0 1-3.33 3.33h-23.34a3.33 3.33 0 0 1-3.33-3.33V33m6.67-8.33L371 33l8.33-8.33M371 33V13"/></svg>