<svg xmlns="http://www.w3.org/2000/svg" width="216" height="36" fill="none" viewBox="0 0 216 36"><rect width="216" height="36" fill="#ff0084" rx="8"/><path fill="#fff" d="M13.03 22v-6.6h1.4V22zm.7-7.84c-.52 0-.85-.32-.85-.82s.33-.82.85-.82c.5 0 .86.32.86.82s-.36.82-.86.82m5.03 10.8c-1.59 0-2.74-.58-2.74-1.72 0-.57.35-1.08.96-1.44v-.06c-.35-.22-.6-.57-.6-1.1 0-.52.36-.97.73-1.23v-.05a2.3 2.3 0 0 1-.87-1.75c0-1.5 1.2-2.38 2.55-2.38q.59.01.98.17h2.32v1.04h-1.25c.26.27.44.7.44 1.2 0 1.46-1.1 2.27-2.49 2.27q-.45 0-.92-.19c-.2.18-.36.37-.36.7 0 .38.27.63 1.1.63h1.23c1.56 0 2.37.48 2.37 1.61 0 1.27-1.34 2.3-3.45 2.3m.03-5.94c.69 0 1.25-.54 1.25-1.41 0-.89-.55-1.4-1.25-1.4-.68 0-1.23.51-1.23 1.4 0 .87.56 1.41 1.23 1.41m.17 5.03c1.15 0 1.9-.56 1.9-1.16 0-.55-.42-.73-1.23-.73h-1q-.46 0-.87-.1-.58.46-.56.97c0 .64.67 1.02 1.76 1.02M23.43 22v-6.6h1.12l.12.92h.04c.6-.6 1.28-1.09 2.18-1.09 1.4 0 2.03.95 2.03 2.62V22h-1.39v-3.97c0-1.15-.34-1.6-1.1-1.6-.62 0-1.04.31-1.61.89V22zm7.48 0v-6.6h1.4V22zm.7-7.84c-.52 0-.85-.32-.85-.82s.33-.82.85-.82c.5 0 .86.32.86.82s-.36.82-.86.82m4.98 8c-1.47 0-2-.93-2-2.3V16.5h-.96v-1.03l1.03-.07.16-1.82h1.15v1.82h1.73v1.1h-1.73v3.36c0 .78.29 1.2.97 1.2.23 0 .5-.08.7-.16l.26 1.02c-.37.12-.82.25-1.3.25m2.54-.16v-6.6h1.4V22zm.7-7.84c-.52 0-.86-.32-.86-.82s.34-.82.86-.82c.5 0 .86.32.86.82s-.36.82-.86.82m5.4 8c-1.64 0-3.1-1.26-3.1-3.45s1.46-3.48 3.1-3.48 3.12 1.27 3.12 3.48c0 2.19-1.48 3.46-3.11 3.46m0-1.13c1.04 0 1.7-.93 1.7-2.32 0-1.4-.66-2.33-1.7-2.33s-1.67.93-1.67 2.33.63 2.32 1.68 2.32m4.74.97v-6.6h1.13l.12.92h.03c.6-.6 1.29-1.09 2.19-1.09 1.4 0 2.03.95 2.03 2.62V22h-1.4v-3.97c0-1.15-.33-1.6-1.1-1.6-.61 0-1.03.31-1.6.89V22zm6.61 1.76v-.85H63v.85zm9-1.6c-1.01 0-1.38-.64-1.38-1.7v-8.01h1.39v8.07c0 .38.15.5.32.5l.23-.02.18 1.05q-.25.1-.74.12m4.84 0c-1.64 0-3.1-1.26-3.1-3.45s1.46-3.48 3.1-3.48c1.63 0 3.11 1.27 3.11 3.48 0 2.19-1.48 3.46-3.1 3.46m0-1.13c1.03 0 1.7-.93 1.7-2.32 0-1.4-.67-2.33-1.7-2.33-1.04 0-1.68.93-1.68 2.33s.64 2.32 1.68 2.32m7 3.93c-1.58 0-2.73-.58-2.73-1.72 0-.57.34-1.08.96-1.44v-.06c-.35-.22-.6-.57-.6-1.1 0-.52.36-.97.73-1.23v-.05a2.3 2.3 0 0 1-.88-1.75c0-1.5 1.2-2.38 2.56-2.38q.58.01.97.17h2.33v1.04h-1.3c.25.27.43.7.43 1.2 0 1.46-1.1 2.27-2.48 2.27q-.47 0-.93-.19c-.2.18-.36.37-.36.7 0 .38.28.63 1.1.63h1.23c1.56 0 2.38.48 2.38 1.61 0 1.27-1.35 2.3-3.46 2.3m.04-5.94c.68 0 1.25-.54 1.25-1.41 0-.89-.56-1.4-1.25-1.4s-1.24.51-1.24 1.4c0 .87.57 1.41 1.24 1.41m.17 5.03c1.15 0 1.9-.56 1.9-1.16 0-.55-.43-.73-1.23-.73h-1q-.47 0-.87-.1-.58.46-.57.97c0 .64.67 1.02 1.77 1.02m6.87-1.88c-1.65 0-3.11-1.27-3.11-3.46 0-2.2 1.46-3.48 3.1-3.48s3.11 1.27 3.11 3.48c0 2.19-1.47 3.46-3.1 3.46m0-1.14c1.03 0 1.69-.93 1.69-2.32 0-1.4-.66-2.33-1.7-2.33s-1.67.93-1.67 2.33.63 2.32 1.68 2.32m3.85 2.73v-.85h6.42v.85zm9.88 1.2c-1.58 0-2.73-.58-2.73-1.72 0-.57.35-1.08.96-1.44v-.06c-.35-.22-.6-.57-.6-1.1 0-.52.36-.97.73-1.23v-.05a2.3 2.3 0 0 1-.88-1.75c0-1.5 1.2-2.38 2.56-2.38q.58.01.97.17h2.33v1.04h-1.25c.25.27.43.7.43 1.2 0 1.46-1.09 2.27-2.48 2.27q-.45 0-.92-.19c-.2.18-.36.37-.36.7 0 .38.27.63 1.1.63h1.22c1.56 0 2.38.48 2.38 1.61 0 1.27-1.34 2.3-3.46 2.3m.04-5.94c.68 0 1.25-.54 1.25-1.41 0-.89-.55-1.4-1.25-1.4-.68 0-1.24.51-1.24 1.4 0 .87.57 1.41 1.24 1.41m.17 5.03c1.15 0 1.9-.56 1.9-1.16 0-.55-.43-.73-1.23-.73h-1q-.46 0-.87-.1-.58.46-.57.97c0 .64.68 1.02 1.77 1.02m6.4-1.88c-1.4 0-2.02-.94-2.02-2.62V15.4h1.38v3.98c0 1.14.33 1.59 1.11 1.59.62 0 1.04-.29 1.59-.99V15.4h1.38V22h-1.14l-.1-1h-.05c-.6.7-1.23 1.17-2.14 1.17m5.5-.17v-6.6h1.4V22zm.7-7.84c-.52 0-.85-.32-.85-.82s.34-.82.85-.82c.5 0 .86.32.86.82s-.36.82-.86.82m5.04 8c-1.65 0-2.71-1.26-2.71-3.45 0-2.15 1.36-3.48 2.82-3.48.76 0 1.25.29 1.78.75l-.06-1.1v-2.43h1.39V22h-1.14l-.11-.73h-.04c-.5.5-1.18.9-1.93.9m.34-1.14q.8 0 1.49-.8V17a2 2 0 0 0-1.44-.62c-.93 0-1.67.9-1.67 2.3 0 1.5.59 2.34 1.62 2.34m7.7 1.15c-1.8 0-3.22-1.29-3.22-3.46 0-2.15 1.48-3.48 3.02-3.48 1.74 0 2.68 1.26 2.68 3.13q0 .44-.06.71h-4.28c.1 1.26.9 2 2.04 2 .59 0 1.08-.17 1.57-.49l.48.9a4 4 0 0 1-2.23.69m-1.88-4.06h3.16c0-1.14-.5-1.79-1.46-1.79-.83 0-1.56.64-1.7 1.8m7.3 4.06c-1.01 0-1.38-.65-1.38-1.72v-8h1.39v8.07c0 .38.16.5.32.5l.23-.02.18 1.05c-.18.06-.4.12-.74.12m2.2-.17v-6.6h1.38V22zm.69-7.84c-.52 0-.86-.32-.86-.82s.34-.82.86-.82c.5 0 .86.32.86.82s-.36.82-.86.82m2.76 7.84v-6.6h1.13l.12.92h.03c.6-.6 1.29-1.09 2.19-1.09 1.4 0 2.02.95 2.02 2.62V22h-1.39v-3.97c0-1.15-.33-1.6-1.1-1.6-.61 0-1.03.31-1.61.89V22zm10.25.17c-1.8 0-3.22-1.29-3.22-3.46 0-2.15 1.48-3.48 3.01-3.48 1.74 0 2.7 1.26 2.7 3.13q0 .44-.07.71h-4.28c.1 1.26.9 2 2.04 2 .59 0 1.08-.17 1.57-.49l.48.9a4 4 0 0 1-2.23.69m-1.89-4.06h3.17c0-1.14-.5-1.79-1.46-1.79-.83 0-1.56.64-1.7 1.8m6.68 4.06c-.53 0-.92-.41-.92-.97 0-.58.4-.98.92-.98s.92.4.92.98c0 .56-.4.97-.92.97m2.82 2.5V15.4h1.13l.12.73h.03a3.3 3.3 0 0 1 2.03-.9c1.67 0 2.62 1.33 2.62 3.37 0 2.26-1.36 3.57-2.85 3.57a2.7 2.7 0 0 1-1.74-.75l.05 1.12v2.14zm2.82-3.65c.95 0 1.68-.86 1.68-2.4 0-1.38-.46-2.24-1.56-2.24q-.74.01-1.55.8v3.24c.52.44 1.02.6 1.43.6m7.02 1.15c-1.66 0-2.72-1.27-2.72-3.46 0-2.15 1.36-3.48 2.82-3.48.76 0 1.25.29 1.78.75l-.06-1.1v-2.43h1.4V22h-1.15l-.1-.73h-.04c-.5.5-1.19.9-1.93.9m.33-1.15q.8 0 1.49-.8V17a2 2 0 0 0-1.44-.62c-.92 0-1.67.9-1.67 2.3 0 1.5.59 2.34 1.62 2.34m5.17.98v-7.43c0-1.34.63-2.29 2.1-2.29.45 0 .87.1 1.17.22l-.28 1.05q-.37-.17-.73-.17-.87 0-.88 1.2V22zm-.9-5.5v-1.03l.97-.07h2.66v1.1z"/><path stroke="#fff" stroke-linecap="round" stroke-linejoin="round" d="M201.5 20.5v3.33a1.67 1.67 0 0 1-1.67 1.67h-11.66a1.67 1.67 0 0 1-1.67-1.67V20.5m3.33-4.17L194 20.5l4.17-4.17M194 20.5v-10"/></svg>