<svg xmlns="http://www.w3.org/2000/svg" data-name="レイヤー 2" viewBox="0 0 618.16 100"><path d="M454.08 52.28v41.57c0 4.62 1.32 6.15 3.03 6.15h-41.22s15.79-3.08 15.79-15.38V6.15c0-4.62-3.03-6.15-3.03-6.15h81.42s-5.82.8-5.82 3.26v90.59c0 4.62 1.32 6.15 3.03 6.15H472.9s8.95-1.07 8.95-15.38V52.28zm0-4.55h27.77V4.55h-11.98c-4.79 0-15.79.85-15.79 10.83zm-57.06-32.35C397.02 3.07 412.81 0 412.81 0h-41.22s3.03 1.54 3.03 6.15v78.46c0 12.31-15.79 15.38-15.79 15.38h41.22s-3.03-1.54-3.03-6.15zM261.5 100h-89.71s15.79-3.08 15.79-15.38V6.15c0-4.62-3.03-6.15-3.03-6.15h81.42s-5.86.64-5.86 3.1c0 1.4-.16 1.45-.46 1.45h-33.87c-4.79 0-15.79.85-15.79 10.83v32.34h50.55s-5.86.64-5.86 3.1c0 1.4-.16 1.45-.46 1.45H210v36.82c0 4.62 1.32 6.15 3.03 6.15h52.95s-5.86.64-5.86 3.1c0 .46.05 1.41 1.4 1.65Zm256.66 0s11.41-1.79 11.41-12.07V6.15c0-4.62-3.03-6.15-3.03-6.15h41.22s-15.79 3.08-15.79 15.38v73.71c0 4.62 1.32 6.15 3.03 6.15h61.72c-.51 0-1.14.28-1.14 1.67 0 3.08 2.57 3.08 2.57 3.08zm-371.4-47.72c2.49 0 6.09-.86 9.95-2.56l1.36-.63c9.32-4.54 19.6-13.91 19.6-28.12L156.71 0H91.15s3.03 1.54 3.03 6.15v78.46c0 12.31-15.79 15.38-15.79 15.38h41.22s-3.03-1.54-3.03-6.15V52.27zm-30.18-36.89c0-9.98 11-10.83 15.79-10.83h22.18l2.15 2.15v14.83c0 16.39-14.27 26.19-29.5 26.19h-10.63zM24.72 61.64V36.25C24.72 16.92 41.54 0 59.5 0H36.45C26.15 0 0 12.31 0 36.92zm24.72-23.28v25.39c0 19.32-16.82 36.25-34.78 36.25h23.05C48 100 74.16 87.69 74.16 63.08zM332.01 4.75c-17.94 0-34.75 12.16-34.75 31.47v27.57c0 19.31 16.81 31.47 34.75 31.47h19.59s-5.86.64-5.86 3.1c0 .46.05 1.41 1.4 1.65h-38.17c-10.28 0-36.42-12.3-36.42-36.89V36.91c0-24.6 26.13-36.89 36.42-36.89h41.04s-5.86.64-5.86 3.1c0 .46.05 1.41 1.4 1.65H332Z" data-name="レイヤー 2" style="fill:#ff0084;stroke-width:0"/></svg>