<svg xmlns="http://www.w3.org/2000/svg" width="99.79" height="8.24" viewBox="0 0 99.79 8.24"><g data-name="グループ 98"><g data-name="レイヤー 1"><g fill="#fff" data-name="グループ 96"><path d="m11.36 6.84 1.51-5.63c.19-.7.4-1.02 1.12-1.02L14 .1H9.73C6.48.1 3.5.38 2.99 2.28 2.53 4 4.68 4.35 6.24 4.35c-1.87 0-2.9.28-4.24 2.33A3.3 3.3 0 0 1 .03 8.14l-.03.1 3.24-.1c1.16 0 1.65-.52 2.61-2.64.52-1.14 2.46-1.08 2.46-1.08h.76l-.64 2.42c-.3 1.12-.39 1.19-1.07 1.19l-.03.1h4.53l.03-.1c-.7 0-.84-.02-.53-1.19M9.1 4.32h-.5c-2.12 0-2.34.02-1.78-2.04C7.4.1 7.79.21 9.7.21h.5z" data-name="パス 106"/><path d="M19.58.2s4.44.02 3.85 2.24h.14L24.2.1h-9.3l-.03.1c.72 0 .74.77.55 1.47l-1.31 4.9c-.21.77-.65 1.46-1.34 1.46l-.03.1h9.52l.6-2.24h-.15c-.6 2.26-5.23 2.13-5.23 2.13h-.59l1.05-3.9h1.32c.01 0 1.75-.02 1.56 1.35h.15l.75-2.8h-.15a2.5 2.5 0 0 1-2.28 1.35h-1.32L18.99.2z" data-name="パス 107"/><path d="M26.04.87c-1.7 1.22-1.5 2.6.53 3.62l2.21 1.11c1.68 1.01.79 2.53-.95 2.53a3.3 3.3 0 0 1-3.52-2.67h-.15l-.59 2.2s1.07.57 4.23.57c2.82 0 3.95-.93 3.95-.93 1.55-1.24 1.37-2.7-.51-3.7l-2.2-1.16C27.18 1.47 28.05.1 29.8.1c2.6 0 2.98 1.52 3.09 2.34h.15l.5-1.91a9 9 0 0 0-3.7-.53 6.6 6.6 0 0 0-3.8.87" data-name="パス 108"/><path d="M45.77 4.17C46.37 1.92 44.53 0 40.94 0s-6.46 1.92-7.06 4.17 1.27 4.06 4.86 4.06 6.42-1.79 7.03-4.06m-3.96 0c-.84 3.14-1.12 3.96-3.05 3.96-1.94 0-1.8-.82-.96-3.96S38.98.1 40.91.1s1.74.95.9 4.07" data-name="パス 109"/><path d="M83.77 8.13c-1.75 0-2.33-.88-1.5-4.01S84.12.1 85.92.1c1.2 0 2.94.36 2.8 2.72h.12l.78-2.3A9 9 0 0 0 85.95 0c-3.48 0-6.99 1.54-7.68 4.12s2 4.11 5.48 4.11a14 14 0 0 0 3.95-.53l.46-2.3h-.13a4.8 4.8 0 0 1-4.25 2.73Z" data-name="パス 110"/><path d="m90.49.1-.03.1c.72 0 .74.77.55 1.47l-1.31 4.9c-.21.77-.66 1.46-1.34 1.46l-.03.1h9.51l.6-2.24h-.14c-.6 2.26-5.23 2.14-5.23 2.14h-.59l1.05-3.9h1.32c.01 0 1.74-.03 1.56 1.34h.14l.75-2.8h-.14a2.5 2.5 0 0 1-2.29 1.35h-1.32L94.58.2h.58s4.45.01 3.85 2.24h.15L99.78.1z" data-name="パス 111"/><path d="m75.33.1-.02.1c1.8 0 1.95 1.4 1.67 2.46l-.82 3.04L72.13.1h-5.2l-.02.1a2.1 2.1 0 0 1 1.79.9l.56.77-.99 3.7c-.2.74-.48 2.46-2.12 2.46-.41 0-.57-.48-.74-.94 0 0-.18-.37-2.53-6.99h-.08l-4.84 5.82c-1.8 2-2.7 2.1-3.2 2.12l-.02.09h4.69l.03-.1c-1.96 0-1.82-1.6-1.36-2.11h3.2l.3.78s.62 1.33-.68 1.33l-.02.1h9.29l.03-.1c-2.38 0-2.05-1.56-1.8-2.47L69.37 2l4.5 6.13h1.79l1.47-5.48A3.1 3.1 0 0 1 80.24.2l.03-.09zM58.18 5.82l2.14-2.57.94 2.57Z" data-name="パス 112"/><path d="m52.57 8.13-4.5-6.12-.95 3.55c-.24.92-.58 2.47 1.8 2.47l-.03.1h-5.18l.03-.1a3.1 3.1 0 0 0 3.24-2.47l.99-3.69-.57-.76a2.1 2.1 0 0 0-1.78-.92l.02-.09h5.2l4.03 5.6.82-3.04c.28-1.06.13-2.47-1.67-2.47l.02-.09h4.94l-.03.1a3.1 3.1 0 0 0-3.12 2.46l-1.46 5.47z" data-name="パス 113"/></g></g></g></svg>