<svg xmlns="http://www.w3.org/2000/svg" xml:space="preserve" id="レイヤー_1" x="0" y="0" viewBox="0 0 25 125.1"><style>.st0{fill:#fff}</style><g id="グループ_315" transform="translate(-1814.02 -872.89)"><g id="レイヤー_1_00000153668446764753725960000018088661713647421874_" transform="matrix(-1 0 0 -1 1854.02 998)"><path id="パス_324" d="M37 0c-4.4 5.2-11 20.9-11 26.1C26 20.9 19.4 5.2 15 0c4.4 5.2 17.6 5.2 22 0" class="st0"/></g><path d="M1822.2 945.7v-1.9h1.6c-1.4-.6-1.8-1.4-1.8-2.4 0-2 1.9-3.3 5-3.3 2.6 0 5.3.9 5.3 3.4 0 .9-.3 1.6-1.2 2.2h4.4v2zm8.5-3.8c0-1.2-1.1-1.7-3.6-1.7-2.3 0-3.5.5-3.5 1.8 0 1 1.2 1.7 2.4 1.7h2.4c1.4 0 2.3-.7 2.3-1.8m-.3-10.8c1.5.7 1.9 1.7 1.9 2.8 0 1.7-1.1 2.8-2.8 2.8-1 0-2-.3-2.7-1.2-.5-.7-.8-2-.8-3.6v-.6h-.5c-1.2 0-2 .3-2 1.5 0 .9.5 1.4 1.5 1.6l-.3 2c-1.9-.3-2.8-1.8-2.8-3.7 0-1 .2-1.9.9-2.6.5-.6 1.4-.8 2.6-.8h4.1c1 0 2 0 2.5-.2v1.9c-.3.1-1 .1-1.6.1m-3.2.6c0 1.6.3 2.8 2.1 2.8 1 0 1.5-.4 1.5-1.3 0-1-1.1-1.9-3-1.9h-.6zm-5.2-12c0 .6.3.9 1.1 1.1.6-.5 1.3-.8 2.1-.8 1.8 0 3.2 1.3 3.2 3.4 0 .5-.1.9-.2 1.2.2.5.5.7.9.7.7 0 .8-.6.8-1.7.1-3 .4-4.7 2.7-4.7 2 0 3.1 1.5 3.1 4.5 0 2.5-.8 4-2.5 4-1 0-1.6-.5-1.9-1.4-.4.7-.9 1.1-1.6 1.1-.9 0-1.5-.5-2-1.5-.6.9-1.4 1.3-2.5 1.3-2 0-3.3-1.4-3.3-3.5 0-.5 0-1 .4-1.9-1.4-.2-1.8-.8-1.8-1.8 0-.3 0-.4.1-.6h1.5c-.1.4-.1.5-.1.6m3.2 2.5c-1.1 0-1.9.4-1.9 1.4 0 .9.6 1.4 1.9 1.4s1.9-.5 1.9-1.4-.7-1.4-1.9-1.4m7.7 3.6c.9 0 1.4-.6 1.4-2.4 0-1.6-.5-2.4-1.4-2.4-.7 0-1.1.5-1.2 1.4s-.1 1.7-.1 2.5c.3.6.7.9 1.3.9m-5.4-9.3c2.4 0 3.2-.7 3.2-1.9 0-.9-.5-1.5-1.8-1.7l.3-1.8c2.1.5 3.1 1.7 3.1 3.6 0 2.5-1.8 3.9-5 3.9-3.3 0-5.3-1.5-5.3-3.9 0-2.2 1.6-3.7 5.1-3.7h.4v5.6zm-4.1-1.8c0 1 .8 1.6 2.6 1.7V913h-.2c-1.7 0-2.4.8-2.4 1.7m8.9-13.2c0 .8-.2 1.3-.4 1.7-.5.8-1.5 1-3 1h-5v1.3h-1.6v-1.3l-2.6-.1-.2-1.8h2.7v-1.9h1.6v1.9h4.6c1.5 0 2.2 0 2.2-1.4 0-.2 0-.5-.1-.8h1.6c.1.4.2.7.2 1.4m-5.2-2.3c-3.4 0-5.2-1.3-5.2-3.9 0-2.5 1.8-3.9 5.1-3.9 3.5 0 5.3 1.3 5.3 3.9s-1.9 3.9-5.2 3.9m0-5.6c-2.5 0-3.6.5-3.6 1.7s1.3 1.7 3.6 1.7c2.5 0 3.6-.5 3.6-1.7 0-1.1-1.1-1.7-3.6-1.7m-4.9-4v-1.9h1.6c-1.4-.6-1.8-1.4-1.8-2.4 0-2 1.9-3.3 5-3.3 2.6 0 5.3.9 5.3 3.4 0 .9-.3 1.6-1.2 2.2h4.4v2zm8.5-3.8c0-1.2-1.1-1.7-3.6-1.7-2.3 0-3.5.5-3.5 1.8 0 1 1.2 1.7 2.4 1.7h2.4c1.4 0 2.3-.7 2.3-1.8" class="st0"/></g></svg>