<svg xmlns="http://www.w3.org/2000/svg" viewBox="0 0 570.95 570.95"><defs><style>.cls-2{fill:#fff9e8}</style></defs><g id="Layer_2" data-name="Layer 2"><g id="Layer_1-2" data-name="Layer 1"><path d="M566.58 285.48c0 155.24-125.85 281.1-281.1 281.1S4.37 440.72 4.37 285.48 130.23 4.37 285.48 4.37s281.1 125.85 281.1 281.11Z" style="fill:none;stroke:#fff9e7;stroke-miterlimit:10;stroke-width:8.75px"/><path d="M145.71 464.28h279.54v-269H145.71Zm102.72-72.8 25-76.22a33.71 33.71 0 1 1 24.13 0l25 76.22Z" class="cls-2"/><path d="M285.48 92.62a106.16 106.16 0 0 0-106 106h21.94a84.1 84.1 0 1 1 168.2 0h21.94a106.16 106.16 0 0 0-106-106" class="cls-2"/></g></g></svg>