<svg xmlns="http://www.w3.org/2000/svg" viewBox="0 0 570.95 570.95"><defs><style>.cls-2{fill:none;stroke:#fff9e7;stroke-width:12.4px}</style></defs><g id="Layer_2" data-name="Layer 2"><g id="Layer_1-2" data-name="Layer 1"><path d="M566.58 285.48c0-155.26-125.85-281.11-281.1-281.11S4.37 130.22 4.37 285.48s125.86 281.09 281.11 281.09 281.1-125.84 281.1-281.09Z" style="fill:none;stroke:#fff9e7;stroke-width:8.75px"/><path d="M107.66 503.19h357.7M272.2 381.77c-3.53 37.28-22.64 51.23-22.64 51.23 29 41 35.92 70.16 35.92 70.16" class="cls-2"/><path d="M298.76 381.77C302.28 419.05 321.4 433 321.4 433c-29 41-35.93 70.16-35.93 70.16m.01-70.14v70.17M310 381.77h-49q-37.08-155.24 0-310.47h49q37 155.25 0 310.47Zm18.5-155.23h-86.04" class="cls-2"/><path d="M310 71.3c-16.6-47.81-32.87-44.53-49 0" class="cls-2"/></g></g></svg>