<svg xmlns="http://www.w3.org/2000/svg" viewBox="0 0 570.95 570.95"><defs><style>.cls-1,.cls-2{fill:none;stroke:#fff9e7;}.cls-1{stroke-width:8.75px;}.cls-2{stroke-width:12.4px;}</style></defs><g id="Layer_2" data-name="Layer 2"><g id="Layer_1-2" data-name="Layer 1"><path class="cls-1" d="M566.58,285.48c0-155.26-125.85-281.11-281.1-281.11S4.37,130.22,4.37,285.48,130.23,566.57,285.48,566.57,566.58,440.73,566.58,285.48Z"/><line class="cls-2" x1="107.66" y1="503.19" x2="465.36" y2="503.19"/><path class="cls-2" d="M272.2,381.77C268.67,419.05,249.56,433,249.56,433c29,41,35.92,70.16,35.92,70.16"/><path class="cls-2" d="M298.76,381.77C302.28,419.05,321.4,433,321.4,433c-29,41-35.93,70.16-35.93,70.16"/><line class="cls-2" x1="285.48" y1="433.02" x2="285.48" y2="503.19"/><path class="cls-2" d="M310,381.77H261Q223.92,226.53,261,71.3h49Q347,226.55,310,381.77Z"/><line class="cls-2" x1="328.5" y1="226.54" x2="242.46" y2="226.54"/><path class="cls-2" d="M310,71.3c-16.6-47.81-32.87-44.53-49,0"/></g></g></svg>