<svg xmlns="http://www.w3.org/2000/svg" viewBox="0 0 570.95 570.95"><defs><style>.cls-3{fill:none;stroke:#fff9e7;stroke-width:12.4px}</style></defs><g id="Layer_2" data-name="Layer 2"><g id="Layer_1-2" data-name="Layer 1"><circle cx="285.48" cy="285.48" r="281.1" style="fill:none;stroke:#fff9e7;stroke-width:8.75px" transform="rotate(-45 285.48 285.48)"/><path d="M71.23 146.66a25.11 25.11 0 1 0 25.11-25.11 25.1 25.1 0 0 0-25.11 25.11" style="stroke:#fff9e7;fill:#fff9e7;stroke-miterlimit:10"/><path d="M226.68 165.19c-20.06 19-47 23.11-60.08 9.23s-7.49-40.5 12.58-59.47 47-23.11 60.08-9.23 7.49 40.5-12.58 59.47Z" class="cls-3"/><path d="M230.65 160.74c170.81 124.74 54.83 287.38 54.83 287.38" class="cls-3"/><path d="M92.39 369.46s-71.26-36.52-15.13-52.8A214 214 0 0 1 75 285.48C75 169.22 169.22 75 285.48 75S496 169.22 496 285.48a210 210 0 0 1-76.86 162.65H151.85a211 211 0 0 1-59.46-78.67s119.74 50.21 159.9-26.4" class="cls-3"/><path d="M190.69 126.09c7.38-6.93 15.67-10.08 18.53-7s-.79 11.14-8.16 18.07-15.67 10.08-18.54 7 .8-11.16 8.17-18.07Zm-28.52 76.71 98.6 27.78m-108.92 0 78.8 54.9M135.8 263.9l36.1 56.93m247.21 155.41c21.63 18.36 32.62 37.8 32.62 37.8m-166.25-37.8c39.61 23.34 45.64 83.76 45.64 83.76m-179.28-91.12v-20.75h267.27v28.11H178.33" class="cls-3"/><path d="M186 495.14A27.17 27.17 0 1 1 158.81 468 27.2 27.2 0 0 1 186 495.14Zm-53.38-7.11 53.37 7.11" class="cls-3"/></g></g></svg>