<svg xmlns="http://www.w3.org/2000/svg" viewBox="0 0 570.95 570.95"><defs><style>.cls-1,.cls-3{fill:none;}.cls-1,.cls-2,.cls-3{stroke:#fff9e7;}.cls-1{stroke-width:8.75px;}.cls-2{fill:#fff9e7;stroke-miterlimit:10;}.cls-3{stroke-width:12.4px;}</style></defs><g id="Layer_2" data-name="Layer 2"><g id="Layer_1-2" data-name="Layer 1"><circle class="cls-1" cx="285.48" cy="285.48" r="281.1" transform="translate(-118.25 285.48) rotate(-45)"/><path class="cls-2" d="M71.23,146.66a25.11,25.11,0,1,0,25.11-25.11,25.12,25.12,0,0,0-25.11,25.11"/><path class="cls-3" d="M226.68,165.19c-20.06,19-47,23.11-60.08,9.23s-7.49-40.5,12.58-59.47,47-23.11,60.08-9.23S246.75,146.22,226.68,165.19Z"/><path class="cls-3" d="M230.65,160.74c170.81,124.74,54.83,287.38,54.83,287.38"/><path class="cls-3" d="M92.39,369.46s-71.26-36.52-15.13-52.8A213.78,213.78,0,0,1,75,285.48C75,169.22,169.22,75,285.48,75S496,169.22,496,285.48a210.09,210.09,0,0,1-76.86,162.65H151.85a210.93,210.93,0,0,1-59.46-78.67s119.74,50.21,159.9-26.4"/><path class="cls-3" d="M190.69,126.09c7.38-6.93,15.67-10.08,18.53-7s-.79,11.14-8.16,18.07-15.67,10.08-18.54,7S183.32,133,190.69,126.09Z"/><line class="cls-3" x1="162.17" y1="202.8" x2="260.77" y2="230.58"/><line class="cls-3" x1="151.85" y1="230.58" x2="230.65" y2="285.48"/><line class="cls-3" x1="135.8" y1="263.9" x2="171.9" y2="320.83"/><path class="cls-3" d="M419.11,476.24c21.63,18.36,32.62,37.8,32.62,37.8"/><path class="cls-3" d="M285.48,476.24C325.09,499.58,331.12,560,331.12,560"/><polyline class="cls-3" points="151.84 468.88 151.84 448.13 419.11 448.13 419.11 476.24 178.33 476.24"/><path class="cls-3" d="M186,495.14A27.17,27.17,0,1,1,158.81,468,27.18,27.18,0,0,1,186,495.14Z"/><line class="cls-3" x1="132.62" y1="488.03" x2="185.99" y2="495.14"/></g></g></svg>