<svg xmlns="http://www.w3.org/2000/svg" viewBox="0 0 570.95 570.95"><defs><style>.cls-1{fill:none;stroke-width:8.75px;}.cls-1,.cls-2{stroke:#fff9e7;}.cls-2{fill:#fff9e7;stroke-miterlimit:10;stroke-width:0;}</style></defs><g id="Layer_2" data-name="Layer 2"><g id="Layer_1-2" data-name="Layer 1"><circle class="cls-1" cx="285.48" cy="285.48" r="281.1" transform="translate(-118.25 285.48) rotate(-45)"/><path class="cls-2" d="M185.49,185.22c-6.65.16-15.31.49-22.93,1.14-8.43.71-16.43,1.79-24.82,2.91L131.91,211c-3.41,12.21-2.51,18.19-.3,22.66,2.16,4.06,8.9,4.9,16.19,5.09,1.2-.1,1.84.24,2,2.45s-.39,2.66-2,2.8c-7.46.22-17.69,1.09-25.11,1.72-7,.6-14.45,1.23-21,2.2-1.81.15-2.25-.22-2.43-2.43s.17-2.63,2-2.79c5.34-1.27,8.53-4.16,11.31-7.23,3.66-4.35,6.85-12.1,10.24-24.5l18.56-67.07c7.28-26.07,8.56-32.45,10.87-43.35L167.48,92a2.26,2.26,0,0,1,2.76,1.58c5.06,12.09,9.53,21.82,20.79,47.34l28.22,63.48c5,11.5,8.43,18.28,12,22,3.77,3.93,5.81,4.16,13.49,4.11,2.2-.18,2.64.17,2.82,2.39s-.17,2.65-2.38,2.83c-8.65.53-19.9,1.28-28.53,2-7.81.67-19.64,1.87-28.25,2.81-1.4.12-1.64-.27-1.83-2.48s.19-2.64,1.39-2.74c7.59-1,12.54-2.27,13.4-6.39,1-4.53-.65-10.05-5.4-20.76ZM167,143.34c-5.74-12.85-7.83-18.53-10.66-25.56-2.14,8.06-3.3,13.41-6.83,26.65L139.67,181c6.66-.15,14.68-.84,22.31-1.48,6.41-.55,14.24-1.21,20-2.11Z"/><path class="cls-2" d="M277.29,430.51c-.08,1.24-.66,1.76-1.94,1.82-1.58,0-1.82-.37-2.19-1.71-2.5-8.71-5.33-15.92-9.84-21.73a30.92,30.92,0,0,0-18-11c-22-4.42-43.17,12.81-49.52,44.39-5.61,27.94,7.28,52.65,29.9,57.2,16.55,3.32,29.77-1.12,41.59-13.6.61-.67,1.28-.85,3.07.46,1.24.88,1.37,1.85.51,2.94-12,14.18-27.54,23.06-50.16,18.52-33.41-6.71-52.79-35.25-45.92-69.42,6.74-33.55,36-52.79,69.74-46a81.1,81.1,0,0,1,18.8,6.3c5.77,2.74,10,4.68,16.68,5.08-1,8-2,18.71-2.71,26.8"/><path class="cls-2" d="M439.48,252.07c47.2-8.77,77.09.52,84.37,27.1,7.15,26.07-5.32,58.35-76,77.72-17.16,4.7-37,8.74-51.53,12.72-12.72,3.48-26.84,7.63-39.19,11.29-2.08.58-2.51.14-3.22-2.44s-.55-3.18,1.45-4c11-4.12,17.17-5.82,19.46-12.56s-.82-18.08-5.56-35.37l-25.67-93.7c-6.79-24.77-7.71-28.13-13.11-32.76-4.89-3.93-11.47-2.41-24.47.05-2.14.31-2.81.21-3.58-2.62-.85-3.1-.4-3.78,2-4.43q20.17-4.69,40.14-10.17c13.9-3.8,31.6-10,47.86-14.49,61.53-16.85,85.19-4.76,92.19,20.81,5.17,18.83-3.33,38.92-45.53,61.31ZM388,261.46c4.51-1,6.28-1.44,10.12-2.5,49.11-13.45,56.14-35.35,50.06-57.56-6.43-23.48-27.05-31.43-56.93-23.24-9.46,2.58-17.07,5-19.44,11.42-2.07,6.4,1.34,17.68,5.79,33.94Zm15.28,55.75c3.88,14.19,6.77,25.89,13,31.13,6.28,5.5,15.37,3.83,27.79.42C486.91,337,490.92,309.85,485.47,290c-4.53-16.52-16.55-40.69-81.32-23-3.86,1.05-6.22,1.7-13.55,4Z"/></g></g></svg>