<svg xmlns="http://www.w3.org/2000/svg" viewBox="0 0 570.95 570.96"><g data-name="Layer 2"><g data-name="Layer 1"><circle cx="285.48" cy="285.48" r="281.1" style="fill:none;stroke:#fff9e7;stroke-width:8.75px" transform="rotate(-45 285.48 285.48)"/><path d="M504.2 462.46H66.75l50.07-94h337.32zM115.73 119.63h339.49v226H115.73zm366.69 301.93H88.54m376.42-25.83H105.99m263.82-27.27 14.14 53.1m-182.8-53.1-14.14 53.1m56.3-53.1-7.07 53.1m-77.26-53.1-21.21 53.1m189.88-53.1 7.06 53.1m77.27-53.1 21.2 53.1m-147.7-53.1v53.1m-42.47-53.1-12.52 94m97.46-94 12.51 94m-107.63-20.15h105.29" style="fill:none;stroke:#fff9e7;stroke-width:12.4px"/></g></g></svg>