<svg xmlns="http://www.w3.org/2000/svg" viewBox="0 0 570.95 570.96"><defs><style>.cls-1,.cls-2{fill:none;stroke:#fff9e7;}.cls-1{stroke-width:8.75px;}.cls-2{stroke-width:12.4px;}</style></defs><g id="Layer_2" data-name="Layer 2"><g id="Layer_1-2" data-name="Layer 1"><circle class="cls-1" cx="285.48" cy="285.48" r="281.1" transform="translate(-118.25 285.48) rotate(-45)"/><polygon class="cls-2" points="504.2 462.46 66.75 462.46 116.82 368.46 454.14 368.46 504.2 462.46"/><rect class="cls-2" x="115.73" y="119.63" width="339.49" height="226"/><line class="cls-2" x1="482.42" y1="421.56" x2="88.54" y2="421.56"/><line class="cls-2" x1="464.96" y1="395.73" x2="105.99" y2="395.73"/><line class="cls-2" x1="369.81" y1="368.46" x2="383.95" y2="421.56"/><line class="cls-2" x1="201.15" y1="368.46" x2="187.01" y2="421.56"/><line class="cls-2" x1="243.31" y1="368.46" x2="236.24" y2="421.56"/><line class="cls-2" x1="158.98" y1="368.46" x2="137.77" y2="421.56"/><line class="cls-2" x1="327.65" y1="368.46" x2="334.71" y2="421.56"/><line class="cls-2" x1="411.98" y1="368.46" x2="433.18" y2="421.56"/><line class="cls-2" x1="285.48" y1="368.46" x2="285.48" y2="421.56"/><line class="cls-2" x1="243.01" y1="368.46" x2="230.49" y2="462.46"/><line class="cls-2" x1="327.95" y1="368.46" x2="340.46" y2="462.46"/><line class="cls-2" x1="232.83" y1="442.31" x2="338.12" y2="442.31"/></g></g></svg>