<svg xmlns="http://www.w3.org/2000/svg" viewBox="0 0 570.95 570.96"><defs><style>.cls-2{fill:none;stroke:#fff9e7;stroke-width:12.4px}</style></defs><g id="Layer_2" data-name="Layer 2"><g id="Layer_1-2" data-name="Layer 1"><path d="M4.37 285.48C4.37 130.23 130.23 4.37 285.48 4.37s281.1 125.86 281.1 281.11-125.86 281.1-281.1 281.1S4.37 440.73 4.37 285.48Z" style="fill:none;stroke:#fff9e7;stroke-width:8.75px"/><path d="M285.48 76.43v427.75m0-427.75 145.72 305.6-31.45 122.15H171.19l-31.44-122.15z" class="cls-2"/><path d="m395.59 307.35 94.42-153.71-90.26 350.54m-260-122.15 145.73 122.15m0 0L431.2 382.03m-17.54 68.15-128.18 54m-128.19-54 128.19 54M175.35 307.35l-26.34-42.89-43.5-15.42-65.7 91.93 75.71-53.05m-10.01-38.87 65.69 255.13" class="cls-2"/></g></g></svg>