<svg xmlns="http://www.w3.org/2000/svg" viewBox="0 0 570.95 570.96"><defs><style>.cls-1,.cls-2{fill:none;stroke:#fff9e7;}.cls-1{stroke-width:8.75px;}.cls-2{stroke-width:12.4px;}</style></defs><g id="Layer_2" data-name="Layer 2"><g id="Layer_1-2" data-name="Layer 1"><path class="cls-1" d="M4.37,285.48C4.37,130.23,130.23,4.37,285.48,4.37s281.1,125.86,281.1,281.11-125.86,281.1-281.1,281.1S4.37,440.73,4.37,285.48Z"/><line class="cls-2" x1="285.48" y1="76.43" x2="285.48" y2="504.18"/><polygon class="cls-2" points="285.48 76.43 431.2 382.03 399.75 504.18 171.19 504.18 139.75 382.03 285.48 76.43"/><polyline class="cls-2" points="395.59 307.35 490.01 153.64 399.75 504.18"/><line class="cls-2" x1="139.75" y1="382.03" x2="285.48" y2="504.18"/><line class="cls-2" x1="285.48" y1="504.18" x2="431.2" y2="382.03"/><line class="cls-2" x1="413.66" y1="450.18" x2="285.48" y2="504.18"/><line class="cls-2" x1="157.29" y1="450.18" x2="285.48" y2="504.18"/><polyline class="cls-2" points="175.35 307.35 149.01 264.46 105.51 249.04 39.81 340.97 115.52 287.92"/><line class="cls-2" x1="105.51" y1="249.05" x2="171.2" y2="504.18"/></g></g></svg>