<svg xmlns="http://www.w3.org/2000/svg" viewBox="0 0 570.95 570.95"><defs><style>.cls-1,.cls-2{fill:none;stroke:#fff9e7;}.cls-1{stroke-width:8.75px;}.cls-2{stroke-width:12.4px;}</style></defs><g id="Layer_2" data-name="Layer 2"><g id="Layer_1-2" data-name="Layer 1"><path class="cls-1" d="M4.37,285.47c0-155.25,125.86-281.1,281.11-281.1s281.1,125.85,281.1,281.1S440.73,566.58,285.48,566.58,4.37,440.73,4.37,285.47Z"/><path class="cls-2" d="M68.21,284.72c113.78-142.41,229.64-145.08,347.72,0l86.82-107.81V392.54L415.93,284.72C297.85,429.8,182,427.14,68.21,284.72Z"/><path class="cls-2" d="M186.86,228.75q29.69,56,0,112"/><path class="cls-2" d="M125,259.41a12.27,12.27,0,1,1,12.26,12.26A12.26,12.26,0,0,1,125,259.41Z"/><polyline class="cls-2" points="200.89 271.67 240.39 247.14 240.39 323.87 200.89 299.34"/><polyline class="cls-2" points="240.39 176.91 240.39 124.14 390.21 190.42 362.2 228.75"/><polyline class="cls-2" points="220.64 392.54 253.3 427.4 200.89 448.38 186.86 387.06"/><polyline class="cls-2" points="362.18 340.7 390.21 366.4 309.73 417.72 285.48 385.57"/></g></g></svg>