<svg xmlns="http://www.w3.org/2000/svg" viewBox="0 0 570.95 570.95"><defs><style>.cls-2{fill:none;stroke:#fff9e7;stroke-width:12.4px}</style></defs><g id="Layer_2" data-name="Layer 2"><g id="Layer_1-2" data-name="Layer 1"><path d="M4.37 285.47c0-155.25 125.86-281.1 281.11-281.1s281.1 125.85 281.1 281.1-125.85 281.11-281.1 281.11S4.37 440.73 4.37 285.47Z" style="fill:none;stroke:#fff9e7;stroke-width:8.75px"/><path d="M68.21 284.72c113.78-142.41 229.64-145.08 347.72 0l86.82-107.81v215.63l-86.82-107.82C297.85 429.8 182 427.14 68.21 284.72Z" class="cls-2"/><path d="M186.86 228.75q29.69 56 0 112M125 259.41a12.27 12.27 0 1 1 12.26 12.26A12.26 12.26 0 0 1 125 259.41Z" class="cls-2"/><path d="m200.89 271.67 39.5-24.53v76.73l-39.5-24.53m39.5-122.43v-52.77l149.82 66.28-28.01 38.33M220.64 392.54l32.66 34.86-52.41 20.98-14.03-61.32m175.32-46.36 28.03 25.7-80.48 51.32-24.25-32.15" class="cls-2"/></g></g></svg>