<svg xmlns="http://www.w3.org/2000/svg" width="77.73" height="95.68" data-name="グループ 312" viewBox="0 0 77.73 95.68"><defs><clipPath id="a"><path fill="none" d="M0 0h77.73v95.68H0z" data-name="長方形 196"/></clipPath></defs><g clip-path="url(#a)" data-name="グループ 311"><path fill="#fff" d="M72.67 85.56v-4.49h-6.8l-.07-.39-5.39-18.1-48.52 18.5H5.06v4.48H.11v10h77.5v-10Z" data-name="パス 360"/><path fill="none" stroke="#fff" stroke-miterlimit="10" stroke-width=".72" d="M72.67 85.56v-4.49h-6.8l-.07-.39-5.39-18.1-48.52 18.5H5.06v4.48H.11v10h77.5v-10Z" data-name="パス 361"/><path fill="#fff" d="m48.56 22.78-21.88 8.34-4.08 13.71L51.82 33.7Z" data-name="パス 362"/><path fill="none" stroke="#fff" stroke-miterlimit="10" stroke-width=".72" d="m48.56 22.78-21.88 8.34-4.08 13.71L51.82 33.7Z" data-name="パス 363"/><path fill="#fff" d="M54.86 43.94 18.78 57.7l-3.14 10.55 41.72-15.9Z" data-name="パス 364"/><path fill="none" stroke="#fff" stroke-miterlimit="10" stroke-width=".72" d="M54.86 43.94 18.78 57.7l-3.14 10.55 41.72-15.9Z" data-name="パス 365"/><path fill="#fff" d="M42.65 2.94a3.95 3.95 0 0 0-7.57 0l-4.56 15.32 15-5.72Z" data-name="パス 366"/><path fill="none" stroke="#fff" stroke-miterlimit="10" stroke-width=".72" d="M42.65 2.94a3.95 3.95 0 0 0-7.57 0l-4.56 15.32 15-5.72Z" data-name="パス 367"/></g></svg>