<svg xmlns="http://www.w3.org/2000/svg" id="_レイヤー_1" viewBox="0 0 1920 1920"><defs><style>.cls-2{stroke-width:0;fill:#fff}</style></defs><path d="M960 27.76C445.96 27.76 27.76 445.96 27.76 960s418.2 932.24 932.24 932.24 932.24-418.2 932.24-932.24S1474.04 27.76 960 27.76m649.4 1581.64H310.6V310.6h1298.8z" class="cls-2"/><path d="M361.4 361.4v1197.2h1197.2V361.4zM648.01 528C714.27 528 768 581.73 768 648s-53.73 120.01-119.99 120.01S528 714.28 528 648s53.73-120 120.01-120m1.69 862.32c-66.28 0-120.01-53.73-120.01-120.01s53.73-120.01 120.01-120.01 119.98 53.73 119.98 120.01-53.72 120.01-119.98 120.01M960.01 1080C893.73 1080 840 1026.27 840 960s53.73-120.01 120.01-120.01S1080 893.72 1080 960s-53.73 120-119.99 120m312 312.01c-66.28 0-120.01-53.74-120.01-120.01s53.73-120.01 120.01-120.01S1392 1205.73 1392 1272s-53.73 120.01-119.99 120.01m0-624c-66.28 0-120.01-53.73-120.01-120.01s53.73-120 120.01-120S1392 581.73 1392 648s-53.73 120.01-119.99 120.01" class="cls-2"/><path d="M0 0h1920v1920H0z" style="fill:none;stroke-width:0"/></svg>