<svg xmlns="http://www.w3.org/2000/svg" id="_レイヤー_1" viewBox="0 0 1920 1920"><defs><style>.cls-2{stroke-width:0;fill:#fff}</style></defs><path d="M960 27.76C445.96 27.76 27.76 445.96 27.76 960s418.2 932.24 932.24 932.24 932.24-418.2 932.24-932.24S1474.04 27.76 960 27.76M344.99 371.01a21.16 21.16 0 0 1 21.17-21.16h1187.68a21.16 21.16 0 0 1 21.16 21.16v789.84a21.16 21.16 0 0 1-21.16 21.16H366.16a21.16 21.16 0 0 1-21.17-21.16zM1615.74 1529.7q-.06.87-.23 1.76 0 .09-.03.13-.2.95-.43 1.86a20 20 0 0 1-3.09 6.54q-.56.8-1.16 1.49a36 36 0 0 1-1.46 1.56l-.17.17q-.81.76-1.73 1.46-.88.71-1.89 1.26-.64.43-1.39.77-1.38.74-2.86 1.19-1.06.4-2.16.6-2.19.5-4.48.5H325.33q-2.3 0-4.49-.5-1.1-.2-2.16-.6-1.45-.45-2.82-1.19-.74-.31-1.42-.77-1-.55-1.9-1.26a22 22 0 0 1-1.72-1.46q-.12-.09-.14-.17a20 20 0 0 1-3.65-4.61q-.5-.8-.86-1.66-.4-.85-.7-1.7-.4-.94-.6-1.92-.23-.84-.36-1.66l-.1-.6a19 19 0 0 1-.23-3.09 32 32 0 0 1 .16-2.75l35.96-274.09a21.15 21.15 0 0 1 20.98-18.39H1558.7a21.16 21.16 0 0 1 20.99 18.39l35.86 273.36.1.76q.08.7.13 1.33a23 23 0 0 1-.04 3.29" class="cls-2"/><path d="M387.32 392.18v747.5h1145.35v-747.5zm849.8 551.22c0 47.66-53.85 86.29-120.29 86.29s-120.29-38.63-120.29-86.29 53.86-86.3 120.29-86.3c29.74 0 56.96 7.74 77.96 20.59V520.6l-362.97 64v435.09c0 47.66-53.85 86.3-120.29 86.3s-120.29-38.64-120.29-86.3 53.86-86.29 120.29-86.29c29.74 0 56.96 7.74 77.96 20.58V505.79h.17l-.18-1 405.31-71.48 15.34-2.69 26.83-4.72.16-.03z" class="cls-2"/><path d="M0 0h1920v1920H0z" style="fill:none;stroke-width:0"/></svg>