<svg xmlns="http://www.w3.org/2000/svg" id="_レイヤー_1" viewBox="0 0 1920 1920"><defs><style>.cls-2{stroke-width:0;fill:#fff}</style></defs><path d="M960 27.77C445.96 27.77 27.76 445.96 27.76 960s418.2 932.23 932.24 932.23 932.24-418.2 932.24-932.23S1474.04 27.77 960 27.77m624 1163.53c-51.47 0-96.32-28.89-119.18-71.31-16.04 60.18-37.07 117.69-63.04 172.26-53.95 113.37-129.16 214.3-223.56 300-83.91 76.18-167.78 125.96-223.36 154.31-60.47 30.84-100.73 43.5-102.42 44.03l-19.83 6.17v-20.78c0-75.68-5.6-122.18-18.16-150.78-11.29-25.71-28.13-37.57-53.62-55.51-22.25-15.66-49.94-35.16-82.43-70.45-66.8-72.55-122.07-153.79-164.27-241.47a991 991 0 0 1-55.88-143.84c-21.74 45.71-68.37 77.37-122.25 77.37-74.6 0-135.3-60.69-135.3-135.3S261.4 920.7 336 920.7c33.51 0 64.21 12.25 87.87 32.5-10.33-80.59-6.69-133.78-6.13-140.93.14-143.79 48.65-282.11 136.61-389.57 86.66-105.85 205.04-174.2 333.78-192.78l71.87-57.5 71.62 57.3c129.02 18.3 247.73 86.54 334.65 192.49 88.35 107.69 137.01 246.44 137.01 390.7 0 48.04-2.53 94.96-7.57 140.65A134.7 134.7 0 0 1 1584 920.7c74.59 0 135.28 60.69 135.28 135.3s-60.69 135.3-135.28 135.3" class="cls-2"/><path d="M1257.04 1464.26a936 936 0 0 1-98.39 104.45c-81.31 74.02-162.66 122.44-216.58 150.03-34.04 17.42-61.74 28.96-79.04 35.59-1.05-68.41-7.38-111.37-20.58-141.43-14.71-33.52-37.56-49.6-64.01-68.22-22.15-15.6-47.26-33.27-77.54-66.16q-6.55-7.12-12.87-14.26zM1360.12 1306a933 933 0 0 1-79.44 127.68h-618.6A957 957 0 0 1 574.34 1306zm110.06-412.71c-2.55 40.37-7 78.94-13.08 115.79a134 134 0 0 0-8.39 44.94c-17.29 82.9-42.92 156.44-73.5 221.39H887.13zm-386.23-621.71 279.64 223.72H556.4l279.09-223.27c-224.55 61.22-387.16 282.96-387.16 540.88v.67l-.06.66c-.03.36-1.24 15.32-.85 41.4l512.57 335.46 512-335.57q.7-21 .7-42.62c0-258.75-163.31-480.74-388.74-541.33M608.7 672c0-74.6 60.7-135.29 135.3-135.29S879.28 597.4 879.28 672 818.6 807.3 744 807.3 608.7 746.61 608.7 672m615.29 207.29h-118.82c14.23 33.08 17.77 67.37 10.18 100.44-7.93 34.56-28.28 67.8-57.3 93.61-24.04 21.37-52.65 36.58-80.57 42.82a124 124 0 0 1-27.01 3.11c-19.88 0-37.62-5.45-51.47-16.05-23.59-18.05-38.72-40-43.79-63.48-4.7-21.8-.45-43.54 11.97-61.23 5.37-7.66 7.19-16.51 5.41-26.3-4.04-22.12-25.77-47.91-61.37-72.92H696V848.7h527.99zm58.83-122.03-21.63 21.63-85.21-85.21-85.21 85.21-21.63-21.63 85.21-85.21-85.21-85.21 21.63-21.63 85.21 85.21 85.21-85.21 21.63 21.63-85.21 85.21z" class="cls-2"/><path d="M1037.72 1050.48c-40.8 36.28-93.57 48.78-120.13 28.45-37.54-28.73-39.79-62.31-25.37-82.85 10.1-14.41 13.72-31.47 10.46-49.36-4.04-22.15-18.61-45.03-42.68-67.43h211.29c47.4 88.77-13.33 153.19-33.57 171.19m-105.64 158.9-100.74 66.03H557.51a969 969 0 0 1-87.16-235.32 134 134 0 0 0-5.25-24.57 922 922 0 0 1-16.19-122.35zm344.32-744.67H643.6L960 211.59zM440.7 1056c0 57.74-46.97 104.71-104.7 104.71S231.29 1113.74 231.29 1056 278.26 951.28 336 951.28c46.31 0 85.7 30.23 99.46 72a1083 1083 0 0 0 4.68 21.85q.56 5.36.56 10.87m408-384c0 57.74-46.97 104.71-104.7 104.71S639.29 729.74 639.29 672 686.26 567.29 744 567.29 848.7 614.27 848.7 672m839.99 384c0 57.74-46.96 104.71-104.69 104.71s-103.43-45.7-104.68-102.36q4.25-20.78 7.74-41.93c15.64-38.18 53.2-65.14 96.94-65.14 57.73 0 104.69 46.98 104.69 104.72" class="cls-2"/><path d="M0 0h1920v1920H0z" style="fill:none;stroke-width:0"/></svg>