<svg xmlns="http://www.w3.org/2000/svg" id="_レイヤー_1" viewBox="0 0 1920 1920"><defs><style>.cls-2{stroke-width:0;fill:#fff}</style></defs><path d="M1892.24 960c0 264.54-110.76 503.7-288.34 673.54l-388.11-477.86 424.84-566.45-24.47-18.35-420.25 560.32L1011.38 904a448 448 0 0 0 19.87-41.03c23.32-55.16 35.15-113.74 35.15-174.11s-11.83-118.96-35.15-174.12a446 446 0 0 0-95.86-142.17 446 446 0 0 0-142.17-95.86c-55.15-23.32-113.73-35.15-174.11-35.15S500.15 253.39 445 276.71a446 446 0 0 0-142.18 95.86 446 446 0 0 0-95.86 142.17c-23.33 55.16-35.16 113.74-35.16 174.12s11.83 118.95 35.16 174.11a446 446 0 0 0 95.86 142.17A446 446 0 0 0 445 1101c55.15 23.33 113.73 35.16 174.11 35.16s118.96-11.83 174.11-35.16a446 446 0 0 0 142.17-95.86 447 447 0 0 0 59.28-73.18l182.32 224.47-424.84 566.44 24.47 18.35 420.25-560.32 384.54 473.45c-165.04 147.86-382.9 237.89-621.4 237.89-514.04 0-932.25-418.2-932.25-932.24S445.97 27.76 960.01 27.76s932.23 418.2 932.23 932.24" class="cls-2"/><path d="m780.92 620.25-23.75 19.29 217.02 267.2c-73.4 119.2-205.12 198.83-355.08 198.83-229.78 0-416.72-186.94-416.72-416.71s186.94-416.72 416.72-416.72 416.7 186.94 416.7 416.72a414 414 0 0 1-45.49 189.22z" class="cls-2"/><path d="M0 0h1920v1920H0z" style="fill:none;stroke-width:0"/></svg>