<svg xmlns="http://www.w3.org/2000/svg" id="_レイヤー_1" viewBox="0 0 1920 1920"><defs><style>.cls-2{stroke-width:0;fill:#fff}</style></defs><path d="M960 28C446.09 28 28 446.09 28 960s418.09 932 932 932 932-418.09 932-932S1473.91 28 960 28M344.69 371.01a21.46 21.46 0 0 1 21.47-21.46h1187.68a21.46 21.46 0 0 1 21.46 21.46v789.84a21.46 21.46 0 0 1-21.46 21.46H366.16a21.46 21.46 0 0 1-21.47-21.46zM1615.75 1529.7q-.08.87-.24 1.76 0 .09-.03.13-.2.95-.43 1.86a20 20 0 0 1-3.09 6.54q-.56.8-1.16 1.49a36 36 0 0 1-1.46 1.56l-.17.17q-.81.76-1.73 1.46-.88.71-1.89 1.26-.64.43-1.39.77-1.38.74-2.86 1.19-1.06.4-2.16.6-2.19.5-4.48.5H325.33q-2.3 0-4.49-.5-1.1-.2-2.15-.6-1.47-.45-2.83-1.19-.74-.31-1.42-.77-1-.55-1.9-1.26-.9-.7-1.72-1.46-.12-.09-.14-.17a20 20 0 0 1-3.65-4.61q-.5-.8-.86-1.66-.4-.85-.7-1.69a11 11 0 0 1-.6-1.93q-.23-.84-.36-1.66l-.1-.6a19 19 0 0 1-.23-3.09 32 32 0 0 1 .16-2.75l35.96-274.09a21.16 21.16 0 0 1 20.98-18.39H1558.7a21.2 21.2 0 0 1 20.99 18.39l35.86 273.36.1.76a23 23 0 0 1 .1 4.62" class="cls-2"/><path d="M387.62 392.48v746.9h1144.75v-746.9zm331.41 704.97a11.8 11.8 0 0 1-13.49 9.79c-33.33-5.29-58.75-18.17-75.58-38.26-47.47-56.73-15.78-156.4-1.38-198.82l1.51-4.42c5.62-16.46 11.32-29.61 16.34-41.21 9.76-22.51 17.46-40.29 21.09-72.19 3.18-27.97 6.19-54.39-7.96-74.31-8.78-12.37-23.44-21.3-42.4-25.82-18.99-4.53-41.34-4.5-64.74.06l-1.58.31a11.78 11.78 0 1 1-4.7-23.09c58.14-11.83 108.97 1.54 132.64 34.89 19.37 27.28 15.54 60.93 12.16 90.62-4.03 35.39-12.77 55.55-22.88 78.9-5.09 11.74-10.35 23.89-15.66 39.45-2.89 8.47-6.91 20.23-10.84 33.91-12.81 44.56-24.66 109.39 6.48 146.59 12.04 14.39 30.49 24.13 54.89 28.99q3.09.62 6.31 1.13a11.8 11.8 0 0 1 9.79 13.48m554.63-395.13-71.4 73.4s-.09.11-.12.17l-101.41 220.89a.6.6 0 0 1-.4.35l-346.18 100.34a.64.64 0 0 1-.74-.32l-9.62-19.25a.6.6 0 0 1 .11-.72l144.51-152.54.06-.05a41 41 0 0 0 29.75 4.77 40.9 40.9 0 0 0 31.46-33.35 40.95 40.95 0 0 0-44.22-47.34 41.16 41.16 0 0 0-36.63 34.48l-.14 1.08a40.6 40.6 0 0 0 7.6 29.3c.18.24.16.58-.06.8l-147.88 148.76c-.2.2-.5.24-.75.11l-18.74-10.09a.6.6 0 0 1-.31-.74L810.9 708.69a.6.6 0 0 1 .34-.39l223.9-102.42a.4.4 0 0 0 .19-.13l69.87-71.87a.63.63 0 0 1 .9 0l167.56 167.56c.25.24.25.64 0 .88m-384.35 158.9c2.17 0 2.17 3.37 0 3.37s-2.16-3.37 0-3.37m399.85-171.67-172.84-172.84 82.35-82.35 172.84 172.84z" class="cls-2"/><path d="M0 0h1920v1920H0z" style="fill:none;stroke-width:0"/></svg>