<svg xmlns="http://www.w3.org/2000/svg" id="_レイヤー_1" viewBox="0 0 1920 1920"><defs><style>.cls-2{stroke-width:0;fill:#fff}</style></defs><path d="M1892.24 960c0 304.32-146.58 575.06-372.84 745.31a578 578 0 0 0-90.7-99.5v-84.53c166.91-139.51 262.51-343.74 262.51-561.28 0-98.71-19.33-194.47-57.47-284.62a729 729 0 0 0-156.7-232.42 728 728 0 0 0-232.42-156.7c-90.15-38.14-185.91-57.47-284.62-57.47s-194.47 19.33-284.63 57.47a729 729 0 0 0-232.42 156.7 744 744 0 0 0-43.24 47.12q.1-2.05.1-4.14a85.75 85.75 0 1 0-171.49 0 85.74 85.74 0 0 0 85.75 85.75 86 86 0 0 0 29.43-5.18 729 729 0 0 0-57.25 108.87c-38.13 90.15-57.46 185.91-57.46 284.62 0 32.65 2.18 65.5 6.48 97.82-21.21 6.96-37.39 15.05-49.26 24.63-13.72 11.07-21.38 24.05-22.78 38.58-2.73 28.48 19.26 60.43 65.35 94.95 26.28 19.69 52.66 34.45 62.45 39.71 45.16 102.02 114.28 193.66 200.27 265.57v56.05c-40.2 14.76-68.95 53.44-68.95 98.71 0 20.85 6.1 40.3 16.59 56.66C191.03 1564.96 27.76 1281.19 27.76 960c0-514.04 418.2-932.24 932.24-932.24s932.24 418.2 932.24 932.24" class="cls-2"/><path d="M1404.08 1527.8v71.35H599.03a104.7 104.7 0 0 0-83.11-27.61v-43.74zm95.37 192.11c-109.52 77.98-236.55 132.9-373.93 157.61a568 568 0 0 0-25.26-97.26c-13.17-36.74-29.55-69.52-48.68-97.43-15.8-23.04-33.52-42.79-52.94-59.05h413.19a557 557 0 0 1 87.62 96.13" class="cls-2"/><path d="M1101.19 1881.57A935 935 0 0 1 960 1892.24c-159.76 0-310.27-40.4-441.84-111.51q4.58.4 9.27.41c57.96 0 105.11-47.16 105.11-105.12 0-19-5.07-36.84-13.93-52.24H956.6c64.75 39.58 101.12 110.95 120.28 164.24a547 547 0 0 1 24.31 93.55m-307.96-1527c-15.01-15.9-36.81-24.22-62.62-24.22q-9.78 0-20.26 1.6c-36.32 5.58-73.57 24.97-104.91 54.62-31.35 29.63-52.79 65.74-60.4 101.68-7.25 34.28-.88 64.12 17.92 84.02s48.24 27.92 82.89 22.59c36.31-5.57 73.56-24.97 104.91-54.6 15.68-14.82 28.88-31.25 39.11-48.48s17.49-35.24 21.29-53.21c7.25-34.29.89-64.12-17.93-84m-83.27 68.03c-5.92 13.08-16.52 27.18-29.84 39.7-13.34 12.52-28.07 22.22-41.48 27.32-7.62 2.89-13.99 4-19.26 4-10.53 0-16.73-4.42-19.95-7.86-4.84-5.16-11.46-17.13-1.4-39.37 5.92-13.06 16.51-27.16 29.83-39.7h.01c13.33-12.52 28.06-22.22 41.48-27.31 22.83-8.66 34.36-1.32 39.2 3.83 4.85 5.17 11.47 17.15 1.41 39.39" class="cls-2"/><path d="M960 253.41c-389.62 0-706.59 316.98-706.59 706.59 0 34.98 2.59 70.21 7.69 104.69l1.57 10.64-10.32 2.99c-28.28 8.2-62.45 22.68-64.6 45.06-1.81 18.75 17.85 44.58 55.35 72.71 28.84 21.64 58.78 37.51 62.67 39.54 7.36 3.01 105.73 42.53 218.01 51.99 152.73 12.86 257.69-33.12 311.98-136.68l21.8 11.43c-32.75 62.49-83.19 106.34-149.91 130.33-52.66 18.93-115.41 25.47-186.5 19.41-83.51-7.11-157.91-29.61-196.83-43.22a712 712 0 0 0 183.74 234.29h445.41c7.72-11.64 27.31-42.58 48.59-87.31 25.13-52.83 57.85-136.3 70.99-233.96 33.16-246.4-67.12-458.63-298.05-630.97a250 250 0 0 1-7.33 7.21c-17.47 16.52-36.69 30.2-56.69 40.54s-40.79 17.35-61.39 20.51a159 159 0 0 1-24.14 1.9c-32.6 0-60.59-10.98-80.38-31.92-24.53-25.95-33.09-63.6-24.11-106.03 8.62-40.78 32.62-81.43 67.56-114.47 34.94-33.05 76.88-54.74 118.09-61.06 42.88-6.59 80 4.08 104.52 30.03 24.53 25.93 33.1 63.58 24.12 106.02-6.51 30.74-21.74 61.42-43.84 88.81 128.86 96.59 219.03 207.57 268.13 330.01 40.52 101.07 53.24 209.96 37.79 323.64-13.7 100.82-47.5 186.8-73.44 241.18-16.13 33.8-31.11 59.67-41.17 75.87h429.25c161.87-134.84 254.62-332.55 254.62-543.18 0-389.61-316.98-706.59-706.59-706.59m-398.29 833.93L438.43 892.91l20.8-13.19 123.27 194.44zm-19.49-421.53 336.73 94.85-6.67 23.7-336.73-94.85zM779.8 949.9l-14.08 20.2-269.13-187.49 14.08-20.2z" class="cls-2"/><path d="M663.26 444.35c-22.29 20.93-41.45 25.93-45.8 24.49-1.18-4.43 4.99-23.24 27.27-44.21 22.26-20.9 41.42-25.92 45.8-24.47 1.18 4.45-4.99 23.26-27.27 44.19m-56.6 1217.45-151.93-20.24a80.5 80.5 0 0 1 72.7-46.03c39.53 0 72.5 28.65 79.23 66.27m.55 24.91c-5.24 39.35-39.02 69.8-79.78 69.8-44.37 0-80.46-36.1-80.46-80.49q0-5.37.69-10.56z" class="cls-2"/><path d="M0 0h1920v1920H0z" style="fill:none;stroke-width:0"/></svg>