<svg xmlns="http://www.w3.org/2000/svg" id="_レイヤー_1" viewBox="0 0 1920 1920"><defs><style>.cls-2{stroke-width:0;fill:#fff}</style></defs><path d="M960 27.76C445.96 27.76 27.76 445.96 27.76 960s418.2 932.24 932.24 932.24 932.24-418.2 932.24-932.24S1474.04 27.76 960 27.76m-.03 1712.6c-430.23 0-780.26-350.02-780.26-780.25s350.03-780.43 780.26-780.43 780.43 350.08 780.43 780.43-350.09 780.25-780.43 780.25" class="cls-2"/><path d="M959.97 732.34c-125.49 0-227.59 102.16-227.59 227.77s102.1 227.59 227.59 227.59 227.76-102.1 227.76-227.59-102.16-227.77-227.76-227.77m.05 383.97c-86.19 0-156.37-70.12-156.37-156.32s70.18-156.31 156.37-156.31 156.32 70.12 156.32 156.31-70.12 156.32-156.32 156.32" class="cls-2"/><path d="M1715.11 972.44c-6.68 410.9-342.56 743.26-755.14 743.26S211.67 1383.34 205 972.44h503.96c6.59 133.26 116.14 239.92 251.01 239.92s244.58-106.66 251.17-239.92z" class="cls-2"/><path d="M1091.68 959.99c0 72.6-59.06 131.66-131.66 131.66s-131.71-59.06-131.71-131.66 59.06-131.65 131.71-131.65 131.66 59.05 131.66 131.65" class="cls-2"/><path d="M0 0h1920v1920H0z" style="fill:none;stroke-width:0"/></svg>