<svg xmlns="http://www.w3.org/2000/svg" id="_レイヤー_1" viewBox="0 0 1920 1920"><defs><style>.cls-2{stroke-width:0;fill:#fff}</style></defs><path d="M960 27.76c-514.03 0-932.22 418.21-932.22 932.27S445.97 1892.24 960 1892.24s932.22-418.19 932.22-932.21S1474.03 27.76 960 27.76m117.8 425.89 51.9 51.9-51.9 51.9-51.9-51.9zM815.96 274.51l87.01 33.19-33.19 87.01-87.01-33.19zm85.85 533.67-74.97 25.12-25.12-74.97 74.97-25.12zM743.1 565.59l25.79-35.96 12.86 42.34 42.16 13.41-36.29 25.31.28 44.25-35.29-26.7-42 13.94 14.49-41.81-26.24-35.63zM511.7 451.37l54.17 54.18-54.17 54.17-54.18-54.17zm-40.88 375.5-7.48-43.62 39.16 20.59 39.17-20.59-7.48 43.62 31.68 30.88-43.78 6.36-19.59 39.68-19.58-39.68-43.79-6.36zm933.49 250.32c0 47.25-77.47 89.24-197.48 115.83l44.48 404.87c12.44 76.5-148.97 145.76-347.9 145.82-198.93-.06-360.35-69.32-347.9-145.82L600 1192.9c-119.72-26.59-196.98-68.53-196.98-115.71 0-80.39 224.14-145.55 500.65-145.55 63.39 0 124.03 3.42 179.83 9.67l288.88-352.16 59.25 42.28-264.17 322.03c142.18 25.67 236.85 71.49 236.85 123.73m186.06-639.28L1457.6 599.77l-59.25-42.27 135.87-165.64a36.3 36.3 0 1 1 56.15 46.05" class="cls-2"/><path d="M1212.76 1050.84c0 34.35-138.39 62.2-309.09 62.2s-309.1-27.85-309.1-62.2 138.39-62.19 309.1-62.19c48.73 0 94.83 2.27 135.82 6.31l-20.09 24.49a36.31 36.31 0 0 0 56.15 46.06l47.91-58.4c55.21 11.24 89.3 26.68 89.3 43.73m-50.99 159c-11.86 9.73-110.12 62.44-258.36 62.44s-246.51-52.71-258.36-62.44a536 536 0 0 0 33.42 7.37c60.7 11.51 140.59 17.85 224.94 17.85s164.23-6.34 224.93-17.85a538 538 0 0 0 33.43-7.37" class="cls-2"/><path d="M0 0h1920v1920H0z" style="fill:none;stroke-width:0"/></svg>