<svg xmlns="http://www.w3.org/2000/svg" id="_レイヤー_1" viewBox="0 0 1920 1920"><defs><style>.cls-2{stroke-width:0;fill:#fff}</style></defs><path d="M960 27.77C445.97 27.77 27.77 445.97 27.77 960s418.2 932.23 932.23 932.23 932.23-418.2 932.23-932.23S1474.03 27.77 960 27.77m301.69 1588.92-.11.04h4.12v86.14H697.48v-86.14h3.82l-.11-.04c-202.96-89.68-346.92-276.11-368.16-495.6h1296.81c-21.24 219.49-165.2 405.92-368.15 495.6m-929.84-514.48c-1.18-11.79-1.18-23.6-1.18-35.39 0-10.63 0-20.07 1.18-30.69h874.37V557.06c-253.69 3.53-508.57 7.08-762.27 11.79V411.92l762.27 10.62v-7.08H1467v10.62c17.7 1.17 35.4 1.17 53.11 1.17v49.57c-17.71 0-35.41 0-53.11 1.18v29.5c17.7 0 35.4 1.17 53.11 1.17v43.66c-17.71 0-35.41 0-53.11 1.18v482.62h164.03c1.17 10.62 1.17 20.06 1.17 30.69 0 11.79 0 23.6-1.17 35.39z" class="cls-2"/><path d="M1206.22 482.72v20.06c-185.26-3.54-370.52-5.9-554.6-9.45 184.08-3.53 369.34-7.08 554.6-10.61m211.23-49.56h31.85v602.97h-31.85zm-48.39 0h31.86v602.97h-31.86zm-48.37 0h31.85v602.97h-31.85zm-49.57 0h31.86v602.97h-31.86zm-48.38 0h31.87v602.97h-31.87z" class="cls-2"/><path d="M0 0h1920v1920H0z" style="fill:none;stroke-width:0"/></svg>