<svg xmlns="http://www.w3.org/2000/svg" viewBox="0 0 1920 1920"><path d="M1758 74.6H162c-48.19 0-87.4 39.21-87.4 87.4v1596c0 48.19 39.21 87.4 87.4 87.4h1596c48.19 0 87.4-39.21 87.4-87.4V162c0-48.19-39.21-87.4-87.4-87.4m-620.78 289.07c55.39 0 100.32 44.93 100.32 100.32s-44.93 100.33-100.32 100.33-100.33-44.88-100.33-100.33 44.94-100.32 100.33-100.32m-263.26 0c55.39 0 100.33 44.93 100.33 100.33s-44.93 100.32-100.33 100.32S773.63 519.39 773.63 464s44.94-100.33 100.33-100.33m-375.1 1126.37H380.99v-280.92l-75.76 131.2-107.78-28.9 146.39-361.41a98.6 98.6 0 0 1 103.37-60.81l228.85 28.1 19.04-119.96-288 66.49v-84.88l414.55-167.46a202 202 0 0 1 78.88-15.93c14.85 0 29.33 1.62 43.27 4.66a11.4 11.4 0 0 1 8.84 12.93l-66.49 419.59c-9.43 60.43-61.77 106.6-124.83 106.6H535.95l-37.11 350.69Zm910.91-235.6H592.94v-69.49h816.83zm177.76 235.63-120.75-350.69h-216.95c-63.11 0-115.4-46.22-124.83-106.65l-66.49-419.6a11.44 11.44 0 0 1 8.84-12.92 206 206 0 0 1 43.27-4.66c101.4 0 185.37 74.26 200.65 171.37l26.92 170.04 201.94 24.78a79.9 79.9 0 0 1 68.58 63.91l90.25 464.43h-111.43Z" style="stroke-width:0;fill:#fff"/><path d="M0 0h1920v1920H0z" style="fill:none;stroke-width:0"/></svg>