<svg xmlns="http://www.w3.org/2000/svg" id="_レイヤー_1" viewBox="0 0 1920 1920"><defs><style>.cls-2{stroke-width:0;fill:#fff}</style></defs><path d="M1283.09 85.49H636.91C737.61 48.16 846.47 27.76 960 27.76s222.39 20.4 323.09 57.73m225.9 652.49v186.63q-7.5-22.96-16.98-45.37a574 574 0 0 0-85.39-141.26z" class="cls-2"/><path d="M1833.91 1284.71V687.17h-194.56V492.45h-222.96v194.73h-56.83a575 575 0 0 0-174.8-115.2 571 571 0 0 0-136.35-38.69h243.19V88.69c350.81 133.95 600.64 474 600.64 871.31 0 114.14-20.62 223.55-58.33 324.71m-324.92-1.32v186.64h-102.38a574 574 0 0 0 85.4-141.27 578 578 0 0 0 16.98-45.37" class="cls-2"/><path d="M1783.11 737.97v659.43a929 929 0 0 1-43.09 72.63h-180.23V737.98h79.56zm-911.5-204.68a571 571 0 0 0-136.36 38.69 575 575 0 0 0-174.8 115.19H147.72v729.95C71.36 1281.98 27.76 1125.99 27.76 960c0-397.3 249.82-737.34 600.62-871.3v444.59z" class="cls-2"/><path d="M513.39 1470.03H198.52V737.97h314.86a575 575 0 0 0-85.4 141.27c-30.11 71.2-45.38 146.82-45.38 224.76s15.27 153.56 45.38 224.76a575 575 0 0 0 85.41 141.27m1190.84 50.8c-170.31 225.45-440.55 371.41-744.23 371.41s-573.92-145.96-744.23-371.41h344.69a575 575 0 0 0 174.79 115.18c71.2 30.12 146.82 45.39 224.76 45.39s153.55-15.27 224.75-45.39a575 575 0 0 0 174.78-115.18z" class="cls-2"/><path d="M960.01 577.39c-290.37 0-526.61 236.24-526.61 526.61s236.24 526.6 526.61 526.6 526.58-236.23 526.58-526.6-236.22-526.61-526.58-526.61m328.96 855.58a464 464 0 0 1-147.87 99.69c-57.38 24.27-118.3 36.57-181.1 36.57s-123.72-12.3-181.1-36.57a464 464 0 0 1-147.86-99.69 464 464 0 0 1-99.7-147.87c-24.26-57.38-36.57-118.31-36.57-181.1s12.31-123.72 36.57-181.09a464 464 0 0 1 99.7-147.87 463 463 0 0 1 147.87-99.69c57.37-24.27 118.3-36.57 181.09-36.57s123.72 12.3 181.1 36.57a464 464 0 0 1 147.87 99.69 464 464 0 0 1 99.69 147.87c24.26 57.37 36.57 118.3 36.57 181.09s-12.31 123.72-36.57 181.1a464 464 0 0 1-99.69 147.87M679.18 136.29h561.63v124.38H679.18zm0 175.18h561.63v171.02H679.18zm909.37 231.77v143.93h-79.56v.01h-41.8V543.24z" class="cls-2"/><path d="M1374.43 1104c0 228.52-185.91 414.43-414.43 414.43S545.57 1332.52 545.57 1104 731.49 689.58 960 689.58s414.43 185.91 414.43 414.42" class="cls-2"/><path d="M0 0h1920v1920H0z" style="fill:none;stroke-width:0"/></svg>