<svg xmlns="http://www.w3.org/2000/svg" id="_レイヤー_1" viewBox="0 0 1920 1920"><defs><style>.cls-2{stroke-width:0;fill:#fff}</style></defs><path d="M960 27.76C445.96 27.76 27.76 445.96 27.76 960s418.2 932.24 932.24 932.24 932.24-418.2 932.24-932.24S1474.04 27.76 960 27.76m672.26 1361.95v42.33h-21.15c-76.37 0-145.26 2.43-206.99 6.44l-306.97 40.92s-.03.02-.04.01h-.04c-67.01 14.81-106.39 28.82-121.33 34.67a188 188 0 0 0-6.94 2.85l-8.83 4.02-8.8-4.05c-.2-.1-2.45-1.1-6.9-2.86-14.94-5.81-54.32-19.82-121.32-34.63q-.04 0-.07-.02l-306.98-40.92c-61.73-4.01-130.62-6.44-206.99-6.44h-21.15V377.87h21.17c240.43 0 406.28 23.84 503.07 43.84 81.91 16.92 129.59 33.9 148.03 41.2 18.45-7.31 66.13-24.28 148.02-41.2 96.79-20 262.64-43.84 503.07-43.84h21.17v42.34h-.31v969.5h.3Z" class="cls-2"/><path d="M1589.62 420.28v969.5c-350.89 2.03-540.15 53.6-608.6 77.19V500.21c17.67-6.64 54.85-19.18 113.56-32.32l.06-.01 309.31-41.23h.07a3159 3159 0 0 1 185.61-6.37Zm-650.94 79.8v966.79c-68.7-23.67-258.02-75.1-608.61-77.09v-969.5c68.3.4 130.2 2.75 185.86 6.36h.07l309.37 41.24.03.01c58.38 13.05 95.49 25.53 113.28 32.19" class="cls-2"/><path d="M0 0h1920v1920H0z" style="fill:none;stroke-width:0"/></svg>