<svg xmlns="http://www.w3.org/2000/svg" id="_レイヤー_1" viewBox="0 0 1920 1920"><defs><style>.cls-2{stroke-width:0;fill:#fff}</style></defs><path d="M960 27.76C445.96 27.76 27.76 445.96 27.76 960s418.2 932.24 932.24 932.24 932.24-418.2 932.24-932.24S1474.04 27.76 960 27.76m654.66 1493.78-42.33-24.44-401.16-231.62-378.77 218.67v.04l-22.38 12.91-19.82 11.42-22.51-13.01-19.69-11.36-360.32-208.01-42.33-24.44V374.19l42.33 24.44L750.2 631.01l.06.04 381.44-220.21 18.25-10.56 21.28-12.22 21.12 12.22 18.25 10.41 12.52 7.24c18.86-70.3 82.97-122.05 159.15-122.05 91.12 0 165.04 73.92 165.04 164.89 0 28.96-7.54 56.12-20.67 79.8l-19.16 41.64 64.85 37.4v-.02l42.33 24.44z" class="cls-2"/><path d="M1478.07 460.77a95.6 95.6 0 0 1-42.7 79.8 95 95 0 0 1-53.1 15.99c-1.35 0-2.86 0-4.22-.15a94.8 94.8 0 0 1-76.33-44.2 94 94 0 0 1-15.09-51.44c0-1.96 0-4.07.3-6.03 3.02-50.09 44.5-89.76 95.34-89.76s95.8 42.99 95.8 95.79" class="cls-2"/><path d="M1572.33 917.35V668.49l-82.5-47.66-107.56 234.28-144.37-314.54c-12.52-22.93-20.06-49.03-20.36-76.93l-25.19-14.49v779.69l18.24 10.51 361.74 208.84V962.62c-32.94-12.9-61.86-22.2-88.13-28.22l9.45-41.26c24.06 5.51 50.06 13.58 78.68 24.21m-149.48 8.81-5.58-.15c-53.55 0-92.02 19.46-140.75 43.9-15.23 7.69-31.22 15.84-48.87 23.83L1210 955.28c17.19-7.85 32.73-15.69 47.52-23.09 53.25-27 99.26-49.93 166.39-48.42zm-439.29 194.91 18.56 38.01c58.98-28.81 107.71-63.81 147.83-106.05v175.82l-18.22 10.53h-.03l-361.68 208.81v-210.04c14.17-4.84 32.16-9.87 52.28-15.41 33.33-9.2 74.67-20.66 117.81-36.96l-15.08-39.67c-41.19 15.69-79.95 26.4-114.05 35.75a1636 1636 0 0 0-40.96 11.85V668.47l22.38-12.92.03-.03 357.52-206.37v546.4l-3.77-2.86c-41.03 52.8-94.28 94.89-162.62 128.38m-255.87 77.7v-531.9l-10.64-6.13-9.1-5.22v-.03L347.68 447.5v533.93a1667 1667 0 0 1 85.09 52.48l-23.33 35.33a1571 1571 0 0 0-61.76-38.73v196.72l380.01 219.41v-204.99c-2.83-.46-5.68-.92-8.43-1.41l7.39-41.63zm-74.96 25.48c-58.38-18.86-94.13-46.01-143.46-83.42-14.03-10.56-29.27-22.18-46.61-34.7l24.89-34.39c17.5 12.82 33.03 24.59 47.21 35.3 47.83 36.35 79.36 60.19 131.1 76.93z" class="cls-2"/><path d="M0 0h1920v1920H0z" style="fill:none;stroke-width:0"/></svg>