<svg xmlns="http://www.w3.org/2000/svg" id="_レイヤー_1" viewBox="0 0 1920 1920"><defs><style>.cls-2{stroke-width:0;fill:#fff}</style></defs><path d="M1892.24 960.01c0 170.58-46.05 330.6-126.37 468.29h-74.17V708.31h-479.99V276.26H708.29v432.05h-480v719.99h-74.16C73.81 1290.61 27.76 1130.59 27.76 960.01c0-514.05 418.2-932.25 932.23-932.25s932.25 418.2 932.25 932.25" class="cls-2"/><path d="M1188.29 731.72V299.67H731.71v432.05H251.7v696.58h1416.58V731.72zM948.28 383.98h23.42v136.74l185.52 92.8-10.48 20.94-198.46-99.26zm214.4 610.09v161.28l-135.43 48.95 158.75 62.29-15.5 45.98-197.38-76.78v91.44h-26.19v-91.44l-197.38 76.78-15.55-45.98 158.76-62.29-110.87-40.07-24.68-8.88V994.07l122.98-43.98-205.95-61.19 10.92-49.72 261.77 80.31V784.72h26.19v134.77l261.71-80.31 10.91 49.72-205.98 61.19zm589.05 457.65C1587 1716 1293.69 1892.24 959.99 1892.24s-627-176.24-791.73-440.52z" class="cls-2"/><path d="M1129.11 1019.92v37.21H973.12v-85.05zm0 73.87v42.99l-155.99 43.16v-86.15zm-182.18 0v86.15l-156.04-43.16v-42.99zm0-121.71v85.05H790.89v-37.21z" class="cls-2"/><path d="M0 0h1920v1920H0z" style="fill:none;stroke-width:0"/></svg>