<svg xmlns="http://www.w3.org/2000/svg" id="_レイヤー_1" viewBox="0 0 1920 1920"><defs><style>.cls-2{stroke-width:0;fill:#fff}</style></defs><path d="M1658.53 1576.71c-170.94 193.39-420.74 315.52-698.53 315.52s-527.59-122.13-698.53-315.52zM960 27.77C445.97 27.77 27.77 445.96 27.77 960c0 212.62 71.55 408.85 191.84 565.87l157.03-294.78h1166.73l157.02 294.78c120.29-157.02 191.84-353.25 191.84-565.87 0-514.04-418.2-932.23-932.23-932.23m592.01 1149.98H367.99V381.32h1184.02z" class="cls-2"/><path d="M1612.06 1412.42h-139.3l-25.4-63.6h125.6v-9.81zm-46.99-88.22h-127.55l-27.35-68.49h118.42zm-154.06 0h-128.75l-18.24-68.49h119.64zm35.23 88.22h-140.48l-16.94-63.6h132.02zm237.49 134.55-4.19 5.12h-520.98l-15.32-115.05h481.94zm-403.46-134.55h-140.31l-8.46-63.6h131.84zm-23.49-88.22h-128.56l-9.12-68.49h119.44zm-154.44 0H972.31v-68.49h120.91zm11.75 88.22H972.31v-63.6h133.31zm-166.4-156.71v68.49H817.67l9.12-68.49zm0 93.11v63.6H805.92l8.47-63.6zm176.87 134.46H795.45l6.15-46.24h316.81zm9.16 68.81H786.29l5.88-44.18h335.67zm-332.81-296.38-9.12 68.49H663.23l18.24-68.49zm-12.4 93.11-8.46 63.6H639.74l16.93-63.6zm-132.52-93.11-18.24 68.49H508.99l27.36-68.49zm-24.8 93.11-16.94 63.6h-140.5l25.4-63.6zm145.58 88.22-15.32 115.05H240.46q-2.1-2.55-4.19-5.12l58.56-109.93zm-266.93-181.33-27.36 68.49H354.94l36.48-68.49zm-37.19 93.11-25.41 63.6h-139.3l39.11-73.42v9.82zm-80.03-942.88h1134.77v747.19H392.62z" class="cls-2"/><path d="M0 0h1920v1920H0z" style="fill:none;stroke-width:0"/></svg>