<svg xmlns="http://www.w3.org/2000/svg" id="_レイヤー_1" viewBox="0 0 1920 1920"><defs><style>.cls-2{stroke-width:0;fill:#fff}</style></defs><path d="M959.99 27.76C445.96 27.76 27.76 445.96 27.76 960s418.2 932.24 932.23 932.24 932.25-418.2 932.25-932.24S1474.03 27.76 959.99 27.76m405.09 1682.94-2.96 11.48H557.85l-111.72-434.01-75.85-294.63-240.49 168.48-21.21-21.42 231.06-323.29 164.53 58.3 78.07 127.13 377.75-792.2 377.75 792.18 307.72-500.98 27.84 11.82z" class="cls-2"/><path d="m1618.35 604.32-165 640.86-99.92-209.55zM362.13 961.9 185.4 1085.72l153.36-214.59zm204.42 73.74-99.91 209.51-99.27-385.56 116.39 41.24zm872.2 249.99-463.46 388.48V313.69zm-7.78 46.44-46.16 179.26-337.13 142.03zm-55.75 216.5-36.82 143.02h-302.68zm-490.96 143.02H581.58l-36.82-143.03zm-11.92-38.22-337.17-142.04-46.15-179.26zm72.36-1339.7v1360.44l-463.47-388.48z" class="cls-2"/><path d="M0 0h1920v1920H0z" style="fill:none;stroke-width:0"/></svg>