<svg xmlns="http://www.w3.org/2000/svg" viewBox="0 0 1920 1920"><path d="M960.01 27.76c-514.05 0-932.25 418.2-932.25 932.23s418.2 932.25 932.25 932.25 932.23-418.2 932.23-932.25-418.2-932.23-932.23-932.23m466.13 1381.35c-55.93 55.92-118.14 83.9-186.47 83.9-55.92 0-99.48-15.44-130.5-46.62-31.18-31.02-46.63-102.55-46.63-214.42 0-99.35 27.97-298.34 83.9-596.67H820.15c-12.52 323.24-108.82 618.51-289.01 885.67l-149.16-83.9c205.1-167.81 329.35-434.98 372.91-801.77H615.05c-93.23 0-180.34 49.82-261.05 149.17l-37.29-9.32c62.06-105.62 114.94-180.2 158.49-223.76 43.42-43.41 105.62-65.26 186.47-65.26h904.3L1528.7 635.3h-316.97c-49.84 242.39-74.58 407.14-74.58 494.11 0 68.48 15.41 118.15 46.6 149.17q55.94 55.94 111.88 55.95c86.95 0 167.81-46.62 242.39-139.85l37.28 18.63c-37.28 68.48-87.12 133.73-149.16 195.8" style="stroke-width:0;fill:#fff"/><path d="M0 0h1920v1920H0z" style="fill:none;stroke-width:0"/></svg>