<svg xmlns="http://www.w3.org/2000/svg" id="_レイヤー_1" viewBox="0 0 1920 1920"><defs><style>.cls-2{stroke-width:0;fill:#fff}</style></defs><path d="M960.01 27.76c-514.05 0-932.25 418.2-932.25 932.23s418.2 932.25 932.25 932.25 932.23-418.2 932.23-932.25-418.2-932.23-932.23-932.23m477.32 1542.86H482.67V651.97h115.4c6.11-194.36 166.12-350.59 361.94-350.59s355.83 156.23 361.94 350.59h115.38z" class="cls-2"/><path d="M1246.98 651.97H673.02C679.09 498.93 805.5 376.3 960.01 376.3s280.9 122.63 286.97 275.67m-413.49 670.05 85.31-260.31c-43.16-16.59-73.87-58.33-73.87-107.34 0-63.57 51.53-115.06 115.06-115.06s115.1 51.49 115.1 115.06c0 49.01-30.71 90.75-73.89 107.34l85.31 260.31z" class="cls-2"/><path d="M0 0h1920v1920H0z" style="fill:none;stroke-width:0"/></svg>