<svg xmlns="http://www.w3.org/2000/svg" id="_レイヤー_1" viewBox="0 0 1920 1920"><defs><style>.cls-2{stroke-width:0;fill:#fff}</style></defs><path d="M959.99 27.05c-514.43 0-932.95 418.52-932.95 932.96s418.52 932.94 932.95 932.94 932.97-418.51 932.97-932.94S1474.43 27.05 959.99 27.05m524.44 772.72v417.21l-350.41 126.84 410.65 161-40.07 119.01-510.71-198.65v236.64h-67.73v-236.64L415.4 1623.83l-40.14-119.01 410.77-161-286.79-103.8-63.95-23.04V799.77L753.4 686.05 220.65 527.58l28.27-128.6 677.24 207.81v-348.6h67.73v348.6l677.19-207.81 28.27 128.6-532.98 158.47z" class="cls-2"/><path d="M1397.56 1057.79v111.24l-403.67 111.55v-222.79zm0-191.16v96.24H993.89V742.88zm-471.4-123.75v219.99H522.5v-96.24zm0 314.91v222.79L522.5 1169.03v-111.24z" class="cls-2"/><path d="M0 0h1920v1920H0z" style="fill:none;stroke-width:0"/></svg>