<svg xmlns="http://www.w3.org/2000/svg" id="_レイヤー_1" viewBox="0 0 1920 1920"><defs><style>.cls-2{stroke-width:0;fill:#fff}</style></defs><path d="M1470.51 1739.71c-146.74 96.4-322.19 152.53-510.51 152.53s-363.77-56.13-510.51-152.53zM1892.24 960c0 310.96-153.03 586.84-387.75 756.29H964.14l4.05-3.9c3.19-3.08 78.71-76.33 125.97-171.19 62.47-125.4 45-228.74-50.45-299.26V84.31H876.3v1157.6c-95.49 70.52-112.97 173.87-50.49 299.29 47.27 94.86 122.95 168.12 126.15 171.2l4.05 3.89h-540.5C180.79 1546.84 27.76 1270.96 27.76 960c0-514.04 418.2-932.24 932.24-932.24s932.24 418.2 932.24 932.24" class="cls-2"/><path d="M1079.19 1518.24a124 124 0 0 0-30.8-14.19c-24-7.15-60.16-8.93-96.11 23.18-48.71 43.38-97.03 9-106.57 1.36-56.58-115.04-41.14-205.47 45.91-268.88h136.73c84.41 61.49 101.49 148.41 50.84 258.53M899.71 107.73h120.59V228.3H899.71zm0 143.99h120.59v984.57H899.71z" class="cls-2"/><path d="M0 0h1920v1920H0z" style="fill:none;stroke-width:0"/></svg>