<svg xmlns="http://www.w3.org/2000/svg" id="_レイヤー_1" viewBox="0 0 1920 1920"><defs><style>.cls-2{stroke-width:0;fill:#fff}</style></defs><path d="M960.05 27.76c-514.07 0-932.29 418.19-932.29 932.22s418.22 932.26 932.29 932.26 932.19-418.21 932.19-932.26S1474.06 27.76 960.05 27.76m295.87 378.03a15.29 15.29 0 0 1 22.47-20.73c43.83 47.53 43.94 99.34.34 149.83l-.32.36c-33.03 35.89-32.92 70.57.33 109.16a15.28 15.28 0 1 1-23.16 19.95c-43.45-50.42-43.39-102.15.16-149.62 33.16-38.5 33.22-73.13.18-108.95M988.6 514.74c33.17-38.51 33.22-73.13.18-108.95a15.29 15.29 0 0 1 22.47-20.73c43.83 47.53 43.95 99.34.33 149.84l-.33.37c-33.08 35.88-32.98 70.55.33 109.13a15.28 15.28 0 1 1-23.13 19.97c-43.55-50.42-43.49-102.16.15-149.63M721.59 405.77a15.28 15.28 0 1 1 22.5-20.69c43.76 47.57 43.87 99.38.32 149.81l-.33.38c-33.1 35.88-32.99 70.55.33 109.12a15.3 15.3 0 0 1-23.14 19.99c-43.55-50.43-43.5-102.17.16-149.64 33.11-38.46 33.17-73.09.16-108.97m878.44 374.45c-25.61 0-51.57 22.52-71.22 61.8-21.38 42.72-33.26 99.73-33.54 160.75q.15 1.07.15 2.19a494.6 494.6 0 0 1-68.34 251.1 498.4 498.4 0 0 1-166.29 170l52.43 90.83a15.3 15.3 0 0 1-13.24 22.93H700.06a15.3 15.3 0 0 1-13.24-22.93l52.48-90.93a497 497 0 0 1-68.68-51.34 502 502 0 0 1-49.38-50.68 254 254 0 0 1-101.18 20.92c-140.75 0-255.26-114.5-255.26-255.23 0-68.19 26.55-132.3 74.78-180.53 36.15-36.16 81.23-60.13 130.26-69.87-19.45-37.56-44.78-59.01-69.79-59.01a15.29 15.29 0 0 1 0-30.57h1199.98a15.28 15.28 0 1 1 0 30.57" class="cls-2"/><path d="M541.45 1192.12c-6.9 1.44-14.06 2.2-21.39 2.2-57.75 0-104.73-46.97-104.73-104.69 0-52.45 38.72-96.03 89.07-103.61q.38 9.4.38 18.95c.02 64.92 12.35 127.78 36.67 187.15" class="cls-2"/><path d="M601.53 1299.01a224 224 0 0 1-81.47 15.28c-123.9 0-224.7-100.78-224.7-224.66 0-111.12 81.04-203.66 187.11-221.6 9.61 26.04 16.29 55.74 19.69 87.44-66.17 8.79-117.39 65.6-117.39 134.16 0 74.58 60.69 135.25 135.29 135.25 11.77 0 23.19-1.51 34.08-4.35a494 494 0 0 0 47.37 78.45zm671.99 210.24H726.53l42.29-73.29h462.39z" class="cls-2"/><path d="M1464.7 1004.96q0 1.13.15 2.19c-.77 163.17-88.25 315.22-228.95 398.25H764.34a465 465 0 0 1-134.48-119.8 465 465 0 0 1-59.54-104.14 464 464 0 0 1-34.97-176.5 500 500 0 0 0-2.52-50.07c-3.28-32.18-9.72-62.65-19.02-89.92a301 301 0 0 0-15.19-36.62c-9.76-19.51-20.94-35.66-33.17-48.13h1069.39c-42.12 42.79-70.13 126.46-70.13 224.74Z" class="cls-2"/><path d="M0 0h1920v1920H0z" style="fill:none;stroke-width:0"/></svg>