<svg xmlns="http://www.w3.org/2000/svg" id="_レイヤー_1" viewBox="0 0 1920 1920"><defs><style>.cls-2{stroke-width:0;fill:#fff}</style></defs><path d="M960.01 27.76c-514.05 0-932.26 418.19-932.26 932.22s418.21 932.26 932.26 932.26 932.24-418.21 932.24-932.26-418.2-932.22-932.24-932.22m445.37 953.89c-53.28 64.16-106.92 120.04-160.49 167.24l97.77 89.67-303.53 193.55-84.94-112.6c-48.53 14.24-97.04 21.41-145.23 21.41h-2.2q-17.1-.07-34.22-1.36l104.03 111.03-216.35 86.59-54.55-238.36q-51.6-21.34-102.73-53.38c-98.91-61.99-198.79-155.68-296.89-278.45l-7.62-9.54 7.62-9.54c98.1-122.78 197.98-216.47 296.89-278.46 95.07-59.58 191.8-91.55 287.8-95.14V385.55l550.45 243.53L1242.62 764c54.32 47.62 108.72 104.16 162.76 169.23l311.91-387.33V1369l-311.91-387.34Z" class="cls-2"/><path d="M1294.13 641.67 1219.3 744.1c-35.61-29.55-71.16-55.22-106.53-76.93-96.7-59.34-194.67-90.61-291.47-93.06V432.49zm-1.46 592.52-246.15 156.96-61.57-81.61c42.71-15.16 85.39-35.79 127.82-61.83 36.1-22.16 72.4-48.46 108.75-78.78zm-469 204.64-141.63 56.68-42.03-183.69a541 541 0 0 0 89.21 22.58l-1.81 1.69zm863.05-806.25v649.71l-261.59-324.85z" class="cls-2"/><path d="m808.96 604.52-2.06.01c-188.83.85-380.33 119.58-569.29 352.91 188.96 233.33 380.46 352.05 569.29 352.91h2.06c189.59 0 383.59-118.72 576.79-352.91-193.19-234.19-387.21-352.92-576.79-352.92m-355.1 323.62c-31.53 0-57.17-25.64-57.17-57.16s25.64-57.15 57.17-57.15 57.17 25.64 57.17 57.15-25.65 57.16-57.17 57.16M821.3 1118.6l-139.55-86.66c-8.24 41.4-23.29 82.82-45.04 123.82l-27-14.32c64.77-122.1 64.77-245.91 0-368l27-14.33c22.58 42.57 37.95 85.6 45.95 128.58L821.3 801.6z" class="cls-2"/><path d="M790.74 856.56v207.08l-103.89-64.52a374 374 0 0 0 .53-78.37zm-310.28 14.42c0 14.66-11.93 26.59-26.6 26.59s-26.61-11.93-26.61-26.59 11.94-26.58 26.61-26.58 26.6 11.92 26.6 26.58" class="cls-2"/><path d="M0 0h1920v1920H0z" style="fill:none;stroke-width:0"/></svg>