<svg xmlns="http://www.w3.org/2000/svg" id="_レイヤー_1" viewBox="0 0 1920 1920"><defs><style>.cls-2{stroke-width:0;fill:#fff}</style></defs><path d="M960 27.77C445.14 27.77 27.77 445.14 27.77 960c0 108.07 18.39 211.85 52.21 308.37 112.18-61.43 228.6-111.4 346.55-148.75 177.91-56.33 360.5-84.41 542.66-83.43 72.08.38 145.01 5.36 216.77 14.79a1790 1790 0 0 1 236.93 47.81c142.52 38.93 282.7 95.92 417.13 169.58 33.82-96.52 52.21-200.3 52.21-308.37 0-514.86-417.37-932.23-932.23-932.23M657.58 844.38a26.17 26.17 0 0 1-26.14 26.14H490.52a2.8 2.8 0 0 0-2.3 1.13c-.4.51-.81 1.36-.51 2.5l16.44 62.6a25.85 25.85 0 0 1-10.63 28.28 26 26 0 0 1-14.67 4.56 26 26 0 0 1-15.54-5.19l-126.04-93.31a3 3 0 0 0-1.73-.57H177.28a26.17 26.17 0 0 1-26.14-26.14V539.74a26.17 26.17 0 0 1 26.14-26.14h454.16a26.16 26.16 0 0 1 26.14 26.14zm555.64 4.59a21.57 21.57 0 0 1-21.54 21.55h-157.32l-45.69 87.08a21.4 21.4 0 0 1-19.11 11.54c-7.07 0-13.59-3.4-17.66-9.26l-62.01-89.36H728a21.24 21.24 0 0 1-21.22-21.22V535.14a21.56 21.56 0 0 1 21.54-21.54h463.36a21.56 21.56 0 0 1 21.54 21.54zm558.93-2.56a26.17 26.17 0 0 1-26.14 26.14h-158.26q-.95 0-1.73.57l-126.04 93.31a26 26 0 0 1-15.54 5.2 26 26 0 0 1-14.67-4.56 25.9 25.9 0 0 1-10.63-28.28l16.44-62.6a2.8 2.8 0 0 0-.51-2.51 2.8 2.8 0 0 0-2.3-1.13h-140.92a26.16 26.16 0 0 1-26.14-26.14V541.77a26.17 26.17 0 0 1 26.14-26.14h454.16a26.17 26.17 0 0 1 26.14 26.14z" class="cls-2"/><path d="M1596.17 1641.44a935 935 0 0 1-190.95 137.81l-12.96-5.32c-63.35-37.99-131.45-65.36-202.4-81.35-16.42-3.7-35.38-7.12-52.64-.77-14.94 5.45-121.84 56.04-133.45 69.44-31.18 36-29.5 56.6-27.55 80.44 1.15 14.06 2.41 29.49-3.92 50.46h-.01q-6.13.08-12.29.08c-197.18 0-380.06-61.22-530.67-165.67 37.86-63.91 96.18-132.39 146.98-171.68 38.67-29.88 90.16-64.99 145.57-71.34 9.31-1.06 18.89-1.33 28.16-1.59 16.17-.45 32.89-.91 49.2-5.56 28.13-8.01 53-27.31 80.29-49.84 75.84-62.54 150.83-130.95 222.9-203.31 33.92-34.06 59.22-67.63 76.77-122.92l.27.03a1739 1739 0 0 1 213.93 42.1c6.03 22.83 12.2 50.42 18.19 77.19 6.88 30.78 14 62.61 21.1 88.14l.05.19c5.04 18.02 10.25 36.65 19.38 54.45 11.29 22.01 26.76 39.32 41.72 56.06 4.44 4.97 8.63 9.66 12.74 14.49 48.84 57.36 80.34 130.88 89.59 208.47M730.02 536.84v310.44h160.76c7.06 0 13.67 3.46 17.7 9.26l60.91 87.79 44.86-85.52a21.5 21.5 0 0 1 19.08-11.53h156.65V536.84zm42.08 194.39 50.18-91.77 50.19 91.77zm136.2 0 50.18-91.77 50.18 91.77zm139.23 0 50.19-91.77 50.18 91.77zm698.48-192.36h-454.16a2.9 2.9 0 0 0-2.9 2.9v304.64c0 1.6 1.3 2.9 2.9 2.9h140.92c8.17 0 15.71 3.71 20.7 10.18a26 26 0 0 1 4.59 22.6l-16.44 62.6a2.7 2.7 0 0 0 1.18 3.13q1.7 1.15 3.35-.07l126.04-93.31a26.3 26.3 0 0 1 15.56-5.13h158.26a2.9 2.9 0 0 0 2.9-2.9V541.77a2.9 2.9 0 0 0-2.9-2.9m-316.39 190.51h-77.32v-77.31h77.32zm125.05 0h-77.32v-77.31h77.32zm125.04 0h-77.31v-77.31h77.31zM631.44 536.84H177.28a2.9 2.9 0 0 0-2.89 2.9v304.64c0 1.6 1.3 2.9 2.89 2.9h158.26c5.56 0 11.09 1.82 15.56 5.13l126.04 93.31q1.64 1.21 3.35.07a2.7 2.7 0 0 0 1.18-3.14l-16.44-62.6c-2.07-7.9-.4-16.13 4.59-22.6s12.53-10.17 20.7-10.17h140.92c1.6 0 2.9-1.3 2.9-2.9V539.74c0-1.6-1.3-2.9-2.9-2.9m-370.2 204.75a51.15 51.15 0 1 1-.01-102.3 51.15 51.15 0 0 1 .01 102.3m145.47 0a51.16 51.16 0 1 1 0-102.32 51.16 51.16 0 0 1 0 102.32m145.47 0a51.15 51.15 0 1 1 0-102.3 51.15 51.15 0 0 1 0 102.3" class="cls-2"/><path d="M0 0h1920v1920H0z" style="fill:none;stroke-width:0"/></svg>