<svg xmlns="http://www.w3.org/2000/svg" id="_レイヤー_1" viewBox="0 0 1920 1920"><defs><style>.cls-2{stroke-width:0;fill:#fff}</style></defs><path d="M1892.23 960c0 319.21-161.27 601.46-406.6 769.56l-116.49-243.05c47.08-7.54 90.58-29.7 125.12-64.25 43.29-43.29 67.12-100.63 67.12-161.46V467.22c0-60.84-23.83-118.18-67.12-161.47-43.28-43.29-100.63-67.13-161.47-67.13H587.21c-60.84 0-118.19 23.84-161.47 67.13s-67.13 100.63-67.13 161.47v793.58c0 60.83 23.84 118.17 67.13 161.46 34.54 34.55 78.05 56.71 125.14 64.25l-116.51 243.05C189.04 1561.46 27.77 1279.21 27.77 960c0-514.04 418.2-932.24 932.23-932.24s932.23 418.2 932.23 932.24" class="cls-2"/><path d="M1288.57 1832.46c-102.23 38.63-212.98 59.78-328.57 59.78s-226.33-21.15-328.56-59.78l102.6-228.67 451.92.03zm44.22-1543.04H587.21c-98.04 0-177.8 79.76-177.8 177.8v793.58c0 98.03 79.76 177.79 177.8 177.79h745.58c98.03 0 177.79-79.76 177.79-177.79V467.22c0-98.04-79.76-177.8-177.79-177.8m-786.11 79.94h826.64v142.51H546.68zM672 1345.4c-53.7 0-97.4-43.7-97.4-97.4s43.7-97.4 97.4-97.4 97.4 43.69 97.4 97.4-43.69 97.4-97.4 97.4m576 0c-53.71 0-97.4-43.7-97.4-97.4s43.69-97.4 97.4-97.4 97.4 43.69 97.4 97.4-43.7 97.4-97.4 97.4m169.41-264.09h-914.8V558.63h914.8z" class="cls-2"/><circle cx="1248" cy="1248" r="46.6" class="cls-2"/><circle cx="672" cy="1248" r="46.6" class="cls-2"/><path d="M553.41 609.43h813.2v421.08h-813.2zm44.07-189.27h725.04v40.91H597.48z" class="cls-2"/><path d="M0 0h1920v1920H0z" style="fill:none;stroke-width:0"/></svg>