<svg xmlns="http://www.w3.org/2000/svg" id="_レイヤー_1" viewBox="0 0 1920 1920"><defs><style>.cls-2{stroke-width:0;fill:#fff}</style></defs><path d="M1119.29 41.38v1028.17l-144 144v678.56a932 932 0 0 0 113.42-8.73v-682.5l287.99-287.99V566.51c-54.16-7.46-96-54.03-96-110.21 0-61.37 49.92-111.3 111.29-111.3s111.31 49.93 111.31 111.3c0 56.17-41.85 102.75-96.01 110.21v359.05l-288 287.99v665.07c438.41-75.79 772.94-458.87 772.94-918.62S1557.7 117.17 1119.29 41.38m528 708.19v175.99l-144 143.99v330.93c54.16 7.47 96 54.06 96 110.24 0 61.36-49.93 111.28-111.3 111.28s-111.29-49.92-111.29-111.28c0-56.18 41.84-102.78 96-110.24v-343.6l144-143.99V748.54c-52.33-9.05-92.25-54.78-92.25-109.64 0-61.38 49.92-111.31 111.28-111.31s111.31 49.93 111.31 111.31c0 57.45-43.78 104.88-99.75 110.67" class="cls-2"/><path d="M1088.71 36.62v1020.26l-144 144v691.23a932 932 0 0 1-113.41-8.73V390.82c56.05-5.71 99.93-53.18 99.93-110.69 0-61.38-49.93-111.31-111.3-111.31s-111.29 49.93-111.29 111.31c0 54.8 39.83 100.47 92.07 109.61v780.55L543.3 912.89V688.95c54.16-7.47 96-54.06 96-110.24 0-61.36-49.93-111.27-111.3-111.27s-111.29 49.91-111.29 111.27c0 56.18 41.84 102.78 96 110.24v236.61l288 287.99v665.07a924 924 0 0 1-257.41-84.81v-592.93l-288-287.99V576.73c54.16-7.47 96-54.04 96-110.21s-44.25-105.41-100.64-110.78C421.79 155.15 676.3 27.76 960 27.76c43.66 0 86.63 3.02 128.71 8.86" class="cls-2"/><path d="M512.71 1213.55v564.2C223.94 1619.17 27.77 1312.06 27.77 960c0-160.59 40.82-311.83 112.62-443.89 16.09 32.19 47.34 55.53 84.33 60.62v348.83zM320.72 466.52c0 44.49-36.21 80.69-80.72 80.69-39.61 0-72.64-28.68-79.43-66.36a936 936 0 0 1 64.39-93.63q7.32-1.4 15.04-1.41c44.51 0 80.72 36.21 80.72 80.71m579.93-186.39c0 44.48-36.21 80.68-80.72 80.68s-80.7-36.2-80.7-80.68 36.2-80.72 80.7-80.72 80.72 36.21 80.72 80.72M608.71 578.71c0 44.5-36.21 80.71-80.71 80.71s-80.7-36.21-80.7-80.71 36.2-80.69 80.7-80.69 80.71 36.2 80.71 80.69m864-122.41c0 44.49-36.21 80.69-80.72 80.69s-80.7-36.2-80.7-80.69 36.2-80.71 80.7-80.71 80.72 36.21 80.72 80.71m243.74 182.6c0 44.49-36.21 80.68-80.72 80.68s-80.7-36.19-80.7-80.68 36.2-80.72 80.7-80.72 80.72 36.21 80.72 80.72m-147.74 871.82c0 44.49-36.21 80.69-80.72 80.69s-80.7-36.2-80.7-80.69 36.2-80.71 80.7-80.71 80.72 36.21 80.72 80.71" class="cls-2"/><path d="M0 0h1920v1920H0z" style="fill:none;stroke-width:0"/></svg>