<svg xmlns="http://www.w3.org/2000/svg" id="_レイヤー_1" viewBox="0 0 1920 1920"><defs><style>.cls-2{stroke-width:0;fill:#fff}</style></defs><path d="M960 28C446.09 28 28 446.09 28 960s418.09 932 932 932 932-418.09 932-932S1473.91 28 960 28m560.41 1617.05a69.7 69.7 0 0 1-69.63 69.63H469.22a69.7 69.7 0 0 1-69.63-69.63V274.95a69.7 69.7 0 0 1 69.63-69.63h981.56a69.7 69.7 0 0 1 69.63 69.63z" class="cls-2"/><path d="M1450.78 271.73H469.22a3.2 3.2 0 0 0-3.22 3.22v1370.1a3.2 3.2 0 0 0 3.22 3.22h981.56a3.2 3.2 0 0 0 3.22-3.22V274.95a3.2 3.2 0 0 0-3.22-3.22m-236.15 716.32c3.49 34.51-30.8 33.64-62.14 26.62l-.16-.03c-4-.56-56.47-7.43-158.94 7.63L980.4 1407.7c0 .45.13 51.84-15.71 135.63-2.62 13.91-5.21 19.63-8.89 19.64h-.18c-1.45-.07-3.07-.92-4.93-4.84q-.92.61-1.94.61h-.19c-2.59-.13-5.78-2.77-9.82-21.31-2.39-10.96-4.85-26.47-7.33-46.11-4.41-34.93-7.76-74.04-9.19-90.74a502 502 0 0 0-.73-8.21h.03l-.02-.22h-.06q0-.18.03-.33-.05-.83-.05-2.13l-.08-7.28a80837 80837 0 0 0-4.17-346.42 1553 1553 0 0 0-80.07 19.13 1225 1225 0 0 1-39.86 9.98c-31.72 17.75-70.37 38.22-65.92 16.8 6.58-31.7 4.06-53.28 1.87-63.57a29.5 29.5 0 0 0-4.92-11.19c-18.87-26.33-119.3-166.57-129.51-181.89-6.06-9.09-9.68-36.86-11.73-60.64-1.88-21.84 19.87-38.36 40.25-30.31 41.74 16.49 75.85 54.49 83.09 71.2 2.29 5.29 9.24 20.91 18.78 41.86l3.55-1.78.22.43 3.98-1.61-4.18 1.17c1.41-.64 83.24-37.76 177.14-78.41-3.02-96.27-5.55-170.85-6.72-191.2l-.23-.19c-.1-.1-7.58-7.38-27.13-26.83-8.77-7.12-19.7-16.82-32.82-29.94-6.57-6.58-9.38-14.47-8.33-23.48 4.66-40.15 84.22-89.83 87.6-91.93q.36-.22.78-.24c15.78-.87 30.52 3.3 44.12 12.47 18.45 9.84 34.95 28.37 49.17 55.25 15.61 29.51 24.54 62.03 27.47 72.72q.12.46 0 .9a94 94 0 0 1-2.46 7.37l-.13.26a95 95 0 0 0-6.54 13.38 67.4 67.4 0 0 1-26.7 25.08l-4.6 136.59c87.89-36.69 166.91-67.11 182.07-64.77 26.87 5.17 41.62 13.37 47.59 17.38l.12.08a45 45 0 0 1 4.03 2.8l.06-.03.38.38.09.08.07.06.1.08v.02c8.33 8.18 95.24 94.35 95.24 131.94 0 0-124.1 116.88-118.45 172.67Z" class="cls-2"/><path d="M1184.4 766.7a245 245 0 0 0-3.62 17.27c-9.44 54.49-47.94 130.98-66.45 177.29-30.07 1.97-74.28 9.39-119.5 18.27l6.81-202.01c70.96-25.42 135.9-41.33 160.81-26.53q1.77 1.25 3.2 2.73a55 55 0 0 0 10.5 8.75 32 32 0 0 0 8.23 4.23ZM916.58 995.92c-56.14 12.36-100.18 23.12-100.41 22.64l-2.73 1.35c-18.25-32.23-44.03-85.71-65.34-131.44l6.06-2.75s72.47-36.72 157.13-72.61c1.63 52.79 3.35 110.02 5.05 167.22z" class="cls-2"/><path d="M0 0h1920v1920H0z" style="fill:none;stroke-width:0"/></svg>