<svg xmlns="http://www.w3.org/2000/svg" width="144" height="144" style="isolation:isolate"><defs><clipPath id="a"><path d="M0 0h512v512H0z"/></clipPath></defs><g clip-path="url(#a)"><circle cx="72" cy="72" r="72" fill="#FFFEFE" vector-effect="non-scaling-stroke"/><clipPath id="b"><circle cx="72" cy="72" r="72" fill="#000000" vector-effect="non-scaling-stroke"/></clipPath><g clip-path="url(#b)"><path fill="#0B0E0F" d="M99.923 80.527c1.527 1.931 2.76 4.462 1.722 6.911-1.841 4.343-7.578 5.705-11.708 6.511-8.906 1.739-18.267.876-27.196-.312-6.7-.892-13.365-2.305-19.739-4.579-20.608-7.352-27.043-13.59-28.654-18.351-.877-2.591.371-5.063 2.345-6.75 2.58-2.204 6.158-3.189 9.413-3.879a40 40 0 0 1 2.343-.4 52 52 0 0 1 4.009-.399 71 71 0 0 1 5.142-.124c2.116.023 4.23.128 6.339.297 2.541.202 5.075.497 7.597.862 2.989.433 5.962.965 8.919 1.575 3.253.671 6.486 1.435 9.699 2.274a95 95 0 0 0-1.679-.365 198.607 198.607 0 0 0-11.17-1.991 173 173 0 0 0-7.982-1.005 128 128 0 0 0-8.577-.598c-2.805-.094-5.617-.081-8.417.12-3.428.247-6.796.803-10.05 1.941-2.22.777-4.93 2.034-5.944 4.327-.779 1.764-.118 3.652.91 5.159 1.434 2.104 3.515 3.755 5.601 5.172 2.22 1.509 4.598 2.799 7.045 3.9 9.385 4.257 19.9 6.609 30.03 8.219 5.757.915 11.581 1.577 17.418 1.523 5.304-.05 12.223-.271 16.88-3.147 1.209-.747 2.242-1.891 2.531-3.282.214-1.033.005-2.111-.346-3.106-1.173-3.319-3.819-5.869-6.377-8.289 5.788 2.43 9.896 7.785 9.896 7.785"/><path fill="#DE0D22" d="M120.342 61.043c-3.216 9.019 44.641-9.837 29.711-3.851-8.619 3.457-129.786 36.673-129.786 36.673l39.615-32.093q5.622 1.174 11.2 2.54c-3.874.991-13.161 6.235-13.161 6.235-19.357 12.404-1.646 11.971-1.646 11.971 30.24-2.427 77.935-33.897 77.39-33.446.001 0-11.851 7.842-13.323 11.971"/></g></g></svg>
