<svg xmlns="http://www.w3.org/2000/svg" width="14.98" height="18.73" viewBox="0 0 14.98 18.73"><path fill="#fff" d="M7.5 9.13a1.6 1.6 0 0 0 1.15-.48 1.6 1.6 0 0 0 .48-1.16 1.6 1.6 0 0 0-.48-1.16 1.6 1.6 0 0 0-1.16-.48 1.6 1.6 0 0 0-1.16.48 1.6 1.6 0 0 0-.48 1.16 1.6 1.6 0 0 0 .49 1.16 1.6 1.6 0 0 0 1.15.48m0 7.75a27 27 0 0 0 4.6-5.14 8 8 0 0 0 1.48-4.06 6 6 0 0 0-1.76-4.52 6 6 0 0 0-4.33-1.75 6 6 0 0 0-4.32 1.75A6 6 0 0 0 1.4 7.68a7.7 7.7 0 0 0 1.53 4.06 30 30 0 0 0 4.56 5.14m0 1.85a31 31 0 0 1-5.64-5.96A9.3 9.3 0 0 1 0 7.67a7.2 7.2 0 0 1 2.26-5.6A7.5 7.5 0 0 1 7.49 0a7.5 7.5 0 0 1 5.23 2.08 7.2 7.2 0 0 1 2.26 5.6 9.3 9.3 0 0 1-1.86 5.1 31 31 0 0 1-5.63 5.95m0-11.24" data-name="location_on_FILL0_wght400_GRAD0_opsz48 (1)"/></svg>