<svg xmlns="http://www.w3.org/2000/svg" xml:space="preserve" viewBox="0 0 48 48"><path d="M27.9 43.8c-.4.2-.8.2-1.2.1s-.7-.4-.9-.8l-3.5-6.9c-.2-.4-.2-.8-.1-1.2s.4-.7.7-.9q.6-.3 1.2 0c.4.1.7.4.9.8l3.5 6.9c.2.4.2.8.1 1.2s-.3.7-.7.8m12 0q-.6.3-1.2 0c-.4-.1-.7-.4-.9-.8l-3.5-6.9c-.2-.4-.2-.8-.1-1.2s.4-.7.7-.9c.4-.2.8-.2 1.2-.1s.7.4.9.8l3.4 6.9c.2.4.2.8.1 1.2s-.2.8-.6 1m-24 0c-.4.2-.8.2-1.2.1s-.7-.4-.9-.7l-3.4-6.9c-.2-.4-.2-.8-.1-1.2s.4-.7.8-.9.8-.2 1.2-.1.7.4.9.7l3.4 7q.3.6 0 1.2c-.1.3-.3.6-.7.8M14.5 31c-2.9 0-5.4-1-7.4-3.1a10.37 10.37 0 0 1-.3-14.5 10 10 0 0 1 7-3.4c1.1-1.9 2.5-3.3 4.2-4.4S21.8 4 24 4c3 0 5.6 1 7.6 2.9s3.3 4.3 3.8 7.1q3.9.15 6.3 2.7c1.6 1.6 2.3 3.6 2.3 5.8 0 2.3-.8 4.3-2.5 6a8.2 8.2 0 0 1-6 2.5zm0-3h21c1.5 0 2.8-.5 3.9-1.6S41 24 41 22.5s-.5-2.8-1.6-3.9S37 17 35.5 17h-3v-1.5c0-2.4-.8-4.4-2.5-6A8 8 0 0 0 24 7c-1.7 0-3.3.5-4.7 1.4s-2.5 2.2-3.1 3.7l-.4.9h-1.4c-2.1.1-3.8.8-5.2 2.3S7 18.5 7 20.5c0 2.1.7 3.8 2.2 5.3s3.2 2.2 5.3 2.2" style="fill:#fff"/></svg>