<svg xmlns="http://www.w3.org/2000/svg" xml:space="preserve" viewBox="0 0 48 48"><path d="M24 33.8c.4 0 .8-.1 1.1-.4s.4-.7.4-1.1-.1-.7-.4-1-.7-.4-1.1-.4-.8.1-1 .4c-.3.3-.5.6-.5 1s.1.8.5 1.1c.2.3.6.4 1 .4m0-8.3c.4 0 .8-.1 1.1-.5.3-.3.4-.6.4-1s-.1-.8-.4-1.1-.7-.4-1.1-.4-.8.1-1 .4c-.3.3-.5.7-.5 1.1s.1.8.5 1c.2.4.6.5 1 .5m0-8.4c.4 0 .8-.1 1.1-.5.3-.3.4-.6.4-1s-.1-.8-.4-1.1-.7-.4-1.1-.4-.8.1-1 .4c-.3.3-.5.6-.5 1.1 0 .4.1.8.5 1 .2.4.6.5 1 .5M41 40H7q-1.2 0-2.1-.9T4 37v-7.6c1.2-.3 2.3-.9 3.1-1.9s1.2-2.1 1.2-3.5c0-1.3-.4-2.5-1.2-3.5S5.3 18.9 4 18.6V11q0-1.2.9-2.1C5.8 8 6.2 8 7 8h34q1.2 0 2.1.9T44 11v7.7c-1.2.2-2.3.9-3.1 1.9s-1.2 2.2-1.2 3.5.4 2.5 1.2 3.5 1.8 1.6 3.1 1.9V37q0 1.2-.9 2.1T41 40m0-3v-5.5c-1.3-.9-2.3-1.9-3.1-3.2s-1.2-2.7-1.2-4.3.4-3 1.2-4.3a9.5 9.5 0 0 1 3.1-3.2V11H7v5.4c1.3.9 2.3 2 3.1 3.2.8 1.3 1.2 2.7 1.2 4.3s-.4 3-1.2 4.3A9.5 9.5 0 0 1 7 31.4V37z" style="fill:#fff"/></svg>