<svg xmlns="http://www.w3.org/2000/svg" data-name="レイヤー_2" viewBox="0 0 40 40"><g data-name="レイヤー_1"><path d="M40 20a20 20 0 1 1-39.99.01A20 20 0 0 1 40 20m-17.17 0 6.59-6.59a2 2 0 0 0-2.83-2.83L20 17.17l-6.59-6.59a2 2 0 0 0-2.83 2.83L17.17 20l-6.59 6.59a2 2 0 0 0 1.41 3.42 2 2 0 0 0 1.41-.59l6.59-6.59 6.59 6.59a2 2 0 1 0 2.82-2.83L22.81 20Z" style="fill:#fff;opacity:.6"/><path d="m22.83 20 6.59-6.59a2 2 0 0 0-2.83-2.83L20 17.17l-6.59-6.59a2 2 0 0 0-2.83 2.83L17.17 20l-6.59 6.59a2 2 0 0 0 1.41 3.42 2 2 0 0 0 1.41-.59l6.59-6.59 6.59 6.59a2 2 0 1 0 2.82-2.83L22.81 20Z" style="opacity:.4"/></g></svg>