<svg xmlns="http://www.w3.org/2000/svg" id="_レイヤー_2" data-name="レイヤー 2" viewBox="0 0 912.07 100"><defs><style>.cls-1{fill:#ff0084;stroke-width:0}</style></defs><g id="_レイヤー_2-2" data-name="レイヤー 2"><path d="M405.12 0s3.32 1.54 3.32 6.15v56.92c0 3.79-2.95 7.57-7.22 5.39L334.24 0v90.77c0 6.15-6.46 9.23-11.69 9.23h37.43s-3.32-1.54-3.32-6.15V36.93c0-3.79 2.95-7.57 7.22-5.39l66.98 68.47V9.23c0-6.15 6.46-9.23 11.69-9.23zM130.68 90.71V36.25c0-19.32 15.8-36.25 32.66-36.25H141.7c-9.66 0-34.22 12.31-34.22 36.92v54.19c0 8.88-9.45 8.88-9.45 8.88h40.42s-7.76-.12-7.76-9.29Zm41.66-81.42v54.46c0 19.32-15.8 36.25-32.66 36.25h21.64c9.66 0 34.22-12.31 34.22-36.92V8.88c0-8.88 9.45-8.88 9.45-8.88h-40.42s7.76.12 7.76 9.29Zm396.82 81.42V36.25C569.16 16.93 585.98 0 603.94 0h-23.05c-10.29 0-36.45 12.31-36.45 36.92v54.19c0 8.88-10.06 8.88-10.06 8.88h43.04s-8.26-.12-8.26-9.29Zm44.36-81.42v54.46c0 19.32-16.82 36.25-34.78 36.25h23.05c10.29 0 36.45-12.31 36.45-36.92V8.88C638.24 0 648.3 0 648.3 0h-43.04s8.26.12 8.26 9.29m63.28 42.99v41.57c0 4.62 1.32 6.15 3.03 6.15h-41.22s15.79-3.08 15.79-15.38V6.15c0-4.62-3.03-6.15-3.03-6.15h81.42s-5.82.8-5.82 3.26v90.59c0 4.62 1.32 6.15 3.03 6.15h-34.38s8.95-1.07 8.95-15.38V52.28zm0-4.55h27.77V4.55h-11.98c-4.79 0-15.79.85-15.79 10.83zM94.68 68.69c0 20.88-18.45 31.31-27.45 31.31H0s16.28-3.08 16.28-15.38V6.15c0-4.62-3.13-6.15-3.13-6.15h51.5c2.57 0 4.89 1.13 6.84 2.75 5.98 4.98 15.74 14.82 20.82 20.19a8 8 0 0 1 2.36 5.53v40.22ZM76.47 27.2c0-12.45-10.41-22.55-23.25-22.55h-4.04c-4.94 0-14.09.85-14.09 10.83v73.71c0 4.62 1.36 6.15 3.13 6.15h7.83c15.7 0 30.41-9.6 30.41-25.99zm751 41.49c0 20.88-18.45 31.31-27.45 31.31h-67.23s16.28-3.08 16.28-15.38V6.15c0-4.62-3.13-6.15-3.13-6.15h51.5c2.57 0 4.89 1.13 6.84 2.75 5.98 4.98 15.74 14.82 20.82 20.19a8 8 0 0 1 2.36 5.53zM809.26 27.2c0-12.45-10.41-22.55-23.25-22.55h-4.04c-4.94 0-14.09.85-14.09 10.83v73.71c0 4.62 1.36 6.15 3.13 6.15h7.83c15.7 0 30.41-9.6 30.41-25.99z" class="cls-1"/><path d="M443.79 100s11.41-1.79 11.41-12.07V6.15c0-4.62-3.03-6.15-3.03-6.15h41.22S477.6 3.08 477.6 15.38v73.71c0 4.62 1.32 6.15 3.03 6.15h52.91c-.51 0-1.14.28-1.14 1.67 0 3.08 2.57 3.08 2.57 3.08zm418.84-38.36V36.25C862.63 16.93 879.45 0 897.41 0h-23.05c-10.29 0-36.45 12.31-36.45 36.92zm24.73-23.28v25.39c0 19.32-16.82 36.25-34.78 36.25h23.05c10.29 0 36.45-12.31 36.45-36.92zM331.35 0h-20.87s3.46 2.04 3.46 4.5c0 3.93-23.47 70.64-23.47 70.64l-18.65-59.98C266.6 4.34 277.06 0 277.06 0h-33.73s4.85 2.3 7.28 6.06c1.97 3.04 6.01 13.9 10.59 27.21-6.62 19.57-14.47 41.87-14.47 41.87l-18.65-59.98C222.86 4.34 233.32 0 233.32 0h-33.73s4.85 2.3 7.28 6.06c6.1 9.43 32.14 93.94 32.14 93.94h8.24l18-54.72a2998 2998 0 0 1 17.5 54.72h8.24l29.92-90.97c2.72-7.37 12.4-9.03 12.4-9.03z" class="cls-1"/></g></svg>