<svg xmlns="http://www.w3.org/2000/svg" id="_レイヤー_2" data-name="レイヤー 2" viewBox="0 0 19.84 19.84"><defs><style>.cls-3{stroke-width:0;fill:#fff}</style></defs><g id="_レイヤー_9" data-name="レイヤー 9"><circle cx="9.92" cy="9.92" r="9.92" style="fill:#231815;stroke-width:0"/><path d="M9.92.42a9.5 9.5 0 1 0 .02 19.02A9.5 9.5 0 0 0 9.92.42m6.62 16.11H3.31V3.31h13.23z" class="cls-3"/><path d="M3.82 3.82v12.2h12.2V3.82zm2.92 1.7c.67 0 1.22.55 1.22 1.22s-.55 1.22-1.22 1.22-1.22-.55-1.22-1.22.55-1.22 1.22-1.22m.02 8.78a1.22 1.22 0 1 1 0-2.44 1.22 1.22 0 0 1 0 2.44m3.16-3.16a1.22 1.22 0 1 1 0-2.44 1.22 1.22 0 0 1 0 2.44m3.18 3.18a1.22 1.22 0 1 1 0-2.44 1.22 1.22 0 0 1 0 2.44m0-6.36a1.22 1.22 0 1 1 0-2.44 1.22 1.22 0 0 1 0 2.44" class="cls-3"/><path d="M.14.14H19.7V19.7H.14z" style="stroke-width:0;fill:none"/></g></svg>