<svg xmlns="http://www.w3.org/2000/svg" id="_レイヤー_2" data-name="レイヤー 2" viewBox="0 0 19.84 19.84"><defs><style>.cls-3{stroke-width:0;fill:#fff}</style></defs><g id="_レイヤー_9" data-name="レイヤー 9"><circle cx="9.92" cy="9.92" r="9.92" style="fill:#231815;stroke-width:0"/><path d="M9.92.42a9.5 9.5 0 1 0 .02 19.02A9.5 9.5 0 0 0 9.92.42m-6.26 3.5c0-.12.1-.22.22-.22h12.1q.2.02.22.22v8.05c0 .12-.1.22-.22.22H3.87a.2.2 0 0 1-.22-.22V3.92Zm12.95 11.8v.04l-.02.05-.01.02-.01.02-.01.02-.02.01-.02.01h-.01l-.03.01H3.39l-.03-.01h-.01l-.02-.01-.02-.01-.02-.02-.01-.02-.01-.02v-.15l.37-2.79a.2.2 0 0 1 .21-.19h12.2q.18.01.21.19l.37 2.78v.04Z" class="cls-3"/><path d="M4.09 4.14v7.61h11.67V4.14zm8.66 5.62c0 .49-.55.88-1.23.88s-1.23-.39-1.23-.88.55-.88 1.23-.88q.46 0 .79.21V5.45l-3.7.65v4.43c0 .49-.55.88-1.23.88s-1.23-.39-1.23-.88.55-.88 1.23-.88q.46 0 .79.21V5.29l4.13-.74.16-.03.27-.05v5.27Z" class="cls-3"/><path d="M.14.14H19.7V19.7H.14z" style="stroke-width:0;fill:none"/></g></svg>