<svg xmlns="http://www.w3.org/2000/svg" id="_レイヤー_2" data-name="レイヤー 2" viewBox="0 0 20.15 20.15"><defs><style>.cls-1{fill:#231815;stroke-width:0}.cls-2{fill:none;stroke-width:.44px;stroke:#231815}</style></defs><g id="_レイヤー_9" data-name="レイヤー 9"><circle cx="10.08" cy="10.08" r="9.92" style="stroke:#231815;fill:#fff;stroke-width:.31px" transform="rotate(-81.45 10.07 10.08)"/><path d="M1.92 8.18c3.8-2.11 7.97-3.33 11.11-2.72 1.94.07 2.99-.12 2.99-.12l-1.49.55c1.93.68 3.37 2.4 3.37 2.4.36.45 1.3 1.01 1.3 1.01-1.69.97-3.53 4-3.53 4 1.05-2.86 1.15-4 1.15-4-2.74-2.3-6.04-2.53-6.04-2.53-4.7-.14-9.82 3.5-9.82 3.5.53-1.18 2.07-2.24 2.07-2.24z" class="cls-1"/><path d="M12.72 14.61q-3 .48-5.99 0" class="cls-2"/><path d="M9.72 6.01c1.85 0 3.35 1.98 3.35 4.42a9 9 0 0 1-6.69 0c0-2.44 1.5-4.42 3.34-4.42m-.46 2.2a1.1 1.1 0 0 0-2.18 0 1.1 1.1 0 0 0 2.18 0" class="cls-1"/><path d="M13.07 10.43c0 2.44-1.5 4.42-3.35 4.42s-3.34-1.98-3.34-4.42 1.5-4.42 3.34-4.42 3.35 1.98 3.35 4.42Z" class="cls-2"/><path d="M7.08 8.21a1.1 1.1 0 0 1 2.18 0 1.1 1.1 0 0 1-2.18 0Zm-.7 2.22a9 9 0 0 0 6.69 0" class="cls-2"/><path d="M11.06 10.56c0 1.2-.6 2.18-1.34 2.18s-1.34-.98-1.34-2.18" class="cls-1"/><path d="M11.06 10.56c0 1.2-.6 2.18-1.34 2.18s-1.34-.98-1.34-2.18" class="cls-2"/></g></svg>