<svg xmlns="http://www.w3.org/2000/svg" id="_レイヤー_2" data-name="レイヤー 2" viewBox="0 0 19.84 19.84"><defs><style>.cls-3{stroke-width:0;fill:#fff}</style></defs><g id="_レイヤー_9" data-name="レイヤー 9"><circle cx="9.92" cy="9.92" r="9.92" style="fill:#231815;stroke-width:0"/><path d="M9.92.42C4.69.42.42 4.69.42 9.92s4.26 9.5 9.5 9.5a9.5 9.5 0 0 0 0-19m1.87 4.65a2 2 0 0 1 3.24.64 2 2 0 0 1-.43 2.17 2 2 0 0 1-2.81 0 2 2 0 0 1 0-2.81m-6.82 0a1.97 1.97 0 0 1 3.38 1.4 1.97 1.97 0 1 1-3.96 0q.01-.83.58-1.4m2.81 9.64a2 2 0 0 1-2.81 0 2 2 0 0 1-.58-1.41 1.97 1.97 0 0 1 1.99-1.98q.83.01 1.4.58c.38.37.58.87.58 1.4s-.21 1.03-.58 1.41m6.78-.05q-.59.57-1.41.58c-.82.01-1.03-.21-1.41-.58a2 2 0 0 1 0-2.81 2 2 0 0 1 2.82 0 2 2 0 0 1 0 2.81m1.82-4.58h-6.36v6.43h-.46v-6.43H3.19v-.46h6.36V3.33h.46v6.29h6.36z" class="cls-3"/><path d="M8.09 6.47a1.7 1.7 0 0 1-1.71 1.71 1.7 1.7 0 0 1-1.71-1.71 1.7 1.7 0 0 1 1.71-1.71q.71.01 1.21.5c.32.32.5.75.5 1.21m6.27 7.99a1.7 1.7 0 1 1 .01-2.41 1.7 1.7 0 0 1 0 2.42Z" class="cls-3"/><path d="M.14.14H19.7V19.7H.14z" style="stroke-width:0;fill:none"/></g></svg>