<svg xmlns="http://www.w3.org/2000/svg" id="_レイヤー_2" data-name="レイヤー 2" viewBox="0 0 19.84 19.84"><defs><style>.cls-3{stroke-width:0;fill:#fff}</style></defs><g id="_レイヤー_9" data-name="レイヤー 9"><circle cx="9.92" cy="9.92" r="9.92" style="fill:#231815;stroke-width:0"/><path d="M19.42 9.92a9.5 9.5 0 0 1-2.94 6.86l-3.95-4.87 4.33-5.77-.25-.19-4.28 5.71-1.88-2.31.2-.42a4.5 4.5 0 0 0 0-3.54 4.6 4.6 0 0 0-5.97-2.43 4.6 4.6 0 0 0-2.43 5.97 4.6 4.6 0 0 0 5.97 2.43 4.6 4.6 0 0 0 2.05-1.73l1.86 2.29-4.33 5.77.25.19 4.28-5.71 3.92 4.82a9.5 9.5 0 1 1 3.17-7.07" class="cls-3"/><path d="m8.1 6.46-.24.2 2.21 2.72a4.25 4.25 0 1 1 .16-.29z" class="cls-3"/><path d="M.14.14H19.7V19.7H.14z" style="stroke-width:0;fill:none"/></g></svg>