<svg xmlns="http://www.w3.org/2000/svg" id="_レイヤー_2" data-name="レイヤー 2" viewBox="0 0 19.84 19.84"><defs><style>.cls-3{stroke-width:0;fill:#fff}</style></defs><g id="_レイヤー_9" data-name="レイヤー 9"><circle cx="9.92" cy="9.92" r="9.92" style="fill:#231815;stroke-width:0"/><path d="M12.91 18.94a9.5 9.5 0 0 1-5.96 0zm2.12-1.02q-.42.27-.88.5H5.69q-.45-.23-.88-.5zm-7.56-6.26-.08.58a55 55 0 0 1-.76 3.78c-.16.65-.24.87-.26.94l-.19.13c-.12.09-.35.26-.46.32H4.09a9.5 9.5 0 0 1 .69-15.47c.02.13.11.33.34.7l.64 1c.17.26.38.58.43.68.02.22-.06.34-.24.55l-.15.19q-.12.18-.32.71l-.18.43-1.14 1.42a42 42 0 0 0-2.41 3.06c-.11.24.09.5.29.73q.3.32.78.72c.44.36.92.7 1.32.93.57.33.91.41 1.12.26l1.09-.82zM11.01.49C7.99 2.86 6.03 2 5.28 1.68l-.04-.02A9.5 9.5 0 0 1 11.01.49M9.87 11.63q0 .7-.09 1.76l-.04.72c-.03.67-.06 1.36-.26 1.98q-.17.49-.5.8a7 7 0 0 0-.54.52H6.62l.07-.05c.09-.06.14-.15.22-.42l.18-.67a62 62 0 0 0 .81-4c.08-.55.11-.84.1-1.01.4-.29.53-.36.57-.38q.66-.12 1.21-.39 0 .21.04.42.05.4.05.73Z" class="cls-3"/><path d="m11.49 17.2-.07.2H9.17l.15-.14q.44-.4.65-1.02c.23-.69.26-1.41.29-2.12l.04-.7a38 38 0 0 0 .09-1.79q0-.38-.05-.79l-.05-.65a5 5 0 0 0 1.37-1.24c.37.41.59.89.61 1.32.21 4.11-.46 6.01-.78 6.92Z" class="cls-3"/><path d="m14.11 7.95-.04 2.42-.08 4.53a69 69 0 0 0-.01 2.5h-2.02l.01-.03c.33-.94 1.02-2.91.81-7.12a3 3 0 0 0-.84-1.75q.1-.18.11-.34c.03-.26 0-.85-.03-1.38.19.02.52.13 1.08.46q.48.29 1.01.7Zm4.35 6.12a9.5 9.5 0 0 1-2.7 3.33h-1.02l1.08-1.01 1.59-1.49c.69-.63.89-.78.95-.81l.1-.03Zm.96-4.15c0 1.4-.31 2.74-.86 3.94l-.04-.1-.05-.1c-.65-1.22-2.02-4.35-.61-6.96l.14-.26-.28-.1c-2.41-.91-4.01-1.8-4.89-2.73-.73-.78-.85-1.47-.97-2.13q-.06-.47-.21-.9a9.5 9.5 0 0 1 7.75 9.34ZM11.43 6c-.03-.11-.28-.65-.7-1.47-.39-.76-.69-1.3-.77-1.41a3 3 0 0 0-.7-.26c-.02.18-.03.54-.04.8q-.02.76-.07.99s-.19.76-.41.99l-.06.06H8.6q-.34.07-1.47-.12c-.35-.05-.74-.11-.95-.12l-.2.49q-.15.39-.22.52c-.05.08-.37.47-1.18 1.47-.78.96-2.06 2.53-2.31 2.89.04.06.13.19.37.43a10 10 0 0 0 1.84 1.38c.33.19.48.22.53.23l1.04-.79 1.46-1.11c.75-.55.88-.61.98-.62a4.5 4.5 0 0 0 2.16-1.08c.61-.53.89-1.02.9-1.17a15 15 0 0 0-.11-2.12ZM7.12 7.69l-2.26.56 1.5-2.09h2z" class="cls-3"/><path d="M17.94 13.76c-.16.12-.41.33-.82.71l-1.65 1.55-.97.91c0-1.28.06-4.61.09-6.55l.03-1.82v-.73a.3.3 0 0 0-.1-.21l-.02-.01q-.6-.46-1.14-.79a3 3 0 0 0-1.39-.54l-.04-.35c0-.05-.02-.13-.26-.64a30 30 0 0 0-1.02-1.99c-.27-.49-.32-.53-.37-.56a3 3 0 0 0-.52-.26q-.45-.17-.69-.11a.4.4 0 0 0-.27.21c-.06.12-.08.35-.11 1.08-.01.34-.03.76-.06.88-.05.2-.16.53-.24.68-.25 0-.79-.08-1.2-.14l-.68-.09c.13-.19.23-.43.19-.77-.01-.11-.08-.21-.51-.86q-.32-.46-.59-.93l-.06-.09c.39.14.91.27 1.57.27h.25A7 7 0 0 0 11.25.97l.13.61c.12.71.26 1.51 1.1 2.4a8 8 0 0 0 1.81 1.37q1.2.7 3 1.39a6 6 0 0 0-.53 2.17q-.06 1.09.23 2.28c.14.61.43 1.54.97 2.59Z" class="cls-3"/><path d="m7.63 6.51-.71.88-1.25.31.86-1.19z" class="cls-3"/><path d="M.14.14H19.7V19.7H.14z" style="stroke-width:0;fill:none"/></g></svg>