<svg xmlns="http://www.w3.org/2000/svg" id="_レイヤー_2" data-name="レイヤー 2" viewBox="0 0 19.84 19.84"><defs><style>.cls-3{stroke-width:0;fill:#fff}</style></defs><g id="_レイヤー_9" data-name="レイヤー 9"><circle cx="9.92" cy="9.92" r="9.92" style="fill:#231815;stroke-width:0"/><path d="M19.42 9.92c0 3.1-1.49 5.86-3.8 7.59a6 6 0 0 0-.92-1.01v-.86a7.4 7.4 0 0 0 .48-10.99 7.5 7.5 0 0 0-5.27-2.19A7.4 7.4 0 0 0 4.2 5.13v-.04a.87.87 0 1 0-.57.82 7.4 7.4 0 0 0-1.1 5.01q-.33.1-.5.25a.5.5 0 0 0-.23.39q-.04.44.67.97c.27.2.54.35.64.4a7.5 7.5 0 0 0 2.04 2.71v.57c-.41.15-.7.54-.7 1.01q0 .32.17.58a9.5 9.5 0 1 1 14.8-7.88" class="cls-3"/><path d="M14.45 15.71v.73H6.24a1 1 0 0 0-.73-.29h-.12v-.45zm.97 1.95a10 10 0 0 1-3.81 1.61 5 5 0 0 0-.76-1.98 3 3 0 0 0-.54-.6h4.21c.42.36.72.74.89.98Z" class="cls-3"/><path d="M11.36 19.31q-.7.1-1.44.11a9.4 9.4 0 0 1-4.5-1.14h.09a1.07 1.07 0 0 0 .93-1.6h3.44c.66.4 1.03 1.13 1.23 1.67.14.39.21.75.25.95ZM8.22 3.75a1 1 0 0 0-.64-.25l-.21.02q-.57.1-1.07.56-.49.47-.62 1.04-.1.54.18.86.3.3.84.23.57-.1 1.07-.56.24-.23.4-.49.15-.27.22-.54.1-.53-.18-.86Zm-.85.69q-.1.2-.3.4a1 1 0 0 1-.42.28l-.2.04a.3.3 0 0 1-.2-.08c-.05-.05-.12-.17-.01-.4q.1-.2.3-.4.22-.2.42-.28c.23-.09.35-.01.4.04s.12.17.01.4" class="cls-3"/><path d="M9.92 2.72a7.2 7.2 0 0 0-7.12 8.27l.02.11-.11.03c-.29.08-.64.23-.66.46q-.02.3.56.74c.29.22.6.38.64.4a9 9 0 0 0 2.22.53q2.35.19 3.18-1.39l.22.12a2.7 2.7 0 0 1-1.53 1.33q-.81.29-1.9.2a8 8 0 0 1-2.01-.44 8 8 0 0 0 1.87 2.39h4.54a8 8 0 0 0 1.21-3.27q.5-3.78-3.04-6.43l-.07.07a2.3 2.3 0 0 1-1.46.64q-.5 0-.82-.33c-.25-.26-.34-.65-.25-1.08q.14-.64.69-1.17.56-.52 1.2-.62.67-.1 1.06.31c.25.26.34.65.25 1.08q-.1.48-.45.9a8 8 0 0 1 2.73 3.36q.62 1.55.38 3.3a8 8 0 0 1-1.17 3.23h4.37A7.2 7.2 0 0 0 9.86 2.73Zm-4.06 8.5L4.6 9.24l.21-.13 1.26 1.98zm-.2-4.29 3.43.97-.07.24-3.43-.97zm2.42 2.89-.14.21L5.2 8.12l.14-.21z" class="cls-3"/><path d="M6.9 4.67c-.23.21-.42.26-.47.25-.01-.05.05-.24.28-.45s.42-.26.47-.25c.01.05-.05.24-.28.45m-.58 12.4-1.55-.21a.8.8 0 0 1 .74-.47c.4 0 .74.29.81.68m.01.25a.82.82 0 0 1-1.63-.11v-.11z" class="cls-3"/><path d="M.14.14H19.7V19.7H.14z" style="stroke-width:0;fill:none"/></g></svg>