<svg xmlns="http://www.w3.org/2000/svg" id="_レイヤー_2" data-name="レイヤー 2" viewBox="0 0 19.84 19.84"><defs><style>.cls-3{stroke-width:0;fill:#fff}</style></defs><g id="_レイヤー_9" data-name="レイヤー 9"><circle cx="9.92" cy="9.92" r="9.92" style="fill:#231815;stroke-width:0"/><path d="M9.92.42a9.5 9.5 0 1 0 .02 19.02A9.5 9.5 0 0 0 9.92.42m0 17.45c-4.38 0-7.95-3.57-7.95-7.95s3.57-7.95 7.95-7.95 7.95 3.57 7.95 7.95-3.57 7.95-7.95 7.95" class="cls-3"/><path d="M9.92 7.6a2.32 2.32 0 1 0 0 4.64 2.32 2.32 0 0 0 0-4.64m0 3.91a1.59 1.59 0 1 1 0-3.18 1.59 1.59 0 0 1 0 3.18" class="cls-3"/><path d="M17.61 10.05a7.7 7.7 0 0 1-15.38 0h5.13a2.56 2.56 0 0 0 5.12 0z" class="cls-3"/><path d="M11.26 9.92a1.34 1.34 0 1 1-2.68 0 1.34 1.34 0 0 1 2.68 0" class="cls-3"/><path d="M.14.14H19.7V19.7H.14z" style="stroke-width:0;fill:none"/></g></svg>