<svg xmlns="http://www.w3.org/2000/svg" id="_レイヤー_2" data-name="レイヤー 2" viewBox="0 0 19.84 19.84"><defs><style>.cls-3{stroke-width:0;fill:#fff}</style></defs><g id="_レイヤー_9" data-name="レイヤー 9"><circle cx="9.92" cy="9.92" r="9.92" style="fill:#231815;stroke-width:0"/><path d="M9.92.42a9.5 9.5 0 1 0 .02 19.02A9.5 9.5 0 0 0 9.92.42m1.2 4.34.53.53-.53.53-.53-.53zM8.45 2.94l.89.34-.34.89-.89-.34zm.87 5.44-.76.26-.26-.76.76-.26zM7.7 5.91l.26-.37.13.43.43.14-.37.26v.45l-.36-.27-.43.14.15-.43-.27-.36h.45ZM5.34 4.75l.55.55-.55.55-.55-.55zm-.42 3.83-.08-.44.4.21.4-.21-.08.44.32.31-.45.06-.2.4-.2-.4-.45-.06.32-.31Zm9.51 2.55c0 .48-.79.91-2.01 1.18l.45 4.12c.13.78-1.52 1.48-3.54 1.49-2.03 0-3.67-.71-3.54-1.49l.45-4.13c-1.22-.27-2.01-.7-2.01-1.18 0-.82 2.28-1.48 5.1-1.48q.98 0 1.83.1l2.94-3.59.6.43-2.69 3.28c1.45.26 2.41.73 2.41 1.26Zm1.9-6.51-1.35 1.65-.6-.43 1.38-1.69a.37.37 0 0 1 .61.06q.1.21-.04.41" class="cls-3"/><path d="M12.5 10.85c0 .35-1.41.63-3.15.63s-3.15-.28-3.15-.63 1.41-.63 3.15-.63q.76 0 1.38.06l-.2.25a.37.37 0 0 0 .05.52c.16.13.39.11.52-.05l.49-.59c.56.11.91.27.91.45Zm-.52 1.62c-.12.1-1.12.64-2.63.64s-2.51-.54-2.63-.64l.34.08c.62.12 1.43.18 2.29.18a13 13 0 0 0 2.63-.26" class="cls-3"/><path d="M.14.14H19.7V19.7H.14z" style="stroke-width:0;fill:none"/></g></svg>