<svg xmlns="http://www.w3.org/2000/svg" id="_レイヤー_2" data-name="レイヤー 2" viewBox="0 0 19.84 19.84"><defs><style>.cls-3{stroke-width:0;fill:#fff}</style></defs><g id="_レイヤー_9" data-name="レイヤー 9"><circle cx="9.92" cy="9.92" r="9.92" style="fill:#231815;stroke-width:0"/><path d="M9.92.42a9.5 9.5 0 1 0 .02 19.02A9.5 9.5 0 0 0 9.92.42m.65 17.92c-.26.35-.53.6-.54.61l-.1.1-.1-.1s-.29-.26-.54-.61q-.54-.74-.41-1.28.14-.58 1.01-.81h.08q.87.23 1.01.81.13.54-.41 1.28m3.54-2.66-2.81-1.12q-.32 1.04-.35 1.07l-.04.1H8.92l-.04-.1s-.15-.38-.35-1.07l-2.81 1.12-.34-1.35 2.26-4.12a39 39 0 0 1-.3-2.87c0-.08-.12-1.05.12-2.22q.21-1.06.71-1.85.63-1 1.66-1.52l.07-.04.07.04q1.04.53 1.66 1.52.5.8.71 1.85c.24 1.16.13 2.14.12 2.22a45 45 0 0 1-.3 2.87l2.26 4.12-.34 1.35Z" class="cls-3"/><path d="m8.46 14.26-2.51 1-.22-.88 2-3.65q.28 1.74.54 2.78zm5.65.12-.22.88-2.51-1 .19-.76q.25-1.04.54-2.78zm-2.05-9.21a4.3 4.3 0 0 0-2.14-3.12 4.3 4.3 0 0 0-2.14 3.12c-.24 1.14-.12 2.12-.12 2.13.2 2.77.6 4.85.9 6.11.26 1.08.49 1.76.57 2h1.56c.09-.24.32-.92.57-2 .3-1.26.7-3.35.9-6.11s.12-1-.12-2.14Zm-1.98 9.39h-.31v-4.4h.31zm-.16-5.1a.77.77 0 1 1 0-1.54.77.77 0 0 1 0 1.54m0-2.57a1.13 1.13 0 1 1 0-2.26 1.13 1.13 0 0 1 0 2.26" class="cls-3"/><path d="M10.74 5.77c0 .45-.37.82-.82.82s-.82-.37-.82-.82.37-.82.82-.82.82.37.82.82m-.36 2.93c0 .25-.2.46-.46.46s-.46-.2-.46-.46.2-.46.46-.46.46.2.46.46" class="cls-3"/><path d="M.14.14H19.7V19.7H.14z" style="stroke-width:0;fill:none"/></g></svg>