<svg xmlns="http://www.w3.org/2000/svg" id="_レイヤー_2" data-name="レイヤー 2" viewBox="0 0 19.84 19.84"><defs><style>.cls-3{stroke-width:0;fill:#fff}</style></defs><g id="_レイヤー_9" data-name="レイヤー 9"><circle cx="9.92" cy="9.92" r="9.92" style="fill:#231815;stroke-width:0"/><path d="M13.21 1.01H6.63a9.5 9.5 0 0 1 6.58 0m2.3 6.65v1.9l-.17-.46q-.33-.78-.87-1.44z" class="cls-3"/><path d="M18.82 13.23V7.14h-1.98V5.16h-2.27v1.98h-.58a6 6 0 0 0-3.17-1.56h2.48V1.05a9.5 9.5 0 0 1 5.53 12.19Zm-3.31-.01v1.9h-1.04a6 6 0 0 0 1.04-1.9" class="cls-3"/><path d="M18.31 7.66v6.72q-.2.38-.44.74h-1.84V7.66h2.27ZM9.02 5.57a5.6 5.6 0 0 0-3.17 1.56h-4.2v7.44A9.48 9.48 0 0 1 6.54 1.05v4.53h2.48Z" class="cls-3"/><path d="M5.37 15.12H2.16V7.66h3.21a5.9 5.9 0 0 0 0 7.46m12.13.51a9.47 9.47 0 0 1-15.16 0h3.51a5.9 5.9 0 0 0 6.36 1.17 6 6 0 0 0 1.78-1.17z" class="cls-3"/><path d="M9.92 6.02a5.37 5.37 0 1 0 .01 10.73 5.37 5.37 0 0 0-.01-10.73m3.35 8.72a4.7 4.7 0 0 1-5.19 1.02 4.8 4.8 0 0 1-2.9-4.37 4.8 4.8 0 0 1 1.39-3.35 4.7 4.7 0 0 1 5.19-1.02 4.8 4.8 0 0 1 2.9 4.37 4.8 4.8 0 0 1-1.39 3.35M7.06 1.53h5.72V2.8H7.06zm0 1.78h5.72v1.74H7.06zm9.26 2.37v1.46h-1.23V5.68z" class="cls-3"/><path d="M14.14 11.39a4.22 4.22 0 1 1-8.44 0 4.22 4.22 0 0 1 8.44 0" class="cls-3"/><path d="M.14.14H19.7V19.7H.14z" style="stroke-width:0;fill:none"/></g></svg>