<svg xmlns="http://www.w3.org/2000/svg" id="_レイヤー_2" data-name="レイヤー 2" viewBox="0 0 19.84 19.84"><defs><style>.cls-3{stroke-width:0;fill:#fff}</style></defs><g id="_レイヤー_9" data-name="レイヤー 9"><circle cx="9.92" cy="9.92" r="9.92" style="fill:#231815;stroke-width:0"/><path d="M19.38 9.92a9.4 9.4 0 0 1-2.19 6.05l-.73-12.4-6.04-3.1a9.5 9.5 0 0 1 8.97 9.45ZM9.43.47 3.38 3.58l-.73 12.4A9.48 9.48 0 0 1 9.43.47m6.97 16.34a9.4 9.4 0 0 1-12.96 0z" class="cls-3"/><path d="M16.05 3.85 9.92.7 3.8 3.85l-.74 12.53h13.72zM6.99 7.59l.1.04.03.01c.25.09.49.09.7.09l.17-.01.79-.09.87-.1.03-1.66-.6.11-.35.09-.18.04c-.12 0-.3-.12-.41-.22-.08-.07-.26-.25-.26-.42 0-.08.07-.17.13-.17q.04 0 .12.05l.05.02q.16.07.41.07l.21-.01.89-.12V4.4a1 1 0 0 0-.04-.32 1 1 0 0 0-.19-.29l-.58.09-.08.02-.18.04c-.22 0-.45-.19-.53-.27-.13-.12-.28-.31-.28-.45q0-.1.1-.17l.03-.03.03.02.27.14a2 2 0 0 0 .62.11l.21-.01h.01l.82-.11.64-.09c.41-.06.46-.08.56-.12.27-.1.28-.1.34-.1q.1 0 .38.09c.25.08.27.26.27.33q0 .2-.19.26-.16.04-.37.03h-.23l-.23.01-.61.05-.25.04q.17.12.18.34 0 .1-.03.18v.05l-.04.79v.19l.18-.03.52-.05.21-.04.29-.05q.2 0 .38.13.18.14.18.31-.02.24-.26.26h-.08l-.18-.02h-.62l-.61.05v.23l-.02.89v.55l.51-.04.5-.02c.09 0 .41 0 .47-.02l.2-.04.21-.04c.03 0 .24.04.45.11q.42.17.43.41a.3.3 0 0 1-.11.23.3.3 0 0 1-.26.07L12.13 8l-.41-.03-.59-.02-.79.03-.66.08-1.1.18-.29.06-.21.04-.1.03-.27.07c-.12 0-.32-.09-.5-.22-.13-.09-.34-.27-.34-.46 0-.07.03-.18.11-.18Zm1.2 4.12c0 .28-.22.37-.33.37-.16 0-.26-.16-.3-.23l-.24-.44-.17-.22-.08-.09c-.03-.03-.1-.11-.1-.21q.01-.1.17-.11c.09 0 .34.09.58.25.21.14.46.37.46.69Zm2.15 2.27v-.02a4 4 0 0 0-.36-.52v-.02h-.02q-.04-.04-.05-.13c0-.03.01-.13.19-.13.03 0 .27.09.48.21q.46.28.46.6c0 .32-.18.37-.34.37s-.28-.21-.36-.37Zm2.65-1.33-.22.05h-.25l-.49.05v1.9c0 .06 0 .6-.07.83-.08.26-.22.29-.32.29-.15 0-.18-.04-.36-.27v-.02l-.27-.23c-.3-.25-.4-.34-.4-.41 0-.05.04-.12.14-.12l.3.05.28.05.04-.02.02-.11v-1.86l-.54.11-.56.13-.39.1-.07.03q-.27.1-.32.1c-.2 0-.49-.23-.6-.43v.3l-.01 1.49v.38c0 .23 0 .59-.26.59-.19 0-.33-.23-.38-.42a2 2 0 0 1-.03-.51s.07-.79.07-.79v-.72l-.3.39-.15.16-.15.16c-.18.25-.21.3-.35.3-.18 0-.36-.19-.49-.36-.11-.14-.14-.19-.14-.28q0-.16.18-.17l.11.01h.07c.18 0 .26-.07.55-.31l.04-.03.4-.34.19-.21.06-.09v-.43l.02-1.49a.7.7 0 0 0-.16-.51s-.02-.03-.02-.03c-.09-.12-.12-.15-.12-.2 0-.09.09-.19.28-.19.17 0 .25.06.46.21h.01l.03.04c.12.1.2.16.2.31l-.02.18-.02.15-.01.19-.02.66-.02 1.28s.05-.04.09-.04l.16.04.06.02.21.02c.17 0 .18 0 1.06-.17l.86-.17c-.01-.25-.02-.27-.05-.35l-.03-.06q-.08-.13-.08-.18v-.04q-.17 0-.28-.2s-.17-.36-.17-.36c-.04-.08-.13-.28-.3-.46l-.81.2q.34.21.52.45t.18.47c0 .2-.13.41-.33.41-.15 0-.23-.11-.27-.2s-.14-.44-.14-.44a2 2 0 0 0-.26-.51l-.09-.11q-.16 0-.23-.06l-.05-.11q0-.07.07-.1l.19-.06h.02c.36-.11.79-.28 1.17-.43l.08-.03.53-.25.17-.09v-.02l-.01-.08-.01-.08.02-.12a.2.2 0 0 1 .15-.09c.17 0 .81.27.81.52 0 .17-.13.22-.25.27h-.02l-1.03.37h.01c.26.17.3.2.39.3q.25.27.25.53 0 .12-.06.19.14.02.25.09v-.06c0-.05.03-.13.25-.43l.01-.02.22-.4v-.03q.07-.1.06-.12l-.03-.06-.02-.05-.02-.08q0-.2.24-.21c.13 0 .29.15.35.21s.21.22.21.34c0 .11-.03.14-.27.37l-.05.05c-.21.2-.25.23-.49.42l-.03.02c-.16.13-.2.16-.27.16h-.01c.09.08.19.2.19.29v.12c.25-.07.55-.1.56-.1.13 0 .53.15.53.37q0 .16-.14.24Z" class="cls-3"/><path d="M.14.14H19.7V19.7H.14z" style="stroke-width:0;fill:none"/></g></svg>