<svg xmlns="http://www.w3.org/2000/svg" id="_レイヤー_2" data-name="レイヤー 2" viewBox="0 0 19.84 19.84"><defs><style>.cls-3{stroke-width:0;fill:#fff}</style></defs><g id="_レイヤー_9" data-name="レイヤー 9"><circle cx="9.92" cy="9.92" r="9.92" style="fill:#231815;stroke-width:0"/><path d="M17.6 15.49a9.48 9.48 0 0 1-15.36 0zm1.82-5.57a9.5 9.5 0 0 1-1.42 5h-7.86V9.43q.09.18.24.29.21.14.52.14c.41 0 .93-.17 1.54-.36 1.17-.37 2.62-.84 3.99-.4l.51.16-.26-.47s-.18-.33-.55-.7a3.7 3.7 0 0 0-1.73-.98 4.4 4.4 0 0 0-1.98 0q-1.19.27-2.5 1.12a8 8 0 0 0-2.5-1.12 3.8 3.8 0 0 0-3.71.98c-.37.37-.54.69-.55.7l-.26.47.51-.16c1.37-.44 2.82.03 3.99.4.9.29 1.62.52 2.05.23q.16-.1.24-.29v5.48H1.85A9.5 9.5 0 0 1 9.92.43a9.5 9.5 0 0 1 9.49 9.49Z" class="cls-3"/><path d="m9.56 8.52-.04.05a.7.7 0 0 0-.14.42c-.02.29-.12.36-.16.38-.26.18-.95-.05-1.68-.28-.6-.19-1.27-.41-1.99-.52a6 6 0 0 0-1.67-.02l.15-.16q.66-.65 1.52-.86 1.75-.42 4 .99Zm6.4.03a5 5 0 0 0-1.67.02c-.72.11-1.4.33-1.99.52-.73.23-1.42.46-1.68.28-.03-.02-.14-.09-.16-.4a1 1 0 0 0-.14-.41l-.04-.05q2.26-1.42 4-.99.86.21 1.52.86l.15.16Z" class="cls-3"/><path d="M.14.14H19.7V19.7H.14z" style="stroke-width:0;fill:none"/></g></svg>