<svg xmlns="http://www.w3.org/2000/svg" id="_レイヤー_2" data-name="レイヤー 2" viewBox="0 0 19.84 19.84"><defs><style>.cls-3{stroke-width:0;fill:#fff}</style></defs><g id="_レイヤー_9" data-name="レイヤー 9"><circle cx="9.92" cy="9.92" r="9.92" style="fill:#231815;stroke-width:0"/><path d="M9.92.42a9.5 9.5 0 1 0 .02 19.02A9.5 9.5 0 0 0 9.92.42m6.67 15.22-.43-.25-4.09-2.36-3.86 2.23-.23.13-.2.12-.23-.13-.2-.12-3.67-2.12-.43-.25V3.95l.43.25 4.1 2.37 3.89-2.24.19-.11.22-.12.22.12.19.11.13.07a1.68 1.68 0 1 1 3.09 1.25l-.2.42.66.38.43.25v8.94Z" class="cls-3"/><path d="M15.2 4.84a.96.96 0 0 1-.97.97h-.04a.97.97 0 0 1-.93-.97v-.06c.03-.51.45-.91.97-.91s.98.44.98.98Z" class="cls-3"/><path d="M16.16 9.49V6.95l-.84-.49-1.1 2.39-1.47-3.2q-.2-.35-.21-.78l-.26-.15v7.94l.19.11 3.69 2.13V9.95a7 7 0 0 0-.9-.29l.1-.42q.37.09.8.25m-1.52.09h-.06c-.55 0-.94.2-1.43.45l-.5.24-.18-.39.48-.24a3 3 0 0 1 1.7-.49zm-4.48 1.98.19.39q.9-.44 1.51-1.08v1.79l-.19.11-3.68 2.13v-2.14l.53-.16q.52-.13 1.2-.38l-.15-.4a11 11 0 0 1-1.58.48V6.95l.23-.13 3.64-2.1v5.57l-.04-.03q-.62.8-1.66 1.31Zm-2.61.79V6.93l-.11-.06-.09-.05L3.68 4.7v5.44l.87.53-.24.36-.63-.39v2l3.87 2.24v-2.09l-.09-.01zm-.76.26a5 5 0 0 1-1.46-.85l-.47-.35.25-.35.48.36c.49.37.81.61 1.34.78z" class="cls-3"/><path d="M.14.14H19.7V19.7H.14z" style="stroke-width:0;fill:none"/></g></svg>