<svg xmlns="http://www.w3.org/2000/svg" id="_レイヤー_2" data-name="レイヤー 2" viewBox="0 0 19.84 19.84"><defs><style>.cls-3{stroke-width:0;fill:#fff}</style></defs><g id="_レイヤー_9" data-name="レイヤー 9"><circle cx="9.92" cy="9.92" r="9.92" style="fill:#231815;stroke-width:0"/><path d="M17.04 16.2a9.48 9.48 0 0 1-14.24 0zM9.92.42a9.5 9.5 0 0 0-7.55 15.26l1.6-3h11.89l1.6 3A9.5 9.5 0 0 0 9.92.42m6.03 11.71H3.89v-8.1h12.06z" class="cls-3"/><path d="M16.56 14.53h-1.42l-.25-.65h1.28v-.1zm-.47-.9h-1.3l-.28-.7h1.2zm-1.57 0H13.2l-.18-.7h1.22zm.35.9h-1.43l-.17-.65h1.35zm2.42 1.37-.04.05h-5.31l-.16-1.17h4.91zm-4.11-1.37h-1.43l-.08-.65h1.34zm-.24-.9h-1.31l-.09-.7h1.22zm-1.57 0h-1.32v-.7h1.23zm.12.9h-1.44v-.65h1.35zm-1.69-1.6v.7H8.47l.09-.7zm0 .95v.65H8.35l.09-.65zm1.8 1.37H8.24l.07-.47h3.22zm.09.7H8.15l.06-.45h3.42zM8.3 12.93l-.09.7H6.9l.18-.7zm-.13.95-.08.65H6.66l.17-.65zm-1.35-.95-.18.7H5.33l.28-.7zm-.25.95-.17.65H4.97l.26-.65zm1.48.9-.16 1.17h-5.3l-.04-.05.6-1.12zm-2.71-1.85-.28.7h-1.3l.37-.7zm-.38.95-.26.65H3.28l.4-.75v.1zm-.82-9.6H15.7v7.61H4.14z" class="cls-3"/><path d="M.14.14H19.7V19.7H.14z" style="stroke-width:0;fill:none"/></g></svg>