<svg xmlns="http://www.w3.org/2000/svg" data-name="レイヤー 2" viewBox="0 0 19.84 19.84"><g data-name="レイヤー 9"><circle cx="9.92" cy="9.92" r="9.92" style="fill:#231815;stroke-width:0"/><path d="M9.92.42a9.5 9.5 0 1 0 .02 19.02A9.5 9.5 0 0 0 9.92.42m4.75 14.07q-.85.85-1.9.85-.85 0-1.33-.47t-.48-2.18q0-1.52.85-6.08H8.49a17 17 0 0 1-2.94 9.02l-1.52-.85q3.14-2.56 3.8-8.17H6.41q-1.43 0-2.66 1.52l-.38-.09a12 12 0 0 1 1.61-2.28q.67-.66 1.9-.66h9.21l-.38 1.52h-3.23a31 31 0 0 0-.76 5.03q0 1.05.47 1.52.57.57 1.14.57 1.33 0 2.47-1.42l.38.19a9 9 0 0 1-1.52 1.99Z" style="stroke-width:0;fill:#fff"/><path d="M.14.14H19.7V19.7H.14z" style="stroke-width:0;fill:none"/></g></svg>