<svg xmlns="http://www.w3.org/2000/svg" id="_レイヤー_2" data-name="レイヤー 2" viewBox="0 0 19.84 19.84"><defs><style>.cls-3{stroke-width:0;fill:#fff}</style></defs><g id="_レイヤー_9" data-name="レイヤー 9"><circle cx="9.92" cy="9.92" r="9.92" style="fill:#231815;stroke-width:0"/><path d="M15.29 17.75a9.45 9.45 0 0 1-10.72 0H15.3Zm-5.11-1.57v-1.13h-.52v1.13a10 10 0 0 0-.65-1.09c.21-.24.55-.73.68-1.56h.47c.13.83.46 1.32.68 1.56q-.4.6-.65 1.09Zm.22-13.97h-.95q.14-.31.26-.49.17-.22.22-.2c.05.02.11.05.21.19q.12.18.26.5" class="cls-3"/><path d="M19.42 9.92a9.5 9.5 0 0 1-3.45 7.32h-5.69c.15-.4.47-1.13 1.11-2.03l.15-.21-.21-.15s-.15-.12-.3-.36a3 3 0 0 1-.35-.95h.3l.05-.2a24 24 0 0 0 0-10.92l-.05-.2h-.02a4 4 0 0 0-.39-.8q-.29-.4-.63-.41t-.64.41q-.2.28-.4.79h-.02l-.05.2a24 24 0 0 0 0 10.92l.05.2h.3c-.08.45-.23.76-.35.95-.15.24-.29.35-.3.36l-.21.15.15.21c.64.9.96 1.64 1.11 2.03H3.87A9.48 9.48 0 0 1 9.92.42a9.5 9.5 0 0 1 9.5 9.5" class="cls-3"/><path d="M11.15 7.61H8.68q.03-2.45.59-4.88h1.29q.56 2.43.59 4.88m0 .52a23 23 0 0 1-.59 4.88H9.27a23 23 0 0 1-.59-4.88z" class="cls-3"/><path d="M.14.14H19.7V19.7H.14z" style="stroke-width:0;fill:none"/></g></svg>