<svg xmlns="http://www.w3.org/2000/svg" id="_レイヤー_2" data-name="レイヤー 2" viewBox="0 0 19.84 19.84"><defs><style>.cls-3{stroke-width:0;fill:#fff}</style></defs><g id="_レイヤー_9" data-name="レイヤー 9"><circle cx="9.92" cy="9.92" r="9.92" style="fill:#231815;stroke-width:0"/><path d="M9.92.42a9.5 9.5 0 1 0 .02 19.02A9.5 9.5 0 0 0 9.92.42m4.86 15.72H5.06V6.78h1.18a3.69 3.69 0 0 1 7.38 0h1.18v9.36Z" class="cls-3"/><path d="M12.84 6.78H6.99a2.93 2.93 0 0 1 5.84 0Zm-4.21 6.83.87-2.65a1.17 1.17 0 0 1 .42-2.26 1.17 1.17 0 0 1 .42 2.26l.87 2.65z" class="cls-3"/><path d="M.14.14H19.7V19.7H.14z" style="stroke-width:0;fill:none"/></g></svg>