<svg xmlns="http://www.w3.org/2000/svg" id="_レイヤー_2" data-name="レイヤー 2" viewBox="0 0 19.84 19.84"><defs><style>.cls-3{stroke-width:0;fill:#fff}</style></defs><g id="_レイヤー_9" data-name="レイヤー 9"><circle cx="9.92" cy="9.92" r="9.92" style="fill:#231815;stroke-width:0"/><path d="M15.12 17.86a9.4 9.4 0 0 1-10.4 0zm4.3-7.94a9.5 9.5 0 0 1-3.95 7.7h-5.5l.04-.04s.8-.78 1.28-1.74c.64-1.28.46-2.33-.51-3.05V1H9.07v11.79c-.97.72-1.15 1.77-.51 3.05a7 7 0 0 0 1.29 1.74l.04.04H4.38a9.5 9.5 0 1 1 15.04-7.7" class="cls-3"/><path d="M11.14 15.61a1 1 0 0 0-.31-.14 1 1 0 0 0-.98.24c-.5.44-.99.09-1.09.01q-.87-1.76.47-2.74h1.39q1.29.95.52 2.63M9.31 1.24h1.23v1.23H9.31zm0 1.47h1.23v10.03H9.31z" class="cls-3"/><path d="M.14.14H19.7V19.7H.14z" style="stroke-width:0;fill:none"/></g></svg>