<svg xmlns="http://www.w3.org/2000/svg" id="_レイヤー_2" data-name="レイヤー 2" viewBox="0 0 19.84 19.84"><defs><style>.cls-3{stroke-width:0;fill:#fff}</style></defs><g id="_レイヤー_9" data-name="レイヤー 9"><circle cx="9.92" cy="9.92" r="9.92" style="fill:#231815;stroke-width:0"/><path d="M9.92.42a9.5 9.5 0 1 0 .02 19.02A9.5 9.5 0 0 0 9.92.42m5.34 7.87v4.25l-3.57 1.29 4.18 1.64-.41 1.21-5.2-2.02v2.41h-.69v-2.41l-5.2 2.02-.41-1.21 4.18-1.64-2.92-1.06-.65-.23V8.29l3.24-1.16-5.43-1.61.29-1.31 6.9 2.12V2.78h.69v3.55l6.9-2.12.29 1.31-5.43 1.61z" class="cls-3"/><path d="M14.38 10.92v1.13l-4.11 1.14v-2.27zm0-1.95v.98h-4.11V7.71zm-4.8-1.26v2.24H5.46v-.98zm0 3.21v2.27l-4.12-1.14v-1.13z" class="cls-3"/><path d="M.14.14H19.7V19.7H.14z" style="stroke-width:0;fill:none"/></g></svg>