<svg xmlns="http://www.w3.org/2000/svg" id="_レイヤー_2" data-name="レイヤー 2" viewBox="0 0 19.84 19.84"><defs><style>.cls-3{stroke-width:0;fill:#fff}</style></defs><g id="_レイヤー_9" data-name="レイヤー 9"><circle cx="9.92" cy="9.92" r="9.92" style="fill:#231815;stroke-width:0"/><path d="M19.42 9.92c0 1.77-.48 3.42-1.33 4.84a14 14 0 0 1-2.71-2.38 11.4 11.4 0 0 1-2.97-7.73v-.26H7.43v.26a11.4 11.4 0 0 1-2.96 7.72c-.79.9-1.57 1.56-2.1 1.95l-.62.44a9.5 9.5 0 1 1 17.67-4.84" class="cls-3"/><path d="m12.52 8.54-.37-.38-1.11 1.15-1.11-1.15-1.11 1.15-1.11-1.15-.37.38q.62-1.76.63-3.64h3.94q0 1.88.63 3.64Z" class="cls-3"/><path d="M17.81 15.2a9.5 9.5 0 0 1-15.78 0q.26-.16.64-.46c.54-.41 1.36-1.09 2.18-2.02q1.19-1.36 1.93-2.86l.92-.95 1.11 1.15 1.11-1.15 1.11 1.15 1.11-1.15.92.95a13 13 0 0 0 1.93 2.86 15 15 0 0 0 2.82 2.48" class="cls-3"/><path d="M.14.14H19.7V19.7H.14z" style="stroke-width:0;fill:none"/></g></svg>