<svg xmlns="http://www.w3.org/2000/svg" id="_レイヤー_2" data-name="レイヤー 2" viewBox="0 0 19.84 19.84"><defs><style>.cls-3{stroke-width:0;fill:#fff}</style></defs><g id="_レイヤー_9" data-name="レイヤー 9"><circle cx="9.92" cy="9.92" r="9.92" style="fill:#231815;stroke-width:0"/><path d="M16.39 16.87a9.47 9.47 0 0 1-12.94 0zm-4.13-6.93V4.98a2.4 2.4 0 0 1-2.42-.15 2 2 0 0 0-1.62-.3c-.3.07-.53.19-.64.25v5.15l-4.39 6.61h13.45zm-2.34 5.42c-.19 0-.35-.16-.35-.35s.16-.35.35-.35.35.16.35.35-.16.35-.35.35m0-2.25a.65.65 0 1 1 0-1.3c.36 0 .64.29.64.65s-.29.65-.64.65m0-2.79a.9.9 0 0 1 0-1.78.9.9 0 0 1 0 1.78" class="cls-3"/><path d="M19.42 9.92c0 2.48-.96 4.75-2.53 6.44l-4.32-6.52V1.69h-.31v2.93c-.11.06-.34.19-.65.26q-.84.2-1.61-.3a2.3 2.3 0 0 0-1.86-.34q-.36.08-.56.2V1.69h-.31v8.16l-4.32 6.52a9.5 9.5 0 1 1 16.47-6.45" class="cls-3"/><path d="M10.5 9.43a.58.58 0 1 1-1.16 0 .58.58 0 0 1 1.16 0m-.25 3.03c0 .18-.15.33-.33.33s-.33-.15-.33-.33.15-.33.33-.33.33.15.33.33m-.19 2.55q-.01.13-.14.14c-.13.01-.14-.06-.14-.14s.06-.14.14-.14.14.06.14.14" class="cls-3"/><path d="M.14.14H19.7V19.7H.14z" style="stroke-width:0;fill:none"/></g></svg>