<svg xmlns="http://www.w3.org/2000/svg" id="_レイヤー_2" data-name="レイヤー 2" viewBox="0 0 19.84 19.84"><defs><style>.cls-3{stroke-width:0;fill:#fff}</style></defs><g id="_レイヤー_9" data-name="レイヤー 9"><circle cx="9.92" cy="9.92" r="9.92" style="fill:#231815;stroke-width:0"/><path d="M9.92.42a9.5 9.5 0 1 0 .02 19.02A9.5 9.5 0 0 0 9.92.42m3.01 3.85c-.06-.06-.05-.16 0-.22q.11-.08.22 0 .67.74 0 1.53-.51.54 0 1.12.09.12-.02.22a.1.1 0 0 1-.1.04.2.2 0 0 1-.12-.05q-.66-.78 0-1.52.51-.57 0-1.11Zm-2.72 1.11q.51-.57 0-1.11c-.06-.06-.05-.16 0-.22q.11-.08.22 0 .68.74 0 1.53-.51.54 0 1.12c.06.06.05.16-.02.22a.1.1 0 0 1-.1.04.2.2 0 0 1-.12-.05q-.66-.78 0-1.52ZM7.49 4.27c-.06-.06-.05-.16 0-.22s.16-.05.22 0q.68.74 0 1.53-.51.54 0 1.12.09.12-.02.22a.1.1 0 0 1-.1.04.2.2 0 0 1-.12-.05q-.66-.78 0-1.52.51-.57 0-1.11Zm8.95 3.81q-.41.02-.73.63a4 4 0 0 0-.34 1.64v.02a5 5 0 0 1-2.39 4.29l.53.93s.03.11 0 .16a.2.2 0 0 1-.13.08H7.27q-.1 0-.13-.08a.2.2 0 0 1 0-.16l.53-.93a5 5 0 0 1-1.2-1.04q-.48.21-1.03.21A2.6 2.6 0 0 1 3.6 9.39q.57-.56 1.33-.71-.32-.59-.71-.6-.15-.01-.16-.16c-.01-.15.07-.16.16-.16h12.22q.15.01.16.16c.01.15-.07.16-.16.16" class="cls-3"/><path d="m5.66 12.29-.22.02a1.07 1.07 0 0 1-.16-2.13v.19q0 1 .37 1.91Z" class="cls-3"/><path d="M6.27 13.37q-.4.15-.83.16a2.3 2.3 0 0 1-2.29-2.29 2.3 2.3 0 0 1 1.91-2.26q.15.4.2.89a1.38 1.38 0 1 0 .53 2.71q.21.42.48.8Zm6.85 2.15H7.54l.43-.75h4.71z" class="cls-3"/><path d="M15.06 10.38v.02c0 1.66-.9 3.21-2.33 4.06h-4.8a4 4 0 0 1-1.37-1.22 5 5 0 0 1-.48-.78l-.13-.28a5 5 0 0 1-.36-1.8v-.19l-.02-.32q-.05-.5-.19-.92l-.12-.31-.03-.07q-.15-.3-.34-.49h10.89c-.43.44-.71 1.29-.71 2.29Z" class="cls-3"/><path d="M.14.14H19.7V19.7H.14z" style="stroke-width:0;fill:none"/></g></svg>