<svg xmlns="http://www.w3.org/2000/svg" id="_レイヤー_2" data-name="レイヤー 2" viewBox="0 0 19.84 19.84"><defs><clipPath id="clippath"><path d="M6.65 6.41H7.9v1.25H6.65z" class="cls-2"/></clipPath><style>.cls-2,.cls-3{stroke-width:0}.cls-2{fill:none}.cls-3{fill:#fff}</style></defs><g id="_レイヤー_9" data-name="レイヤー 9"><circle cx="9.92" cy="9.92" r="9.92" style="fill:#231815;stroke-width:0"/><path d="M9.92.42a9.5 9.5 0 1 0 .02 19.02A9.5 9.5 0 0 0 9.92.42m5.73 14.13.5.5-.87.87-.68-.68c-1.38.76-3 1.16-4.69 1.16-.87 0-1.79-.01-2.64-.15a5 5 0 0 1-2.24-.9 2.6 2.6 0 0 1-.82-.97q-.18-.46.05-.79.25-.34.79-.34t1.1.37q.46.32.88.18.38-.12.72-.58a1.1 1.1 0 0 0-.09-1.48c-.33-.34-.95-.56-1.63-.07a5 5 0 0 1-1.77.87q-.71.15-1.27-.14a2.2 2.2 0 0 1-1.02-1.24 4 4 0 0 1-.26-1.22q0-1.33.65-2.53a7 7 0 0 1 1.76-2.06 9 9 0 0 1 2.6-1.38 10 10 0 0 1 6.36 0q1.47.49 2.6 1.38a7 7 0 0 1 1.76 2.06 5.3 5.3 0 0 1-.04 5.15 7 7 0 0 1-1.76 2.01Z" class="cls-3"/><path d="m8.95 8.07-.65.65a1 1 0 0 1-.41-.04q-.49-.2-.8-.98l.83-.83q.79.32.98.8c.08.2.06.35.04.41Z" class="cls-3"/><path d="M15.55 5.52c-1.5-1.18-3.5-1.83-5.63-1.83s-4.13.65-5.63 1.83a5.6 5.6 0 0 0-2.32 4.4c0 .19.05.65.24 1.13.15.37.42.87.91 1.11q.48.24 1.1.11.74-.16 1.68-.82.53-.38 1.08-.32.51.05.87.42.35.36.4.84.05.52-.29.97-.4.52-.85.67-.53.16-1.1-.21c-.67-.45-1.32-.39-1.55-.08q-.15.21-.02.55.17.41.74.86c1.18.93 2.84 1 4.72 1 1.62 0 3.17-.38 4.5-1.1L8.31 8.96l-.16.01a1.2 1.2 0 0 1-.86-.44 3 3 0 0 1-.48-.84 6 6 0 0 1-.31-1.28l-.03-.17.17.02q.74.11 1.28.31.52.2.84.48.26.23.37.51.1.35.05.51l6.27 6.27c1.54-1.18 2.39-2.76 2.39-4.45s-.82-3.22-2.32-4.4ZM9.92 6.91a1.1 1.1 0 0 1-1.12-1.1.4.4 0 0 1 .18-.35q.14-.09.33-.13c.3-.08.48-.15.48-.49q0-.17.05-.27.07-.12.21-.13c.25 0 .52.36.63.52.08.12.35.53.35.85 0 .6-.5 1.1-1.12 1.1Zm3.77.73a1.1 1.1 0 0 1-1.12-1.1.4.4 0 0 1 .18-.35q.14-.09.33-.13c.3-.08.48-.15.48-.49q0-.17.05-.27.07-.12.21-.13c.25 0 .52.36.63.52.08.12.35.53.35.85 0 .6-.5 1.1-1.12 1.1Zm2.29 2.4a1.1 1.1 0 0 1-1.12-1.1.4.4 0 0 1 .18-.35q.14-.09.33-.13c.3-.08.48-.15.48-.49q0-.17.05-.27.08-.12.21-.13c.25 0 .52.36.63.52.08.12.35.53.35.85 0 .6-.5 1.1-1.12 1.1Z" class="cls-3"/><path d="m9.59 9.87.52-.51 5.7 5.7-.52.51zM8.56 8.83l.51-.52.87.87-.52.51z" class="cls-3"/><path d="M.14.14H19.7V19.7H.14z" class="cls-2"/></g></svg>