<svg xmlns="http://www.w3.org/2000/svg" id="_レイヤー_2" data-name="レイヤー 2" viewBox="0 0 19.84 19.84"><defs><style>.cls-3{stroke-width:0;fill:#fff}</style></defs><g id="_レイヤー_9" data-name="レイヤー 9"><circle cx="9.92" cy="9.92" r="9.92" style="fill:#231815;stroke-width:0"/><path d="M9.92.42a9.5 9.5 0 1 0 .02 19.02A9.5 9.5 0 0 0 9.92.42M4.57 8.11c.08.14.31.17.56.18.04 0 .06 0 .07.09q.01.1-.07.1c-.26 0-.62.04-.87.06q-.37.03-.73.08-.09.02-.08-.08-.02-.1.07-.1.27-.07.39-.25.19-.21.36-.85l.65-2.33c.25-.91.3-1.13.38-1.51l.53-.3s.08 0 .1.05l.72 1.65.98 2.21q.24.59.42.77c.13.14.2.14.47.14q.1-.02.1.08.02.1-.08.1l-.99.07-.98.1c-.05 0-.06 0-.06-.09s0-.09.05-.1c.26-.04.44-.08.47-.22.04-.16-.02-.35-.19-.72l-.36-.8c-.23 0-.53.02-.8.04l-.86.1-.2.76c-.12.42-.09.63-.01.79Zm5.07 6.85s-.02.06-.07.06q-.06 0-.08-.06-.12-.45-.34-.76a1 1 0 0 0-.63-.38c-.77-.15-1.5.45-1.72 1.54-.2.97.25 1.83 1.04 1.99q.85.18 1.45-.47.02-.04.11.02.06.04.02.1c-.42.49-.96.8-1.75.64a1.97 1.97 0 0 1-1.6-2.42 2 2 0 0 1 2.43-1.6q.38.08.65.22c.2.1.35.16.58.18zm5.93-2.56c-.6.16-1.29.3-1.79.44l-1.36.39q-.1.04-.11-.09-.04-.11.05-.14c.38-.14.6-.2.68-.44s-.03-.63-.19-1.23l-.89-3.26c-.24-.86-.27-.98-.46-1.14-.17-.14-.4-.08-.85 0q-.1.03-.12-.09c-.03-.11-.01-.13.07-.15l1.4-.35c.48-.13 1.1-.35 1.66-.5 2.14-.59 2.96-.17 3.21.72.18.66-.12 1.35-1.58 2.13v.05c1.66-.3 2.7.02 2.95.94s-.19 2.03-2.64 2.7Z" class="cls-3"/><path d="m6.32 6.16-.7.07q-.41.04-.78.05l.34-1.27.24-.93c.1.24.17.44.37.89zm9.12 5.96c-.43.12-.75.18-.97-.01-.22-.18-.32-.59-.45-1.08l-.44-1.61.47-.14c2.25-.62 2.67.22 2.83.8.19.69.05 1.64-1.44 2.05ZM13.84 9l-.35.09-.36-1.32c-.15-.57-.27-.96-.2-1.18.08-.23.35-.31.68-.4 1.04-.28 1.76 0 1.98.81.21.77-.03 1.53-1.74 2Z" class="cls-3"/><path d="M.14.14H19.7V19.7H.14z" style="stroke-width:0;fill:none"/></g></svg>