<svg xmlns="http://www.w3.org/2000/svg" id="_レイヤー_2" data-name="レイヤー 2" viewBox="0 0 19.84 19.84"><defs><style>.cls-3{stroke-width:0;fill:#fff}</style></defs><g id="_レイヤー_9" data-name="レイヤー 9"><circle cx="9.92" cy="9.92" r="9.92" style="fill:#231815;stroke-width:0"/><path d="M9.92.42a9.5 9.5 0 1 0 .02 19.02A9.5 9.5 0 0 0 9.92.42m4.54 9.72q-.82.98-1.63 1.7l1 .91-3.09 1.97-.87-1.15q-.74.22-1.48.22h-.02l-.35-.01 1.06 1.13-2.2.88-.56-2.43q-.53-.22-1.05-.54a12 12 0 0 1-3.02-2.84l-.08-.1.08-.1a13 13 0 0 1 3.02-2.84 6 6 0 0 1 2.93-.97V4.05l5.61 2.48-1 1.37q.83.73 1.66 1.72l3.18-3.95v8.38l-3.18-3.95Z" class="cls-3"/><path d="m13.33 6.68-.76 1.04q-.54-.45-1.09-.78a6 6 0 0 0-2.97-.95V4.55zm-.02 6.03-2.51 1.6-.63-.83q.66-.23 1.3-.63.55-.34 1.11-.8zM8.53 14.8l-1.44.58-.43-1.87q.46.15.91.23l-.02.02.98 1.05Zm8.79-8.21v6.61l-2.66-3.3z" class="cls-3"/><path d="M8.38 6.3h-.02q-2.9.01-5.8 3.6c1.92 2.38 3.88 3.59 5.8 3.6h.02q2.91 0 5.88-3.6-2.96-3.6-5.88-3.6M4.76 9.6a.58.58 0 1 1 0-1.16.58.58 0 0 1 0 1.16m3.74 1.94-1.42-.88q-.12.63-.46 1.26l-.28-.15a3.8 3.8 0 0 0 0-3.75l.28-.15q.35.65.47 1.31L8.5 8.3z" class="cls-3"/><path d="M8.2 8.87v2.11l-1.06-.66q.03-.21.02-.42 0-.19-.02-.37zm-3.16.14c0 .15-.12.27-.27.27s-.27-.12-.27-.27.12-.27.27-.27.27.12.27.27" class="cls-3"/><path d="M.14.14H19.7V19.7H.14z" style="stroke-width:0;fill:none"/></g></svg>