<svg xmlns="http://www.w3.org/2000/svg" id="_レイヤー_2" data-name="レイヤー 2" viewBox="0 0 19.84 19.84"><defs><style>.cls-3{stroke-width:0;fill:#fff}</style></defs><g id="_レイヤー_9" data-name="レイヤー 9"><circle cx="9.92" cy="9.92" r="9.92" style="fill:#231815;stroke-width:0"/><path d="M9.92.42A9.5 9.5 0 0 0 .95 13.06a20 20 0 0 1 3.53-1.52 18 18 0 0 1 10.15-.21q2.18.6 4.25 1.73.52-1.48.53-3.14A9.5 9.5 0 0 0 9.92.42M6.84 8.74c0 .15-.12.27-.27.27H5.13l-.02.01v.03l.17.64a.3.3 0 0 1-.11.29.3.3 0 0 1-.15.05.3.3 0 0 1-.16-.05l-1.28-.95H1.95a.27.27 0 0 1-.27-.27v-3.1c0-.15.12-.27.27-.27h4.63c.15 0 .27.12.27.27v3.1Zm5.66.05c0 .12-.1.22-.22.22h-1.6l-.47.89a.2.2 0 0 1-.18.12h-.01a.2.2 0 0 1-.18-.09l-.63-.91H7.56a.2.2 0 0 1-.22-.22V5.6c0-.12.1-.22.22-.22h4.72c.12 0 .22.1.22.22v3.2Zm5.69-.03c0 .15-.12.27-.27.27h-1.63l-1.28.95s-.1.05-.16.05a.3.3 0 0 1-.15-.05.3.3 0 0 1-.11-.29l.17-.64v-.03l-.02-.01H13.3a.27.27 0 0 1-.27-.27v-3.1c0-.15.12-.27.27-.27h4.63c.15 0 .27.12.27.27v3.1Z" class="cls-3"/><path d="M16.4 16.86a9 9 0 0 1-1.95 1.4l-.13-.05a7 7 0 0 0-2.06-.83 1 1 0 0 0-.54 0c-.15.06-1.24.57-1.36.71-.32.37-.3.58-.28.82q.03.2-.04.51s-.08 0-.13 0a9.4 9.4 0 0 1-5.41-1.69c.39-.65.98-1.35 1.5-1.75.39-.3.92-.66 1.48-.73l.29-.02q.25.01.5-.06c.29-.08.54-.28.82-.51q1.16-.96 2.27-2.07c.35-.35.6-.69.78-1.25q1.1.15 2.18.43l.19.79.21.9q.06.29.2.56.18.32.43.57l.13.15c.5.58.82 1.33.91 2.12ZM7.58 5.61v3.16h1.64q.11 0 .18.09l.62.89.46-.87a.2.2 0 0 1 .19-.12h1.6V5.6zm.43 1.98.51-.93.51.93zm1.39 0 .51-.93.51.93zm1.42 0 .51-.93.51.93zm7.11-1.96H13.3s-.03.01-.03.03v3.1s.01.03.03.03h1.44q.13 0 .21.1t.05.23l-.17.64.01.03h.03l1.28-.95s.1-.05.16-.05h1.61s.03-.01.03-.03v-3.1s-.01-.03-.03-.03Zm-3.22 1.94h-.79v-.79h.79zm1.27 0h-.79v-.79h.79zm1.27 0h-.79v-.79h.79zM6.57 5.61H1.95s-.03.01-.03.03v3.1s.01.03.03.03h1.61a.3.3 0 0 1 .16.05L5 9.77h.03q.02 0 .01-.03l-.17-.64q-.03-.12.05-.23c.08-.11.13-.1.21-.1h1.44s.03-.01.03-.03v-3.1s-.01-.03-.03-.03M2.8 7.7c-.29 0-.52-.23-.52-.52s.23-.52.52-.52.52.23.52.52-.23.52-.52.52m1.48 0c-.29 0-.52-.23-.52-.52s.23-.52.52-.52.52.23.52.52-.23.52-.52.52m1.48 0c-.29 0-.52-.23-.52-.52s.23-.52.52-.52.52.23.52.52-.23.52-.52.52" class="cls-3"/><path d="M.14.14H19.7V19.7H.14z" style="stroke-width:0;fill:none"/></g></svg>