<svg xmlns="http://www.w3.org/2000/svg" id="_レイヤー_2" data-name="レイヤー 2" viewBox="0 0 20.15 20.15"><defs><style>.cls-1,.cls-3{fill:none;stroke-width:.44px}.cls-1{stroke-linejoin:round;stroke:#231815}.cls-3{stroke:#040000}</style></defs><g id="_レイヤー_9" data-name="レイヤー 9"><circle cx="10.08" cy="10.08" r="9.92" style="stroke:#231815;fill:#fff;stroke-width:.31px"/><path d="M5.18 9.97c.3-.54.79-1.22 1.53-1.84a5 5 0 0 1 2.2-1.18c.32-.07 1.15-.26 2.15 0a5 5 0 0 1 1.63.82 8 8 0 0 1 2.17 2.32" class="cls-3"/><path d="M5.15 9.77a7 7 0 0 0 1.79 2.04c.46.37.82.66 1.38.92.35.16.8.37 1.43.41.68.04 1.19-.13 1.53-.26.67-.24 1.1-.56 1.63-.97.66-.5 1.07-.95 1.18-1.07a8 8 0 0 0 .77-1.02M10 5.61v1.08m-3.09-.22.54.93m5.65-.81-.54.93" class="cls-3"/><circle cx="10" cy="9.99" r="1.56" class="cls-3"/><circle cx="9.9" cy="9.71" r="7.4" class="cls-1"/><circle cx="9.9" cy="9.71" r="6.16" class="cls-1"/><path d="m14.19 15.74 1.95 2.09m1.51-1.35-2-2.15" class="cls-1"/></g></svg>