<svg xmlns="http://www.w3.org/2000/svg" id="_レイヤー_2" data-name="レイヤー 2" viewBox="0 0 19.84 19.84"><defs><style>.cls-3{stroke-width:0;fill:#fff}</style></defs><g id="_レイヤー_9" data-name="レイヤー 9"><circle cx="9.92" cy="9.92" r="9.92" style="fill:#231815;stroke-width:0"/><path d="M19.42 9.92a9.5 9.5 0 0 1-4.14 7.84l-1.19-2.48a2.3 2.3 0 0 0 1.95-2.29V4.9a2.3 2.3 0 0 0-2.32-2.32h-7.6A2.3 2.3 0 0 0 3.8 4.9v8.08a2.3 2.3 0 0 0 1.95 2.29l-1.19 2.48A9.48 9.48 0 0 1 9.92.42a9.5 9.5 0 0 1 9.5 9.5" class="cls-3"/><path d="M13.27 18.81a9.5 9.5 0 0 1-6.7 0l1.05-2.33h4.6zm.45-15.72h-7.6c-1 0-1.81.81-1.81 1.81v8.08c0 1 .81 1.81 1.81 1.81h7.6c1 0 1.81-.81 1.81-1.81V4.9c0-1-.81-1.81-1.81-1.81m-8.01.81h8.42v1.45H5.71zm1.28 9.94c-.55 0-.99-.45-.99-.99s.45-.99.99-.99.99.45.99.99-.45.99-.99.99m5.87 0c-.55 0-.99-.45-.99-.99s.45-.99.99-.99.99.45.99.99-.45.99-.99.99m1.73-2.69H5.26V5.83h9.32z" class="cls-3"/><circle cx="12.86" cy="12.86" r=".47" class="cls-3"/><circle cx="6.99" cy="12.86" r=".47" class="cls-3"/><path d="M5.78 6.35h8.28v4.29H5.78zm.45-1.93h7.39v.42H6.23z" class="cls-3"/><path d="M.14.14H19.7V19.7H.14z" style="stroke-width:0;fill:none"/></g></svg>