<svg xmlns="http://www.w3.org/2000/svg" id="_レイヤー_2" data-name="レイヤー 2" viewBox="0 0 19.84 19.84"><defs><style>.cls-3{stroke-width:0;fill:#fff}</style></defs><g id="_レイヤー_9" data-name="レイヤー 9"><circle cx="9.92" cy="9.92" r="9.92" style="fill:#231815;stroke-width:0"/><path d="M11.54.56v10.47l-1.47 1.47v6.91q.59 0 1.16-.09v-6.95l2.93-2.93V5.91a1.13 1.13 0 1 1 .3 0v3.66l-2.93 2.93v6.78A9.5 9.5 0 0 0 11.54.56m5.38 7.21v1.79l-1.47 1.47v3.37a1.13 1.13 0 1 1-.3 0v-3.5l1.47-1.47V7.76a1.14 1.14 0 0 1-.94-1.12 1.13 1.13 0 1 1 2.26 0c0 .59-.45 1.07-1.02 1.13" class="cls-3"/><path d="M11.23.51V10.9l-1.47 1.47v7.04q-.59 0-1.16-.09V4.12a1.14 1.14 0 0 0 1.02-1.13 1.13 1.13 0 1 0-2.26 0c0 .56.41 1.02.94 1.12v7.95L5.68 9.44V7.16a1.13 1.13 0 1 0-.3 0v2.41l2.93 2.93v6.78a10 10 0 0 1-2.62-.86v-6.04L2.76 9.45V6.03c.55-.08.98-.55.98-1.12s-.45-1.07-1.03-1.13A9.4 9.4 0 0 1 11.23.51" class="cls-3"/><path d="M5.36 12.5v5.75A9.5 9.5 0 0 1 1.57 5.4c.16.33.48.57.86.62v3.55zM3.41 4.89c0 .45-.37.82-.82.82a.8.8 0 0 1-.81-.68q.3-.5.66-.95l.15-.01c.45 0 .82.37.82.82M9.32 3c0 .45-.37.82-.82.82s-.82-.37-.82-.82.37-.82.82-.82.82.37.82.82M6.34 6.04c0 .45-.37.82-.82.82s-.82-.37-.82-.82.37-.82.82-.82.82.37.82.82m8.8-1.25c0 .45-.37.82-.82.82s-.82-.37-.82-.82.37-.82.82-.82.82.37.82.82m2.49 1.86c0 .45-.37.82-.82.82s-.82-.37-.82-.82.37-.82.82-.82.82.37.82.82m-1.51 8.88c0 .45-.37.82-.82.82s-.82-.37-.82-.82.37-.82.82-.82.82.37.82.82" class="cls-3"/><path d="M.14.14H19.7V19.7H.14z" style="stroke-width:0;fill:none"/></g></svg>