<svg xmlns="http://www.w3.org/2000/svg" id="_レイヤー_2" viewBox="0 0 20.23 20.23"><defs><style>.cls-1{fill:#231815}</style></defs><g id="_レイヤー1"><path d="M19.94 10.11a9.83 9.83 0 1 1-19.66 0 9.83 9.83 0 0 1 19.66 0Z" style="fill:#fff;stroke:#010000;stroke-width:.57px"/><path d="M5.23 16.37H15V6.96H5.23zm3.59-2.55.87-2.67c-.44-.17-.76-.6-.76-1.1a1.18 1.18 0 0 1 2.36 0c0 .5-.31.93-.76 1.1l.87 2.67z" class="cls-1"/><path d="M10.11 3.37A3.7 3.7 0 0 0 6.4 7.08h.77a2.94 2.94 0 0 1 5.88 0h.77a3.7 3.7 0 0 0-3.71-3.71" class="cls-1"/></g></svg>