<?xml version="1.0" encoding="UTF-8"?><svg id="_レイヤー_2" xmlns="http://www.w3.org/2000/svg" viewBox="0 0 20.23 20.23"><defs><style>.cls-1{fill:#231815;}.cls-2{fill:#fff;stroke:#010000;stroke-width:.57px;}</style></defs><g id="_レイヤー1"><g><path class="cls-2" d="M19.94,10.11c0,5.43-4.4,9.83-9.83,9.83S.28,15.54,.28,10.11,4.68,.28,10.11,.28s9.83,4.4,9.83,9.83Z"/><path class="cls-1" d="M5.23,16.37H15V6.96H5.23v9.41Zm3.59-2.55l.87-2.67c-.44-.17-.76-.6-.76-1.1,0-.65,.53-1.18,1.18-1.18s1.18,.53,1.18,1.18c0,.5-.31,.93-.76,1.1l.87,2.67h-2.59Z"/><path class="cls-1" d="M10.11,3.37c-2.04,0-3.71,1.66-3.71,3.71h.77c0-1.62,1.32-2.94,2.94-2.94s2.94,1.32,2.94,2.94h.77c0-2.04-1.66-3.71-3.71-3.71"/></g></g></svg>