<?xml version="1.0" encoding="UTF-8"?><svg id="_レイヤー_2" xmlns="http://www.w3.org/2000/svg" viewBox="0 0 20.23 20.23"><defs><style>.cls-1{fill:#fff;stroke-width:.57px;}.cls-1,.cls-2{stroke:#231815;}.cls-2{fill:none;stroke-width:.52px;}</style></defs><g id="_レイヤー1"><g><path class="cls-1" d="M19.94,10.11C19.94,4.68,15.54,.28,10.11,.28S.28,4.68,.28,10.11s4.4,9.83,9.83,9.83,9.83-4.4,9.83-9.83Z"/><line class="cls-2" x1="3.9" y1="17.73" x2="16.4" y2="17.73"/><path class="cls-2" d="M9.65,13.48c-.12,1.3-.79,1.79-.79,1.79,1.01,1.43,1.26,2.45,1.26,2.45"/><path class="cls-2" d="M10.58,13.48c.12,1.3,.79,1.79,.79,1.79-1.01,1.43-1.26,2.45-1.26,2.45"/><line class="cls-2" x1="10.11" y1="15.27" x2="10.11" y2="17.73"/><path class="cls-2" d="M10.97,13.48h-1.71c-.86-3.62-.86-7.24,0-10.86h1.71c.86,3.62,.86,7.24,0,10.86Z"/><line class="cls-2" x1="11.62" y1="8.05" x2="8.61" y2="8.05"/><path class="cls-2" d="M10.97,2.62c-.58-1.67-1.15-1.56-1.71,0"/></g></g></svg>