<svg xmlns="http://www.w3.org/2000/svg" id="_レイヤー_2" viewBox="0 0 20.23 20.23"><defs><style>.cls-2{stroke:#231815;fill:none;stroke-width:.52px}</style></defs><g id="_レイヤー1"><path d="M19.94 10.11a9.83 9.83 0 1 0-19.66 0 9.83 9.83 0 0 0 19.66 0Z" style="fill:#fff;stroke-width:.57px;stroke:#231815"/><path d="M3.9 17.73h12.5m-6.75-4.25c-.12 1.3-.79 1.79-.79 1.79 1.01 1.43 1.26 2.45 1.26 2.45" class="cls-2"/><path d="M10.58 13.48c.12 1.3.79 1.79.79 1.79-1.01 1.43-1.26 2.45-1.26 2.45m0-2.45v2.46m.86-4.25H9.26a23 23 0 0 1 0-10.86h1.71q1.29 5.43 0 10.86Zm.65-5.43H8.61m2.36-5.43c-.58-1.67-1.15-1.56-1.71 0" class="cls-2"/></g></svg>