<?xml version="1.0" encoding="UTF-8"?><svg id="_レイヤー_2" xmlns="http://www.w3.org/2000/svg" viewBox="0 0 20.23 20.23"><defs><style>.cls-1{fill:#fff;stroke-width:.57px;}.cls-1,.cls-2,.cls-3{stroke:#231815;}.cls-2{stroke-width:.52px;}.cls-2,.cls-3{fill:none;}.cls-3{stroke-width:.35px;}</style></defs><g id="_レイヤー1"><g><circle class="cls-1" cx="10.11" cy="10.11" r="9.83" transform="translate(-2.49 16.87) rotate(-73.2)"/><path class="cls-2" d="M11.94,6.73c.74-.25,2.59,1.23,2.64,1.27,.02,.01-.19,9.42-.12,9.72,.24-.12,3.72-3.57,4.06-3.65-.03-.09-2.39-4.07-.65-7.3C10.94,4.16,12.26,2.25,11.57,.68c-3.49,2.86-5.75,1.57-6.36,1.32-.03,.31,1.39,2.25,1.41,2.42,.06,.45-.2,.65-.43,.96-.13,.19-.39,.97-.49,1.14-.13,.21-3.43,4.19-3.55,4.47-.17,.39,2.74,2.63,3.14,2.34,.64-.46,3.17-2.47,3.42-2.51,1.8-.28,3.25-1.94,3.3-2.49,.04-.4-.05-1.81-.12-2.2-.04-.26-1.41-2.92-1.56-3.04-.15-.12-.98-.49-1.1-.25-.09,.18-.07,1.61-.14,1.92-.05,.2-.22,.74-.35,.88-.39,.07-2.15-.29-2.54-.26"/><path class="cls-2" d="M11.83,8.74c.48,.45,.88,1.09,.91,1.72,.24,4.85-.72,6.69-.93,7.43"/><path class="cls-2" d="M10.22,10.23c-.02,.5,.1,1.11,.1,1.6,0,.57-.04,1.19-.09,1.78-.07,.91-.02,1.89-.31,2.77-.12,.35-.31,.67-.58,.91-.15,.14-.49,.44-.59,.59"/><path class="cls-2" d="M7.91,11.33c.18,.4-.98,5.9-1.19,6.03-.15,.09-.62,.47-.78,.53"/><polygon class="cls-3" points="6.61 6.51 5.43 8.16 7.19 7.72 8.17 6.51 6.61 6.51"/><line class="cls-2" x1="4.11" y1="17.9" x2="16.12" y2="17.9"/><line class="cls-2" x1="14.49" y1="18.92" x2="5.73" y2="18.92"/></g></g></svg>