<svg xmlns="http://www.w3.org/2000/svg" id="_レイヤー_2" viewBox="0 0 20.23 20.23"><defs><style>.cls-2{stroke:#231815;stroke-width:.52px;fill:none}</style></defs><g id="_レイヤー1"><circle cx="10.11" cy="10.11" r="9.83" style="fill:#fff;stroke-width:.57px;stroke:#231815" transform="rotate(-73.2 10.11 10.11)"/><path d="M11.94 6.73c.74-.25 2.59 1.23 2.64 1.27.02.01-.19 9.42-.12 9.72.24-.12 3.72-3.57 4.06-3.65-.03-.09-2.39-4.07-.65-7.3-6.93-2.61-5.61-4.52-6.3-6.09C8.08 3.54 5.82 2.25 5.21 2c-.03.31 1.39 2.25 1.41 2.42.06.45-.2.65-.43.96-.13.19-.39.97-.49 1.14-.13.21-3.43 4.19-3.55 4.47-.17.39 2.74 2.63 3.14 2.34.64-.46 3.17-2.47 3.42-2.51 1.8-.28 3.25-1.94 3.3-2.49.04-.4-.05-1.81-.12-2.2a24 24 0 0 0-1.56-3.04c-.15-.12-.98-.49-1.1-.25-.09.18-.07 1.61-.14 1.92-.05.2-.22.74-.35.88-.39.07-2.15-.29-2.54-.26" class="cls-2"/><path d="M11.83 8.74c.48.45.88 1.09.91 1.72.24 4.85-.72 6.69-.93 7.43m-1.59-7.66c-.02.5.1 1.11.1 1.6q0 .88-.09 1.78c-.07.91-.02 1.89-.31 2.77q-.18.54-.58.91c-.15.14-.49.44-.59.59m-.84-6.55c.18.4-.98 5.9-1.19 6.03-.15.09-.62.47-.78.53" class="cls-2"/><path d="M6.61 6.51 5.43 8.16l1.76-.44.98-1.21z" style="stroke:#231815;fill:none;stroke-width:.35px"/><path d="M4.11 17.9h12.01m-1.63 1.02H5.73" class="cls-2"/></g></svg>