<?xml version="1.0" encoding="UTF-8"?><svg id="_レイヤー_2" xmlns="http://www.w3.org/2000/svg" viewBox="0 0 20.23 20.23"><defs><style>.cls-1{fill:none;stroke-width:.31px;}.cls-1,.cls-2{stroke:#010000;}.cls-2{fill:#fff;stroke-width:.57px;}</style></defs><g id="_レイヤー1"><g><circle class="cls-2" cx="10.11" cy="10.11" r="9.83"/><polyline class="cls-1" points="11.59 .39 11.59 11.17 10.11 12.65 10.11 19.94"/><polyline class="cls-1" points="14.54 5.94 14.54 9.7 11.59 12.65 11.59 19.94"/><line class="cls-1" x1="8.64" y1="19.94" x2="8.64" y2="12.65"/><line class="cls-1" x1="8.64" y1="12.65" x2="8.64" y2="4.14"/><polyline class="cls-1" points="5.69 7.19 5.69 9.7 8.64 12.65"/><path class="cls-1" d="M1.76,5.06c0-.54,.44-.98,.98-.98s.98,.44,.98,.98-.44,.98-.98,.98-.98-.44-.98-.98Z"/><polyline class="cls-1" points="2.74 6.04 2.74 9.7 5.69 12.65 5.69 18.89"/><path class="cls-1" d="M7.7,3.15c0-.54,.44-.98,.98-.98s.98,.44,.98,.98-.44,.98-.98,.98-.98-.44-.98-.98Z"/><path class="cls-1" d="M4.71,6.21c0-.54,.44-.98,.98-.98s.98,.44,.98,.98-.44,.98-.98,.98-.98-.44-.98-.98Z"/><path class="cls-1" d="M13.55,4.96c0-.54,.44-.98,.98-.98s.98,.44,.98,.98-.44,.98-.98,.98-.98-.44-.98-.98Z"/><polyline class="cls-1" points="15.52 14.77 15.52 11.17 16.99 9.7 16.99 7.77"/><path class="cls-1" d="M16.05,6.83c0-.54,.44-.98,.98-.98s.98,.44,.98,.98-.44,.98-.98,.98-.98-.44-.98-.98Z"/><path class="cls-1" d="M14.54,15.75c0-.54,.44-.98,.98-.98s.98,.44,.98,.98-.44,.98-.98,.98-.98-.44-.98-.98Z"/></g></g></svg>