<svg xmlns="http://www.w3.org/2000/svg" id="_レイヤー_2" viewBox="0 0 20.23 20.23"><defs><style>.cls-1{fill:none;stroke-width:.31px;stroke:#010000}</style></defs><g id="_レイヤー1"><circle cx="10.11" cy="10.11" r="9.83" style="stroke:#010000;fill:#fff;stroke-width:.57px"/><path d="M11.59.39v10.78l-1.48 1.48v7.29m4.43-14V9.7l-2.95 2.95v7.29m-2.95 0v-7.29m0 0V4.14M5.69 7.19V9.7l2.95 2.95M1.76 5.06a.98.98 0 1 1 1.96 0 .98.98 0 0 1-1.96 0Z" class="cls-1"/><path d="M2.74 6.04V9.7l2.95 2.95v6.24M7.7 3.15a.98.98 0 1 1 1.96 0 .98.98 0 0 1-1.96 0ZM4.71 6.21a.98.98 0 1 1 1.96 0 .98.98 0 0 1-1.96 0Zm8.84-1.25a.98.98 0 1 1 1.96 0 .98.98 0 0 1-1.96 0Zm1.97 9.81v-3.6l1.47-1.47V7.77" class="cls-1"/><path d="M16.05 6.83a.98.98 0 1 1 1.96 0 .98.98 0 0 1-1.96 0Zm-1.51 8.92a.98.98 0 1 1 1.96 0 .98.98 0 0 1-1.96 0Z" class="cls-1"/></g></svg>