<?xml version="1.0" encoding="UTF-8"?><svg id="_レイヤー_2" xmlns="http://www.w3.org/2000/svg" viewBox="0 0 20.23 20.23"><defs><style>.cls-1{fill:#010000;}.cls-2{fill:none;stroke-width:.25px;}.cls-2,.cls-3{stroke:#010000;}.cls-3{fill:#fff;stroke-width:.57px;}</style></defs><g id="_レイヤー1"><g><circle class="cls-3" cx="10.11" cy="10.11" r="9.83"/><path class="cls-1" d="M2.62,5.26c0,.48,.39,.88,.88,.88s.88-.39,.88-.88-.39-.88-.88-.88-.88,.39-.88,.88"/><path class="cls-2" d="M8.06,5.91c-.7,.66-1.64,.81-2.1,.32-.46-.49-.26-1.42,.44-2.08,.7-.66,1.64-.81,2.1-.32,.46,.48,.26,1.42-.44,2.08Z"/><path class="cls-2" d="M8.2,5.75c5.97,4.36,1.92,10.05,1.92,10.05"/><path class="cls-2" d="M3.36,13.05s-2.49-1.28-.53-1.85c-.05-.36-.08-.72-.08-1.09,0-4.07,3.3-7.36,7.36-7.36s7.36,3.3,7.36,7.36c0,2.29-1.05,4.34-2.69,5.69H5.44c-.89-.74-1.61-1.68-2.08-2.75,0,0,4.19,1.76,5.59-.92"/><path class="cls-2" d="M6.8,4.54c.26-.24,.55-.35,.65-.25,.1,.11-.03,.39-.29,.63-.26,.24-.55,.35-.65,.25-.1-.11,.03-.39,.29-.63Z"/><line class="cls-2" x1="5.8" y1="7.22" x2="9.25" y2="8.19"/><line class="cls-2" x1="5.44" y1="8.19" x2="8.2" y2="10.11"/><line class="cls-2" x1="4.88" y1="9.36" x2="6.14" y2="11.35"/><path class="cls-2" d="M14.79,16.78c.76,.64,1.14,1.32,1.14,1.32"/><path class="cls-2" d="M10.11,16.78c1.39,.82,1.6,2.93,1.6,2.93"/><polyline class="cls-2" points="5.44 16.53 5.44 15.8 14.79 15.8 14.79 16.78 6.37 16.78"/><path class="cls-2" d="M6.63,17.45c0,.52-.43,.95-.95,.95s-.95-.43-.95-.95,.43-.95,.95-.95,.95,.43,.95,.95Z"/><line class="cls-2" x1="4.77" y1="17.2" x2="6.63" y2="17.45"/></g></g></svg>