<svg xmlns="http://www.w3.org/2000/svg" id="_レイヤー_2" viewBox="0 0 20.23 20.23"><defs><style>.cls-2{fill:none;stroke-width:.25px;stroke:#010000}</style></defs><g id="_レイヤー1"><circle cx="10.11" cy="10.11" r="9.83" style="stroke:#010000;fill:#fff;stroke-width:.57px"/><path d="M2.62 5.26a.88.88 0 1 0 1.76 0 .88.88 0 0 0-1.76 0" style="fill:#010000"/><path d="M8.06 5.91c-.7.66-1.64.81-2.1.32s-.26-1.42.44-2.08 1.64-.81 2.1-.32c.46.48.26 1.42-.44 2.08Z" class="cls-2"/><path d="M8.2 5.75c5.97 4.36 1.92 10.05 1.92 10.05" class="cls-2"/><path d="M3.36 13.05s-2.49-1.28-.53-1.85a7.36 7.36 0 1 1 11.95 4.6H5.44a7.5 7.5 0 0 1-2.08-2.75s4.19 1.76 5.59-.92" class="cls-2"/><path d="M6.8 4.54c.26-.24.55-.35.65-.25.1.11-.03.39-.29.63s-.55.35-.65.25c-.1-.11.03-.39.29-.63Zm-1 2.68 3.45.97m-3.81 0 2.76 1.92m-3.32-.75 1.26 1.99m8.65 5.43c.76.64 1.14 1.32 1.14 1.32m-5.82-1.32c1.39.82 1.6 2.93 1.6 2.93m-6.27-3.18v-.73h9.35v.98H6.37" class="cls-2"/><path d="M6.63 17.45c0 .52-.43.95-.95.95s-.95-.43-.95-.95.43-.95.95-.95.95.43.95.95Zm-1.86-.25 1.86.25" class="cls-2"/></g></svg>