<?xml version="1.0" encoding="UTF-8"?><svg id="_レイヤー_2" xmlns="http://www.w3.org/2000/svg" viewBox="0 0 20.08 20.08"><defs><style>.cls-1{stroke-width:.43px;}.cls-1,.cls-2{fill:none;stroke:#231815;}.cls-3{fill:#fff;stroke:#010000;stroke-width:.57px;}.cls-2{stroke-width:.57px;}</style></defs><g id="_レイヤー1"><g><path class="cls-3" d="M19.8,10.04c0,5.39-4.37,9.76-9.76,9.76S.28,15.43,.28,10.04,4.65,.28,10.04,.28s9.76,4.37,9.76,9.75Z"/><g><path class="cls-1" d="M9.71,9.13c0-.24,.15-.44,.33-.44s.33,.2,.33,.44v-.03c.12,1.93,3.32-1.02,6.22-.08,0,0-1.89-3.49-6.55-.39v0c-4.66-3.1-6.55,.39-6.55,.39,2.91-.93,6.1,2.01,6.22,.08"/><line class="cls-2" x1="1.84" y1="15.31" x2="18.24" y2="15.31"/></g></g></g></svg>