<svg xmlns="http://www.w3.org/2000/svg" viewBox="0 0 20.23 20.23"><circle cx="10.11" cy="10.11" r="9.83" style="fill:#fff;stroke:#231815;stroke-width:.57px"/><path d="M6.62 6.61c-.23 0-.54.02-.8.04q-.43.03-.87.1l-.2.76c-.12.43-.09.64-.01.79.08.14.31.17.57.18.04 0 .06 0 .07.09s-.01.09-.07.1c-.26 0-.62.04-.88.06q-.38.02-.74.08c-.06 0-.08 0-.09-.09q-.02-.1.07-.1c.19-.04.3-.15.4-.25q.19-.21.36-.86l.65-2.35c.25-.91.3-1.13.38-1.52l.53-.3s.08 0 .1.06l.73 1.66.99 2.22c.18.4.29.64.42.77.13.14.2.15.47.14q.1-.02.1.08.02.1-.08.1l-1 .07-.99.1c-.05 0-.06 0-.06-.09q-.01-.1.05-.1c.27-.04.44-.08.47-.22.04-.16-.02-.35-.19-.73l-.36-.8Zm-.65-1.46c-.2-.45-.27-.65-.37-.89l-.24.93-.34 1.28q.36-.01.78-.05l.7-.07zm3.86 10.03s-.02.06-.07.06-.06-.01-.08-.06q-.12-.46-.34-.76-.27-.32-.63-.39c-.77-.15-1.51.45-1.73 1.55-.2.98.25 1.84 1.05 2q.85.18 1.45-.48.02-.04.11.02.06.04.02.1c-.42.5-.96.81-1.75.65a2 2 0 0 1-1.61-2.43 2 2 0 0 1 2.44-1.61q.38.08.66.22c.2.1.35.16.58.18l-.09.94m5.66-6.22c1.65-.31 2.7.02 2.95.95.25.91-.19 2.04-2.66 2.72-.6.16-1.29.31-1.8.44l-1.37.39q-.1.04-.11-.09-.04-.11.05-.14c.38-.14.6-.2.68-.44s-.03-.63-.19-1.24l-.9-3.28c-.24-.87-.27-.98-.46-1.15-.17-.14-.4-.08-.86 0q-.1.03-.13-.09c-.03-.11-.01-.13.07-.15l1.4-.36c.49-.13 1.1-.35 1.67-.51 2.15-.59 2.98-.17 3.22.73.18.66-.12 1.36-1.59 2.14v.05Zm-1.79.33c.16-.03.22-.05.35-.09 1.72-.47 1.96-1.24 1.75-2.01-.22-.82-.95-1.1-1.99-.81-.33.09-.6.17-.68.4-.07.22.05.62.2 1.19l.36 1.33Zm.53 1.95c.14.5.24.91.45 1.09s.54.13.97.01c1.5-.41 1.64-1.36 1.45-2.06-.16-.58-.58-1.42-2.84-.8l-.47.14z" style="fill:#231815"/></svg>