<?xml version="1.0" encoding="UTF-8"?><svg id="_レイヤー_2" xmlns="http://www.w3.org/2000/svg" viewBox="0 0 20.23 20.23"><defs><style>.cls-1{fill:#231815;}.cls-2{fill:#fff;stroke:#231815;stroke-width:.57px;}</style></defs><g id="_レイヤー1"><g><circle class="cls-2" cx="10.11" cy="10.11" r="9.83"/><path class="cls-1" d="M6.62,6.61c-.23,0-.54,.02-.8,.04-.29,.02-.57,.06-.87,.1l-.2,.76c-.12,.43-.09,.64-.01,.79,.08,.14,.31,.17,.57,.18,.04,0,.06,0,.07,.09s-.01,.09-.07,.1c-.26,0-.62,.04-.88,.06-.25,.02-.51,.04-.74,.08-.06,0-.08,0-.09-.09,0-.08,0-.09,.07-.1,.19-.04,.3-.15,.4-.25,.13-.15,.24-.42,.36-.86l.65-2.35c.25-.91,.3-1.13,.38-1.52l.53-.3s.08,0,.1,.06c.18,.42,.33,.76,.73,1.66l.99,2.22c.18,.4,.29,.64,.42,.77,.13,.14,.2,.15,.47,.14,.08,0,.09,0,.1,.08,0,.08,0,.09-.08,.1-.3,.02-.7,.04-1,.07-.27,.02-.69,.07-.99,.1-.05,0-.06,0-.06-.09,0-.08,0-.09,.05-.1,.27-.04,.44-.08,.47-.22,.04-.16-.02-.35-.19-.73l-.36-.8Zm-.65-1.46c-.2-.45-.27-.65-.37-.89-.07,.28-.12,.47-.24,.93l-.34,1.28c.23,0,.51-.03,.78-.05,.22-.02,.5-.04,.7-.07l-.53-1.19Z"/><path class="cls-1" d="M9.83,15.18s-.02,.06-.07,.06c-.06,0-.06-.01-.08-.06-.09-.3-.19-.56-.34-.76-.17-.21-.4-.34-.63-.39-.77-.15-1.51,.45-1.73,1.55-.2,.98,.25,1.84,1.05,2,.58,.12,1.04-.04,1.45-.48,.02-.02,.04-.03,.11,.02,.04,.03,.05,.06,.02,.1-.42,.5-.96,.81-1.75,.65-1.17-.23-1.85-1.23-1.61-2.43,.24-1.17,1.26-1.85,2.44-1.61,.26,.05,.47,.13,.66,.22,.2,.1,.35,.16,.58,.18-.03,.28-.07,.65-.09,.94"/><path class="cls-1" d="M15.5,8.95c1.65-.31,2.7,.02,2.95,.95,.25,.91-.19,2.04-2.66,2.72-.6,.16-1.29,.31-1.8,.44-.44,.12-.94,.27-1.37,.39-.07,.02-.09,0-.11-.09-.02-.09-.02-.11,.05-.14,.38-.14,.6-.2,.68-.44,.08-.24-.03-.63-.19-1.24l-.9-3.28c-.24-.87-.27-.98-.46-1.15-.17-.14-.4-.08-.86,0-.07,.01-.1,0-.13-.09-.03-.11-.01-.13,.07-.15,.47-.11,.94-.23,1.4-.36,.49-.13,1.1-.35,1.67-.51,2.15-.59,2.98-.17,3.22,.73,.18,.66-.12,1.36-1.59,2.14v.05Zm-1.79,.33c.16-.03,.22-.05,.35-.09,1.72-.47,1.96-1.24,1.75-2.01-.22-.82-.95-1.1-1.99-.81-.33,.09-.6,.17-.68,.4-.07,.22,.05,.62,.2,1.19l.36,1.33Zm.53,1.95c.14,.5,.24,.91,.45,1.09,.22,.19,.54,.13,.97,.01,1.5-.41,1.64-1.36,1.45-2.06-.16-.58-.58-1.42-2.84-.8-.13,.04-.22,.06-.47,.14l.44,1.62Z"/></g></g></svg>