<?xml version="1.0" encoding="UTF-8"?><svg id="_レイヤー_2" xmlns="http://www.w3.org/2000/svg" viewBox="0 0 20.23 20.23"><defs><style>.cls-1{fill:#010000;}.cls-2{fill:#fff;stroke-width:.57px;}.cls-2,.cls-3{stroke:#010000;}.cls-3{fill:none;stroke-miterlimit:10;stroke-width:.24px;}</style></defs><g id="_レイヤー1"><g><path class="cls-2" d="M.28,10.11C.28,4.68,4.68,.28,10.11,.28s9.83,4.4,9.83,9.83-4.4,9.83-9.83,9.83S.28,15.54,.28,10.11Z"/><polyline class="cls-3" points="17.49 15.03 17.49 7.66 12.57 7.66 12.57 3.23 7.66 3.23 7.66 7.66 2.74 7.66 2.74 15.03"/><line class="cls-3" x1="1.6" y1="15.03" x2="18.63" y2="15.03"/><polyline class="cls-3" points="12.08 6.67 10.11 5.69 10.11 4.22"/><path class="cls-1" d="M9.98,12.37v-.88h-1.6v.44l1.6,.44Zm1.87-.44v-.44h-1.6v.88l1.6-.44Zm-1.6,1.95h-.27v-.94l-2.02,.79-.16-.47,1.63-.64-1.14-.41-.25-.09v-1.65l1.26-.45-2.11-.63,.11-.51,2.68,.82v-1.38h.27v1.38l2.68-.82,.11,.51-2.11,.63,1.26,.45v1.65l-1.39,.5,1.63,.64-.16,.47-2.02-.79v.94Zm1.6-2.77v-.38l-1.6-.49v.87h1.6Zm-1.87,0v-.87l-1.6,.49v.38h1.6Z"/></g></g></svg>