<svg xmlns="http://www.w3.org/2000/svg" id="_レイヤー_2" viewBox="0 0 20.23 20.23"><defs><style>.cls-3{stroke:#010000;fill:none;stroke-miterlimit:10;stroke-width:.24px}</style></defs><g id="_レイヤー1"><path d="M.28 10.11a9.83 9.83 0 1 1 19.66 0 9.83 9.83 0 0 1-19.66 0Z" style="fill:#fff;stroke-width:.57px;stroke:#010000"/><path d="M17.49 15.03V7.66h-4.92V3.23H7.66v4.43H2.74v7.37m-1.14 0h17.03" class="cls-3"/><path d="m12.08 6.67-1.97-.98V4.22" class="cls-3"/><path d="M9.98 12.37v-.88h-1.6v.44zm1.87-.44v-.44h-1.6v.88zm-1.6 1.95h-.27v-.94l-2.02.79-.16-.47 1.63-.64-1.14-.41-.25-.09v-1.65l1.26-.45-2.11-.63.11-.51 2.68.82V8.32h.27V9.7l2.68-.82.11.51-2.11.63 1.26.45v1.65l-1.39.5 1.63.64-.16.47-2.02-.79zm1.6-2.77v-.38l-1.6-.49v.87zm-1.87 0v-.87l-1.6.49v.38z" style="fill:#010000"/></g></svg>