<svg xmlns="http://www.w3.org/2000/svg" id="_レイヤー_2" viewBox="0 0 20.23 20.23"><defs><style>.cls-2{fill:none;stroke:#010000;stroke-width:.31px}</style></defs><g id="_レイヤー1"><path d="M19.94 10.11a9.83 9.83 0 1 1-19.66 0 9.83 9.83 0 0 1 19.66 0Z" style="stroke:#010000;fill:#fff;stroke-width:.57px"/><path d="M12.62 1.84v8.24l4.54 6.86H3.06l4.55-6.86V1.84" class="cls-2"/><path d="M9.38 9.62a.74.74 0 1 1 1.48 0 .74.74 0 1 1-1.48 0ZM7.61 4.87s1.19-.86 2.51 0 2.51 0 2.51 0m-3.01 7.8a.5.5 0 1 1 .98 0 .5.5 0 0 1-.98 0Z" class="cls-2"/><path d="M9.87 15.22q.02-.23.25-.25c.23-.02.25.11.25.25s-.11.25-.25.25-.25-.11-.25-.25Z" style="stroke-width:.21px;fill:none;stroke:#010000"/></g></svg>