<?xml version="1.0" encoding="UTF-8"?><svg id="_レイヤー_2" xmlns="http://www.w3.org/2000/svg" viewBox="0 0 20.23 20.23"><defs><style>.cls-1{stroke-width:.21px;}.cls-1,.cls-2{fill:none;}.cls-1,.cls-2,.cls-3{stroke:#010000;}.cls-2{stroke-width:.31px;}.cls-3{fill:#fff;stroke-width:.57px;}</style></defs><g id="_レイヤー1"><g><path class="cls-3" d="M19.94,10.11c0,5.43-4.4,9.83-9.83,9.83S.28,15.54,.28,10.11,4.69,.28,10.11,.28s9.83,4.4,9.83,9.83Z"/><polyline class="cls-2" points="12.62 1.84 12.62 10.08 17.16 16.94 3.06 16.94 7.61 10.08 7.61 1.84"/><path class="cls-2" d="M9.38,9.62c0-.41,.33-.74,.74-.74s.74,.33,.74,.74-.33,.74-.74,.74-.74-.33-.74-.74Z"/><path class="cls-2" d="M7.61,4.87s1.19-.86,2.51,0c1.32,.86,2.51,0,2.51,0"/><path class="cls-2" d="M9.62,12.67c0-.27,.22-.49,.49-.49s.49,.22,.49,.49-.22,.49-.49,.49-.49-.22-.49-.49Z"/><path class="cls-1" d="M9.87,15.22c0-.14,.11-.25,.25-.25s.25,.11,.25,.25-.11,.25-.25,.25-.25-.11-.25-.25Z"/></g></g></svg>