<?xml version="1.0" encoding="UTF-8"?><svg id="_レイヤー_2" xmlns="http://www.w3.org/2000/svg" viewBox="0 0 20.23 20.23"><defs><style>.cls-1{fill:#231815;}.cls-2{fill:#fff;stroke-width:.57px;}.cls-2,.cls-3{stroke:#231815;}.cls-3{fill:none;stroke-width:.52px;}</style></defs><g id="_レイヤー1"><g><circle class="cls-2" cx="10.11" cy="10.11" r="9.83" transform="translate(-2.24 2.91) rotate(-14.77)"/><path class="cls-1" d="M8.89,10.11c0-.68,.55-1.23,1.23-1.23s1.23,.55,1.23,1.23-.55,1.23-1.23,1.23-1.23-.55-1.23-1.23"/><path class="cls-1" d="M5.71,13.29c0-.68,.55-1.23,1.23-1.23s1.23,.55,1.23,1.23-.55,1.23-1.23,1.23-1.23-.55-1.23-1.23"/><path class="cls-1" d="M5.69,6.92c0-.68,.55-1.23,1.23-1.23s1.23,.55,1.23,1.23-.55,1.23-1.23,1.23-1.23-.55-1.23-1.23"/><path class="cls-1" d="M12.08,13.31c0-.68,.55-1.23,1.23-1.23s1.23,.55,1.23,1.23-.55,1.23-1.23,1.23-1.23-.55-1.23-1.23"/><path class="cls-1" d="M12.08,6.92c0-.68,.55-1.23,1.23-1.23s1.23,.55,1.23,1.23-.55,1.23-1.23,1.23-1.23-.55-1.23-1.23"/><rect class="cls-3" x="3.72" y="3.72" width="12.78" height="12.78"/></g></g></svg>