<svg xmlns="http://www.w3.org/2000/svg" viewBox="0 0 20.23 20.23"><circle cx="10.11" cy="10.11" r="9.83" style="fill:#fff;stroke-width:.57px;stroke:#231815" transform="rotate(-14.77 10.1 10.1)"/><path d="M8.89 10.11a1.23 1.23 0 1 1 2.46 0 1.23 1.23 0 0 1-2.46 0m-3.18 3.18a1.23 1.23 0 1 1 2.46 0 1.23 1.23 0 0 1-2.46 0m-.02-6.37a1.23 1.23 0 1 1 2.46 0 1.23 1.23 0 0 1-2.46 0m6.39 6.39a1.23 1.23 0 1 1 2.46 0 1.23 1.23 0 0 1-2.46 0m0-6.39a1.23 1.23 0 1 1 2.46 0 1.23 1.23 0 0 1-2.46 0" style="fill:#231815"/><path d="M3.72 3.72H16.5V16.5H3.72z" style="stroke:#231815;fill:none;stroke-width:.52px"/></svg>