<svg xmlns="http://www.w3.org/2000/svg" id="_レイヤー_2" viewBox="0 0 20.23 20.23"><defs><style>.cls-2{stroke:#010000;stroke-miterlimit:10;fill:none;stroke-width:.31px}</style></defs><g id="_レイヤー1"><circle cx="10.11" cy="10.11" r="9.83" style="fill:#fff;stroke-width:.57px;stroke:#010000;stroke-miterlimit:10" transform="rotate(-88.57 10.11 10.11)"/><path d="M10.11 2.25 13.8 5.2H6.43z" class="cls-2"/><path d="M10.78 2.79c2.67.36 4.74 2.83 4.74 5.82 0 7.82-6.55 9.86-6.55 9.86 0-2.38-.53-1.76-1.62-2.94-2.95-3.21-2.63-6.92-2.63-6.92 0-2.99 2.06-5.46 4.72-5.82m3.38 6.34H7.41" class="cls-2"/><path d="M11.34 9.13c.92 1.55-1.02 2.89-1.76 2.33-.46-.35-.49-.79-.29-1.06.21-.3.08-.77-.65-1.26M2.5 11.1a1.23 1.23 0 1 1 2.46 0 1.23 1.23 0 0 1-2.46 0Zm4.17-3.94a1.23 1.23 0 1 1 2.46 0 1.23 1.23 0 0 1-2.46 0Zm8.84 1.97L8.84 13.5m1.27-.83-5.4-3.54M5.9 13.5h8.56m-.98 1.62h-6.5m6.33-8.94-1.97 1.97m0-1.97 1.97 1.97m1.96 2.95a1.23 1.23 0 1 1 2.46 0 1.23 1.23 0 0 1-2.46 0Z" class="cls-2"/></g></svg>