<?xml version="1.0" encoding="UTF-8"?><svg id="_レイヤー_2" xmlns="http://www.w3.org/2000/svg" viewBox="0 0 20.23 20.23"><defs><style>.cls-1{fill:#fff;stroke-width:.57px;}.cls-1,.cls-2{stroke:#010000;stroke-miterlimit:10;}.cls-2{fill:none;stroke-width:.31px;}</style></defs><g id="_レイヤー1"><g><circle class="cls-1" cx="10.11" cy="10.11" r="9.83" transform="translate(-.25 19.97) rotate(-88.57)"/><polygon class="cls-2" points="10.11 2.25 13.8 5.2 6.43 5.2 10.11 2.25"/><path class="cls-2" d="M10.78,2.79c2.67,.36,4.74,2.83,4.74,5.82,0,7.82-6.55,9.86-6.55,9.86,0-2.38-.53-1.76-1.62-2.94-2.95-3.21-2.63-6.92-2.63-6.92,0-2.99,2.06-5.46,4.72-5.82"/><line class="cls-2" x1="12.82" y1="9.13" x2="7.41" y2="9.13"/><path class="cls-2" d="M11.34,9.13c.92,1.55-1.02,2.89-1.76,2.33-.46-.35-.49-.79-.29-1.06,.21-.3,.08-.77-.65-1.26"/><path class="cls-2" d="M2.5,11.1c0-.68,.55-1.23,1.23-1.23s1.23,.55,1.23,1.23-.55,1.23-1.23,1.23-1.23-.55-1.23-1.23Z"/><path class="cls-2" d="M6.67,7.16c0-.68,.55-1.23,1.23-1.23s1.23,.55,1.23,1.23-.55,1.23-1.23,1.23-1.23-.55-1.23-1.23Z"/><line class="cls-2" x1="15.51" y1="9.13" x2="8.84" y2="13.5"/><line class="cls-2" x1="10.11" y1="12.67" x2="4.71" y2="9.13"/><line class="cls-2" x1="5.9" y1="13.5" x2="14.46" y2="13.5"/><line class="cls-2" x1="13.48" y1="15.12" x2="6.98" y2="15.12"/><line class="cls-2" x1="13.31" y1="6.18" x2="11.34" y2="8.15"/><line class="cls-2" x1="11.34" y1="6.18" x2="13.31" y2="8.15"/><path class="cls-2" d="M15.27,11.1c0-.68,.55-1.23,1.23-1.23s1.23,.55,1.23,1.23-.55,1.23-1.23,1.23-1.23-.55-1.23-1.23Z"/></g></g></svg>