<svg xmlns="http://www.w3.org/2000/svg" id="_レイヤー_2" viewBox="0 0 20.23 20.23"><defs><style>.cls-1{fill:none;stroke-width:.31px;stroke:#010000}</style></defs><g id="_レイヤー1"><path d="M.28 10.11a9.84 9.84 0 1 1 19.67.01 9.84 9.84 0 0 1-19.67-.01Z" style="stroke:#010000;fill:#fff;stroke-width:.57px"/><path d="M10.11 2.8v14.96m0-14.96 5.1 10.69-1.1 4.27H6.12l-1.1-4.27z" class="cls-1"/><path d="m13.96 10.88 3.31-5.38-3.16 12.26m-9.09-4.27 5.09 4.27m0 0 5.1-4.27m-.61 2.38-4.49 1.89m-4.48-1.89 4.48 1.89m-3.85-6.88-.92-1.5-1.52-.54-2.3 3.21 2.65-1.85m-.35-1.36 2.3 8.92" class="cls-1"/></g></svg>