<?xml version="1.0" encoding="UTF-8"?><svg id="_レイヤー_2" xmlns="http://www.w3.org/2000/svg" viewBox="0 0 20.23 20.23"><defs><style>.cls-1{fill:none;stroke-width:.31px;}.cls-1,.cls-2{stroke:#010000;}.cls-2{fill:#fff;stroke-width:.57px;}</style></defs><g id="_レイヤー1"><g><path class="cls-2" d="M.28,10.11C.28,4.69,4.68,.28,10.11,.28s9.83,4.4,9.83,9.83-4.4,9.83-9.83,9.83S.28,15.54,.28,10.11Z"/><line class="cls-1" x1="10.11" y1="2.8" x2="10.11" y2="17.76"/><polygon class="cls-1" points="10.11 2.8 15.21 13.49 14.11 17.76 6.12 17.76 5.02 13.49 10.11 2.8"/><polyline class="cls-1" points="13.96 10.88 17.27 5.5 14.11 17.76"/><line class="cls-1" x1="5.02" y1="13.49" x2="10.11" y2="17.76"/><line class="cls-1" x1="10.11" y1="17.76" x2="15.21" y2="13.49"/><line class="cls-1" x1="14.6" y1="15.87" x2="10.11" y2="17.76"/><line class="cls-1" x1="5.63" y1="15.87" x2="10.11" y2="17.76"/><polyline class="cls-1" points="6.26 10.88 5.34 9.38 3.82 8.84 1.52 12.05 4.17 10.2"/><line class="cls-1" x1="3.82" y1="8.84" x2="6.12" y2="17.76"/></g></g></svg>