<?xml version="1.0" encoding="UTF-8"?><svg id="_レイヤー_2" xmlns="http://www.w3.org/2000/svg" viewBox="0 0 20.23 20.23"><defs><style>.cls-1{fill:none;stroke-width:.31px;}.cls-1,.cls-2{stroke:#010000;}.cls-2{fill:#fff;stroke-width:.57px;}</style></defs><g id="_レイヤー1"><g><path class="cls-2" d="M.28,10.11C.28,4.68,4.68,.28,10.11,.28s9.83,4.4,9.83,9.83-4.4,9.83-9.83,9.83S.28,15.54,.28,10.11Z"/><g><path class="cls-1" d="M2.52,10.09c3.98-4.98,8.03-5.07,12.16,0l3.04-3.77v7.54l-3.04-3.77c-4.13,5.07-8.18,4.98-12.16,0Z"/><path class="cls-1" d="M6.67,8.13c.69,1.3,.69,2.61,0,3.91"/><path class="cls-1" d="M4.5,9.2c0-.24,.19-.43,.43-.43s.43,.19,.43,.43-.19,.43-.43,.43-.43-.19-.43-.43Z"/><polyline class="cls-1" points="7.16 9.63 8.54 8.77 8.54 11.46 7.16 10.6"/><polyline class="cls-1" points="8.54 6.32 8.54 4.47 13.78 6.79 12.8 8.13"/><polyline class="cls-1" points="7.85 13.86 8.99 15.08 7.16 15.81 6.67 13.67"/><polyline class="cls-1" points="12.8 12.04 13.78 12.94 10.96 14.74 10.11 13.61"/></g></g></g></svg>