<svg xmlns="http://www.w3.org/2000/svg" id="_レイヤー_2" viewBox="0 0 20.23 20.23"><defs><style>.cls-1{fill:none;stroke-width:.31px;stroke:#010000}</style></defs><g id="_レイヤー1"><path d="M.28 10.11a9.83 9.83 0 1 1 19.66 0 9.83 9.83 0 0 1-19.66 0Z" style="stroke:#010000;fill:#fff;stroke-width:.57px"/><path d="M2.52 10.09c3.98-4.98 8.03-5.07 12.16 0l3.04-3.77v7.54l-3.04-3.77c-4.13 5.07-8.18 4.98-12.16 0Z" class="cls-1"/><path d="M6.67 8.13q1.03 1.96 0 3.91M4.5 9.2c0-.24.19-.43.43-.43s.43.19.43.43-.19.43-.43.43-.43-.19-.43-.43Z" class="cls-1"/><path d="m7.16 9.63 1.38-.86v2.69l-1.38-.86m1.38-4.28V4.47l5.24 2.32-.98 1.34m-4.95 5.73 1.14 1.22-1.83.73-.49-2.14m6.13-1.63.98.9-2.82 1.8-.85-1.13" class="cls-1"/></g></svg>