<?xml version="1.0" encoding="UTF-8"?><svg id="_レイヤー_2" xmlns="http://www.w3.org/2000/svg" viewBox="0 0 20.23 20.23"><defs><style>.cls-1,.cls-2,.cls-3{fill:none;}.cls-1,.cls-2,.cls-3,.cls-4{stroke:#231815;stroke-miterlimit:10;}.cls-1,.cls-4{stroke-width:.28px;}.cls-5{fill:#fff;}.cls-2{stroke-width:.46px;}.cls-3{stroke-width:.57px;}.cls-4{fill:#231815;}</style></defs><g id="_レイヤー1"><g><path class="cls-5" d="M19.94,10.11c0,5.43-4.4,9.83-9.83,9.83S.28,15.54,.28,10.11,4.69,.28,10.11,.28s9.83,4.4,9.83,9.83"/><path class="cls-3" d="M19.94,10.11c0,5.43-4.4,9.83-9.83,9.83S.28,15.54,.28,10.11,4.69,.28,10.11,.28s9.83,4.4,9.83,9.83Z"/><path class="cls-4" d="M7.86,12.19c.73,.73,.73,1.9,0,2.63-.73,.73-1.9,.73-2.63,0-.73-.73-.73-1.9,0-2.63,.73-.73,1.9-.73,2.63,0Z"/><path class="cls-4" d="M14.72,5.34c.73,.73,.73,1.9,0,2.63s-1.9,.73-2.63,0c-.73-.73-.73-1.9,0-2.63,.73-.73,1.9-.73,2.63,0Z"/><path class="cls-5" d="M7.86,5.34c.73,.73,.73,1.9,0,2.63-.73,.73-1.9,.73-2.63,0-.73-.73-.73-1.9,0-2.63,.73-.73,1.9-.73,2.63,0"/><path class="cls-1" d="M7.86,5.34c.73,.73,.73,1.9,0,2.63-.73,.73-1.9,.73-2.63,0-.73-.73-.73-1.9,0-2.63,.73-.73,1.9-.73,2.63,0Z"/><path class="cls-5" d="M14.67,12.15c.73,.73,.73,1.9,0,2.63-.73,.73-1.9,.73-2.63,0-.73-.73-.73-1.9,0-2.63,.73-.73,1.9-.73,2.63,0"/><path class="cls-1" d="M14.67,12.15c.73,.73,.73,1.9,0,2.63-.73,.73-1.9,.73-2.63,0-.73-.73-.73-1.9,0-2.63,.73-.73,1.9-.73,2.63,0Z"/><line class="cls-2" x1="9.98" y1="3.49" x2="9.98" y2="16.74"/><line class="cls-2" x1="3.35" y1="10.05" x2="16.6" y2="10.05"/></g></g></svg>