<svg xmlns="http://www.w3.org/2000/svg" id="_レイヤー_2" viewBox="0 0 20.23 20.23"><defs><style>.cls-1{fill:none;stroke:#231815;stroke-miterlimit:10;stroke-width:.28px}.cls-5{fill:#fff}</style></defs><g id="_レイヤー1"><path d="M19.94 10.11a9.83 9.83 0 1 1-19.66 0 9.83 9.83 0 0 1 19.66 0" class="cls-5"/><path d="M19.94 10.11a9.83 9.83 0 1 1-19.66 0 9.83 9.83 0 0 1 19.66 0Z" style="fill:none;stroke:#231815;stroke-miterlimit:10;stroke-width:.57px"/><path d="M7.86 12.19c.73.73.73 1.9 0 2.63s-1.9.73-2.63 0a1.85 1.85 0 0 1 0-2.63c.73-.73 1.9-.73 2.63 0Zm6.86-6.85c.73.73.73 1.9 0 2.63s-1.9.73-2.63 0a1.85 1.85 0 0 1 0-2.63c.73-.73 1.9-.73 2.63 0Z" style="stroke:#231815;stroke-miterlimit:10;stroke-width:.28px;fill:#231815"/><path d="M7.86 5.34c.73.73.73 1.9 0 2.63s-1.9.73-2.63 0a1.85 1.85 0 0 1 0-2.63c.73-.73 1.9-.73 2.63 0" class="cls-5"/><path d="M7.86 5.34c.73.73.73 1.9 0 2.63s-1.9.73-2.63 0a1.85 1.85 0 0 1 0-2.63c.73-.73 1.9-.73 2.63 0Z" class="cls-1"/><path d="M14.67 12.15c.73.73.73 1.9 0 2.63s-1.9.73-2.63 0a1.85 1.85 0 0 1 0-2.63c.73-.73 1.9-.73 2.63 0" class="cls-5"/><path d="M14.67 12.15c.73.73.73 1.9 0 2.63s-1.9.73-2.63 0a1.85 1.85 0 0 1 0-2.63c.73-.73 1.9-.73 2.63 0Z" class="cls-1"/><path d="M9.98 3.49v13.25m-6.63-6.69H16.6" style="fill:none;stroke:#231815;stroke-miterlimit:10;stroke-width:.46px"/></g></svg>