<svg xmlns="http://www.w3.org/2000/svg" id="_レイヤー_2" viewBox="0 0 20.23 20.23"><defs><style>.cls-1{fill:#010000}</style></defs><g id="_レイヤー1"><circle cx="10.11" cy="10.11" r="9.83" style="fill:#fff;stroke:#010000;stroke-width:.57px"/><path d="M10.11 2.12a8 8 0 1 0 0 15.99 8 8 0 0 0 0-15.99m0 5.66a2.33 2.33 0 1 1 0 4.66 2.33 2.33 0 0 1 0-4.66m0 10.07a7.74 7.74 0 0 1-7.73-7.61h5.16c.07 1.36 1.19 2.46 2.57 2.46s2.5-1.09 2.57-2.46h5.16a7.74 7.74 0 0 1-7.73 7.61" class="cls-1"/><path d="M10.11 11.71c.88 0 1.6-.72 1.6-1.6s-.72-1.6-1.6-1.6-1.6.72-1.6 1.6.72 1.6 1.6 1.6m0-2.95a1.35 1.35 0 1 1 0 2.7 1.35 1.35 0 0 1 0-2.7" class="cls-1"/></g></svg>