<?xml version="1.0" encoding="UTF-8"?><svg id="_レイヤー_2" xmlns="http://www.w3.org/2000/svg" viewBox="0 0 20.23 20.23"><defs><style>.cls-1{fill:#010000;}.cls-2{fill:#fff;stroke:#010000;stroke-width:.57px;}</style></defs><g id="_レイヤー1"><g><circle class="cls-2" cx="10.11" cy="10.11" r="9.83"/><g><path class="cls-1" d="M10.11,2.12c-4.41,0-7.99,3.58-7.99,7.99s3.58,7.99,7.99,7.99,7.99-3.58,7.99-7.99-3.58-7.99-7.99-7.99Zm0,5.66c1.29,0,2.33,1.05,2.33,2.33s-1.05,2.33-2.33,2.33-2.33-1.05-2.33-2.33,1.05-2.33,2.33-2.33Zm0,10.07c-4.22,0-7.66-3.4-7.73-7.61H7.54c.07,1.36,1.19,2.46,2.57,2.46s2.5-1.09,2.57-2.46h5.16c-.07,4.21-3.51,7.61-7.73,7.61Z"/><path class="cls-1" d="M10.11,11.71c.88,0,1.6-.72,1.6-1.6s-.72-1.6-1.6-1.6-1.6,.72-1.6,1.6,.72,1.6,1.6,1.6Zm0-2.95c.74,0,1.35,.6,1.35,1.35s-.6,1.35-1.35,1.35-1.35-.6-1.35-1.35,.6-1.35,1.35-1.35Z"/></g></g></g></svg>