<?xml version="1.0" encoding="UTF-8"?><svg id="_レイヤー_2" xmlns="http://www.w3.org/2000/svg" viewBox="0 0 20.23 20.23"><defs><style>.cls-1{fill:none;stroke-width:.25px;}.cls-1,.cls-2{stroke:#010000;}.cls-2{fill:#fff;stroke-width:.57px;}</style></defs><g id="_レイヤー1"><g><circle class="cls-2" cx="10.11" cy="10.11" r="9.83" transform="translate(-1.82 18) rotate(-78.44)"/><polygon class="cls-1" points="17.76 16.3 2.47 16.3 4.22 13.02 16.01 13.02 17.76 16.3"/><rect class="cls-1" x="4.18" y="4.31" width="11.87" height="7.9"/><line class="cls-1" x1="17" y1="14.87" x2="3.23" y2="14.87"/><line class="cls-1" x1="16.39" y1="13.97" x2="3.84" y2="13.97"/><line class="cls-1" x1="13.06" y1="13.02" x2="13.56" y2="14.87"/><line class="cls-1" x1="7.16" y1="13.02" x2="6.67" y2="14.87"/><line class="cls-1" x1="8.64" y1="13.02" x2="8.39" y2="14.87"/><line class="cls-1" x1="5.69" y1="13.02" x2="4.95" y2="14.87"/><line class="cls-1" x1="11.59" y1="13.02" x2="11.84" y2="14.87"/><line class="cls-1" x1="14.54" y1="13.02" x2="15.28" y2="14.87"/><line class="cls-1" x1="10.11" y1="13.02" x2="10.11" y2="14.87"/><line class="cls-1" x1="8.63" y1="13.02" x2="8.19" y2="16.3"/><line class="cls-1" x1="11.6" y1="13.02" x2="12.04" y2="16.3"/><line class="cls-1" x1="8.27" y1="15.6" x2="11.95" y2="15.6"/></g></g></svg>