<svg xmlns="http://www.w3.org/2000/svg" viewBox="0 0 20.23 20.23"><circle cx="10.11" cy="10.11" r="9.83" style="stroke:#010000;fill:#fff;stroke-width:.57px" transform="rotate(-78.44 10.12 10.11)"/><path d="M17.76 16.3H2.47l1.75-3.28h11.79zM4.18 4.31h11.87v7.9H4.18zM17 14.87H3.23m13.16-.9H3.84m9.22-.95.5 1.85m-6.4-1.85-.49 1.85m1.97-1.85-.25 1.85m-2.7-1.85-.74 1.85m6.64-1.85.25 1.85m2.7-1.85.74 1.85m-5.17-1.85v1.85m-1.48-1.85-.44 3.28m3.41-3.28.44 3.28m-3.77-.7h3.68" style="fill:none;stroke-width:.25px;stroke:#010000"/></svg>