<?xml version="1.0" encoding="UTF-8"?><svg id="_レイヤー_2" xmlns="http://www.w3.org/2000/svg" viewBox="0 0 20.23 20.23"><defs><style>.cls-1{fill:#010000;}.cls-2{fill:#fff;stroke:#010000;stroke-width:.57px;}</style></defs><g id="_レイヤー1"><g><circle class="cls-2" cx="10.11" cy="10.11" r="9.83"/><g><path class="cls-1" d="M7.46,16.84h0s-.04,0-.04,0v.88h5.82v-.88h-.04c2.08-.92,3.55-2.83,3.77-5.07H3.69c.22,2.25,1.69,4.16,3.77,5.07Z"/><path class="cls-1" d="M16.98,10.89h-1.68V5.95c.18-.01,.36-.01,.54-.01v-.45c-.18,0-.36-.01-.54-.01v-.3c.18-.01,.36-.01,.54-.01v-.51c-.18,0-.36,0-.54-.01v-.11h-2.67v.07c-2.6-.04-5.21-.07-7.8-.11v1.61c2.6-.05,5.21-.08,7.8-.12v4.91H3.68c-.01,.11-.01,.21-.01,.31,0,.12,0,.24,.01,.36h13.3c.01-.12,.01-.24,.01-.36,0-.11,0-.21-.01-.31Zm-1.86-6.17v6.17h-.33V4.72h.33Zm-.5,0v6.17h-.33V4.72h.33Zm-.5,0v6.17h-.33V4.72h.33Zm-.51,0v6.17h-.33V4.72h.33Zm-6.67,.62c1.88-.04,3.78-.07,5.68-.11v.21c-1.9-.04-3.79-.06-5.68-.1Zm5.85,.65v-1.27h.33v6.17h-.33V5.99Z"/></g></g></g></svg>