<svg xmlns="http://www.w3.org/2000/svg" viewBox="0 0 20.23 20.23"><circle cx="10.11" cy="10.11" r="9.83" style="fill:#fff;stroke:#010000;stroke-width:.57px"/><path d="M7.46 16.84h-.04v.88h5.82v-.88h-.04a6.3 6.3 0 0 0 3.77-5.07H3.69a6.2 6.2 0 0 0 3.77 5.07m9.52-5.95H15.3V5.95l.54-.01v-.45l-.54-.01v-.3l.54-.01v-.51l-.54-.01v-.11h-2.67v.07l-7.8-.11v1.61l7.8-.12v4.91H3.68l-.01.31.01.36h13.3l.01-.36-.01-.31Zm-1.86-6.17v6.17h-.33V4.72zm-.5 0v6.17h-.33V4.72zm-.5 0v6.17h-.33V4.72zm-.51 0v6.17h-.33V4.72zm-6.67.62 5.68-.11v.21zm5.85.65V4.72h.33v6.17h-.33z" style="fill:#010000"/></svg>