<svg xmlns="http://www.w3.org/2000/svg" id="_レイヤー_2" viewBox="0 0 20.23 20.23"><defs><style>.cls-2{fill:none;stroke-width:.31px;stroke:#010000}</style></defs><g id="_レイヤー1"><path d="M.28 10.11a9.84 9.84 0 1 1 19.67.01 9.84 9.84 0 0 1-19.67-.01Z" style="stroke:#010000;fill:#fff;stroke-width:.57px"/><path d="M11.01 15.8H9.23S8.09 12.9 7.7 7.51c0 0-.49-4 2.43-5.47 2.91 1.47 2.43 5.47 2.43 5.47-.4 5.4-1.53 8.29-1.53 8.29Z" class="cls-2"/><path d="m11.4 14.56 2.81 1.13.28-1.12-2.26-4.14m-2.12-.07v4.42m-.98-8.84a.98.98 0 1 1 1.96 0 .98.98 0 0 1-1.96 0Zm.37 2.95c0-.34.27-.61.61-.61s.61.27.61.61-.28.61-.61.61-.61-.27-.61-.61Z" class="cls-2"/><path d="M10.11 19.07s2.09-1.9 0-2.46c-2.09.56 0 2.46 0 2.46" style="fill:#010000"/><path d="M10.11 19.07s2.09-1.9 0-2.46c-2.09.56 0 2.46 0 2.46Zm-1.28-4.51-2.81 1.13-.28-1.12L8 10.43" class="cls-2"/></g></svg>