<?xml version="1.0" encoding="UTF-8"?><svg id="_レイヤー_2" xmlns="http://www.w3.org/2000/svg" viewBox="0 0 20.23 20.23"><defs><style>.cls-1{fill:#010000;}.cls-2{fill:none;stroke-width:.31px;}.cls-2,.cls-3{stroke:#010000;}.cls-3{fill:#fff;stroke-width:.57px;}</style></defs><g id="_レイヤー1"><g><path class="cls-3" d="M.28,10.11C.28,4.69,4.68,.28,10.11,.28s9.83,4.4,9.83,9.83-4.4,9.83-9.83,9.83S.28,15.54,.28,10.11Z"/><path class="cls-2" d="M11.01,15.8h-1.78s-1.14-2.9-1.53-8.29c0,0-.49-4,2.43-5.47,2.91,1.47,2.43,5.47,2.43,5.47-.4,5.4-1.53,8.29-1.53,8.29Z"/><polyline class="cls-2" points="11.4 14.56 14.21 15.69 14.49 14.57 12.23 10.43"/><line class="cls-2" x1="10.11" y1="10.36" x2="10.11" y2="14.78"/><path class="cls-2" d="M9.13,5.94c0-.54,.44-.98,.98-.98s.98,.44,.98,.98-.44,.98-.98,.98-.98-.44-.98-.98Z"/><path class="cls-2" d="M9.5,8.89c0-.34,.27-.61,.61-.61s.61,.27,.61,.61-.28,.61-.61,.61-.61-.27-.61-.61Z"/><path class="cls-1" d="M10.11,19.07s2.09-1.9,0-2.46c-2.09,.56,0,2.46,0,2.46"/><path class="cls-2" d="M10.11,19.07s2.09-1.9,0-2.46c-2.09,.56,0,2.46,0,2.46Z"/><polyline class="cls-2" points="8.83 14.56 6.02 15.69 5.74 14.57 8 10.43"/></g></g></svg>