<?xml version="1.0" encoding="UTF-8"?><svg id="_レイヤー_2" xmlns="http://www.w3.org/2000/svg" viewBox="0 0 20.23 20.23"><defs><style>.cls-1{fill:#fff;stroke-width:.57px;}.cls-1,.cls-2{stroke:#231815;}.cls-2{fill:none;stroke-width:.52px;}</style></defs><g id="_レイヤー1"><g><circle class="cls-1" cx="10.11" cy="10.11" r="9.83" transform="translate(-1.72 18.14) rotate(-79.14)"/><path class="cls-2" d="M15.77,11.59c0,3.12-2.53,5.65-5.65,5.65s-5.65-2.53-5.65-5.65,2.53-5.65,5.65-5.65,5.65,2.53,5.65,5.65Z"/><rect class="cls-2" x="6.98" y="1.42" width="6.27" height="4.06"/><line class="cls-2" x1="6.98" y1="3.21" x2="13.25" y2="3.21"/><polyline class="cls-2" points="18.26 15.6 15.99 15.6 15.99 7.58 18.8 7.58 18.8 14.7"/><polyline class="cls-2" points="6.13 15.6 2.06 15.6 2.06 7.58 6.13 7.58"/><rect class="cls-2" x="15.05" y="5.59" width="1.76" height="1.99"/><line class="cls-2" x1="15.99" y1="15.6" x2="14.1" y2="15.6"/><line class="cls-2" x1="15.01" y1="7.58" x2="14.1" y2="7.58"/><circle class="cls-2" cx="10.11" cy="11.59" r="4.5"/></g></g></svg>