<svg xmlns="http://www.w3.org/2000/svg" id="_レイヤー_2" viewBox="0 0 20.23 20.23"><defs><style>.cls-1{fill:#010000}.cls-3{stroke:#010000;fill:none;stroke-miterlimit:10;stroke-width:.31px}</style></defs><g id="_レイヤー1"><circle cx="10.11" cy="10.11" r="9.83" style="fill:#fff;stroke-width:.57px;stroke:#010000" transform="rotate(-54.84 10.12 10.12)"/><path d="M10.11 8.97v8.92m0-.13C5.98 17 4.48 15.5 4.48 15.5L3.35 6.25s1.8 1.8 6.77 2.72c4.96-.91 6.77-2.72 6.77-2.72l-1.14 9.25s-1.5 1.5-5.63 2.26Z" class="cls-3"/><path d="M8.03 4.67a2.09 2.09 0 1 1 4.18 0 2.09 2.09 0 0 1-4.18 0M5.18 9.99c.1.68-.48 1.34-1.3 1.45-.82.12-1.18-2.36-.36-2.48s1.56.34 1.66 1.03m9.87 0c-.1.68.48 1.34 1.3 1.45.82.12 1.18-2.36.36-2.48s-1.56.34-1.66 1.03M13.37 8.2c0-.65-.82-1.17-1.83-1.17H8.67c-1 0-1.83.53-1.83 1.17l3.26.77zm-4.56 4.26q.43.21.85.14V9.57q-.4.04-.83-.15z" class="cls-1"/><path d="M9.35 16.78c-2.03-.26-3.04-.92-4.17-1.61l-.23-1.99c1.41.57 2.64 1.15 4.39 1.22zm-1.07-5.1a10 10 0 0 1-3.71-1.38l-.24-2.2c1.45.77 2.68 1.09 3.95 1.46zm-.27.33.03 1.86m.75-.93.05 1m-1.71-2.16.05 1.69m-.91-2.02.07 1.78m-1-2.11.15 1.77m10-4.9-.19 2.87m-.86-2.41-.1 2.86M13.3 8.88v2.8m-1.1-2.49v2.61m-.99-2.32.04 2.58m4.3-.75a8.5 8.5 0 0 1-4.36 1.32m4.14-.43-.15 1.98m-.8-1.49-.05 1.8m-.96-1.6v2.09m-1.01-1.8v2.16m-1.13-2.1-.01 2.31" class="cls-3"/><path d="M15.24 15.34c-1.32.87-3 1.37-4.32 1.58v-.82c1.42-.23 3.04-.76 4.37-1.52l-.06.77Z" class="cls-1"/></g></svg>