<?xml version="1.0" encoding="UTF-8"?><svg id="_レイヤー_2" xmlns="http://www.w3.org/2000/svg" viewBox="0 0 20.23 20.23"><defs><style>.cls-1{fill:#010000;}.cls-2{fill:#fff;stroke-width:.57px;}.cls-2,.cls-3{stroke:#010000;}.cls-3{fill:none;stroke-miterlimit:10;stroke-width:.31px;}</style></defs><g id="_レイヤー1"><g><circle class="cls-2" cx="10.11" cy="10.11" r="9.83" transform="translate(-3.98 12.56) rotate(-54.84)"/><line class="cls-3" x1="10.11" y1="8.97" x2="10.11" y2="17.89"/><path class="cls-3" d="M10.11,17.76c-4.13-.76-5.63-2.26-5.63-2.26L3.35,6.25s1.8,1.8,6.77,2.72c4.96-.91,6.77-2.72,6.77-2.72l-1.14,9.25s-1.5,1.5-5.63,2.26Z"/><path class="cls-1" d="M8.03,4.67c0-1.15,.93-2.09,2.09-2.09s2.09,.93,2.09,2.09-.93,2.09-2.09,2.09-2.09-.93-2.09-2.09"/><path class="cls-1" d="M5.18,9.99c.1,.68-.48,1.34-1.3,1.45-.82,.12-1.18-2.36-.36-2.48,.82-.12,1.56,.34,1.66,1.03"/><path class="cls-1" d="M15.05,9.99c-.1,.68,.48,1.34,1.3,1.45,.82,.12,1.18-2.36,.36-2.48-.82-.12-1.56,.34-1.66,1.03"/><path class="cls-1" d="M13.37,8.2h0c0-.65-.82-1.17-1.83-1.17h-2.87c-1,0-1.83,.53-1.83,1.17l3.26,.77,3.26-.77Z"/><path class="cls-1" d="M8.81,12.46c.29,.14,.57,.19,.85,.14v-3.03c-.27,.03-.55-.02-.83-.15l-.02,3.04Z"/><path class="cls-3" d="M9.35,16.78c-2.03-.26-3.04-.92-4.17-1.61l-.23-1.99c1.41,.57,2.64,1.15,4.39,1.22v2.38Z"/><path class="cls-3" d="M8.28,11.68c-1.29-.2-2.27-.56-3.71-1.38l-.24-2.2c1.45,.77,2.68,1.09,3.95,1.46v2.11Z"/><line class="cls-3" x1="8.01" y1="12.01" x2="8.04" y2="13.87"/><line class="cls-3" x1="8.79" y1="12.94" x2="8.84" y2="13.94"/><line class="cls-3" x1="7.13" y1="11.78" x2="7.18" y2="13.47"/><line class="cls-3" x1="6.27" y1="11.45" x2="6.34" y2="13.23"/><line class="cls-3" x1="5.34" y1="11.12" x2="5.49" y2="12.89"/><line class="cls-3" x1="15.49" y1="7.99" x2="15.3" y2="10.86"/><line class="cls-3" x1="14.44" y1="8.45" x2="14.34" y2="11.31"/><line class="cls-3" x1="13.3" y1="8.88" x2="13.3" y2="11.68"/><line class="cls-3" x1="12.2" y1="9.19" x2="12.2" y2="11.8"/><line class="cls-3" x1="11.21" y1="9.48" x2="11.25" y2="12.06"/><path class="cls-3" d="M15.55,11.31c-1.08,.68-2.59,1.29-4.36,1.32"/><line class="cls-3" x1="15.33" y1="12.2" x2="15.18" y2="14.18"/><line class="cls-3" x1="14.38" y1="12.69" x2="14.33" y2="14.49"/><line class="cls-3" x1="13.37" y1="12.89" x2="13.37" y2="14.98"/><line class="cls-3" x1="12.36" y1="13.18" x2="12.36" y2="15.34"/><line class="cls-3" x1="11.23" y1="13.24" x2="11.22" y2="15.55"/><path class="cls-1" d="M15.24,15.34c-1.32,.87-3,1.37-4.32,1.58v-.82c1.42-.23,3.04-.76,4.37-1.52l-.06,.77Z"/></g></g></svg>