<?xml version="1.0" encoding="UTF-8"?><svg id="_レイヤー_2" xmlns="http://www.w3.org/2000/svg" xmlns:xlink="http://www.w3.org/1999/xlink" viewBox="0 0 20.23 20.23"><defs><style>.cls-1,.cls-2{fill:none;}.cls-3{clip-path:url(#clippath);}.cls-4{fill:#010000;}.cls-2{stroke-width:.24px;}.cls-2,.cls-5{stroke:#010000;}.cls-6{clip-path:url(#clippath-1);}.cls-5{fill:#fff;stroke-width:.57px;}</style><clipPath id="clippath"><rect class="cls-1" x="8.85" y="15.76" width="2.53" height="1.97"/></clipPath><clipPath id="clippath-1"><rect class="cls-1" x="8.85" y="15.76" width="2.53" height="1.97"/></clipPath></defs><g id="_レイヤー1"><g><circle class="cls-5" cx="10.11" cy="10.11" r="9.83" transform="translate(-2.25 2.92) rotate(-14.82)"/><path class="cls-2" d="M9.38,2.74h0Z"/><rect class="cls-2" x="9.38" y="1.27" width="1.47" height="11.8"/><line class="cls-2" x1="4.22" y1="17.98" x2="16.01" y2="17.98"/><g class="cls-3"><g class="cls-6"><path class="cls-4" d="M10.11,16.01c.63-.57,1.27,0,1.27,0-.48,.96-1.27,1.72-1.27,1.72,0,0-.79-.76-1.27-1.72,0,0,.63,.57,1.27,0"/></g></g><path class="cls-2" d="M9.38,13.06c-1.18,.84-1,2-.53,2.95,.48,.96,1.27,1.72,1.27,1.72,0,0,.79-.76,1.27-1.72,.48-.95,.65-2.11-.53-2.95"/><path class="cls-2" d="M11.38,16.01s-.63-.57-1.27,0c-.63,.57-1.27,0-1.27,0"/></g></g></svg>