<svg xmlns="http://www.w3.org/2000/svg" id="_レイヤー_2" viewBox="0 0 20.23 20.23"><defs><clipPath id="clippath"><path d="M8.85 15.76h2.53v1.97H8.85z" class="cls-1"/></clipPath><clipPath id="clippath-1"><path d="M8.85 15.76h2.53v1.97H8.85z" class="cls-1"/></clipPath><style>.cls-1,.cls-2{fill:none}.cls-2{stroke-width:.24px;stroke:#010000}</style></defs><g id="_レイヤー1"><circle cx="10.11" cy="10.11" r="9.83" style="stroke:#010000;fill:#fff;stroke-width:.57px" transform="rotate(-14.82 10.1 10.11)"/><path d="M9.38 2.74Zm0-1.47h1.47v11.8H9.38zM4.22 17.98h11.79" class="cls-2"/><g style="clip-path:url(#clippath)"><g style="clip-path:url(#clippath-1)"><path d="M10.11 16.01c.63-.57 1.27 0 1.27 0-.48.96-1.27 1.72-1.27 1.72s-.79-.76-1.27-1.72c0 0 .63.57 1.27 0" style="fill:#010000"/></g></g><path d="M9.38 13.06c-1.18.84-1 2-.53 2.95.48.96 1.27 1.72 1.27 1.72s.79-.76 1.27-1.72c.48-.95.65-2.11-.53-2.95" class="cls-2"/><path d="M11.38 16.01s-.63-.57-1.27 0c-.63.57-1.27 0-1.27 0" class="cls-2"/></g></svg>