<svg xmlns="http://www.w3.org/2000/svg" viewBox="0 0 13.85 13.85"><path d="M1.08.24h11.69c.46 0 .84.37.84.84v11.69c0 .46-.37.83-.83.83H1.08a.83.83 0 0 1-.83-.83V1.08a.83.83 0 0 1 .83-.84Z" style="fill:#fff;stroke:#050000;stroke-width:.49px"/><path d="M9.04 1.6c-.7 0-1.27.57-1.27 1.27v4.3c0 .48.27.9.67 1.12v3.94h.83V1.62zM6.47 4.19v-.18l-.2-2.39h-.34v2.59h-.29V1.62h-.33v2.59h-.29V1.62h-.33v2.59H4.4V1.62h-.34l-.2 2.35-.01.21c0 .72.36 1.35.91 1.72v6.31h.84V5.9c.54-.38.9-1 .9-1.71" style="fill:#050000"/></svg>