<?xml version="1.0" encoding="UTF-8"?><svg id="_レイヤー_2" xmlns="http://www.w3.org/2000/svg" viewBox="0 0 13.85 13.85"><defs><style>.cls-1{fill:#050000;}.cls-2{fill:#fff;stroke:#050000;stroke-width:.49px;}</style></defs><g id="_レイヤー1"><g><path class="cls-2" d="M1.08,.24H12.77c.46,0,.84,.37,.84,.84V12.77c0,.46-.37,.83-.83,.83H1.08c-.46,0-.83-.37-.83-.83V1.08C.24,.62,.62,.24,1.08,.24Z"/><path class="cls-1" d="M9.04,1.6c-.7,0-1.27,.57-1.27,1.27V7.17c0,.48,.27,.9,.67,1.12v3.94h.83V1.62c-.07-.01-.15-.02-.22-.02"/><path class="cls-1" d="M6.47,4.19c0-.06,0-.12,0-.18l-.2-2.39h-.34v2.59h-.29V1.62h-.33v2.59h-.29V1.62h-.33v2.59h-.29V1.62h-.34l-.2,2.35c0,.07-.01,.14-.01,.21,0,.72,.36,1.35,.91,1.72v6.31h.84V5.9c.54-.38,.9-1,.9-1.71"/></g></g></svg>