<svg xmlns="http://www.w3.org/2000/svg" viewBox="0 0 20.23 20.23"><path d="M19.94 10.11a9.83 9.83 0 1 1-19.66 0 9.83 9.83 0 0 1 19.66 0Z" style="fill:#fff;stroke:#231815;stroke-miterlimit:10;stroke-width:.57px"/><path d="M14.89 14.71q-.86.86-1.91.86-.86 0-1.34-.48t-.48-2.2q0-1.53.86-6.11H8.68a17 17 0 0 1-2.96 9.07l-1.53-.86q3.15-2.57 3.82-8.21H6.58q-1.43 0-2.67 1.53l-.38-.1a12 12 0 0 1 1.62-2.29q.66-.66 1.91-.67h9.26l-.38 1.53h-3.25a31 31 0 0 0-.76 5.06q0 1.05.48 1.53.57.57 1.15.57 1.34 0 2.48-1.43l.38.19q-.57 1.05-1.53 2Z" style="fill:#231815"/></svg>