<?xml version="1.0" encoding="UTF-8"?><svg id="_レイヤー_2" xmlns="http://www.w3.org/2000/svg" viewBox="0 0 20.23 20.23"><defs><style>.cls-1{fill:#fff;stroke:#231815;stroke-miterlimit:10;stroke-width:.57px;}.cls-2{fill:#231815;}</style></defs><g id="_レイヤー1"><g><path class="cls-1" d="M19.94,10.11c0,5.43-4.4,9.83-9.83,9.83S.28,15.54,.28,10.11,4.68,.28,10.11,.28s9.83,4.4,9.83,9.83Z"/><path class="cls-2" d="M14.89,14.71c-.57,.57-1.21,.86-1.91,.86-.57,0-1.02-.16-1.34-.48-.32-.32-.48-1.05-.48-2.2,0-1.02,.29-3.05,.86-6.11h-3.34c-.13,3.31-1.11,6.33-2.96,9.07l-1.53-.86c2.1-1.72,3.37-4.45,3.82-8.21h-1.43c-.95,0-1.85,.51-2.67,1.53l-.38-.1c.64-1.08,1.18-1.85,1.62-2.29,.44-.44,1.08-.67,1.91-.67h9.26l-.38,1.53h-3.25c-.51,2.48-.76,4.17-.76,5.06,0,.7,.16,1.21,.48,1.53,.38,.38,.76,.57,1.15,.57,.89,0,1.72-.48,2.48-1.43l.38,.19c-.38,.7-.89,1.37-1.53,2Z"/></g></g></svg>