<?xml version="1.0" encoding="UTF-8"?><svg id="_レイヤー_2" xmlns="http://www.w3.org/2000/svg" viewBox="0 0 20.23 20.23"><defs><style>.cls-1,.cls-2,.cls-3{stroke-linecap:round;stroke-width:.31px;}.cls-1,.cls-2,.cls-3,.cls-4{stroke:#010000;}.cls-1,.cls-3{stroke-linejoin:round;}.cls-1,.cls-4{fill:#fff;}.cls-2,.cls-3{fill:none;}.cls-4{stroke-width:.57px;}</style></defs><g id="_レイヤー1"><g><path class="cls-4" d="M10.11,19.94C4.68,19.94,.28,15.54,.28,10.11S4.68,.28,10.11,.28s9.83,4.4,9.83,9.83-4.4,9.83-9.83,9.83"/><path class="cls-2" d="M10.52,4.33c.38,.41,.41,.85,0,1.33-.38,.41-.41,.85,0,1.33"/><path class="cls-2" d="M13.26,4.33c.38,.41,.41,.85,0,1.33-.38,.41-.41,.85,0,1.33"/><path class="cls-2" d="M7.79,4.33c.38,.41,.41,.85,0,1.33-.38,.41-.41,.85,0,1.33"/><path class="cls-3" d="M3.15,11.44c0-1.36,1.1-2.46,2.46-2.46s2.46,1.1,2.46,2.46-1.1,2.46-2.46,2.46-2.46-1.1-2.46-2.46Z"/><path class="cls-3" d="M4.38,11.44c0-.68,.55-1.23,1.23-1.23s1.23,.55,1.23,1.23-.55,1.23-1.23,1.23-1.23-.55-1.23-1.23Z"/><path class="cls-1" d="M7.25,14.24c-1.01-.9-1.65-2.21-1.65-3.67,0-1.36-.55-2.46-1.23-2.46h12.29c-.68,0-1.23,1.1-1.23,2.46h0c0,1.82-.99,3.41-2.46,4.26l.61,1.06H7.45l.61-1.06c-.29-.17-.56-.36-.81-.59"/><line class="cls-2" x1="8.07" y1="14.83" x2="12.98" y2="14.83"/></g></g></svg>