<svg xmlns="http://www.w3.org/2000/svg" id="_レイヤー_2" viewBox="0 0 20.23 20.23"><defs><style>.cls-2,.cls-3{stroke-linecap:round;stroke-width:.31px;stroke:#010000}.cls-3{stroke-linejoin:round}.cls-2,.cls-3{fill:none}</style></defs><g id="_レイヤー1"><path d="M10.11 19.94a9.83 9.83 0 1 1 0-19.66 9.83 9.83 0 0 1 0 19.66" style="stroke:#010000;fill:#fff;stroke-width:.57px"/><path d="M10.52 4.33c.38.41.41.85 0 1.33-.38.41-.41.85 0 1.33m2.74-2.66c.38.41.41.85 0 1.33-.38.41-.41.85 0 1.33M7.79 4.33c.38.41.41.85 0 1.33-.38.41-.41.85 0 1.33" class="cls-2"/><path d="M3.15 11.44a2.46 2.46 0 1 1 4.92 0 2.46 2.46 0 0 1-4.92 0" class="cls-3"/><path d="M4.38 11.44a1.23 1.23 0 1 1 2.46 0 1.23 1.23 0 0 1-2.46 0" class="cls-3"/><path d="M7.25 14.24a5 5 0 0 1-1.65-3.67c0-1.36-.55-2.46-1.23-2.46h12.29c-.68 0-1.23 1.1-1.23 2.46h0c0 1.82-.99 3.41-2.46 4.26l.61 1.06H7.45l.61-1.06a5 5 0 0 1-.81-.59" style="stroke-linecap:round;stroke-width:.31px;stroke:#010000;stroke-linejoin:round;fill:#fff"/><path d="M8.07 14.83h4.91" class="cls-2"/></g></svg>