<svg xmlns="http://www.w3.org/2000/svg" id="_レイヤー_2" viewBox="0 0 20.23 20.23"><defs><style>.cls-3{stroke:#231815;fill:none;stroke-width:.52px}</style></defs><g id="_レイヤー1"><circle cx="10.11" cy="10.11" r="9.83" style="fill:#fff;stroke-width:.57px;stroke:#231815"/><rect width="11.8" height="12.29" x="4.22" y="2.99" class="cls-3" rx="2.08" ry="2.08"/><path d="M12.33 13.06a.74.74 0 1 1 1.48 0 .74.74 0 1 1-1.48 0Zm-4.43 0a.74.74 0 1 0-1.48 0 .74.74 0 1 0 1.48 0Zm-2.21-6.8h8.85v4.83H5.69zm.45-1.93h7.94v.94H6.14z" class="cls-3"/><path d="m6.32 15.27-1.49 3.12 1.54.86 1.26-2.8h4.97l1.25 2.8 1.55-.86-1.5-3.12z" style="fill:#231815"/><path d="m6.32 15.27-1.49 3.12 1.54.86 1.26-2.8h4.97l1.25 2.8 1.55-.86-1.5-3.12z" class="cls-3"/></g></svg>