<?xml version="1.0" encoding="UTF-8"?><svg id="_レイヤー_2" xmlns="http://www.w3.org/2000/svg" viewBox="0 0 20.23 20.23"><defs><style>.cls-1{fill:#231815;}.cls-2{fill:#fff;stroke-width:.57px;}.cls-2,.cls-3{stroke:#231815;}.cls-3{fill:none;stroke-width:.52px;}</style></defs><g id="_レイヤー1"><g><circle class="cls-2" cx="10.11" cy="10.11" r="9.83"/><rect class="cls-3" x="4.22" y="2.99" width="11.8" height="12.29" rx="2.08" ry="2.08"/><path class="cls-3" d="M12.33,13.06c0-.41,.33-.74,.74-.74s.74,.33,.74,.74-.33,.74-.74,.74-.74-.33-.74-.74Z"/><path class="cls-3" d="M7.9,13.06c0-.41-.33-.74-.74-.74s-.74,.33-.74,.74,.33,.74,.74,.74,.74-.33,.74-.74Z"/><rect class="cls-3" x="5.69" y="6.26" width="8.85" height="4.83"/><rect class="cls-3" x="6.14" y="4.33" width="7.94" height=".94"/><polygon class="cls-1" points="6.32 15.27 4.83 18.39 6.37 19.25 7.63 16.45 12.6 16.45 13.85 19.25 15.4 18.39 13.9 15.27 6.32 15.27"/><polygon class="cls-3" points="6.32 15.27 4.83 18.39 6.37 19.25 7.63 16.45 12.6 16.45 13.85 19.25 15.4 18.39 13.9 15.27 6.32 15.27"/></g></g></svg>