<?xml version="1.0" encoding="UTF-8"?><svg id="_レイヤー_2" xmlns="http://www.w3.org/2000/svg" viewBox="0 0 20.23 20.23"><defs><style>.cls-1{fill:#040000;}.cls-2{fill:#fff;stroke:#010000;stroke-width:.57px;}</style></defs><g id="_レイヤー1"><g><circle class="cls-2" cx="10.11" cy="10.11" r="9.83"/><g><path class="cls-1" d="M12.67,10.07l.18,.39c.18-.08,.34-.17,.5-.24,.5-.25,.89-.45,1.44-.45h.06s.01-.43,.01-.43c-.69-.02-1.16,.22-1.7,.5-.15,.08-.31,.16-.49,.24Z"/><path class="cls-1" d="M5.28,11.26l-.25,.35c.18,.13,.33,.25,.48,.36,.51,.38,.87,.66,1.47,.85l.13-.41c-.53-.17-.85-.42-1.34-.79-.15-.11-.3-.23-.48-.36Z"/><path class="cls-1" d="M16.38,6.63h0s-.66-.38-.66-.38l.2-.43c.13-.24,.21-.52,.21-.82,0-.93-.76-1.69-1.69-1.69-.78,0-1.44,.53-1.63,1.25l-.13-.07-.19-.11-.22-.13-.22,.13-.19,.11-3.91,2.25h0S3.84,4.37,3.84,4.37l-.43-.25V13.1l.43,.25,3.69,2.13,.2,.12,.23,.13,.2-.12,.23-.13h0s3.88-2.24,3.88-2.24l4.11,2.37,.43,.25V6.88l-.43-.25ZM7.74,12.56s0,0-.01,0l-.08,.43s.06,0,.09,.01v2.1l-3.89-2.25v-2.01c.22,.13,.43,.26,.63,.4l.24-.36c-.28-.18-.56-.36-.87-.54V4.87l3.69,2.13h0s.09,.05,.09,.05l.11,.06v5.45Zm5.73-7.62c.03-.51,.46-.92,.98-.92s.98,.44,.98,.98c0,.34-.17,.64-.44,.82-.15,.1-.34,.16-.54,.16-.01,0-.03,0-.04,0-.33-.01-.62-.19-.78-.45-.1-.15-.15-.33-.15-.53,0-.02,0-.04,0-.06Zm-1.4,7.93l-.19,.11h0l-3.7,2.14v-2.15c.15-.05,.33-.1,.54-.16,.34-.09,.76-.21,1.21-.38l-.15-.41c-.42,.16-.82,.27-1.17,.37-.15,.04-.29,.08-.42,.12V7.13l.23-.13h0s0,0,0,0l3.66-2.11v5.59l-.04-.03c-.42,.54-.97,.97-1.67,1.31l.19,.39c.6-.3,1.1-.65,1.51-1.09v1.8Zm4.32-2.73v4.97l-3.7-2.14-.19-.11V4.88l.26,.15c0,.29,.08,.55,.21,.79l1.48,3.22,1.1-2.4,.84,.49v2.55c-.29-.11-.56-.19-.81-.25l-.1,.42c.27,.06,.57,.16,.9,.29Z"/></g></g></g></svg>