<svg xmlns="http://www.w3.org/2000/svg" id="_レイヤー_2" viewBox="0 0 20.23 20.23"><defs><style>.cls-1{fill:#040000}</style></defs><g id="_レイヤー1"><circle cx="10.11" cy="10.11" r="9.83" style="fill:#fff;stroke:#010000;stroke-width:.57px"/><path d="m12.67 10.07.18.39.5-.24c.5-.25.89-.45 1.44-.45h.06l.01-.43a3 3 0 0 0-1.7.5l-.49.24Zm-7.39 1.19-.25.35.48.36c.51.38.87.66 1.47.85l.13-.41c-.53-.17-.85-.42-1.34-.79z" class="cls-1"/><path d="m16.38 6.63-.66-.38.2-.43q.2-.36.21-.82a1.69 1.69 0 0 0-3.32-.44l-.13-.07-.19-.11-.22-.13-.22.13-.19.11-3.91 2.25-4.11-2.37-.43-.25v8.98l.43.25 3.69 2.13.2.12.23.13.2-.12.23-.13 3.88-2.24 4.11 2.37.43.25V6.88zm-8.64 5.93-.08.43.09.01v2.1l-3.89-2.25v-2.01l.63.4.24-.36q-.41-.27-.87-.54V4.87L7.54 7l.09.05.11.06zm5.73-7.62c.03-.51.46-.92.98-.92s.98.44.98.98a1 1 0 0 1-.98.98h-.04a1 1 0 0 1-.78-.45 1 1 0 0 1-.15-.53zm-1.4 7.93-.19.11-3.7 2.14v-2.15l.54-.16q.52-.13 1.21-.38l-.15-.41q-.64.23-1.17.37l-.42.12V7.13L8.42 7l3.66-2.11v5.59l-.04-.03a4.6 4.6 0 0 1-1.67 1.31l.19.39q.9-.44 1.51-1.09zm4.32-2.73v4.97l-3.7-2.14-.19-.11V4.88l.26.15q0 .43.21.79l1.48 3.22 1.1-2.4.84.49v2.55a7 7 0 0 0-.81-.25l-.1.42q.4.1.9.29Z" class="cls-1"/></g></svg>