<svg xmlns="http://www.w3.org/2000/svg" id="_レイヤー_2" viewBox="0 0 20.23 20.23"><defs><style>.cls-2,.cls-3{fill:#fff}.cls-5{fill:#231815}.cls-3{stroke:#231815;stroke-linecap:square;stroke-width:.43px}</style></defs><g id="_レイヤー1"><circle cx="10.11" cy="10.11" r="9.83" style="fill:#fff;stroke:#010000;stroke-width:.57px" transform="rotate(-73.2 10.11 10.11)"/><path d="M9.9 5.26h.43v10.36H9.9zm-6.67-.89h.43v10.36h-.43zm13.33 0h.43v10.36h-.43z" style="fill:#040000"/><path d="M3.45 14.73c4.73 0 6.67.89 6.67.89z" class="cls-2"/><path d="m10.4 15.51-.03.07-.09.2-.07.03-.09.04-.09-.04-.07-.03q-.22-.1-1.24-.35c-.72-.16-1.76-.33-3.14-.42a33 33 0 0 0-2.12-.07h-.22v-.43h.22c3.73 0 5.73.54 6.45.79l.22.08.09.04.12.06z" class="cls-5"/><path d="M3.45 4.37c4.73 0 6.67.89 6.67.89" class="cls-3"/><path d="M16.78 4.37c-4.73 0-6.67.89-6.67.89" class="cls-3"/><path d="M16.78 14.73c-4.73 0-6.67.89-6.67.89z" class="cls-2"/><path d="M17 14.51v.43h-.22a27 27 0 0 0-5.26.49c-.69.15-1.09.3-1.24.35l-.07.03-.09.04-.09-.04-.07-.03-.09-.2-.03-.07.07-.03.13-.06.09-.04.22-.08c.71-.25 2.72-.79 6.45-.79h.22Z" class="cls-5"/></g></svg>