<?xml version="1.0" encoding="UTF-8"?><svg id="_レイヤー_2" xmlns="http://www.w3.org/2000/svg" viewBox="0 0 20.23 20.23"><defs><style>.cls-1{fill:#040000;}.cls-2,.cls-3,.cls-4{fill:#fff;}.cls-5{fill:#231815;}.cls-3{stroke:#231815;stroke-linecap:square;stroke-width:.43px;}.cls-4{stroke:#010000;stroke-width:.57px;}</style></defs><g id="_レイヤー1"><g><circle class="cls-4" cx="10.11" cy="10.11" r="9.83" transform="translate(-2.49 16.87) rotate(-73.2)"/><g><rect class="cls-1" x="9.9" y="5.26" width=".43" height="10.36"/><rect class="cls-1" x="3.23" y="4.37" width=".43" height="10.36"/><rect class="cls-1" x="16.56" y="4.37" width=".43" height="10.36"/><g><path class="cls-2" d="M3.45,14.73c4.73,0,6.67,.89,6.67,.89l-6.67-.89Z"/><path class="cls-5" d="M10.4,15.51l-.03,.07-.09,.2s-.07,.03-.07,.03l-.09,.04-.09-.04s-.03-.01-.07-.03c-.15-.06-.56-.2-1.24-.35,0,0,0,0,0,0-.72-.16-1.76-.33-3.14-.42-.63-.04-1.34-.07-2.12-.07h-.22v-.43h.22c3.73,0,5.73,.54,6.45,.79,.09,.03,.17,.06,.22,.08,.05,.02,.08,.03,.09,.04l.12,.06,.07,.03h0Z"/></g><path class="cls-3" d="M3.45,4.37c4.73,0,6.67,.89,6.67,.89"/><path class="cls-3" d="M16.78,4.37c-4.73,0-6.67,.89-6.67,.89"/><g><path class="cls-2" d="M16.78,14.73c-4.73,0-6.67,.89-6.67,.89l6.67-.89Z"/><path class="cls-5" d="M17,14.51v.43h-.22c-.78,0-1.49,.02-2.12,.07-1.39,.09-2.42,.26-3.14,.42,0,0,0,0,0,0-.69,.15-1.09,.3-1.24,.35-.05,.02-.07,.03-.07,.03l-.09,.04-.09-.04s-.03-.01-.07-.03l-.09-.2-.03-.07h0s.07-.03,.07-.03l.13-.06s.04-.02,.09-.04c.05-.02,.12-.05,.22-.08,.71-.25,2.72-.79,6.45-.79h.22Z"/></g></g></g></g></svg>