<?xml version="1.0" encoding="UTF-8"?><svg id="_レイヤー_2" xmlns="http://www.w3.org/2000/svg" viewBox="0 0 20.44 20.44"><defs><style>.cls-1{fill:#010000;}.cls-2{fill:#fff;stroke:#010000;stroke-width:.56px;}</style></defs><g id="_制作レイヤー"><g><path class="cls-2" d="M.28,10.22C.28,4.73,4.73,.28,10.22,.28s9.94,4.45,9.94,9.94-4.45,9.94-9.94,9.94S.28,15.71,.28,10.22Z"/><path class="cls-1" d="M9.87,13.54v-2.31H5.69v1.15l4.18,1.15Zm4.88-1.15v-1.15h-4.18v2.31l4.18-1.15Zm-4.18,5.1h-.7v-2.45l-5.29,2.06-.42-1.23,4.25-1.67-2.97-1.07-.66-.24v-4.32l3.29-1.18-5.52-1.64,.29-1.33,7.01,2.15V2.95h.7v3.61l7.01-2.15,.29,1.33-5.52,1.64,3.29,1.18v4.32l-3.63,1.31,4.25,1.67-.41,1.23-5.29-2.06v2.45Zm4.18-7.24v-1l-4.18-1.28v2.28h4.18Zm-4.88,0v-2.28l-4.18,1.28v1h4.18Z"/></g></g></svg>