<svg xmlns="http://www.w3.org/2000/svg" viewBox="0 0 20.44 20.44"><path d="M.28 10.22a9.94 9.94 0 1 1 19.88 0 9.94 9.94 0 0 1-19.88 0Z" style="fill:#fff;stroke:#010000;stroke-width:.56px"/><path d="M9.87 13.54v-2.31H5.69v1.15zm4.88-1.15v-1.15h-4.18v2.31zm-4.18 5.1h-.7v-2.45L4.58 17.1l-.42-1.23 4.25-1.67-2.97-1.07-.66-.24V8.57l3.29-1.18-5.52-1.64.29-1.33 7.01 2.15V2.95h.7v3.61l7.01-2.15.29 1.33-5.52 1.64 3.29 1.18v4.32l-3.63 1.31 4.25 1.67-.41 1.23-5.29-2.06v2.45Zm4.18-7.24v-1l-4.18-1.28v2.28zm-4.88 0V7.97L5.69 9.25v1z" style="fill:#010000"/></svg>