<svg xmlns="http://www.w3.org/2000/svg" id="_イヤー_2" viewBox="0 0 241.57 84.18"><defs><style>.cls-3{fill:#e96293}.cls-6{fill:#9d4a97}.cls-9{fill:#c35098}.cls-12{fill:#a55b9f}.cls-16{fill:#3a3a3a}</style></defs><g id="_イヤー_1-2"><path d="M27.35 77.96q-.46 2.86-.76 5.71c-.06.59-.86.71-1.1.17q-1.2-2.71-2.55-5.35 2.18-.38 4.41-.54Z" style="fill:#6892cc"/><path d="M29.03 69.78a102 102 0 0 0-1.68 8.18q-2.23.16-4.41.54a100 100 0 0 0-3.6-6.4 47 47 0 0 1 9.69-2.31Z" style="fill:#5362ab"/><path d="M81.09 34.89a63 63 0 0 1-2.31 3.69l-.77 1.11q-.56-.11-1.12-.19a29 29 0 0 0-4.26-.32h-.33q.36-2.16.55-4.3a28 28 0 0 0 8.24.02Z" style="fill:#d04a91"/><path d="M83.71 23.78q1.2 0 2.4-.06-1.98 5.94-5.02 11.18a29 29 0 0 1-8.24-.02q.56-6.3-.16-12.44 5.31 1.33 11.03 1.34Z" class="cls-3"/><path d="M78.01 39.69a58 58 0 0 1-6.5 7.69c-.42.42-1.13 0-.96-.58l.15-.51a66 66 0 0 0 1.61-7.12h.33a29 29 0 0 1 5.38.51Z" class="cls-12"/><path d="M61.33 57.83a32 32 0 0 0-1.54 7.99 62 62 0 0 1-10.68-8.05l-.09-.1c-.28-.4.07-.99.59-.89a59 59 0 0 0 11.71 1.04Z" style="fill:#5955a2"/><path d="M59.04 23.77q-2.64-.57-5.3-.97a99 99 0 0 0-18.45-1.09 46 46 0 0 0-4.45-11.4A38 38 0 0 1 40.13 2q.9 1.17 1.87 2.28a46 46 0 0 0 3.06 3.17l.49.47.25.23.26.24.1.09.1.1.56.49.16.13.3.25.31.25.4.33.13.1.26.21.22.17.59.45.3.22.13.09.29.21.06.04.19.13q4 6.11 9.38 11.14c.42.4.06 1.11-.52.99Z" class="cls-3"/><path d="m35.28 21.7-1.61.08q-4.27.22-8.47.81c-.42.06-.77-.34-.63-.74a37 37 0 0 1 6.26-11.55 46 46 0 0 1 4.45 11.4" style="fill:#e53c8e"/><path d="M33.68 21.77q-4.27.23-8.47.81c-.42.06-.77-.34-.63-.74a37 37 0 0 1 2.52-5.88 47 47 0 0 1 6.58 5.81" class="cls-9"/><path d="M33.31 56.65a99 99 0 0 0-4.28 13.12q-5.05.66-9.69 2.31l-1.32-2.1a104 104 0 0 0-4.64-6.57 48 48 0 0 1 16.33-6.26q1.78-.33 3.61-.52Z" style="fill:#7163a9"/><path d="M46.92 33.19a109 109 0 0 0-4.09 5.63 46 46 0 0 0-6.89 1.88l.15-.94v-.04l.04-.31.08-.53.04-.35.05-.41a102 102 0 0 0 9.85-5.76c.54-.36 1.18.32.77.84Z" style="fill:#d36ca5"/><path d="M42.82 38.82a97 97 0 0 0-6.1 10.35 44 44 0 0 0-5.85-3.53q2.28-2.18 4.25-4.64l.4-.15.4-.15a47 47 0 0 1 6.89-1.88Z" class="cls-12"/><path d="M36.72 49.18a99 99 0 0 0-3.41 7.48 47.5 47.5 0 0 0-19.94 6.78 83 83 0 0 0-4.92-5.89 46.5 46.5 0 0 0 22.42-11.89 45 45 0 0 1 5.85 3.53Z" style="fill:#936bab"/><path d="M30.88 45.65A47 47 0 0 1 8.46 57.54a90 90 0 0 0-3.7-3.88 46.4 46.4 0 0 0 21.02-10.21 51 51 0 0 1 5.1 2.22Z" style="fill:#8d5aa1"/><path d="m36.3 38.11-.05.41-.04.35-.08.53-.04.31v.04l-.15.94-.4.15-.4.15q-3.68 1.4-7.04 3.35-1.15-.49-2.32-.92.72-.6 1.41-1.25a97 97 0 0 0 9.11-4.07Z" class="cls-9"/><path d="M27.18 42.18q-.69.65-1.41 1.25A46.4 46.4 0 0 1 4.75 53.64 102 102 0 0 0 .2 49.39a.58.58 0 0 1 .33-1.01 97 97 0 0 0 26.65-6.21Z" style="fill:#a75a9f"/><path d="M35.13 41a48 48 0 0 1-4.25 4.64q-1.37-.69-2.78-1.3a47 47 0 0 1 7.04-3.35Z" class="cls-6"/><path d="m50.17 11.64-.19-.13-.06-.04-.29-.21-.13-.09-.3-.22-.59-.45-.22-.17-.26-.21-.13-.1-.4-.33-.31-.25-.3-.25-.16-.13-.56-.49-.1-.1-.1-.09-.26-.24-.25-.23-.49-.47a48 48 0 0 1-4.93-5.45l1.51-.91Q42.6.54 43.59.06l.13-.05q0 .02.03.05l-.01-.05c.26-.06.54.1.65.36q.5 1.26 1.04 2.51a61 61 0 0 0 4.76 8.76Zm38.4 1.76a62 62 0 0 1-2.47 10.31q-1.19.06-2.4.06-5.72-.02-11.03-1.34-.14-1.26-.35-2.5a61 61 0 0 0-1.76-7.73 46 46 0 0 0 17.95.83q.09.17.06.35Z" style="fill:#ea6266"/><path d="M88.51 13.04a46 46 0 0 1-17.95-.83 61 61 0 0 0-1.51-4.42.58.58 0 0 1 .45-.78 23.1 23.1 0 0 1 18.88 5.88q.07.07.12.16Z" style="fill:#f08d64"/><path d="M89.54 51.82v.02q-.84 1.49-1.51 3.02a37 37 0 0 0-1.7 4.66 32 32 0 0 0-10.35-3.62 61 61 0 0 0 12.79-4.88c.51-.27 1.05.29.77.8" class="cls-6"/><path d="M86.33 59.52a37 37 0 0 0-1.3 6.74 32 32 0 0 0-16.86-8.88q3.96-.48 7.81-1.48c3.7.61 7.19 1.85 10.35 3.62" style="fill:#834e9b"/><path d="M85.01 73.38a.6.6 0 0 1-.63.64 60 60 0 0 1-24.58-8.2 32 32 0 0 1 1.54-7.99q3.44-.03 6.84-.45a32 32 0 0 1 16.86 8.88 38 38 0 0 0-.02 7.12Z" style="fill:#644a9a"/><path d="M213.94 29.99h13.82v4.27h-13.82zm0 13.82v4.27h4.6c.6 0 .9.72.48 1.15l-5.16 5.16 3.02 3.02 5.46-5.46a.68.68 0 0 1 1.15.48v5.21h4.27V43.82zm20.79 9.55h-4.34v4.27h11.18V43.81h-4.27v6.98a2.57 2.57 0 0 1-2.57 2.57M213.94 36.9h6.91v4.27h-6.91zm11.68 0a2.13 2.13 0 0 0 0 4.26 2.13 2.13 0 0 0 0-4.26m4.77-6.91h11.18v4.27h-11.18z" class="cls-16"/><path d="M230.39 36.9v13.82h4.27v-6.98a2.57 2.57 0 0 1 2.57-2.57h4.34V36.9zm-40.68-2.64h10.36v-4.27h-27.63v4.27h10.36c.73 0 1.32.58 1.32 1.32s-.59 1.32-1.32 1.32h-10.36v4.27h2.34c.3 0 .45.36.24.58l-1.7 1.7c-.23.23-.55.36-.88.36v4.27h22.04a1.32 1.32 0 1 1 0 2.64h-3.45v4.27h9.04V43.81c-.33 0-.65-.13-.88-.36l-1.7-1.7a.34.34 0 0 1 .24-.58h2.34V36.9h-10.36a1.32 1.32 0 1 1 0-2.64m-5.59 9.17c0 .21-.17.38-.38.38h-3.94c-.3 0-.45-.36-.24-.58l1.67-1.67q.39-.38.94-.39h1.57c.21 0 .38.17.38.37zm4.64-2.26h1.57c.35 0 .69.14.93.39l1.68 1.67c.22.22.06.58-.24.58h-3.95a.4.4 0 0 1-.37-.38v-1.89c0-.2.17-.37.37-.37Z" class="cls-16"/><path d="M172.43 54.99h9.04a2.64 2.64 0 0 1 2.64 2.64h4.27v-6.91h-15.95zm-41.42-25v27.64h27.63V29.99zm4.27 15.62V35.26a1 1 0 0 1 1-1h10.36a1 1 0 0 1 .7 1.7l-10.35 10.36a1 1 0 0 1-1.71-.71m19.1 6.72c0 .56-.46 1.02-1.02 1.02h-14.89c-.92 0-1.37-1.1-.73-1.75l14.9-14.89a1.02 1.02 0 0 1 1.75.72z" class="cls-16"/><path d="M149.25 45.58a2.03 2.03 0 1 0-.33 4.05 2.03 2.03 0 0 0 .33-4.05m-13.62 19.19a1 1 0 0 0-.59-.22q-.1-.01-.2.05a.1.1 0 0 0-.05.1c0 .06 0 .12.17.15l.33.07q.37.1.49.25c.18.18.22.4.22.57a1 1 0 0 1-.26.68c-.16.17-.48.37-1.02.37-.44 0-.74-.13-.98-.23l-.09-.04.32-.81.11.09c.11.08.33.21.58.21q.2-.01.22-.05a.2.2 0 0 0 .06-.13q0-.05-.03-.1-.04-.04-.2-.07l-.26-.05a1 1 0 0 1-.5-.25.7.7 0 0 1-.21-.53q0-.4.28-.69.32-.36 1-.37c.23 0 .53.04.88.25l-.28.73Zm8.39 1.96v-2.88h1.01v.98h.64v-.98h1.01v2.88h-1.01v-1h-.64v1zm10.8 0v-2.88h1.05v2.88zm25.52 0v-2.88h1v.89l-.02.36h.02c.06-.16.1-.23.15-.32l.5-.93h1.13l-.9 1.41.99 1.47H182l-.53-.93-.14-.28h-.02l.02.27v.93h-1Zm10.77 0v-2.88h1.05v2.88zm27.43-1.96a1 1 0 0 0-.59-.22q-.1-.01-.2.05a.1.1 0 0 0-.05.1c0 .06 0 .12.17.15l.33.07q.37.1.49.25c.18.18.22.4.22.57a1 1 0 0 1-.26.68c-.16.17-.48.37-1.02.37-.44 0-.74-.13-.98-.23l-.09-.04.32-.81.11.09c.11.08.33.21.58.21q.2-.01.22-.05a.2.2 0 0 0 .06-.13q0-.05-.03-.1-.04-.04-.2-.07l-.26-.05a1 1 0 0 1-.5-.25.7.7 0 0 1-.21-.53q0-.4.28-.69.32-.36 1-.37c.23 0 .53.04.88.25l-.28.73Zm9.29 1.6-.08.36h-1.11l1-2.88h1.16l1.03 2.88h-1.11l-.1-.36h-.8Zm.42-1.56h-.04q0 .18-.05.32l-.14.55h.42l-.13-.55zm9.44 1.92v-2.88h1.05v2.88z" class="cls-16"/></g></svg>