<?xml version="1.0" encoding="UTF-8"?><svg id="_イヤー_2" xmlns="http://www.w3.org/2000/svg" viewBox="0 0 241.57 84.18"><defs><style>.cls-1{fill:#6892cc;}.cls-2{fill:#f08d64;}.cls-3{fill:#e96293;}.cls-4{fill:#ea6266;}.cls-5{fill:#e53c8e;}.cls-6{fill:#9d4a97;}.cls-7{fill:#936bab;}.cls-8{fill:#8d5aa1;}.cls-9{fill:#c35098;}.cls-10{fill:#d04a91;}.cls-11{fill:#a75a9f;}.cls-12{fill:#a55b9f;}.cls-13{fill:#d36ca5;}.cls-14{fill:#5955a2;}.cls-15{fill:#644a9a;}.cls-16{fill:#3a3a3a;}.cls-17{fill:#5362ab;}.cls-18{fill:#7163a9;}.cls-19{fill:#834e9b;}</style></defs><g id="_イヤー_1-2"><g><g><path class="cls-1" d="M27.35,77.96c-.31,1.9-.56,3.81-.76,5.71-.06,.59-.86,.71-1.1,.17-.8-1.81-1.65-3.59-2.55-5.35,1.45-.25,2.92-.43,4.41-.54Z"/><path class="cls-17" d="M29.03,69.78c-.24,.97-.47,1.94-.68,2.91-.38,1.76-.72,3.52-1,5.27-1.49,.1-2.96,.29-4.41,.54-1.12-2.18-2.33-4.32-3.6-6.4,3.09-1.09,6.34-1.88,9.69-2.31Z"/><g><path class="cls-10" d="M81.09,34.89c-.73,1.26-1.5,2.49-2.31,3.69-.25,.37-.51,.74-.77,1.11-.37-.07-.75-.14-1.12-.19-1.39-.21-2.81-.32-4.26-.32-.11,0-.22,0-.33,0,.24-1.44,.42-2.87,.55-4.3,1.37,.21,2.77,.31,4.19,.31s2.73-.1,4.05-.29Z"/><path class="cls-3" d="M83.71,23.78c.8,0,1.6-.02,2.4-.06-1.31,3.96-3,7.69-5.02,11.18-1.32,.19-2.68,.29-4.05,.29s-2.83-.11-4.19-.31c.38-4.19,.32-8.36-.16-12.44,3.53,.88,7.23,1.34,11.03,1.34Z"/><path class="cls-12" d="M78.01,39.69c-1.03,1.45-2.12,2.85-3.27,4.19-1.03,1.21-2.11,2.38-3.23,3.5-.42,.42-1.13,0-.96-.58,.05-.17,.1-.34,.15-.51,.31-1.09,.6-2.18,.85-3.27,.05-.23,.1-.46,.16-.69,.23-1.05,.43-2.11,.6-3.16,.11,0,.22,0,.33,0,1.45,0,2.87,.11,4.26,.32,.38,.06,.75,.12,1.12,.19Z"/><path class="cls-14" d="M61.33,57.83c-.43,1.32-.79,2.68-1.05,4.07-.24,1.28-.4,2.59-.49,3.92-2.47-1.47-4.8-3.09-6.99-4.84-.76-.61-1.5-1.23-2.23-1.87-.5-.44-.98-.88-1.46-1.34-.03-.03-.06-.06-.09-.1-.28-.4,.07-.99,.59-.89,1.96,.37,3.92,.64,5.89,.81,1.09,.1,2.17,.16,3.26,.2,.85,.03,1.7,.04,2.56,.03Z"/><path class="cls-3" d="M59.04,23.77c-1.76-.38-3.53-.7-5.3-.97-3.17-.49-6.34-.82-9.5-1-1.38-.08-2.76-.13-4.13-.14-1.62-.02-3.22,0-4.82,.05-.98-4.03-2.49-7.86-4.45-11.4,2.62-3.29,5.78-6.09,9.29-8.31,.6,.78,1.23,1.54,1.87,2.28,.97,1.1,1.98,2.16,3.06,3.17,.16,.16,.33,.31,.49,.47l.25,.23c.09,.08,.17,.15,.26,.24,.03,.03,.07,.06,.1,.09,.03,.03,.07,.06,.1,.1,.19,.16,.38,.32,.56,.49,.06,.04,.1,.09,.16,.13,.1,.08,.2,.17,.3,.25,.1,.08,.2,.17,.31,.25,.13,.11,.26,.22,.4,.33,.04,.03,.09,.07,.13,.1,.09,.07,.18,.14,.26,.21,.08,.06,.15,.11,.22,.17,.19,.15,.4,.3,.59,.45,.1,.08,.2,.15,.3,.22,.04,.03,.08,.06,.13,.09,.1,.07,.19,.14,.29,.21,.02,.01,.04,.03,.06,.04,.06,.05,.13,.09,.19,.13,2.65,4.06,5.8,7.8,9.38,11.14,.42,.4,.06,1.11-.52,.99Z"/><path class="cls-5" d="M35.28,21.7c-.54,.02-1.07,.05-1.61,.08-2.85,.15-5.67,.42-8.47,.81-.42,.06-.77-.34-.63-.74,.68-2.06,1.52-4.02,2.52-5.88,1.08-2.03,2.33-3.92,3.74-5.67,1.96,3.54,3.47,7.37,4.45,11.4Z"/><path class="cls-9" d="M33.68,21.77c-2.85,.15-5.67,.42-8.47,.81-.42,.06-.77-.34-.63-.74,.68-2.06,1.52-4.02,2.52-5.88,2.37,1.73,4.57,3.67,6.58,5.81Z"/><path class="cls-18" d="M33.31,56.65c-1.71,4.22-3.15,8.6-4.28,13.12-3.36,.43-6.6,1.22-9.69,2.31-.43-.7-.88-1.41-1.32-2.1-1.46-2.25-3.01-4.44-4.64-6.57,2.46-1.52,5.07-2.81,7.8-3.87,2.73-1.05,5.58-1.85,8.53-2.39,1.19-.22,2.39-.39,3.61-.52Z"/><path class="cls-13" d="M46.92,33.19c-1.17,1.5-2.3,3.03-3.39,4.59-.24,.35-.47,.69-.7,1.04-2.37,.45-4.67,1.09-6.89,1.88,.06-.31,.1-.63,.15-.94,0-.01,0-.03,0-.04l.04-.31c.03-.17,.05-.35,.08-.53l.04-.35c.02-.14,.03-.27,.05-.41,.49-.25,.97-.5,1.46-.76,1.54-.82,3.06-1.68,4.55-2.58,1.3-.77,2.58-1.58,3.84-2.42,.54-.36,1.18,.32,.77,.84Z"/><path class="cls-12" d="M42.82,38.82c-2.23,3.3-4.27,6.75-6.1,10.35-.81-.58-1.65-1.13-2.51-1.66-1.09-.67-2.2-1.29-3.34-1.87,1.52-1.45,2.94-3,4.25-4.64,.13-.06,.26-.1,.4-.15,.13-.05,.27-.1,.4-.15,2.22-.79,4.53-1.43,6.89-1.88Z"/><path class="cls-7" d="M36.72,49.18c-1.23,2.43-2.37,4.92-3.41,7.48-1.22,.13-2.42,.3-3.61,.52-2.94,.54-5.8,1.34-8.53,2.39-2.74,1.06-5.35,2.35-7.8,3.87-.66-.86-1.34-1.72-2.04-2.56-.93-1.13-1.89-2.25-2.88-3.33,2.25-.48,4.43-1.12,6.54-1.91,5.97-2.23,11.36-5.65,15.88-9.98,1.14,.58,2.26,1.2,3.34,1.87,.86,.53,1.69,1.08,2.51,1.66Z"/><path class="cls-8" d="M30.88,45.65c-4.52,4.32-9.91,7.74-15.88,9.98-2.11,.79-4.3,1.43-6.54,1.91-1.19-1.33-2.43-2.62-3.7-3.88,7.92-1.58,15.1-5.17,21.02-10.21,.78,.29,1.55,.59,2.32,.92,.95,.4,1.87,.84,2.78,1.3Z"/><path class="cls-9" d="M36.3,38.11c-.01,.14-.03,.27-.05,.41l-.04,.35c-.03,.18-.05,.36-.08,.53l-.04,.31s0,.03,0,.04c-.05,.31-.1,.63-.15,.94-.13,.05-.27,.1-.4,.15-.13,.05-.26,.1-.4,.15-2.45,.93-4.8,2.05-7.04,3.35-.77-.33-1.54-.63-2.32-.92,.48-.4,.95-.82,1.41-1.25h0c3.11-1.2,6.15-2.56,9.11-4.07Z"/><path class="cls-11" d="M27.18,42.18c-.46,.43-.93,.85-1.41,1.25-5.92,5.04-13.1,8.63-21.02,10.21-1.47-1.46-2.99-2.88-4.55-4.25-.39-.33-.18-.97,.33-1.01,8.35-.74,16.49-2.54,24.23-5.31,.81-.29,1.62-.59,2.42-.9Z"/><path class="cls-6" d="M35.13,41c-1.32,1.64-2.74,3.2-4.25,4.64-.91-.46-1.84-.89-2.78-1.3,2.23-1.3,4.59-2.42,7.04-3.35Z"/><path class="cls-4" d="M50.17,11.64c-.06-.04-.13-.08-.19-.13-.01-.01-.03-.03-.06-.04-.1-.07-.2-.14-.29-.21-.04-.03-.08-.06-.13-.09-.1-.08-.2-.15-.3-.22-.19-.15-.4-.3-.59-.45-.07-.06-.15-.12-.22-.17-.08-.07-.17-.14-.26-.21-.04-.03-.09-.07-.13-.1-.13-.11-.26-.22-.4-.33-.1-.08-.2-.17-.31-.25-.1-.08-.2-.17-.3-.25-.06-.04-.1-.09-.16-.13-.19-.17-.38-.33-.56-.49-.03-.03-.07-.06-.1-.1-.03-.03-.07-.06-.1-.09-.09-.08-.17-.16-.26-.24l-.25-.23c-.17-.15-.33-.31-.49-.47-1.07-1.01-2.09-2.07-3.06-3.17-.65-.74-1.27-1.5-1.87-2.28,.5-.31,1-.61,1.51-.91,.63-.36,1.28-.7,1.94-1.02,.04-.02,.08-.03,.13-.05,0,.02,.02,.03,.03,.05,0-.01,0-.03-.01-.05,.26-.06,.54,.1,.65,.36,.33,.84,.68,1.68,1.04,2.51,1.07,2.43,2.3,4.78,3.68,7.05,.35,.57,.7,1.14,1.08,1.71Z"/><path class="cls-4" d="M88.57,13.4c-.28,1.87-.64,3.73-1.1,5.6-.2,.8-.41,1.59-.64,2.38-.23,.79-.47,1.57-.73,2.33-.79,.04-1.59,.06-2.4,.06-3.8,0-7.5-.47-11.03-1.34h0c-.1-.84-.21-1.67-.35-2.5-.42-2.62-1.01-5.2-1.76-7.73,3.54,.88,7.25,1.35,11.07,1.35,2.34,0,4.64-.18,6.88-.52,.06,.11,.08,.23,.06,.35Z"/><path class="cls-2" d="M88.51,13.04c-2.24,.34-4.54,.52-6.88,.52-3.82,0-7.52-.47-11.07-1.35-.45-1.5-.95-2.97-1.51-4.42-.13-.34,.08-.73,.45-.78,3.13-.44,6.41-.25,9.64,.69,3.56,1.03,6.68,2.84,9.24,5.19,.05,.05,.09,.1,.12,.16Z"/><path class="cls-6" d="M89.54,51.82v.02c-.56,.99-1.06,2-1.51,3.02-.68,1.53-1.24,3.09-1.7,4.66-3.16-1.76-6.64-3.01-10.35-3.62,3.38-.87,6.68-2.03,9.87-3.47,.99-.45,1.96-.92,2.92-1.41,.51-.27,1.05,.29,.77,.8Z"/><path class="cls-19" d="M86.33,59.52c-.65,2.22-1.08,4.48-1.3,6.74-4.5-4.51-10.33-7.69-16.86-8.88,2.64-.32,5.25-.82,7.81-1.48,3.7,.61,7.19,1.85,10.35,3.62Z"/><path class="cls-15" d="M85.01,73.38c.03,.36-.27,.67-.63,.64-3.85-.41-7.68-1.19-11.46-2.36-3.9-1.21-7.73-2.83-11.44-4.88-.57-.31-1.13-.63-1.68-.96,.08-1.33,.25-2.64,.49-3.92,.26-1.39,.61-2.75,1.05-4.07,2.29-.02,4.57-.17,6.84-.45,6.53,1.19,12.36,4.37,16.86,8.88-.23,2.38-.24,4.76-.02,7.12Z"/></g></g><g><g><g><rect class="cls-16" x="213.94" y="29.99" width="13.82" height="4.27"/><path class="cls-16" d="M213.94,43.81v4.27h4.6c.6,0,.9,.72,.48,1.15l-5.16,5.16,3.02,3.02,5.46-5.46c.42-.42,1.15-.12,1.15,.48v5.21h4.27v-13.82h-13.82Z"/><path class="cls-16" d="M234.73,53.36h-4.34v4.27h11.18v-13.82h-4.27v6.98c0,1.42-1.15,2.57-2.57,2.57Z"/><rect class="cls-16" x="213.94" y="36.9" width="6.91" height="4.27"/><path class="cls-16" d="M225.62,36.9h0c-1.18,0-2.13,.96-2.13,2.13h0c0,1.18,.96,2.13,2.13,2.13h0c1.18,0,2.13-.96,2.13-2.13h0c0-1.18-.96-2.13-2.13-2.13Z"/><rect class="cls-16" x="230.39" y="29.99" width="11.18" height="4.27"/><path class="cls-16" d="M230.39,36.9v13.82h4.27v-6.98c0-1.42,1.15-2.57,2.57-2.57h4.34v-4.27h-11.18Z"/></g><g><path class="cls-16" d="M189.71,34.26h10.36v-4.27h-27.63v4.27h10.36c.73,0,1.32,.58,1.32,1.32s-.59,1.32-1.32,1.32h-10.36v4.27h2.34c.3,0,.45,.36,.24,.58l-1.7,1.7c-.23,.23-.55,.36-.88,.36v4.27h22.04c.73,0,1.32,.59,1.32,1.32s-.59,1.32-1.32,1.32h-3.45v4.27h9.04v-11.18c-.33,0-.65-.13-.88-.36l-1.7-1.7c-.22-.22-.06-.58,.24-.58h2.34v-4.27h-10.36c-.73,0-1.32-.59-1.32-1.32s.59-1.32,1.32-1.32Zm-5.59,9.17c0,.21-.17,.38-.38,.38h-3.94c-.3,0-.45-.36-.24-.58l1.67-1.67c.25-.25,.58-.39,.94-.39h1.57c.21,0,.38,.17,.38,.37v1.89Zm4.64-2.26h1.57c.35,0,.69,.14,.93,.39l1.68,1.67c.22,.22,.06,.58-.24,.58h-3.95c-.2,0-.37-.17-.37-.38v-1.89c0-.2,.17-.37,.37-.37Z"/><path class="cls-16" d="M172.43,54.99h9.04c1.46,0,2.64,1.18,2.64,2.64h4.27v-6.91h-15.95v4.27Z"/></g><g><path class="cls-16" d="M131.01,29.99v27.64h27.63V29.99h-27.63Zm4.27,15.62v-10.35c0-.55,.45-1,1-1h10.36c.88,0,1.33,1.07,.7,1.7l-10.35,10.36c-.63,.63-1.71,.18-1.71-.71Zm19.1,6.72c0,.56-.46,1.02-1.02,1.02h-14.89c-.92,0-1.37-1.1-.73-1.75l14.9-14.89c.64-.65,1.75-.19,1.75,.72v14.89Z"/><path class="cls-16" d="M149.25,45.58c-1.25-.1-2.29,.94-2.19,2.19,.08,.99,.88,1.78,1.86,1.86,1.25,.1,2.29-.94,2.19-2.19-.08-.99-.88-1.78-1.86-1.86Z"/></g></g><g><g><path class="cls-16" d="M135.63,64.77c-.13-.09-.35-.22-.59-.22-.06,0-.14,0-.2,.05-.04,.03-.05,.06-.05,.1,0,.06,0,.12,.17,.15l.33,.07c.25,.06,.41,.16,.49,.25,.18,.18,.22,.4,.22,.57,0,.25-.06,.48-.26,.68-.16,.17-.48,.37-1.02,.37-.44,0-.74-.13-.98-.23l-.09-.04,.32-.81,.11,.09c.11,.08,.33,.21,.58,.21,.14,0,.2-.03,.22-.05,.05-.04,.06-.09,.06-.13,0-.03,0-.07-.03-.1-.03-.03-.09-.05-.2-.07l-.26-.05c-.16-.03-.34-.08-.5-.25-.15-.15-.21-.32-.21-.53,0-.27,.09-.5,.28-.69,.22-.23,.54-.37,1-.37,.23,0,.53,.04,.88,.25l-.28,.73Z"/><path class="cls-16" d="M144.02,66.73v-2.88h1.01v.98h.64v-.98h1.01v2.88h-1.01v-1h-.64v1h-1.01Z"/><path class="cls-16" d="M154.82,66.73v-2.88h1.05v2.88h-1.05Z"/></g><g><path class="cls-16" d="M180.34,66.73v-2.88h1v.89c0,.13,0,.23-.02,.36h.02c.06-.16,.1-.23,.15-.32l.5-.93h1.13l-.9,1.41,.99,1.47h-1.21l-.53-.93c-.05-.09-.1-.19-.14-.28h-.02c.02,.1,.02,.18,.02,.27v.93h-1Z"/><path class="cls-16" d="M191.11,66.73v-2.88h1.05v2.88h-1.05Z"/></g><g><path class="cls-16" d="M218.54,64.77c-.13-.09-.35-.22-.59-.22-.06,0-.14,0-.2,.05-.04,.03-.05,.06-.05,.1,0,.06,0,.12,.17,.15l.33,.07c.25,.06,.41,.16,.49,.25,.18,.18,.22,.4,.22,.57,0,.25-.06,.48-.26,.68-.16,.17-.48,.37-1.02,.37-.44,0-.74-.13-.98-.23l-.09-.04,.32-.81,.11,.09c.11,.08,.33,.21,.58,.21,.14,0,.2-.03,.22-.05,.05-.04,.06-.09,.06-.13,0-.03,0-.07-.03-.1-.03-.03-.09-.05-.2-.07l-.26-.05c-.16-.03-.34-.08-.5-.25-.15-.15-.21-.32-.21-.53,0-.27,.09-.5,.28-.69,.22-.23,.54-.37,1-.37,.23,0,.53,.04,.88,.25l-.28,.73Z"/><path class="cls-16" d="M227.83,66.37l-.08,.36h-1.11l1-2.88h1.16l1.03,2.88h-1.11l-.1-.36h-.8Zm.42-1.56h-.04c0,.12-.02,.22-.05,.32l-.14,.55h.42l-.13-.55c-.03-.11-.04-.22-.06-.32Z"/><path class="cls-16" d="M237.69,66.73v-2.88h1.05v2.88h-1.05Z"/></g></g></g></g></g></svg>