<svg xmlns="http://www.w3.org/2000/svg" width="47.7" height="27.78" viewBox="0 0 47.7 27.78"><path fill="#fff" d="M9.03 0a8.5 8.5 0 0 1 4.89 1.35 8 8 0 0 1 2.74 3.43c1.28 2.86 1.44 6.47 1.44 9.29 0 4.64-.68 7.98-2.08 10.2-1.49 2.36-3.77 3.51-6.99 3.51-3.24 0-5.53-1.2-7.01-3.64C.66 21.89 0 18.55 0 13.95 0 4.3 2.79 0 9.03 0m0 27.48c3.1 0 5.31-1.1 6.73-3.36 1.37-2.19 2.04-5.47 2.04-10.05C17.8 7.66 16.8.3 9.03.3 5.97.3 3.8 1.37 2.39 3.58S.3 9.18.3 13.95c0 4.55.65 7.83 1.97 10.03 1.42 2.36 3.63 3.5 6.76 3.5M28.63.16h4.71v22.56h4.4v4.66H22.72v-4.66h4.48V7.47a18 18 0 0 1-4.26 3.13l-.22.12V5.14l.08-.04A16 16 0 0 0 28.59.22Zm4.4.3H28.8a17 17 0 0 1-5.77 4.86v4.9A18 18 0 0 0 27.24 7l.26-.25v16.27h-4.48v4.06h14.42v-4.06h-4.4Zm-24 3.82c1.38 0 2.17.76 2.55 2.45a39 39 0 0 1 .36 7.1 34 34 0 0 1-.5 7.59c-.4 1.46-1.1 2.08-2.37 2.08-2.5 0-2.91-2.39-2.91-9.55 0-5.82 0-9.67 2.87-9.67m.04 18.92c1.14 0 1.73-.52 2.09-1.86a35 35 0 0 0 .48-7.51c0-6.58-.1-9.25-2.61-9.25-1.2 0-1.88.76-2.23 2.47a39 39 0 0 0-.34 6.9c0 7.44.51 9.25 2.61 9.25m32.89-2.04h5.74v6.22h-5.74Zm5.44.3h-5.14v5.62h5.14Z"/></svg>