<svg xmlns="http://www.w3.org/2000/svg" width="47.7" height="27.78" viewBox="0 0 47.7 27.78"><path fill="#fff" d="M9.03 0a8.5 8.5 0 0 1 4.89 1.35 8 8 0 0 1 2.74 3.43c1.28 2.86 1.44 6.47 1.44 9.29 0 4.64-.68 7.98-2.08 10.2-1.49 2.36-3.77 3.51-6.99 3.51-3.24 0-5.53-1.2-7.01-3.64C.66 21.89 0 18.55 0 13.95 0 4.3 2.79 0 9.03 0m0 27.48c3.1 0 5.31-1.1 6.73-3.36 1.37-2.19 2.04-5.47 2.04-10.05C17.8 7.66 16.8.3 9.03.3 5.97.3 3.8 1.37 2.39 3.58S.3 9.18.3 13.95c0 4.55.65 7.83 1.97 10.03 1.42 2.36 3.63 3.5 6.76 3.5M29.23 0a8.6 8.6 0 0 1 6.3 2.34 8 8 0 0 1 2.13 5.61 10.5 10.5 0 0 1-1.62 5.48c-2.18 3.62-7.11 7.09-9.14 8.41h11.13l-.46 5.54H20.24v-5.46l.05-.05a91 91 0 0 0 6.31-5.7c3.91-3.88 4.6-5.65 4.6-7.94a4 4 0 0 0-.6-2.4 2 2 0 0 0-1.73-.77c-1.77 0-2.65 1.46-2.97 4.9l-.01.16-5.67-1.14.03-.14a11.7 11.7 0 0 1 2.92-6.61A8.3 8.3 0 0 1 29.23 0m8.48 22.14H25.88l.43-.28c1.64-1.04 7.15-4.73 9.47-8.59a10 10 0 0 0 1.58-5.32c0-4.65-3.2-7.65-8.13-7.65-4.9 0-7.73 2.76-8.67 8.45l5.06 1.02a9 9 0 0 1 .88-3.57 2.5 2.5 0 0 1 2.37-1.44 2.3 2.3 0 0 1 1.96.9 4.2 4.2 0 0 1 .67 2.57 7 7 0 0 1-.88 3.54 21 21 0 0 1-3.8 4.6 93 93 0 0 1-6.28 5.7v5.01h16.75ZM9.03 4.28c1.38 0 2.17.76 2.55 2.45a39 39 0 0 1 .36 7.1 34 34 0 0 1-.5 7.59c-.4 1.46-1.1 2.08-2.37 2.08-2.5 0-2.91-2.39-2.91-9.55 0-5.82 0-9.67 2.87-9.67m.04 18.92c1.14 0 1.73-.52 2.09-1.86a35 35 0 0 0 .48-7.51c0-6.58-.1-9.25-2.61-9.25-1.2 0-1.88.76-2.23 2.47a39 39 0 0 0-.34 6.9c0 7.44.51 9.25 2.61 9.25m32.89-2.04h5.74v6.22h-5.74Zm5.44.3h-5.14v5.62h5.14Z"/></svg>