<svg xmlns="http://www.w3.org/2000/svg" width="47.7" height="27.78" viewBox="0 0 47.7 27.78"><path fill="#fff" d="M9.03 0a8.5 8.5 0 0 1 4.89 1.35 8 8 0 0 1 2.74 3.43c1.28 2.86 1.44 6.47 1.44 9.29 0 4.64-.68 7.98-2.08 10.2-1.49 2.36-3.77 3.51-6.99 3.51-3.24 0-5.53-1.2-7.01-3.64C.66 21.89 0 18.55 0 13.95 0 4.3 2.79 0 9.03 0m0 27.48c3.1 0 5.31-1.1 6.73-3.36 1.37-2.19 2.04-5.47 2.04-10.05C17.8 7.66 16.8.3 9.03.3 5.97.3 3.8 1.37 2.39 3.58S.3 9.18.3 13.95c0 4.55.65 7.83 1.97 10.03 1.42 2.36 3.63 3.5 6.76 3.5M29.31 0a8.5 8.5 0 0 1 5.84 1.92 7 7 0 0 1 2.15 5.39 6 6 0 0 1-3.66 5.9q4.21 1.56 4.22 6.38a7.8 7.8 0 0 1-2.55 6.14 9.5 9.5 0 0 1-6.32 2.05 9.7 9.7 0 0 1-6.04-1.86 8.8 8.8 0 0 1-3.19-6.15l-.02-.15 5.5-.88.02.15c.27 2.65 1.3 3.83 3.33 3.83 1.86 0 2.93-1.29 2.93-3.53q-.01-3.48-3.77-3.49H25.8v-4.58h1.87a4.6 4.6 0 0 0 2.35-.5A2.8 2.8 0 0 0 31.2 8c0-1.17-.33-3.13-2.53-3.13-1.56 0-2.43.95-2.9 3.16l-.02.15-5.43-1.02.05-.16Q22.38.01 29.3 0m-.32 27.48c5.29 0 8.57-3.02 8.57-7.89q0-4.81-4.38-6.22l-.38-.12.37-.16A5.74 5.74 0 0 0 37 7.31C37 2.92 34.13.3 29.31.3c-4.4 0-7.3 2.22-8.6 6.61l4.8.9c.5-2.25 1.49-3.25 3.16-3.25a2.5 2.5 0 0 1 2.2 1.03 4 4 0 0 1 .63 2.4 3.1 3.1 0 0 1-1.32 2.89 5 5 0 0 1-2.5.53H26.1v3.98h1.65c2.66 0 4.07 1.32 4.07 3.8a4.4 4.4 0 0 1-.8 2.77 3 3 0 0 1-2.43 1.06c-2.15 0-3.3-1.25-3.61-3.94l-4.9.8c.64 4.83 3.88 7.6 8.91 7.6M9.03 4.28c1.38 0 2.17.76 2.55 2.45a39 39 0 0 1 .36 7.1 34 34 0 0 1-.5 7.59c-.4 1.46-1.1 2.08-2.37 2.08-2.5 0-2.91-2.39-2.91-9.55 0-5.82 0-9.67 2.87-9.67m.04 18.92c1.14 0 1.73-.52 2.09-1.86a35 35 0 0 0 .48-7.51c0-6.58-.1-9.25-2.61-9.25-1.2 0-1.88.76-2.23 2.47a39 39 0 0 0-.34 6.9c0 7.44.51 9.25 2.61 9.25m32.89-2.04h5.74v6.22h-5.74Zm5.44.3h-5.14v5.62h5.14Z"/></svg>