<svg xmlns="http://www.w3.org/2000/svg" width="47.7" height="27.78" viewBox="0 0 47.7 27.78"><path fill="#fff" d="M9.03 0a8.5 8.5 0 0 1 4.89 1.35 8 8 0 0 1 2.74 3.43c1.28 2.86 1.44 6.47 1.44 9.29 0 4.64-.68 7.98-2.08 10.2-1.49 2.36-3.77 3.51-6.99 3.51-3.24 0-5.53-1.2-7.01-3.64C.66 21.89 0 18.55 0 13.95 0 4.3 2.79 0 9.03 0m0 27.48c3.1 0 5.31-1.1 6.73-3.36 1.37-2.19 2.04-5.47 2.04-10.05C17.8 7.66 16.8.3 9.03.3 5.97.3 3.8 1.37 2.39 3.58S.3 9.18.3 13.95c0 4.55.65 7.83 1.97 10.03 1.42 2.36 3.63 3.5 6.76 3.5M22.61.4h14.55l-.6 5.54h-9.43l-.29 5.4a5.4 5.4 0 0 1 4.23-1.98 7 7 0 0 1 5.18 2.04q2.28 2.34 2.29 6.83 0 4.6-2.44 7.1a9 9 0 0 1-6.67 2.45 9.3 9.3 0 0 1-6.12-2.04 8.2 8.2 0 0 1-2.83-5.61l-.01-.14 5.6-.93.03.15c.36 2.46 1.35 3.51 3.33 3.51 2.59 0 3.13-2.26 3.13-4.17 0-2.58-1.21-4.13-3.25-4.13a2.7 2.7 0 0 0-2.78 1.99l-.05.11-4.85-.93Zm14.21.3H22.9l-.94 14.65 4.35.83a2.95 2.95 0 0 1 3.01-2.06 3.2 3.2 0 0 1 2.66 1.25 5.2 5.2 0 0 1 .9 3.18 5.6 5.6 0 0 1-.8 3.2 3 3 0 0 1-2.64 1.27 3.3 3.3 0 0 1-2.4-.83 5 5 0 0 1-1.2-2.79l-5.03.83c.51 4.4 3.89 7.25 8.63 7.25 5.6 0 8.81-3.38 8.81-9.25 0-5.37-2.68-8.57-7.17-8.57a5.2 5.2 0 0 0-4.28 2.22l-.3.38.36-6.62h9.45ZM9.03 4.28c1.38 0 2.17.76 2.55 2.45a39 39 0 0 1 .36 7.1 34 34 0 0 1-.5 7.59c-.4 1.46-1.1 2.08-2.37 2.08-2.5 0-2.91-2.39-2.91-9.55 0-5.82 0-9.67 2.87-9.67m.04 18.92c1.14 0 1.73-.52 2.09-1.86a35 35 0 0 0 .48-7.51c0-6.58-.1-9.25-2.61-9.25-1.2 0-1.88.76-2.23 2.47a39 39 0 0 0-.34 6.9c0 7.44.51 9.25 2.61 9.25m32.89-2.04h5.74v6.22h-5.74Zm5.44.3h-5.14v5.62h5.14Z"/></svg>