<svg xmlns="http://www.w3.org/2000/svg" width="47.7" height="27.78" viewBox="0 0 47.7 27.78"><path fill="#fff" d="M9.03 0a8.5 8.5 0 0 1 4.89 1.35 8 8 0 0 1 2.74 3.43c1.28 2.86 1.44 6.47 1.44 9.29 0 4.64-.68 7.98-2.08 10.2-1.49 2.36-3.77 3.51-6.99 3.51-3.24 0-5.53-1.2-7.01-3.64C.66 21.89 0 18.55 0 13.95 0 4.3 2.79 0 9.03 0m0 27.48c3.1 0 5.31-1.1 6.73-3.36 1.37-2.19 2.04-5.47 2.04-10.05C17.8 7.66 16.8.3 9.03.3 5.97.3 3.8 1.37 2.39 3.58S.3 9.18.3 13.95c0 4.55.65 7.83 1.97 10.03 1.42 2.36 3.63 3.5 6.76 3.5M30.51 0a7.7 7.7 0 0 1 5.26 1.78 9.5 9.5 0 0 1 2.8 5.46l.03.13-5.01 1.5-.03-.18q-.64-4.1-3.21-4.11a2.6 2.6 0 0 0-1.9.76c-1.02 1.02-1.47 3.15-1.58 7.52a5.4 5.4 0 0 1 4.76-2.62 6.6 6.6 0 0 1 5.02 2.27 9.3 9.3 0 0 1 2.09 6.24 9.2 9.2 0 0 1-2.56 6.89 8.2 8.2 0 0 1-5.71 2.14c-3.21 0-5.52-1.1-7.04-3.37s-2.27-5.7-2.27-10.5c0-4.73.88-8.32 2.62-10.67A7.9 7.9 0 0 1 30.5 0m7.75 7.17Q36.82.32 30.5.3a7.6 7.6 0 0 0-6.49 3.11c-1.7 2.3-2.56 5.83-2.56 10.5 0 4.74.72 8.12 2.21 10.34 1.47 2.17 3.7 3.23 6.8 3.23 3.68 0 7.97-2.28 7.97-8.73 0-4.83-2.8-8.2-6.8-8.2a5.2 5.2 0 0 0-4.8 2.95l-.28-.07c.08-4.85.55-7.17 1.68-8.3a2.8 2.8 0 0 1 2.11-.84q2.78 0 3.48 4.2ZM9.03 4.28c1.38 0 2.17.76 2.55 2.45a39 39 0 0 1 .36 7.1 34 34 0 0 1-.5 7.59c-.4 1.46-1.1 2.08-2.37 2.08-2.5 0-2.91-2.39-2.91-9.55 0-5.82 0-9.67 2.87-9.67m.04 18.92c1.14 0 1.73-.52 2.09-1.86a35 35 0 0 0 .48-7.51c0-6.58-.1-9.25-2.61-9.25-1.2 0-1.88.76-2.23 2.47a39 39 0 0 0-.34 6.9c0 7.44.51 9.25 2.61 9.25m20.92-8.68q3.09-.02 3.07 4.27a6.4 6.4 0 0 1-.8 3.6 2.7 2.7 0 0 1-2.35 1.15c-1.98 0-3.11-1.61-3.11-4.43a6 6 0 0 1 .83-3.43 2.7 2.7 0 0 1 2.36-1.16m-.08 8.72c1.94 0 2.85-1.41 2.85-4.45 0-2.7-.88-3.97-2.77-3.97-2.39 0-2.89 2.33-2.89 4.29 0 2.66 1 4.13 2.81 4.13m12.05-2.08h5.74v6.22h-5.74Zm5.44.3h-5.14v5.62h5.14Z"/></svg>