<svg xmlns="http://www.w3.org/2000/svg" width="47.7" height="27.78" viewBox="0 0 47.7 27.78"><path fill="#fff" d="M9.03 0a8.5 8.5 0 0 1 4.89 1.35 8 8 0 0 1 2.74 3.43c1.28 2.86 1.44 6.47 1.44 9.29 0 4.64-.68 7.98-2.08 10.2-1.49 2.36-3.77 3.51-6.99 3.51-3.24 0-5.53-1.2-7.01-3.64C.66 21.89 0 18.55 0 13.95 0 4.3 2.79 0 9.03 0m0 27.48c3.1 0 5.31-1.1 6.73-3.36 1.37-2.19 2.04-5.47 2.04-10.05C17.8 7.66 16.8.3 9.03.3 5.97.3 3.8 1.37 2.39 3.58S.3 9.18.3 13.95c0 4.55.65 7.83 1.97 10.03 1.42 2.36 3.63 3.5 6.76 3.5M29.59 0q4.2 0 6.4 2.07a6.6 6.6 0 0 1 1.95 4.92 6.3 6.3 0 0 1-3.26 5.68 7.8 7.8 0 0 1 3.98 6.88 7.8 7.8 0 0 1-2.37 5.83 10 10 0 0 1-7.1 2.4q-4.34 0-6.68-2.1a7 7 0 0 1-2.19-5.37c0-2.09.51-4.29 4.18-6.25a7 7 0 0 1-3.42-6.23 7.8 7.8 0 0 1 2-5.4A8.7 8.7 0 0 1 29.59 0m-.4 27.48c5.66 0 9.17-3.04 9.17-7.93a7.5 7.5 0 0 0-4.05-6.75l-.21-.13.21-.13A6 6 0 0 0 37.64 7c0-4.25-2.93-6.69-8.05-6.69-6.06 0-8.21 4.06-8.21 7.53a6.8 6.8 0 0 0 3.49 6.11l.22.14-.23.12c-3.73 1.93-4.24 4.08-4.24 6.11 0 4.56 3.12 7.17 8.57 7.17m.6-23.68c1.92 0 3.11 1.31 3.11 3.43 0 1.35-.48 2.3-1.92 3.79l-.07.07-.1-.04c-2.21-.98-4.25-2.16-4.25-4.18a3 3 0 0 1 .9-2.21 3.3 3.3 0 0 1 2.33-.86m1.05 6.93c1.31-1.37 1.76-2.26 1.76-3.5 0-1.96-1.05-3.13-2.81-3.13a2.73 2.73 0 0 0-2.93 2.77c0 1.48 1.15 2.6 3.98 3.86M9.03 4.28c1.38 0 2.17.76 2.55 2.45a39 39 0 0 1 .36 7.1 34 34 0 0 1-.5 7.59c-.4 1.46-1.1 2.08-2.37 2.08-2.5 0-2.91-2.39-2.91-9.55 0-5.82 0-9.67 2.87-9.67m.04 18.92c1.14 0 1.73-.52 2.09-1.86a35 35 0 0 0 .48-7.51c0-6.58-.1-9.25-2.61-9.25-1.2 0-1.88.76-2.23 2.47a39 39 0 0 0-.34 6.9c0 7.44.51 9.25 2.61 9.25m19.11-7.38.07.03c3.69 1.65 4.93 2.81 4.93 4.62 0 1.9-1.58 3.27-3.75 3.27a3.63 3.63 0 0 1-3.95-3.87c0-1.71.79-2.9 2.63-4Zm1.25 7.62c2 0 3.45-1.25 3.45-2.97 0-1.65-1.18-2.74-4.68-4.31-1.72 1.04-2.42 2.12-2.42 3.71a3.35 3.35 0 0 0 3.65 3.57m12.53-2.28h5.74v6.22h-5.74Zm5.44.3h-5.14v5.62h5.14Z"/></svg>