<svg width="259" height="48" viewBox="0 0 259 48" xmlns="http://www.w3.org/2000/svg"><g clip-path="url(#a)"><path d="M253.57 38.34V23.89h5.03v14.45c0 9.39-7.63 9.42-9.93 9.38h-26.65V42.9h26.67s4.88-.02 4.88-4.55" fill="#0B0E0F"/><path d="M252.32 7.6 235.2 25.5h6l17.4-17.9z" fill="#DE0D22"/><path d="M236.61 19.28V7.6h-5.03v11.68c0 9.39 7.62 9.42 9.93 9.38h7.92v-4.83h-7.94s-4.89-.02-4.89-4.55m-6.98 9.53h-5.1V14.2l5.1-4.7zM78.44 24.43c2.64 2.5 5.37 5.12 6.58 8.55.36 1.02.58 2.14.36 3.2a5.5 5.5 0 0 1-2.62 3.39c-4.8 2.97-11.95 3.2-17.43 3.24-6.03.06-12.04-.62-17.98-1.57-10.46-1.66-21.32-4.08-31-8.47a48 48 0 0 1-7.28-4.03c-2.15-1.46-4.3-3.16-5.78-5.33-1.06-1.56-1.75-3.5-.94-5.32 1.04-2.37 3.84-3.67 6.13-4.47a40 40 0 0 1 10.38-2q4.35-.29 8.7-.12 4.43.16 8.85.61A179 179 0 0 1 51.5 14.3q2.34.42 4.68.91l1.73.38q-4.98-1.3-10.01-2.35a157 157 0 0 0-9.21-1.62q-3.9-.57-7.84-.9a95 95 0 0 0-6.55-.3q-2.66-.03-5.3.13a53 53 0 0 0-6.56.83c-3.37.7-7.06 1.72-9.72 4-2.04 1.74-3.33 4.3-2.43 6.96 1.67 4.92 8.31 11.35 29.59 18.94A100 100 0 0 0 50.26 46c9.22 1.23 18.89 2.12 28.08.32 4.27-.83 10.19-2.23 12.1-6.71 1.06-2.53-.2-5.14-1.79-7.13 0 0-4.24-5.53-10.21-8.04" fill="#0B0E0F"/><path d="M109.73 12.35c-3.32 9.3 46.1-10.15 30.68-3.97-8.9 3.57-134 37.84-134 37.84L47.3 13.1a348 348 0 0 1 11.56 2.62c-4 1.02-13.59 6.43-13.59 6.43-19.98 12.8-1.7 12.35-1.7 12.35C74.82 32.01 124.06-.46 123.5.01c0 0-12.23 8.09-13.75 12.34m66.27 13.79-20.15 21.01h6.66l20.45-21z" fill="#DE0D22"/><path d="M164.6 4.22 139.19 30.5h6.65l25.73-26.28zm17.94 27.34v15.6h5.03v-15.6c0-9.39-7.62-9.42-9.93-9.38h-21.32v4.83h21.34s4.89.02 4.89 4.55m-9.91-21.08v.02h-5.03v-.02c0 9.39 7.63 9.42 9.93 9.38h19.19v-4.83h-19.2s-4.9-.02-4.9-4.55" fill="#0B0E0F"/><path d="m210.76 32.44-14.14 15h5.53l14.45-15z" fill="#DE0D22"/><path d="m216.51 32.43 5.51 6.38h-5.53l-5.82-6.38zm-2.26-25.36L200.6 19.91h6.92L221.5 7.07z" fill="#0B0E0F"/><path d="M216.58 32.43h-5.9V19.54l5.92-5.52z" fill="#0B0E0F"/><path d="M207.4 23.23v4.88h15.4v-4.88z" fill="#DE0D22"/></g><defs><clipPath id="a"><rect width="258.6" height="47.4495" fill="#fff"/></clipPath></defs></svg>
