<svg width="145" height="48" viewBox="0 0 145 48" xmlns="http://www.w3.org/2000/svg"><path d="M79.31 24.7c2.67 2.52 5.43 5.18 6.66 8.65a6 6 0 0 1 .36 3.24A5.6 5.6 0 0 1 83.69 40c-4.87 3-12.09 3.23-17.63 3.28-6.1.06-12.17-.63-18.18-1.58-10.58-1.68-21.56-4.14-31.35-8.58a49 49 0 0 1-7.36-4.07c-2.18-1.47-4.35-3.2-5.85-5.4-1.07-1.56-1.76-3.53-.95-5.37 1.06-2.4 3.9-3.7 6.2-4.52a40 40 0 0 1 10.5-2.02c2.93-.21 5.86-.22 8.8-.13q4.48.17 8.94.63a180 180 0 0 1 15.26 2.2q2.38.44 4.74.92l1.75.39q-5.03-1.33-10.13-2.38-4.63-.96-9.3-1.64-3.96-.58-7.94-.9-3.3-.28-6.62-.31-2.69-.03-5.36.13a54 54 0 0 0-6.64.84c-3.4.71-7.13 1.74-9.82 4.04C.69 17.3-.62 19.88.3 22.58c1.68 4.97 8.4 11.48 29.91 19.15a101 101 0 0 0 20.61 4.78c9.33 1.24 19.1 2.13 28.4.32 4.31-.84 10.3-2.26 12.22-6.8 1.09-2.55-.2-5.19-1.8-7.2 0 0-4.28-5.59-10.33-8.12z" fill="#0B0E0F"/><path d="M110.96 12.5c-3.36 9.4 46.6-10.27 31.02-4.02-9 3.6-135.5 38.25-135.5 38.25l41.36-33.48a350 350 0 0 1 11.69 2.65c-4.04 1.04-13.74 6.5-13.74 6.5-20.21 12.95-1.72 12.5-1.72 12.5C75.64 32.37 125.44-.47 124.87 0c0 0-12.37 8.19-13.9 12.5z" fill="#DE0D22"/></svg>
