<svg width="259" height="48" viewBox="0 0 259 48" xmlns="http://www.w3.org/2000/svg"><path d="M78.43 24.43c2.65 2.5 5.38 5.12 6.59 8.55.36 1.02.57 2.14.35 3.2a5.5 5.5 0 0 1-2.61 3.39c-4.8 2.97-11.95 3.2-17.43 3.24-6.03.06-12.04-.62-17.98-1.57-10.46-1.66-21.32-4.08-31-8.47a48 48 0 0 1-7.28-4.03c-2.15-1.46-4.3-3.16-5.78-5.33-1.06-1.56-1.75-3.5-.94-5.32 1.04-2.37 3.84-3.67 6.13-4.47a40 40 0 0 1 10.38-2q4.35-.29 8.7-.12 4.43.15 8.85.61A179 179 0 0 1 51.5 14.3q2.34.43 4.68.91l1.73.38q-4.98-1.3-10.01-2.35-4.59-.95-9.21-1.62-3.9-.57-7.84-.9a95 95 0 0 0-6.55-.3q-2.66-.03-5.3.13a53 53 0 0 0-6.56.83c-3.37.7-7.06 1.72-9.72 4C.68 17.1-.61 19.67.29 22.33c1.67 4.92 8.31 11.35 29.59 18.94a100 100 0 0 0 20.38 4.72c9.22 1.23 18.88 2.12 28.08.32 4.27-.83 10.19-2.23 12.09-6.71 1.07-2.53-.2-5.14-1.78-7.13 0 0-4.24-5.53-10.22-8.04" fill="#0B0E0F"/><path d="M109.73 12.36c-3.32 9.3 46.1-10.16 30.68-3.98-8.9 3.57-134 37.84-134 37.84L47.3 13.1a347 347 0 0 1 11.56 2.62c-4 1.02-13.59 6.43-13.59 6.43-19.98 12.8-1.7 12.35-1.7 12.35C74.82 32.01 124.06-.46 123.5.01c0 0-12.24 8.09-13.76 12.35m66.28 13.78-20.15 21.01h6.65l20.45-21zM164.6 4.21 139.17 30.5h6.65l25.74-26.3z" fill="#0B0E0F"/><path d="M182.53 31.56v15.6h5.03v-15.6c0-9.38-7.63-9.42-9.93-9.38H156.3v4.84h21.34s4.88.01 4.88 4.55m-9.9-21.09v.02h-5.03v-.02c0 9.39 7.62 9.42 9.93 9.38h19.19v-4.83H177.5s-4.89-.02-4.89-4.55m38.15 21.96L196.6 47.45h5.54l14.45-15z" fill="#0B0E0F"/><path d="m216.5 32.43 5.52 6.38h-5.53l-5.82-6.38zm37.07 5.23V23.21h5.03v14.45c0 9.39-7.63 9.42-9.93 9.38h-26.65v-4.83h26.67s4.88-.02 4.88-4.55M214.24 7.07l-13.66 12.84h6.92l13.98-12.84zm38.08-.15-17.13 17.9h6l17.4-17.9z" fill="#0B0E0F"/><path d="M236.6 18.6V6.92h-5.03V18.6c0 9.39 7.63 9.42 9.93 9.38h7.93v-4.83h-7.95s-4.89-.02-4.89-4.55m-6.98 9.54h-5.1V13.5l5.1-4.7zm-13.05 4.29h-5.9V19.54l5.93-5.52z" fill="#0B0E0F"/><path d="M207.4 23.23v4.88h15.4v-4.88z" fill="#0B0E0F"/></svg>
