<svg width="100" height="37" viewBox="0 0 100 37" xmlns="http://www.w3.org/2000/svg"><path d="m30.85 18.36-16.87 17.6h5.57l17.13-17.6zM21.3 0 0 22h5.57L27.12 0z" fill="#0B0E0F"/><path d="M36.3 22.9v13.06h4.21V22.9c0-7.86-6.38-7.89-8.31-7.86H14.35v4.05h17.87s4.09.02 4.09 3.81M28 5.25h.01v.02H23.8v-.02c0 7.86 6.39 7.88 8.31 7.85h16.07V9.05H32.1S28 9.04 28 5.25m31.94 18.39L48.1 36.2h4.63l12.1-12.56z" fill="#0B0E0F"/><path d="m64.75 23.62 4.62 5.35h-4.63l-4.88-5.35zM95.8 28h-.02V15.9H100V28c0 7.87-6.39 7.9-8.32 7.86h-22.3v-4.05H91.7s4.1-.01 4.1-3.8M62.86 2.4 51.42 13.13h5.8L68.91 2.4zm31.88-.13L80.4 17.26h5.02l14.58-15z" fill="#0B0E0F"/><path d="M81.58 12.05V2.27h-4.2v9.78c0 7.86 6.38 7.88 8.3 7.85h6.65v-4.05h-6.66s-4.09-.01-4.09-3.8m-5.85 7.98h-4.27V7.78l4.27-3.94zm-10.92 3.6h-4.94v-10.8l4.96-4.62z" fill="#0B0E0F"/><path d="M57.13 15.93V20h12.9v-4.07z" fill="#0B0E0F"/></svg>
