<svg width="100" height="37" viewBox="0 0 100 37" xmlns="http://www.w3.org/2000/svg"><path d="M95.8 28.57h-.02v-12.1H100v12.1c0 7.86-6.39 7.9-8.32 7.86h-22.3v-4.05H91.7s4.1-.01 4.1-3.8" fill="#0B0E0F"/><path d="m94.75 2.83-14.35 15h5.02l14.58-15z" fill="#DE0D22"/><path d="M81.59 12.61V2.83h-4.21v9.78c0 7.86 6.39 7.89 8.31 7.86h6.64v-4.05h-6.65s-4.1-.01-4.1-3.81m-5.85 7.99h-4.27V8.35l4.27-3.94z" fill="#0B0E0F"/><path d="m30.86 18.36-16.88 17.6h5.57l17.13-17.6z" fill="#DE0D22"/><path d="M21.3 0 0 22h5.57L27.12 0zm15 22.9v13.06h4.22V22.9c0-7.86-6.39-7.89-8.32-7.86H14.35v4.05h17.87s4.09.02 4.09 3.81M28 5.25h.02v.02H23.8v-.02c0 7.86 6.39 7.88 8.32 7.85h16.06V9.05H32.1S28 9.04 28 5.25" fill="#0B0E0F"/><path d="M59.94 23.64 48.1 36.2h4.63l12.1-12.56z" fill="#DE0D22"/><path d="m64.76 23.63 4.61 5.34h-4.63l-4.87-5.34zM62.86 2.4 51.42 13.13h5.8L68.92 2.4z" fill="#0B0E0F"/><path d="M64.81 23.63h-4.94v-10.8l4.96-4.62z" fill="#0B0E0F"/><path d="M57.13 15.93V20h12.9v-4.07z" fill="#DE0D22"/></svg>
