<svg xmlns="http://www.w3.org/2000/svg" viewBox="0 0 800 720"><defs><clipPath id="clippath"><path d="M800 0H320L0 720h480z" class="cls-2"/></clipPath><clipPath id="clippath-1"><path d="M564.1 368.19H456.54c-3.48 0-6.16-3.12-6.16-12.5v-74.8h89.83c.61 0 .94-.09.94-2.94 0-4.99 11.91-6.3 11.91-6.3H450.38v-65.69c0-20.28 22.35-22.01 32.08-22.01h68.8c.61 0 .94-.09.94-2.94q.02-1.04.64-1.89l11.46 11.46v-56.72c0-36.18 26.4-68.58 58.57-78.12l49.15 49.15V48.17c0-43.16 37.58-80.97 77.69-80.97h-51.49c-22.99 0-81.41 27.49-81.41 82.48l3.21 3.21H590.5c-22.99 0-81.41 27.49-81.41 82.48l39.34 39.34h-149.7s6.16 3.12 6.16 12.5v101h-50.65c-20.9 0-74.03 25-74.03 75v26.65H228.5c-20.9 0-74.03 25-74.03 75v53.29c0 5 .54 9.74 1.52 14.24H25.91s6.16 3.12 6.16 12.5v159.38c0 25-32.08 31.25-32.08 31.25h83.74c-3.48 0-6.16-3.12-6.16-12.5v-84.44h56.4v65.69c0 29.07-18.18 31.25-18.18 31.25h69.84c-3.48 0-6.16-3.12-6.16-12.5V570.93c16.71 14.82 37.63 22.23 49.01 22.23h63.83c-2.75-.48-2.85-2.41-2.85-3.34 0-4.99 11.91-6.3 11.91-6.3H275.3c-36.48 0-70.65-24.73-70.65-63.98V463.5c0-39.25 34.17-63.98 70.65-63.98h4.89v17c0 50 53.13 75 74.03 75h63.83c-2.75-.48-2.85-2.41-2.85-3.34 0-4.99 11.91-6.3 11.91-6.3h-26.07c-36.48 0-70.65-24.73-70.65-63.98v-56.04c0-39.25 34.17-63.98 70.65-63.98h3.83v48.74c0 25-32.08 31.25-32.08 31.25h182.23c-2.75-.48-2.85-2.41-2.85-3.34 0-4.99 11.91-6.3 11.91-6.3ZM133.97 629.33h-56.4v-65.69c0-20.28 22.35-22.01 32.08-22.01h24.33v87.7ZM782.46 108.1c0 54.99-58.42 82.48-81.41 82.48h-29.52l3.21 3.21c0 54.99-58.42 82.48-81.41 82.48h-51.49c40.11 0 77.69-37.8 77.69-80.97v-56.72l49.15 49.15c32.16-9.54 58.57-41.94 58.57-78.12V52.89z" class="cls-2"/></clipPath><style>.cls-2{fill:none;stroke-width:0}</style></defs><g id="_背景" data-name="背景" style="clip-path:url(#clippath)"><g style="clip-path:url(#clippath-1)"><path d="M800 0H320L0 720h480z" style="stroke-width:0;fill:#b31e23"/></g></g><g id="_ロゴ" data-name="ロゴ"><path d="M391.59 488.19 461.7 344.1a78.5 78.5 0 0 0 8.52-35.65 78.71 78.71 0 1 0-152.4 27.7l4.69 10.2z" style="stroke-width:11px;fill:none;stroke:#231815;stroke-miterlimit:10"/><circle cx="391.51" cy="308.44" r="47.35" style="fill:none;stroke:#231815;stroke-miterlimit:10;stroke-width:10px" transform="rotate(-84.35 391.48 308.44)"/><path d="M377.73 481.65h-14.9l-17.4 39.14h72.78l17.39-39.14h-28.25" style="fill:none;stroke:#231815;stroke-miterlimit:10;stroke-width:8px"/></g></svg>