<svg xmlns="http://www.w3.org/2000/svg" viewBox="0 0 800 720"><defs><clipPath id="clippath"><path d="M0 0h480l320 720H320z" class="cls-1"/></clipPath><clipPath id="clippath-1"><path d="M548.89 639.79h127.82l28.25 28.25v-42.06c0-32.01 27.87-60.04 57.61-60.04h-38.18c-17.05 0-60.37 20.39-60.37 61.16l4.83 4.83h-51.67c-2.84 0-5.03-2.55-5.03-10.19v-60.99h73.26c.5 0 .77-.07.77-2.4 0-4.07 9.71-5.14 9.71-5.14h-83.74v-53.57c0-16.54 18.23-17.95 26.16-17.95h56.1c.5 0 .77-.07.77-2.4 0-4.07 9.71-5.14 9.71-5.14H587.55l22.25-54.35c4.8-12.39 21.87-15.18 21.87-15.18h-37.98s6.1 3.44 6.1 7.57c0 3.14-11.56 32.26-23.69 61.95h-6.08s2.6 1.33 4.06 4.93c-12.76 31.14-25.47 61.37-25.47 61.37l-51.2-110.33c-9.21-18.19 9.23-25.48 9.23-25.48h-27.81V351.1c0-20.39 26.16-25.48 26.16-25.48h-67.24v-48.28c0-20.39 26.16-25.48 26.16-25.48h-68.29s5.03 2.55 5.03 10.19v68.75h-46.07v-53.57c0-20.39 26.16-25.48 26.16-25.48h-68.29s5.03 2.55 5.03 10.19v53.19c-29-.86-55.65-20.83-55.65-52.13v-22.9l1.35.05-1.35-1.46V217.3c0-32.01 27.87-52.17 57.61-52.17h13.87c-2.24-.39-2.32-1.97-2.32-2.73 0-4.07 9.71-5.14 9.71-5.14h-59.44c-14 0-45.71 13.75-56.6 41.24l-34.85-37.68h14.61c4.13 0 10.08-1.42 16.48-4.25l2.25-1.04c15.43-7.51 32.47-23.04 32.47-46.59L220.9 74.22H119.4V4.33c0-4.07 9.64-5.4 9.64-5.4H-5.84S-.82 1.48-.82 9.13V139.1c0 20.39-26.16 25.48-26.16 25.48h68.29c-2.84 0-5.03-2.55-5.03-10.19V85.53h46v53.57c0 23.71-14.83 25.48-14.83 25.48h49.86v49.8c0 20.39-26.16 25.48-26.16 25.48h68.29s-5.03-2.55-5.03-10.19v-68.86h20.99l46.01 49.91a55 55 0 0 0-.53 7.69v43.46c0 40.77 43.32 61.16 60.37 61.16h36.22v68.87c0 20.39-26.16 25.48-26.16 25.48h68.29s-5.03-2.55-5.03-10.19v-68.86h46.07v60.11c0 13.82-18.65 19.05-18.65 19.05h59.73v48.28c0 20.39-26.16 25.48-26.16 25.48h68.29s-5.03-2.55-5.03-10.19v-31.21c22.4 47.04 56.19 122.88 56.19 122.88h12.17l27.86-68.06v109.64c0 20.39-26.16 25.48-26.16 25.48ZM82.28 77.99h-46V24.42c0-16.54 18.23-17.95 26.16-17.95h19.84zm89.74 75.29h-17.61V99.71c0-16.54 18.23-17.95 26.16-17.95h36.74l3.57 3.57v24.57c0 27.15-23.63 43.38-48.86 43.38M437.74 407.3v-80.96c1.47 1.21 3.98 4.06 3.98 9.46v80.96c-1.47-1.21-3.98-4.06-3.98-9.46m349.12 263.12c0 40.77-43.32 61.16-60.37 61.16h-38.18c29.74 0 57.61-28.03 57.61-60.04v-42.06z" class="cls-1"/></clipPath><style>.cls-1,.cls-2{fill:none}.cls-1{stroke-width:0}.cls-2{stroke-width:6px;stroke:#231815;stroke-miterlimit:10}</style></defs><g id="_背景" data-name="背景" style="clip-path:url(#clippath)"><g style="clip-path:url(#clippath-1)"><path d="M0 0h480l320 720H320z" style="stroke-width:0;fill:#3452a2"/></g></g><g id="_ロゴ" data-name="ロゴ"><path d="M285.06 246.57h51.61v229.32h-51.61zm84.97 0h51.61v229.32h-51.61zm59.07 18.35 47.23-20.78 92.36 209.9-47.24 20.78z" style="fill:none;stroke:#231815;stroke-miterlimit:10;stroke-width:8px"/><path d="M299.65 267.52h22.44v123.67h-22.44z" class="cls-2"/><circle cx="310.87" cy="442.99" r="13.63" class="cls-2"/><path d="M384.61 267.52h22.44v123.67h-22.44z" class="cls-2"/><circle cx="395.83" cy="442.99" r="13.63" class="cls-2"/><path d="m450.87 278.24 20.54-9.04 49.81 113.2-20.54 9.04z" class="cls-2"/><circle cx="531.83" cy="434.29" r="13.63" class="cls-2"/></g></svg>