<svg xmlns="http://www.w3.org/2000/svg" viewBox="0 0 800 720"><defs><clipPath id="clippath"><path d="M0 0h480l320 720H320z" class="cls-2"/></clipPath><clipPath id="clippath-1"><path d="M801.75 620.34V723.9c0 7.14 5.96 7.14 5.96 7.14H533.63c13.01 0 36-10.71 36-25V556.06l.03-1.41c-18.13 14.2-39.18 21.3-51.09 21.3h-53.5c41.68 0 80.73-39.28 80.73-84.13V365.4c0-21.29-19.18-21.56-19.18-21.56h99.9s-23.36 0-23.36 20.62v125.79c0 6.72-.85 13.03-2.37 18.96 13.75-7.3 28.62-10.28 36.84-10.28h57.18c-49.79 0-68.05 35.71-68.05 57.14v156.2c0 11 .48 11.13 57.12 11.13 59.99 0 60.72-.1 60.72-12.43v-83.48c0-10.71-67.85-14.28-67.85-14.28H807.7c-4.75 0-5.96 3.57-5.96 7.14Zm-78.56-64.28h82.94s-3.24 0-3.24-3.36v-43.69c0-10.08 13.61-10.08 13.61-10.08h-82.94s3.25 0 3.25 3.36v43.69c0 10.08-13.61 10.08-13.61 10.08ZM462 575.95h-99.9s23.36 0 23.36-20.62V429.54a75 75 0 0 1 9.78-37.35H186.85s26.48-4.16 26.48-28.02V176.45c-13.15 32.31-50.51 48.47-67.05 48.47h-158.7s36.65-7.14 36.65-35.71V7.09c0-10.71-7.04-14.28-7.04-14.28h152.17l48.65 48.65c0 32.99-23.87 54.75-45.49 65.28l45.49 45.49q-.01 4.03-.47 7.84h84.42s-36.65 7.14-36.65 35.71v171.1c0 10.71 3.06 14.28 7.04 14.28h130.32c19.8-24.88 51.6-37.33 67.37-37.33h53.5c-41.68 0-80.73 39.28-80.73 84.13v126.42c0 21.29 19.18 21.56 19.18 21.56ZM169.36 108.19c-8.96 3.96-17.3 5.95-23.09 5.95H76.22v85.47c0 10.71 3.06 14.28 7.04 14.28h17.63c35.35 0 68.46-22.29 68.46-60.33zm0-104.83h-56.48c-11.11 0-36.65 1.97-36.65 25.15v75.07h24.67c35.35 0 68.46-22.75 68.46-60.79z" class="cls-2"/></clipPath><style>.cls-2,.cls-3{fill:none}.cls-3{stroke:#231815;stroke-width:7px}.cls-2{stroke-width:0}.cls-3{stroke-miterlimit:10}</style></defs><g id="_背景" data-name="背景" style="clip-path:url(#clippath)"><g style="clip-path:url(#clippath-1)"><path d="M0 0h480l320 720H320z" style="fill:#ae4193;stroke-width:0"/></g></g><g id="_ロゴ" data-name="ロゴ"><path d="M477.05 374.81V232.86a19.3 19.3 0 0 0-19.28-19.28H349.79l-59 59v164.26a19.3 19.3 0 0 0 19.28 19.28H433.6" style="fill:none;stroke:#231815;stroke-width:7px;stroke-linecap:round;stroke-linejoin:round"/><path d="m290.78 272.58 59-59v32.6a26.4 26.4 0 0 1-26.41 26.41h-32.6Z" style="fill:none;stroke:#231815;stroke-width:7px;stroke-linejoin:round"/><path d="M327.86 329.07h70.17M327.86 364h69.93m-69.93 34.92h80.22" style="fill:none;stroke:#231815;stroke-linecap:round;stroke-linejoin:round;stroke-width:10px"/><path d="M327.86 294.15H439" style="fill:none;stroke:#231815;stroke-linecap:round;stroke-miterlimit:10;stroke-width:10px"/><path d="m448.7 357.41-31.68-28.08c-.08-.07-.2-.01-.21.09l-.27 42.33 75.84 170.02c.68 1.53 2.48 2.22 4.01 1.53l26.62-11.87c1.53-.68 2.22-2.48 1.53-4.01L448.7 357.4Z" class="cls-3"/><path d="m416.72 344.44 11.54-5.15-11.44-10.14z" style="stroke:#231815;stroke-width:7px;stroke-miterlimit:10;fill:#231815"/><path d="m448.7 357.41-32.16 14.34M516.57 534.3 439.5 361.51m63.32 178.93-77.07-172.8" class="cls-3"/></g></svg>