<svg xmlns="http://www.w3.org/2000/svg" id="_レイヤー_1" data-name="レイヤー 1" viewBox="0 0 300 330"><defs><style>.cls-2{stroke-width:0}</style></defs><path d="M252.92 130.97c0-12.1 15.53-15.13 15.53-15.13h-40.53s2.98 1.51 2.98 6.05v77.15c0 12.1-15.53 15.13-15.53 15.13h40.53s-2.98-1.51-2.98-6.05zM55.86 176.44v-24.97c0-19 16.54-35.64 34.2-35.64H67.4c-10.12 0-35.83 12.1-35.83 36.3l24.3 24.3Zm24.31-22.88v24.97c0 19-16.54 35.64-34.2 35.64h22.66c10.12 0 35.83-12.1 35.83-36.3l-24.3-24.3Zm120.31 60.6h-88.21s15.53-3.03 15.53-15.13v-77.15c0-4.54-2.98-6.05-2.98-6.05h80.05s-5.76.63-5.76 3.05c0 1.38-.16 1.42-.46 1.42h-33.3c-4.71 0-15.53.84-15.53 10.65v31.8h49.7s-5.76.63-5.76 3.05c0 1.38-.16 1.42-.46 1.42h-43.48v36.2c0 4.54 1.3 6.05 2.98 6.05h52.06s-5.76.63-5.76 3.05c0 .45.05 1.39 1.38 1.62Zm83.99 32.64c0-12.1 15.53-15.13 15.53-15.13h-40.53s2.98 1.51 2.98 6.05v77.15c0 12.1-15.53 15.13-15.53 15.13h40.53s-2.98-1.51-2.98-6.05zM87.41 292.28v-24.97c0-19 16.54-35.64 34.2-35.64H98.95c-10.12 0-35.83 12.1-35.83 36.3l24.3 24.3Zm24.32-22.88v24.97c0 19-16.54 35.64-34.2 35.64h22.66c10.12 0 35.83-12.1 35.83-36.3l-24.3-24.3Z" class="cls-2"/><path d="M181.37 283.08v40.87c0 4.54 1.3 6.05 2.98 6.05h-40.53s15.53-3.03 15.53-15.13v-77.15c0-4.54-2.98-6.05-2.98-6.05h80.05s-5.72.79-5.72 3.2v89.07c0 4.54 1.3 6.05 2.98 6.05h-33.8s8.8-1.05 8.8-15.13v-31.8h-27.3Zm0-4.47h27.3v-42.45h-11.78c-4.71 0-15.53.84-15.53 10.65z" style="fill:#231815;stroke-width:0"/><path d="M221.36 15.13C221.36 3.03 236.89 0 236.89 0h-40.53s2.98 1.51 2.98 6.05V83.2c0 12.1-15.53 15.13-15.53 15.13h40.53s-2.98-1.51-2.98-6.05zM24.3 60.6V35.63C24.3 16.64 40.84 0 58.5 0H35.84C25.72 0 0 12.1 0 36.3zm24.32-22.88v24.97c0 19-16.54 35.64-34.2 35.64h22.66c10.12 0 35.83-12.1 35.83-36.3l-24.3-24.3Zm120.3 60.6H80.71s15.53-3.03 15.53-15.13V6.05c0-4.54-2.98-6.05-2.98-6.05h80.05s-5.76.63-5.76 3.05c0 1.38-.16 1.42-.46 1.42h-33.3c-4.71 0-15.53.84-15.53 10.65v31.8h49.7s-5.76.63-5.76 3.05c0 1.38-.16 1.42-.46 1.42h-43.48v36.2c0 4.54 1.3 6.05 2.98 6.05h52.06s-5.76.63-5.76 3.05c0 .45.05 1.39 1.38 1.62Z" class="cls-2"/></svg>