<svg xmlns="http://www.w3.org/2000/svg" width="28" height="28" fill="none" viewBox="0 0 28 28"><path stroke="#fff" stroke-linecap="round" stroke-linejoin="round" stroke-width="2" d="M26.3 7.49a3.2 3.2 0 0 0-2.27-2.33c-2-.5-10.03-.5-10.03-.5s-8.03 0-10.03.54A3.2 3.2 0 0 0 1.7 7.54q-.54 3.06-.53 6.17-.03 3.12.53 6.22a3.2 3.2 0 0 0 2.27 2.24c2 .53 10.03.53 10.03.53s8.03 0 10.03-.53a3.2 3.2 0 0 0 2.27-2.34q.54-3.04.53-6.12.03-3.14-.53-6.22"/><path stroke="#fff" stroke-linecap="round" stroke-linejoin="round" stroke-width="2" d="m11.38 17.52 6.7-3.81-6.7-3.82z"/></svg>