<svg xmlns="http://www.w3.org/2000/svg" width="400" height="200"><g fill="#ff6501"><path d="M74.4 100a7.94 7.94 0 0 0 7.92 7.93h15.02a7.93 7.93 0 0 0 0-15.86H82.32A7.94 7.94 0 0 0 74.4 100"/><path d="M139.73 77.24h-26.3a20 20 0 0 0-16.62 8.93h2.85c4.53 0 8.54 2.19 11.07 5.56a6 6 0 0 1 2.7-.66h26.3a6.16 6.16 0 0 1 6.15 6.15v5.56c0 3.4-2.76 6.15-6.15 6.15h-26.3c-.97 0-1.88-.25-2.7-.66a13.8 13.8 0 0 1-11.07 5.57h-2.85a20 20 0 0 0 16.62 8.92h26.3a20 20 0 0 0 19.97-19.98v-5.56a20 20 0 0 0-19.97-19.98m-70.78 31.05q-1.22.62-2.68.64h-26.3a6.16 6.16 0 0 1-6.15-6.15v-5.56c0-3.4 2.76-6.15 6.15-6.15h26.3q1.46.02 2.68.64A13.8 13.8 0 0 1 80 86.16h2.9a20 20 0 0 0-16.63-8.92h-26.3A20 20 0 0 0 20 97.22v5.56a20 20 0 0 0 19.97 19.98h26.3c6.93 0 13.04-3.55 16.62-8.92H80a13.8 13.8 0 0 1-11.04-5.55m110.76-27.65h12.62l12.38 30.29h3v2.75h-12.04v-2.75h5.99l-3.35-8.16h-15.31l-3.29 8.16h5.99v2.75h-12.04v-2.75h3.12L188.1 83.4h-8.39zm17.6 19.54L190.7 84.1l-6.64 16.08zm13.62-19.54h15.09q3.1 0 4.81.3a8 8 0 0 1 3.17 1.29 8 8 0 0 1 2.55 3.1 9 9 0 0 1 1.03 4.17 9 9 0 0 1-2.17 5.81q-2.17 2.7-6.81 3.17 2.1 2 8.4 12.45h5.16v2.75h-7.34a85 85 0 0 0-7.69-13.06 6 6 0 0 0-1.7-1.46 5 5 0 0 0-2.52-.62h-4.23v12.39h5.22v2.75h-12.97v-2.75h4.82V83.4h-4.82zm14.97 2.76h-7.22v12.38h5.46q1.47 0 2.32-.03t2.58-.35a8 8 0 0 0 2.73-.94 6 6 0 0 0 2.64-5.14q0-3.23-2.47-4.92-1.46-1-6.04-1m24.24-2.76h12.62l12.38 30.29h3v2.75H266.1v-2.75h5.99l-3.35-8.16h-15.31l-3.3 8.16h6v2.75H244.1v-2.75h3.11l11.33-27.53h-8.4zm17.6 19.54-6.63-16.08-6.63 16.08zm24.45-22.12.93-.41a9 9 0 0 1 3.2-.41q2.3 0 4.15.82a8 8 0 0 1 3.02 2.32 16.4 16.4 0 0 1 3.23 7.3q.41 2.23.58 4.17a45 45 0 0 1-.26 10.27q-.44 2.88-1.53 5.87-1.08 3-3.43 4.75a9.3 9.3 0 0 1-5.75 1.77 9.3 9.3 0 0 1-8.07-4.35 18 18 0 0 1-1.88-4.49 29 29 0 0 1-.97-4.9 48 48 0 0 1-.06-8.92q.18-1.94.59-4.17t1.23-4.02 2-3.28 3.02-2.32m8.3 3.37-.85-.77q-.84-.78-3.31-.78-2.46 0-4.2 1.55a9 9 0 0 0-2.5 4.2q-.75 2.64-1.05 5.05t-.3 5.16q0 2.76.3 5.2.3 2.43 1.09 5.07a9 9 0 0 0 2.46 4.2 6 6 0 0 0 4.14 1.55q2.46 0 4.2-1.55a9 9 0 0 0 2.52-4.2q.8-2.64 1.09-5.07t.29-5.2-.3-5.2A30 30 0 0 0 303 85.6a9 9 0 0 0-2.5-4.17m26.92-3.37.92-.41a9 9 0 0 1 3.21-.41q2.29 0 4.14.82a8 8 0 0 1 3.02 2.32 16.4 16.4 0 0 1 3.23 7.3q.41 2.23.59 4.17a45 45 0 0 1-.27 10.27q-.44 2.88-1.52 5.87-1.1 3-3.43 4.75a9.3 9.3 0 0 1-5.76 1.77 9.3 9.3 0 0 1-8.07-4.35 18 18 0 0 1-1.87-4.49 29 29 0 0 1-.97-4.9 48 48 0 0 1-.06-8.92q.18-1.94.59-4.17t1.23-4.02 2-3.28 3.02-2.32m8.3 3.37-.85-.77q-.85-.78-3.32-.78t-4.2 1.55a9 9 0 0 0-2.49 4.2q-.76 2.64-1.05 5.05t-.3 5.16.3 5.2 1.08 5.07a9 9 0 0 0 2.47 4.2 6 6 0 0 0 4.13 1.55q2.48 0 4.2-1.55a9 9 0 0 0 2.52-4.2q.8-2.64 1.1-5.07.28-2.44.28-5.2t-.29-5.2a30 30 0 0 0-1.09-5.04 9 9 0 0 0-2.49-4.17m36.33-4.19v25.06h5.28v2.81h-5.28v5.82h5.28v2.75h-16.02v-2.75h7.92v-5.82H353.5v-3.4l14.56-24.47zm-15.67 25.06h12.85V80.64h-.11z"/><circle cx="173.67" cy="120.1" r="2.67"/><circle cx="241.56" cy="120.1" r="2.67"/><circle cx="309.45" cy="120.1" r="2.67"/><circle cx="377.33" cy="120.1" r="2.67"/><path d="m374.72 119.53-.06.56.06.57.04.1h-62.42l-.28-.14.05-.56-.09-.62.5-.01h62.24zm-135.77 0-.06.56.06.57-.53.1h-61.57l-.42-.07-.12-.56.1-.59.44-.11h61.55zm67.89 0-.06.56.06.57-.38.1H244.9l-.49-.02-.22-.46-.02-.54.2-.3.54-.01h61.55z"/></g></svg>