<svg xmlns="http://www.w3.org/2000/svg" data-name="レイヤー_2" viewBox="0 0 1400 400.42"><g data-name="レイヤー_3"><path d="M0 0h1400v400.42H0z" style="fill:#e2e7e7"/><path d="M200.72 126.76a2.25 2.25 0 1 1-4.5 0 2.25 2.25 0 0 1 4.5 0m13.83-6.53h11.67c.46 0 1.25 0 1.88-.04-.04.53-.04 1.11-.04 1.62v10.79c0 .68.04 2.29.04 2.58h-1.68c.02-.17.02-.7.04-1.27h-12.17c.02.55.02 1.07.02 1.27h-1.66c0-.33.04-1.86.04-2.58v-10.79c0-.46 0-1.09-.02-1.62.85.04 1.38.04 1.88.04m-.26 12.17h12.17v-10.64h-12.17zM237 120.95h10.71c.52 0 1.14-.02 1.57-.04-.02.48-.04 1.16-.04 1.64v11.27c0 .79.04 1.75.07 2.03h-1.75c.02-.2.02-.68.04-1.22h-10.79c-.92 0-1.86.02-2.43.07v-1.77c.52.04 1.49.11 2.38.11h10.84v-10.53h-10.58c-.81 0-1.86.04-2.36.07v-1.75c.72.09 1.64.13 2.34.13m12.01-.97-1.09.48a24 24 0 0 0-1.75-2.93l1.07-.46c.52.72 1.33 2.08 1.77 2.91m2.78-.66-1.11.5c-.48-.9-1.2-2.16-1.79-2.91l1.09-.46c.52.72 1.33 2.03 1.81 2.86m20.98-2.94 1.18.63c-2.58 2.64-4.11 5.9-4.11 9.75s1.53 7.1 4.11 9.75l-1.18.63c-2.67-2.73-4.35-6.18-4.35-10.38s1.68-7.65 4.35-10.38m10.2 9.82-.9 1.38a47 47 0 0 0-4.72-2.97l.87-1.33c1.24.7 3.82 2.27 4.74 2.93m2.7 5.25a22.3 22.3 0 0 0 8.24-7.98l.94 1.6a25.4 25.4 0 0 1-8.35 7.8 27 27 0 0 1-7.23 2.71l-.9-1.57a24 24 0 0 0 7.3-2.56m.55-10.01-.92 1.33a60 60 0 0 0-4.65-3.1l.85-1.31c1.27.7 3.8 2.4 4.72 3.08m22.57 9.12a20.3 20.3 0 0 0 7.19-7.98l.94 1.66a22 22 0 0 1-7.21 7.71 24 24 0 0 1-8.7 3.45l-1.01-1.6a22 22 0 0 0 8.78-3.26m-1.52-6.89-1.2 1.22a47 47 0 0 0-5.44-4.55l1.11-1.18a46 46 0 0 1 5.53 4.5m14.16 9.34-1.33-.92a22 22 0 0 0 4.17-5.73l1.38.68a31 31 0 0 1-4.22 5.97m8.83-13.2v2.34h5.9c.5 0 1.18-.04 1.73-.11v1.62l-1.7-.04h-5.92v10.66c0 1.14-.52 1.68-1.79 1.68-.9 0-2.18-.07-3.04-.15l-.13-1.55c.96.17 1.97.24 2.53.24s.85-.26.85-.83c.02-1.27.02-8.83.02-9.86v-.2h-6.18q-.98 0-1.81.09v-1.66c.61.07 1.11.11 1.81.11h6.18v-2.34c0-.46-.09-1.18-.15-1.49h1.81c-.04.31-.11 1.03-.11 1.49m8.26 12.3-1.44.79a37 37 0 0 0-3.67-5.79l1.31-.7a43 43 0 0 1 3.8 5.7m-1.71-11.29-1.07.5c-.44-.9-1.16-2.14-1.75-2.97l1.05-.46c.55.79 1.31 2.03 1.77 2.93m2.58-.64-1.07.48a20 20 0 0 0-1.79-2.93l1.05-.46c.59.79 1.4 2.1 1.81 2.91m6.49 8.99c.66-2.03.66-6.42.66-8.83q0-.87-.13-1.51h1.79c-.02.28-.11.9-.11 1.51 0 2.38-.07 7.08-.68 9.26a12 12 0 0 1-3.87 5.94l-1.46-.98a10.3 10.3 0 0 0 3.8-5.4m6.32 4.31V120.3c0-.81-.09-1.38-.11-1.57h1.79c-.02.2-.09.79-.09 1.57v12.83a17 17 0 0 0 6.55-5.51l.92 1.31a22 22 0 0 1-7.45 6.07q-.51.27-.72.48l-1.03-.87q.12-.51.13-1.16m27.48 1.9a21 21 0 0 1-2.95-2.16 6.5 6.5 0 0 1-4.89 2.14c-3.1 0-5.14-1.7-5.14-4.35 0-2.19 1.68-3.47 3.47-4.59-.85-1.29-1.4-2.56-1.4-3.8 0-2.34 1.57-3.8 3.74-3.8 2.03 0 3.32 1.31 3.32 3.17 0 2.16-1.75 3.47-3.56 4.65a38 38 0 0 0 4.37 4.3 10 10 0 0 0 1.86-4.39h1.66a14 14 0 0 1-2.36 5.4c1.11.94 2.1 1.6 2.71 1.99zm-7.7-1.46c1.31 0 2.53-.65 3.61-1.73a39 39 0 0 1-4.63-4.7c-1.44.96-2.62 1.99-2.62 3.45 0 1.88 1.49 2.97 3.65 2.97m-.53-8.3c1.57-.98 2.93-1.99 2.93-3.54 0-1.07-.68-1.97-1.86-1.97-1.38 0-2.27.96-2.27 2.45 0 .94.46 1.99 1.2 3.06m23.45-6.03-.52.92h6.18q.84 0 1.33-.2l1.31.79c-.17.28-.37.79-.48 1.09a22 22 0 0 1-3.45 6.91q1.42 1.03 2.51 1.92l-1.16 1.33a44 44 0 0 0-2.4-1.97 20.6 20.6 0 0 1-8.41 5.62l-1.38-1.22a19 19 0 0 0 8.52-5.35 82 82 0 0 0-4.74-3.21l1.05-1.07c1.49.85 3.15 1.94 4.72 3.04a19 19 0 0 0 3.08-6.27h-7.6a23 23 0 0 1-5.79 5.81l-1.29-1.01a20 20 0 0 0 7.01-7.69c.2-.35.52-1.09.66-1.62l1.77.57c-.35.55-.7 1.22-.92 1.62m22.7 3.62a26 26 0 0 0 5.94-5.11l1.31 1.2a35 35 0 0 1-5.92 4.89v9.29c0 .79.04 1.83.13 2.23h-1.92c.07-.39.13-1.44.13-2.23v-8.26a45 45 0 0 1-8.43 3.6l-.79-1.51a37 37 0 0 0 9.55-4.11m29.41-6.17c1.33 0 2.43 1.09 2.43 2.45s-1.09 2.4-2.43 2.4q-.49-.01-.92-.17l-.04.2c-.46 2.32-1.53 5.88-3.26 8.09a16.4 16.4 0 0 1-8.57 5.81l-1.31-1.46c4.22-1.07 6.66-2.93 8.5-5.29a17 17 0 0 0 2.91-7.3h-11.34q-1.28.01-2.1.07v-1.73c.59.09 1.4.15 2.12.15h11.1l.61-.02a3 3 0 0 1-.11-.74 2.4 2.4 0 0 1 2.4-2.45m.01 3.9c.81 0 1.49-.66 1.49-1.46s-.68-1.49-1.49-1.49-1.46.66-1.46 1.49.66 1.46 1.46 1.46m4.97 16.23-1.18-.63c2.58-2.64 4.11-5.9 4.11-9.75s-1.53-7.1-4.11-9.75l1.18-.63c2.67 2.73 4.35 6.18 4.35 10.38s-1.68 7.65-4.35 10.38M65.49 61.79q-1.65-2.41-1.65-7.03c0-4.62.55-5.45 1.65-7.05q1.65-2.41 4.82-2.41c3.17 0 3.72.8 4.82 2.4q1.65 2.4 1.65 7.04c0 4.64-.55 5.45-1.65 7.05q-1.65 2.41-4.82 2.41c-3.17 0-3.72-.8-4.82-2.41m8.07-1.26q1.05-1.86 1.05-5.8c0-3.94-.35-4.57-1.04-5.78q-1.04-1.82-3.26-1.82c-2.22 0-2.55.61-3.25 1.84s-1.05 3.15-1.05 5.77.35 4.55 1.05 5.8q1.05 1.86 3.25 1.86c2.2 0 2.55-.62 3.25-1.86m18.31 1.64v1.81H81.59v-1.81h4.06v-14l-3.25 2.05-1-1.65 4.85-3.07h1.55v16.67zm3.69-.86h2.67v2.67h-2.67zm20.17-15.81h2.15V64h-2.15zm21.34 8.86v8.55q-1.1.57-2.87.93t-3.58.35a9.5 9.5 0 0 1-4.75-1.13 7.4 7.4 0 0 1-3.05-3.25q-1.06-2.13-1.06-5.09c0-2.96.35-3.64 1.05-5.06q1.04-2.13 3.02-3.25a9 9 0 0 1 4.64-1.13q1.94 0 3.57.59t2.78 1.74l-.81 1.65q-1.34-1.16-2.64-1.65a7 7 0 0 0-2.9-.5q-3.12 0-4.8 1.97t-1.68 5.64c0 3.67.57 4.4 1.7 5.7q1.71 1.95 4.98 1.95 2.39 0 4.43-.71v-5.64h-4.59v-1.68h6.56Zm19.17-8.86v18.48h-1.65l-11.14-14.86v14.86h-2.02V45.51h1.65l11.14 14.87V45.51zm4.56 0h2.15V64h-2.15zm11.18 1.83h-6.43v-1.83h15.05v1.83h-6.45v16.65h-2.17zm11.22-1.83h2.15V64h-2.15zm9.98 17.54a7.5 7.5 0 0 1-2.92-3.28q-1.02-2.13-1.02-5.01c0-2.88.34-3.62 1.01-5.05a7.4 7.4 0 0 1 2.91-3.28q1.9-1.14 4.5-1.14c2.6 0 3.23.38 4.5 1.14a7.3 7.3 0 0 1 2.91 3.28q1 2.14 1.01 5.02c.01 2.88-.34 3.6-1.02 5.02a7.6 7.6 0 0 1-2.92 3.29q-1.9 1.15-4.47 1.15c-2.57 0-3.2-.38-4.47-1.15m9.02-2.65q1.64-1.98 1.64-5.65c0-3.67-.54-4.33-1.63-5.64q-1.62-1.97-4.59-1.97c-2.97 0-3.48.66-4.58 1.98q-1.64 1.98-1.64 5.62c0 3.64.55 4.31 1.64 5.64q1.64 2 4.58 1.99c2.94-.01 3.48-.66 4.58-1.98m22.54-14.87v18.48h-1.65l-11.15-14.86v14.86h-2.01V45.51h1.65l11.14 14.87V45.51zM253 56.88a14.4 14.4 0 0 0 6.03 4.25c-.37.31-.89.92-1.13 1.34a16 16 0 0 1-6.71-5.58h-8.36a18 18 0 0 1-6.82 5.93c-.24-.42-.73-1-1.13-1.34 2.2-.89 4.54-2.65 6.08-4.59h-5.82V55.4h5.22v-8.47h-4.04v-1.47h4.04v-2.62h1.73v2.62h9.73v-2.62h1.76v2.62h4.01v1.47h-4.01v8.47h5.14v1.49zm-5.24 7.6h9.07v1.49h-19.69v-1.49H246v-2.94h-5.48v-1.47H246v-2.31h1.76v2.31h5.58v1.47h-5.58zm-5.67-15.68h9.73v-1.89h-9.73zm0 3.25h9.73v-1.91h-9.73zm0 3.33h9.73v-1.99h-9.73zm33.02-5.24c2.2 4.56 6.08 8.81 10.25 10.83-.42.34-1 1.02-1.31 1.52-4.04-2.18-7.66-6.32-10.04-10.96v8.44h5.14v1.73h-5.14v4.98h-1.78V61.7h-5.22v-1.73h5.22v-8.39c-2.44 4.64-6.11 8.71-10.02 10.96a7 7 0 0 0-1.23-1.42c4.01-2.1 7.92-6.4 10.15-10.99h-9.28V48.4h10.38v-5.56h1.78v5.56h10.49v1.73h-9.39Zm17.33-3.23h14c.55 0 1.49 0 2.26-.05-.05.63-.05 1.34-.05 1.94v12.95c0 .81.05 2.75.05 3.09h-2.02c.03-.21.03-.84.05-1.52h-14.6c.03.66.03 1.28.03 1.52h-1.99c0-.39.05-2.23.05-3.09V48.8c0-.55 0-1.31-.03-1.94 1.02.05 1.65.05 2.25.05m-.31 14.61h14.6V48.75h-14.6zm27.24-13.74h12.85c.63 0 1.36-.03 1.89-.05-.03.58-.05 1.39-.05 1.97v13.53c0 .94.05 2.1.08 2.44h-2.1c.03-.24.03-.81.05-1.47h-12.95c-1.1 0-2.23.03-2.91.08v-2.12c.63.05 1.78.13 2.86.13h13V49.65H319.4c-.97 0-2.23.05-2.83.08v-2.1c.87.1 1.97.16 2.81.16m14.41-1.17-1.31.58a29 29 0 0 0-2.1-3.51l1.28-.55c.63.87 1.6 2.49 2.12 3.49m3.34-.79-1.34.6a27 27 0 0 0-2.15-3.49l1.31-.55c.63.87 1.6 2.44 2.18 3.44m6.09 6.5h17.15c.55 0 1.36-.03 1.99-.1v1.94c-.55-.03-1.36-.05-1.99-.05h-7.24c-.08 2.83-.5 5.3-1.55 7.26a13 13 0 0 1-5.14 4.72l-1.73-1.28a11 11 0 0 0 4.98-4.06c1.15-1.86 1.44-4.12 1.49-6.63h-7.97q-1.17-.01-2.23.05v-1.94c.71.08 1.42.1 2.23.1m3.21-6.54h9.15c.73 0 1.65-.05 2.39-.16v1.97c-.76-.05-1.65-.08-2.39-.08h-9.12c-.87 0-1.68.03-2.33.08v-1.97c.73.08 1.47.16 2.31.16m15.01 1.26-1.31.58a28 28 0 0 0-2.12-3.62l1.28-.55c.66.92 1.6 2.52 2.15 3.59m2.88-1.05-1.28.58a26 26 0 0 0-2.18-3.59l1.26-.55c.68.94 1.7 2.57 2.2 3.57m6.88 7.59h14.42c1.34 0 2.23-.08 2.78-.13v2.28c-.52-.03-1.57-.1-2.75-.1h-14.45c-1.44 0-2.75.05-3.54.1v-2.28c.76.08 2.04.13 3.54.13m32.75-7.52q-.27.51-.63 1.1h7.42q1.02 0 1.6-.24l1.57.94c-.21.34-.45.94-.58 1.31a26 26 0 0 1-4.14 8.29q1.7 1.23 3.01 2.31l-1.39 1.6a48 48 0 0 0-2.88-2.36 25 25 0 0 1-10.09 6.74l-1.65-1.47a23 23 0 0 0 10.23-6.42 96 96 0 0 0-5.69-3.85l1.26-1.28a80 80 0 0 1 5.66 3.64 23 23 0 0 0 3.7-7.53h-9.12a28 28 0 0 1-6.95 6.97l-1.55-1.21a24 24 0 0 0 8.42-9.23c.24-.42.63-1.31.79-1.94l2.12.68c-.42.66-.84 1.47-1.1 1.94M38.43 73.92h1323.14v.73H38.43z"/><path d="M383.19 269.38s8.18 5.88 24.31-.07c27.89-10.29 48.78-16.02 57.76-11.14 6.42 3.49 3.35 8.62-21.34 23.8-19.4 11.93-25.95 20.57-28.43 28.12-2.59 7.89 3.83 16.53 3.83 16.53s-12.29-12.71-2.84-28.94c5.16-8.86 4.04-13.88.45-16.81-9.71-7.91-27.64-6.44-33.74-11.49" style="fill:#8a00a9"/><path d="M422.4 171.72s14.8 19.19 4.89 30.18c-13.9 15.42-31.25 23.37-44.86 42.41-6.51 9.11-18.16 30.87 20.8 17.54 39.52-13.53 58.15-15.33 69.41-10.9 7.75 3.05 11.78 12.57-11.5 31.7-22.83 18.76-57.65 40.17-29.2 53.41 0 0-17.43-9 4.33-17.52 9.67-3.78 7.55-5.85 12.98-12.7 3.93-4.95 7.59.25 8.64 4.36 2.93 11.46-1.74 26.85-19.85 26.8 0 0 26.52 2.54 36.68-18.29 4.34-8.9 3.19-12.03-5.02-21.78-13.05-15.5 10.68-30.73 35.07-29.36 0 0-32.87-2.61-.82-10.6 18.8-4.69-26.98-19.04-57.5-20.39-29.97-1.33-18.7-13.31 5.71-25.69-30.78 11.88-41.6-16.31 33.03-26.1 0 0-48.01 5.54-62.8-13.05" style="fill:#ff0084"/><path d="M564.77 247.42h-9.35s1.72.87 1.72 3.49v44.54c0 6.99-8.97 8.73-8.97 8.73h23.4s-1.72-.87-1.72-3.49v-44.54c0-6.99 8.96-8.73 8.96-8.73zm191.06 0h-9.35s1.72.87 1.72 3.49v44.54c0 6.99-8.97 8.73-8.97 8.73h23.4s-1.72-.87-1.72-3.49v-44.54c0-6.99 8.96-8.73 8.96-8.73zm111.68 0h-9.35s1.72.87 1.72 3.49v44.54c0 6.99-8.97 8.73-8.97 8.73h23.4s-1.72-.87-1.72-3.49v-44.54c0-6.99 8.97-8.73 8.97-8.73zm-218.27 27.95h-32.03s16.59.87 16.59 3.49v20.42c0 3.02-.18 3.04-14.85 3.04-13.86 0-13.97-.03-13.97-2.72v-38.2c0-5.24 4.47-13.97 16.64-13.97h-13.99c-4.41 0-16.63 3.49-16.63 13.97v36.68c0 3.49-5.62 6.11-8.81 6.11h67.04s-1.46 0-1.46-1.75v-25.33c0-.87.3-1.75 1.46-1.75"/><path d="M637.63 247.42h-6.53s.79 0 .79.82v10.69c0 2.47-3.33 2.47-3.33 2.47h20.28s-.79 0-.79-.82v-10.69c0-2.47 3.33-2.47 3.33-2.47zm74.07 3.49v32.32c0 2.15-1.77 4.3-4.34 3.06l-40.21-38.87v51.53c0 3.49-3.88 5.24-7.02 5.24h22.47s-1.99-.87-1.99-3.49v-32.32c0-2.15 1.77-4.3 4.33-3.06l40.21 38.87v-51.53c0-3.49 3.88-5.24 7.02-5.24H709.7s1.99.87 1.99 3.49m290.24-3.49s1.99.87 1.99 3.49v32.32c0 2.15-1.77 4.3-4.34 3.06l-40.21-38.87v51.53c0 3.49-3.88 5.24-7.02 5.24h22.47s-1.99-.87-1.99-3.49v-32.32c0-2.15 1.77-4.3 4.33-3.06l40.21 38.87v-51.53c0-3.49 3.88-5.24 7.02-5.24zm-200.84 0h-19.78s1.13 0 1.13 1.75v20.96c0 3.49-3.57 7.86-3.57 7.86l14.26-13.97v-12.23c0-4.37 7.94-4.37 7.94-4.37m26.44 1.75v20.96c0 3.49-3.57 7.86-3.57 7.86l14.26-13.97v-12.23c0-4.37 7.94-4.37 7.94-4.37h-19.78s1.13 0 1.13 1.75m-12.69 53.27v-50.66c0-4.37 9.82-4.37 9.82-4.37H802.3s1.07 0 1.07 1.75v50.66c0 4.37-9.82 4.37-9.82 4.37h22.32s-1.07 0-1.07-1.75m90.56-3.52V268c0-10.97 9.55-20.58 19.74-20.58h-13.09c-5.84 0-20.69 6.99-20.69 20.96v30.77c0 5.04-5.71 5.04-5.71 5.04h24.44s-4.69-.07-4.69-5.27m25.18-46.23v30.92c0 10.97-9.55 20.58-19.74 20.58h13.09c5.84 0 20.69-6.99 20.69-20.96v-30.77c0-5.04 5.71-5.04 5.71-5.04h-24.44s4.69.07 4.69 5.27"/></g></svg>