<svg xmlns="http://www.w3.org/2000/svg" id="_レイヤー_2" data-name="レイヤー_2" viewBox="0 0 950.07 100"><defs><style>.cls-1{fill:#ff0084}</style></defs><g id="_レイヤー_2-2" data-name="レイヤー_2"><path d="M832.37 49.23h-56.42s29.23 1.54 29.23 6.15v35.97c0 5.31-.31 5.35-26.16 5.35-24.41 0-24.61-.06-24.61-4.8V24.62c0-9.23 7.87-24.62 29.32-24.62h-24.64c-7.76 0-29.3 6.15-29.3 24.62v64.62c0 6.15-9.91 10.77-15.51 10.77h118.08s-2.57 0-2.57-3.08V52.31c0-1.54.52-3.08 2.57-3.08Z" class="cls-1"/><path d="M811.91 0h-11.49s1.4 0 1.4 1.45v18.82c0 4.34-5.86 4.34-5.86 4.34h35.73s-1.4 0-1.4-1.45V4.34c0-4.34 5.86-4.34 5.86-4.34zM39.12 0H4.28s2 0 2 3.08V40C6.28 46.15 0 53.85 0 53.85l25.13-24.62V7.69C25.13 0 39.12 0 39.12 0m46.53 3.08V40c0 6.15-6.28 13.85-6.28 13.85l25.13-24.62V7.69C104.5 0 118.49 0 118.49 0H83.65s2 0 2 3.08m-22.4 93.84V7.69C63.25 0 80.55 0 80.55 0H41.24s1.89 0 1.89 3.08v89.23c0 7.69-17.3 7.69-17.3 7.69h39.31s-1.89 0-1.89-3.08m587.69-6.21V36.25C650.94 16.93 667.76 0 685.72 0h-23.05c-10.29 0-36.45 12.31-36.45 36.92v54.19c0 8.88-10.06 8.88-10.06 8.88h43.04s-8.26-.12-8.26-9.29Zm44.37-81.42v54.46c0 19.32-16.82 36.25-34.78 36.25h23.05c10.29 0 36.45-12.31 36.45-36.92V8.88C720.03 0 730.09 0 730.09 0h-43.04s8.26.12 8.26 9.29m175.62 81.42V36.25C870.93 16.93 887.75 0 905.71 0h-23.05c-10.29 0-36.45 12.31-36.45 36.92v54.19c0 8.88-10.06 8.88-10.06 8.88h43.04s-8.26-.12-8.26-9.29ZM915.3 9.29v54.46c0 19.32-16.82 36.25-34.78 36.25h23.05c10.29 0 36.45-12.31 36.45-36.92V8.88C940.02 0 950.08 0 950.08 0h-43.04s8.26.12 8.26 9.29M288.12 100h-89.71s15.79-3.08 15.79-15.38V6.15c0-4.62-3.03-6.15-3.03-6.15h81.42s-5.86.64-5.86 3.1c0 1.4-.16 1.45-.46 1.45H252.4c-4.79 0-15.79.85-15.79 10.83v32.34h50.55s-5.86.64-5.86 3.1c0 1.4-.16 1.45-.46 1.45h-44.22v36.82c0 4.62 1.32 6.15 3.03 6.15h52.95s-5.86.64-5.86 3.1c0 .46.05 1.41 1.4 1.65Zm196.42 0h-89.71s15.79-3.08 15.79-15.38V6.15c0-4.62-3.03-6.15-3.03-6.15h81.42s-5.86.64-5.86 3.1c0 1.4-.16 1.45-.46 1.45h-33.87c-4.79 0-15.79.85-15.79 10.83v32.34h50.55s-5.86.64-5.86 3.1c0 1.4-.16 1.45-.46 1.45h-44.22v36.82c0 4.62 1.32 6.15 3.03 6.15h52.95s-5.86.64-5.86 3.1c0 .46.05 1.41 1.4 1.65Z" class="cls-1"/><path d="M530.09 100s11.41-1.79 11.41-12.07V6.15c0-4.62-3.03-6.15-3.03-6.15h41.22S563.9 3.08 563.9 15.38v73.71c0 4.62 1.32 6.15 3.03 6.15h61.72c-.51 0-1.14.28-1.14 1.67 0 3.08 2.57 3.08 2.57 3.08zM212.68.07h-41.2s3.03 1.54 3.03 6.15V47.7h-32.84V15.37C141.67 3.07 157.45 0 157.45 0h-41.2s3.03 1.54 3.03 6.15v78.41c0 12.3-15.78 15.37-15.78 15.37h41.2s-3.03-1.54-3.03-6.15V52.24h32.84V88.5c0 8.34-11.25 11.49-11.25 11.49h36.67s-3.03-1.54-3.03-6.15v-78.4c0-12.3 15.78-15.37 15.78-15.37M408.02 0h-26.2c-1.35 0-3 .68-3.59 2.14l-30.66 76.83-29.61-63.81C312.48 4.34 323.45 0 323.45 0h-31.29s2.86 1.29 5.37 3.53c.23.74.39 1.6.39 2.62v78.46c0 12.31-15.79 15.38-15.79 15.38h26.52s-3.03-1.54-3.03-6.15V25.36c13.3 27.83 34.16 74.64 34.16 74.64h6.24l33.07-80.77v65.39c0 12.31-15.79 15.38-15.79 15.38h37.68s-3.03-1.54-3.03-6.15V10.69C397.95 1.5 408.06 0 408.06 0Z" class="cls-1"/></g></svg>