<svg xmlns="http://www.w3.org/2000/svg" xml:space="preserve" id="レイヤー_1" x="0" y="0" viewBox="0 0 734.1 54.1"><style>.st0{fill:#52cc89}.st1{fill:#54b782}</style><path d="m110.8 44.8 10-37.5c1.3-4.7 2.7-6.7 7.4-6.7l.2-.6H100C78.4 0 58.6 1.8 55.2 14.5c-3 11.4 11.3 13.7 21.7 13.7-12.5 0-19.2 1.9-28.2 15.5-3.7 5.8-10.3 9.5-13.1 9.7l-.2.7 21.6-.8c7.7 0 11-3.4 17.4-17.5 3.4-7.6 16.3-7.1 16.3-7.1h5.1l-4.3 16.1c-2 7.4-2.5 7.9-7.1 7.9l-.2.7h30.1l.2-.7c-4.8 0-5.7-.2-3.7-7.9M95.8 28h-3.4c-14.1 0-15.5.2-11.9-13.6C84.5 0 87.1.7 99.8.7h3.4zM165.5.7s29.5.1 25.6 14.9h1L196.2 0h-61.8l-.2.6c4.8 0 4.9 5.2 3.6 9.9L129.1 43c-1.4 5.2-4.3 9.7-8.9 9.7l-.2.7h63.2l4-14.9h-1c-4 15-34.8 14.2-34.8 14.2h-3.9l6.9-25.9h8.8c.1 0 11.6-.2 10.4 8.9h1l5-18.6h-1c-3.6 9.2-15.1 8.9-15.2 8.9h-8.8L161.4.6h4.1zm43 4.4c-11.4 8.1-10.1 17.4 3.5 24.1l14.7 7.4c11.2 6.7 5.2 16.8-6.4 16.8-17 0-23.1-12.6-23.4-17.7h-1L192 50.3s7.1 3.9 28.1 3.9c18.7 0 26.3-6.2 26.3-6.2 10.3-8.3 9.1-18-3.4-24.6l-14.6-7.7C216.1 9.1 221.9 0 233.6 0c17.3 0 19.8 10.1 20.5 15.5h1l3.4-12.7s-6.2-3.5-24.7-3.5c-17.8 0-25.3 5.8-25.3 5.8m131.1 22c4-15-8.3-27.7-32.1-27.7s-42.9 12.7-47 27.7c-4 15.1 8.5 27 32.3 27s42.8-11.9 46.8-27m-26.3 0c-5.6 20.8-7.5 26.3-20.3 26.3-12.9 0-12-5.5-6.4-26.3S294.4 0 307.3 0c12.8 0 11.6 6.3 6 27.1m279 26.3c-11.7 0-15.5-5.8-10-26.7C587.9 5.9 594.6 0 606.6 0c7.9 0 19.5 2.4 18.5 18.1h.9l5.2-15.3C629 1.4 620.8-.7 606.8-.7c-23.2 0-46.5 10.2-51.1 27.4-4.6 17.1 13.2 27.4 36.4 27.4 11.5 0 23-2.2 26.3-3.6l3-15.3h-.9c-7.7 15.1-20.9 18.2-28.2 18.2M636.9 0l-.2.6c4.8 0 4.9 5.2 3.6 9.9L631.7 43c-1.4 5.2-4.3 9.7-8.9 9.7l-.2.7h63.2l4-14.9h-1c-4 15-34.8 14.2-34.8 14.2h-3.9l6.9-25.9h8.8c.1 0 11.6-.2 10.4 8.9h1l5-18.6h-1c-3.6 9.2-15.1 8.9-15.2 8.9h-8.8L664 .6h3.9s29.5.1 25.6 14.9h1L698.7 0z" class="st0"/><path d="m536.2 0-.2.6c12 0 13 9.3 11.1 16.4l-5.4 20.2L514.8 0h-34.5l-.2.6c2.8.2 7 .1 11.9 6.1l3.7 5.1-6.6 24.6c-1.3 5-3.2 16.4-14.1 16.4-2.7 0-3.8-3.2-4.9-6.2 0 0-1.2-2.5-16.8-46.5h-.5l-32.2 38.7c-11.9 13.3-17.9 14-21.2 14.1l-.2.6h31.2l.2-.6c-13 0-12.1-10.6-9-14.1h21.2l2.1 5.2s4.1 8.9-4.5 8.9l-.2.6h61.7l.2-.7c-15.8 0-13.6-10.3-12-16.4l6.3-23.7 29.9 40.7h11.9L548 17c1.9-7 7.3-16.4 20.7-16.4l.3-.6zM422.1 38l14.2-17.1 6.2 17.1zm-37.3 15.4L355 12.7l-6.3 23.7c-1.6 6.1-3.8 16.4 12 16.4l-.2.7H326l.2-.7c14.9 0 19.9-10.4 21.5-16.4l6.6-24.6-3.7-5.1c-4.9-6-9.1-5.9-11.9-6.1l.2-.6h34.5l26.8 37.2 5.4-20.2c1.9-7.1.9-16.4-11.1-16.4l.2-.6h32.8l-.2.6c-13.4 0-18.8 9.3-20.7 16.4l-9.8 36.4z" class="st0"/><path d="m110.8 44.8 10-37.5c1.3-4.7 2.7-6.7 7.4-6.7l.2-.6H100C78.4 0 58.6 1.8 55.2 14.5c-3 11.4 11.3 13.7 21.7 13.7-12.5 0-19.2 1.9-28.2 15.5-3.7 5.8-10.3 9.5-13.1 9.7l-.2.7 21.6-.8c7.7 0 11-3.4 17.4-17.5 3.4-7.6 16.3-7.1 16.3-7.1h5.1l-4.3 16.1c-2 7.4-2.5 7.9-7.1 7.9l-.2.7h30.1l.2-.7c-4.8 0-5.7-.2-3.7-7.9M95.8 28h-3.4c-14.1 0-15.5.2-11.9-13.6C84.5 0 87.1.7 99.8.7h3.4zM165.5.7s29.5.1 25.6 14.9h1L196.2 0h-61.8l-.2.6c4.8 0 4.9 5.2 3.6 9.9L129.1 43c-1.4 5.2-4.3 9.7-8.9 9.7l-.2.7h63.2l4-14.9h-1c-4 15-34.8 14.2-34.8 14.2h-3.9l6.9-25.9h8.8c.1 0 11.6-.2 10.4 8.9h1l5-18.6h-1c-3.6 9.2-15.1 8.9-15.2 8.9h-8.8L161.4.6h4.1zm43 4.4c-11.4 8.1-10.1 17.4 3.5 24.1l14.7 7.4c11.2 6.7 5.2 16.8-6.4 16.8-17 0-23.1-12.6-23.4-17.7h-1L192 50.3s7.1 3.9 28.1 3.9c18.7 0 26.3-6.2 26.3-6.2 10.3-8.3 9.1-18-3.4-24.6l-14.6-7.7C216.1 9.1 221.9 0 233.6 0c17.3 0 19.8 10.1 20.5 15.5h1l3.4-12.7s-6.2-3.5-24.7-3.5c-17.8 0-25.3 5.8-25.3 5.8m131.1 22c4-15-8.3-27.7-32.1-27.7s-42.9 12.7-47 27.7c-4 15.1 8.5 27 32.3 27s42.8-11.9 46.8-27m-26.3 0c-5.6 20.8-7.5 26.3-20.3 26.3-12.9 0-12-5.5-6.4-26.3S294.4 0 307.3 0c12.8 0 11.6 6.3 6 27.1m279 26.3c-11.7 0-15.5-5.8-10-26.7C587.9 5.9 594.6 0 606.6 0c7.9 0 19.5 2.4 18.5 18.1h.9l5.2-15.3C629 1.4 620.8-.7 606.8-.7c-23.2 0-46.5 10.2-51.1 27.4-4.6 17.1 13.2 27.4 36.4 27.4 11.5 0 23-2.2 26.3-3.6l3-15.3h-.9c-7.7 15.1-20.9 18.2-28.2 18.2M636.9 0l-.2.6c4.8 0 4.9 5.2 3.6 9.9L631.7 43c-1.4 5.2-4.3 9.7-8.9 9.7l-.2.7h63.2l4-14.9h-1c-4 15-34.8 14.2-34.8 14.2h-3.9l6.9-25.9h8.8c.1 0 11.6-.2 10.4 8.9h1l5-18.6h-1c-3.6 9.2-15.1 8.9-15.2 8.9h-8.8L664 .6h3.9s29.5.1 25.6 14.9h1L698.7 0z" class="st1"/><path d="m536.2 0-.2.6c12 0 13 9.3 11.1 16.4l-5.4 20.2L514.8 0h-34.5l-.2.6c2.8.2 7 .1 11.9 6.1l3.7 5.1-6.6 24.6c-1.3 5-3.2 16.4-14.1 16.4-2.7 0-3.8-3.2-4.9-6.2 0 0-1.2-2.5-16.8-46.5h-.5l-32.2 38.7c-11.9 13.3-17.9 14-21.2 14.1l-.2.6h31.2l.2-.6c-13 0-12.1-10.6-9-14.1h21.2l2.1 5.2s4.1 8.9-4.5 8.9l-.2.6h61.7l.2-.7c-15.8 0-13.6-10.3-12-16.4l6.3-23.7 29.9 40.7h11.9L548 17c1.9-7 7.3-16.4 20.7-16.4l.3-.6zM422.1 38l14.2-17.1 6.2 17.1zm-37.3 15.4L355 12.7l-6.3 23.7c-1.6 6.1-3.8 16.4 12 16.4l-.2.7H326l.2-.7c14.9 0 19.9-10.4 21.5-16.4l6.6-24.6-3.7-5.1c-4.9-6-9.1-5.9-11.9-6.1l.2-.6h34.5l26.8 37.2 5.4-20.2c1.9-7.1.9-16.4-11.1-16.4l.2-.6h32.8l-.2.6c-13.4 0-18.8 9.3-20.7 16.4l-9.8 36.4z" class="st1"/></svg>