<svg xmlns="http://www.w3.org/2000/svg" width="80" height="46" fill="none" viewBox="0 0 80 46"><mask id="a" width="54" height="28" x="12" y="12" fill="#000" maskUnits="userSpaceOnUse"><path fill="#fff" d="M12 12h54v28H12z"/><path d="M12.72 37v-3.04h5.18V17.58h-4.25v-2.34c2.24-.38 3.77-.96 5.15-1.8h2.78v20.52h4.61V37zm18.85-15.58h13.48V38.4h-2.02V23.32h-9.52v15.14h-1.94zm1.32 6.84h10.98v1.86H32.89zm-.02 7h11.02v1.9H32.87zm19.72-9.28h11.26v1.8H52.59zm0 4.7h11.26v1.8H52.59zm0 4.7h11.26v1.84H52.59zM51.25 21.3h13.88v17.24h-2V23.16h-9.98v15.38h-1.9z"/></mask><path fill="#fff" d="M12.72 37v-3.04h5.18V17.58h-4.25v-2.34c2.24-.38 3.77-.96 5.15-1.8h2.78v20.52h4.61V37zm18.85-15.58h13.48V38.4h-2.02V23.32h-9.52v15.14h-1.94zm1.32 6.84h10.98v1.86H32.89zm-.02 7h11.02v1.9H32.87zm19.72-9.28h11.26v1.8H52.59zm0 4.7h11.26v1.8H52.59zm0 4.7h11.26v1.84H52.59zM51.25 21.3h13.88v17.24h-2V23.16h-9.98v15.38h-1.9z"/><path fill="#000" d="M12.72 37h-.5v.5h.5zm0-3.04v-.5h-.5v.5zm5.18 0v.5h.5v-.5zm0-16.38h.5v-.5h-.5zm-4.25 0h-.5v.5h.5zm0-2.34-.09-.5-.41.08v.42zm5.15-1.8v-.5h-.14l-.12.08zm2.78 0h.5v-.5h-.5zm0 20.52h-.5v.5h.5zm4.61 0h.5v-.5h-.5zm0 3.04v.5h.5V37zm-12.97 0v-3.04h-1V37zm-.5-2.54h5.18v-1h-5.18zm5.68-.5V17.58h-1v16.38zm-.5-16.88h-4.25v1h4.25zm-3.75.5v-2.34h-1v2.34zm-.42-1.85c2.3-.39 3.89-.98 5.33-1.85l-.52-.86c-1.31.8-2.79 1.35-4.98 1.73zm5.07-1.78h2.78v-1H18.8zm2.28-.5v20.51h1V13.45zm.5 21.01h4.61v-1h-4.6zm4.11-.5V37h1v-3.04zm.5 2.54H12.72v1h13.47zm5.38-15.08v-.5h-.5v.5zm13.48 0h.5v-.5h-.5zm0 16.98v.5h.5v-.5zm-2.02 0h-.5v.5h.5zm0-15.08h.5v-.5h-.5zm-9.52 0v-.5h-.5v.5zm0 15.14v.5h.5v-.5zm-1.94 0h-.5v.5h.5zm1.32-10.2v-.5h-.5v.5zm10.98 0h.5v-.5h-.5zm0 1.86v.5h.5v-.5zm-10.98 0h-.5v.5h.5zm-.02 5.14v-.5h-.5v.5zm11.02 0h.5v-.5h-.5zm0 1.9v.5h.5v-.5zm-11.02 0h-.5v.5h.5zm-1.3-15.24h13.48v-1H31.57zm12.98-.5V38.4h1V21.42zm.5 16.48h-2.02v1h2.02zm-1.52.5V23.32h-1V38.4zm-.5-15.58h-9.52v1h9.52zm-10.02.5v15.14h1V23.32zm.5 14.64h-1.94v1h1.94zm-1.44.5V21.42h-1v17.04zm.82-9.7h10.98v-1H32.89zm10.48-.5v1.86h1v-1.86zm.5 1.36H32.89v1h10.98zm-10.48.5v-1.86h-1v1.86zm-.52 5.64h11.02v-1H32.87zm10.52-.5v1.9h1v-1.9zm.5 1.4H32.87v1h11.02zm-10.52.5v-1.9h-1v1.9zm19.22-11.18v-.5h-.5v.5zm11.26 0h.5v-.5h-.5zm0 1.8v.5h.5v-.5zm-11.26 0h-.5v.5h.5zm0 2.9v-.5h-.5v.5zm11.26 0h.5v-.5h-.5zm0 1.8v.5h.5v-.5zm-11.26 0h-.5v.5h.5zm0 2.9v-.5h-.5v.5zm11.26 0h.5v-.5h-.5zm0 1.84v.5h.5v-.5zm-11.26 0h-.5v.5h.5zM51.25 21.3v-.5h-.5v.5zm13.88 0h.5v-.5h-.5zm0 17.24v.5h.5v-.5zm-2 0h-.5v.5h.5zm0-15.38h.5v-.5h-.5zm-9.98 0v-.5h-.5v.5zm0 15.38v.5h.5v-.5zm-1.9 0h-.5v.5h.5zm1.34-12.06h11.26v-1H52.59zm10.76-.5v1.8h1v-1.8zm.5 1.3H52.59v1h11.26zm-10.76.5v-1.8h-1v1.8zm-.5 3.4h11.26v-1H52.59zm10.76-.5v1.8h1v-1.8zm.5 1.3H52.59v1h11.26zm-10.76.5v-1.8h-1v1.8zm-.5 3.4h11.26v-1H52.59zm10.76-.5v1.84h1v-1.84zm.5 1.34H52.59v1h11.26zm-10.76.5v-1.84h-1v1.84zM51.25 21.8h13.88v-1H51.25zm13.38-.5v17.24h1V21.3zm.5 16.74h-2v1h2zm-1.5.5V23.16h-1v15.38zm-.5-15.88h-9.98v1h9.98zm-10.48.5v15.38h1V23.16zm.5 14.88h-1.9v1h1.9zm-1.4.5V21.3h-1v17.24z" mask="url(#a)"/><path fill="#ff0084" d="M8 22h72l-8 24H0z"/><path fill="#fff" d="M12.72 37v-3.04h5.18V17.58h-4.25v-2.34c2.24-.38 3.77-.96 5.15-1.8h2.78v20.52h4.61V37zm18.85-15.58h13.48V38.4h-2.02V23.32h-9.52v15.14h-1.94zm1.32 6.84h10.98v1.86H32.89zm-.02 7h11.02v1.9H32.87zm19.72-9.28h11.26v1.8H52.59zm0 4.7h11.26v1.8H52.59zm0 4.7h11.26v1.84H52.59zM51.25 21.3h13.88v17.24h-2V23.16h-9.98v15.38h-1.9z"/></svg>