<svg xmlns="http://www.w3.org/2000/svg" width="280" height="139" fill="none" viewBox="0 0 280 139"><g clip-path="url(#a)"><mask id="b" width="167" height="78" x="55" y="39" fill="#000" maskUnits="userSpaceOnUse"><path fill="#fff" d="M55 39h167v78H55z"/><path d="M56.16 111v-9.12h15.55V52.73H58.94v-7.01c6.72-1.15 11.33-2.88 15.46-5.38h8.35v61.54h13.83V111zm57.21-49.86h43.14v54.34h-6.46V67.22h-30.47v48.45h-6.2zm4.23 21.9h35.13v5.94H117.6zm-.07 22.4h35.27v6.07h-35.27zm63.1-29.7h36.04v5.76h-36.03zm0 15.04h36.04v5.76h-36.03zm0 15.04h36.04v5.88h-36.03zm-4.28-45.06h44.42v55.17h-6.4V66.7h-31.94v49.22h-6.08z"/></mask><path fill="#fff" d="M56.16 111v-9.12h15.55V52.73H58.94v-7.01c6.72-1.15 11.33-2.88 15.46-5.38h8.35v61.54h13.83V111zm57.21-49.86h43.14v54.34h-6.46V67.22h-30.47v48.45h-6.2zm4.23 21.9h35.13v5.94H117.6zm-.07 22.4h35.27v6.07h-35.27zm63.1-29.7h36.04v5.76h-36.03zm0 15.04h36.04v5.76h-36.03zm0 15.04h36.04v5.88h-36.03zm-4.28-45.06h44.42v55.17h-6.4V66.7h-31.94v49.22h-6.08z"/><path fill="#000" d="M56.16 111h-1v1h1zm0-9.12v-1h-1v1zm15.55 0v1h1v-1zm0-49.15h1v-1h-1zm-12.77 0h-1v1h1zm0-7.01-.16-.99-.84.15v.84zm15.46-5.38v-1h-.28l-.24.15zm8.35 0h1v-1h-1zm0 61.54h-1v1h1zm13.83 0h1v-1h-1zm0 9.12v1h1v-1zm-39.42 0v-9.12h-2V111zm-1-8.12h15.55v-2H56.16zm16.55-1V52.73h-2v49.15zm-1-50.15H58.94v2h12.77zm-11.77 1v-7.01h-2v7zm-.83-6.02c6.82-1.17 11.55-2.94 15.8-5.51l-1.03-1.71c-4 2.42-8.49 4.11-15.1 5.24zm15.29-5.37h8.35v-2H74.4zm7.35-1v61.54h2V40.34zm1 62.54h13.83v-2H82.75zm12.83-1V111h2v-9.12zm1 8.12H56.16v2h40.42zm16.8-48.86v-1h-1v1zm43.13 0h1v-1h-1zm0 54.34v1h1v-1zm-6.46 0h-1v1h1zm0-48.26h1v-1h-1zm-30.47 0v-1h-1v1zm0 48.45v1h1v-1zm-6.2 0h-1v1h1zm4.22-32.64v-1h-1v1zm35.13 0h1v-1h-1zm0 5.95v1h1v-1zm-35.13 0h-1v1h1zm-.07 16.45v-1h-1v1zm35.27 0h1v-1h-1zm0 6.08v1h1v-1zm-35.27 0h-1v1h1zm-4.16-49.37h43.14v-2h-43.14zm42.14-1v54.34h2V61.14zm1 53.34h-6.46v2h6.46zm-5.46 1V67.22h-2v48.26zm-1-49.26h-30.47v2h30.47zm-31.47 1v48.45h2V67.22zm1 47.45h-6.2v2h6.2zm-5.2 1V61.14h-2v54.53zm3.22-31.64h35.13v-2H117.6zm34.13-1v5.95h2v-5.95zm1 4.95H117.6v2h35.13zm-34.13 1v-5.95h-2v5.95zm-1.07 17.45h35.27v-2h-35.27zm34.27-1v6.08h2v-6.08zm1 5.08h-35.27v2h35.27zm-34.27 1v-6.08h-2v6.08zm62.1-35.77v-1h-1v1zm36.04 0h1v-1h-1zm0 5.76v1h1v-1zm-36.03 0h-1v1h1zm0 9.28v-1h-1v1zm36.03 0h1v-1h-1zm0 5.76v1h1v-1zm-36.03 0h-1v1h1zm0 9.28v-1h-1v1zm36.03 0h1v-1h-1zm0 5.88v1h1v-1zm-36.03 0h-1v1h1zm-4.29-50.94v-1h-1v1zm44.42 0h1v-1h-1zm0 55.17v1h1v-1zm-6.4 0h-1v1h1zm0-49.22h1v-1h-1zm-31.94 0v-1h-1v1zm0 49.22v1h1v-1zm-6.08 0h-1v1h1zm4.29-39.2h36.03v-2h-36.03zm35.03-1v5.77h2v-5.76zm1 4.77h-36.03v2h36.03zm-35.03 1v-5.76h-2v5.76zm-1 10.28h36.03v-2h-36.03zm35.03-1v5.76h2v-5.76zm1 4.76h-36.03v2h36.03zm-35.03 1v-5.76h-2v5.76zm-1 10.28h36.03v-2h-36.03zm35.03-1v5.88h2v-5.88zm1 4.88h-36.03v2h36.03zm-35.03 1v-5.88h-2v5.88zm-5.29-49.94h44.42v-2h-44.42zm43.42-1v55.17h2V60.76zm1 54.17h-6.4v2h6.4zm-5.4 1V66.7h-2v49.22zm-1-50.22h-31.94v2h31.94zm-32.94 1v49.22h2V66.7zm1 48.22h-6.08v2h6.08zm-5.08 1V60.76h-2v55.17z" mask="url(#b)"/><path fill="#ff0084" d="M46.67 70H280l-46.67 69H0z"/><path fill="#fff" d="M56.16 111v-9.12h15.55V52.73H58.94v-7.01c6.72-1.15 11.33-2.88 15.46-5.38h8.35v61.54h13.83V111zm57.21-49.86h43.14v54.34h-6.46V67.22h-30.47v48.45h-6.2zm4.23 21.9h35.13v5.94H117.6zm-.07 22.4h35.27v6.07h-35.27zm63.1-29.7h36.04v5.76h-36.03zm0 15.04h36.04v5.76h-36.03zm0 15.04h36.04v5.88h-36.03zm-4.28-45.06h44.42v55.17h-6.4V66.7h-31.94v49.22h-6.08z"/></g><defs><clipPath id="a"><path fill="#fff" d="M0 0h280v139H0z"/></clipPath></defs></svg>