<svg xmlns="http://www.w3.org/2000/svg" width="280" height="139" fill="none" viewBox="0 0 280 139"><g clip-path="url(#a)"><mask id="b" width="172" height="79" x="50" y="38" fill="#000" maskUnits="userSpaceOnUse"><path fill="#fff" d="M50 38h172v79H50z"/><path d="M52.13 111v-6.43C73.06 86.14 83.7 72.4 83.7 60.79c0-7.58-4.03-12.86-11.9-12.86-5.57 0-10.18 3.45-13.92 7.77l-6.34-6.04c6.15-6.63 12.39-10.56 21.6-10.56 12.96 0 21.31 8.35 21.31 21.21 0 13.54-10.94 27.65-25.92 42.05 3.65-.38 8.16-.77 11.62-.77h17.66V111zm61.24-49.86h43.14v54.34h-6.46V67.22h-30.47v48.45h-6.2zm4.23 21.9h35.13v5.94H117.6zm-.07 22.4h35.27v6.07h-35.27zm63.1-29.7h36.04v5.76h-36.03zm0 15.04h36.04v5.76h-36.03zm0 15.04h36.04v5.88h-36.03zm-4.28-45.06h44.42v55.17h-6.4V66.7h-31.94v49.22h-6.08z"/></mask><path fill="#fff" d="M52.13 111v-6.43C73.06 86.14 83.7 72.4 83.7 60.79c0-7.58-4.03-12.86-11.9-12.86-5.57 0-10.18 3.45-13.92 7.77l-6.34-6.04c6.15-6.63 12.39-10.56 21.6-10.56 12.96 0 21.31 8.35 21.31 21.21 0 13.54-10.94 27.65-25.92 42.05 3.65-.38 8.16-.77 11.62-.77h17.66V111zm61.24-49.86h43.14v54.34h-6.46V67.22h-30.47v48.45h-6.2zm4.23 21.9h35.13v5.94H117.6zm-.07 22.4h35.27v6.07h-35.27zm63.1-29.7h36.04v5.76h-36.03zm0 15.04h36.04v5.76h-36.03zm0 15.04h36.04v5.88h-36.03zm-4.28-45.06h44.42v55.17h-6.4V66.7h-31.94v49.22h-6.08z"/><path fill="#000" d="M52.13 111h-1v1h1zm0-6.43-.66-.75-.34.3v.45zm5.76-48.87-.7.73.77.72.68-.8zm-6.34-6.04-.73-.68-.67.72.71.68zm17 52.7-.7-.72-2.1 2.02 2.9-.3zm29.27-.77h1v-1h-1zm0 9.41v1h1v-1zm-44.7 0v-6.43h-2V111zm-.33-5.68c10.48-9.24 18.44-17.33 23.78-24.6s8.14-13.81 8.14-19.93h-2c0 5.5-2.52 11.63-7.75 18.74-5.22 7.1-13.05 15.09-23.5 24.29zM84.7 60.79c0-3.96-1.05-7.43-3.25-9.93-2.2-2.52-5.48-3.93-9.65-3.93v2c3.7 0 6.38 1.23 8.15 3.25 1.79 2.03 2.75 4.99 2.75 8.61zM71.8 46.93c-6 0-10.87 3.73-14.68 8.12l1.51 1.3c3.68-4.24 8.04-7.42 13.17-7.42zm-13.23 8.05-6.34-6.05-1.38 1.45 6.34 6.05zm-6.3-4.64C58.3 43.84 64.3 40.1 73.14 40.1v-2c-9.58 0-16.07 4.13-22.33 10.88zM73.16 40.1c6.26 0 11.32 2 14.81 5.49 3.5 3.48 5.5 8.51 5.5 14.72h2c0-6.65-2.16-12.23-6.09-16.14s-9.52-6.07-16.22-6.07zm20.3 20.2c0 6.5-2.62 13.22-7.18 20.15-4.54 6.93-10.96 14-18.43 21.18l1.39 1.44c7.5-7.22 14.05-14.4 18.72-21.52 4.66-7.1 7.5-14.21 7.5-21.25zm-24.81 43.05c3.64-.39 8.11-.77 11.51-.77v-2c-3.51 0-8.07.4-11.72.77zm11.51-.77h17.66v-2H80.16zm16.66-1V111h2v-9.4zm1 8.41h-45.7v2h45.7zm15.55-48.86v-1h-1v1zm43.14 0h1v-1h-1zm0 54.34v1h1v-1zm-6.46 0h-1v1h1zm0-48.26h1v-1h-1zm-30.47 0v-1h-1v1zm0 48.45v1h1v-1zm-6.2 0h-1v1h1zm4.22-32.64v-1h-1v1zm35.13 0h1v-1h-1zm0 5.95v1h1v-1zm-35.13 0h-1v1h1zm-.07 16.45v-1h-1v1zm35.27 0h1v-1h-1zm0 6.08v1h1v-1zm-35.27 0h-1v1h1zm-4.16-49.37h43.14v-2h-43.14zm42.14-1v54.34h2V61.14zm1 53.34h-6.46v2h6.46zm-5.46 1V67.22h-2v48.26zm-1-49.26h-30.47v2h30.47zm-31.47 1v48.45h2V67.22zm1 47.45h-6.2v2h6.2zm-5.2 1V61.14h-2v54.53zm3.22-31.64h35.13v-2H117.6zm34.13-1v5.95h2v-5.95zm1 4.95H117.6v2h35.13zm-34.13 1v-5.95h-2v5.95zm-1.07 17.45h35.27v-2h-35.27zm34.27-1v6.08h2v-6.08zm1 5.08h-35.27v2h35.27zm-34.27 1v-6.08h-2v6.08zm62.1-35.77v-1h-1v1zm36.04 0h1v-1h-1zm0 5.76v1h1v-1zm-36.03 0h-1v1h1zm0 9.28v-1h-1v1zm36.03 0h1v-1h-1zm0 5.76v1h1v-1zm-36.03 0h-1v1h1zm0 9.28v-1h-1v1zm36.03 0h1v-1h-1zm0 5.88v1h1v-1zm-36.03 0h-1v1h1zm-4.29-50.94v-1h-1v1zm44.42 0h1v-1h-1zm0 55.17v1h1v-1zm-6.4 0h-1v1h1zm0-49.22h1v-1h-1zm-31.94 0v-1h-1v1zm0 49.22v1h1v-1zm-6.08 0h-1v1h1zm4.29-39.2h36.03v-2h-36.03zm35.03-1v5.77h2v-5.76zm1 4.77h-36.03v2h36.03zm-35.03 1v-5.76h-2v5.76zm-1 10.28h36.03v-2h-36.03zm35.03-1v5.76h2v-5.76zm1 4.76h-36.03v2h36.03zm-35.03 1v-5.76h-2v5.76zm-1 10.28h36.03v-2h-36.03zm35.03-1v5.88h2v-5.88zm1 4.88h-36.03v2h36.03zm-35.03 1v-5.88h-2v5.88zm-5.29-49.94h44.42v-2h-44.42zm43.42-1v55.17h2V60.76zm1 54.17h-6.4v2h6.4zm-5.4 1V66.7h-2v49.22zm-1-50.22h-31.94v2h31.94zm-32.94 1v49.22h2V66.7zm1 48.22h-6.08v2h6.08zm-5.08 1V60.76h-2v55.17z" mask="url(#b)"/><path fill="#ff0084" d="M46.67 70H280l-46.67 69H0z"/><path fill="#fff" d="M52.13 111v-6.43C73.06 86.14 83.7 72.4 83.7 60.79c0-7.58-4.03-12.86-11.9-12.86-5.57 0-10.18 3.45-13.92 7.77l-6.34-6.04c6.15-6.63 12.39-10.56 21.6-10.56 12.96 0 21.31 8.35 21.31 21.21 0 13.54-10.94 27.65-25.92 42.05 3.65-.38 8.16-.77 11.62-.77h17.66V111zm61.24-49.86h43.14v54.34h-6.46V67.22h-30.47v48.45h-6.2zm4.23 21.9h35.13v5.94H117.6zm-.07 22.4h35.27v6.07h-35.27zm63.1-29.7h36.04v5.76h-36.03zm0 15.04h36.04v5.76h-36.03zm0 15.04h36.04v5.88h-36.03zm-4.28-45.06h44.42v55.17h-6.4V66.7h-31.94v49.22h-6.08z"/></g><defs><clipPath id="a"><path fill="#fff" d="M0 0h280v139H0z"/></clipPath></defs></svg>