<svg xmlns="http://www.w3.org/2000/svg" width="80" height="46" fill="none" viewBox="0 0 80 46"><mask id="a" width="56" height="28" x="10" y="12" fill="#000" maskUnits="userSpaceOnUse"><path fill="#fff" d="M10 12h56v28H10z"/><path d="M11.38 37v-2.14c6.97-6.15 10.52-10.72 10.52-14.6 0-2.52-1.34-4.28-3.96-4.28-1.86 0-3.4 1.15-4.64 2.59l-2.12-2.02c2.05-2.2 4.13-3.52 7.2-3.52 4.32 0 7.1 2.79 7.1 7.07 0 4.52-3.64 9.22-8.63 14.02 1.21-.13 2.72-.26 3.87-.26h5.89V37zm20.19-15.58h13.48V38.4h-2.02V23.32h-9.52v15.14h-1.94zm1.32 6.84h10.98v1.86H32.89zm-.02 7h11.02v1.9H32.87zm19.72-9.28h11.26v1.8H52.59zm0 4.7h11.26v1.8H52.59zm0 4.7h11.26v1.84H52.59zM51.25 21.3h13.88v17.24h-2V23.16h-9.98v15.38h-1.9z"/></mask><path fill="#fff" d="M11.38 37v-2.14c6.97-6.15 10.52-10.72 10.52-14.6 0-2.52-1.34-4.28-3.96-4.28-1.86 0-3.4 1.15-4.64 2.59l-2.12-2.02c2.05-2.2 4.13-3.52 7.2-3.52 4.32 0 7.1 2.79 7.1 7.07 0 4.52-3.64 9.22-8.63 14.02 1.21-.13 2.72-.26 3.87-.26h5.89V37zm20.19-15.58h13.48V38.4h-2.02V23.32h-9.52v15.14h-1.94zm1.32 6.84h10.98v1.86H32.89zm-.02 7h11.02v1.9H32.87zm19.72-9.28h11.26v1.8H52.59zm0 4.7h11.26v1.8H52.59zm0 4.7h11.26v1.84H52.59zM51.25 21.3h13.88v17.24h-2V23.16h-9.98v15.38h-1.9z"/><path fill="#000" d="M11.38 37h-.5v.5h.5zm0-2.14-.33-.38-.17.15v.23zm1.92-16.3-.35.37.38.36.34-.4zm-2.12-2-.36-.35-.34.36.36.34zm5.67 17.56-.35-.36-1.05 1.01 1.45-.15zm9.76-.26h.5v-.5h-.5zm0 3.14v.5h.5V37zm-14.73 0v-2.14h-1V37zm-.17-1.77c3.5-3.08 6.16-5.79 7.95-8.23 1.79-2.43 2.74-4.65 2.74-6.74h-1c0 1.79-.82 3.8-2.55 6.15s-4.33 5-7.8 8.07zm10.7-14.97a5 5 0 0 0-1.13-3.42 4.3 4.3 0 0 0-3.34-1.36v1c1.19 0 2.03.4 2.59 1.02q.85.98.87 2.76zm-4.47-4.78c-2.08 0-3.74 1.28-5.02 2.76l.75.66c1.22-1.4 2.63-2.42 4.27-2.42zm-4.3 2.73-2.11-2.02-.7.72 2.12 2.02zm-2.09-1.32c1.99-2.14 3.95-3.36 6.83-3.36v-1c-3.25 0-5.46 1.41-7.56 3.68zm6.83-3.36c2.05 0 3.7.66 4.82 1.78a6.6 6.6 0 0 1 1.79 4.8h1c0-2.26-.74-4.16-2.08-5.5a7.6 7.6 0 0 0-5.53-2.08zm6.6 6.57c0 2.13-.85 4.33-2.36 6.63a43 43 0 0 1-6.12 7.03l.7.72a44 44 0 0 0 6.26-7.2c1.56-2.39 2.53-4.79 2.53-7.18zM16.9 34.62c1.21-.13 2.7-.26 3.82-.26v-1c-1.18 0-2.7.13-3.92.26zm3.82-.26h5.89v-1h-5.89zm5.39-.5V37h1v-3.14zm.5 2.64H11.38v1H26.6zm4.96-15.08v-.5h-.5v.5zm13.48 0h.5v-.5h-.5zm0 16.98v.5h.5v-.5zm-2.02 0h-.5v.5h.5zm0-15.08h.5v-.5h-.5zm-9.52 0v-.5h-.5v.5zm0 15.14v.5h.5v-.5zm-1.94 0h-.5v.5h.5zm1.32-10.2v-.5h-.5v.5zm10.98 0h.5v-.5h-.5zm0 1.86v.5h.5v-.5zm-10.98 0h-.5v.5h.5zm-.02 5.14v-.5h-.5v.5zm11.02 0h.5v-.5h-.5zm0 1.9v.5h.5v-.5zm-11.02 0h-.5v.5h.5zm-1.3-15.24h13.48v-1H31.57zm12.98-.5V38.4h1V21.42zm.5 16.48h-2.02v1h2.02zm-1.52.5V23.32h-1V38.4zm-.5-15.58h-9.52v1h9.52zm-10.02.5v15.14h1V23.32zm.5 14.64h-1.94v1h1.94zm-1.44.5V21.42h-1v17.04zm.82-9.7h10.98v-1H32.89zm10.48-.5v1.86h1v-1.86zm.5 1.36H32.89v1h10.98zm-10.48.5v-1.86h-1v1.86zm-.52 5.64h11.02v-1H32.87zm10.52-.5v1.9h1v-1.9zm.5 1.4H32.87v1h11.02zm-10.52.5v-1.9h-1v1.9zm19.22-11.18v-.5h-.5v.5zm11.26 0h.5v-.5h-.5zm0 1.8v.5h.5v-.5zm-11.26 0h-.5v.5h.5zm0 2.9v-.5h-.5v.5zm11.26 0h.5v-.5h-.5zm0 1.8v.5h.5v-.5zm-11.26 0h-.5v.5h.5zm0 2.9v-.5h-.5v.5zm11.26 0h.5v-.5h-.5zm0 1.84v.5h.5v-.5zm-11.26 0h-.5v.5h.5zM51.25 21.3v-.5h-.5v.5zm13.88 0h.5v-.5h-.5zm0 17.24v.5h.5v-.5zm-2 0h-.5v.5h.5zm0-15.38h.5v-.5h-.5zm-9.98 0v-.5h-.5v.5zm0 15.38v.5h.5v-.5zm-1.9 0h-.5v.5h.5zm1.34-12.06h11.26v-1H52.59zm10.76-.5v1.8h1v-1.8zm.5 1.3H52.59v1h11.26zm-10.76.5v-1.8h-1v1.8zm-.5 3.4h11.26v-1H52.59zm10.76-.5v1.8h1v-1.8zm.5 1.3H52.59v1h11.26zm-10.76.5v-1.8h-1v1.8zm-.5 3.4h11.26v-1H52.59zm10.76-.5v1.84h1v-1.84zm.5 1.34H52.59v1h11.26zm-10.76.5v-1.84h-1v1.84zM51.25 21.8h13.88v-1H51.25zm13.38-.5v17.24h1V21.3zm.5 16.74h-2v1h2zm-1.5.5V23.16h-1v15.38zm-.5-15.88h-9.98v1h9.98zm-10.48.5v15.38h1V23.16zm.5 14.88h-1.9v1h1.9zm-1.4.5V21.3h-1v17.24z" mask="url(#a)"/><path fill="#ff0084" d="M8 22h72l-8 24H0z"/><path fill="#fff" d="M11.38 37v-2.14c6.97-6.15 10.52-10.72 10.52-14.6 0-2.52-1.34-4.28-3.96-4.28-1.86 0-3.4 1.15-4.64 2.59l-2.12-2.02c2.05-2.2 4.13-3.52 7.2-3.52 4.32 0 7.1 2.79 7.1 7.07 0 4.52-3.64 9.22-8.63 14.02 1.21-.13 2.72-.26 3.87-.26h5.89V37zm20.19-15.58h13.48V38.4h-2.02V23.32h-9.52v15.14h-1.94zm1.32 6.84h10.98v1.86H32.89zm-.02 7h11.02v1.9H32.87zm19.72-9.28h11.26v1.8H52.59zm0 4.7h11.26v1.8H52.59zm0 4.7h11.26v1.84H52.59zM51.25 21.3h13.88v17.24h-2V23.16h-9.98v15.38h-1.9z"/></svg>