<svg xmlns="http://www.w3.org/2000/svg" data-name="レイヤー 2" viewBox="0 0 626.42 100"><path d="M386.99 0s3.51 1.54 3.51 6.15v56.92c0 3.79-3.12 7.57-7.64 5.39L312.03 0v90.77c0 6.15-6.84 9.23-12.37 9.23h39.58s-3.51-1.54-3.51-6.15V36.93c0-3.79 3.11-7.57 7.64-5.39l70.83 68.47V9.23c0-6.15 6.84-9.23 12.37-9.23zm85.05 0H437.2s2 0 2 3.08V40c0 6.15-6.28 13.85-6.28 13.85l25.13-24.62V7.69C458.05 0 472.04 0 472.04 0m46.53 3.08V40c0 6.15-6.28 13.85-6.28 13.85l25.13-24.62V7.69C537.42 0 551.41 0 551.41 0h-34.84s2 0 2 3.08m-22.39 93.84V7.69c0-7.69 17.3-7.69 17.3-7.69h-39.31s1.89 0 1.89 3.08v89.23c0 7.69-17.3 7.69-17.3 7.69h39.31s-1.89 0-1.89-3.08M203.75 0h-20.52s3.63 2.04 3.63 4.5c0 3.93-30.44 76.29-30.44 76.29l-30.46-65.63C120.48 4.34 131.45 0 131.45 0H96.08s5.08 2.3 7.64 6.06c6.39 9.43 44.05 93.94 44.05 93.94h7.81l37.24-90.97C195.67 1.66 205.83 0 205.83 0zM89.71 100H0s15.79-3.08 15.79-15.38V6.15c0-4.62-3.03-6.15-3.03-6.15h81.42s-5.86.64-5.86 3.1c0 1.4-.16 1.45-.46 1.45H53.99c-4.79 0-15.79.85-15.79 10.83v32.34h50.55s-5.86.64-5.86 3.1c0 1.4-.16 1.45-.46 1.45H38.21v36.82c0 4.62 1.32 6.15 3.03 6.15h52.95s-5.86.64-5.86 3.1c0 .46.05 1.41 1.4 1.65Zm202.6 0H202.6s15.79-3.08 15.79-15.38V6.15c0-4.62-3.03-6.15-3.03-6.15h81.42s-5.86.64-5.86 3.1c0 1.4-.16 1.45-.46 1.45h-33.87c-4.79 0-15.79.85-15.79 10.83v32.34h50.55s-5.86.64-5.86 3.1c0 1.4-.16 1.45-.46 1.45h-44.22v36.82c0 4.62 1.32 6.15 3.03 6.15h52.95s-5.86.64-5.86 3.1c0 .46.05 1.41 1.4 1.65Zm284.67-38.36V36.25C576.98 16.93 593.8 0 611.76 0h-23.05c-10.29 0-36.45 12.31-36.45 36.92zm24.72-23.28v25.39c0 19.32-16.82 36.25-34.78 36.25h23.05c10.29 0 36.45-12.31 36.45-36.92z" data-name="レイヤー 2" style="fill:#ff0084;stroke-width:0"/></svg>