<?xml version="1.0" encoding="UTF-8"?>
<svg id="_イヤー_2" data-name="レイヤー 2" xmlns="http://www.w3.org/2000/svg" viewBox="0 0 375 675">
  <defs>
    <style>
      .cls-1 {
        fill: #6524bf;
      }

      .cls-2 {
        fill: #ed4179;
      }

      .cls-3 {
        fill: #da1e8b;
      }

      .cls-4 {
        fill: #e52f81;
      }

      .cls-5 {
        fill: #a50bab;
      }

      .cls-6 {
        fill: #f35172;
      }

      .cls-7 {
        fill: #8919b5;
      }

      .cls-8 {
        fill: #ba03a0;
      }

      .cls-9 {
        fill: #cc0d95;
      }

      .cls-10 {
        fill: none;
      }

      .cls-11 {
        fill: #ff9169;
      }

      .cls-12 {
        fill: #fa7268;
      }

      .cls-13 {
        fill: #f7626c;
      }

      .cls-14 {
        fill: #3f31a8;
      }
    </style>
  </defs>
  <g id="_イヤー_1-2" data-name="レイヤー 1">
    <g>
      <g>
        <polygon class="cls-11" points="375 162.64 375 104.15 375 0 336.61 0 292 0 261.62 0 207.52 0 206.57 0 165.75 0 125.88 0 113.54 0 100.25 0 66.08 0 30.96 0 0 0 0 675 20.52 675 61.34 675 83.17 675 126.83 675 144.87 675 189.48 675 209.41 675 241.69 675 265.42 675 287.25 675 288.2 675 375 675 375 642.4 375 219.03 375 162.64"/>
        <path class="cls-12" d="M344.49,150c-8.83,24.98,2.56,50.03,10.34,75,2.35,7.65,4.38,15.3,5.94,22.96,3.54,17.35,4.71,34.72,1.94,52.04-3.99,24.97-15.95,50.03-19.27,75-.52,3.92-.83,7.83-.96,11.75-.75,21.08,3.44,42.2,5.99,63.25,2.62,21.49,3.4,43.04-.06,64.54-.56,3.49-1.24,6.98-2.03,10.46-5.69,24.97-17.65,50.03-6.92,75,6.45,15.02,21.18,30.08,35.54,42.4v32.6H0V0H375V104.15c-4.85,6.14-9.85,12.28-14.45,18.42-6.84,9.14-12.8,18.29-16.06,27.43Z"/>
        <path class="cls-13" d="M375,162.64c-1.08-4.22-2.34-8.43-3.75-12.64-3.06-9.14-6.82-18.29-10.7-27.43-6.71-15.86-13.75-31.73-17.96-47.57-6.65-24.98-6.27-50.03-6.17-62.47l.19-12.53H0V675H288.2l7.4-12.53c7.5-12.44,22.31-37.5,30.57-62.47,8.25-24.97,9.77-50.03,18.32-75,1.19-3.49,2.52-6.97,3.92-10.46,8.64-21.5,20-43.06,18.86-64.54-1.05-21.06-14.03-42.17-24.79-63.25-2-3.92-3.92-7.84-5.68-11.75-11.3-24.97-15.66-50.03-6.36-75,6.45-17.32,19.57-34.69,30.33-52.04,4.76-7.66,9.05-15.32,12.1-22.96,.79-1.99,1.5-3.98,2.13-5.97v-56.39Z"/>
        <path class="cls-6" d="M311.17,450c5.5,24.97-5.89,50.03-15.09,75-3.83,10.49-7.29,21-10.36,31.51-4.26,14.5-7.78,29.01-10.53,43.49-4.74,24.97-7.21,50.03-8.54,62.47l-1.23,12.53H0V0H292l7.11,12.53c7.12,12.44,21.36,37.49,23.07,62.47,1.8,24.98-9.02,50.02-6.64,75,2.37,24.98,17.94,50.03,18.22,75,.29,24.97-14.52,50.03-29.24,75-14.71,24.97-29.33,50.03-25.34,75,3.99,24.97,26.39,50.03,31.99,75Z"/>
        <path class="cls-2" d="M258.11,375c-10.06,24.97-18.99,50.03-14.05,75,4.94,24.97,23.54,50.03,33.41,75,4.11,10.49,6.66,21,8.25,31.51,2.19,14.51,2.56,29.01,2.67,43.49,.09,24.97-.48,50.03-.86,62.47l-.28,12.53H0V0H261.62l-4.75,12.53c-2.77,7.26-7.15,18.81-10.79,32.14-2.6,9.51-4.83,19.93-5.82,30.33-2.14,22.59,1.54,45.22,12.44,67.82,1.15,2.39,2.38,4.79,3.7,7.18,13.76,24.98,36.54,50.03,43.85,75,7.22,24.97-.95,50.03-10.82,75-9.77,24.97-21.17,50.03-31.32,75Z"/>
        <path class="cls-4" d="M252.7,142.82c-.82,2.39-1.65,4.79-2.47,7.18-8.54,24.98-16.14,50.03-18.32,75-2.28,24.97,.95,50.03,.47,75-.47,24.97-4.65,50.03-7.02,75-2.37,24.97-2.94,50.03-6.26,75-3.33,24.97-9.4,50.03-9.69,75-.28,24.97,5.03,50.03,11.39,75,6.36,24.97,13.58,50.03,17.28,62.47l3.61,12.53H0V0H207.52l11.67,12.53c6.87,7.26,17.68,18.81,26.89,32.14,6.58,9.51,12.34,19.93,15.26,30.33,6.26,22.59-.9,45.22-8.64,67.82Z"/>
        <path class="cls-3" d="M219.1,600c2.94,24.97-3.33,50.03-6.55,62.47l-3.14,12.53H0V0H206.57l.95,12.53c.94,12.44,2.84,37.49,7.4,62.47,4.65,24.98,11.86,50.02,11.58,75-.29,24.98-8.26,50.03-16.9,75-8.73,24.97-18.22,50.03-24.11,75-5.79,24.97-8.06,50.03-5.79,75,2.19,24.97,8.83,50.03,11.49,75,2.75,24.97,1.42,50.03,7.02,75,5.51,24.97,17.85,50.03,20.89,75Z"/>
        <path class="cls-9" d="M169.74,300c-6.17,24.97-12.25,50.03-8.26,75,3.99,24.97,17.84,50.03,17.37,75-.36,18.84-8.88,37.74-12.42,56.6-1.16,6.14-1.79,12.27-1.44,18.4,.59,10.45,4.04,20.92,8.34,31.4,5.97,14.54,13.6,29.08,17.57,43.6,6.84,24.97,2.66,50.03,.67,62.47l-2.09,12.53H0V0H165.75l5.7,12.53c5.69,12.44,17.08,37.49,24.48,62.47,7.5,24.98,10.92,50.02,9.02,75-1.9,24.98-9.11,50.03-15.94,75-6.84,24.97-13.1,50.03-19.27,75Z"/>
        <path class="cls-8" d="M173.33,556.4c-.56,14.54-3.04,29.09-6.35,43.6-5.69,24.97-13.85,50.03-18.03,62.47l-4.08,12.53H0V0H125.88l3.8,12.53c3.8,12.44,11.39,37.49,14.24,62.47,2.85,24.98,.95,50.02,2.85,75,1.89,24.98,7.59,50.03,10.63,75,2.94,24.97,3.32,50.03-.86,75-4.08,24.97-12.62,50.03-15.94,75-3.33,24.97-1.43,50.03,5.88,75,5.44,18.84,14.02,37.73,19.95,56.6,1.92,6.14,3.57,12.27,4.73,18.4,1.99,10.46,2.58,20.93,2.17,31.4Z"/>
        <path class="cls-5" d="M135.66,450c-2.18,24.97-5.98,50.03-8.54,75-2.47,24.97-3.8,50.03-3.61,75,.19,24.97,1.71,50.03,2.56,62.47l.76,12.53H0V0H113.54l4.27,12.53c4.28,12.44,12.82,37.49,16.14,62.47,3.32,24.98,1.43,50.02-4.74,75-6.17,24.98-16.62,50.03-20.7,75-4.17,24.97-1.9,50.03,4.27,75,6.17,24.97,16.24,50.03,20.98,75,4.75,24.97,4.18,50.03,1.9,75Z"/>
        <path class="cls-7" d="M98.55,450c3.89,24.97-.48,50.03-2.85,75-2.37,24.97-2.75,50.03-4.46,75-1.71,24.97-4.94,50.03-6.46,62.47l-1.61,12.53H0V0H100.25l-1.89,12.53c-1.9,12.44-5.7,37.49-9.97,62.47-4.27,24.98-9.02,50.02-6.84,75,2.28,24.98,11.4,50.03,16.62,75,5.22,24.97,6.55,50.03,1.14,75-5.42,24.97-17.38,50.03-17.28,75,.19,24.97,12.53,50.03,16.52,75Z"/>
        <path class="cls-1" d="M71.02,600c-1.43,24.97-5.6,50.03-7.6,62.47l-2.08,12.53H0V0H66.08l-1.71,12.53c-1.8,12.44-5.22,37.49-6.17,62.47-.94,24.98,.57,50.02,2.95,75,2.37,24.98,5.6,50.03,2.75,75-2.85,24.97-11.77,50.03-11.87,75-.19,24.97,8.36,50.03,12.63,75,4.27,24.97,4.27,50.03,4.46,75,.1,24.97,.47,50.03,1.23,75,.76,24.97,2.09,50.03,.67,75Z"/>
        <path class="cls-14" d="M27.64,450c.76,24.97,6.83,50.03,6.17,75-.66,24.97-7.88,50.03-11.2,75-3.32,24.97-2.75,50.03-2.37,62.47l.28,12.53H0V0H30.96l.76,12.53c.86,12.44,2.37,37.49,2.56,62.47,.19,24.98-1.13,50.02-1.61,75-.47,24.98-.09,50.03-.95,75-.76,24.97-2.66,50.03-2.18,75,.47,24.97,3.32,50.03,2.56,75-.85,24.97-5.22,50.03-4.46,75Z"/>
      </g>
      <rect class="cls-10" x="0" width="375" height="675"/>
    </g>
  </g>
</svg>