<svg xmlns="http://www.w3.org/2000/svg" data-name="レイヤー 2" viewBox="0 0 375 675"><g data-name="レイヤー 1"><path d="M375 162.64V0H0v675h375z" style="fill:#ff9169"/><path d="M344.49 150c-8.83 24.98 2.56 50.03 10.34 75 2.35 7.65 4.38 15.3 5.94 22.96 3.54 17.35 4.71 34.72 1.94 52.04-3.99 24.97-15.95 50.03-19.27 75q-.77 5.88-.96 11.75c-.75 21.08 3.44 42.2 5.99 63.25 2.62 21.49 3.4 43.04-.06 64.54q-.84 5.24-2.03 10.46c-5.69 24.97-17.65 50.03-6.92 75 6.45 15.02 21.18 30.08 35.54 42.4V675H0V0h375v104.15c-4.85 6.14-9.85 12.28-14.45 18.42-6.84 9.14-12.8 18.29-16.06 27.43" style="fill:#fa7268"/><path d="M375 162.64a182 182 0 0 0-3.75-12.64c-3.06-9.14-6.82-18.29-10.7-27.43-6.71-15.86-13.75-31.73-17.96-47.57-6.65-24.98-6.27-50.03-6.17-62.47L336.61 0H0v675h288.2l7.4-12.53c7.5-12.44 22.31-37.5 30.57-62.47 8.25-24.97 9.77-50.03 18.32-75q1.8-5.23 3.92-10.46c8.64-21.5 20-43.06 18.86-64.54-1.05-21.06-14.03-42.17-24.79-63.25q-3.02-5.88-5.68-11.75c-11.3-24.97-15.66-50.03-6.36-75 6.45-17.32 19.57-34.69 30.33-52.04 4.76-7.66 9.05-15.32 12.1-22.96a89 89 0 0 0 2.13-5.97z" style="fill:#f7626c"/><path d="M311.17 450c5.5 24.97-5.89 50.03-15.09 75q-5.75 15.74-10.36 31.51A457 457 0 0 0 275.19 600c-4.74 24.97-7.21 50.03-8.54 62.47L265.42 675H0V0h292l7.11 12.53c7.12 12.44 21.36 37.49 23.07 62.47 1.8 24.98-9.02 50.02-6.64 75s17.94 50.03 18.22 75c.29 24.97-14.52 50.03-29.24 75s-29.33 50.03-25.34 75 26.39 50.03 31.99 75" style="fill:#f35172"/><path d="M258.11 375c-10.06 24.97-18.99 50.03-14.05 75s23.54 50.03 33.41 75a145 145 0 0 1 8.25 31.51c2.19 14.51 2.56 29.01 2.67 43.49.09 24.97-.48 50.03-.86 62.47l-.28 12.53H0V0h261.62l-4.75 12.53c-2.77 7.26-7.15 18.81-10.79 32.14-2.6 9.51-4.83 19.93-5.82 30.33-2.14 22.59 1.54 45.22 12.44 67.82q1.72 3.59 3.7 7.18c13.76 24.98 36.54 50.03 43.85 75 7.22 24.97-.95 50.03-10.82 75-9.77 24.97-21.17 50.03-31.32 75" style="fill:#ed4179"/><path d="m252.7 142.82-2.47 7.18c-8.54 24.98-16.14 50.03-18.32 75-2.28 24.97.95 50.03.47 75-.47 24.97-4.65 50.03-7.02 75s-2.94 50.03-6.26 75c-3.33 24.97-9.4 50.03-9.69 75s5.03 50.03 11.39 75a1764 1764 0 0 0 17.28 62.47l3.61 12.53H0V0h207.52l11.67 12.53c6.87 7.26 17.68 18.81 26.89 32.14 6.58 9.51 12.34 19.93 15.26 30.33 6.26 22.59-.9 45.22-8.64 67.82" style="fill:#e52f81"/><path d="M219.1 600c2.94 24.97-3.33 50.03-6.55 62.47L209.41 675H0V0h206.57l.95 12.53c.94 12.44 2.84 37.49 7.4 62.47 4.65 24.98 11.86 50.02 11.58 75-.29 24.98-8.26 50.03-16.9 75-8.73 24.97-18.22 50.03-24.11 75-5.79 24.97-8.06 50.03-5.79 75 2.19 24.97 8.83 50.03 11.49 75 2.75 24.97 1.42 50.03 7.02 75 5.51 24.97 17.85 50.03 20.89 75" style="fill:#da1e8b"/><path d="M169.74 300c-6.17 24.97-12.25 50.03-8.26 75s17.84 50.03 17.37 75c-.36 18.84-8.88 37.74-12.42 56.6a76 76 0 0 0-1.44 18.4c.59 10.45 4.04 20.92 8.34 31.4 5.97 14.54 13.6 29.08 17.57 43.6 6.84 24.97 2.66 50.03.67 62.47L189.48 675H0V0h165.75l5.7 12.53c5.69 12.44 17.08 37.49 24.48 62.47 7.5 24.98 10.92 50.02 9.02 75s-9.11 50.03-15.94 75a3080 3080 0 0 0-19.27 75" style="fill:#cc0d95"/><path d="M173.33 556.4c-.56 14.54-3.04 29.09-6.35 43.6-5.69 24.97-13.85 50.03-18.03 62.47L144.87 675H0V0h125.88l3.8 12.53c3.8 12.44 11.39 37.49 14.24 62.47s.95 50.02 2.85 75c1.89 24.98 7.59 50.03 10.63 75 2.94 24.97 3.32 50.03-.86 75-4.08 24.97-12.62 50.03-15.94 75a180 180 0 0 0 5.88 75c5.44 18.84 14.02 37.73 19.95 56.6a164 164 0 0 1 4.73 18.4 138 138 0 0 1 2.17 31.4" style="fill:#ba03a0"/><path d="M135.66 450c-2.18 24.97-5.98 50.03-8.54 75a708 708 0 0 0-3.61 75 1087 1087 0 0 0 2.56 62.47l.76 12.53H0V0h113.54l4.27 12.53c4.28 12.44 12.82 37.49 16.14 62.47s1.43 50.02-4.74 75-16.62 50.03-20.7 75c-4.17 24.97-1.9 50.03 4.27 75s16.24 50.03 20.98 75 4.18 50.03 1.9 75" style="fill:#a50bab"/><path d="M98.55 450c3.89 24.97-.48 50.03-2.85 75s-2.75 50.03-4.46 75-4.94 50.03-6.46 62.47L83.17 675H0V0h100.25l-1.89 12.53c-1.9 12.44-5.7 37.49-9.97 62.47s-9.02 50.02-6.84 75c2.28 24.98 11.4 50.03 16.62 75s6.55 50.03 1.14 75-17.38 50.03-17.28 75c.19 24.97 12.53 50.03 16.52 75" style="fill:#8919b5"/><path d="M71.02 600c-1.43 24.97-5.6 50.03-7.6 62.47L61.34 675H0V0h66.08l-1.71 12.53C62.57 24.97 59.15 50.02 58.2 75c-.94 24.98.57 50.02 2.95 75 2.37 24.98 5.6 50.03 2.75 75s-11.77 50.03-11.87 75c-.19 24.97 8.36 50.03 12.63 75s4.27 50.03 4.46 75c.1 24.97.47 50.03 1.23 75s2.09 50.03.67 75" style="fill:#6524bf"/><path d="M27.64 450c.76 24.97 6.83 50.03 6.17 75s-7.88 50.03-11.2 75-2.75 50.03-2.37 62.47l.28 12.53H0V0h30.96l.76 12.53A1077 1077 0 0 1 34.28 75c.19 24.98-1.13 50.02-1.61 75-.47 24.98-.09 50.03-.95 75-.76 24.97-2.66 50.03-2.18 75 .47 24.97 3.32 50.03 2.56 75-.85 24.97-5.22 50.03-4.46 75" style="fill:#3f31a8"/><path d="M0 0h375v675H0z" style="fill:none"/></g></svg>