<svg xmlns="http://www.w3.org/2000/svg" data-name="レイヤー 2" viewBox="0 0 1463 1080"><g data-name="レイヤー 1"><path d="M0 0h1463v1080H0z" style="fill:#ff9169"/><path d="M1343.98 240c-32.51 37.72 5.26 75.55 35.14 113.28l1.26 1.6q2.01 2.56 3.96 5.12c9.19 12.24 17.09 24.49 23.18 36.74 13.81 27.76 18.35 55.54 7.56 83.26-15.56 39.96-62.22 80.04-75.18 120a84 84 0 0 0-3.77 18.79c-2.91 33.72 13.41 67.51 23.4 101.21 6.05 20.42 9.59 40.86 8.64 61.31q-.03.97-.1 1.94a130 130 0 0 1-8.77 39.99 136 136 0 0 1-7.92 16.76c-22.22 39.96-68.88 80.04-27.03 120 11.39 10.87 29.38 21.76 50.86 32.24l1.68.81c25.66 12.4 56.1 24.22 86.11 34.79V1080H0V0h1463v166.64c-11.68 6.06-23.57 12.12-35.17 18.18l-1.97 1.04a1156 1156 0 0 0-19.19 10.24c-26.71 14.65-49.96 29.28-62.69 43.9" style="fill:#fa7268"/><path d="M1463 260.18v90.3a109 109 0 0 1-8.3 9.52c-11.91 12.24-28.64 24.49-47.18 36.74-19.98 13.22-42.05 26.43-62.41 39.65l-2.87 1.87c-21.27 13.92-40.44 27.84-53.07 41.74-21.87 24.09-24.38 48.22-13.26 72.34l.87 1.83c7.48 15.28 20.36 30.56 37.2 45.83a458 458 0 0 0 22.15 18.79c41.99 33.73 92.66 67.51 96.72 101.21 1.58 12.19-2.97 24.4-11.01 36.6q-.97 1.48-2.01 2.95c-14.93 21.23-39.75 42.47-60.53 63.69a291 291 0 0 0-15.32 16.76c-33.33 39.96-39.26 80.04-71.48 120-32.21 39.96-89.98 80.04-119.24 99.96l-7.7 5.35-1.77 1.22-19.41 13.47H0V0h1313.24l-.74 20.04c-.22 11.8-.83 30.67 4.1 52.4l.48 2.07a146 146 0 0 0 19.49 45.49c16.44 25.34 43.89 50.73 70.1 76.1q7.3 7.05 14.36 14.1l1.47 1.49c9.37 9.44 18.22 18.88 25.91 28.31a197 197 0 0 1 14.59 20.18" style="fill:#f7626c"/><path d="M1089.2 600c7.95 20.44 34.7 40.91 61.85 61.38l1.51 1.13c7.13 5.37 14.25 10.73 21.05 16.1l1.39 1.09c16.92 13.44 31.65 26.88 38.99 40.3 21.48 39.96-22.96 80.04-58.88 120l-4.12 4.68-1.81 2.07a596 596 0 0 0-34.49 43.64c-16.58 23.21-30.31 46.43-41.05 69.61-10.64 22.98-18.35 46-23.97 65.2l-.5 1.71c-3.89 13.45-6.75 24.93-8.86 33.05l-4.81 20.04H0V0h1139.19l27.77 20.04c9.56 6.86 22.41 16.1 35.43 26.91l2.27 1.91c24.06 20.28 48.05 45.73 52.29 71.14 7.04 39.96-35.18 80.04-25.92 120s69.99 80.04 71.1 120-56.66 80.04-114.06 120l-4.04 2.81-1.85 1.29c-55.33 38.6-108.01 77.31-92.98 115.9" style="fill:#f35172"/><path d="M1006.98 600c-39.25 39.96-74.06 80.04-54.8 120 19.25 39.96 91.84 80.04 130.35 120a168 168 0 0 1 12.17 14.23 138 138 0 0 1 19.99 36.16c8.57 23.21 10 46.43 10.43 69.61.35 37.81-1.62 75.74-3.09 96.58l-.13 1.81-.12 1.57-1.11 20.04H0V0h1020.69l-18.52 20.04c-10.81 11.62-27.91 30.11-42.12 51.43-10.15 15.22-18.82 31.88-22.68 48.53-8.37 36.14 5.96 72.37 48.5 108.52q6.74 5.75 14.45 11.48c53.7 39.96 142.57 80.04 171.09 120 28.14 39.96-3.71 80.04-42.22 120-38.14 39.96-82.58 80.04-122.21 120" style="fill:#ed4179"/><path d="M985.87 228.52 976.25 240a766 766 0 0 0-29.41 37.19l-1.04 1.43a359 359 0 0 0-20.09 30.43l-.92 1.61c-9.44 16.45-16.51 32.91-20.01 49.34-8.89 39.96 3.7 80.04 1.85 120s-18.15 80.04-27.41 120c-9.25 39.96-11.47 80.04-24.44 120s-36.66 80.04-37.77 120l-.03 2.13-.01 1.78c.07 8.94 1.2 17.88 3.2 26.82q.32 1.5.69 2.98c7.02 28.77 22.75 57.56 40.59 86.29 24.81 39.96 52.96 80.04 67.4 99.96l14.07 20.04H0V0h809.6l45.55 20.04c26.79 11.62 68.97 30.11 104.9 51.43 25.65 15.22 48.12 31.89 59.53 48.53 24.44 36.13-3.5 72.36-33.71 108.52" style="fill:#e52f81"/><path d="M883.67 240c-.54 19.56-8.28 39.15-19.98 58.74l-.98 1.62c-12.1 19.89-28.21 39.78-44.96 59.64-31.78 37.28-66.15 74.66-89.25 111.96l-2.06 3.37q-1.41 2.33-2.75 4.67c-16.16 28.59-25.31 57.24-25.95 85.86q-.04 1.62-.04 3.26-.02 15.45 3.4 30.88c8.52 39.96 34.44 80.04 44.81 120 10.74 39.96 5.55 80.04 27.4 120 21.48 39.96 69.62 80.04 81.47 120 11.48 39.96-12.96 80.04-25.55 99.96L817.01 1080H0V0h805.9l3.7 20.04c3.71 19.92 11.11 60 28.89 99.96 11.72 25.8 27.6 51.66 37.09 77.5a163 163 0 0 1 1.74 4.97c4.18 12.52 6.7 25.03 6.35 37.53" style="fill:#da1e8b"/><path d="M799.61 240c-3.03 16.34-9.53 32.7-17.97 49.06l-.87 1.67c-12.1 23.1-27.99 46.2-43.38 69.27-26.66 39.96-51.1 80.04-75.17 120-9.15 15.18-18.24 30.38-25.14 45.59q-.6 1.31-1.17 2.63C625.44 552.16 620.7 576.1 630 600c4.85 12.46 13.45 24.94 22.93 37.42l1.15 1.51c20.67 27.03 44.94 54.08 43.69 81.07-1.4 30.15-34.63 60.37-48.47 90.56-4.51 9.82-6.96 19.63-5.6 29.44 2.33 16.74 15.76 33.49 32.55 50.25 23.3 23.26 53.06 46.53 68.55 69.75 26.66 39.96 10.37 80.04 2.59 99.96l-8.15 20.04H0V0h646.66l22.22 20.04c22.22 19.92 66.66 60 95.55 99.96 29.25 39.96 42.58 80.04 35.18 120" style="fill:#cc0d95"/><path d="M676.25 890.25c-2.19 23.26-11.85 46.53-24.77 69.75-22.22 39.96-54.07 80.04-70.36 99.96L565.19 1080H0V0h491.13l14.81 20.04c8.63 11.6 22.29 30.05 34.38 51.33l.9 1.6c8.31 14.81 15.8 30.93 20.27 47.03 11.11 39.96 3.7 80.04 11.11 120 2.69 14.51 7.33 29.04 12.73 43.58l.65 1.72c9.33 24.91 20.72 49.83 28.1 74.7 11.48 39.96 12.96 80.04-3.34 120-10.86 27.26-29.83 54.58-44.9 81.88q-.73 1.3-1.42 2.61c-6.43 11.84-12.05 23.68-15.89 35.51-12.96 39.96-5.55 80.04 22.96 120 6.52 9.26 14.2 18.53 22.38 27.8l1.25 1.42c18.13 20.44 38.53 40.9 54.18 61.34 7.51 9.82 13.93 19.63 18.47 29.44 7.76 16.74 10.06 33.49 8.48 50.25" style="fill:#ba03a0"/><path d="M529.27 720c-8.51 39.96-23.33 80.04-33.33 120-9.62 39.96-14.81 80.04-14.07 120 .5 27.23 3.42 54.52 6.28 75.44l.63 4.55a817 817 0 0 0 3.09 19.97l2.96 20.04H0V0h442.99l16.66 20.04c14 16.73 39.75 47.68 55.32 80.84l.82 1.78a161 161 0 0 1 6.82 17.34c12.96 39.96 5.55 80.04-18.52 120-10.53 17.49-24.25 34.99-37.7 52.51l-1.48 1.92c-16.74 21.87-32.85 43.74-41.55 65.57-16.29 39.96-7.4 80.04 16.67 120 21.13 35.09 53.97 70.26 74.2 105.37l.88 1.52q3.71 6.56 6.76 13.11c18.51 39.96 16.29 80.04 7.4 120" style="fill:#a50bab"/><path d="M384.48 720c15.18 39.96-1.85 80.04-11.11 120s-10.74 80.04-17.41 120-19.25 80.04-25.18 99.96l-4.77 15.19-.69 2.19-.83 2.66H0V0h391.14l-7.4 20.04c-7.41 19.92-22.22 60-38.89 99.96-16.66 39.96-35.18 80.04-26.66 120 8.89 39.96 44.44 80.04 64.81 120 20.36 39.96 25.55 80.04 4.44 120s-67.77 80.04-67.4 120c.3 16.4 8.59 32.83 19.35 49.25l.99 1.53c15.31 23.08 35.13 46.17 44.1 69.22" style="fill:#8919b5"/><path d="M277.09 960a285 285 0 0 1-7.11 34.39c-7.21 27.18-17 51.44-22.52 65.57l-8.15 20.04H0V0h257.83l-6.67 20.04c-7.03 19.92-20.36 60-24.07 99.96-3.7 39.96 2.22 80.04 11.48 120s21.85 80.04 10.74 120-45.92 80.04-46.29 120c-.74 39.96 32.59 80.04 49.25 120 9.55 22.9 13.63 45.83 15.51 68.76l.14 1.77c1.27 16.5 1.45 32.99 1.76 49.47a1858 1858 0 0 0 4.81 120c2.97 39.96 8.15 80.04 2.6 120" style="fill:#6524bf"/><path d="M131.88 826.75a101 101 0 0 1 .04 13.25c-2.59 39.96-30.74 80.04-43.7 120s-10.74 80.04-9.25 99.96l1.11 20.04H0V0h120.81l2.96 20.04c3.34 19.92 9.26 60 10 99.96s-4.44 80.04-6.29 120-.37 80.04-3.71 120c-2.96 39.96-10.37 80.04-8.51 120s12.96 80.04 9.99 120c-2.76 33.11-14.92 66.3-17.32 99.44q-.08.88-.12 1.78c-.4 6.26-.42 12.52.04 18.78 2.57 34.62 20.7 69.33 23.82 103.98q.12 1.38.21 2.77" style="fill:#3f31a8"/><path d="M0 0h1463v1080H0z" style="fill:none"/><path d="M971.5 300.98a953 953 0 0 1-95.92-103.48 952 952 0 0 1-53.17-73.48 805 805 0 0 1-17.14-27.09A978 978 0 0 1 753.59 0h-1.92a979 979 0 0 0 52.11 97.84 791 791 0 0 0 17.17 27.14A956 956 0 0 0 970.3 302.25a8.2 8.2 0 0 1 1.7 9.96 8.2 8.2 0 0 1-9.11 4.27c-12.2-2.61-24.54-5.07-37.18-7.43a1715 1715 0 0 0-47.1-8.07q-7.43-1.16-14.92-2.24a1534 1534 0 0 0-82.05-9.68c-17.99-1.65-36.09-3-54.22-4.03a1451 1451 0 0 0-65.68-2.22 1653 1653 0 0 0-76.41.77l-.35.01c-8.53.33-17.2.78-25.58 1.22a1515 1515 0 0 0-93.01 7.7 1608 1608 0 0 0-41.67 5.25h-.01a8.3 8.3 0 0 1-7.58-2.86 8.2 8.2 0 0 1-1.54-7.84 593 593 0 0 1 40.02-93.29 582 582 0 0 1 60.18-91.11A590 590 0 0 1 621.57 0h-2.88a590 590 0 0 0-103.72 100.88l-1.38 1.71a584 584 0 0 0-59.53 90.35 595 595 0 0 0-40.13 93.57 9.9 9.9 0 0 0 1.86 9.52 10 10 0 0 0 9.17 3.46q20.03-2.8 39.95-5.06a1530 1530 0 0 1 94.58-7.88c8.38-.43 17.04-.88 25.55-1.22l.94-.03c24.28-.83 49.76-1.08 75.74-.74 20.92.21 42.99.96 65.6 2.21q26.83 1.54 53.45 3.96a1551 1551 0 0 1 97.57 11.97c16.07 2.53 31.47 5.17 46.45 7.96a1474 1474 0 0 1 37.75 7.53q1.1.23 2.18.23a9.8 9.8 0 0 0 8.83-5.4 9.9 9.9 0 0 0-2.05-12.04M770.24 454.77c-2.88-3.14-7.99-4.84-12.91-1.56a1450 1450 0 0 1-60.96 38.5 1647 1647 0 0 1-72.36 40.93c-7.51 3.98-15.16 7.91-22.55 11.72l-.68.34a1549 1549 0 0 1-34.94 17.18 1568 1568 0 0 1-51.61 23.49 1570 1570 0 0 1-58.12 23.89l-.27.06a1455 1455 0 0 1-38.38 14.38 1543 1543 0 0 1-78.07 25.55A1549 1549 0 0 1 32.34 708a9.9 9.9 0 0 0-8.72 6.91c-1.27 3.9-.11 8 3.01 10.67a1558 1558 0 0 1 105.25 101.17q13.46 14.22 25.86 28.06a1396 1396 0 0 1 45.8 52.99 1440 1440 0 0 1 32.42 40.71 1554 1554 0 0 1 34.02 45.88 1548 1548 0 0 1 39.77 58.45 1789 1789 0 0 1 15.57 24.5l1.66 2.66h2.05l-3.02-4.85a1544 1544 0 0 0-55.45-82.95 1537 1537 0 0 0-33.21-44.75 1398 1398 0 0 0-32.46-40.76 1407 1407 0 0 0-45.85-53.06 1418 1418 0 0 0-27.37-29.65 1556 1556 0 0 0-103.89-99.72 8.15 8.15 0 0 1-2.5-8.82 8.2 8.2 0 0 1 7.21-5.7q37.77-3.33 75.32-8.52a1548 1548 0 0 0 232.57-50.44q39.16-11.7 77.67-25.44a1461 1461 0 0 0 38.28-14.33l.26-.06a1599 1599 0 0 0 107.83-46.46 1578 1578 0 0 0 37.16-18.23l.68-.35c7.4-3.8 15.04-7.74 22.57-11.72q5.56-2.97 11.08-5.97a1649 1649 0 0 0 90.53-52.89c10.81-6.8 21.46-13.71 31.86-20.66 4.06-2.71 8.27-1.31 10.66 1.29a8.4 8.4 0 0 1 2.23 5.58c0 1.68-.55 3.46-1.89 5.14a1598 1598 0 0 0-53.94 73.11l-3.21 4.7a866 866 0 0 0-7.98 11.8q-3.22 4.77-6.43 9.57a1544 1544 0 0 0-144.86 274.08 1574 1574 0 0 0-75.6 240.06h1.79a1528 1528 0 0 1 9.71-40.01A1574 1574 0 0 1 554.5 840.6a1549 1549 0 0 1 99.58-201.67 1494 1494 0 0 1 51.55-81.67c2.61-3.96 5.33-7.94 7.96-11.79l3.21-4.69a1516 1516 0 0 1 25.97-36.28c9-12.19 18.32-24.47 27.9-36.73 3.7-4.64 2.45-9.87-.43-13m411.94 29.33q-.4 4.87-.83 9.73a960 960 0 0 1-8.69 68.39 975 975 0 0 1-9.56 50.16c-.71 3.21-1.55 7.02-2.47 10.94a958 958 0 0 1-9.58 38.06l1.51 1.13a983 983 0 0 0 12.25-49.76 963 963 0 0 0 19.22-129.94zm249.98-337.67a10 10 0 0 0-2.14-2.81 364 364 0 0 0-113.42-71.18q-16.5-6.53-33.81-11.53a365 365 0 0 0-153.71-10.99 9.8 9.8 0 0 0-7.08 4.76 10.1 10.1 0 0 0-.72 8.8 980 980 0 0 1 23.95 70.29 964 964 0 0 1 33.51 162.4l.01.11a957 957 0 0 1-6.09 265.94 975 975 0 0 1-9.56 50.16c-.71 3.21-1.55 7.02-2.47 10.94a958 958 0 0 1-13.46 51.89q-1.19 4.1-2.41 8.19a9.85 9.85 0 0 0 4.52 11.55c1.67 1 3.46 1.49 5.23 1.49a10 10 0 0 0 7-2.99 954 954 0 0 0 51.48-55.69 962 962 0 0 0 63.79-83.59l.53-.78a946 946 0 0 0 36.79-58.71 960 960 0 0 0 66.28-139.8 944 944 0 0 0 13.54-38.05 953 953 0 0 0 21.69-75.09 935 935 0 0 0 6.89-30.05 959 959 0 0 0 10.68-59.09c.31-2.1-.05-4.29-1.02-6.17m-.71 5.92a984 984 0 0 1-10.42 57.85 975 975 0 0 1-41.91 143.08 961 961 0 0 1-66.54 140.52 945 945 0 0 1-36.67 58.54l-.05.07a958 958 0 0 1-115.59 139.8c-3.35 3.36-7.54 2.77-10.1 1.24-2.58-1.54-5.1-4.97-3.73-9.55q1.22-4.1 2.41-8.2 1.9-6.57 3.71-13.19a983 983 0 0 0 12.25-49.76 963 963 0 0 0 19.22-129.94 957 957 0 0 0-3.54-186.65v-.1a965 965 0 0 0-57.57-233.21 8.4 8.4 0 0 1 .59-7.29 8 8 0 0 1 5.82-3.91 363 363 0 0 1 75.33-2.79 368 368 0 0 1 77.64 13.73 372 372 0 0 1 34.78 11.92 362 362 0 0 1 111.76 70.4 8.5 8.5 0 0 1 2.61 7.44M1182.18 484.1q-.4 4.87-.83 9.73a960 960 0 0 1-8.69 68.39 975 975 0 0 1-9.56 50.16c-.71 3.21-1.55 7.02-2.47 10.94a958 958 0 0 1-9.58 38.06l1.51 1.13a983 983 0 0 0 12.25-49.76 963 963 0 0 0 19.22-129.94zm264.71 267.65a9.9 9.9 0 0 0-11.83-1.87 960 960 0 0 1-66.89 31.43 969 969 0 0 1-260.31 69.64q-7.2.89-14.42 1.65a962 962 0 0 1-186.55 1.78 956 956 0 0 1-89.91-12.25l-3.61-.67a9.9 9.9 0 0 0-10.33 4.38 9.9 9.9 0 0 0 1.48 12.8 949 949 0 0 0 23.27 21.26 936 936 0 0 0 35.42 29.84 969 969 0 0 0 137.94 92.36 970 970 0 0 0 182.05 77.58l1.04.32h6q-3.27-.98-6.53-1.99a952 952 0 0 1-61.68-21.43 971 971 0 0 1-120.03-56.02 967 967 0 0 1-181.83-129.83 946 946 0 0 1-14.44-13.36 8.2 8.2 0 0 1-1.23-10.58 8 8 0 0 1 6.86-3.77q.83 0 1.68.16l3.93.73a958 958 0 0 0 182.26 15.88 969 969 0 0 0 108.84-7.1 948 948 0 0 0 41.11-5.94 968 968 0 0 0 240.19-72.8 971 971 0 0 0 46.49-22.51 8.15 8.15 0 0 1 9.78 1.53 8.26 8.26 0 0 1 1.3 9.91l-.11.18-.07.14a603 603 0 0 0-23.87 48.15 593 593 0 0 0-47.68 180.89l-.07.69a593 593 0 0 0-2.13 87.07h1.75a593 593 0 0 1 2.12-86.9l.01-.05a591 591 0 0 1 47.6-180.99 601 601 0 0 1 23.78-47.99l.18-.31a10 10 0 0 0-1.56-12.01" style="fill:#fff"/></g></svg>