<?xml version="1.0" encoding="UTF-8"?>
<svg id="_イヤー_2" data-name="レイヤー 2" xmlns="http://www.w3.org/2000/svg" viewBox="0 0 1463 1080">
  <defs>
    <style>
      .cls-1 {
        fill: #6524bf;
      }

      .cls-2 {
        fill: #fff;
      }

      .cls-3 {
        fill: #ed4179;
      }

      .cls-4 {
        fill: #da1e8b;
      }

      .cls-5 {
        fill: #e52f81;
      }

      .cls-6 {
        fill: #a50bab;
      }

      .cls-7 {
        fill: #f35172;
      }

      .cls-8 {
        fill: #8919b5;
      }

      .cls-9 {
        fill: #ba03a0;
      }

      .cls-10 {
        fill: #cc0d95;
      }

      .cls-11 {
        fill: none;
      }

      .cls-12 {
        fill: #ff9169;
      }

      .cls-13 {
        fill: #fa7268;
      }

      .cls-14 {
        fill: #f7626c;
      }

      .cls-15 {
        fill: #3f31a8;
      }
    </style>
  </defs>
  <g id="_イヤー_1-2" data-name="レイヤー 1">
    <g>
      <g>
        <rect class="cls-12" width="1463" height="1080"/>
        <path class="cls-13" d="M1343.97998,240c-32.50977,37.71997,5.26025,75.55005,35.14014,113.28003,.41992,.54004,.83984,1.07007,1.25977,1.59998,1.34033,1.71008,2.66016,3.41003,3.95996,5.12,9.19043,12.23999,17.09033,24.48999,23.18018,36.73999,13.81006,27.76001,18.3501,55.54004,7.56006,83.26001-15.56006,39.95996-62.22021,80.04004-75.18018,120-2.02979,6.26001-3.22998,12.52002-3.77002,18.79004-2.90967,33.71997,13.41016,67.51001,23.40039,101.20996,6.0498,20.41992,9.58984,40.85999,8.63965,61.31006-.02002,.6499-.06006,1.29004-.1001,1.93994-.7998,13.34009-3.53955,26.66992-8.77002,39.98999-2.17969,5.59009-4.80957,11.17993-7.91992,16.76001-22.21973,39.95996-68.87988,80.04004-27.02979,120,11.39014,10.87,29.37988,21.76001,50.85986,32.23999,.56006,.27002,1.12012,.54004,1.68018,.81,25.65967,12.40002,56.1001,24.22003,86.10986,34.79004v52.15997H0V0H1463V166.64001c-11.68018,6.05994-23.56982,12.12-35.16992,18.18005-.66016,.33997-1.32031,.68994-1.97021,1.03992-6.52979,3.41003-12.94971,6.82996-19.18994,10.24011-26.70996,14.6499-49.95996,29.27991-62.68994,43.8999Z"/>
        <path class="cls-14" d="M1463,260.17993v90.30005c-2.4502,3.18005-5.20996,6.3501-8.2998,9.52002-11.91016,12.23999-28.64014,24.48999-47.18018,36.73999-19.97998,13.21997-42.0498,26.42993-62.41016,39.65002-.95996,.62-1.91992,1.23999-2.86963,1.87-21.27002,13.91992-40.44043,27.84009-53.07031,41.73999-21.87012,24.09009-24.37988,48.21997-13.25977,72.34009,.27979,.60986,.56982,1.21997,.87012,1.82983,7.47949,15.28003,20.35986,30.56006,37.19971,45.83008,6.8501,6.26001,14.3501,12.53003,22.1499,18.79004,41.99023,33.72998,92.66016,67.51001,96.72021,101.20996,1.58008,12.18994-2.97021,24.40002-11.01025,36.6001-.6499,.98999-1.31982,1.96997-2.00977,2.94995-14.93018,21.22998-39.75,42.46997-60.53027,63.68994-5.46973,5.59009-10.65967,11.17993-15.31982,16.76001-33.33008,39.95996-39.25977,80.04004-71.47998,120-32.20996,39.96002-89.97998,80.04004-119.24023,99.96002l-7.69971,5.34998-1.77002,1.22003-19.41016,13.46997H0V0H1313.24023l-.74023,20.04004c-.21973,11.80005-.83008,30.66992,4.1001,52.3999,.1499,.68005,.31006,1.37012,.47998,2.07007,3.46973,14.39001,9.41016,29.94995,19.48975,45.48999,16.43994,25.34009,43.89014,50.72998,70.1001,76.1001,4.8501,4.69995,9.66016,9.3999,14.36035,14.09985,.48975,.5,.97949,.98999,1.46973,1.48999,9.37012,9.44006,18.22021,18.88013,25.91016,28.31006,5.47998,6.71997,10.3999,13.44995,14.58984,20.17993Z"/>
        <path class="cls-7" d="M1089.2002,600c7.94971,20.43994,34.69971,40.91003,61.84961,61.38,.51025,.37,1.01025,.75,1.51025,1.13,7.12988,5.37,14.25,10.72998,21.0498,16.09998,.47021,.35999,.93018,.7301,1.39014,1.08997,16.91992,13.44006,31.6499,26.88013,38.99023,40.30005,21.47998,39.95996-22.95996,80.04004-58.88037,120-1.38965,1.56006-2.75977,3.12-4.11963,4.67993-.61035,.69006-1.20996,1.38013-1.81006,2.07007-12.59033,14.54004-24.1001,29.09009-34.49023,43.64001-16.58008,23.21008-30.31006,46.43005-41.0498,69.60999-10.64014,22.97998-18.3501,46-23.97021,65.20001-.16992,.57001-.33008,1.14001-.5,1.71002-3.88965,13.44995-6.75,24.92999-8.85986,33.04999l-4.81006,20.03998H0V0H1139.18994l27.77002,20.04004c9.56006,6.85999,22.41016,16.09998,35.43018,26.90991,.75,.63013,1.50977,1.26001,2.27002,1.91003,24.06006,20.28003,48.0498,45.7301,52.29004,71.14001,7.04004,39.95996-35.18018,80.04004-25.91992,120,9.25977,39.95996,69.98975,80.04004,71.09961,120,1.11035,39.95996-56.65967,80.04004-114.06006,120-1.34961,.93994-2.68994,1.88-4.03955,2.81006-.62012,.42993-1.23047,.85986-1.8501,1.29004-55.33008,38.59985-108.01025,77.30994-92.97998,115.8999Z"/>
        <path class="cls-3" d="M1006.97998,600c-39.25,39.95996-74.06006,80.04004-54.7998,120,19.25,39.95996,91.83984,80.04004,130.3501,120,4.00977,4.19995,7.62988,8.40002,10.90967,12.6001,.43018,.53992,.8501,1.07983,1.26025,1.62988,9.16992,12.05005,15.54004,24.1001,19.98975,36.16003,8.56982,23.21008,10,46.43005,10.43018,69.60999,.3501,37.81-1.62012,75.73999-3.08984,96.58002-.05029,.62-.09033,1.21997-.13037,1.81-.04004,.53998-.08008,1.06-.11963,1.57001l-1.11035,20.03998H0V0H1020.68994l-18.52002,20.04004c-10.81006,11.62-27.91016,30.10999-42.12012,51.42993-10.1499,15.21997-18.81982,31.88013-22.67969,48.53003-8.37012,36.14001,5.95996,72.37,48.5,108.52002,4.5,3.83008,9.31006,7.65991,14.44971,11.47998,53.7002,39.95996,142.57031,80.04004,171.09033,120,28.13965,39.95996-3.70996,80.04004-42.22021,120-38.14014,39.95996-82.58008,80.04004-122.20996,120Z"/>
        <path class="cls-5" d="M985.87012,228.52002c-3.2002,3.83008-6.43018,7.6499-9.62012,11.47998-10.33984,12.39001-20.31006,24.79004-29.41016,37.18994-.34961,.47998-.69971,.95007-1.04004,1.43005-7.38965,10.14001-14.17969,20.29004-20.08984,30.43005-.31006,.54004-.62012,1.06995-.91992,1.60999-9.43994,16.44995-16.50977,32.91003-20.00977,49.33997-8.89014,39.95996,3.69971,80.04004,1.84961,120-1.84961,39.95996-18.1499,80.04004-27.40967,120-9.25,39.95996-11.47021,80.04004-24.43994,120-12.96045,39.95996-36.66016,80.04004-37.77051,120-.01953,.70996-.02979,1.41992-.02979,2.13-.00977,.58997-.00977,1.18005-.00977,1.78003,.06982,8.94006,1.19971,17.88,3.19971,26.81995,.20996,1,.4502,1.98999,.68994,2.97998,7.02002,28.77002,22.75,57.56006,40.59033,86.29004,24.80957,39.96002,52.95996,80.04004,67.3999,99.96002l14.06982,20.03998H0V0H809.6001l45.5498,20.04004c26.79004,11.62,68.97021,30.10999,104.8999,51.42993,25.65039,15.21997,48.12012,31.89001,59.53027,48.53003,24.43994,36.13-3.5,72.35999-33.70996,108.52002Z"/>
        <path class="cls-4" d="M883.66992,240c-.54004,19.56006-8.27979,39.15002-19.97998,58.73999-.31982,.54004-.6499,1.08008-.97998,1.62-12.1001,19.89001-28.20996,39.78003-44.95996,59.64001-31.77979,37.28003-66.1499,74.66003-89.25,111.95996-.7002,1.12012-1.39014,2.25-2.06006,3.37012-.93994,1.55994-1.85986,3.10986-2.75,4.66992-16.15967,28.59009-25.31006,57.23999-25.94971,85.85999-.03027,1.07996-.04004,2.17004-.04004,3.26001,0,10.29004,1.10986,20.59998,3.3999,30.88,8.52002,39.95996,34.43994,80.04004,44.81006,120,10.73975,39.95996,5.5498,80.04004,27.3999,120,21.47998,39.95996,69.62012,80.04004,81.47021,120,11.47949,39.96002-12.96045,80.04004-25.55029,99.96002l-12.22021,20.03998H0V0H805.8999l3.7002,20.04004c3.70996,19.91992,11.10986,60,28.89014,99.95996,11.71973,25.80005,27.59961,51.66003,37.08984,77.5,.60986,1.66003,1.18994,3.31006,1.73975,4.96997,4.18018,12.52002,6.7002,25.03003,6.3501,37.53003Z"/>
        <path class="cls-10" d="M799.60986,240c-3.02979,16.34009-9.52979,32.69995-17.96973,49.06006-.29004,.55994-.58008,1.10986-.87012,1.66992-12.1001,23.1001-27.98975,46.19995-43.37988,69.27002-26.66016,39.95996-51.1001,80.04004-75.16992,120-9.15039,15.17993-18.24023,30.38-25.14014,45.59009-.3999,.87988-.79004,1.75-1.16992,2.62988-10.47021,23.94006-15.20996,47.88013-5.91016,71.78003,4.8501,12.45996,13.4502,24.93994,22.93018,37.41992,.37988,.5,.75977,1,1.1499,1.51001,20.66992,27.03003,44.93994,54.08008,43.68994,81.07007-1.3999,30.15002-34.62988,60.37-48.47021,90.56006-4.50977,9.81995-6.95996,19.62988-5.59961,29.43994,2.33008,16.73999,15.75977,33.48999,32.5498,50.25,23.2998,23.26001,53.06006,46.53003,68.5498,69.75,26.66016,39.96002,10.37012,80.04004,2.59033,99.96002l-8.1499,20.03998H0V0H646.66016l22.21973,20.04004c22.22021,19.91992,66.66016,60,95.55029,99.95996,29.25,39.95996,42.57959,80.04004,35.17969,120Z"/>
        <path class="cls-9" d="M676.25,890.25c-2.18994,23.26001-11.8501,46.53003-24.77002,69.75-22.22021,39.96002-54.06982,80.04004-70.35986,99.96002l-15.93018,20.03998H0V0H491.12988l14.81006,20.04004c8.62988,11.59998,22.29004,30.05005,34.37988,51.32996,.30029,.53003,.61035,1.05994,.90039,1.59998,8.31006,14.81006,15.7998,30.93005,20.27002,47.03003,11.10986,39.95996,3.69971,80.04004,11.10986,120,2.68994,14.51001,7.33008,29.04004,12.72998,43.58008,.20996,.56995,.42969,1.1499,.6499,1.71997,9.33008,24.90991,20.72021,49.82996,28.1001,74.69995,11.47998,39.95996,12.95996,80.04004-3.33984,120-10.86035,27.26001-29.83008,54.58008-44.90039,81.88-.47998,.87-.95996,1.73999-1.41992,2.60999-6.42969,11.84009-12.0498,23.67993-15.88965,35.51001-12.96045,39.95996-5.55029,80.04004,22.95996,120,6.51953,9.26001,14.19971,18.53003,22.37988,27.80005,.41016,.47998,.83008,.94995,1.25,1.41992,18.12988,20.44006,38.52979,40.90002,54.17969,61.34009,7.51025,9.81995,13.93018,19.62988,18.47021,29.43994,7.76025,16.73999,10.06006,33.48999,8.47998,50.25Z"/>
        <path class="cls-6" d="M529.27002,720c-8.51025,39.95996-23.33008,80.04004-33.33008,120-9.62012,39.95996-14.81006,80.04004-14.06982,120,.5,27.22998,3.41992,54.52002,6.27979,75.44,.20996,1.54999,.41992,3.07001,.63037,4.54999,1.11963,7.84003,2.18994,14.63,3.08984,19.97003l2.95996,20.03998H0V0H442.99023l16.65967,20.04004c14,16.72998,39.75,47.67993,55.32031,80.83997,.27979,.58997,.5498,1.18005,.81982,1.78003,2.62988,5.73999,4.93994,11.53992,6.81982,17.33997,12.95996,39.95996,5.55029,80.04004-18.52002,120-10.52979,17.48999-24.25,34.98999-37.69971,52.51001-.49023,.64001-.97998,1.28003-1.47998,1.91992-16.74023,21.87012-32.8501,43.73999-41.55029,65.57007-16.29004,39.95996-7.3999,80.04004,16.67041,120,21.12988,35.09009,53.96973,70.26001,74.19971,105.37,.29004,.51001,.58008,1.02002,.87988,1.52002,2.45996,4.37,4.74023,8.73999,6.76025,13.10999,18.50977,39.95996,16.29004,80.04004,7.3999,120Z"/>
        <path class="cls-8" d="M384.47998,720c15.18018,39.95996-1.8501,80.04004-11.10986,120-9.26025,39.95996-10.74023,80.04004-17.41016,120-6.66016,39.96002-19.25,80.04004-25.17969,99.96002l-4.77051,15.19-.68994,2.19-.82959,2.65997H0V0H391.14014l-7.3999,20.04004c-7.41016,19.91992-22.22021,60-38.89014,99.95996-16.66016,39.95996-35.18018,80.04004-26.66016,120,8.89014,39.95996,44.43994,80.04004,64.81006,120,20.35986,39.95996,25.5498,80.04004,4.43994,120s-67.77002,80.04004-67.3999,120c.2998,16.40002,8.58984,32.83008,19.3501,49.25,.31982,.51001,.65967,1.02002,.98975,1.53003,15.31006,23.07996,35.12988,46.16992,44.1001,69.21997Z"/>
        <path class="cls-1" d="M277.08984,960c-1.50977,10.85999-3.80957,21.72998-6.52979,32.20001-.18018,.72998-.37988,1.46997-.58008,2.19-7.20996,27.17999-17,51.44-22.52002,65.57001l-8.1499,20.03998H0V0H257.83008l-6.66992,20.04004c-7.03027,19.91992-20.36035,60-24.07031,99.95996-3.69971,39.95996,2.22021,80.04004,11.47998,120,9.26025,39.95996,21.8501,80.04004,10.74023,120s-45.91992,80.04004-46.29004,120c-.73975,39.95996,32.58984,80.04004,49.25,120,9.5498,22.90002,13.62988,45.83008,15.51025,68.76001,.0498,.59009,.09961,1.17993,.13965,1.77002,1.27002,16.5,1.4502,32.98999,1.76025,49.46997,.36963,39.95996,1.8501,80.04004,4.81006,120,2.96973,39.95996,8.1499,80.04004,2.59961,120Z"/>
        <path class="cls-15" d="M131.87988,826.75c.29004,4.41992,.33008,8.83008,.04004,13.25-2.58984,39.95996-30.73975,80.04004-43.69971,120-12.96045,39.96002-10.74023,80.04004-9.25,99.96002l1.10986,20.03998H0V0H120.81006l2.95996,20.04004c3.33984,19.91992,9.26025,60,10,99.95996s-4.43994,80.04004-6.29004,120-.37012,80.04004-3.70996,120c-2.95996,39.95996-10.37012,80.04004-8.51025,120,1.8501,39.95996,12.96045,80.04004,9.99023,120-2.75977,33.10999-14.91992,66.30005-17.31982,99.43994-.05029,.59009-.09033,1.18005-.12012,1.78003-.3999,6.26001-.41992,12.52002,.04004,18.78003,2.56982,34.62,20.69971,69.33008,23.81982,103.97998,.08008,.92004,.1499,1.8501,.20996,2.77002Z"/>
      </g>
      <rect class="cls-11" width="1463" height="1080"/>
      <g>
        <path class="cls-2" d="M971.5,300.97998c-8.35986-7.77002-16.58008-15.69995-24.66016-23.79004-25.20996-25.18994-49.00977-51.80994-71.25977-79.68994-18.87012-23.62-36.62012-48.1499-53.16992-73.47998-6.41992-9.63-12.26025-19.1001-17.14014-27.09009-19.08984-31.42993-36.43994-63.96997-51.68018-96.92993h-1.91992c15.33984,33.26001,32.83984,66.10999,52.11035,97.84009,4.87988,8.01001,10.73975,17.48999,17.16992,27.13989,17.48975,26.76001,36.31982,52.63,56.36963,77.48999,21.46045,26.59009,44.32031,52.03003,68.47998,76.15002,8.03027,8.03003,16.19043,15.90002,24.5,23.63,2.80029,2.66003,3.47021,6.57007,1.7002,9.95996-1.75977,3.37012-5.33984,5.04004-9.10986,4.27002-12.2002-2.60999-24.54004-5.06995-37.18018-7.42993-15.18994-2.83008-30.7998-5.5-47.1001-8.07007-4.94971-.77002-9.92969-1.52002-14.91992-2.23999-26.95996-3.92993-54.37988-7.15991-82.0498-9.67993-17.99023-1.65002-36.09033-3-54.22021-4.03003-22.63965-1.26001-44.73975-2.01001-65.67969-2.21997-7.4502-.1001-14.86035-.14014-22.20996-.14014-18.51025,0-36.67041,.30005-54.2002,.91016-.12012,0-.22998,.01001-.3501,.01001-8.52979,.32983-17.19971,.77991-25.58008,1.21997-30.40967,1.55994-61.5498,4.12988-93.00977,7.69995-13.84033,1.56006-27.74023,3.31006-41.66992,5.25h-.01025c-2.87988,.42993-5.70996-.64001-7.58008-2.85999-1.84961-2.19006-2.42969-5.12-1.54004-7.83997,10.69043-32.28003,24.15039-63.67004,40.02002-93.29004,16.89014-31.70996,36.86035-62.02002,59.3501-90.08008,.27002-.33984,.5498-.68994,.83008-1.02991,8.1499-10.19006,16.62988-20.08997,25.43018-29.69006,24.43994-26.70996,51.31006-51.09998,80.34961-72.96997h-2.87988c-28.27979,21.44995-54.47998,45.31006-78.37012,71.37-8.77979,9.54004-17.22998,19.38-25.34961,29.51001-.47021,.56995-.92041,1.14001-1.38037,1.71008-22.55957,28.1499-42.58984,58.54993-59.52979,90.34985-15.91016,29.71008-29.41016,61.19006-40.12988,93.57007-1.08008,3.30005-.39014,6.85999,1.85986,9.52002,2.25977,2.67993,5.68994,3.97998,9.16992,3.45996,13.3501-1.85999,26.66992-3.55005,39.9502-5.06006,31.98975-3.6499,63.66992-6.28992,94.58008-7.87988,8.37988-.43005,17.04004-.88013,25.5498-1.21997,.31006-.01001,.62012-.02002,.93994-.03003,24.27979-.83008,49.76025-1.08008,75.74023-.73999,20.91992,.20996,42.98975,.95996,65.59961,2.20996,17.88037,1.02002,35.71045,2.34998,53.4502,3.95996,27.62988,2.51001,55.02002,5.72998,81.93994,9.63,5.22998,.75,10.43994,1.53003,15.62988,2.33997,16.07031,2.53003,31.47021,5.17004,46.4502,7.96008,12.83984,2.39001,25.37012,4.89001,37.75,7.52991,.72998,.15015,1.45996,.22998,2.18018,.22998,3.71973,0,7.03955-1.97998,8.82959-5.3999,2.14014-4.1001,1.34033-8.82007-2.0498-12.04004Z"/>
        <path class="cls-2" d="M770.24023,454.77002c-2.88037-3.14001-7.99023-4.84009-12.91016-1.56006-9.41992,6.30005-19.06006,12.57007-28.83008,18.75-10.56982,6.69006-21.31006,13.29004-32.12988,19.75-19.06006,11.43005-38.93994,22.80005-59.29004,33.88013-4.33008,2.35986-8.68994,4.70996-13.07031,7.04993-7.50977,3.97998-15.15967,7.91003-22.5498,11.71997l-.67969,.33997c-11.55029,5.86011-23.2002,11.59009-34.94043,17.18005-17.04004,8.13-34.25977,15.97009-51.60986,23.48999-19.25977,8.37-38.6499,16.33997-58.12012,23.89001l-.27002,.06006c-12.5,4.88989-25.0498,9.58997-38.37988,14.37988-25.7998,9.21008-51.83008,17.72998-78.06982,25.55005-23.70996,7.08008-47.59033,13.58008-71.60986,19.51001-52.69043,13.02002-106.06006,23.26001-159.8501,30.67993-25.11035,3.47998-50.32031,6.33008-75.59033,8.56006-4.10986,.34009-7.44971,2.98999-8.71973,6.91003-1.27002,3.90002-.11035,8,3.00977,10.67004,25.08008,21.95996,49.43018,44.66992,72.36035,67.48999,11.35986,11.28992,22.34961,22.54993,32.88965,33.67993,8.97021,9.46997,17.6001,18.84009,25.86035,28.06006,15.32959,16.83997,30.73975,34.66992,45.7998,52.98999,11.12012,13.45996,22.02979,27.15991,32.41992,40.70996,11.60986,15.07001,22.97021,30.39001,34.02002,45.88,13.76025,19.27002,27.06006,38.81,39.77002,58.45001,5.6001,8.66998,10.74023,16.75,15.56982,24.5,.56006,.88995,1.11035,1.77997,1.66016,2.65997h2.05029c-.99023-1.59998-2-3.21997-3.02051-4.84998-4.59961-7.37-9.48975-15.06-14.78955-23.26001-12.99023-20.07001-26.58008-40.02002-40.66016-59.69-10.80029-15.12-21.89014-30.06-33.20996-44.75006-10.3999-13.57996-21.31982-27.28992-32.45996-40.76001-15.08008-18.33984-30.5-36.18994-45.8501-53.05994-8.72998-9.73999-17.87012-19.64001-27.37012-29.65002-10.1001-10.62988-20.60986-21.37-31.44971-32.1499-22.9502-22.8501-47.33008-45.58008-72.43994-67.57007-2.58008-2.20996-3.54004-5.59009-2.5-8.82007,1.0498-3.22998,3.80957-5.41992,7.20996-5.69995,25.17969-2.21997,50.29004-5.06006,75.31982-8.52002,53.87988-7.40991,107.33008-17.65991,160.10986-30.68994,24.30029-6,48.47021-12.58008,72.45996-19.75,26.1001-7.79004,52-16.28003,77.66992-25.43994,13.29004-4.77002,25.81006-9.46008,38.28027-14.33008l.25977-.06006c19.59033-7.60986,39.13037-15.62988,58.52002-24.05994,16.56006-7.18005,33.01025-14.66003,49.31006-22.40002,12.49023-5.91992,24.87988-12.01001,37.16016-18.22998l.67969-.34998c7.40039-3.80005,15.04004-7.74011,22.57031-11.72009,3.70996-1.97998,7.3999-3.96997,11.08008-5.96997,21.06982-11.43994,41.65967-23.18994,61.35986-35.01001,9.81982-5.84998,19.5498-11.81995,29.16992-17.87988,10.81006-6.80005,21.45996-13.71008,31.85986-20.66016,4.06006-2.70996,8.27002-1.30994,10.66016,1.29004,1.33008,1.45007,2.22998,3.44006,2.22998,5.58008,0,1.67993-.5498,3.45996-1.89014,5.13989-19.18994,24.56006-37.33984,49.16016-53.93994,73.11011-1.06982,1.56995-2.13965,3.13989-3.20996,4.69995-2.64014,3.8501-5.35986,7.84009-7.97998,11.80005-2.1499,3.17993-4.29004,6.37-6.42969,9.56995-15.5,23.28003-30.45996,47.17004-44.81006,71.55994-16.07031,27.30005-31.37012,55.22009-45.78027,83.57007-4.50977,8.90002-8.93994,17.84009-13.27979,26.81006-14.78027,30.55005-28.52002,61.42993-40.99023,92.13989-25.65967,63.19006-47.40967,128.90009-64.72998,195.50006-1.1499,4.41998-2.27979,8.85004-3.39014,13.28003-2.41992,9.59998-4.84961,19.76996-7.47949,31.27997h1.78955c2.6001-11.33997,5-21.37,7.38037-30.84998,.77002-3.06,1.54004-6.10999,2.33008-9.16003,17.47949-67.94,39.55957-134.95996,65.71973-199.38989,12.35986-30.46008,25.97998-61.09009,40.62012-91.38013,4.43994-9.17993,8.96973-18.33997,13.58984-27.43994,14.29004-28.1001,29.4502-55.78003,45.37012-82.8501,13.96973-23.77991,28.52979-47.08984,43.62012-69.80994,2.61963-3.96997,5.27002-7.92004,7.92969-11.85999,2.61035-3.95996,5.33008-7.93994,7.95996-11.79004,1.07031-1.55994,2.14014-3.11987,3.20996-4.68994,8.29004-11.95996,16.97021-24.08008,25.97021-36.28003,9-12.18994,18.31982-24.46997,27.8999-36.72998,3.7002-4.64001,2.4502-9.87-.42969-13Z"/>
        <path class="cls-2" d="M1182.18018,484.1001c-.26025,3.23999-.54004,6.48999-.83008,9.72998-2.05029,22.66992-4.97021,45.67993-8.68994,68.38989-2.74023,16.77002-5.95996,33.64001-9.56006,50.16003-.70996,3.21008-1.55029,7.02002-2.47021,10.94006-2.8999,12.61987-6.10986,25.36987-9.58008,38.05994,.51025,.37,1.01025,.75,1.51025,1.13,3.54004-12.92993,6.81982-25.93994,9.77979-38.79004,.91016-3.92993,1.76025-7.75,2.47021-10.96997,3.60986-16.54004,6.83008-33.44995,9.58008-50.25,3.71973-22.75,6.6499-45.80005,8.69971-68.51001,.34033-3.71997,.65039-7.44995,.94043-11.17993-.62012,.42993-1.23047,.85986-1.8501,1.29004Zm249.97998-337.67017c-.55029-1.06995-1.28027-2.0199-2.14014-2.80994-33.43018-30.7699-71.47021-54.63-113.41992-71.18005-11-4.34985-22.28027-8.19995-33.81006-11.52991-26.52002-7.67004-53.37988-12.31995-80.3999-13.96008-24.37012-1.46997-48.85986-.48999-73.31006,2.96997-2.97021,.42017-5.5498,2.15015-7.08008,4.76001-1.58008,2.68005-1.83984,5.89014-.71973,8.80005,4.43994,11.57007,8.67969,23.26001,12.67969,35s7.76025,23.53003,11.27002,35.29004c11.97998,40.15991,21.41016,81.47998,28.02002,122.80005,2.1001,13.13989,3.9502,26.48999,5.49023,39.59985l.00977,.11011c7.2998,62.19995,8.4502,125.33997,3.43018,187.82007-.26025,3.23999-.54004,6.48999-.83008,9.72998-2.05029,22.66992-4.97021,45.67993-8.68994,68.38989-2.74023,16.77002-5.95996,33.64001-9.56006,50.16003-.70996,3.21008-1.55029,7.02002-2.47021,10.94006-2.8999,12.61987-6.10986,25.36987-9.58008,38.05994-1.25977,4.62-2.5498,9.22998-3.87988,13.82996-.79004,2.73999-1.6001,5.45996-2.41016,8.19006-1.35986,4.55994,.41016,9.09998,4.52051,11.54993,1.66992,1,3.45996,1.48999,5.22949,1.48999,2.54004,0,5.02051-1.02002,7-2.98999,4.53027-4.53003,9.03027-9.10986,13.49023-13.75,13.1001-13.62988,25.83008-27.67993,37.99023-41.93994,18.29004-21.41992,35.80957-43.87,52.07959-66.73999,3.88037-5.44995,7.82031-11.12,11.71045-16.8501,.17969-.25989,.34961-.5199,.52979-.77991,12.8999-18.98999,25.27979-38.75,36.79004-58.71008,10.97998-19.02991,21.33008-38.47998,31.00977-58.28992,12.97998-26.56995,24.76025-53.78992,35.27002-81.51001,4.78027-12.57996,9.30029-25.27002,13.54004-38.04993,4.05029-12.13013,7.93994-24.63013,11.56006-37.16016,3.62988-12.56982,7.04004-25.33984,10.12988-37.92993,2.4502-9.94995,4.76025-19.97998,6.89014-30.05005,1.91016-8.92993,3.68994-17.88989,5.33008-26.86987,1.96973-10.73999,3.75977-21.5,5.3501-32.21997,.31006-2.1001-.05029-4.29004-1.02002-6.17017Zm-.70996,5.92017c-1.66016,11.1499-3.53027,22.33984-5.59033,33.50989-1.50977,8.13-3.10986,16.25-4.82959,24.33997-2.2002,10.43005-4.58008,20.81006-7.11035,31.12012-3.1001,12.56995-6.5,25.30994-10.12012,37.86987-3.61963,12.5-7.5,24.97998-11.54004,37.09009-4.12988,12.41992-8.5,24.76001-13.13965,37-10.93018,28.92993-23.25,57.31006-36.87988,84.97998-9.29004,18.87-19.18018,37.40002-29.66016,55.54004-11.47998,19.90991-23.81006,39.59998-36.66992,58.54004-.02002,.0199-.03027,.04993-.05029,.06995-4.0498,5.98999-8.15967,11.91003-12.21973,17.59998-16.22998,22.82007-33.72021,45.23999-51.97998,66.62-12.18018,14.27002-24.91992,28.33997-38.05029,41.97998-4.3999,4.57996-8.85986,9.12-13.33984,13.59998-3.3501,3.36011-7.54004,2.77002-10.1001,1.23999-2.58008-1.53992-5.1001-4.96997-3.72998-9.54993,.81006-2.7301,1.62012-5.46008,2.41016-8.20007,1.27002-4.37988,2.5-8.78003,3.70996-13.18994,3.54004-12.92993,6.81982-25.93994,9.77979-38.79004,.91016-3.92993,1.76025-7.75,2.47021-10.96997,3.60986-16.54004,6.83008-33.44995,9.58008-50.25,3.71973-22.75,6.6499-45.80005,8.69971-68.51001,.34033-3.71997,.65039-7.44995,.94043-11.17993,4.90967-62.13013,3.70996-124.89014-3.54004-186.65002v-.09998c-1.55029-13.22998-3.41016-26.61011-5.52002-39.76001-6.62012-41.41003-16.06006-82.80005-28.06006-123.03003-7.02002-23.56006-15.09033-47.25-23.99023-70.41992-.92969-2.41016-.71973-5.07007,.58984-7.29004,1.26025-2.14014,3.38037-3.56006,5.82031-3.91003,25.12988-3.54993,50.29004-4.4801,75.33008-2.79004,26.08008,1.74011,52.02979,6.32996,77.63965,13.7301,11.87012,3.42993,23.47021,7.3999,34.78027,11.91992,41.31006,16.44995,78.77979,40.05005,111.75977,70.40002,.70996,.65002,1.31006,1.44006,1.77002,2.31995,.80029,1.56006,1.1001,3.37012,.84033,5.12012Zm-249.27002,331.75c-.26025,3.23999-.54004,6.48999-.83008,9.72998-2.05029,22.66992-4.97021,45.67993-8.68994,68.38989-2.74023,16.77002-5.95996,33.64001-9.56006,50.16003-.70996,3.21008-1.55029,7.02002-2.47021,10.94006-2.8999,12.61987-6.10986,25.36987-9.58008,38.05994,.51025,.37,1.01025,.75,1.51025,1.13,3.54004-12.92993,6.81982-25.93994,9.77979-38.79004,.91016-3.92993,1.76025-7.75,2.47021-10.96997,3.60986-16.54004,6.83008-33.44995,9.58008-50.25,3.71973-22.75,6.6499-45.80005,8.69971-68.51001,.34033-3.71997,.65039-7.44995,.94043-11.17993-.62012,.42993-1.23047,.85986-1.8501,1.29004Z"/>
        <path class="cls-2" d="M1446.89014,751.75c-3.14014-3.22998-7.79004-3.95996-11.83008-1.87-4.37012,2.26001-8.77979,4.51001-13.22021,6.72009-10.93994,5.44995-22.0498,10.72998-33.18994,15.75989-6.79004,3.05994-13.61963,6.05005-20.47998,8.95007-44.16992,18.71997-89.8999,34.22998-136.23975,46.15991-26.63037,6.87012-53.72021,12.63013-80.93994,17.20996-14.36035,2.42017-28.75,4.52002-43.13037,6.27002-4.7998,.59009-9.6001,1.14014-14.41992,1.65015-31.25977,3.34985-62.89014,5.17993-94.21973,5.43994-13.39014,.10999-27.05029-.06006-40.6001-.51001-17.16016-.58008-34.57031-1.64001-51.72998-3.15002-30.09033-2.65002-60.32031-6.77002-89.91016-12.25-1.19971-.21997-2.41016-.44006-3.60986-.67004-4.11035-.77002-8.06006,.90002-10.33008,4.38013-2.25,3.43994-2.25,7.78992,0,11.06995,.41016,.59998,.91016,1.18005,1.47998,1.72998,5.41016,5.10999,10.87988,10.15002,16.33984,15.06995,2.31006,2.09009,4.62012,4.15002,6.93018,6.19006,11.43018,10.13,23.3501,20.17004,35.41992,29.83997,34.95996,28.05005,72.37012,53.96002,111.18994,77.02002,8.72021,5.19,17.72021,10.34998,26.75,15.34003,15.78027,8.70996,31.80029,16.98999,48.02002,24.81,23.83008,11.48999,48.11035,22,72.72998,31.47998,7.27002,2.81,14.57031,5.52002,21.89014,8.14001,13.06006,4.67999,26.2002,9.06,39.41016,13.14996,.34961,.11005,.68994,.21002,1.04004,.32001h6c-2.18018-.64996-4.36035-1.32001-6.53027-1.98999-12.77979-3.96002-25.50977-8.19-38.1499-12.70001-7.87012-2.79999-15.72021-5.70996-23.52979-8.72998-24.49023-9.46002-48.65039-19.92999-72.36035-31.38-16.10986-7.77002-32.00977-15.98999-47.66992-24.64001-9.02002-4.97998-18-10.13-26.70996-15.29999-38.75-23.02002-76.08984-48.89001-110.97998-76.89001-12.05029-9.65002-23.9502-19.67004-35.37012-29.77991-2.90967-2.58008-5.83984-5.20007-8.77002-7.86011-4.83008-4.37988-9.66992-8.84998-14.43994-13.35999-.48975-.45996-.8999-.94006-1.23975-1.45007-1.8501-2.68994-1.8501-6.27991,.00977-9.12988,1.58984-2.43005,4.06982-3.77002,6.85986-3.77002,.55029,0,1.11035,.05005,1.68018,.15991,1.31006,.25,2.62012,.48999,3.93018,.7301,29.56006,5.45996,59.72998,9.56995,89.75977,12.20996,17.2002,1.52002,34.64014,2.57996,51.83008,3.16003,13.58008,.44995,27.25977,.62,40.66992,.51001,31.75-.27002,63.80029-2.14001,95.47021-5.56006,4.45996-.47998,8.91992-1,13.36963-1.54004,13.71045-1.67993,27.42041-3.6499,41.11035-5.93994,27.96973-4.64001,55.81982-10.52002,83.18994-17.58008,46.1499-11.88989,91.69971-27.29993,135.69971-45.91992,7.14014-3.01001,14.24023-6.10999,21.30029-9.30005,10.20996-4.60986,20.3999-9.42993,30.45996-14.3999,5.39014-2.67004,10.73975-5.37012,16.02979-8.11011,3.3501-1.73999,7.18994-1.12988,9.78027,1.53003,2.61963,2.69995,3.12988,6.6001,1.2998,9.91003-.04004,.05994-.06982,.12-.10986,.18005l-.07031,.13989c-8.63965,15.63013-16.66992,31.83008-23.86963,48.15015-10.64014,24.06982-19.74023,49.05994-27.07031,74.2699-10.09961,34.7301-17.02979,70.59003-20.60986,106.62-.02002,.23004-.0498,.46002-.06982,.69-1.8999,19.26001-2.84033,38.69-2.84033,58.15002,0,9.64001,.23047,19.28998,.70996,28.91998h1.75c-1.41992-29.02002-.70996-58.14996,2.12012-86.89996,0-.02002,0-.03003,.01025-.05005,3.56006-36.13,10.47998-72.12006,20.60986-106.94,7.31006-25.14001,16.39014-50.05994,26.99023-74.04993,7.17969-16.28003,15.17969-32.43005,23.77979-47.98999l.18018-.31006c2.22998-4.04004,1.61963-8.75-1.56006-12.01001Z"/>
      </g>
    </g>
  </g>
</svg>