<?xml version="1.0" encoding="UTF-8"?>
<svg id="_イヤー_2" data-name="レイヤー 2" xmlns="http://www.w3.org/2000/svg" viewBox="0 0 375 675">
  <defs>
    <style>
      .cls-1 {
        fill: #6524bf;
      }

      .cls-2 {
        fill: #fff;
      }

      .cls-3 {
        fill: #ed4179;
      }

      .cls-4 {
        fill: #da1e8b;
      }

      .cls-5 {
        fill: #e52f81;
      }

      .cls-6 {
        fill: #a50bab;
      }

      .cls-7 {
        fill: #f35172;
      }

      .cls-8 {
        fill: #8919b5;
      }

      .cls-9 {
        fill: #ba03a0;
      }

      .cls-10 {
        fill: #cc0d95;
      }

      .cls-11 {
        fill: none;
      }

      .cls-12 {
        fill: #ff9169;
      }

      .cls-13 {
        fill: #fa7268;
      }

      .cls-14 {
        fill: #f7626c;
      }

      .cls-15 {
        fill: #3f31a8;
      }
    </style>
  </defs>
  <g id="_イヤー_1-2" data-name="レイヤー 1">
    <g>
      <g>
        <g>
          <rect class="cls-12" width="375" height="675"/>
          <path class="cls-13" d="M344.48999,150c-5.92004,16.72998-2.76001,33.5,2.30994,50.25,.12012,.39996,.23999,.79999,.37012,1.20001,2.40991,7.85999,5.21997,15.70996,7.65991,23.54999,2.3501,7.64996,4.38,15.29999,5.94006,22.95996,3.0199,14.78003,4.30994,29.58002,2.91003,44.35004-.1001,1.14001-.22998,2.27997-.38013,3.42999-.15991,1.41998-.35986,2.83997-.58997,4.26001-3.98999,24.96997-15.94995,50.02997-19.2699,75-.52002,3.91998-.83008,7.82996-.96008,11.75-.32996,9.27997,.29993,18.57001,1.31995,27.85999,.04004,.34003,.07007,.67999,.11011,1.02002,1.29993,11.46997,3.16992,22.92999,4.55994,34.37,2.09998,17.26001,3.02002,34.56,1.51001,51.83997-.02991,.34003-.05994,.67999-.08997,1.01001-.36011,3.90002-.8501,7.79999-1.47998,11.69-.56006,3.48999-1.23999,6.97998-2.03003,10.46002-5.68994,24.96997-17.65002,50.02997-6.92004,75,6.45007,15.01996,21.18005,30.07996,35.54004,42.39996v32.60004H0V0H375V104.14996c-4.84998,6.14001-9.84998,12.28003-14.45007,18.42004-6.83997,9.13995-12.79993,18.28998-16.05994,27.42999Z"/>
          <path class="cls-14" d="M375,162.64001v56.38995c-.63,1.98999-1.33997,3.98004-2.13,5.97003-3.05005,7.64001-7.34009,15.29999-12.09998,22.95996-10.76001,17.35004-23.88,34.72003-30.32996,52.04004-6.54004,17.57001-6.32007,35.17999-1.68005,52.76996,.09998,.40002,.20996,.81,.32996,1.21002,1.92004,7.01001,4.54004,14.02002,7.70996,21.02002,1.76001,3.90997,3.68005,7.82996,5.68005,11.75,4.06995,7.95996,8.45007,15.94,12.39001,23.89996,.15002,.31,.30005,.61005,.43994,.91003,6.28003,12.82001,11.32007,25.64001,11.96008,38.44,.92004,17.42999-6.38,34.90997-13.79004,52.37-.13,.32001-.26001,.63-.40002,.95001-1.57996,3.73999-3.16992,7.47998-4.66992,11.21997-1.40002,3.48999-2.72998,6.97003-3.92004,10.46002-8.54993,24.96997-10.06995,50.02997-18.31995,75-8.26001,24.96997-23.07007,50.02997-30.57007,62.46997l-7.3999,12.53003H0V0H336.60999l-.18994,12.52997c-.1001,12.44-.47998,37.48999,6.16992,62.47003,4.20996,15.83997,11.25,31.70996,17.95996,47.57001,3.88013,9.13995,7.64014,18.28998,10.70007,27.42999,1.41003,4.20996,2.67004,8.41998,3.75,12.64001Z"/>
          <path class="cls-7" d="M311.17004,450c3.06995,13.91998,.87988,27.87-3.23999,41.82001-.1001,.32001-.19006,.63995-.29004,.95996-3.25,10.75-7.61011,21.48999-11.56006,32.22003-3.82996,10.48999-7.29004,21-10.35999,31.51001-4.26001,14.5-7.77991,29.00995-10.52991,43.48999-4.73999,24.96997-7.21008,50.02997-8.54004,62.46997l-1.22998,12.53003H0V0H292l7.10999,12.52997c7.12,12.44,21.35999,37.48999,23.07007,62.47003,1.79993,24.97998-9.02002,50.01996-6.64014,75,1.43005,15.07001,7.66016,30.15997,12.45007,45.25,.10999,.35999,.21997,.70996,.32996,1.07001,2.98999,9.57001,5.33008,19.13,5.44006,28.67999,.23999,20.70996-9.91003,41.48999-21.78003,62.21997-.30994,.54004-.62,1.08002-.94006,1.62-2.12988,3.72003-4.32996,7.44-6.5199,11.16003-14.71008,24.96997-29.32996,50.02997-25.33997,75,2.66992,16.70996,13.57996,33.45001,22.17993,50.19,.16992,.31,.33008,.63,.47998,.94,4.06006,7.95996,7.55005,15.91998,9.33008,23.87Z"/>
          <path class="cls-3" d="M242.83997,429.77997c-.43994,6.73999-.10999,13.48004,1.21997,20.22003,.95007,4.82001,2.42004,9.64996,4.22998,14.47998,.20007,.51001,.39014,1.02002,.59009,1.53003,7.66992,19.66998,20.82996,39.35999,28.58997,58.98999,4.10999,10.48999,6.66003,21,8.25,31.51001,2.19006,14.50995,2.55994,29.00995,2.67004,43.48999,.08997,24.96997-.47998,50.02997-.86011,62.46997l-.27991,12.53003H0V0H261.62l-4.75,12.52997c-2.77002,7.26001-7.15002,18.81-10.79004,32.14001-2.59998,9.51001-4.82996,19.92999-5.81995,30.33002-2.14001,22.58997,1.53992,45.21997,12.44006,67.82001,1.1499,2.38995,2.37988,4.78998,3.69995,7.17999,13.76001,24.97998,36.54004,50.02997,43.84998,75,7.21997,24.96997-.95007,50.02997-10.81995,75-9.77002,24.96997-21.17004,50.02997-31.32007,75-7.20996,17.89996-13.83997,35.85999-15.18994,53.78998-.03003,.33002-.06006,.66003-.08008,.98999Z"/>
          <path class="cls-5" d="M252.70007,142.82001c-.82007,2.38995-1.65015,4.78998-2.47009,7.17999-8.53992,24.97998-16.14001,50.02997-18.31995,75-.71997,7.85999-.89001,15.71997-.79004,23.58997,0,.51001,0,1.03003,.02002,1.54004,.08997,6.31,.32996,12.63,.58997,18.94,.01001,.33997,.03003,.67999,.04004,1.01996,.40002,9.98004,.79993,19.95001,.60999,29.91003-.46997,24.96997-4.65002,50.02997-7.02002,75-1.64001,17.31-2.41992,34.66998-3.84998,52.01001-.03003,.32996-.05994,.65997-.08997,.98999-.46008,5.53998-.98999,11.07996-1.65002,16.62-.04004,.39001-.08997,.77002-.14001,1.15997-.16003,1.41003-.34009,2.81-.53003,4.22003-3.32996,24.96997-9.3999,50.02997-9.68994,75-.28003,24.96997,5.03003,50.02997,11.38989,75,6.36011,24.96997,13.58008,50.02997,17.28003,62.46997l3.61011,12.53003H0V0H207.52002l11.67004,12.52997c6.86987,7.26001,17.67993,18.81,26.88989,32.14001,6.58008,9.51001,12.34009,19.92999,15.26001,30.33002,6.26001,22.58997-.8999,45.21997-8.63989,67.82001Z"/>
          <path class="cls-4" d="M219.09998,600c2.93994,24.96997-3.32996,50.02997-6.55005,62.46997l-3.13989,12.53003H0V0H206.56995l.95007,12.52997c.93994,12.44,2.83997,37.48999,7.40002,62.47003,4.6499,24.97998,11.85986,50.01996,11.57996,75-.28003,24.08997-7.70007,48.23999-15.97998,72.32996-.13,.39001-.27002,.79004-.41003,1.18005-.16992,.5-.33997,.98999-.51001,1.48999-4.57007,13.06-9.33997,26.14001-13.68994,39.22998-.12012,.32001-.21997,.65002-.33008,.97998-3.84998,11.60004-7.34998,23.21002-10.08997,34.79004-1.15002,4.95996-2.16003,9.92999-3.02002,14.89001-.08997,.44995-.16003,.89996-.22998,1.33997-.75,4.39001-1.37,8.77002-1.87,13.16003-.08008,.67999-.16003,1.34998-.22998,2.02997-1.55005,14.53998-1.76001,29.07001-.43994,43.58002,2.18994,24.96997,8.82983,50.02997,11.48999,75,2.75,24.96997,1.41992,50.02997,7.0199,75,5.51001,24.96997,17.84998,50.02997,20.89001,75Z"/>
          <path class="cls-10" d="M204.95007,150c-1.24011,16.32001-4.75,32.66998-8.94006,49-.10999,.46997-.23999,.94-.35999,1.40997-2.12012,8.21002-4.40002,16.40002-6.64001,24.59003-3.46008,12.63-6.77002,25.28998-10,37.94-.07996,.32996-.17004,.65997-.25,.98999-3.05994,12.02997-6.05005,24.06-9.02002,36.07001-2.17004,8.77997-4.32996,17.57001-6.03992,26.37-.09009,.44-.17017,.87-.26001,1.31-2.02002,10.69-3.36011,21.39001-3.2301,32.08002,.01001,.62,.02002,1.23999,.04004,1.85999,.12,4.45996,.52002,8.91998,1.22998,13.38,3.98999,24.96997,17.83997,50.02997,17.37,75-.35999,18.83997-8.88,37.73999-12.41992,56.59998-1.16003,6.14001-1.79004,12.27002-1.44006,18.40002,.58997,10.45001,4.03992,20.91998,8.33997,31.39996,5.96997,14.54004,13.6001,29.08002,17.57007,43.60004,6.83997,24.96997,2.65991,50.02997,.66992,62.46997l-2.08997,12.53003H0V0H165.75l5.70007,12.52997c5.68994,12.44,17.07983,37.48999,24.47998,62.47003,7.5,24.97998,10.91992,50.01996,9.02002,75Z"/>
          <path class="cls-9" d="M173.32996,556.39996c-.55994,14.54004-3.04004,29.09003-6.34998,43.60004-5.69006,24.96997-13.84998,50.02997-18.02991,62.46997l-4.08008,12.53003H0V0H125.88l3.80005,12.52997c3.79993,12.44,11.38989,37.48999,14.23999,62.47003,2.84998,24.97998,.94995,50.01996,2.84998,75,.70996,9.34998,1.94995,18.71997,3.38,28.07996,.05994,.38,.12,.75,.16992,1.12006,2.38013,15.26996,5.21997,30.54999,7.08008,45.79999,1.45996,12.41998,2.29004,24.84998,2.23999,37.28998,0,.34003-.01001,.66998-.01001,1-.09009,12.25-1.04004,24.48999-3.09009,36.71002-1.87988,11.5-4.70996,23.02997-7.53992,34.56-.10999,.44-.21008,.87-.31995,1.29999-3.19006,13.06-6.3501,26.10999-8.08008,39.14001-1.06006,7.95001-1.58997,15.90997-1.57996,23.88,0,.76001,.00989,1.51996,.0199,2.27997,.22009,16.29004,2.68005,32.59003,7.44006,48.84003,5.44006,18.83997,14.02002,37.72998,19.95007,56.59998,1.91992,6.14001,3.56995,12.27002,4.72998,18.40002,1.98999,10.45996,2.57996,20.92999,2.16992,31.39996Z"/>
          <path class="cls-6" d="M135.66003,450c-2.18005,24.96997-5.97998,50.02997-8.54004,75-2.46997,24.96997-3.80005,50.02997-3.60999,75,.19006,24.96997,1.70996,50.02997,2.55994,62.46997l.76001,12.53003H0V0H113.53992l4.27002,12.52997c4.28003,12.44,12.82007,37.48999,16.14014,62.47003,3.31995,24.97998,1.42993,50.01996-4.74011,75-5.72998,23.19-15.15002,46.44-19.71997,69.64001-.17004,.82996-.32996,1.65997-.47998,2.48999-.18005,.95996-.33997,1.90997-.5,2.87-2.21008,13.20996-2.60999,26.45001-1.57996,39.67999,.02002,.33002,.04993,.66998,.07996,1,.94006,11.45001,2.94006,22.89001,5.7699,34.32001,3.76001,15.23999,8.9801,30.51001,13.56006,45.76996,.09009,.32001,.18994,.65002,.29004,.97003,2.80005,9.42999,5.33997,18.84998,7.13,28.26001,1.77991,9.33997,2.80994,18.69,3.28992,28.04999,.03003,.72998,.07007,1.45001,.09009,2.17999,.63,14.92999-.12,29.87-1.47998,44.77002Z"/>
          <path class="cls-8" d="M98.54993,450c3.89014,24.96997-.47998,50.02997-2.84985,75-.80005,8.44-1.37012,16.88-1.8501,25.33997-.02002,.35004-.04004,.70001-.05005,1.06-.8999,16.21002-1.44995,32.42004-2.55994,48.60004-1.71008,24.96997-4.94006,50.02997-6.46008,62.46997l-1.60986,12.53003H0V0H100.25l-1.89001,12.52997c-1.90002,12.44-5.69995,37.48999-9.96997,62.47003-4.27002,24.97998-9.02002,50.01996-6.84009,75,2.28003,24.97998,11.40015,50.02997,16.62012,75,.68994,3.32001,1.31995,6.64001,1.86987,9.95996,.09009,.54004,.18005,1.09003,.26001,1.63,1.51001,9.51001,2.38013,19.03003,2.47009,28.55005,.00989,.32996,.00989,.66998,.00989,1,.04004,11.29999-1.02991,22.58997-3.46997,33.85999-4.56995,21.03998-13.78003,42.14996-16.5,63.20996-.04993,.37-.09998,.74005-.13989,1.11005-.42004,3.56-.65002,7.12-.64014,10.67999,.19006,24.96997,12.53003,50.02997,16.52002,75Z"/>
          <path class="cls-1" d="M71.02002,600c-1.43005,24.96997-5.59998,50.02997-7.59998,62.46997l-2.08008,12.53003H0V0H66.07996l-1.70996,12.52997c-1.80005,12.44-5.21997,37.48999-6.16992,62.47003-.94006,24.97998,.56995,50.01996,2.94995,75,2.37,24.97998,5.59998,50.02997,2.75,75-2.8501,24.96997-11.77002,50.02997-11.87012,75-.17993,23.06,7.11011,46.20001,11.58008,69.27997,.07007,.33002,.13,.67004,.18994,1,.31006,1.57001,.59009,3.15002,.86011,4.72003,4.27002,24.96997,4.27002,50.02997,4.45996,75,.07007,18.01001,.28003,36.07001,.67993,54.10999,.02002,.69,.03003,1.39001,.05005,2.08002,.14001,6.26996,.31006,12.53998,.5,18.81,.76001,24.96997,2.09009,50.02997,.67004,75Z"/>
          <path class="cls-15" d="M27.64001,450c.76001,24.96997,6.82996,50.02997,6.16992,75-.65991,24.96997-7.87988,50.02997-11.19995,75-3.32007,24.96997-2.75,50.02997-2.37,62.46997l.28003,12.53003H0V0H30.95996l.76001,12.52997c.85999,12.44,2.37,37.48999,2.55994,62.47003,.19006,24.97998-1.12988,50.01996-1.60986,75-.46997,24.97998-.09009,50.02997-.95007,75-.76001,24.96997-2.66003,50.02997-2.18005,75,.47009,24.96997,3.32007,50.02997,2.56006,75-.03003,.76001-.05005,1.51001-.08997,2.26996-.01001,.34003-.03003,.69-.04004,1.04004-.98999,21.65997-4.34998,43.38-4.42004,65.03998,0,.53003,0,1.06,.01001,1.58002,0,1.69,.03003,3.38,.08008,5.07001Z"/>
        </g>
        <rect class="cls-11" width="375" height="675"/>
      </g>
      <g>
        <path class="cls-2" d="M249.68005,267.62c-6.5-6.04004-12.69006-12.39001-18.56006-19.03003-7.40002-8.32001-14.28003-17.09998-20.59998-26.26001-1.37-1.96997-2.71008-3.95996-4.02002-5.96997-1.88-2.81-3.64001-5.66998-4.97009-7.84003-1.8999-3.13995-3.75-6.31-5.5199-9.51996-4.18005-7.52002-8.01001-15.20001-11.43005-22.94-1.59998-3.56-3.20996-7.44-4.80005-11.53003-.5199-1.29999-1.82983-2.12-3.16992-2.02997l-.03003-.08002-.46997,.15002c-.21997,.07001-.42993,.14996-.64001,.25-3.03992,1.47998-6.06995,3.07001-8.97998,4.73999-2.46997,1.40997-4.75,2.77997-6.97998,4.17999-3.20007,2.02002-6.31995,4.13-9.35999,6.33997-12.63,9.14001-23.89001,19.89001-33.58008,32.05005-2.46997,3.07996-4.82996,6.26001-7.07996,9.51001-3.42004,4.93994-6.57996,10.06-9.45007,15.31995-.25,.47003-.5,.93005-.75,1.40002-4.61987,8.63-8.53992,17.77002-11.6499,27.16998-.34009,1.04004-.12,2.16003,.57996,2.98999,.71008,.85004,1.79004,1.25,2.88,1.09003,3.90002-.53998,7.80005-1.03003,11.67993-1.46997,1.42017-.17004,2.83008-.32001,4.2301-.46002,7.79993-.82001,15.51001-1.42999,23.06995-1.82001,2.46997-.12,4.94006-.25,7.40002-.34998,7.10999-.25,14.54993-.32001,22.15002-.22003h.07007c6.05994,.06,12.44995,.27002,19.00989,.64001h.05005c5.63,.33002,11.23999,.75,16.81995,1.27997,9.09009,.85004,18.08008,1.96002,26.88,3.33002,3.19006,.5,6.28003,1.02002,9.31006,1.54999,5.18994,.92004,10.18005,1.89001,15.08997,2.94,.22998,.04999,.45996,.07001,.68994,.07001,1.17004,0,2.21008-.62,2.77002-1.70001,.68005-1.27997,.42004-2.76996-.63989-3.77997Zm-.23999,3.32001c-.37012,.70001-1.19006,1.34998-2.37012,1.10999-4.98999-1.06-10.05994-2.04999-15.33997-2.97998-2.95996-.52002-5.98999-1.02002-9.10999-1.51001-8.75-1.35999-17.68994-2.48004-26.70996-3.33002-5.61011-.52997-11.25-.96002-16.90002-1.28998-.07996,0-.16003-.01001-.23999-.01001-6.57996-.37-12.99011-.58002-19.06006-.64001h-.06995c-2.14001-.02997-4.25-.04999-6.37-.04999-5.40002,0-10.70007,.08997-15.81995,.27002-2.47009,.09998-4.95007,.22998-7.42017,.34998-7.56995,.39001-15.28992,1-23.09985,1.82001-1.38013,.14001-2.77002,.28998-4.16003,.46002-3.92004,.42999-7.85999,.92999-11.81006,1.47998-.75,.12-1.48999-.16003-1.96997-.73999-.47998-.57001-.63-1.33002-.40002-2.04004,3.09009-9.33997,6.98999-18.42999,11.58008-27.01001,.03992-.07996,.08997-.15997,.12988-.23999,2.65015-4.94995,5.56006-9.77997,8.71008-14.45996,2.60999-3.91003,5.41003-7.71002,8.33997-11.37,9.53003-11.96002,20.59009-22.55005,32.96997-31.56,3.16003-2.31,6.40002-4.51001,9.71997-6.61005,2.22009-1.38995,4.48999-2.76001,6.94006-4.16998,2.90002-1.65002,5.90002-3.22998,8.93005-4.70001,.16992-.08997,.33997-.14001,.51001-.20001l-.07007-.21997,.03003-.02002,.05005,.26001c.98999-.21002,2.02991,.37,2.41992,1.35999,1.59009,4.10004,3.21997,7.99005,4.82007,11.57001,3.56995,8.09003,7.57996,16.10999,11.97998,23.94,1.62,2.91003,3.30005,5.78003,5.03003,8.63,1.32996,2.17999,3.09985,5.04999,4.97998,7.87,1.44995,2.22003,2.93994,4.41998,4.44995,6.60004,6.45996,9.29999,13.48999,18.19,21.03003,26.62,5.66992,6.33997,11.62,12.42999,17.84998,18.21997,.89001,.84003,.79993,1.91998,.45007,2.59003Z"/>
        <path class="cls-2" d="M191.34998,312.21997c-.90991-.98999-2.52002-1.51996-4.07007-.48999-1.57983,1.06-3.18994,2.10999-4.80994,3.16003-4.19006,2.71997-8.48999,5.38995-12.84998,7.98999-1.94995,1.16998-3.91992,2.32996-5.91992,3.48999-4.78003,2.77002-9.70007,5.51001-14.70007,8.19-.10999,.06-.22998,.12-.33997,.17999-2.18005,1.15002-4.36011,2.27997-6.54004,3.40002l-.18994,.09998c-5.13013,2.59998-10.33008,5.10999-15.59009,7.52997-8.6499,3.99005-17.44995,7.72003-26.29004,11.15002l-.11987,.03998c-3.62012,1.41003-7.25,2.78003-11.12012,4.16003-2,.70996-4,1.40997-6,2.08997-6.35986,2.17004-12.76001,4.20001-19.19995,6.07001-10.43994,3.06-20.97998,5.72003-31.59998,7.98999-10.58997,2.29004-21.27002,4.18005-32.01001,5.68005v1.00995c10.71997-1.5,21.39001-3.38,31.96997-5.64996,10.70007-2.29004,21.31995-4.97003,31.82996-8.03003,6.33008-1.84998,12.62012-3.82996,18.87012-5.95996,2.16992-.73004,4.32996-1.48004,6.47998-2.25,3.83997-1.38,7.45996-2.74005,11.05994-4.15002l.12-.02997c8.84009-3.43005,17.64001-7.16003,26.30005-11.15002,5.31006-2.44,10.57007-4.97998,15.75-7.60999l.19995-.10004c2.03003-1.04999,4.06006-2.09998,6.1001-3.16998,.1499-.08002,.29993-.15997,.44995-.23999,4.85999-2.59003,9.6499-5.25,14.31006-7.94,2.2699-1.31,4.5-2.62,6.69995-3.94,4.09998-2.44,8.1499-4.96002,12.09998-7.51001,1.89001-1.21002,3.76001-2.44,5.59998-3.66998,1.06006-.71002,2.15002-.34003,2.77002,.33002,.57007,.62994,.93994,1.72998,.09009,2.78998v.01001c-3.58008,4.57001-7.03003,9.15997-10.33008,13.70001-1.83008,2.51996-3.59998,5.01996-5.32007,7.5l-.92993,1.35999c-.78003,1.14001-1.55005,2.27997-2.31006,3.41998-3.98999,5.90002-7.85986,11.92999-11.59998,18.09003-5.85999,9.63995-11.39001,19.56995-16.53992,29.69-1.59009,3.12994-3.14014,6.26996-4.65002,9.42999-.66003,1.38-1.31995,2.76996-1.97009,4.16998-3.25,6.95001-6.29993,13.94-9.12988,20.90002-7.93005,19.54999-14.58008,39.91998-19.75,60.56-1,3.94-2,8.20996-3.15002,13.42999-1.77002,8.12-3.32996,16.31-4.63,24.32001-1.41003,8.52997-2.58008,17.39996-3.5,26.33997-.13,1.22003-1.05005,1.79004-1.81006,1.91003-.37,.04999-.81995,.01996-1.22998-.17004-.42993-.17999-.82996-.52997-1.07996-1.08997-3.67004-8.31-7.63-16.60999-11.75-24.67004-3.51001-6.81-7.26001-13.65997-11.22009-20.46997-1.75-3.03998-3.54993-6.07001-5.38989-9.09003-1.86011-3.02997-3.86011-6.19-6.11011-9.65997-6.6499-10.28998-13.85986-20.47998-21.41992-30.29999-2.98999-3.90002-6.13-7.85004-9.33008-11.71002-.02991-.03998-.05994-.07001-.08997-.10999-4.37-5.32001-8.83997-10.5-13.29993-15.39001-4.38013-4.89996-9.12012-9.92999-14.16003-15.02002v1.42004c4.75,4.83997,9.25,9.62,13.42004,14.26996,4.44995,4.88,8.90991,10.05005,13.27002,15.35004,.28992,.34998,.57996,.70001,.86987,1.06,2.92004,3.56,5.78003,7.15997,8.52002,10.73999,7.55005,9.78998,14.73999,19.96002,21.38,30.22998,2.25,3.47003,4.24011,6.62,6.08997,9.65002,2.15015,3.52997,4.25,7.08002,6.30005,10.64001,3.60999,6.26996,7.05005,12.57996,10.28003,18.84998,4.10999,8.03998,8.06006,16.32001,11.72998,24.62,.38,.85999,1.09009,1.48004,1.93994,1.73999,.30005,.09003,.61011,.14001,.93005,.14001,.17004,0,.33997-.02002,.51001-.03998,1.45007-.23004,2.48999-1.33002,2.64001-2.79999,.91992-8.92004,2.08997-17.77002,3.5-26.28003,1.30005-8,2.84998-16.15997,4.60999-24.27002,1.16003-5.20996,2.16003-9.46997,3.15002-13.39996,5.15991-20.59003,11.79004-40.92004,19.70996-60.42004,2.58008-6.35999,5.3501-12.75,8.29004-19.09998,.62-1.35999,1.26001-2.71997,1.8999-4.07001,1.78003-3.76996,3.63013-7.52997,5.52002-11.26001,4.89014-9.63,10.14014-19.07996,15.69006-28.27997,3.97998-6.60004,8.12-13.08002,12.39001-19.39001,.76001-1.15002,1.53003-2.27997,2.31006-3.40997l.92993-1.36005c1.38-2,2.80005-4.00995,4.26001-6.03998,3.58997-5,7.3999-10.06,11.34998-15.12,1.15002-1.45001,.76001-3.09998-.14001-4.08002Z"/>
        <path class="cls-2" d="M295.29993,195.76001c11.04004-1.55005,22.1001-1.37,33.02002,.56,3.76001,.65997,7.5,1.52997,11.21997,2.60999,2.59009,.75,5.13013,1.58997,7.63013,2.52002,10.06995,3.71997,19.38989,8.87994,27.82996,15.42999v-1.25c-8.55994-6.55005-18-11.69-28.20007-15.38-2.28992-.84003-4.61987-1.60004-6.97998-2.28003-3.91992-1.13-7.85999-2.03998-11.82996-2.71997-10.85999-1.85999-21.85999-2.03003-32.82996-.48004-.94006,.14001-1.75,.68005-2.22998,1.5-.5,.84003-.58008,1.85004-.22998,2.77002,2.57983,6.69,4.90991,13.53998,6.93994,20.35999,3.46997,11.63,6.19995,23.60004,8.10999,35.57001,.60999,3.79999,1.15002,7.66003,1.59998,11.48999,.87,7.43005,1.43994,14.90002,1.68994,22.38,.43005,11.62,.11011,23.28003-.93994,34.84003-.58997,6.57001-1.43994,13.23999-2.52002,19.81-.79004,4.84998-1.71997,9.73999-2.77002,14.52997-.22998,1.06-.45996,2.11005-.70996,3.17004-1.1499,4.98999-2.45996,10.04999-3.8999,15.02997-.2301,.79004-.46008,1.58002-.70007,2.37-.42004,1.41003,.15002,2.87,1.42004,3.63,.53003,.32001,1.08997,.47003,1.6499,.47003,.80005,0,1.58008-.32001,2.20007-.94,5.18005-5.17999,10.20996-10.60999,14.93994-16.16003,3.22009-3.76996,6.35999-7.64996,9.38-11.60999,1.95996-2.56,3.88-5.14001,5.72998-7.75,1.18005-1.65997,2.38013-3.38,3.55005-5.12,3.73999-5.51001,7.33008-11.23999,10.66992-17.03003,5.28003-9.13995,10.05005-18.60999,14.26001-28.33997,3.31006-7.62,6.28003-15.38,8.90015-23.27002,.97998-2.89996,1.90991-5.88,2.79993-8.89001v-3.58997c-.13,.47998-.26001,.95001-.40002,1.41998-1.05005,3.64001-2.17993,7.25-3.33997,10.75-2.27002,6.81-4.79004,13.54004-7.57996,20.15002-4.51001,10.76001-9.70007,21.21997-15.5,31.26996-3.33008,5.77002-6.91003,11.48004-10.64014,16.97003-1.16992,1.72998-2.35986,3.44-3.53992,5.09998-1.70007,2.39001-3.45007,4.77002-5.23999,7.12-3.15002,4.15002-6.43005,8.22003-9.80994,12.17004-4.72009,5.52997-9.72009,10.94-14.89014,16.09998-.86987,.88-1.95996,.72003-2.62988,.32001-.67004-.40002-1.33008-1.28998-.97009-2.47998,.24011-.79004,.47009-1.59003,.70007-2.38,1.43994-5,2.76001-10.08002,3.90991-15.08002,.25-1.06,.48999-2.12,.71997-3.17999,1.05005-4.81,1.98999-9.72003,2.78003-14.59003,1.08008-6.59998,1.93005-13.28998,2.53003-19.88,1.1001-12.12994,1.40002-24.35999,.88-36.54999-.27991-6.97998-.82996-13.95001-1.64001-20.87-.44995-3.84998-.98999-7.72998-1.59998-11.53998-1.92004-12.02002-4.66003-24.03003-8.14001-35.70001-2.04004-6.84003-4.38-13.71002-6.95996-20.42999-.25-.63-.18994-1.32001,.1499-1.90002,.33008-.56,.88013-.92999,1.51001-1.01996Z"/>
        <path class="cls-2" d="M203.08997,425.17999c.14001,0,.29004,.02002,.43994,.04999,5.90015,1.12,11.88013,2.03998,17.89014,2.77002,3.08997,.38,6.18994,.70996,9.28992,.97998,4.02002,.34998,8.08997,.62,12.13,.79999,.96997,.04999,1.93994,.09003,2.91003,.12,3.95996,.13,7.93005,.17999,11.79993,.14001,10.51001-.08002,21.14014-.77997,31.58008-2.06,4.23999-.51001,8.47998-1.13,12.70996-1.84998,7.8501-1.32001,15.67004-2.98999,23.36011-4.97003,6.28992-1.62,12.52991-3.46997,18.70996-5.52997,3.82996-1.27002,7.62988-2.63,11.3999-4.07001,5.21008-1.98999,10.37012-4.13,15.44006-6.41998,1.42004-.64001,2.83997-1.29004,4.25-1.96002v-1.10999c-1.54993,.73999-3.09998,1.45996-4.66003,2.15997-5.07996,2.28998-10.23999,4.44-15.46997,6.41998-3.66003,1.40002-7.34998,2.72003-11.07007,3.96002-6.21997,2.09003-12.52002,3.95001-18.84985,5.58002-7.76001,2-15.66016,3.67999-23.59009,5-4.10999,.70001-8.22998,1.29999-12.34998,1.79999-10.41003,1.27997-20.98999,1.96997-31.47009,2.04999-3.84985,.03998-7.80994-.01001-11.76001-.14001-.94995-.02997-1.8999-.07001-2.85986-.10999-4.03003-.17999-8.1001-.45001-12.12012-.81-3.08997-.27002-6.19995-.58997-9.28992-.96997-5.9801-.73004-11.93005-1.66003-17.80005-2.77002-1.27991-.23999-2.52991,.28998-3.23999,1.38-.70996,1.08002-.70996,2.45001,0,3.47998,.13,.19,.29004,.37,.47009,.54004,2.23999,2.12,4.51001,4.19995,6.73999,6.16998,3.31995,2.94,6.77991,5.84998,10.27991,8.65997,.55005,.44,1.10999,.89001,1.67004,1.31,9.26001,7.33002,19.07996,14.12,29.25,20.23004,.44995,.27997,.89001,.53998,1.33997,.81,2.5,1.48999,5.12,2.97998,7.77002,4.44995,15.84998,8.76001,32.53992,15.98004,49.65002,21.51001,1.05005,.34003,2.10999,.67004,3.16992,1,12.77002,3.95001,25.86011,6.98999,39.08008,9.07001,1.06006,.16003,2.13,.33002,3.18994,.47003,3.54004,.51996,7.09009,.96997,10.64001,1.33997,.10999,.01001,.22009,.02002,.32996,.02002,.82007,0,1.61011-.32001,2.20007-.91003,.62-.60999,.95007-1.41998,.95007-2.27997,0-.09998,0-.20001-.01001-.29999-1.01001-10.89001-.9801-21.89001,.08984-32.72003,1.02002-10.45996,3.03003-20.89001,5.96008-30.96997,.54993-1.90002,1.14001-3.79999,1.76001-5.67999v-3.11005c-.97998,2.82001-1.89001,5.66003-2.72009,8.51001-2.94995,10.14001-4.95996,20.63-6,31.15002-.54993,5.58997-.81995,11.21997-.81995,16.87,0,5.34998,.24011,10.71002,.74011,16.03998,.05994,.67004-.18005,1.31-.65015,1.78003-.45996,.45001-1.08997,.66998-1.71997,.60999-3.45996-.37-6.90991-.79999-10.34998-1.29999-1.17004-.16998-2.32996-.34003-3.5-.53003-13.15002-2.06-26.18005-5.07996-38.88-9.01001-1.06006-.32996-2.10999-.65997-3.16992-1.00995-17.04004-5.5-33.67004-12.70001-49.46008-21.42999-2.64001-1.46002-5.23999-2.95001-7.72998-4.43005-.81995-.48999-1.64001-.97998-2.45007-1.47998-9.91992-6.02002-19.48999-12.69-28.5199-19.85999-.39001-.29999-.79004-.62-1.18005-.92999-3.48999-2.79999-6.93994-5.70001-10.23999-8.63-2.22998-1.97003-4.5-4.03003-6.72998-6.14001-.12-.12-.22998-.25-.32007-.38-.47998-.70001-.47998-1.63,.01001-2.38,.41003-.63,1.05005-.97998,1.78003-.97998Z"/>
      </g>
    </g>
  </g>
</svg>