<svg xmlns="http://www.w3.org/2000/svg" data-name="レイヤー 2" viewBox="0 0 375 675"><g data-name="レイヤー 1"><path d="M0 0h375v675H0z" style="fill:#ff9169"/><path d="M344.49 150c-5.92 16.73-2.76 33.5 2.31 50.25l.37 1.2c2.41 7.86 5.22 15.71 7.66 23.55 2.35 7.65 4.38 15.3 5.94 22.96 3.02 14.78 4.31 29.58 2.91 44.35q-.15 1.7-.38 3.43a89 89 0 0 1-.59 4.26c-3.99 24.97-15.95 50.03-19.27 75q-.77 5.88-.96 11.75c-.33 9.28.3 18.57 1.32 27.86l.11 1.02c1.3 11.47 3.17 22.93 4.56 34.37 2.1 17.26 3.02 34.56 1.51 51.84l-.09 1.01a172 172 0 0 1-3.51 22.15c-5.69 24.97-17.65 50.03-6.92 75 6.45 15.02 21.18 30.08 35.54 42.4V675H0V0h375v104.15c-4.85 6.14-9.85 12.28-14.45 18.42-6.84 9.14-12.8 18.29-16.06 27.43" style="fill:#fa7268"/><path d="M375 162.64v56.39a89 89 0 0 1-2.13 5.97c-3.05 7.64-7.34 15.3-12.1 22.96-10.76 17.35-23.88 34.72-30.33 52.04-6.54 17.57-6.32 35.18-1.68 52.77q.15.6.33 1.21A142 142 0 0 0 336.8 375q2.66 5.87 5.68 11.75c4.07 7.96 8.45 15.94 12.39 23.9l.44.91c6.28 12.82 11.32 25.64 11.96 38.44.92 17.43-6.38 34.91-13.79 52.37l-.4.95c-1.58 3.74-3.17 7.48-4.67 11.22q-2.12 5.23-3.92 10.46c-8.55 24.97-10.07 50.03-18.32 75s-23.07 50.03-30.57 62.47L288.2 675H0V0h336.61l-.19 12.53c-.1 12.44-.48 37.49 6.17 62.47 4.21 15.84 11.25 31.71 17.96 47.57 3.88 9.14 7.64 18.29 10.7 27.43q2.12 6.31 3.75 12.64" style="fill:#f7626c"/><path d="M311.17 450c3.07 13.92.88 27.87-3.24 41.82l-.29.96c-3.25 10.75-7.61 21.49-11.56 32.22q-5.75 15.74-10.36 31.51A457 457 0 0 0 275.19 600c-4.74 24.97-7.21 50.03-8.54 62.47L265.42 675H0V0h292l7.11 12.53c7.12 12.44 21.36 37.49 23.07 62.47 1.8 24.98-9.02 50.02-6.64 75 1.43 15.07 7.66 30.16 12.45 45.25l.33 1.07c2.99 9.57 5.33 19.13 5.44 28.68.24 20.71-9.91 41.49-21.78 62.22l-.94 1.62q-3.21 5.58-6.52 11.16c-14.71 24.97-29.33 50.03-25.34 75 2.67 16.71 13.58 33.45 22.18 50.19l.48.94c4.06 7.96 7.55 15.92 9.33 23.87" style="fill:#f35172"/><path d="M242.84 429.78a78 78 0 0 0 1.22 20.22 92 92 0 0 0 4.23 14.48l.59 1.53c7.67 19.67 20.83 39.36 28.59 58.99a145 145 0 0 1 8.25 31.51c2.19 14.51 2.56 29.01 2.67 43.49.09 24.97-.48 50.03-.86 62.47l-.28 12.53H0V0h261.62l-4.75 12.53c-2.77 7.26-7.15 18.81-10.79 32.14-2.6 9.51-4.83 19.93-5.82 30.33-2.14 22.59 1.54 45.22 12.44 67.82q1.72 3.59 3.7 7.18c13.76 24.98 36.54 50.03 43.85 75 7.22 24.97-.95 50.03-10.82 75-9.77 24.97-21.17 50.03-31.32 75-7.21 17.9-13.84 35.86-15.19 53.79z" style="fill:#ed4179"/><path d="m252.7 142.82-2.47 7.18c-8.54 24.98-16.14 50.03-18.32 75a227 227 0 0 0-.77 25.13c.09 6.31.33 12.63.59 18.94l.04 1.02c.4 9.98.8 19.95.61 29.91-.47 24.97-4.65 50.03-7.02 75-1.64 17.31-2.42 34.67-3.85 52.01l-.09.99q-.68 8.31-1.65 16.62l-.14 1.16q-.24 2.11-.53 4.22c-3.33 24.97-9.4 50.03-9.69 75s5.03 50.03 11.39 75a1764 1764 0 0 0 17.28 62.47l3.61 12.53H0V0h207.52l11.67 12.53c6.87 7.26 17.68 18.81 26.89 32.14 6.58 9.51 12.34 19.93 15.26 30.33 6.26 22.59-.9 45.22-8.64 67.82" style="fill:#e52f81"/><path d="M219.1 600c2.94 24.97-3.33 50.03-6.55 62.47L209.41 675H0V0h206.57l.95 12.53c.94 12.44 2.84 37.49 7.4 62.47 4.65 24.98 11.86 50.02 11.58 75-.28 24.09-7.7 48.24-15.98 72.33l-.41 1.18-.51 1.49c-4.57 13.06-9.34 26.14-13.69 39.23l-.33.98A413 413 0 0 0 185.49 300a271 271 0 0 0-3.02 14.89q-.13.68-.23 1.34-1.12 6.58-1.87 13.16l-.23 2.03a221 221 0 0 0-.44 43.58c2.19 24.97 8.83 50.03 11.49 75 2.75 24.97 1.42 50.03 7.02 75 5.51 24.97 17.85 50.03 20.89 75" style="fill:#da1e8b"/><path d="M204.95 150c-1.24 16.32-4.75 32.67-8.94 49l-.36 1.41c-2.12 8.21-4.4 16.4-6.64 24.59a2255 2255 0 0 0-10 37.94l-.25.99a5590 5590 0 0 0-9.02 36.07 539 539 0 0 0-6.04 26.37l-.26 1.31c-2.02 10.69-3.36 21.39-3.23 32.08l.04 1.86q.17 6.69 1.23 13.38c3.99 24.97 17.84 50.03 17.37 75-.36 18.84-8.88 37.74-12.42 56.6a76 76 0 0 0-1.44 18.4c.59 10.45 4.04 20.92 8.34 31.4 5.97 14.54 13.6 29.08 17.57 43.6 6.84 24.97 2.66 50.03.67 62.47L189.48 675H0V0h165.75l5.7 12.53c5.69 12.44 17.08 37.49 24.48 62.47 7.5 24.98 10.92 50.02 9.02 75" style="fill:#cc0d95"/><path d="M173.33 556.4c-.56 14.54-3.04 29.09-6.35 43.6-5.69 24.97-13.85 50.03-18.03 62.47L144.87 675H0V0h125.88l3.8 12.53c3.8 12.44 11.39 37.49 14.24 62.47s.95 50.02 2.85 75c.71 9.35 1.95 18.72 3.38 28.08l.17 1.12c2.38 15.27 5.22 30.55 7.08 45.8a309 309 0 0 1 2.24 37.29l-.01 1a232 232 0 0 1-3.09 36.71c-1.88 11.5-4.71 23.03-7.54 34.56l-.32 1.3c-3.19 13.06-6.35 26.11-8.08 39.14a179 179 0 0 0-1.56 26.16 182 182 0 0 0 7.44 48.84c5.44 18.84 14.02 37.73 19.95 56.6a164 164 0 0 1 4.73 18.4 138 138 0 0 1 2.17 31.4" style="fill:#ba03a0"/><path d="M135.66 450c-2.18 24.97-5.98 50.03-8.54 75a708 708 0 0 0-3.61 75 1087 1087 0 0 0 2.56 62.47l.76 12.53H0V0h113.54l4.27 12.53c4.28 12.44 12.82 37.49 16.14 62.47s1.43 50.02-4.74 75c-5.73 23.19-15.15 46.44-19.72 69.64a109 109 0 0 0-.98 5.36 163 163 0 0 0-1.5 40.68 217 217 0 0 0 5.77 34.32c3.76 15.24 8.98 30.51 13.56 45.77l.29.97c2.8 9.43 5.34 18.85 7.13 28.26a206 206 0 0 1 3.29 28.05l.09 2.18c.63 14.93-.12 29.87-1.48 44.77" style="fill:#a50bab"/><path d="M98.55 450c3.89 24.97-.48 50.03-2.85 75-.8 8.44-1.37 16.88-1.85 25.34l-.05 1.06c-.9 16.21-1.45 32.42-2.56 48.6-1.71 24.97-4.94 50.03-6.46 62.47L83.17 675H0V0h100.25l-1.89 12.53c-1.9 12.44-5.7 37.49-9.97 62.47s-9.02 50.02-6.84 75c2.28 24.98 11.4 50.03 16.62 75a249 249 0 0 1 2.13 11.59 194 194 0 0 1 2.48 29.55A157 157 0 0 1 99.31 300c-4.57 21.04-13.78 42.15-16.5 63.21l-.14 1.11a89 89 0 0 0-.64 10.68c.19 24.97 12.53 50.03 16.52 75" style="fill:#8919b5"/><path d="M71.02 600c-1.43 24.97-5.6 50.03-7.6 62.47L61.34 675H0V0h66.08l-1.71 12.53C62.57 24.97 59.15 50.02 58.2 75c-.94 24.98.57 50.02 2.95 75 2.37 24.98 5.6 50.03 2.75 75s-11.77 50.03-11.87 75c-.18 23.06 7.11 46.2 11.58 69.28l.19 1q.46 2.36.86 4.72c4.27 24.97 4.27 50.03 4.46 75q.1 27.03.68 54.11l.05 2.08q.21 9.4.5 18.81c.76 24.97 2.09 50.03.67 75" style="fill:#6524bf"/><path d="M27.64 450c.76 24.97 6.83 50.03 6.17 75s-7.88 50.03-11.2 75-2.75 50.03-2.37 62.47l.28 12.53H0V0h30.96l.76 12.53c.86 12.44 2.37 37.49 2.56 62.47s-1.13 50.02-1.61 75c-.47 24.98-.09 50.03-.95 75-.76 24.97-2.66 50.03-2.18 75 .47 24.97 3.32 50.03 2.56 75l-.09 2.27-.04 1.04c-.99 21.66-4.35 43.38-4.42 65.04l.01 1.58q0 2.54.08 5.07" style="fill:#3f31a8"/><path d="M0 0h375v675H0z" style="fill:none"/><path d="M249.68 267.62a271 271 0 0 1-18.56-19.03 272 272 0 0 1-24.62-32.23A274 274 0 0 1 196.01 199a282 282 0 0 1-16.23-34.47 3.2 3.2 0 0 0-3.17-2.03l-.03-.08-.47.15a5 5 0 0 0-.64.25 150 150 0 0 0-8.98 4.74 173 173 0 0 0-16.34 10.52 171 171 0 0 0-40.66 41.56 170 170 0 0 0-9.45 15.32l-.75 1.4a173 173 0 0 0-11.65 27.17 3.13 3.13 0 0 0 3.46 4.08 478 478 0 0 1 38.98-3.75q3.7-.19 7.4-.35c7.11-.25 14.55-.32 22.15-.22h.07c6.06.06 12.45.27 19.01.64h.05a467 467 0 0 1 43.7 4.61q4.77.75 9.31 1.55a435 435 0 0 1 15.09 2.94q.34.07.69.07c1.17 0 2.21-.62 2.77-1.7a3.1 3.1 0 0 0-.64-3.78m-.24 3.32a2.1 2.1 0 0 1-2.37 1.11 445 445 0 0 0-51.16-7.82 473 473 0 0 0-16.9-1.29l-.24-.01c-6.58-.37-12.99-.58-19.06-.64h-.07a454 454 0 0 0-22.19.22q-3.71.16-7.42.35a437 437 0 0 0-27.26 2.28q-5.88.65-11.81 1.48a2.1 2.1 0 0 1-1.97-.74 2.1 2.1 0 0 1-.4-2.04 172 172 0 0 1 11.58-27.01l.13-.24q3.98-7.43 8.71-14.46 3.93-5.87 8.34-11.37a170 170 0 0 1 32.97-31.56 175 175 0 0 1 16.66-10.78q4.37-2.48 8.93-4.7.25-.12.51-.2l-.07-.22.03-.02.05.26c.99-.21 2.03.37 2.42 1.36a278 278 0 0 0 21.83 44.14 293 293 0 0 0 9.43 14.47 277 277 0 0 0 38.88 44.84c.89.84.8 1.92.45 2.59m-58.09 41.28a3.07 3.07 0 0 0-4.07-.49 398 398 0 0 1-17.66 11.15A463 463 0 0 1 149 334.56l-.34.18-6.54 3.4-.19.1a461 461 0 0 1-41.88 18.68l-.12.04a406 406 0 0 1-17.12 6.25 436 436 0 0 1-19.2 6.07 437 437 0 0 1-31.6 7.99A438 438 0 0 1 0 382.95v1.01a449 449 0 0 0 82.67-19.64 355 355 0 0 0 17.54-6.4l.12-.03a464 464 0 0 0 42.05-18.76l.2-.1 6.1-3.17.45-.24a484 484 0 0 0 33.11-19.39q2.84-1.82 5.6-3.67a2.1 2.1 0 0 1 2.77.33c.57.63.94 1.73.09 2.79v.01a477 477 0 0 0-15.65 21.2l-.93 1.36-2.31 3.42a451 451 0 0 0-43.89 82.28A457 457 0 0 0 96.89 548.6a2.1 2.1 0 0 1-1.81 1.91c-.37.05-.82.02-1.23-.17a2 2 0 0 1-1.08-1.09 485 485 0 0 0-11.75-24.67 460 460 0 0 0-11.22-20.47 425 425 0 0 0-5.39-9.09 461 461 0 0 0-6.11-9.66 453 453 0 0 0-30.75-42.01l-.09-.11a395 395 0 0 0-13.3-15.39Q7.58 420.48 0 412.83v1.42a437 437 0 0 1 13.42 14.27 401 401 0 0 1 13.27 15.35l.87 1.06q4.4 5.36 8.52 10.74a448 448 0 0 1 33.77 50.52 461 461 0 0 1 10.28 18.85 487 487 0 0 1 11.73 24.62 3.1 3.1 0 0 0 2.87 1.88q.25 0 .51-.04a3.1 3.1 0 0 0 2.64-2.8c.92-8.92 2.09-17.77 3.5-26.28 1.3-8 2.85-16.16 4.61-24.27a455 455 0 0 1 22.86-73.82 433 433 0 0 1 10.19-23.17q2.68-5.66 5.52-11.26a444 444 0 0 1 30.39-51.08l.93-1.36q2.07-3 4.26-6.04a473 473 0 0 1 11.35-15.12 3.07 3.07 0 0 0-.14-4.08M295.3 195.76a105 105 0 0 1 44.24 3.17q3.88 1.13 7.63 2.52A104 104 0 0 1 375 216.88v-1.25c-8.56-6.55-18-11.69-28.2-15.38q-3.44-1.26-6.98-2.28a106 106 0 0 0-44.66-3.2 3.18 3.18 0 0 0-2.46 4.27 278 278 0 0 1 18.34 89.8 274 274 0 0 1-3.46 54.65 274 274 0 0 1-3.48 17.7 284 284 0 0 1-3.9 15.03l-.7 2.37a3.14 3.14 0 0 0 1.42 3.63q.8.47 1.65.47c.8 0 1.58-.32 2.2-.94a278 278 0 0 0 58.53-86.01 279 279 0 0 0 11.7-32.16v-3.59l-.4 1.42a278 278 0 0 1-10.92 30.9 276 276 0 0 1-59.62 88.73 2.1 2.1 0 0 1-2.63.32 2.1 2.1 0 0 1-.97-2.48l.7-2.38a288 288 0 0 0 7.41-32.85 275 275 0 0 0 3.41-56.43 274 274 0 0 0-3.24-32.41 280 280 0 0 0-15.1-56.13 2.16 2.16 0 0 1 1.66-2.92m-92.21 229.42q.21 0 .44.05a272 272 0 0 0 27.18 3.75 288 288 0 0 0 26.84 1.06 278 278 0 0 0 44.29-3.91A280 280 0 0 0 375 403.18v-1.11q-2.32 1.11-4.66 2.16a272 272 0 0 1-15.47 6.42q-5.49 2.1-11.07 3.96a277 277 0 0 1-54.79 12.38 276 276 0 0 1-43.23 1.91l-2.86-.11a273 273 0 0 1-21.41-1.78 276 276 0 0 1-17.8-2.77 3.1 3.1 0 0 0-3.24 1.38 3.1 3.1 0 0 0 .47 4.02 268 268 0 0 0 17.02 14.83q.83.67 1.67 1.31a278 278 0 0 0 29.25 20.23l1.34.81a282 282 0 0 0 60.59 26.96 279 279 0 0 0 39.08 9.07q1.6.25 3.19.47a256 256 0 0 0 10.97 1.36 3.17 3.17 0 0 0 3.15-3.19l-.01-.3a172 172 0 0 1 7.81-69.37v-3.11q-1.47 4.23-2.72 8.51a173 173 0 0 0-6.08 64.06c.06.67-.18 1.31-.65 1.78-.46.45-1.09.67-1.72.61a276 276 0 0 1-13.85-1.83 276 276 0 0 1-42.05-10.02 281 281 0 0 1-57.19-25.86l-2.45-1.48a278 278 0 0 1-28.52-19.86l-1.18-.93a270 270 0 0 1-16.97-14.77 2.1 2.1 0 0 1-.31-2.76 2.1 2.1 0 0 1 1.78-.98" style="fill:#fff"/></g></svg>