<svg xmlns="http://www.w3.org/2000/svg" id="_イヤー_2" viewBox="0 0 1288.41 1235.02"><defs><style>.cls-1{fill:none;stroke:#fff;stroke-miterlimit:10;stroke-width:1.1px}.cls-4{fill:#e96293}.cls-7{fill:#9d4a97}.cls-10{fill:#c35098}.cls-13{fill:#a55b9f}</style></defs><g id="_イヤー_1-2"><path d="M634.8 748.89a292 292 0 0 0-2.33 17.52c-.19 1.82-2.65 2.18-3.38.53a325 325 0 0 0-7.82-16.41 137 137 0 0 1 13.53-1.65Z" style="fill:#6892cc"/><path d="M639.98 723.78a304 304 0 0 0-5.17 25.11q-6.86.49-13.53 1.65a310 310 0 0 0-11.05-19.66 145 145 0 0 1 29.75-7.1" style="fill:#5362ab"/><path d="M799.78 616.69a179 179 0 0 1-9.46 14.72 87 87 0 0 0-16.52-1.58h-1.02q1.08-6.62 1.68-13.22a87 87 0 0 0 25.32.07Z" style="fill:#d04a91"/><path d="M807.82 582.58q3.7 0 7.36-.19a186 186 0 0 1-15.4 34.31 86 86 0 0 1-25.32-.07c1.17-12.87.97-25.65-.5-38.18a140 140 0 0 0 33.86 4.13" class="cls-4"/><path d="M790.32 631.41a183 183 0 0 1-19.97 23.61c-1.3 1.3-3.48-.01-2.95-1.77l.47-1.58a192 192 0 0 0 2.6-10.03l.48-2.11a184 184 0 0 0 1.85-9.69h1.02a88 88 0 0 1 16.52 1.58Z" class="cls-13"/><path d="M739.14 687.09a98 98 0 0 0-4.7 24.54 187 187 0 0 1-32.77-24.72q-.15-.15-.26-.31a1.78 1.78 0 0 1 1.82-2.72 186 186 0 0 0 35.92 3.21Z" style="fill:#5955a2"/><path d="M732.09 582.53a302 302 0 0 0-58.1-6.5q-7.44-.1-14.81.15a142 142 0 0 0-13.66-35.01 115 115 0 0 1 28.51-25.5q2.76 3.58 5.75 7.01a141 141 0 0 0 10.9 11.15l.77.7.81.73.32.28.32.3q.87.73 1.73 1.5l.49.41.92.77.94.77 1.22 1 .41.32.81.64q.36.25.68.53l1.82 1.37.92.68.38.28.9.64.17.13q.28.22.58.41a184 184 0 0 0 28.81 34.19c1.3 1.24.19 3.4-1.58 3.03Z" class="cls-4"/><path d="M659.17 576.19q-2.47.1-4.94.24-13.1.69-25.99 2.5a1.77 1.77 0 0 1-1.95-2.29 113 113 0 0 1 7.74-18.04 112 112 0 0 1 11.48-17.42 142 142 0 0 1 13.66 35.01" style="fill:#e53c8e"/><path d="M654.23 576.42q-13.1.69-25.99 2.5a1.77 1.77 0 0 1-1.95-2.29 113 113 0 0 1 7.74-18.04 143 143 0 0 1 20.2 17.82Z" class="cls-10"/><path d="M653.12 683.49a302 302 0 0 0-13.14 40.29 144 144 0 0 0-29.75 7.1 301 301 0 0 0-18.31-26.58 144.5 144.5 0 0 1 61.21-20.79Z" style="fill:#7163a9"/><path d="M694.88 611.47q-5.4 6.9-10.41 14.11l-2.16 3.18a142 142 0 0 0-21.16 5.77q.25-1.44.47-2.89l.02-.13.13-.96.23-1.62.13-1.09q.09-.63.15-1.26 2.25-1.15 4.49-2.33a321 321 0 0 0 25.76-15.35c1.67-1.11 3.61.98 2.35 2.56Z" style="fill:#d36ca5"/><path d="M682.31 628.76a296 296 0 0 0-18.72 31.78q-3.75-2.65-7.69-5.09a151 151 0 0 0-10.26-5.75 146 146 0 0 0 13.06-14.25q.61-.25 1.22-.47l1.24-.45a142 142 0 0 1 21.16-5.77Z" class="cls-13"/><path d="M663.59 660.54a302 302 0 0 0-10.47 22.95q-5.6.58-11.07 1.58c-9.04 1.65-17.8 4.1-26.18 7.33a146 146 0 0 0-23.96 11.88 292 292 0 0 0-15.11-18.11q10.36-2.22 20.09-5.86a143 143 0 0 0 48.75-30.63q5.25 2.68 10.26 5.75a138 138 0 0 1 7.69 5.09Z" style="fill:#936bab"/><path d="M645.64 649.71a143 143 0 0 1-48.75 30.63 145 145 0 0 1-20.09 5.86 284 284 0 0 0-11.35-11.93 142.5 142.5 0 0 0 64.52-31.35q3.59 1.32 7.12 2.82 4.36 1.85 8.55 3.98Z" style="fill:#8d5aa1"/><path d="M662.29 626.58q-.06.63-.15 1.26l-.13 1.09-.23 1.62-.13.96q-.03.06-.02.13-.22 1.44-.47 2.89l-1.24.45q-.61.22-1.22.47a144 144 0 0 0-21.61 10.28q-3.52-1.5-7.12-2.82a98 98 0 0 0 4.32-3.85h.02q14.3-5.56 27.98-12.48" class="cls-10"/><path d="M634.29 639.06a142.5 142.5 0 0 1-68.84 35.2 298 298 0 0 0-13.98-13.04 1.76 1.76 0 0 1 1-3.1 300 300 0 0 0 81.81-19.07Z" style="fill:#a75a9f"/><path d="M658.7 635.45q-6.07 7.57-13.06 14.25-4.2-2.12-8.55-3.98 10.3-6.01 21.61-10.28Z" class="cls-7"/><path d="m704.86 545.31-.58-.41-.17-.13-.9-.64-.38-.28-.92-.68-1.82-1.37q-.33-.28-.68-.53l-.81-.64-.41-.32-1.22-1-.94-.77-.92-.77-.49-.41-1.73-1.5-.32-.3-.32-.28-.81-.73-.77-.7q-.77-.7-1.52-1.43-4.93-4.66-9.38-9.72a153 153 0 0 1-5.75-7.01q2.3-1.43 4.64-2.78a99 99 0 0 1 5.96-3.14l.38-.15q.04.09.09.15l-.04-.15c.81-.17 1.67.3 1.99 1.11q1.5 3.9 3.21 7.69a186 186 0 0 0 14.62 26.89Zm117.89 5.4a186 186 0 0 1-7.58 31.68q-3.66.2-7.36.19c-11.68 0-23.02-1.43-33.86-4.13q-.45-3.86-1.06-7.67a186 186 0 0 0-5.41-23.73 141 141 0 0 0 55.09 2.57q.25.5.18 1.09" style="fill:#ea6266"/><path d="M822.57 549.62a141 141 0 0 1-55.09-2.57 184 184 0 0 0-4.63-13.58 1.76 1.76 0 0 1 1.37-2.39 71 71 0 0 1 29.6 2.12 71 71 0 0 1 28.36 15.93q.23.21.38.5Z" style="fill:#f08d64"/><path d="m825.72 668.64-.03.06a114 114 0 0 0-9.82 23.6 97 97 0 0 0-31.76-11.11 187 187 0 0 0 39.25-14.99c1.57-.82 3.22.89 2.36 2.45Z" class="cls-7"/><path d="M815.87 692.3a114 114 0 0 0-3.99 20.69 98 98 0 0 0-51.75-27.26q12.15-1.49 23.98-4.54a97 97 0 0 1 31.76 11.11" style="fill:#834e9b"/><path d="M811.83 734.84a1.78 1.78 0 0 1-1.94 1.95 185 185 0 0 1-70.29-22.2q-2.61-1.44-5.16-2.96a99 99 0 0 1 4.7-24.54 186 186 0 0 0 20.99-1.37 98 98 0 0 1 51.75 27.26c-.72 7.31-.73 14.62-.06 21.85Z" style="fill:#644a9a"/><circle cx="772.33" cy="607.72" r="77.44" class="cls-1"/><circle cx="742.82" cy="621.1" r="125.65" class="cls-1"/><circle cx="937.18" cy="726.06" r="125.65" class="cls-1"/><circle cx="571.46" cy="600.99" r="203.35" class="cls-1"/><circle cx="736.02" cy="483.03" r="203.35" class="cls-1"/><circle cx="874.92" cy="433.72" r="203.35" class="cls-1"/><circle cx="520.71" cy="329.6" r="329.05" class="cls-1"/><circle cx="329.6" cy="903.39" r="329.05" class="cls-1"/><circle cx="958.81" cy="807.81" r="329.05" class="cls-1"/><circle cx="665.08" cy="905.42" r="329.05" class="cls-1"/><circle cx="623.07" cy="515.17" r="203.35" class="cls-1"/><circle cx="836.53" cy="535.33" r="203.35" class="cls-1"/></g></svg>