<?xml version="1.0" encoding="UTF-8"?><svg id="_イヤー_2" xmlns="http://www.w3.org/2000/svg" viewBox="0 0 1288.41 1235.02"><defs><style>.cls-1{fill:none;stroke:#fff;stroke-miterlimit:10;stroke-width:1.1px;}.cls-2{fill:#6892cc;}.cls-3{fill:#f08d64;}.cls-4{fill:#e96293;}.cls-5{fill:#ea6266;}.cls-6{fill:#e53c8e;}.cls-7{fill:#9d4a97;}.cls-8{fill:#936bab;}.cls-9{fill:#8d5aa1;}.cls-10{fill:#c35098;}.cls-11{fill:#d04a91;}.cls-12{fill:#a75a9f;}.cls-13{fill:#a55b9f;}.cls-14{fill:#d36ca5;}.cls-15{fill:#5955a2;}.cls-16{fill:#644a9a;}.cls-17{fill:#5362ab;}.cls-18{fill:#7163a9;}.cls-19{fill:#834e9b;}</style></defs><g id="_イヤー_1-2"><g><g><path class="cls-2" d="M634.8,748.89c-.96,5.83-1.73,11.69-2.33,17.52-.19,1.82-2.65,2.18-3.38,.53-2.46-5.56-5.07-11.03-7.82-16.41,4.45-.77,8.96-1.32,13.53-1.65Z"/><path class="cls-17" d="M639.98,723.78c-.75,2.97-1.43,5.94-2.09,8.93-1.18,5.41-2.2,10.79-3.08,16.18-4.57,.32-9.08,.88-13.53,1.65-3.44-6.69-7.14-13.25-11.05-19.66,9.49-3.36,19.45-5.77,29.75-7.1Z"/><g><path class="cls-11" d="M799.78,616.69c-2.24,3.88-4.6,7.65-7.1,11.32-.77,1.14-1.56,2.28-2.36,3.4-1.14-.22-2.29-.42-3.45-.6-4.26-.65-8.63-.98-13.07-.98-.34,0-.68,0-1.02,0,.72-4.41,1.28-8.82,1.68-13.22,4.2,.63,8.5,.96,12.88,.96s8.38-.3,12.44-.89Z"/><path class="cls-4" d="M807.82,582.58c2.47,0,4.92-.06,7.36-.19-4.03,12.14-9.22,23.6-15.4,34.31-4.06,.59-8.21,.89-12.44,.89s-8.68-.33-12.88-.96c1.17-12.87,.97-25.65-.5-38.18,10.84,2.7,22.18,4.13,33.86,4.13Z"/><path class="cls-13" d="M790.32,631.41c-3.17,4.46-6.52,8.75-10.04,12.87-3.17,3.72-6.49,7.3-9.93,10.74-1.3,1.3-3.48-.01-2.95-1.77,.16-.53,.31-1.05,.47-1.58,.96-3.34,1.83-6.68,2.6-10.03,.16-.71,.32-1.41,.48-2.11,.71-3.23,1.32-6.46,1.85-9.69,.34,0,.68,0,1.02,0,4.44,0,8.81,.34,13.07,.98,1.16,.18,2.3,.37,3.45,.6Z"/><path class="cls-15" d="M739.14,687.09c-1.33,4.06-2.41,8.24-3.21,12.51-.74,3.93-1.24,7.95-1.49,12.03-7.59-4.51-14.74-9.48-21.45-14.86-2.33-1.87-4.61-3.79-6.83-5.76-1.52-1.34-3.02-2.71-4.49-4.1-.1-.1-.19-.2-.26-.31-.85-1.24,.22-3.02,1.82-2.72,6.01,1.14,12.04,1.96,18.07,2.5,3.33,.29,6.67,.5,10,.61,2.62,.09,5.23,.12,7.85,.1Z"/><path class="cls-4" d="M732.09,582.53c-5.41-1.15-10.84-2.14-16.26-2.99-9.75-1.52-19.47-2.52-29.17-3.08-4.23-.24-8.46-.39-12.67-.43-4.96-.06-9.9-.02-14.81,.15-3.01-12.37-7.65-24.13-13.66-35.01,8.06-10.11,17.74-18.7,28.51-25.5,1.84,2.39,3.76,4.72,5.75,7.01,2.97,3.38,6.09,6.63,9.38,9.72,.49,.49,1,.96,1.52,1.43l.77,.7c.28,.24,.53,.47,.81,.73,.11,.09,.21,.19,.32,.28,.11,.11,.21,.19,.32,.3,.58,.49,1.15,.98,1.73,1.5,.17,.13,.32,.28,.49,.41,.3,.26,.62,.51,.92,.77,.32,.26,.62,.51,.94,.77,.41,.34,.81,.66,1.22,1,.13,.11,.28,.21,.41,.32,.28,.21,.56,.43,.81,.64,.24,.17,.47,.34,.68,.53,.6,.45,1.22,.92,1.82,1.37,.3,.24,.62,.45,.92,.68,.13,.09,.26,.19,.38,.28,.3,.21,.6,.43,.9,.64,.06,.04,.13,.09,.17,.13,.19,.15,.38,.28,.58,.41,8.14,12.46,17.8,23.96,28.81,34.19,1.3,1.24,.19,3.4-1.58,3.03Z"/><path class="cls-6" d="M659.17,576.19c-1.65,.06-3.29,.15-4.94,.24-8.74,.45-17.4,1.3-25.99,2.5-1.3,.19-2.35-1.05-1.95-2.29,2.09-6.33,4.68-12.33,7.74-18.04,3.31-6.22,7.16-12.03,11.48-17.42,6.01,10.88,10.64,22.63,13.66,35.01Z"/><path class="cls-10" d="M654.23,576.42c-8.74,.45-17.4,1.3-25.99,2.5-1.3,.19-2.35-1.05-1.95-2.29,2.09-6.33,4.68-12.33,7.74-18.04,7.29,5.3,14.04,11.26,20.2,17.82Z"/><path class="cls-18" d="M653.12,683.49c-5.26,12.95-9.66,26.39-13.14,40.29-10.3,1.32-20.26,3.74-29.75,7.1-1.32-2.16-2.69-4.32-4.06-6.43-4.47-6.9-9.23-13.64-14.25-20.15,7.54-4.66,15.56-8.63,23.96-11.88,8.38-3.23,17.14-5.69,26.18-7.33,3.65-.66,7.33-1.2,11.07-1.58Z"/><path class="cls-14" d="M694.88,611.47c-3.59,4.6-7.07,9.3-10.41,14.11-.73,1.07-1.45,2.12-2.16,3.18-7.27,1.39-14.34,3.33-21.16,5.77,.17-.96,.32-1.92,.47-2.89,0-.04,0-.09,.02-.13,.04-.32,.09-.64,.13-.96,.09-.53,.15-1.07,.23-1.62l.13-1.09c.06-.43,.11-.83,.15-1.26,1.5-.77,2.99-1.54,4.49-2.33,4.72-2.52,9.38-5.15,13.98-7.91,3.98-2.37,7.91-4.85,11.78-7.44,1.67-1.11,3.61,.98,2.35,2.56Z"/><path class="cls-13" d="M682.31,628.76c-6.86,10.13-13.1,20.73-18.72,31.78-2.5-1.77-5.06-3.46-7.69-5.09-3.33-2.05-6.75-3.95-10.26-5.75,4.66-4.45,9.02-9.21,13.06-14.25,.41-.17,.81-.32,1.22-.47,.41-.15,.83-.3,1.24-.45,6.82-2.44,13.89-4.38,21.16-5.77Z"/><path class="cls-8" d="M663.59,660.54c-3.78,7.46-7.29,15.11-10.47,22.95-3.74,.38-7.42,.92-11.07,1.58-9.04,1.65-17.8,4.1-26.18,7.33-8.4,3.25-16.41,7.22-23.96,11.88-2.03-2.65-4.13-5.28-6.26-7.87-2.86-3.48-5.81-6.9-8.85-10.24,6.9-1.47,13.61-3.44,20.09-5.86,18.32-6.86,34.88-17.35,48.75-30.63,3.5,1.79,6.92,3.7,10.26,5.75,2.63,1.62,5.19,3.31,7.69,5.09Z"/><path class="cls-9" d="M645.64,649.71c-13.87,13.27-30.43,23.76-48.75,30.63-6.48,2.41-13.19,4.38-20.09,5.86-3.65-4.08-7.46-8.06-11.35-11.93,24.3-4.85,46.35-15.88,64.52-31.35,2.39,.88,4.77,1.82,7.12,2.82,2.91,1.24,5.75,2.56,8.55,3.98Z"/><path class="cls-10" d="M662.29,626.58c-.04,.43-.09,.83-.15,1.26l-.13,1.09c-.09,.56-.15,1.09-.23,1.62-.04,.32-.09,.64-.13,.96-.02,.04-.02,.09-.02,.13-.15,.96-.3,1.92-.47,2.89-.41,.15-.83,.3-1.24,.45-.41,.15-.81,.3-1.22,.47-7.52,2.84-14.75,6.28-21.61,10.28-2.35-1-4.72-1.94-7.12-2.82,1.48-1.24,2.91-2.52,4.32-3.85h.02c9.53-3.7,18.87-7.87,27.98-12.48Z"/><path class="cls-12" d="M634.29,639.06c-1.41,1.32-2.84,2.61-4.32,3.85-18.17,15.47-40.22,26.5-64.52,31.35-4.51-4.49-9.17-8.83-13.98-13.04-1.2-1.03-.56-2.97,1-3.1,25.65-2.27,50.63-7.8,74.39-16.29,2.5-.9,4.96-1.82,7.42-2.78Z"/><path class="cls-7" d="M658.7,635.45c-4.04,5.04-8.4,9.81-13.06,14.25-2.8-1.41-5.64-2.74-8.55-3.98,6.86-4,14.08-7.44,21.61-10.28Z"/><path class="cls-5" d="M704.86,545.31c-.19-.13-.38-.26-.58-.41-.04-.04-.11-.09-.17-.13-.3-.21-.6-.43-.9-.64-.13-.09-.26-.19-.38-.28-.3-.24-.62-.45-.92-.68-.6-.45-1.22-.92-1.82-1.37-.21-.19-.45-.36-.68-.53-.26-.21-.53-.43-.81-.64-.13-.11-.28-.21-.41-.32-.41-.34-.81-.66-1.22-1-.32-.26-.62-.51-.94-.77-.3-.26-.62-.51-.92-.77-.17-.13-.32-.28-.49-.41-.58-.51-1.15-1-1.73-1.5-.11-.11-.21-.19-.32-.3-.11-.09-.21-.19-.32-.28-.28-.26-.53-.49-.81-.73l-.77-.7c-.51-.47-1.03-.94-1.52-1.43-3.29-3.1-6.41-6.35-9.38-9.72-1.99-2.29-3.91-4.62-5.75-7.01,1.54-.96,3.08-1.88,4.64-2.78,1.95-1.11,3.93-2.16,5.96-3.14,.13-.06,.26-.11,.38-.15,.02,.06,.06,.11,.09,.15-.02-.04-.02-.09-.04-.15,.81-.17,1.67,.3,1.99,1.11,1,2.59,2.07,5.17,3.21,7.69,3.29,7.46,7.07,14.68,11.31,21.65,1.07,1.75,2.16,3.5,3.31,5.24Z"/><path class="cls-5" d="M822.75,550.71c-.85,5.73-1.98,11.46-3.39,17.19-.6,2.44-1.25,4.88-1.96,7.32-.7,2.42-1.44,4.8-2.23,7.17-2.44,.13-4.89,.19-7.36,.19-11.68,0-23.02-1.43-33.86-4.13h0c-.3-2.57-.66-5.13-1.06-7.67-1.29-8.05-3.1-15.98-5.41-23.73,10.88,2.71,22.25,4.15,33.97,4.15,7.18,0,14.23-.54,21.12-1.58,.17,.33,.23,.71,.18,1.09Z"/><path class="cls-3" d="M822.57,549.62c-6.89,1.04-13.94,1.58-21.12,1.58-11.72,0-23.09-1.44-33.97-4.15-1.37-4.59-2.91-9.12-4.63-13.58-.41-1.06,.25-2.23,1.37-2.39,9.62-1.36,19.67-.75,29.6,2.12,10.93,3.16,20.52,8.71,28.36,15.93,.16,.14,.28,.31,.38,.5Z"/><path class="cls-7" d="M825.72,668.64s-.02,.04-.03,.06c-1.69,3.05-3.22,6.15-4.6,9.28-2.08,4.7-3.81,9.49-5.22,14.32-9.69-5.42-20.4-9.24-31.76-11.11,10.37-2.67,20.5-6.24,30.28-10.65,3.02-1.37,6.02-2.81,8.97-4.34,1.57-.82,3.22,.89,2.36,2.45Z"/><path class="cls-19" d="M815.87,692.3c-1.98,6.83-3.31,13.75-3.99,20.69-13.8-13.85-31.71-23.6-51.75-27.26,8.09-.99,16.1-2.51,23.98-4.54,11.36,1.87,22.07,5.69,31.76,11.11Z"/><path class="cls-16" d="M811.83,734.84c.1,1.12-.83,2.07-1.94,1.95-11.8-1.25-23.58-3.64-35.18-7.23-11.96-3.7-23.72-8.67-35.11-14.97-1.74-.96-3.46-1.95-5.16-2.96,.25-4.08,.76-8.1,1.49-12.03,.8-4.27,1.88-8.45,3.21-12.51,7.03-.06,14.04-.52,20.99-1.37,20.04,3.66,37.95,13.41,51.75,27.26-.72,7.31-.73,14.62-.06,21.85Z"/></g></g><g><circle class="cls-1" cx="772.33" cy="607.72" r="77.44"/><circle class="cls-1" cx="742.82" cy="621.1" r="125.65"/><circle class="cls-1" cx="937.18" cy="726.06" r="125.65"/><circle class="cls-1" cx="571.46" cy="600.99" r="203.35"/><circle class="cls-1" cx="736.02" cy="483.03" r="203.35"/><circle class="cls-1" cx="874.92" cy="433.72" r="203.35"/><circle class="cls-1" cx="520.71" cy="329.6" r="329.05"/><circle class="cls-1" cx="329.6" cy="903.39" r="329.05"/><circle class="cls-1" cx="958.81" cy="807.81" r="329.05"/><circle class="cls-1" cx="665.08" cy="905.42" r="329.05"/><circle class="cls-1" cx="623.07" cy="515.17" r="203.35"/><circle class="cls-1" cx="836.53" cy="535.33" r="203.35"/></g></g></g></svg>