<?xml version="1.0" encoding="UTF-8"?><svg id="_イヤー_2" xmlns="http://www.w3.org/2000/svg" viewBox="0 0 18.16 18.16"><defs><style>.cls-1{fill:#ccc;}</style></defs><g id="_イヤー_1-2"><g><path class="cls-1" d="M9.08,1.64c2.42,0,2.71,0,3.67,.05,.89,.04,1.37,.19,1.69,.31,.42,.16,.73,.36,1.04,.68,.32,.32,.51,.62,.68,1.04,.12,.32,.27,.8,.31,1.69,.04,.96,.05,1.24,.05,3.67s0,2.71-.05,3.67c-.04,.89-.19,1.37-.31,1.69-.16,.42-.36,.73-.68,1.04s-.62,.51-1.04,.68c-.32,.12-.8,.27-1.69,.31-.96,.04-1.24,.05-3.67,.05s-2.71,0-3.67-.05c-.89-.04-1.37-.19-1.69-.31-.42-.16-.73-.36-1.04-.68-.32-.32-.51-.62-.68-1.04-.12-.32-.27-.8-.31-1.69-.04-.96-.05-1.24-.05-3.67s0-2.71,.05-3.67c.04-.89,.19-1.37,.31-1.69,.16-.42,.36-.73,.68-1.04s.62-.51,1.04-.68c.32-.12,.8-.27,1.69-.31,.96-.04,1.24-.05,3.67-.05m0-1.64c-2.47,0-2.78,.01-3.74,.05-.97,.04-1.63,.2-2.2,.42-.6,.23-1.1,.54-1.61,1.05-.5,.5-.82,1.01-1.05,1.61-.22,.58-.38,1.24-.42,2.2-.04,.97-.05,1.28-.05,3.74s.01,2.78,.05,3.74c.04,.97,.2,1.63,.42,2.2,.23,.6,.54,1.1,1.05,1.61,.5,.5,1.01,.82,1.61,1.05,.58,.22,1.24,.38,2.2,.42,.97,.04,1.28,.05,3.74,.05s2.78-.01,3.74-.05c.97-.04,1.63-.2,2.2-.42,.6-.23,1.1-.54,1.61-1.05,.5-.5,.82-1.01,1.05-1.61,.22-.58,.38-1.24,.42-2.2,.04-.97,.05-1.28,.05-3.74s-.01-2.78-.05-3.74c-.04-.97-.2-1.63-.42-2.2-.23-.6-.54-1.1-1.05-1.61-.5-.5-1.01-.82-1.61-1.05-.58-.22-1.24-.38-2.2-.42-.97-.04-1.28-.05-3.74-.05h0Z"/><path class="cls-1" d="M9.08,4.42c-2.58,0-4.66,2.09-4.66,4.66s2.09,4.66,4.66,4.66,4.66-2.09,4.66-4.66-2.09-4.66-4.66-4.66Zm0,7.69c-1.67,0-3.03-1.36-3.03-3.03s1.36-3.03,3.03-3.03,3.03,1.36,3.03,3.03-1.36,3.03-3.03,3.03Z"/><circle class="cls-1" cx="13.93" cy="4.23" r="1.09"/></g></g></svg>