<svg xmlns="http://www.w3.org/2000/svg" id="_イヤー_2" viewBox="0 0 18.16 18.16"><defs><style>.cls-1{fill:#ccc}</style></defs><g id="_イヤー_1-2"><path d="M9.08 1.64c2.42 0 2.71 0 3.67.05.89.04 1.37.19 1.69.31a3 3 0 0 1 1.72 1.72c.12.32.27.8.31 1.69.04.96.05 1.24.05 3.67s0 2.71-.05 3.67a5 5 0 0 1-.31 1.69 3 3 0 0 1-1.72 1.72c-.32.12-.8.27-1.69.31-.96.04-1.24.05-3.67.05s-2.71 0-3.67-.05a5 5 0 0 1-1.69-.31 3 3 0 0 1-1.04-.68A3 3 0 0 1 2 14.44c-.12-.32-.27-.8-.31-1.69-.04-.96-.05-1.24-.05-3.67s0-2.71.05-3.67c.04-.89.19-1.37.31-1.69A3 3 0 0 1 3.72 2c.32-.12.8-.27 1.69-.31.96-.04 1.24-.05 3.67-.05m0-1.64C6.61 0 6.3.01 5.34.05a7 7 0 0 0-2.2.42c-.6.23-1.1.54-1.61 1.05-.5.5-.82 1.01-1.05 1.61a7 7 0 0 0-.42 2.2C.02 6.3.01 6.61.01 9.07s.01 2.78.05 3.74.2 1.63.42 2.2c.23.6.54 1.1 1.05 1.61.5.5 1.01.82 1.61 1.05a7 7 0 0 0 2.2.42c.97.04 1.28.05 3.74.05s2.78-.01 3.74-.05a7 7 0 0 0 2.2-.42c.6-.23 1.1-.54 1.61-1.05.5-.5.82-1.01 1.05-1.61a7 7 0 0 0 .42-2.2c.04-.97.05-1.28.05-3.74s-.01-2.78-.05-3.74a7 7 0 0 0-.42-2.2c-.23-.6-.54-1.1-1.05-1.61-.5-.5-1.01-.82-1.61-1.05a7 7 0 0 0-2.2-.42A71 71 0 0 0 9.08 0" class="cls-1"/><path d="M9.08 4.42a4.66 4.66 0 1 0 0 9.32 4.66 4.66 0 0 0 0-9.32m0 7.69a3.03 3.03 0 1 1 0-6.07 3.03 3.03 0 0 1 0 6.07" class="cls-1"/><circle cx="13.93" cy="4.23" r="1.09" class="cls-1"/></g></svg>