<?xml version="1.0" encoding="UTF-8"?><svg id="_イヤー_2" xmlns="http://www.w3.org/2000/svg" viewBox="0 0 20.87 16.95"><defs><style>.cls-1{fill:#ccc;}</style></defs><g id="_イヤー_1-2"><g id="Logo"><path id="white_background" class="cls-1" d="M18.73,4.22c.01,.18,.01,.37,.01,.55,0,5.66-4.31,12.18-12.18,12.18h0c-2.33,0-4.6-.67-6.56-1.92,.34,.04,.68,.06,1.02,.06,1.93,0,3.8-.65,5.32-1.84-1.83-.03-3.44-1.23-4-2.97,.64,.12,1.3,.1,1.93-.07-2-.4-3.43-2.16-3.43-4.2v-.05c.6,.33,1.26,.52,1.94,.54C.9,5.24,.32,2.74,1.45,.78,3.63,3.46,6.83,5.08,10.28,5.25c-.35-1.49,.13-3.04,1.24-4.09,1.72-1.62,4.44-1.54,6.06,.19,.96-.19,1.88-.54,2.72-1.04-.32,.99-.99,1.83-1.88,2.37,.85-.1,1.68-.33,2.46-.67-.57,.86-1.3,1.61-2.14,2.22Z"/></g></g></svg>