<?xml version="1.0" encoding="UTF-8"?><svg id="_イヤー_2" xmlns="http://www.w3.org/2000/svg" viewBox="0 0 490.91 470.57"><defs><style>.cls-1{fill:none;stroke:#ccc;stroke-miterlimit:10;stroke-width:.42px;}.cls-2{fill:#6892cc;}.cls-3{fill:#f08d64;}.cls-4{fill:#e96293;}.cls-5{fill:#ea6266;}.cls-6{fill:#e53c8e;}.cls-7{fill:#9d4a97;}.cls-8{fill:#936bab;}.cls-9{fill:#8d5aa1;}.cls-10{fill:#c35098;}.cls-11{fill:#d04a91;}.cls-12{fill:#a75a9f;}.cls-13{fill:#a55b9f;}.cls-14{fill:#d36ca5;}.cls-15{fill:#5955a2;}.cls-16{fill:#644a9a;}.cls-17{fill:#5362ab;}.cls-18{fill:#7163a9;}.cls-19{fill:#834e9b;}</style></defs><g id="_イヤー_1-2"><g><g><path class="cls-2" d="M241.87,285.34c-.37,2.22-.66,4.45-.89,6.68-.07,.69-1.01,.83-1.29,.2-.94-2.12-1.93-4.2-2.98-6.25,1.69-.29,3.41-.5,5.15-.63Z"/><path class="cls-17" d="M243.84,275.78c-.28,1.13-.55,2.26-.8,3.4-.45,2.06-.84,4.11-1.17,6.16-1.74,.12-3.46,.33-5.15,.63-1.31-2.55-2.72-5.05-4.21-7.49,3.62-1.28,7.41-2.2,11.34-2.7Z"/><g><path class="cls-11" d="M304.73,234.97c-.85,1.48-1.75,2.92-2.7,4.31-.29,.44-.59,.87-.9,1.3-.43-.09-.87-.16-1.31-.23-1.62-.25-3.29-.37-4.98-.37-.13,0-.26,0-.39,0,.28-1.68,.49-3.36,.64-5.04,1.6,.24,3.24,.36,4.91,.36s3.19-.12,4.74-.34Z"/><path class="cls-4" d="M307.8,221.97c.94,0,1.87-.02,2.8-.07-1.54,4.63-3.51,8.99-5.87,13.07-1.55,.22-3.13,.34-4.74,.34s-3.31-.12-4.91-.36c.44-4.9,.37-9.77-.19-14.55,4.13,1.03,8.45,1.57,12.9,1.57Z"/><path class="cls-13" d="M301.13,240.58c-1.21,1.7-2.48,3.33-3.83,4.91-1.21,1.42-2.47,2.78-3.78,4.09-.5,.5-1.33,0-1.12-.68,.06-.2,.12-.4,.18-.6,.37-1.27,.7-2.55,.99-3.82,.06-.27,.12-.54,.18-.81,.27-1.23,.5-2.46,.7-3.69,.13,0,.26,0,.39,0,1.69,0,3.36,.13,4.98,.37,.44,.07,.88,.14,1.31,.23Z"/><path class="cls-15" d="M281.63,261.8c-.51,1.55-.92,3.14-1.22,4.77-.28,1.5-.47,3.03-.57,4.58-2.89-1.72-5.62-3.61-8.17-5.66-.89-.71-1.76-1.44-2.6-2.19-.58-.51-1.15-1.03-1.71-1.56-.04-.04-.07-.08-.1-.12-.32-.47,.08-1.15,.69-1.04,2.29,.43,4.59,.75,6.89,.95,1.27,.11,2.54,.19,3.81,.23,1,.03,1.99,.05,2.99,.04Z"/><path class="cls-4" d="M278.94,221.96c-2.06-.44-4.13-.81-6.2-1.14-3.71-.58-7.42-.96-11.12-1.17-1.61-.09-3.22-.15-4.83-.16-1.89-.02-3.77,0-5.64,.06-1.15-4.71-2.92-9.19-5.2-13.34,3.07-3.85,6.76-7.13,10.86-9.71,.7,.91,1.43,1.8,2.19,2.67,1.13,1.29,2.32,2.52,3.57,3.71,.19,.19,.38,.37,.58,.55l.29,.27c.11,.09,.2,.18,.31,.28,.04,.03,.08,.07,.12,.11,.04,.04,.08,.07,.12,.11,.22,.19,.44,.37,.66,.57,.07,.05,.12,.11,.19,.15,.11,.1,.24,.2,.35,.29,.12,.1,.24,.2,.36,.29,.15,.13,.31,.25,.46,.38,.05,.04,.11,.08,.15,.12,.11,.08,.21,.16,.31,.24,.09,.07,.18,.13,.26,.2,.23,.17,.46,.35,.69,.52,.11,.09,.24,.17,.35,.26,.05,.03,.1,.07,.15,.11,.11,.08,.23,.16,.34,.24,.02,.02,.05,.03,.07,.05,.07,.06,.15,.11,.22,.15,3.1,4.75,6.78,9.13,10.98,13.03,.5,.47,.07,1.29-.6,1.16Z"/><path class="cls-6" d="M251.16,219.54c-.63,.02-1.25,.06-1.88,.09-3.33,.17-6.63,.5-9.9,.95-.5,.07-.9-.4-.74-.87,.8-2.41,1.78-4.7,2.95-6.87,1.26-2.37,2.73-4.58,4.37-6.64,2.29,4.14,4.06,8.62,5.2,13.34Z"/><path class="cls-10" d="M249.28,219.63c-3.33,.17-6.63,.5-9.9,.95-.5,.07-.9-.4-.74-.87,.8-2.41,1.78-4.7,2.95-6.87,2.78,2.02,5.35,4.29,7.7,6.79Z"/><path class="cls-18" d="M248.85,260.43c-2,4.93-3.68,10.06-5.01,15.35-3.92,.5-7.72,1.43-11.34,2.7-.5-.82-1.03-1.64-1.55-2.45-1.7-2.63-3.52-5.2-5.43-7.68,2.87-1.78,5.93-3.29,9.13-4.53,3.19-1.23,6.53-2.17,9.98-2.79,1.39-.25,2.79-.46,4.22-.6Z"/><path class="cls-14" d="M264.76,232.98c-1.37,1.75-2.7,3.54-3.97,5.37-.28,.41-.55,.81-.82,1.21-2.77,.53-5.46,1.27-8.06,2.2,.07-.37,.12-.73,.18-1.1,0-.02,0-.03,0-.05l.05-.37c.03-.2,.06-.41,.09-.62l.05-.42c.02-.16,.04-.32,.06-.48,.57-.29,1.14-.59,1.71-.89,1.8-.96,3.57-1.96,5.33-3.01,1.51-.9,3.01-1.85,4.49-2.83,.64-.42,1.38,.37,.9,.98Z"/><path class="cls-13" d="M259.98,239.57c-2.61,3.86-4.99,7.9-7.13,12.11-.95-.68-1.93-1.32-2.93-1.94-1.27-.78-2.57-1.51-3.91-2.19,1.78-1.69,3.44-3.51,4.98-5.43,.15-.07,.31-.12,.46-.18,.15-.06,.32-.11,.47-.17,2.6-.93,5.29-1.67,8.06-2.2Z"/><path class="cls-8" d="M252.84,251.68c-1.44,2.84-2.78,5.76-3.99,8.75-1.43,.15-2.83,.35-4.22,.6-3.44,.63-6.78,1.56-9.98,2.79-3.2,1.24-6.25,2.75-9.13,4.53-.77-1.01-1.57-2.01-2.39-3-1.09-1.33-2.21-2.63-3.37-3.9,2.63-.56,5.19-1.31,7.65-2.23,6.98-2.61,13.29-6.61,18.57-11.67,1.34,.68,2.64,1.41,3.91,2.19,1,.62,1.98,1.26,2.93,1.94Z"/><path class="cls-9" d="M246,247.55c-5.28,5.06-11.6,9.05-18.57,11.67-2.47,.92-5.02,1.67-7.65,2.23-1.39-1.56-2.84-3.07-4.32-4.54,9.26-1.85,17.66-6.05,24.58-11.95,.91,.33,1.82,.69,2.71,1.07,1.11,.47,2.19,.98,3.26,1.51Z"/><path class="cls-10" d="M252.35,238.74c-.02,.16-.03,.32-.06,.48l-.05,.42c-.03,.21-.06,.42-.09,.62l-.05,.37s0,.03,0,.05c-.06,.37-.11,.73-.18,1.1-.15,.06-.32,.11-.47,.17-.15,.06-.31,.11-.46,.18-2.87,1.08-5.62,2.39-8.23,3.92-.9-.38-1.8-.74-2.71-1.07,.56-.47,1.11-.96,1.64-1.47h0c3.63-1.41,7.19-3,10.66-4.76Z"/><path class="cls-12" d="M241.68,243.5c-.54,.5-1.08,.99-1.64,1.47-6.92,5.9-15.33,10.1-24.58,11.95-1.72-1.71-3.49-3.36-5.33-4.97-.46-.39-.21-1.13,.38-1.18,9.77-.86,19.29-2.97,28.35-6.21,.95-.34,1.89-.69,2.83-1.06Z"/><path class="cls-7" d="M250.98,242.12c-1.54,1.92-3.2,3.74-4.98,5.43-1.07-.54-2.15-1.04-3.26-1.51,2.61-1.52,5.37-2.83,8.23-3.92Z"/><path class="cls-5" d="M268.57,207.77c-.07-.05-.15-.1-.22-.15-.02-.02-.04-.03-.07-.05-.11-.08-.23-.16-.34-.24-.05-.03-.1-.07-.15-.11-.11-.09-.24-.17-.35-.26-.23-.17-.46-.35-.69-.52-.08-.07-.17-.14-.26-.2-.1-.08-.2-.16-.31-.24-.05-.04-.11-.08-.15-.12-.15-.13-.31-.25-.46-.38-.12-.1-.24-.2-.36-.29-.11-.1-.24-.2-.35-.29-.07-.05-.12-.11-.19-.15-.22-.2-.44-.38-.66-.57-.04-.04-.08-.07-.12-.11-.04-.03-.08-.07-.12-.11-.11-.1-.2-.19-.31-.28l-.29-.27c-.2-.18-.39-.36-.58-.55-1.25-1.18-2.44-2.42-3.57-3.71-.76-.87-1.49-1.76-2.19-2.67,.59-.37,1.17-.72,1.77-1.06,.74-.42,1.5-.82,2.27-1.2,.05-.02,.1-.04,.15-.06,0,.02,.02,.04,.03,.06,0-.02,0-.03-.02-.06,.31-.07,.64,.11,.76,.42,.38,.99,.79,1.97,1.22,2.93,1.25,2.84,2.7,5.59,4.31,8.25,.41,.67,.82,1.34,1.26,2Z"/><path class="cls-5" d="M313.49,209.83c-.32,2.18-.75,4.37-1.29,6.55-.23,.93-.48,1.86-.75,2.79-.27,.92-.55,1.83-.85,2.73-.93,.05-1.86,.07-2.8,.07-4.45,0-8.77-.55-12.9-1.57h0c-.11-.98-.25-1.95-.41-2.92-.49-3.07-1.18-6.09-2.06-9.04,4.14,1.03,8.48,1.58,12.94,1.58,2.73,0,5.42-.21,8.05-.6,.06,.13,.09,.27,.07,.42Z"/><path class="cls-3" d="M313.42,209.42c-2.62,.4-5.31,.6-8.05,.6-4.46,0-8.8-.55-12.94-1.58-.52-1.75-1.11-3.48-1.76-5.18-.15-.4,.1-.85,.52-.91,3.66-.52,7.5-.29,11.28,.81,4.17,1.2,7.82,3.32,10.8,6.07,.06,.05,.11,.12,.14,.19Z"/><path class="cls-7" d="M314.62,254.77v.02c-.65,1.16-1.24,2.34-1.77,3.54-.79,1.79-1.45,3.61-1.99,5.46-3.69-2.06-7.77-3.52-12.1-4.23,3.95-1.02,7.81-2.38,11.54-4.06,1.15-.52,2.29-1.07,3.42-1.65,.6-.31,1.23,.34,.9,.93Z"/><path class="cls-19" d="M310.86,263.78c-.76,2.6-1.26,5.24-1.52,7.88-5.26-5.28-12.08-8.99-19.72-10.39,3.08-.38,6.13-.95,9.14-1.73,4.33,.71,8.41,2.17,12.1,4.23Z"/><path class="cls-16" d="M309.32,279.99c.04,.43-.31,.79-.74,.74-4.5-.47-8.99-1.39-13.4-2.76-4.56-1.41-9.04-3.3-13.38-5.7-.66-.37-1.32-.74-1.97-1.13,.1-1.56,.29-3.08,.57-4.58,.3-1.63,.72-3.22,1.22-4.77,2.68-.02,5.35-.2,8-.52,7.63,1.4,14.46,5.11,19.72,10.39-.27,2.78-.28,5.57-.02,8.33Z"/></g></g><g><circle class="cls-1" cx="294.27" cy="231.55" r="29.5"/><circle class="cls-1" cx="283.03" cy="236.65" r="47.87"/><circle class="cls-1" cx="357.09" cy="276.65" r="47.87"/><circle class="cls-1" cx="217.74" cy="228.99" r="77.48"/><circle class="cls-1" cx="280.44" cy="184.05" r="77.48"/><circle class="cls-1" cx="333.36" cy="165.25" r="77.48"/><circle class="cls-1" cx="198.4" cy="125.59" r="125.38"/><circle class="cls-1" cx="125.59" cy="344.21" r="125.38"/><circle class="cls-1" cx="365.33" cy="307.79" r="125.38"/><circle class="cls-1" cx="253.41" cy="344.98" r="125.38"/><circle class="cls-1" cx="237.4" cy="196.29" r="77.48"/><circle class="cls-1" cx="318.73" cy="203.97" r="77.48"/></g></g></g></svg>