<svg xmlns="http://www.w3.org/2000/svg" width="94.22" height="88.51" viewBox="0 0 94.22 88.51"><g fill="#fff" data-name="グループ 101"><path d="M26.5 23.75a104 104 0 0 1 10.6-.94q2.52-.09 5.07-.05 2.16.02 4.34.15a104 104 0 0 1 15.56 2.07.6.6 0 0 0 .54-1.03 63 63 0 0 1-9.87-11.72q-.59-.89-1.13-1.79a64 64 0 0 1-3.87-7.41q-.59-1.3-1.1-2.64a.6.6 0 0 0-.68-.38l.01.05-.03-.05-.13.05q-1.04.5-2.04 1.08-.8.45-1.59.95a39 39 0 0 0-9.76 8.73 38 38 0 0 0-3.93 5.97 39 39 0 0 0-2.65 6.18.6.6 0 0 0 .67.78" data-name="パス 21"/><path d="M48.52 34.02q-1.98 1.33-4.03 2.55-2.36 1.41-4.79 2.7l-1.53.8q-4.68 2.37-9.59 4.28-1.27.49-2.54.95A103 103 0 0 1 .56 50.88a.6.6 0 0 0-.35 1.06Q2.68 54.1 5 56.4a97 97 0 0 1 3.89 4.09q1.56 1.71 3.03 3.5 1.1 1.33 2.14 2.7 2.58 3.35 4.88 6.9l1.4 2.2q2 3.3 3.78 6.73 1.41 2.77 2.68 5.62a.6.6 0 0 0 1.15-.18q.3-3 .8-6 .45-2.77 1.06-5.54.33-1.54.71-3.06a104 104 0 0 1 4.5-13.8q1.64-4.03 3.6-7.86a101 101 0 0 1 6.4-10.89l.74-1.09q1.72-2.46 3.57-4.83a.6.6 0 0 0-.8-.88" data-name="パス 22"/><path d="M74.2 12.83a64 64 0 0 1 1.84 8.13q.21 1.3.37 2.63a63 63 0 0 1 .17 13.07q-.2 2.26-.57 4.53-.27 1.66-.64 3.32l-.16.72q-.4 1.72-.9 3.43l-.15.55a.6.6 0 0 0 1.01.6q1.77-1.76 3.4-3.68 1.81-2.11 3.44-4.4l.81-1.17q1.28-1.89 2.43-3.88a64 64 0 0 0 5.27-11.75q.4-1.21.77-2.45t.67-2.5q.72-2.95 1.16-5.9a.6.6 0 0 0-.2-.54 24.4 24.4 0 0 0-19.85-6.18.6.6 0 0 0-.47.82q.88 2.29 1.59 4.65" data-name="パス 23"/><path d="M93.33 53.64q-1.52.78-3.07 1.49a64 64 0 0 1-25.77 5.67q-1.34 0-2.69-.04-1.7-.06-3.42-.2-3.1-.28-6.19-.86a.6.6 0 0 0-.62.93l.09.1q.75.72 1.53 1.4 1.15 1.02 2.34 1.98a64 64 0 0 0 7.35 5.09q.87.51 1.77 1a64 64 0 0 0 12.02 5.13 63 63 0 0 0 12.05 2.48.6.6 0 0 0 .67-.67 39 39 0 0 1 3.17-19.47q.7-1.6 1.57-3.18l.01-.02a.6.6 0 0 0-.8-.84" data-name="パス 24"/></g></svg>