<?xml version="1.0" encoding="UTF-8"?><svg id="_イヤー_2" xmlns="http://www.w3.org/2000/svg" viewBox="0 0 414.08 389.12"><defs><style>.cls-1{fill:#fff;}</style></defs><g id="_イヤー_1-2"><g><path class="cls-1" d="M273.22,110.69c-.23,0-.46-.02-.69-.07-7.77-1.66-15.75-3.13-24.4-4.49-14.22-2.21-28.95-3.77-43.76-4.62-6.56-.36-12.95-.58-19.01-.64-7.62-.1-15.1-.02-22.22,.22-2.47,.1-4.93,.23-7.4,.35-12.67,.65-25.79,1.91-38.98,3.75-1.09,.16-2.17-.25-2.88-1.09-.71-.84-.92-1.96-.58-2.99,3.11-9.4,7.03-18.54,11.65-27.17,4.92-9.23,10.73-18.06,17.28-26.23,12.03-15.09,26.47-28.01,42.93-38.4,2.23-1.4,4.52-2.77,6.98-4.18,2.92-1.67,5.94-3.26,8.99-4.73,.21-.1,.42-.18,.64-.25l.48-.16,.03,.09c1.33-.09,2.65,.72,3.17,2.03,1.59,4.1,3.21,7.98,4.8,11.53,4.87,11.04,10.57,21.96,16.95,32.45,1.42,2.32,3.11,5.07,4.96,7.84,12.26,18.77,26.79,36.01,43.18,51.26,1.07,1.01,1.32,2.5,.64,3.79-.56,1.07-1.61,1.7-2.77,1.7Zm-94.27-10.86c2.13,0,4.28,.01,6.44,.04,6.07,.06,12.48,.28,19.05,.64,14.84,.85,29.6,2.41,43.85,4.63,8.66,1.36,16.66,2.84,24.45,4.5,1.19,.24,2.01-.41,2.37-1.11,.35-.67,.44-1.75-.44-2.59-16.45-15.3-31.03-32.6-43.33-51.43-1.86-2.79-3.56-5.54-4.98-7.88-6.4-10.53-12.12-21.49-17.01-32.57-1.6-3.56-3.22-7.46-4.82-11.57-.39-.98-1.42-1.57-2.42-1.36l-.05-.25-.03,.02,.08,.22c-.17,.06-.34,.11-.51,.2-3.03,1.47-6.03,3.05-8.93,4.7-2.45,1.41-4.72,2.77-6.95,4.16-16.36,10.32-30.72,23.17-42.68,38.17-6.51,8.12-12.29,16.9-17.18,26.08-4.59,8.58-8.49,17.66-11.58,27.01-.23,.7-.08,1.47,.4,2.04,.49,.58,1.22,.86,1.97,.75h0c13.22-1.84,26.36-3.11,39.07-3.76,2.47-.13,4.95-.26,7.42-.35,5.12-.18,10.42-.27,15.83-.27Z"/><path class="cls-1" d="M120.4,389.12c-1.24,0-2.35-.71-2.87-1.88-3.67-8.3-7.62-16.58-11.73-24.62-5.06-9.83-10.63-19.75-16.57-29.49-1.84-3-3.83-6.16-6.09-9.65-6.64-10.27-13.84-20.44-21.38-30.23-3.01-3.93-6.17-7.9-9.39-11.8-4.36-5.31-8.83-10.47-13.27-15.35-5.21-5.82-10.93-11.83-17.02-17.89-6.64-6.61-13.7-13.19-20.96-19.55-.98-.84-1.34-2.13-.95-3.36,.4-1.23,1.45-2.07,2.74-2.17,38.06-3.36,75.6-11.58,111.58-24.43,3.86-1.39,7.5-2.75,11.12-4.17l.12-.03c14.2-5.51,28.29-11.8,41.88-18.69l.19-.1c2.18-1.12,4.36-2.24,6.54-3.39,7.21-3.85,14.26-7.84,20.96-11.86,6.04-3.6,11.98-7.36,17.66-11.15,1.55-1.03,3.16-.5,4.06,.49,.9,.98,1.3,2.63,.14,4.08-5.55,7.11-10.81,14.23-15.61,21.16l-.94,1.38c-.77,1.13-1.54,2.25-2.29,3.39-10.22,15.09-19.67,31.13-28.08,47.67-5.75,11.34-11.04,22.93-15.71,34.43-7.92,19.5-14.55,39.83-19.72,60.42-.99,3.93-1.99,8.19-3.14,13.4-1.76,8.1-3.31,16.26-4.62,24.27-1.4,8.52-2.58,17.36-3.49,26.28-.16,1.47-1.2,2.57-2.65,2.79-.17,.03-.34,.04-.51,.04Zm5.48-193.61c-3.6,1.41-7.22,2.76-11.06,4.14-36.06,12.88-73.69,21.11-111.83,24.48-1.06,.09-1.66,.82-1.88,1.48-.21,.66-.15,1.6,.65,2.29,7.29,6.38,14.36,12.97,21.01,19.6,6.1,6.07,11.84,12.1,17.06,17.93,4.45,4.89,8.93,10.07,13.3,15.39,3.23,3.9,6.39,7.88,9.41,11.82,7.56,9.81,14.77,20,21.43,30.29,2.26,3.5,4.26,6.66,6.1,9.67,5.95,9.76,11.54,19.71,16.61,29.56,4.12,8.06,8.08,16.36,11.76,24.67,.49,1.12,1.55,1.37,2.31,1.26,.75-.12,1.68-.69,1.81-1.91,.92-8.94,2.09-17.81,3.5-26.34,1.31-8.02,2.86-16.2,4.63-24.32,1.16-5.22,2.16-9.49,3.15-13.43,5.18-20.64,11.82-41.01,19.76-60.56,4.68-11.53,9.98-23.14,15.74-34.5,8.43-16.58,17.9-32.65,28.14-47.77,.75-1.14,1.52-2.26,2.3-3.4l.95-1.39c4.82-6.95,10.08-14.08,15.65-21.21h0c.85-1.07,.48-2.17-.09-2.79-.62-.67-1.72-1.04-2.77-.34-5.69,3.81-11.65,7.57-17.7,11.18-6.71,4.03-13.78,8.03-21.01,11.89-2.18,1.15-4.37,2.28-6.55,3.4l-.2,.1c-13.64,6.92-27.79,13.23-42.06,18.76l-.12,.03Z"/><path class="cls-1" d="M328.24,220.28c-.55,0-1.12-.15-1.64-.47-1.27-.76-1.84-2.22-1.42-3.63,.24-.79,.47-1.58,.7-2.37,1.44-5,2.75-10.06,3.9-15.03,.25-1.06,.48-2.11,.71-3.17,1.04-4.78,1.98-9.67,2.77-14.53,1.08-6.58,1.92-13.25,2.52-19.81,1.72-19.01,1.47-38.26-.75-57.22-.45-3.84-.99-7.7-1.59-11.5-1.91-11.97-4.64-23.94-8.11-35.57h0c-2.03-6.81-4.36-13.66-6.94-20.36-.35-.92-.27-1.92,.23-2.77,.48-.82,1.29-1.37,2.23-1.5,14.98-2.12,30.01-1.04,44.66,3.19,16.12,4.66,30.52,12.75,42.78,24.03,.27,.25,.5,.55,.67,.88,.3,.59,.42,1.28,.32,1.94-1.28,8.64-3,17.34-5.1,25.86-.9,3.66-1.89,7.37-2.94,11.01-1.05,3.65-2.18,7.27-3.35,10.78-5.97,17.96-13.76,35.32-23.16,51.6-3.34,5.79-6.93,11.52-10.67,17.04-1.16,1.72-2.36,3.44-3.55,5.12-4.72,6.63-9.8,13.15-15.11,19.37-4.73,5.54-9.76,10.98-14.94,16.16-.62,.62-1.4,.94-2.2,.94Zm-1.97-163.58c3.48,11.67,6.22,23.68,8.14,35.7,.61,3.81,1.15,7.69,1.6,11.54,2.23,19.03,2.49,38.35,.75,57.43-.59,6.58-1.44,13.27-2.53,19.88-.8,4.88-1.73,9.78-2.78,14.58-.23,1.06-.47,2.12-.72,3.18-1.15,4.99-2.47,10.07-3.91,15.08-.23,.79-.46,1.59-.7,2.38-.36,1.19,.3,2.09,.97,2.49,.67,.4,1.75,.55,2.63-.32,5.16-5.16,10.17-10.57,14.88-16.1,5.29-6.19,10.36-12.69,15.06-19.3,1.19-1.67,2.38-3.38,3.54-5.1,3.73-5.5,7.31-11.21,10.64-16.97,9.37-16.23,17.13-33.53,23.08-51.42,1.17-3.5,2.29-7.11,3.34-10.74,1.05-3.63,2.03-7.32,2.93-10.97,2.09-8.49,3.8-17.16,5.08-25.77,.07-.45-.01-.93-.22-1.33-.12-.23-.28-.44-.46-.61-12.15-11.18-26.41-19.19-42.38-23.81-14.52-4.2-29.4-5.26-44.24-3.17-.63,.09-1.18,.46-1.51,1.01-.34,.58-.4,1.27-.15,1.9,2.58,6.72,4.92,13.59,6.96,20.43h0Z"/><path class="cls-1" d="M389.73,342.26c-.11,0-.22,0-.33-.02-17.9-1.89-35.71-5.55-52.92-10.88-18.22-5.64-35.99-13.21-52.82-22.51-2.63-1.46-5.25-2.95-7.76-4.45-11.26-6.69-22.11-14.21-32.26-22.35-3.51-2.81-6.97-5.72-10.28-8.66-2.23-1.97-4.5-4.04-6.75-6.17-.18-.17-.34-.35-.46-.54-.71-1.03-.71-2.4,0-3.48,.71-1.09,1.96-1.62,3.25-1.38,8.91,1.68,18.02,2.94,27.09,3.74,4.97,.44,10.01,.75,14.98,.91,3.95,.13,7.9,.18,11.76,.15,10.47-.09,21.06-.78,31.47-2.05,12.06-1.47,24.15-3.76,35.94-6.8,15.51-4,30.78-9.37,45.39-15.96,4.53-2.04,9.05-4.23,13.44-6.51,1.27-.66,2.73-.43,3.72,.59,1,1.03,1.19,2.51,.49,3.77l-.05,.09c-2.49,4.51-4.81,9.18-6.88,13.89-3.07,6.95-5.7,14.16-7.81,21.44-2.93,10.09-4.94,20.51-5.97,30.97-1.07,10.82-1.1,21.83-.08,32.72h0c.09,.96-.25,1.91-.94,2.58-.59,.58-1.38,.91-2.2,.91Zm-160.97-79.49c-.72,0-1.37,.35-1.78,.98-.48,.74-.49,1.67,0,2.37,.09,.13,.2,.26,.32,.38,2.24,2.12,4.5,4.18,6.73,6.15,3.3,2.92,6.75,5.83,10.24,8.63,10.11,8.11,20.93,15.6,32.15,22.27,2.51,1.49,5.11,2.98,7.74,4.43,16.77,9.26,34.48,16.81,52.63,22.43,17.15,5.31,34.89,8.96,52.73,10.84,.63,.07,1.26-.15,1.72-.61,.47-.47,.71-1.11,.65-1.78h0c-1.02-10.95-.99-22.02,.08-32.91,1.03-10.53,3.05-21.01,6-31.16,2.13-7.32,4.77-14.57,7.86-21.56,2.09-4.73,4.42-9.44,6.93-13.98l.05-.09c.58-1.05,.18-2.05-.34-2.58-.54-.55-1.49-.94-2.54-.4-4.41,2.28-8.95,4.48-13.49,6.53-14.66,6.62-29.99,12.01-45.55,16.02-11.83,3.05-23.96,5.35-36.07,6.82-10.44,1.28-21.07,1.97-31.58,2.06-3.87,.03-7.84-.02-11.8-.15-4.99-.17-10.05-.48-15.04-.92-9.1-.8-18.25-2.06-27.18-3.75-.15-.03-.3-.04-.44-.04Z"/></g></g></svg>