<svg xmlns="http://www.w3.org/2000/svg" viewBox="0 0 414.08 389.12"><path d="M273.22 110.69q-.34 0-.69-.07a451 451 0 0 0-68.16-9.11 477 477 0 0 0-41.23-.42q-3.7.16-7.4.35a451 451 0 0 0-38.98 3.75 3.16 3.16 0 0 1-3.46-4.08 173 173 0 0 1 28.93-53.4A172.5 172.5 0 0 1 201.13.4q.31-.15.64-.25l.48-.16.03.09a3.2 3.2 0 0 1 3.17 2.03 281 281 0 0 0 26.71 51.82 277 277 0 0 0 43.18 51.26 3.1 3.1 0 0 1 .64 3.79 3.1 3.1 0 0 1-2.77 1.7Zm-94.27-10.86a464 464 0 0 1 25.49.68c14.84.85 29.6 2.41 43.85 4.63a455 455 0 0 1 24.45 4.5 2.1 2.1 0 0 0 2.37-1.11c.35-.67.44-1.75-.44-2.59a278 278 0 0 1-48.31-59.31 283 283 0 0 1-21.83-44.14 2.2 2.2 0 0 0-2.42-1.36l-.05-.25-.03.02.08.22q-.25.08-.51.2a155 155 0 0 0-8.93 4.7 171.4 171.4 0 0 0-78.39 95.42 2.15 2.15 0 0 0 2.37 2.79 452 452 0 0 1 62.32-4.38ZM120.4 389.12a3.1 3.1 0 0 1-2.87-1.88 487 487 0 0 0-11.73-24.62 470 470 0 0 0-16.57-29.49 463 463 0 0 0-36.86-51.68A402 402 0 0 0 39.1 266.1a452 452 0 0 0-37.98-37.44 3.1 3.1 0 0 1-.95-3.36 3.1 3.1 0 0 1 2.74-2.17 450 450 0 0 0 111.58-24.43c3.86-1.39 7.5-2.75 11.12-4.17l.12-.03a465 465 0 0 0 41.88-18.69l.19-.1q3.27-1.67 6.54-3.39a484 484 0 0 0 20.96-11.86c6.04-3.6 11.98-7.36 17.66-11.15a3.06 3.06 0 0 1 4.06.49c.9.98 1.3 2.63.14 4.08a464 464 0 0 0-15.61 21.16l-.94 1.38q-1.16 1.69-2.29 3.39a445 445 0 0 0-43.79 82.1A457 457 0 0 0 127.05 360a435 435 0 0 0-3.49 26.28 3.1 3.1 0 0 1-3.16 2.83Zm5.48-193.61c-3.6 1.41-7.22 2.76-11.06 4.14A451 451 0 0 1 2.99 224.13a2.14 2.14 0 0 0-1.23 3.77 444 444 0 0 1 38.07 37.53 404 404 0 0 1 13.3 15.39 454 454 0 0 1 65.31 106.01 2.1 2.1 0 0 0 2.31 1.26 2.1 2.1 0 0 0 1.81-1.91 436 436 0 0 1 3.5-26.34 472 472 0 0 1 7.78-37.75 457 457 0 0 1 19.76-60.56 446 446 0 0 1 43.88-82.27q1.13-1.7 2.3-3.4l.95-1.39a466 466 0 0 1 15.65-21.21 2.06 2.06 0 0 0-.09-2.79 2.1 2.1 0 0 0-2.77-.34 404 404 0 0 1-17.7 11.18 481 481 0 0 1-21.01 11.89l-6.55 3.4-.2.1A464 464 0 0 1 126 195.46l-.12.03Zm202.36 24.77q-.84 0-1.64-.47a3.14 3.14 0 0 1-1.42-3.63l.7-2.37a294 294 0 0 0 4.61-18.2 280 280 0 0 0 5.29-34.34 278 278 0 0 0-10.45-104.29 278 278 0 0 0-6.94-20.36 3.2 3.2 0 0 1 .23-2.77 3 3 0 0 1 2.23-1.5 106 106 0 0 1 44.66 3.19 106 106 0 0 1 42.78 24.03 3.2 3.2 0 0 1 .99 2.82 280 280 0 0 1-8.04 36.87 280 280 0 0 1-40.73 84.54 281 281 0 0 1-30.05 35.53 3 3 0 0 1-2.2.94ZM326.27 56.7a280 280 0 0 1 9.74 47.24 278 278 0 0 1-5.28 95.07 294 294 0 0 1-3.91 15.08l-.7 2.38c-.36 1.19.3 2.09.97 2.49s1.75.55 2.63-.32a276 276 0 0 0 33.48-40.5 279 279 0 0 0 39.99-90.1c2.09-8.49 3.8-17.16 5.08-25.77a2.2 2.2 0 0 0-.68-1.94 105 105 0 0 0-42.38-23.81 105 105 0 0 0-44.24-3.17 2.1 2.1 0 0 0-1.51 1.01c-.34.58-.4 1.27-.15 1.9a283 283 0 0 1 6.96 20.43Zm63.46 285.56q-.17 0-.33-.02a278 278 0 0 1-52.92-10.88 282 282 0 0 1-92.84-49.31 264 264 0 0 1-17.03-14.83 3.1 3.1 0 0 1-.46-4.02 3.1 3.1 0 0 1 3.25-1.38 279 279 0 0 0 53.83 4.8 281 281 0 0 0 67.41-8.85 282 282 0 0 0 58.83-22.47 3.1 3.1 0 0 1 3.72.59c1 1.03 1.19 2.51.49 3.77l-.05.09a172 172 0 0 0-20.66 66.3 171 171 0 0 0-.08 32.72 3.2 3.2 0 0 1-3.14 3.49Zm-160.97-79.49a2.1 2.1 0 0 0-1.78.98 2.1 2.1 0 0 0 .32 2.75q3.37 3.19 6.73 6.15a279 279 0 0 0 50.13 35.33 281 281 0 0 0 52.63 22.43 277 277 0 0 0 52.73 10.84 2.1 2.1 0 0 0 1.72-.61c.47-.47.71-1.11.65-1.78a172 172 0 0 1 20.87-99.61l.05-.09a2.15 2.15 0 0 0-.34-2.58 2.1 2.1 0 0 0-2.54-.4 282 282 0 0 1-95.11 29.37 280 280 0 0 1-58.42.99c-9.1-.8-18.25-2.06-27.18-3.75q-.23-.04-.44-.04Z" style="fill:#fff"/></svg>