<svg xmlns="http://www.w3.org/2000/svg" id="_イヤー_2" viewBox="0 0 490.91 470.57"><defs><style>.cls-1{fill:none;stroke:#ccc;stroke-miterlimit:10;stroke-width:.42px}.cls-4{fill:#e96293}.cls-7{fill:#9d4a97}.cls-10{fill:#c35098}.cls-13{fill:#a55b9f}</style></defs><g id="_イヤー_1-2"><path d="M241.87 285.34q-.55 3.33-.89 6.68c-.07.69-1.01.83-1.29.2a124 124 0 0 0-2.98-6.25q2.54-.44 5.15-.63Z" style="fill:#6892cc"/><path d="M243.84 275.78q-.42 1.7-.8 3.4-.68 3.09-1.17 6.16a49 49 0 0 0-5.15.63 117 117 0 0 0-4.21-7.49 55 55 0 0 1 11.34-2.7Z" style="fill:#5362ab"/><path d="M304.73 234.97a65 65 0 0 1-3.6 5.61q-.65-.13-1.31-.23a33 33 0 0 0-4.98-.37h-.39q.42-2.52.64-5.04a33 33 0 0 0 9.65.02Z" style="fill:#d04a91"/><path d="M307.8 221.97q1.4 0 2.8-.07a71 71 0 0 1-5.87 13.07 34 34 0 0 1-9.65-.02q.66-7.37-.19-14.55a53 53 0 0 0 12.9 1.57Z" class="cls-4"/><path d="M301.13 240.58a70 70 0 0 1-7.61 9c-.5.5-1.33 0-1.12-.68l.18-.6q.56-1.91.99-3.82l.18-.81q.4-1.85.7-3.69h.39q2.54 0 4.98.37.66.1 1.31.23" class="cls-13"/><path d="M281.63 261.8a36 36 0 0 0-1.79 9.35 71 71 0 0 1-12.48-9.41l-.1-.12a.68.68 0 0 1 .69-1.04 70 70 0 0 0 13.69 1.22Z" style="fill:#5955a2"/><path d="M278.94 221.96q-3.1-.65-6.2-1.14a114 114 0 0 0-21.59-1.27 55 55 0 0 0-5.2-13.34 44 44 0 0 1 10.86-9.71 55 55 0 0 0 6.34 6.93l.29.27.31.28.12.11.12.11.66.57.19.15.35.29.36.29.46.38.15.12.31.24.26.2.69.52.35.26.15.11.34.24.07.05q.11.09.22.15a70 70 0 0 0 10.98 13.03c.5.47.07 1.29-.6 1.16Z" class="cls-4"/><path d="m251.16 219.54-1.88.09q-5 .26-9.9.95c-.5.07-.9-.4-.74-.87q1.2-3.61 2.95-6.87a43 43 0 0 1 4.37-6.64 54 54 0 0 1 5.2 13.34" style="fill:#e53c8e"/><path d="M249.28 219.63q-5 .26-9.9.95c-.5.07-.9-.4-.74-.87q1.2-3.61 2.95-6.87a55 55 0 0 1 7.7 6.79Z" class="cls-10"/><path d="M248.85 260.43q-3 7.4-5.01 15.35c-3.92.5-7.72 1.43-11.34 2.7q-.76-1.23-1.55-2.45-2.56-3.95-5.43-7.68a55 55 0 0 1 23.33-7.92" style="fill:#7163a9"/><path d="M264.76 232.98a116 116 0 0 0-3.97 5.37l-.82 1.21a54 54 0 0 0-8.06 2.2l.18-1.1v-.05l.05-.37.09-.62.05-.42.06-.48 1.71-.89a127 127 0 0 0 9.82-5.84c.64-.42 1.38.37.9.98Z" style="fill:#d36ca5"/><path d="M259.98 239.57a113 113 0 0 0-7.13 12.11 53 53 0 0 0-6.84-4.13 55 55 0 0 0 4.98-5.43l.46-.18.47-.17a54 54 0 0 1 8.06-2.2" class="cls-13"/><path d="M252.84 251.68a114 114 0 0 0-3.99 8.75 56 56 0 0 0-14.2 3.39 55 55 0 0 0-9.13 4.53 95 95 0 0 0-2.39-3 96 96 0 0 0-3.37-3.9 54.4 54.4 0 0 0 26.22-13.9 55 55 0 0 1 6.84 4.13Z" style="fill:#936bab"/><path d="M246 247.55a54.6 54.6 0 0 1-26.22 13.9 103 103 0 0 0-4.32-4.54 54 54 0 0 0 24.58-11.95 53 53 0 0 1 5.97 2.58Z" style="fill:#8d5aa1"/><path d="m252.35 238.74-.06.48-.05.42-.09.62-.05.37v.05l-.18 1.1-.47.17-.46.18a54 54 0 0 0-8.23 3.92q-1.35-.57-2.71-1.07.84-.7 1.64-1.47 5.45-2.12 10.66-4.76Z" class="cls-10"/><path d="M241.68 243.5q-.8.75-1.64 1.47a54 54 0 0 1-24.58 11.95 114 114 0 0 0-5.33-4.97.67.67 0 0 1 .38-1.18 114 114 0 0 0 31.18-7.27Z" style="fill:#a75a9f"/><path d="M250.98 242.12a55 55 0 0 1-4.98 5.43 54 54 0 0 0-3.26-1.51 56 56 0 0 1 8.23-3.92Z" class="cls-7"/><path d="m268.57 207.77-.22-.15-.07-.05-.34-.24-.15-.11-.35-.26-.69-.52-.26-.2-.31-.24-.15-.12-.46-.38-.36-.29-.35-.29-.19-.15-.66-.57-.12-.11-.12-.11-.31-.28-.29-.27-.58-.55a54 54 0 0 1-5.76-6.38 46 46 0 0 1 4.04-2.26l.15-.06.03.06-.02-.06c.31-.07.64.11.76.42q.57 1.49 1.22 2.93a72 72 0 0 0 5.57 10.25Zm44.92 2.06a69 69 0 0 1-2.89 12.07q-1.4.07-2.8.07-6.69-.02-12.9-1.57-.17-1.47-.41-2.92a71 71 0 0 0-2.06-9.04 54 54 0 0 0 20.99.98q.1.2.07.42Z" style="fill:#ea6266"/><path d="M313.42 209.42q-3.94.6-8.05.6c-4.46 0-8.8-.55-12.94-1.58a72 72 0 0 0-1.76-5.18c-.15-.4.1-.85.52-.91 3.66-.52 7.5-.29 11.28.81a27 27 0 0 1 10.8 6.07q.1.08.14.19Z" style="fill:#f08d64"/><path d="M314.62 254.77v.02a42 42 0 0 0-3.76 9 37 37 0 0 0-12.1-4.23 72 72 0 0 0 14.96-5.71.67.67 0 0 1 .9.93Z" class="cls-7"/><path d="M310.86 263.78a43 43 0 0 0-1.52 7.88 37.3 37.3 0 0 0-19.72-10.39q4.62-.56 9.14-1.73c4.33.71 8.41 2.17 12.1 4.23Z" style="fill:#834e9b"/><path d="M309.32 279.99a.67.67 0 0 1-.74.74 71 71 0 0 1-28.75-9.59 38 38 0 0 1 1.79-9.35q4.02-.03 8-.52a37.4 37.4 0 0 1 19.72 10.39 44 44 0 0 0-.02 8.33" style="fill:#644a9a"/><circle cx="294.27" cy="231.55" r="29.5" class="cls-1"/><circle cx="283.03" cy="236.65" r="47.87" class="cls-1"/><circle cx="357.09" cy="276.65" r="47.87" class="cls-1"/><circle cx="217.74" cy="228.99" r="77.48" class="cls-1"/><circle cx="280.44" cy="184.05" r="77.48" class="cls-1"/><circle cx="333.36" cy="165.25" r="77.48" class="cls-1"/><circle cx="198.4" cy="125.59" r="125.38" class="cls-1"/><circle cx="125.59" cy="344.21" r="125.38" class="cls-1"/><circle cx="365.33" cy="307.79" r="125.38" class="cls-1"/><circle cx="253.41" cy="344.98" r="125.38" class="cls-1"/><circle cx="237.4" cy="196.29" r="77.48" class="cls-1"/><circle cx="318.73" cy="203.97" r="77.48" class="cls-1"/></g></svg>