<svg xmlns="http://www.w3.org/2000/svg" width="94.22" height="88.507" viewBox="0 0 94.22 88.507">
  <g id="グループ_101" data-name="グループ 101" transform="translate(-60.509 -335.152)">
    <path id="パス_21" data-name="パス 21" d="M87.014,358.9c2.942-.41,5.907-.7,8.9-.856.563-.03,1.127-.059,1.69-.081q2.526-.087,5.073-.051c1.442.014,2.891.066,4.34.146,3.323.191,6.654.535,9.992,1.054,1.859.293,3.718.63,5.57,1.025a.608.608,0,0,0,.541-1.039,63.212,63.212,0,0,1-9.866-11.712c-.4-.593-.769-1.193-1.135-1.793a64.2,64.2,0,0,1-3.872-7.415c-.388-.863-.754-1.749-1.1-2.635a.609.609,0,0,0-.681-.38c.008.022.008.036.015.051a.329.329,0,0,1-.029-.051.9.9,0,0,0-.132.051q-1.042.506-2.042,1.076c-.534.307-1.061.622-1.588.951a39.317,39.317,0,0,0-9.765,8.733A38.337,38.337,0,0,0,89,351.94a38.969,38.969,0,0,0-2.65,6.178.6.6,0,0,0,.666.783" fill="#fff"/>
    <path id="パス_22" data-name="パス 22" d="M109.031,369.17q-1.987,1.329-4.033,2.547-2.361,1.416-4.787,2.708c-.512.271-1.025.535-1.537.8Q94,377.594,89.092,379.5h-.007c-.842.329-1.683.644-2.54.951a102.631,102.631,0,0,1-25.479,5.578.6.6,0,0,0-.344,1.061q2.47,2.163,4.787,4.465c1.332,1.325,2.635,2.687,3.886,4.085q1.56,1.713,3.031,3.506c.732.885,1.449,1.786,2.144,2.693q2.58,3.35,4.883,6.9c.468.724.936,1.464,1.39,2.2q2.01,3.294,3.784,6.734,1.417,2.768,2.679,5.621a.606.606,0,0,0,1.157-.183c.205-2,.468-4,.8-6q.45-2.766,1.054-5.541c.227-1.024.461-2.042.717-3.059a103.645,103.645,0,0,1,4.5-13.8q1.635-4.031,3.586-7.862a101.374,101.374,0,0,1,6.412-10.884c.242-.366.491-.725.739-1.091,1.142-1.647,2.336-3.257,3.565-4.831a.6.6,0,0,0-.805-.878" fill="#fff"/>
    <path id="パス_23" data-name="パス 23" d="M134.7,347.983a63.518,63.518,0,0,1,1.854,8.128q.21,1.308.364,2.626h0a63.113,63.113,0,0,1,.172,13.075q-.2,2.259-.574,4.526-.271,1.659-.633,3.32c-.054.241-.107.482-.164.724q-.395,1.719-.891,3.434-.078.271-.159.542a.609.609,0,0,0,1.011.607q1.769-1.767,3.4-3.679,1.811-2.118,3.44-4.409.413-.576.809-1.165,1.281-1.886,2.431-3.878a63.589,63.589,0,0,0,5.273-11.749q.405-1.215.763-2.455t.67-2.506q.725-2.943,1.16-5.889a.615.615,0,0,0-.19-.543,24.4,24.4,0,0,0-19.852-6.181.6.6,0,0,0-.47.819q.88,2.292,1.585,4.652" fill="#fff"/>
    <path id="パス_24" data-name="パス 24" d="M153.84,388.79q-1.517.786-3.072,1.487A63.954,63.954,0,0,1,125,395.948q-1.343.012-2.687-.033-1.711-.059-3.424-.209-3.1-.273-6.189-.855a.609.609,0,0,0-.624.932.619.619,0,0,0,.089.105q.756.714,1.537,1.4,1.142,1.013,2.341,1.972a63.815,63.815,0,0,0,7.345,5.088q.873.519,1.767,1.013a64.051,64.051,0,0,0,12.026,5.126,63.18,63.18,0,0,0,12.048,2.477.61.61,0,0,0,.666-.668,39.111,39.111,0,0,1,3.172-19.473q.71-1.609,1.575-3.18l.011-.019a.606.606,0,0,0-.808-.838" fill="#fff"/>
  </g>
</svg>
