<svg xmlns="http://www.w3.org/2000/svg" viewBox="0 0 1463 1340.34"><defs><clipPath id="a"><path d="M0 61.46h1463v1080H0z" style="fill:none"/></clipPath></defs><g style="clip-path:url(#a)"><path d="M-648.65 61.46h2736.89v1080H-648.65z" style="fill:#ff9169"/><path d="m1553.95 61.46 8.52 20.04c8.89 19.92 25.92 60-22.22 99.96s-161.46 80.04-196.27 120c-34.44 39.96 10 80.04 40.36 120 30 39.96 46.29 80.04 30.74 120s-62.21 80.04-75.17 120 7.78 80.04 19.63 120 14.07 80.04-8.15 120-68.88 80.04-27.03 120 172.94 80.04 238.12 99.96l65.55 20.04H-648.65v-1080z" style="fill:#fa7268"/><path d="m1313.24 61.46-.74 20.04c-.37 19.92-1.85 60 24.07 99.96s79.25 80.04 111.84 120 45.18 80.04 6.3 120-129.24 80.04-165.53 120-19.26 80.04 24.81 120c43.7 39.96 114.06 80.04 118.87 120 5.18 39.96-55.55 80.04-88.88 120s-39.25 80.04-71.47 120-89.99 80.04-119.24 99.96l-28.88 20.04H-648.65v-1080z" style="fill:#f7626c"/><path d="m1139.19 61.46 27.77 20.04c27.77 19.92 83.32 60 89.99 99.96 7.04 39.96-35.18 80.04-25.92 120s69.99 80.04 71.1 120-56.66 80.04-114.06 120-114.43 80.04-98.88 120 102.95 80.04 124.8 120c21.48 39.96-22.96 80.04-58.88 120-35.55 39.96-62.95 80.04-81.47 120s-28.14 80.04-33.33 99.96l-4.81 20.04H-648.65v-1080z" style="fill:#f35172"/><path d="m1020.69 61.46-18.52 20.04c-18.52 19.92-55.55 60-64.81 99.96s9.26 80.04 62.95 120 142.57 80.04 171.09 120c28.14 39.96-3.7 80.04-42.22 120-38.14 39.96-82.58 80.04-122.21 120-39.25 39.96-74.06 80.04-54.81 120 19.26 39.96 91.84 80.04 130.35 120 38.14 39.96 41.85 80.04 42.59 120 .37 39.96-1.85 80.04-3.33 99.96l-1.11 20.04H-648.65v-1080z" style="fill:#ed4179"/><path d="m809.6 61.46 45.55 20.04c45.92 19.92 137.02 60 164.42 99.96 27.03 39.96-10 80.04-43.33 120s-62.95 80.04-71.47 120c-8.89 39.96 3.7 80.04 1.85 120s-18.15 80.04-27.4 120-11.48 80.04-24.44 120-36.66 80.04-37.77 120 19.63 80.04 44.44 120 52.96 80.04 67.4 99.96l14.07 20.04H-648.65v-1080z" style="fill:#e52f81"/><path d="m805.9 61.46 3.7 20.04c3.7 19.92 11.11 60 28.88 99.96 18.15 39.96 46.29 80.04 45.18 120s-32.22 80.04-65.92 120c-34.07 39.96-71.1 80.04-94.06 120-22.59 39.96-31.48 80.04-22.59 120 8.52 39.96 34.44 80.04 44.81 120 10.74 39.96 5.55 80.04 27.4 120 21.48 39.96 69.62 80.04 81.47 120 11.48 39.96-12.96 80.04-25.55 99.96L817 1141.46H-648.65v-1080z" style="fill:#da1e8b"/><path d="m646.66 61.46 22.22 20.04c22.22 19.92 66.66 60 95.54 99.96 29.26 39.96 42.59 80.04 35.18 120s-35.55 80.04-62.21 120-51.1 80.04-75.17 120-47.77 80.04-32.22 120 69.62 80.04 67.77 120-59.62 80.04-54.07 120 74.43 80.04 101.1 120 10.37 80.04 2.59 99.96l-8.15 20.04H-648.65v-1080z" style="fill:#cc0d95"/><path d="m491.13 61.46 14.81 20.04c14.81 19.92 44.44 60 55.55 99.96s3.7 80.04 11.11 120 29.63 80.04 41.48 120c11.48 39.96 12.96 80.04-3.33 120-15.92 39.96-49.25 80.04-62.21 120s-5.55 80.04 22.96 120c28.14 39.96 77.77 80.04 96.28 120s5.93 80.04-16.29 120-54.07 80.04-70.36 99.96l-15.92 20.04H-648.65v-1080z" style="fill:#ba03a0"/><path d="m442.99 61.46 16.66 20.04c16.66 19.92 49.99 60 62.95 99.96s5.55 80.04-18.52 120-64.81 80.04-80.73 120c-16.29 39.96-7.41 80.04 16.66 120s63.32 80.04 81.84 120 16.29 80.04 7.41 120c-8.52 39.96-23.33 80.04-33.33 120-9.63 39.96-14.81 80.04-14.07 120s6.67 80.04 10 99.96l2.96 20.04H-648.65v-1080z" style="fill:#a50bab"/><path d="m391.14 61.46-7.41 20.04c-7.41 19.92-22.22 60-38.88 99.96s-35.18 80.04-26.66 120c8.89 39.96 44.44 80.04 64.81 120s25.55 80.04 4.44 120-67.77 80.04-67.4 120c.74 39.96 48.88 80.04 64.44 120 15.18 39.96-1.85 80.04-11.11 120s-10.74 80.04-17.41 120-19.26 80.04-25.18 99.96l-6.3 20.04h-973.13v-1080z" style="fill:#8919b5"/><path d="m257.83 61.46-6.67 20.04c-7.04 19.92-20.37 60-24.07 99.96s2.22 80.04 11.48 120 21.85 80.04 10.74 120-45.92 80.04-46.29 120c-.74 39.96 32.59 80.04 49.25 120s16.66 80.04 17.41 120c.37 39.96 1.85 80.04 4.81 120s8.15 80.04 2.59 120c-5.55 39.96-21.85 80.04-29.63 99.96l-8.15 20.04h-887.95v-1080z" style="fill:#6524bf"/><path d="m120.81 61.46 2.96 20.04c3.33 19.92 9.26 60 10 99.96s-4.44 80.04-6.3 120-.37 80.04-3.7 120c-2.96 39.96-10.37 80.04-8.52 120s12.96 80.04 10 120c-3.33 39.96-20.37 80.04-17.41 120s26.66 80.04 24.07 120-30.74 80.04-43.7 120-10.74 80.04-9.26 99.96l1.11 20.04h-728.71v-1080z" style="fill:#3f31a8"/></g><path d="M424.84 360.1c44.5-6.2 89.33-10.63 134.61-12.95 8.52-.44 17.05-.89 25.57-1.22 25.46-.88 51.03-1.11 76.72-.78 21.81.22 43.72 1 65.64 2.22a1562 1562 0 0 1 151.1 15.94c28.11 4.43 56.23 9.52 84.24 15.5 9.19 1.88 14.95-9.3 8.19-15.72a956 956 0 0 1-149.22-177.12 797 797 0 0 1-17.16-27.12 972 972 0 0 1-58.56-112.14 844 844 0 0 1-16.6-39.85c-1.66-4.21-6.09-6.64-10.29-5.76.11.33.11.55.22.78-.11-.22-.33-.44-.44-.78-.66.22-1.33.44-1.99.78a515 515 0 0 0-30.89 16.27 770 770 0 0 0-24.02 14.39A594 594 0 0 0 514.29 164.6a580 580 0 0 0-59.44 90.22 590 590 0 0 0-40.07 93.43 9.14 9.14 0 0 0 10.08 11.84Zm345.15 168.59c6.53-8.19-3.54-19.04-12.18-13.28a1418 1418 0 0 1-60.99 38.52 1658 1658 0 0 1-72.4 40.96c-7.75 4.1-15.5 8.08-23.24 12.07a1600 1600 0 0 1-144.9 64.65h-.11A1452 1452 0 0 1 417.76 686a1552 1552 0 0 1-385.34 84.35c-8.08.66-11.4 10.74-5.2 16.05a1549 1549 0 0 1 72.4 67.53 1464 1464 0 0 1 58.78 61.77c15.72 17.27 31 34.98 45.83 53.02a1408 1408 0 0 1 32.44 40.74 1555 1555 0 0 1 73.83 104.39 1705 1705 0 0 1 21.03 33.32 1606 1606 0 0 1 57.23 101.84 1663 1663 0 0 1 40.52 85.01c3.76 8.52 16.49 6.64 17.49-2.77 3.1-30.22 7.08-60.55 12.06-90.77 4.54-27.9 9.85-55.79 15.94-83.8a1570 1570 0 0 1 78.93-254.93 1560 1560 0 0 1 54.24-118.89 1533 1533 0 0 1 96.97-164.61c3.65-5.53 7.42-10.96 11.18-16.49A1590 1590 0 0 1 770 528.7Zm376.08-333.7a961 961 0 0 1 33.55 162.65 955 955 0 0 1 2.6 197.74 957 957 0 0 1-8.69 68.45 974 974 0 0 1-12.04 61.16 972 972 0 0 1-13.48 51.94q-1.19 4.1-2.41 8.19c-2.73 9.12 8.56 15.91 15.29 9.18a951 951 0 0 0 51.43-55.63 953 953 0 0 0 101.01-142.96 961 961 0 0 0 79.75-177.69 953 953 0 0 0 11.54-37.13 992 992 0 0 0 10.13-37.9 965 965 0 0 0 17.55-89.05 9.4 9.4 0 0 0-2.89-8.21 366.4 366.4 0 0 0-146.88-82.51 366 366 0 0 0-153.34-10.97c-5.81.82-9.21 6.91-7.11 12.39a964 964 0 0 1 23.97 70.35Zm229.66 972.69a594 594 0 0 1 .29-113.19 591 591 0 0 1 47.68-181.31 600 600 0 0 1 23.83-48.09l.16-.29c4.45-8.04-4.07-16.9-12.22-12.67a968 968 0 0 1-203.31 77.65 967 967 0 0 1-273.57 30.09 957 957 0 0 1-145.38-16.09c-8.3-1.57-13.83 7.7-9.44 14.1a10 10 0 0 0 1.36 1.59 939 939 0 0 0 23.24 21.24 965 965 0 0 0 173.21 122.08 968 968 0 0 0 181.88 77.52 954 954 0 0 0 182.2 37.46 9.2 9.2 0 0 0 10.07-10.1Z" style="fill:none;stroke:#fff;stroke-miterlimit:10;stroke-width:1.75px"/></svg>