<?xml version="1.0" encoding="UTF-8"?><svg id="_イヤー_2" xmlns="http://www.w3.org/2000/svg" xmlns:xlink="http://www.w3.org/1999/xlink" viewBox="0 0 1463 1340.34"><defs><style>.cls-1,.cls-2{fill:none;}.cls-3{clip-path:url(#clippath);}.cls-4{fill:#fa7268;}.cls-5{fill:#f35172;}.cls-6{fill:#f7626c;}.cls-7{fill:#ed4179;}.cls-8{fill:#e52f81;}.cls-9{fill:#ff9169;}.cls-10{fill:#ba03a0;}.cls-11{fill:#cc0d95;}.cls-12{fill:#da1e8b;}.cls-13{fill:#3f31a8;}.cls-14{fill:#a50bab;}.cls-15{fill:#8919b5;}.cls-16{fill:#6524bf;}.cls-2{stroke:#fff;stroke-miterlimit:10;stroke-width:1.75px;}</style><clipPath id="clippath"><rect class="cls-1" y="61.46" width="1463" height="1080"/></clipPath></defs><g id="_イヤー_1-2"><g><g class="cls-3"><g><rect class="cls-9" x="-648.65" y="61.46" width="2736.89" height="1080"/><path class="cls-4" d="M1553.95,61.46l8.52,20.04c8.89,19.92,25.92,60-22.22,99.96-48.14,39.96-161.46,80.04-196.27,120-34.44,39.96,10,80.04,40.36,120,30,39.96,46.29,80.04,30.74,120-15.55,39.96-62.21,80.04-75.17,120-12.96,39.96,7.78,80.04,19.63,120,11.85,39.96,14.07,80.04-8.15,120-22.22,39.96-68.88,80.04-27.03,120,41.85,39.96,172.94,80.04,238.12,99.96l65.55,20.04H-648.65V61.46H1553.95Z"/><path class="cls-6" d="M1313.24,61.46l-.74,20.04c-.37,19.92-1.85,60,24.07,99.96,25.92,39.96,79.25,80.04,111.84,120,32.59,39.96,45.18,80.04,6.3,120-38.88,39.96-129.24,80.04-165.53,120-36.29,39.96-19.26,80.04,24.81,120,43.7,39.96,114.06,80.04,118.87,120,5.18,39.96-55.55,80.04-88.88,120-33.33,39.96-39.25,80.04-71.47,120-32.22,39.96-89.99,80.04-119.24,99.96l-28.88,20.04H-648.65V61.46H1313.24Z"/><path class="cls-5" d="M1139.19,61.46l27.77,20.04c27.77,19.92,83.32,60,89.99,99.96,7.04,39.96-35.18,80.04-25.92,120,9.26,39.96,69.99,80.04,71.1,120,1.11,39.96-56.66,80.04-114.06,120-57.4,39.96-114.43,80.04-98.88,120,15.55,39.96,102.95,80.04,124.8,120,21.48,39.96-22.96,80.04-58.88,120-35.55,39.96-62.95,80.04-81.47,120-18.52,39.96-28.14,80.04-33.33,99.96l-4.81,20.04H-648.65V61.46H1139.19Z"/><path class="cls-7" d="M1020.69,61.46l-18.52,20.04c-18.52,19.92-55.55,60-64.81,99.96-9.26,39.96,9.26,80.04,62.95,120,53.7,39.96,142.57,80.04,171.09,120,28.14,39.96-3.7,80.04-42.22,120-38.14,39.96-82.58,80.04-122.21,120-39.25,39.96-74.06,80.04-54.81,120,19.26,39.96,91.84,80.04,130.35,120,38.14,39.96,41.85,80.04,42.59,120,.37,39.96-1.85,80.04-3.33,99.96l-1.11,20.04H-648.65V61.46H1020.69Z"/><path class="cls-8" d="M809.6,61.46l45.55,20.04c45.92,19.92,137.02,60,164.42,99.96,27.03,39.96-10,80.04-43.33,120-33.33,39.96-62.95,80.04-71.47,120-8.89,39.96,3.7,80.04,1.85,120-1.85,39.96-18.15,80.04-27.4,120-9.26,39.96-11.48,80.04-24.44,120-12.96,39.96-36.66,80.04-37.77,120-1.11,39.96,19.63,80.04,44.44,120,24.81,39.96,52.96,80.04,67.4,99.96l14.07,20.04H-648.65V61.46H809.6Z"/><path class="cls-12" d="M805.9,61.46l3.7,20.04c3.7,19.92,11.11,60,28.88,99.96,18.15,39.96,46.29,80.04,45.18,120-1.11,39.96-32.22,80.04-65.92,120-34.07,39.96-71.1,80.04-94.06,120-22.59,39.96-31.48,80.04-22.59,120,8.52,39.96,34.44,80.04,44.81,120,10.74,39.96,5.55,80.04,27.4,120,21.48,39.96,69.62,80.04,81.47,120,11.48,39.96-12.96,80.04-25.55,99.96l-12.22,20.04H-648.65V61.46H805.9Z"/><path class="cls-11" d="M646.66,61.46l22.22,20.04c22.22,19.92,66.66,60,95.54,99.96,29.26,39.96,42.59,80.04,35.18,120-7.41,39.96-35.55,80.04-62.21,120-26.66,39.96-51.1,80.04-75.17,120-24.07,39.96-47.77,80.04-32.22,120,15.55,39.96,69.62,80.04,67.77,120-1.85,39.96-59.62,80.04-54.07,120,5.55,39.96,74.43,80.04,101.1,120,26.66,39.96,10.37,80.04,2.59,99.96l-8.15,20.04H-648.65V61.46H646.66Z"/><path class="cls-10" d="M491.13,61.46l14.81,20.04c14.81,19.92,44.44,60,55.55,99.96,11.11,39.96,3.7,80.04,11.11,120,7.41,39.96,29.63,80.04,41.48,120,11.48,39.96,12.96,80.04-3.33,120-15.92,39.96-49.25,80.04-62.21,120-12.96,39.96-5.55,80.04,22.96,120,28.14,39.96,77.77,80.04,96.28,120,18.52,39.96,5.93,80.04-16.29,120s-54.07,80.04-70.36,99.96l-15.92,20.04H-648.65V61.46H491.13Z"/><path class="cls-14" d="M442.99,61.46l16.66,20.04c16.66,19.92,49.99,60,62.95,99.96,12.96,39.96,5.55,80.04-18.52,120-24.07,39.96-64.81,80.04-80.73,120-16.29,39.96-7.41,80.04,16.66,120,24.07,39.96,63.32,80.04,81.84,120,18.52,39.96,16.29,80.04,7.41,120-8.52,39.96-23.33,80.04-33.33,120-9.63,39.96-14.81,80.04-14.07,120,.74,39.96,6.67,80.04,10,99.96l2.96,20.04H-648.65V61.46H442.99Z"/><path class="cls-15" d="M391.14,61.46l-7.41,20.04c-7.41,19.92-22.22,60-38.88,99.96-16.66,39.96-35.18,80.04-26.66,120,8.89,39.96,44.44,80.04,64.81,120,20.37,39.96,25.55,80.04,4.44,120-21.11,39.96-67.77,80.04-67.4,120,.74,39.96,48.88,80.04,64.44,120,15.18,39.96-1.85,80.04-11.11,120-9.26,39.96-10.74,80.04-17.41,120-6.67,39.96-19.26,80.04-25.18,99.96l-6.3,20.04H-648.65V61.46H391.14Z"/><path class="cls-16" d="M257.83,61.46l-6.67,20.04c-7.04,19.92-20.37,60-24.07,99.96-3.7,39.96,2.22,80.04,11.48,120,9.26,39.96,21.85,80.04,10.74,120-11.11,39.96-45.92,80.04-46.29,120-.74,39.96,32.59,80.04,49.25,120,16.66,39.96,16.66,80.04,17.41,120,.37,39.96,1.85,80.04,4.81,120,2.96,39.96,8.15,80.04,2.59,120-5.55,39.96-21.85,80.04-29.63,99.96l-8.15,20.04H-648.65V61.46H257.83Z"/><path class="cls-13" d="M120.81,61.46l2.96,20.04c3.33,19.92,9.26,60,10,99.96s-4.44,80.04-6.3,120c-1.85,39.96-.37,80.04-3.7,120-2.96,39.96-10.37,80.04-8.52,120,1.85,39.96,12.96,80.04,10,120-3.33,39.96-20.37,80.04-17.41,120,2.96,39.96,26.66,80.04,24.07,120-2.59,39.96-30.74,80.04-43.7,120-12.96,39.96-10.74,80.04-9.26,99.96l1.11,20.04H-648.65V61.46H120.81Z"/></g></g><g><path class="cls-2" d="M424.84,360.1c44.5-6.2,89.33-10.63,134.61-12.95,8.52-.44,17.05-.89,25.57-1.22,25.46-.88,51.03-1.11,76.72-.78,21.81,.22,43.72,1,65.64,2.22,50.26,2.88,100.63,8.08,151.1,15.94,28.11,4.43,56.23,9.52,84.24,15.5,9.19,1.88,14.95-9.3,8.19-15.72-57.01-53.02-107.04-112.58-149.22-177.12-5.98-8.97-11.62-18.04-17.16-27.12-21.92-36.09-41.51-73.5-58.56-112.14-5.86-13.06-11.4-26.46-16.6-39.85-1.66-4.21-6.09-6.64-10.29-5.76,.11,.33,.11,.55,.22,.78-.11-.22-.33-.44-.44-.78-.66,.22-1.33,.44-1.99,.78-10.52,5.09-20.81,10.52-30.89,16.27-8.08,4.65-16.05,9.41-24.02,14.39-55.79,35.2-105.94,79.7-147.67,132.06-22.36,27.9-42.29,58.01-59.44,90.22-15.83,29.56-29.23,60.66-40.07,93.43-2.1,6.42,3.32,12.84,10.08,11.84Z"/><path class="cls-2" d="M769.99,528.69c6.53-8.19-3.54-19.04-12.18-13.28-20.04,13.39-40.4,26.23-60.99,38.52-23.8,14.28-47.93,27.9-72.4,40.96-7.75,4.1-15.5,8.08-23.24,12.07-47.16,23.91-95.53,45.5-144.9,64.65h-.11c-12.73,4.98-25.46,9.74-38.41,14.39-123.1,43.95-252.5,72.62-385.34,84.35-8.08,.66-11.4,10.74-5.2,16.05,24.91,21.81,49.04,44.28,72.4,67.53,20.15,20.03,39.85,40.62,58.78,61.77,15.72,17.27,31,34.98,45.83,53.02,11.07,13.39,21.92,27.01,32.44,40.74,26.01,33.76,50.7,68.63,73.83,104.39,7.08,10.96,14.17,22.14,21.03,33.32,20.26,33.21,39.41,67.19,57.23,101.84,14.28,27.9,27.79,56.23,40.52,85.01,3.76,8.52,16.49,6.64,17.49-2.77,3.1-30.22,7.08-60.55,12.06-90.77,4.54-27.9,9.85-55.79,15.94-83.8,3.43-15.5,6.98-30.88,10.85-46.27,18.05-71.95,40.85-141.58,68.08-208.66,16.49-40.63,34.65-80.26,54.24-118.89,29.11-57.23,61.44-112.13,96.97-164.61,3.65-5.53,7.42-10.96,11.18-16.49,17.27-24.91,35.31-49.26,53.91-73.06Z"/><path class="cls-2" d="M1146.07,194.99c11.98,40.16,21.37,81.22,28.04,122.92,2.11,13.19,3.95,26.42,5.51,39.73h0c7.61,64.88,8.65,131.1,2.6,197.74-2.06,22.78-4.95,45.61-8.69,68.45-2.74,16.74-5.92,33.47-9.57,50.21-.8,3.65-1.62,7.3-2.47,10.95-3.99,17.33-8.48,34.65-13.48,51.94-.79,2.74-1.6,5.46-2.41,8.19-2.73,9.12,8.56,15.91,15.29,9.18,17.83-17.81,34.99-36.36,51.43-55.63,18.25-21.37,35.62-43.6,52.03-66.68,4.15-5.82,8.22-11.69,12.23-17.62,12.91-19.01,25.17-38.57,36.75-58.66,32-55.42,58.86-114.8,79.75-177.69,4.08-12.24,7.93-24.62,11.54-37.13,3.64-12.62,7.02-25.26,10.13-37.9,7.31-29.67,13.14-59.37,17.55-89.05,.29-1.95-.05-3.93-.93-5.64-.5-.96-1.15-1.83-1.96-2.57-40.61-37.38-90.25-66.14-146.88-82.51-51.43-14.87-103.52-18.01-153.34-10.97-5.81,.82-9.21,6.91-7.11,12.39,8.88,23.11,16.88,46.57,23.97,70.35Z"/><path class="cls-2" d="M1375.73,1167.68c-3.48-37.44-3.44-75.34,.29-113.19,3.53-35.92,10.37-71.79,20.65-107.15,7.27-25.02,16.26-49.79,27.03-74.16,7.15-16.22,15.09-32.27,23.83-48.09,.06-.1,.1-.19,.16-.29,4.45-8.04-4.07-16.9-12.22-12.67-15.29,7.92-30.79,15.42-46.45,22.49-50.65,22.87-103.15,41.33-156.86,55.16-40.79,10.52-82.28,18.38-124.19,23.5-36,4.41-72.3,6.79-108.74,7.1-13.53,.11-27.08-.06-40.64-.51-17.25-.58-34.52-1.64-51.78-3.16-31.25-2.75-62.49-7.05-93.6-12.93-8.3-1.57-13.83,7.7-9.44,14.1,.37,.55,.83,1.09,1.36,1.59,7.61,7.19,15.36,14.28,23.24,21.24,11.51,10.2,23.32,20.13,35.4,29.81,34.73,27.86,71.79,53.61,111.08,76.95,8.8,5.23,17.71,10.34,26.73,15.32,59,32.59,119.93,58.34,181.88,77.52,60.04,18.59,121.06,31.01,182.2,37.46,5.8,.61,10.61-4.3,10.07-10.1Z"/></g></g></g></svg>