<svg xmlns="http://www.w3.org/2000/svg" width="253.98" height="88.51" viewBox="0 0 253.98 88.51"><path fill="#fff" d="M26.5 23.75a104 104 0 0 1 10.6-.94q2.52-.09 5.07-.05 2.16.02 4.34.15a104 104 0 0 1 15.56 2.07.6.6 0 0 0 .54-1.03 63 63 0 0 1-9.87-11.72q-.59-.89-1.13-1.79a64 64 0 0 1-3.87-7.41q-.59-1.3-1.1-2.64a.6.6 0 0 0-.68-.38l.01.05-.03-.05-.13.05q-1.04.5-2.04 1.08-.8.45-1.59.95a39 39 0 0 0-9.76 8.73 38 38 0 0 0-3.93 5.97 39 39 0 0 0-2.65 6.18.6.6 0 0 0 .67.78" data-name="パス 21"/><path fill="#fff" d="M48.52 34.02q-1.98 1.33-4.03 2.55-2.36 1.41-4.79 2.7l-1.53.8q-4.68 2.37-9.59 4.28-1.27.49-2.54.95A103 103 0 0 1 .56 50.88a.6.6 0 0 0-.35 1.06Q2.68 54.1 5 56.4a97 97 0 0 1 3.89 4.09q1.56 1.71 3.03 3.5 1.1 1.33 2.14 2.7 2.58 3.35 4.88 6.9l1.4 2.2q2 3.3 3.78 6.73 1.41 2.77 2.68 5.62a.6.6 0 0 0 1.15-.18q.3-3 .8-6 .45-2.77 1.06-5.54.33-1.54.71-3.06a104 104 0 0 1 4.5-13.8q1.64-4.03 3.6-7.86a101 101 0 0 1 6.4-10.89l.74-1.09q1.72-2.46 3.57-4.83a.6.6 0 0 0-.8-.88" data-name="パス 22"/><path fill="#fff" d="M74.2 12.83a64 64 0 0 1 1.84 8.13q.21 1.3.37 2.63a63 63 0 0 1 .17 13.07q-.2 2.26-.57 4.53-.27 1.66-.64 3.32l-.16.72q-.4 1.72-.9 3.43l-.15.55a.6.6 0 0 0 1.01.6q1.77-1.76 3.4-3.68 1.81-2.11 3.44-4.4l.81-1.17q1.28-1.89 2.43-3.88a64 64 0 0 0 5.27-11.75q.4-1.21.77-2.45t.67-2.5q.72-2.95 1.16-5.9a.6.6 0 0 0-.2-.54 24.4 24.4 0 0 0-19.85-6.18.6.6 0 0 0-.47.82q.88 2.29 1.59 4.65" data-name="パス 23"/><path fill="#fff" d="M93.33 53.64q-1.52.78-3.07 1.49a64 64 0 0 1-25.77 5.67q-1.34 0-2.69-.04-1.7-.06-3.42-.2-3.1-.28-6.19-.86a.6.6 0 0 0-.62.93l.09.1q.75.72 1.53 1.4 1.15 1.02 2.34 1.98a64 64 0 0 0 7.35 5.09q.87.51 1.77 1a64 64 0 0 0 12.02 5.13 63 63 0 0 0 12.05 2.48.6.6 0 0 0 .67-.67 39 39 0 0 1 3.17-19.47q.7-1.6 1.57-3.18l.01-.02a.6.6 0 0 0-.8-.84" data-name="パス 24"/><g fill="#fff" data-name="グループ 106"><path d="M137.74 60.59h29.05V31.53h-29.05Zm24.57-21.23v15.66a1.1 1.1 0 0 1-1.08 1.07h-15.66a1.08 1.08 0 0 1-.77-1.83l15.67-15.66a1.08 1.08 0 0 1 1.84.76m-20.08-2.29a1.05 1.05 0 0 1 1.04-1.05h10.9a1.05 1.05 0 0 1 .74 1.79l-10.89 10.9a1.05 1.05 0 0 1-1.8-.76Z" data-name="パス 31"/><path d="M156.57 52.19a2.14 2.14 0 1 0-1.96-1.96 2.14 2.14 0 0 0 1.96 1.96" data-name="パス 32"/><path d="m142.25 68.27-.35-.08c-.17-.03-.18-.1-.18-.16a.1.1 0 0 1 .05-.1.4.4 0 0 1 .21-.06 1 1 0 0 1 .62.23l.3-.78a1.7 1.7 0 0 0-.92-.26 1.4 1.4 0 0 0-1.06.4 1 1 0 0 0-.3.71.8.8 0 0 0 .22.56 1 1 0 0 0 .53.26l.27.05q.16.03.2.07a.1.1 0 0 1 .04.1.2.2 0 0 1-.06.14.4.4 0 0 1-.23.06 1 1 0 0 1-.62-.23l-.11-.09-.34.86.1.04a3 3 0 0 0 1.04.23 1.4 1.4 0 0 0 1.06-.38 1 1 0 0 0 .28-.72.8.8 0 0 0-.24-.6 1 1 0 0 0-.51-.25" data-name="パス 33"/><path d="M153.15 68.16h-.67v-1.03h-1.06v3.03h1.06V69.1h.67v1.06h1.06v-3.03h-1.06Z" data-name="パス 34"/><path d="M162.78 67.13h1.1v3.03h-1.1z" data-name="長方形 5"/></g><g data-name="グループ 105"><g data-name="グループ 104"><path fill="#fff" d="M181.3 57.81h9.5a2.77 2.77 0 0 1 2.77 2.78h4.5v-7.27h-16.78Z" data-name="パス 25"/></g><path fill="#fff" d="M181.3 36.02h10.88a1.39 1.39 0 1 1 0 2.78H181.3v4.49h2.46a.36.36 0 0 1 .25.6l-1.79 1.79a1.3 1.3 0 0 1-.92.38v4.49h23.18a1.39 1.39 0 1 1 0 2.77h-3.64v4.5h9.51V46.06a1.3 1.3 0 0 1-.92-.38l-1.79-1.79a.36.36 0 0 1 .25-.6h2.46v-4.5h-10.89a1.39 1.39 0 1 1 0-2.77h10.9v-4.49H181.3Zm12.27 9.64a.4.4 0 0 1-.4.4h-4.14a.35.35 0 0 1-.25-.6l1.76-1.76a1.4 1.4 0 0 1 .99-.41h1.64a.4.4 0 0 1 .4.38Zm4.49-1.99a.4.4 0 0 1 .39-.38h1.65a1.4 1.4 0 0 1 .98.4l1.77 1.76a.35.35 0 0 1-.25.6h-4.15a.4.4 0 0 1-.39-.39Z" data-name="パス 30"/><path fill="#fff" d="M192.54 67.13h-1.2l-.52.98-.16.34h-.02l.02-.38v-.94h-1.05v3.03h1.05v-.98l-.02-.28h.02l.15.29.55.97h1.28l-1.05-1.55Z" data-name="パス 35"/><path fill="#fff" d="M200.93 67.13h1.1v3.03h-1.1z" data-name="長方形 6"/></g><g fill="#fff" data-name="グループ 107"><path d="M224.93 31.53h14.53v4.5h-14.53z" data-name="長方形 2"/><path d="M224.93 38.8h7.26v4.49h-7.26z" data-name="長方形 3"/><g data-name="グループ 103"><g data-name="グループ 102"><path d="M239.46 60.59V46.06h-14.53v4.49h4.83a.7.7 0 0 1 .5 1.2l-5.42 5.43 3.17 3.17 5.75-5.74a.7.7 0 0 1 1.2.5v5.48Z" data-name="パス 26"/><path d="M249.5 53.4a2.7 2.7 0 0 1-2.7 2.7h-4.57v4.48h11.75V46.06h-4.49Z" data-name="パス 27"/><path d="M234.97 41.04a2.24 2.24 0 1 0 2.24-2.24 2.25 2.25 0 0 0-2.24 2.24" data-name="パス 28"/><path d="M242.23 31.53h11.75v4.5h-11.75z" data-name="長方形 4"/><path d="M242.23 53.32h4.49V46a2.7 2.7 0 0 1 2.7-2.7h4.56v-4.5h-11.75Z" data-name="パス 29"/></g><path d="m229.41 68.27-.35-.08c-.16-.03-.17-.1-.17-.16a.1.1 0 0 1 .05-.1.4.4 0 0 1 .21-.06 1 1 0 0 1 .62.23l.3-.78a1.7 1.7 0 0 0-.93-.26 1.4 1.4 0 0 0-1.05.4 1 1 0 0 0-.3.71.8.8 0 0 0 .21.56 1 1 0 0 0 .53.26l.27.05q.16.03.21.07a.1.1 0 0 1 .04.1.2.2 0 0 1-.06.14.4.4 0 0 1-.24.06 1 1 0 0 1-.61-.23l-.12-.09-.33.86.1.04a3 3 0 0 0 1.03.23 1.4 1.4 0 0 0 1.07-.38 1 1 0 0 0 .27-.72.8.8 0 0 0-.23-.6 1 1 0 0 0-.52-.25" data-name="パス 36"/><path d="m239.34 67.13-1.05 3.03h1.16l.08-.38h.84l.1.38h1.17l-1.09-3.03Zm.4 1.93.15-.58.05-.34h.04l.06.34.14.58Z" data-name="パス 37"/><path d="M249.9 67.13h1.1v3.03h-1.1z" data-name="長方形 7"/></g></g></svg>