<svg xmlns="http://www.w3.org/2000/svg" id="_イヤー_2" viewBox="0 0 621.86 216.71"><defs><style>.cls-3{fill:#e96293}.cls-6{fill:#9d4a97}.cls-9{fill:#c35098}.cls-12{fill:#a55b9f}.cls-16{fill:#3a3a3a}</style></defs><g id="_イヤー_1-2"><path d="M70.4 200.68q-1.2 7.34-1.95 14.7c-.16 1.52-2.22 1.83-2.83.45a267 267 0 0 0-6.56-13.76q5.6-.98 11.34-1.38Z" style="fill:#6892cc"/><path d="M74.73 179.62q-.93 3.73-1.76 7.49-1.48 6.8-2.58 13.57-5.76.4-11.34 1.38a264 264 0 0 0-9.27-16.49 121 121 0 0 1 24.95-5.95" style="fill:#5362ab"/><path d="M208.74 89.82a156 156 0 0 1-7.93 12.35q-1.44-.28-2.89-.5a74 74 0 0 0-10.96-.83h-.85q.9-5.55 1.41-11.08a73 73 0 0 0 21.23.05Z" style="fill:#d04a91"/><path d="M215.49 61.21q3.1 0 6.17-.16a156 156 0 0 1-12.91 28.77 73 73 0 0 1-21.23-.05c.98-10.79.81-21.51-.42-32.01 9.09 2.26 18.6 3.46 28.39 3.46Z" class="cls-3"/><path d="M200.81 102.17a156 156 0 0 1-16.75 19.81c-1.09 1.09-2.92 0-2.48-1.49l.39-1.33q1.22-4.2 2.18-8.41l.4-1.77q.89-4.06 1.55-8.13h.85a72 72 0 0 1 13.85 1.33Z" class="cls-12"/><path d="M157.89 148.86a81 81 0 0 0-3.94 20.58 156 156 0 0 1-27.47-20.73 1.49 1.49 0 0 1 1.31-2.54 154 154 0 0 0 30.11 2.68Z" style="fill:#5955a2"/><path d="M151.98 61.18q-6.8-1.44-13.64-2.51a255 255 0 0 0-35.09-2.94q-6.24-.09-12.42.13A120 120 0 0 0 79.38 26.5a96 96 0 0 1 23.91-21.38 119 119 0 0 0 13.96 15.23l.64.59q.34.29.68.61l.27.23.27.25q.73.61 1.45 1.25l.41.34.77.65.79.64 1.02.84.34.27q.36.27.68.54.3.21.57.45l1.52 1.15q.38.3.77.57l.32.23.75.54.14.11.48.34a155 155 0 0 0 24.16 28.67 1.49 1.49 0 0 1-1.33 2.54Z" class="cls-3"/><path d="M90.83 55.86q-2.07.08-4.14.2-11 .58-21.79 2.1a1.48 1.48 0 0 1-1.63-1.92A95 95 0 0 1 79.38 26.5a119 119 0 0 1 11.45 29.36" style="fill:#e53c8e"/><path d="M86.69 56.05q-11 .58-21.79 2.1a1.48 1.48 0 0 1-1.63-1.92 95 95 0 0 1 6.49-15.13A120 120 0 0 1 86.7 56.05Z" class="cls-9"/><path d="M85.76 145.84a254 254 0 0 0-11.02 33.78 121 121 0 0 0-24.95 5.95 255 255 0 0 0-15.35-22.29 121.6 121.6 0 0 1 51.32-17.44" style="fill:#7163a9"/><path d="M120.77 85.44q-4.52 5.78-8.73 11.83l-1.81 2.67a119 119 0 0 0-17.74 4.84q.21-1.21.39-2.42 0-.06.02-.11l.11-.81.2-1.36.11-.91.13-1.06 3.76-1.95a265 265 0 0 0 21.59-12.87c1.4-.93 3.03.82 1.97 2.15" style="fill:#d36ca5"/><path d="M110.24 99.94a247 247 0 0 0-15.7 26.65q-3.15-2.22-6.45-4.27-4.2-2.57-8.6-4.82 5.86-5.6 10.95-11.95l1.02-.39 1.04-.38a121 121 0 0 1 17.74-4.84" class="cls-12"/><path d="M94.54 126.59a254 254 0 0 0-8.78 19.25q-4.7.48-9.28 1.33a121 121 0 0 0-42.04 16.11 234 234 0 0 0-12.67-15.18 121 121 0 0 0 16.85-4.91 120 120 0 0 0 40.88-25.68q4.41 2.25 8.6 4.82 3.3 2.04 6.45 4.27Z" style="fill:#936bab"/><path d="M79.48 117.51a120 120 0 0 1-40.88 25.68 121 121 0 0 1-16.85 4.91 230 230 0 0 0-9.52-10 119.6 119.6 0 0 0 54.11-26.29q3.02 1.1 5.97 2.37 3.65 1.56 7.17 3.33" style="fill:#8d5aa1"/><path d="M93.44 98.11q-.05.53-.13 1.06l-.11.91-.2 1.36-.11.81q-.02.05-.02.11l-.39 2.42-1.04.38-1.02.39a120 120 0 0 0-18.12 8.62q-2.95-1.26-5.97-2.37a79 79 0 0 0 3.62-3.23h.02q12-4.66 23.46-10.47Z" class="cls-9"/><path d="M69.97 108.58a119.4 119.4 0 0 1-57.73 29.52A253 253 0 0 0 .52 127.17c-1-.86-.47-2.49.84-2.6a251 251 0 0 0 68.61-15.99" style="fill:#a75a9f"/><path d="M90.43 105.55a120 120 0 0 1-10.95 11.95 126 126 0 0 0-7.17-3.33 120 120 0 0 1 18.12-8.62" class="cls-6"/><path d="m129.14 29.96-.48-.34-.14-.11-.75-.54-.32-.23q-.38-.3-.77-.57l-1.52-1.15-.57-.45-.68-.54-.34-.27-1.02-.84-.79-.64-.77-.65-.41-.34-1.45-1.25-.27-.25-.27-.23q-.34-.32-.68-.61l-.64-.59a121 121 0 0 1-13.96-15.23 111 111 0 0 1 3.89-2.33 82 82 0 0 1 5-2.63l.32-.13.07.13-.04-.13a1.5 1.5 0 0 1 1.67.93q1.26 3.27 2.69 6.45a156 156 0 0 0 12.26 22.54ZM228 34.49a157 157 0 0 1-6.35 26.57q-3.06.16-6.17.16c-9.79 0-19.3-1.2-28.39-3.46q-.38-3.24-.89-6.43a156 156 0 0 0-4.54-19.9 117 117 0 0 0 28.49 3.48q9.03 0 17.71-1.33.22.43.15.91Z" style="fill:#ea6266"/><path d="M227.85 33.57a119 119 0 0 1-46.2-2.15 156 156 0 0 0-3.88-11.39 1.48 1.48 0 0 1 1.15-2.01 59 59 0 0 1 24.83 1.78 59 59 0 0 1 23.78 13.36q.2.18.32.42Z" style="fill:#f08d64"/><path d="m230.49 133.38-.03.05a97 97 0 0 0-8.24 19.8 82 82 0 0 0-26.63-9.32 157 157 0 0 0 32.91-12.57c1.32-.68 2.7.75 1.98 2.05Z" class="cls-6"/><path d="M222.23 153.22a96 96 0 0 0-3.34 17.35 82 82 0 0 0-43.4-22.86q10.18-1.25 20.11-3.8a82 82 0 0 1 26.63 9.32Z" style="fill:#834e9b"/><path d="M218.84 188.89a1.5 1.5 0 0 1-1.63 1.64 154 154 0 0 1-29.5-6.07 156 156 0 0 1-33.78-15.03 82 82 0 0 1 3.94-20.58q8.86-.08 17.61-1.15a82 82 0 0 1 43.4 22.86 97 97 0 0 0-.05 18.33Z" style="fill:#644a9a"/><path d="M550.72 77.21h35.57V88.2h-35.57zm0 35.56v10.99h11.84a1.73 1.73 0 0 1 1.22 2.96L550.5 140l7.77 7.77 14.07-14.07a1.73 1.73 0 0 1 2.96 1.22v13.41h10.99v-35.57zm53.53 24.58h-11.16v10.99h28.78v-35.57h-10.99v17.96a6.6 6.6 0 0 1-6.62 6.62Zm-53.53-42.36h17.78v10.99h-17.78zm30.08 0a5.5 5.5 0 1 0 0 11 5.5 5.5 0 1 0 0-11m12.29-17.78h28.78V88.2h-28.78z" class="cls-16"/><path d="M593.09 94.99v35.57h10.99V112.6a6.6 6.6 0 0 1 6.62-6.62h11.16V94.99zM488.35 88.2h26.67v-11h-71.13v11h26.67a3.4 3.4 0 1 1 0 6.79h-26.67v10.99h6.02c.77 0 1.17.93.61 1.49l-4.37 4.37c-.59.59-1.42.93-2.26.93v10.99h56.74a3.4 3.4 0 1 1 0 6.79h-8.89v11h23.28v-28.78c-.84 0-1.67-.34-2.26-.93l-4.37-4.37a.87.87 0 0 1 .61-1.49h6.02V94.99h-26.67a3.4 3.4 0 1 1 0-6.79m-14.39 23.6c0 .54-.43.97-.97.97h-10.14a.87.87 0 0 1-.61-1.49l4.3-4.3c.64-.64 1.51-1 2.42-1h4.03c.54 0 .97.43.97.95zm11.94-5.82h4.05c.9 0 1.77.36 2.4 1l4.32 4.3a.87.87 0 0 1-.61 1.49H485.9a.96.96 0 0 1-.95-.97v-4.87c0-.52.43-.95.95-.95" class="cls-16"/><path d="M443.88 141.55h23.28a6.8 6.8 0 0 1 6.79 6.79h10.99v-17.78h-41.06zM337.25 77.2v71.15h71.13V77.2zm10.99 40.22V90.77a2.56 2.56 0 0 1 2.56-2.56h26.67a2.56 2.56 0 0 1 1.81 4.37l-26.65 26.67a2.58 2.58 0 0 1-4.39-1.83m49.16 17.29a2.63 2.63 0 0 1-2.63 2.63h-38.33a2.64 2.64 0 0 1-1.88-4.5l38.35-38.33a2.64 2.64 0 0 1 4.5 1.86v38.33Z" class="cls-16"/><path d="M384.19 117.34a5.23 5.23 0 1 0-.85 10.43 5.23 5.23 0 0 0 .85-10.43m-35.04 49.39a3 3 0 0 0-1.51-.56c-.14 0-.37.02-.51.13a.3.3 0 0 0-.13.27c0 .16.02.3.43.39l.86.19c.66.14 1.05.41 1.27.63.47.46.57 1.02.57 1.47 0 .63-.17 1.22-.67 1.75a3.5 3.5 0 0 1-2.61.95c-1.14 0-1.89-.32-2.53-.58l-.24-.1.81-2.09.29.22c.28.21.85.55 1.5.55.37 0 .52-.09.58-.13.12-.1.14-.22.14-.33q.01-.12-.09-.26c-.09-.09-.23-.12-.51-.18l-.66-.12a2.3 2.3 0 0 1-1.29-.63 1.8 1.8 0 0 1-.53-1.37q0-1.04.72-1.77c.57-.58 1.4-.96 2.58-.96.59 0 1.36.1 2.26.65zm21.6 5.05v-7.42h2.59v2.51h1.65v-2.51h2.59v7.42h-2.59v-2.58h-1.65v2.58zm27.8 0v-7.42h2.69v7.42zm65.69 0v-7.42h2.58v2.3c0 .33-.01.6-.06.94h.06c.16-.42.26-.59.39-.83l1.28-2.4h2.92l-2.31 3.64 2.56 3.78h-3.12l-1.36-2.38-.36-.71h-.06c.04.26.06.46.06.7v2.39zm27.72 0v-7.42h2.69v7.42zm70.61-5.05a3 3 0 0 0-1.51-.56c-.14 0-.37.02-.51.13a.3.3 0 0 0-.13.27c0 .16.02.3.43.39l.86.19c.66.14 1.05.41 1.27.63.47.46.57 1.02.57 1.47 0 .63-.17 1.22-.67 1.75a3.5 3.5 0 0 1-2.61.95c-1.14 0-1.89-.32-2.53-.58l-.24-.1.81-2.09.29.22c.28.21.85.55 1.5.55.37 0 .52-.09.58-.13.12-.1.14-.22.14-.33q.01-.12-.09-.26c-.09-.09-.23-.12-.51-.18l-.66-.12a2.3 2.3 0 0 1-1.29-.63 1.8 1.8 0 0 1-.53-1.37q0-1.04.72-1.77c.57-.58 1.4-.96 2.58-.96.59 0 1.36.1 2.26.65l-.72 1.89Zm23.91 4.13-.2.92h-2.85l2.57-7.42h2.98l2.65 7.42h-2.86l-.25-.92zm1.09-4.02h-.1q-.02.45-.12.83l-.37 1.42h1.08l-.34-1.42q-.1-.44-.15-.83m24.28 4.94v-7.42h2.69v7.42z" class="cls-16"/></g></svg>