<svg xmlns="http://www.w3.org/2000/svg" width="253.983" height="88.507" viewBox="0 0 253.983 88.507">
  <path id="パス_21" data-name="パス 21" d="M87.014,358.9c2.942-.41,5.907-.7,8.9-.856.563-.03,1.127-.059,1.69-.081q2.526-.087,5.073-.051c1.442.014,2.891.066,4.34.146,3.323.191,6.654.535,9.992,1.054,1.859.293,3.718.63,5.57,1.025a.608.608,0,0,0,.541-1.039,63.212,63.212,0,0,1-9.866-11.712c-.4-.593-.769-1.193-1.135-1.793a64.2,64.2,0,0,1-3.872-7.415c-.388-.863-.754-1.749-1.1-2.635a.609.609,0,0,0-.681-.38c.008.022.008.036.015.051a.329.329,0,0,1-.029-.051.9.9,0,0,0-.132.051q-1.042.506-2.042,1.076c-.534.307-1.061.622-1.588.951a39.317,39.317,0,0,0-9.765,8.733A38.337,38.337,0,0,0,89,351.94a38.969,38.969,0,0,0-2.65,6.178.6.6,0,0,0,.666.783" transform="translate(-60.509 -335.152)" fill="#fff"/>
  <path id="パス_22" data-name="パス 22" d="M109.031,369.17q-1.987,1.329-4.033,2.547-2.361,1.416-4.787,2.708c-.512.271-1.025.535-1.537.8Q94,377.594,89.092,379.5h-.007c-.842.329-1.683.644-2.54.951a102.631,102.631,0,0,1-25.479,5.578.6.6,0,0,0-.344,1.061q2.47,2.163,4.787,4.465c1.332,1.325,2.635,2.687,3.886,4.085q1.56,1.713,3.031,3.506c.732.885,1.449,1.786,2.144,2.693q2.58,3.35,4.883,6.9c.468.724.936,1.464,1.39,2.2q2.01,3.294,3.784,6.734,1.417,2.768,2.679,5.621a.606.606,0,0,0,1.157-.183c.205-2,.468-4,.8-6q.45-2.766,1.054-5.541c.227-1.024.461-2.042.717-3.059a103.645,103.645,0,0,1,4.5-13.8q1.635-4.031,3.586-7.862a101.374,101.374,0,0,1,6.412-10.884c.242-.366.491-.725.739-1.091,1.142-1.647,2.336-3.257,3.565-4.831a.6.6,0,0,0-.805-.878" transform="translate(-60.509 -335.152)" fill="#fff"/>
  <path id="パス_23" data-name="パス 23" d="M134.7,347.983a63.518,63.518,0,0,1,1.854,8.128q.21,1.308.364,2.626h0a63.113,63.113,0,0,1,.172,13.075q-.2,2.259-.574,4.526-.271,1.659-.633,3.32c-.054.241-.107.482-.164.724q-.395,1.719-.891,3.434-.078.271-.159.542a.609.609,0,0,0,1.011.607q1.769-1.767,3.4-3.679,1.811-2.118,3.44-4.409.413-.576.809-1.165,1.281-1.886,2.431-3.878a63.589,63.589,0,0,0,5.273-11.749q.405-1.215.763-2.455t.67-2.506q.725-2.943,1.16-5.889a.615.615,0,0,0-.19-.543,24.4,24.4,0,0,0-19.852-6.181.6.6,0,0,0-.47.819q.88,2.292,1.585,4.652" transform="translate(-60.509 -335.152)" fill="#fff"/>
  <path id="パス_24" data-name="パス 24" d="M153.84,388.79q-1.517.786-3.072,1.487A63.954,63.954,0,0,1,125,395.948q-1.343.012-2.687-.033-1.711-.059-3.424-.209-3.1-.273-6.189-.855a.609.609,0,0,0-.624.932.619.619,0,0,0,.089.105q.756.714,1.537,1.4,1.142,1.013,2.341,1.972a63.815,63.815,0,0,0,7.345,5.088q.873.519,1.767,1.013a64.051,64.051,0,0,0,12.026,5.126,63.18,63.18,0,0,0,12.048,2.477.61.61,0,0,0,.666-.668,39.111,39.111,0,0,1,3.172-19.473q.71-1.609,1.575-3.18l.011-.019a.606.606,0,0,0-.808-.838" transform="translate(-60.509 -335.152)" fill="#fff"/>
  <g id="グループ_106" data-name="グループ 106" transform="translate(-60.509 -335.152)">
    <path id="パス_31" data-name="パス 31" d="M198.25,395.741H227.3V366.682H198.25Zm24.565-21.227v15.657a1.077,1.077,0,0,1-1.076,1.075H206.082a1.077,1.077,0,0,1-.768-1.837l15.663-15.656a1.076,1.076,0,0,1,1.838.761m-20.078-2.291a1.047,1.047,0,0,1,1.047-1.047h10.891a1.047,1.047,0,0,1,.74,1.786L204.53,383.854a1.052,1.052,0,0,1-1.793-.747Z" fill="#fff"/>
    <path id="パス_32" data-name="パス 32" d="M217.075,387.339a2.138,2.138,0,1,0-1.958-1.958,2.139,2.139,0,0,0,1.958,1.958" fill="#fff"/>
    <path id="パス_33" data-name="パス 33" d="M202.754,403.421l-.35-.077c-.168-.037-.177-.1-.177-.159a.124.124,0,0,1,.054-.11.364.364,0,0,1,.209-.054,1.177,1.177,0,0,1,.619.227l.3-.772a1.711,1.711,0,0,0-.923-.264,1.409,1.409,0,0,0-1.054.391.978.978,0,0,0-.3.723.759.759,0,0,0,.218.559.915.915,0,0,0,.528.259l.268.05c.114.023.173.036.209.073a.144.144,0,0,1,.036.1.165.165,0,0,1-.059.137.376.376,0,0,1-.236.054,1.066,1.066,0,0,1-.614-.223l-.118-.091-.332.855.1.041a2.529,2.529,0,0,0,1.032.236,1.428,1.428,0,0,0,1.068-.386.976.976,0,0,0,.273-.714.809.809,0,0,0-.232-.6,1.023,1.023,0,0,0-.518-.259" fill="#fff"/>
    <path id="パス_34" data-name="パス 34" d="M213.663,403.307h-.673V402.28H211.93v3.032h1.059v-1.055h.673v1.055h1.059V402.28h-1.059Z" fill="#fff"/>
    <rect id="長方形_5" data-name="長方形 5" width="1.1" height="3.032" transform="translate(223.285 402.28)" fill="#fff"/>
  </g>
  <g id="グループ_105" data-name="グループ 105" transform="translate(-60.509 -335.152)">
    <g id="グループ_104" data-name="グループ 104">
      <path id="パス_25" data-name="パス 25" d="M241.8,392.963h9.508a2.774,2.774,0,0,1,2.774,2.774h4.49v-7.263H241.8Z" fill="#fff"/>
    </g>
    <path id="パス_30" data-name="パス 30" d="M241.8,371.176h10.891a1.387,1.387,0,1,1,0,2.774H241.8v4.487h2.459a.355.355,0,0,1,.249.608l-1.786,1.786a1.314,1.314,0,0,1-.922.38V385.7h23.174a1.387,1.387,0,1,1,0,2.774h-3.631v4.5h9.508V381.211a1.316,1.316,0,0,1-.922-.38l-1.786-1.786a.355.355,0,0,1,.249-.608h2.459V373.95H259.962a1.387,1.387,0,1,1,0-2.774h10.891v-4.494H241.8Zm12.282,9.64a.393.393,0,0,1-.4.395h-4.143a.354.354,0,0,1-.249-.607l1.757-1.757a1.392,1.392,0,0,1,.988-.41h1.647a.392.392,0,0,1,.4.388Zm4.487-1.991a.391.391,0,0,1,.388-.388h1.654a1.375,1.375,0,0,1,.981.41l1.764,1.757a.354.354,0,0,1-.249.607h-4.15a.392.392,0,0,1-.388-.395Z" fill="#fff"/>
    <path id="パス_35" data-name="パス 35" d="M253.045,402.28h-1.191l-.523.982a2.127,2.127,0,0,0-.159.341h-.023a2.586,2.586,0,0,0,.023-.382v-.941h-1.054v3.032h1.054v-.978a1.49,1.49,0,0,0-.023-.286h.023a2.827,2.827,0,0,0,.146.291l.554.973h1.273l-1.045-1.546Z" fill="#fff"/>
    <rect id="長方形_6" data-name="長方形 6" width="1.1" height="3.032" transform="translate(261.435 402.28)" fill="#fff"/>
  </g>
  <g id="グループ_107" data-name="グループ 107" transform="translate(-60.509 -335.152)">
    <rect id="長方形_2" data-name="長方形 2" width="14.527" height="4.489" transform="translate(285.438 366.684)" fill="#fff"/>
    <rect id="長方形_3" data-name="長方形 3" width="7.263" height="4.489" transform="translate(285.438 373.947)" fill="#fff"/>
    <g id="グループ_103" data-name="グループ 103">
      <g id="グループ_102" data-name="グループ 102">
        <path id="パス_26" data-name="パス 26" d="M299.965,395.738V381.211H285.438V385.7h4.834a.708.708,0,0,1,.5,1.208l-5.423,5.422,3.175,3.174,5.744-5.744a.708.708,0,0,1,1.208.5v5.478Z" fill="#fff"/>
        <path id="パス_27" data-name="パス 27" d="M310,388.544a2.706,2.706,0,0,1-2.7,2.7H302.74v4.489h11.751V381.211H310Z" fill="#fff"/>
        <path id="パス_28" data-name="パス 28" d="M295.476,376.192a2.244,2.244,0,1,0,2.245-2.245,2.245,2.245,0,0,0-2.245,2.245" fill="#fff"/>
        <rect id="長方形_4" data-name="長方形 4" width="11.753" height="4.489" transform="translate(302.739 366.684)" fill="#fff"/>
        <path id="パス_29" data-name="パス 29" d="M302.739,388.474h4.489V381.14a2.7,2.7,0,0,1,2.7-2.7h4.56v-4.489H302.739Z" fill="#fff"/>
      </g>
      <path id="パス_36" data-name="パス 36" d="M289.923,403.421l-.35-.077c-.168-.037-.177-.1-.177-.159a.124.124,0,0,1,.054-.11.364.364,0,0,1,.209-.054,1.178,1.178,0,0,1,.619.227l.295-.772a1.711,1.711,0,0,0-.923-.264,1.409,1.409,0,0,0-1.054.391.978.978,0,0,0-.3.723.759.759,0,0,0,.218.559.915.915,0,0,0,.528.259l.268.05c.114.023.173.036.209.073a.144.144,0,0,1,.036.1.165.165,0,0,1-.059.137.376.376,0,0,1-.236.054,1.066,1.066,0,0,1-.614-.223l-.118-.091-.332.855.1.041a2.529,2.529,0,0,0,1.032.236,1.428,1.428,0,0,0,1.068-.386.976.976,0,0,0,.273-.714.809.809,0,0,0-.232-.6,1.023,1.023,0,0,0-.518-.259" fill="#fff"/>
      <path id="パス_37" data-name="パス 37" d="M299.845,402.28l-1.05,3.031h1.164l.082-.377h.836l.1.377h1.168l-1.082-3.031Zm.4,1.936.15-.582a1.627,1.627,0,0,0,.05-.341h.041c.014.109.032.223.059.341l.141.582Z" fill="#fff"/>
      <rect id="長方形_7" data-name="長方形 7" width="1.1" height="3.032" transform="translate(310.404 402.28)" fill="#fff"/>
    </g>
  </g>
</svg>
