<?xml version="1.0" encoding="UTF-8"?><svg id="_イヤー_2" xmlns="http://www.w3.org/2000/svg" viewBox="0 0 621.86 216.71"><defs><style>.cls-1{fill:#6892cc;}.cls-2{fill:#f08d64;}.cls-3{fill:#e96293;}.cls-4{fill:#ea6266;}.cls-5{fill:#e53c8e;}.cls-6{fill:#9d4a97;}.cls-7{fill:#936bab;}.cls-8{fill:#8d5aa1;}.cls-9{fill:#c35098;}.cls-10{fill:#d04a91;}.cls-11{fill:#a75a9f;}.cls-12{fill:#a55b9f;}.cls-13{fill:#d36ca5;}.cls-14{fill:#5955a2;}.cls-15{fill:#644a9a;}.cls-16{fill:#3a3a3a;}.cls-17{fill:#5362ab;}.cls-18{fill:#7163a9;}.cls-19{fill:#834e9b;}</style></defs><g id="_イヤー_1-2"><g><g><path class="cls-1" d="M70.4,200.68c-.81,4.89-1.45,9.8-1.95,14.7-.16,1.52-2.22,1.83-2.83,.45-2.06-4.66-4.25-9.25-6.56-13.76,3.73-.65,7.51-1.11,11.34-1.38Z"/><path class="cls-17" d="M74.73,179.62c-.63,2.49-1.2,4.98-1.76,7.49-.99,4.53-1.85,9.05-2.58,13.57-3.84,.27-7.62,.73-11.34,1.38-2.89-5.61-5.99-11.11-9.27-16.49,7.96-2.81,16.31-4.84,24.95-5.95Z"/><g><path class="cls-10" d="M208.74,89.82c-1.88,3.25-3.86,6.42-5.95,9.5-.65,.96-1.31,1.91-1.98,2.85-.96-.19-1.92-.35-2.89-.5-3.58-.54-7.24-.83-10.96-.83-.28,0-.57,0-.85,0,.61-3.7,1.07-7.39,1.41-11.08,3.52,.53,7.13,.8,10.8,.8s7.02-.25,10.43-.75Z"/><path class="cls-3" d="M215.49,61.21c2.07,0,4.13-.05,6.17-.16-3.38,10.18-7.73,19.79-12.91,28.77-3.4,.49-6.89,.75-10.43,.75s-7.28-.27-10.8-.8c.98-10.79,.81-21.51-.42-32.01,9.09,2.26,18.6,3.46,28.39,3.46Z"/><path class="cls-12" d="M200.81,102.17c-2.66,3.74-5.47,7.34-8.42,10.8-2.66,3.12-5.44,6.12-8.33,9.01-1.09,1.09-2.92,0-2.48-1.49,.13-.44,.26-.88,.39-1.33,.81-2.8,1.54-5.6,2.18-8.41,.14-.59,.27-1.18,.4-1.77,.59-2.71,1.11-5.42,1.55-8.13,.28,0,.57,0,.85,0,3.73,0,7.39,.28,10.96,.83,.97,.15,1.93,.31,2.89,.5Z"/><path class="cls-14" d="M157.89,148.86c-1.12,3.4-2.02,6.91-2.69,10.49-.62,3.3-1.04,6.66-1.25,10.09-6.36-3.78-12.36-7.95-17.98-12.46-1.96-1.57-3.87-3.18-5.73-4.83-1.28-1.13-2.53-2.27-3.76-3.44-.09-.08-.16-.17-.22-.26-.71-1.04,.18-2.54,1.53-2.28,5.04,.95,10.1,1.65,15.15,2.09,2.79,.25,5.59,.42,8.38,.51,2.2,.07,4.39,.1,6.58,.08Z"/><path class="cls-3" d="M151.98,61.18c-4.53-.97-9.09-1.79-13.64-2.51-8.17-1.27-16.33-2.11-24.46-2.58-3.55-.2-7.1-.32-10.63-.36-4.16-.05-8.3-.02-12.42,.13-2.53-10.38-6.42-20.23-11.45-29.36,6.76-8.48,14.88-15.68,23.91-21.38,1.54,2.01,3.15,3.96,4.82,5.88,2.49,2.83,5.11,5.56,7.87,8.15,.41,.41,.84,.81,1.27,1.2l.64,.59c.23,.2,.45,.39,.68,.61,.09,.07,.18,.16,.27,.23,.09,.09,.18,.16,.27,.25,.48,.41,.97,.82,1.45,1.25,.14,.11,.27,.23,.41,.34,.25,.22,.52,.43,.77,.65,.27,.21,.52,.43,.79,.64,.34,.29,.68,.56,1.02,.84,.11,.09,.23,.18,.34,.27,.23,.18,.47,.36,.68,.54,.2,.14,.39,.29,.57,.45,.5,.38,1.02,.77,1.52,1.15,.25,.2,.52,.38,.77,.57,.11,.07,.21,.16,.32,.23,.25,.18,.5,.36,.75,.54,.05,.04,.11,.07,.14,.11,.16,.13,.32,.23,.48,.34,6.83,10.45,14.93,20.09,24.16,28.67,1.09,1.04,.16,2.85-1.33,2.54Z"/><path class="cls-5" d="M90.83,55.86c-1.38,.05-2.76,.13-4.14,.2-7.33,.38-14.59,1.09-21.79,2.1-1.09,.16-1.97-.88-1.63-1.92,1.76-5.31,3.92-10.34,6.49-15.13,2.78-5.22,6-10.09,9.62-14.61,5.04,9.12,8.92,18.98,11.45,29.36Z"/><path class="cls-9" d="M86.69,56.05c-7.33,.38-14.59,1.09-21.79,2.1-1.09,.16-1.97-.88-1.63-1.92,1.76-5.31,3.92-10.34,6.49-15.13,6.11,4.44,11.77,9.44,16.94,14.95Z"/><path class="cls-18" d="M85.76,145.84c-4.41,10.86-8.1,22.13-11.02,33.78-8.64,1.11-16.99,3.14-24.95,5.95-1.11-1.81-2.26-3.62-3.4-5.39-3.75-5.79-7.74-11.43-11.95-16.9,6.33-3.91,13.05-7.24,20.09-9.96,7.03-2.71,14.37-4.77,21.95-6.15,3.06-.56,6.15-1,9.28-1.33Z"/><path class="cls-13" d="M120.77,85.44c-3.01,3.85-5.93,7.8-8.73,11.83-.61,.9-1.22,1.77-1.81,2.67-6.09,1.16-12.03,2.8-17.74,4.84,.14-.81,.27-1.61,.39-2.42,0-.04,0-.07,.02-.11,.04-.27,.07-.54,.11-.81,.07-.45,.13-.9,.2-1.36l.11-.91c.05-.36,.09-.7,.13-1.06,1.25-.65,2.51-1.29,3.76-1.95,3.96-2.11,7.87-4.32,11.72-6.63,3.33-1.99,6.63-4.07,9.87-6.24,1.4-.93,3.03,.82,1.97,2.15Z"/><path class="cls-12" d="M110.24,99.94c-5.75,8.49-10.99,17.38-15.7,26.65-2.1-1.49-4.25-2.9-6.45-4.27-2.8-1.72-5.66-3.32-8.6-4.82,3.91-3.73,7.56-7.72,10.95-11.95,.34-.14,.68-.27,1.02-.39,.34-.13,.7-.25,1.04-.38,5.72-2.04,11.65-3.67,17.74-4.84Z"/><path class="cls-7" d="M94.54,126.59c-3.17,6.26-6.11,12.67-8.78,19.25-3.14,.32-6.22,.77-9.28,1.33-7.58,1.38-14.93,3.44-21.95,6.15-7.04,2.72-13.76,6.06-20.09,9.96-1.7-2.22-3.46-4.43-5.25-6.6-2.4-2.92-4.87-5.79-7.42-8.58,5.79-1.24,11.42-2.89,16.85-4.91,15.36-5.75,29.25-14.55,40.88-25.68,2.94,1.51,5.81,3.1,8.6,4.82,2.2,1.36,4.35,2.78,6.45,4.27Z"/><path class="cls-8" d="M79.48,117.51c-11.63,11.13-25.52,19.93-40.88,25.68-5.43,2.02-11.06,3.67-16.85,4.91-3.06-3.42-6.25-6.76-9.52-10,20.38-4.07,38.87-13.32,54.11-26.29,2.01,.74,4,1.52,5.97,2.37,2.44,1.04,4.82,2.15,7.17,3.33Z"/><path class="cls-9" d="M93.44,98.11c-.04,.36-.07,.7-.13,1.06l-.11,.91c-.07,.47-.13,.91-.2,1.36-.04,.27-.07,.54-.11,.81-.02,.04-.02,.07-.02,.11-.13,.81-.25,1.61-.39,2.42-.34,.13-.7,.25-1.04,.38-.34,.13-.68,.25-1.02,.39-6.31,2.38-12.37,5.27-18.12,8.62-1.97-.84-3.96-1.63-5.97-2.37,1.24-1.04,2.44-2.11,3.62-3.23h.02c7.99-3.1,15.82-6.6,23.46-10.47Z"/><path class="cls-11" d="M69.97,108.58c-1.18,1.11-2.38,2.19-3.62,3.23-15.23,12.98-33.73,22.22-54.11,26.29-3.78-3.76-7.69-7.4-11.72-10.93-1-.86-.47-2.49,.84-2.6,21.51-1.9,42.46-6.54,62.39-13.66,2.1-.75,4.16-1.52,6.22-2.33Z"/><path class="cls-6" d="M90.43,105.55c-3.39,4.23-7.04,8.23-10.95,11.95-2.35-1.18-4.73-2.29-7.17-3.33,5.75-3.35,11.81-6.24,18.12-8.62Z"/><path class="cls-4" d="M129.14,29.96c-.16-.11-.32-.22-.48-.34-.04-.04-.09-.07-.14-.11-.25-.18-.5-.36-.75-.54-.11-.07-.21-.16-.32-.23-.25-.2-.52-.38-.77-.57-.5-.38-1.02-.77-1.52-1.15-.18-.16-.38-.3-.57-.45-.21-.18-.45-.36-.68-.54-.11-.09-.23-.18-.34-.27-.34-.29-.68-.56-1.02-.84-.27-.21-.52-.43-.79-.64-.25-.22-.52-.43-.77-.65-.14-.11-.27-.23-.41-.34-.48-.43-.97-.84-1.45-1.25-.09-.09-.18-.16-.27-.25-.09-.07-.18-.16-.27-.23-.23-.22-.45-.41-.68-.61l-.64-.59c-.43-.39-.86-.79-1.27-1.2-2.76-2.6-5.38-5.32-7.87-8.15-1.67-1.92-3.28-3.87-4.82-5.88,1.29-.81,2.58-1.58,3.89-2.33,1.63-.93,3.3-1.81,5-2.63,.11-.05,.22-.09,.32-.13,.02,.05,.05,.09,.07,.13-.02-.04-.02-.07-.04-.13,.68-.14,1.4,.25,1.67,.93,.84,2.17,1.74,4.34,2.69,6.45,2.76,6.26,5.93,12.31,9.48,18.15,.9,1.47,1.81,2.94,2.78,4.39Z"/><path class="cls-4" d="M228,34.49c-.71,4.8-1.66,9.61-2.84,14.42-.5,2.05-1.05,4.09-1.64,6.14-.59,2.03-1.21,4.03-1.87,6.01-2.04,.11-4.1,.16-6.17,.16-9.79,0-19.3-1.2-28.39-3.46h0c-.25-2.16-.55-4.3-.89-6.43-1.08-6.75-2.6-13.4-4.54-19.9,9.12,2.28,18.66,3.48,28.49,3.48,6.02,0,11.93-.45,17.71-1.33,.14,.28,.2,.6,.15,.91Z"/><path class="cls-2" d="M227.85,33.57c-5.78,.87-11.69,1.33-17.71,1.33-9.82,0-19.37-1.21-28.49-3.48-1.15-3.85-2.44-7.65-3.88-11.39-.34-.89,.21-1.87,1.15-2.01,8.07-1.14,16.5-.63,24.83,1.78,9.17,2.65,17.21,7.31,23.78,13.36,.13,.12,.24,.26,.32,.42Z"/><path class="cls-6" d="M230.49,133.38s-.02,.03-.03,.05c-1.42,2.56-2.7,5.16-3.86,7.79-1.74,3.95-3.2,7.96-4.38,12.01-8.13-4.54-17.1-7.75-26.63-9.32,8.7-2.24,17.19-5.23,25.39-8.93,2.54-1.15,5.04-2.36,7.52-3.64,1.32-.68,2.7,.75,1.98,2.05Z"/><path class="cls-19" d="M222.23,153.22c-1.66,5.73-2.77,11.53-3.34,17.35-11.57-11.61-26.59-19.79-43.4-22.86,6.78-.83,13.5-2.1,20.11-3.8,9.53,1.57,18.51,4.77,26.63,9.32Z"/><path class="cls-15" d="M218.84,188.89c.09,.94-.69,1.73-1.63,1.64-9.9-1.05-19.78-3.05-29.5-6.07-10.03-3.1-19.89-7.27-29.45-12.55-1.46-.81-2.9-1.63-4.33-2.48,.21-3.42,.63-6.79,1.25-10.09,.67-3.58,1.57-7.09,2.69-10.49,5.9-.05,11.78-.44,17.61-1.15,16.8,3.07,31.82,11.25,43.4,22.86-.6,6.13-.61,12.26-.05,18.33Z"/></g></g><g><g><g><rect class="cls-16" x="550.72" y="77.21" width="35.57" height="10.99"/><path class="cls-16" d="M550.72,112.77v10.99h11.84c1.54,0,2.32,1.87,1.22,2.96l-13.28,13.28,7.77,7.77,14.07-14.07c1.09-1.09,2.96-.32,2.96,1.22v13.41h10.99v-35.57h-35.57Z"/><path class="cls-16" d="M604.25,137.35h-11.16v10.99h28.78v-35.57h-10.99v17.96c0,3.66-2.96,6.62-6.62,6.62Z"/><rect class="cls-16" x="550.72" y="94.99" width="17.78" height="10.99"/><path class="cls-16" d="M580.8,94.99h0c-3.04,0-5.5,2.46-5.5,5.5h0c0,3.04,2.46,5.5,5.5,5.5h0c3.04,0,5.5-2.46,5.5-5.5h0c0-3.04-2.46-5.5-5.5-5.5Z"/><rect class="cls-16" x="593.09" y="77.21" width="28.78" height="10.99"/><path class="cls-16" d="M593.09,94.99v35.57h10.99v-17.96c0-3.66,2.96-6.62,6.62-6.62h11.16v-10.99h-28.78Z"/></g><g><path class="cls-16" d="M488.35,88.2h26.67v-11h-71.13v11h26.67c1.88,0,3.41,1.51,3.41,3.39s-1.52,3.4-3.41,3.4h-26.67v10.99h6.02c.77,0,1.17,.93,.61,1.49l-4.37,4.37c-.59,.59-1.42,.93-2.26,.93v10.99h56.74c1.88,0,3.4,1.52,3.4,3.4s-1.52,3.39-3.4,3.39h-8.89v11h23.28v-28.78c-.84,0-1.67-.34-2.26-.93l-4.37-4.37c-.56-.56-.16-1.49,.61-1.49h6.02v-10.99h-26.67c-1.88,0-3.4-1.52-3.4-3.4s1.52-3.39,3.4-3.39Zm-14.39,23.6c0,.54-.43,.97-.97,.97h-10.14c-.77,0-1.16-.93-.61-1.49l4.3-4.3c.64-.64,1.51-1,2.42-1h4.03c.54,0,.97,.43,.97,.95v4.87Zm11.94-5.82h4.05c.9,0,1.77,.36,2.4,1l4.32,4.3c.56,.56,.16,1.49-.61,1.49h-10.16c-.52,0-.95-.43-.95-.97v-4.87c0-.52,.43-.95,.95-.95Z"/><path class="cls-16" d="M443.88,141.55h23.28c3.75,0,6.79,3.04,6.79,6.79h10.99v-17.78h-41.06v10.99Z"/></g><g><path class="cls-16" d="M337.25,77.2v71.15h71.13V77.2h-71.13Zm10.99,40.22v-26.65c0-1.42,1.15-2.56,2.56-2.56h26.67c2.28,0,3.42,2.76,1.81,4.37l-26.65,26.67c-1.61,1.61-4.39,.47-4.39-1.83Zm49.16,17.29c0,1.45-1.18,2.63-2.63,2.63h-38.33c-2.37,0-3.53-2.83-1.88-4.5l38.35-38.33c1.65-1.67,4.5-.48,4.5,1.86v38.33Z"/><path class="cls-16" d="M384.19,117.34c-3.23-.25-5.9,2.42-5.64,5.64,.2,2.54,2.26,4.59,4.79,4.79,3.23,.25,5.9-2.42,5.64-5.64-.2-2.54-2.26-4.59-4.79-4.79Z"/></g></g><g><g><path class="cls-16" d="M349.15,166.73c-.32-.22-.91-.56-1.51-.56-.14,0-.37,.02-.51,.13-.1,.08-.13,.16-.13,.27,0,.16,.02,.3,.43,.39l.86,.19c.66,.14,1.05,.41,1.27,.63,.47,.46,.57,1.02,.57,1.47,0,.63-.17,1.22-.67,1.75-.42,.43-1.22,.95-2.61,.95-1.14,0-1.89-.32-2.53-.58l-.24-.1,.81-2.09,.29,.22c.28,.21,.85,.55,1.5,.55,.37,0,.52-.09,.58-.13,.12-.1,.14-.22,.14-.33,0-.07-.01-.18-.09-.26-.09-.09-.23-.12-.51-.18l-.66-.12c-.42-.08-.88-.21-1.29-.63-.38-.39-.53-.83-.53-1.37,0-.69,.23-1.28,.72-1.77,.57-.58,1.4-.96,2.58-.96,.59,0,1.36,.1,2.26,.65l-.72,1.89Z"/><path class="cls-16" d="M370.75,171.78v-7.42h2.59v2.51h1.65v-2.51h2.59v7.42h-2.59v-2.58h-1.65v2.58h-2.59Z"/><path class="cls-16" d="M398.55,171.78v-7.42h2.69v7.42h-2.69Z"/></g><g><path class="cls-16" d="M464.24,171.78v-7.42h2.58v2.3c0,.33-.01,.6-.06,.94h.06c.16-.42,.26-.59,.39-.83l1.28-2.4h2.92l-2.31,3.64,2.56,3.78h-3.12l-1.36-2.38c-.13-.22-.26-.49-.36-.71h-.06c.04,.26,.06,.46,.06,.7v2.39h-2.58Z"/><path class="cls-16" d="M491.96,171.78v-7.42h2.69v7.42h-2.69Z"/></g><g><path class="cls-16" d="M562.57,166.73c-.32-.22-.91-.56-1.51-.56-.14,0-.37,.02-.51,.13-.1,.08-.13,.16-.13,.27,0,.16,.02,.3,.43,.39l.86,.19c.66,.14,1.05,.41,1.27,.63,.47,.46,.57,1.02,.57,1.47,0,.63-.17,1.22-.67,1.75-.42,.43-1.22,.95-2.61,.95-1.14,0-1.89-.32-2.53-.58l-.24-.1,.81-2.09,.29,.22c.28,.21,.85,.55,1.5,.55,.37,0,.52-.09,.58-.13,.12-.1,.14-.22,.14-.33,0-.07-.01-.18-.09-.26-.09-.09-.23-.12-.51-.18l-.66-.12c-.42-.08-.88-.21-1.29-.63-.38-.39-.53-.83-.53-1.37,0-.69,.23-1.28,.72-1.77,.57-.58,1.4-.96,2.58-.96,.59,0,1.36,.1,2.26,.65l-.72,1.89Z"/><path class="cls-16" d="M586.48,170.86l-.2,.92h-2.85l2.57-7.42h2.98l2.65,7.42h-2.86l-.25-.92h-2.05Zm1.09-4.02h-.1c-.01,.31-.06,.57-.12,.83l-.37,1.42h1.08l-.34-1.42c-.07-.29-.11-.57-.15-.83Z"/><path class="cls-16" d="M611.85,171.78v-7.42h2.69v7.42h-2.69Z"/></g></g></g></g></g></svg>