<?xml version="1.0" encoding="UTF-8"?><svg id="_イヤー_2" xmlns="http://www.w3.org/2000/svg" viewBox="0 0 699.37 241.69"><defs><style>.cls-1{fill:#666;}.cls-2{fill:none;stroke:#fff;stroke-miterlimit:10;stroke-width:.73px;}</style></defs><g id="_イヤー_1-2"><g><g><g><rect class="cls-1" x="511.18" y="27.96" width="80.24" height="24.8"/><path class="cls-1" d="M511.18,108.19v24.8h26.7c3.48,0,5.22,4.21,2.76,6.67l-29.95,29.95,17.53,17.53,31.73-31.73c2.46-2.46,6.67-.72,6.67,2.76v30.26h24.79V108.19h-80.24Z"/><path class="cls-1" d="M631.92,163.64h-25.18v24.79h64.91V108.19h-24.8v40.51c0,8.25-6.69,14.94-14.94,14.94Z"/><rect class="cls-1" x="511.18" y="68.08" width="40.12" height="24.79"/><path class="cls-1" d="M579.02,68.08h0c-6.85,0-12.4,5.55-12.4,12.4h0c0,6.85,5.55,12.4,12.4,12.4h0c6.85,0,12.4-5.55,12.4-12.4h0c0-6.85-5.55-12.4-12.4-12.4Z"/><rect class="cls-1" x="606.74" y="27.96" width="64.91" height="24.8"/><path class="cls-1" d="M606.74,68.08v80.24h24.8v-40.51c0-8.25,6.69-14.94,14.94-14.94h25.18v-24.79h-64.91Z"/></g><g><path class="cls-1" d="M370.47,52.77h60.16V27.95h-160.46v24.82h60.16c4.25,0,7.68,3.4,7.68,7.64s-3.44,7.68-7.68,7.68h-60.16v24.78h13.58c1.74,0,2.63,2.1,1.37,3.36l-9.86,9.86c-1.33,1.33-3.19,2.1-5.1,2.1v24.78h128c4.25,0,7.68,3.44,7.68,7.68s-3.44,7.64-7.68,7.64h-20.05v24.82h52.52V108.2c-1.9,0-3.76-.77-5.09-2.1l-9.86-9.86c-1.25-1.25-.36-3.36,1.37-3.36h13.58v-24.78h-60.16c-4.24,0-7.68-3.44-7.68-7.68s3.44-7.64,7.68-7.64Zm-32.46,53.24c0,1.21-.97,2.18-2.18,2.18h-22.88c-1.74,0-2.63-2.1-1.37-3.36l9.7-9.7c1.45-1.45,3.4-2.26,5.46-2.26h9.1c1.21,0,2.18,.97,2.18,2.14v11Zm26.92-13.14h9.14c2.02,0,4,.81,5.42,2.26l9.74,9.7c1.25,1.25,.36,3.36-1.37,3.36h-22.92c-1.17,0-2.14-.97-2.14-2.18v-11c0-1.17,.97-2.14,2.14-2.14Z"/><path class="cls-1" d="M270.15,173.11h52.52c8.46,0,15.32,6.86,15.32,15.32h24.8v-40.12h-92.63v24.8Z"/></g><g><path class="cls-1" d="M29.61,27.95V188.45H190.07V27.95H29.61Zm24.78,90.72V58.55c0-3.19,2.59-5.78,5.78-5.78h60.16c5.13,0,7.72,6.23,4.08,9.86l-60.12,60.16c-3.64,3.64-9.9,1.05-9.9-4.12Zm110.89,39.01c0,3.27-2.67,5.94-5.94,5.94H72.87c-5.34,0-7.96-6.39-4.25-10.15l86.52-86.48c3.72-3.76,10.15-1.09,10.15,4.2v86.48Z"/><path class="cls-1" d="M135.51,118.5c-7.28-.57-13.3,5.45-12.73,12.73,.45,5.72,5.09,10.36,10.81,10.81,7.28,.57,13.3-5.45,12.73-12.73-.45-5.72-5.09-10.36-10.81-10.81Z"/></g><g><g><path class="cls-1" d="M56.45,229.91c-.73-.5-2.06-1.26-3.42-1.26-.33,0-.83,.05-1.15,.3-.23,.18-.3,.35-.3,.6,0,.35,.05,.68,.98,.88l1.93,.43c1.48,.33,2.36,.93,2.86,1.43,1.05,1.03,1.28,2.31,1.28,3.31,0,1.43-.38,2.76-1.51,3.94-.95,.98-2.76,2.13-5.9,2.13-2.56,0-4.27-.73-5.7-1.31l-.55-.23,1.83-4.72,.65,.5c.63,.48,1.91,1.23,3.39,1.23,.83,0,1.18-.2,1.3-.3,.28-.23,.33-.5,.33-.75,0-.15-.02-.4-.2-.58-.2-.2-.53-.28-1.15-.4l-1.48-.28c-.95-.18-1.98-.48-2.91-1.43-.85-.88-1.21-1.88-1.21-3.09,0-1.56,.53-2.89,1.63-3.99,1.28-1.31,3.16-2.16,5.83-2.16,1.33,0,3.06,.23,5.1,1.46l-1.63,4.27Z"/><path class="cls-1" d="M105.18,241.31v-16.75h5.85v5.67h3.72v-5.67h5.85v16.75h-5.85v-5.83h-3.72v5.83h-5.85Z"/><path class="cls-1" d="M167.89,241.31v-16.75h6.08v16.75h-6.08Z"/></g><g><path class="cls-1" d="M316.09,241.31v-16.75h5.83v5.2c0,.75-.03,1.36-.13,2.11h.13c.35-.96,.58-1.33,.88-1.88l2.89-5.42h6.58l-5.22,8.21,5.77,8.54h-7.03l-3.06-5.37c-.3-.5-.58-1.1-.8-1.61h-.13c.1,.58,.13,1.03,.13,1.58v5.4h-5.83Z"/><path class="cls-1" d="M378.6,241.31v-16.75h6.08v16.75h-6.08Z"/></g><g><path class="cls-1" d="M537.91,229.91c-.73-.5-2.06-1.26-3.42-1.26-.33,0-.83,.05-1.15,.3-.23,.18-.3,.35-.3,.6,0,.35,.05,.68,.98,.88l1.93,.43c1.48,.33,2.36,.93,2.86,1.43,1.05,1.03,1.28,2.31,1.28,3.31,0,1.43-.38,2.76-1.51,3.94-.95,.98-2.76,2.13-5.9,2.13-2.56,0-4.27-.73-5.7-1.31l-.55-.23,1.83-4.72,.65,.5c.63,.48,1.91,1.23,3.39,1.23,.83,0,1.18-.2,1.3-.3,.28-.23,.33-.5,.33-.75,0-.15-.02-.4-.2-.58-.2-.2-.53-.28-1.15-.4l-1.48-.28c-.95-.18-1.98-.48-2.91-1.43-.85-.88-1.21-1.88-1.21-3.09,0-1.56,.53-2.89,1.63-3.99,1.28-1.31,3.16-2.16,5.83-2.16,1.33,0,3.06,.23,5.1,1.46l-1.63,4.27Z"/><path class="cls-1" d="M591.83,239.23l-.45,2.08h-6.43l5.8-16.75h6.73l5.98,16.75h-6.45l-.55-2.08h-4.62Zm2.46-9.06h-.23c-.03,.7-.13,1.28-.28,1.88l-.83,3.21h2.44l-.78-3.21c-.15-.65-.25-1.28-.33-1.88Z"/><path class="cls-1" d="M649.07,241.31v-16.75h6.08v16.75h-6.08Z"/></g></g></g><g><line class="cls-2" x1="1.65" y1="241.31" x2="699.37" y2="241.31"/><line class="cls-2" x1="29.61" y1="216.39" x2="29.61"/><line class="cls-2" x1="54.4" y1="216.39" x2="54.4"/><line class="cls-2" x1="165.29" y1="216.39" x2="165.29"/><line class="cls-2" x1="1.65" y1="52.77" x2="218.04" y2="52.77"/><line class="cls-2" x1="244.16" y1="52.77" x2="460.55" y2="52.77"/><line class="cls-2" x1="244.16" y1="68.08" x2="460.55" y2="68.08"/><line class="cls-2" x1="244.16" y1="92.87" x2="460.55" y2="92.87"/><line class="cls-2" x1="244.16" y1="108.2" x2="460.55" y2="108.2"/><line class="cls-2" x1="482.97" y1="163.64" x2="699.37" y2="163.64"/><line class="cls-2" x1="482.97" y1="148.31" x2="699.37" y2="148.31"/><line class="cls-2" x1="482.97" y1="132.98" x2="699.37" y2="132.98"/><line class="cls-2" x1="482.97" y1="108.2" x2="699.37" y2="108.2"/><line class="cls-2" x1="482.97" y1="92.87" x2="699.37" y2="92.87"/><line class="cls-2" x1="482.97" y1="68.07" x2="699.37" y2="68.07"/><line class="cls-2" x1="482.97" y1="52.75" x2="699.37" y2="52.75"/><line class="cls-2" x1="244.16" y1="132.98" x2="460.55" y2="132.98"/><line class="cls-2" x1="244.16" y1="148.31" x2="460.55" y2="148.31"/><line class="cls-2" x1="244.16" y1="173.08" x2="460.55" y2="173.08"/><line class="cls-2" x1="1.65" y1="163.62" x2="218.04" y2="163.62"/><line class="cls-2" x1="190.07" y1="216.39" x2="190.07"/><line class="cls-2" x1="15.33" y1="206.8" x2="211.57" y2="10.57"/><line class="cls-2" x1="251.75" y1="129.6" x2="368.48" y2="12.87"/><line class="cls-2" x1=".26" y1="186.81" x2="183.15" y2="3.91"/><line class="cls-2" x1="1.65" y1="27.94" x2="699.37" y2="27.94"/><line class="cls-2" x1="1.65" y1="188.45" x2="699.37" y2="188.45"/><line class="cls-2" x1="1.65" y1="224.19" x2="699.37" y2="224.19"/><line class="cls-2" x1="270.16" y1="216.39" x2="270.16"/><line class="cls-2" x1="338" y1="216.39" x2="338"/><line class="cls-2" x1="362.78" y1="216.39" x2="362.78"/><line class="cls-2" x1="378.11" y1="216.94" x2="378.11" y2=".55"/><line class="cls-2" x1="430.62" y1="216.39" x2="430.62"/><line class="cls-2" x1="511.18" y1="216.39" x2="511.18"/><line class="cls-2" x1="566.62" y1="216.39" x2="566.62"/><line class="cls-2" x1="551.3" y1="216.39" x2="551.3"/><line class="cls-2" x1="631.53" y1="216.39" x2="631.53"/><line class="cls-2" x1="591.42" y1="216.39" x2="591.42"/><line class="cls-2" x1="606.74" y1="216.39" x2="606.74"/><line class="cls-2" x1="671.65" y1="216.39" x2="671.65"/><line class="cls-2" x1="646.86" y1="216.39" x2="646.86"/><circle class="cls-2" cx="134.55" cy="130.27" r="11.81"/><circle class="cls-2" cx="72.85" cy="157.66" r="5.96"/><circle class="cls-2" cx="159.32" cy="71.19" r="5.96"/><circle class="cls-2" cx="159.32" cy="157.66" r="5.96"/><circle class="cls-2" cx="60.37" cy="58.72" r="5.96"/><circle class="cls-2" cx="60.36" cy="118.53" r="5.96"/><circle class="cls-2" cx="120.16" cy="58.73" r="5.96"/><circle class="cls-2" cx="579.02" cy="80.47" r="11.81"/><circle class="cls-2" cx="398.19" cy="140.64" r="7.66"/><circle class="cls-2" cx="370.45" cy="60.41" r="7.66"/><circle class="cls-2" cx="330.34" cy="60.41" r="7.66"/><circle class="cls-2" cx="335.94" cy="94.93" r="2.07"/><circle class="cls-2" cx="283.76" cy="94.81" r="1.95"/><circle class="cls-2" cx="417.21" cy="94.81" r="1.95"/><circle class="cls-2" cx="326.81" cy="100.53" r="7.66"/><circle class="cls-2" cx="270.16" cy="100.53" r="7.66"/><circle class="cls-2" cx="430.62" cy="100.53" r="7.66"/><circle class="cls-2" cx="335.94" cy="106.13" r="2.07"/><circle class="cls-2" cx="313.04" cy="106.13" r="2.07"/><circle class="cls-2" cx="364.85" cy="94.93" r="2.07"/><circle class="cls-2" cx="373.98" cy="100.53" r="7.66"/><circle class="cls-2" cx="364.85" cy="106.13" r="2.07"/><circle class="cls-2" cx="387.75" cy="106.13" r="2.07"/><circle class="cls-2" cx="322.65" cy="188.47" r="15.35"/><circle class="cls-2" cx="631.55" cy="148.41" r="15.31"/><circle class="cls-2" cx="562.69" cy="158.23" r="3.93"/><circle class="cls-2" cx="537.85" cy="136.91" r="3.93"/><circle class="cls-2" cx="646.86" cy="108.18" r="15.32"/><line class="cls-2" x1="251.4" y1="165" x2="403.54" y2="12.87"/><line class="cls-2" x1="499.19" y1="181.1" x2="561.33" y2="118.96"/><line class="cls-2" x1="515.53" y1="199.82" x2="577.45" y2="137.9"/><line class="cls-2" x1="536.38" y1="195.29" x2="502.87" y2="161.79"/><line class="cls-2" x1="447.53" y1="128.1" x2="332.93" y2="13.49"/><line class="cls-2" x1="448" y1="163.62" x2="297.86" y2="13.49"/></g></g></g></svg>