<svg xmlns="http://www.w3.org/2000/svg" id="_イヤー_2" viewBox="0 0 699.37 241.69"><defs><style>.cls-1{fill:#666}.cls-2{fill:none;stroke:#fff;stroke-miterlimit:10;stroke-width:.73px}</style></defs><g id="_イヤー_1-2"><path d="M511.18 27.96h80.24v24.8h-80.24zm0 80.23v24.8h26.7a3.9 3.9 0 0 1 2.76 6.67l-29.95 29.95 17.53 17.53 31.73-31.73a3.9 3.9 0 0 1 6.67 2.76v30.26h24.79v-80.24h-80.24Zm120.74 55.45h-25.18v24.79h64.91v-80.24h-24.8v40.51c0 8.25-6.69 14.94-14.94 14.94ZM511.18 68.08h40.12v24.79h-40.12zm67.84 0a12.4 12.4 0 1 0 0 24.8 12.4 12.4 0 1 0 0-24.8m27.72-40.12h64.91v24.8h-64.91z" class="cls-1"/><path d="M606.74 68.08v80.24h24.8v-40.51c0-8.25 6.69-14.94 14.94-14.94h25.18V68.08zM370.47 52.77h60.16V27.95H270.17v24.82h60.16c4.25 0 7.68 3.4 7.68 7.64s-3.44 7.68-7.68 7.68h-60.16v24.78h13.58c1.74 0 2.63 2.1 1.37 3.36l-9.86 9.86a7.3 7.3 0 0 1-5.1 2.1v24.78h128a7.65 7.65 0 1 1 0 15.32h-20.05v24.82h52.52V108.2c-1.9 0-3.76-.77-5.09-2.1l-9.86-9.86a1.96 1.96 0 0 1 1.37-3.36h13.58V68.1h-60.16a7.65 7.65 0 1 1 0-15.32Zm-32.46 53.24c0 1.21-.97 2.18-2.18 2.18h-22.88a1.96 1.96 0 0 1-1.37-3.36l9.7-9.7a7.7 7.7 0 0 1 5.46-2.26h9.1c1.21 0 2.18.97 2.18 2.14v11Zm26.92-13.14h9.14c2.02 0 4 .81 5.42 2.26l9.74 9.7a1.96 1.96 0 0 1-1.37 3.36h-22.92a2.16 2.16 0 0 1-2.14-2.18v-11c0-1.17.97-2.14 2.14-2.14Z" class="cls-1"/><path d="M270.15 173.11h52.52c8.46 0 15.32 6.86 15.32 15.32h24.8v-40.12h-92.63zM29.61 27.95v160.5h160.46V27.95zm24.78 90.72V58.55a5.8 5.8 0 0 1 5.78-5.78h60.16a5.78 5.78 0 0 1 4.08 9.86l-60.12 60.16a5.8 5.8 0 0 1-9.9-4.12m110.89 39.01a5.95 5.95 0 0 1-5.94 5.94H72.87a5.96 5.96 0 0 1-4.25-10.15l86.52-86.48a5.95 5.95 0 0 1 10.15 4.2z" class="cls-1"/><path d="M135.51 118.5a11.81 11.81 0 1 0-1.91 23.55 11.81 11.81 0 0 0 1.91-23.55M56.45 229.91a6.5 6.5 0 0 0-3.42-1.26c-.33 0-.83.05-1.15.3-.23.18-.3.35-.3.6 0 .35.05.68.98.88l1.93.43c1.48.33 2.36.93 2.86 1.43a4.5 4.5 0 0 1 1.28 3.31 5.4 5.4 0 0 1-1.51 3.94c-.95.98-2.76 2.13-5.9 2.13-2.56 0-4.27-.73-5.7-1.31l-.55-.23 1.83-4.72.65.5a6 6 0 0 0 3.39 1.23c.83 0 1.18-.2 1.3-.3a.9.9 0 0 0 .33-.75c0-.15-.02-.4-.2-.58-.2-.2-.53-.28-1.15-.4l-1.48-.28a5 5 0 0 1-2.91-1.43 4.2 4.2 0 0 1-1.21-3.09q-.01-2.34 1.63-3.99c1.28-1.31 3.16-2.16 5.83-2.16a9.5 9.5 0 0 1 5.1 1.46l-1.63 4.27Zm48.73 11.4v-16.75h5.85v5.67h3.72v-5.67h5.85v16.75h-5.85v-5.83h-3.72v5.83zm62.71 0v-16.75h6.08v16.75zm148.2 0v-16.75h5.83v5.2c0 .75-.03 1.36-.13 2.11h.13c.35-.96.58-1.33.88-1.88l2.89-5.42h6.58l-5.22 8.21 5.77 8.54h-7.03l-3.06-5.37c-.3-.5-.58-1.1-.8-1.61h-.13c.1.58.13 1.03.13 1.58v5.4h-5.83Zm62.51 0v-16.75h6.08v16.75zm159.31-11.4a6.5 6.5 0 0 0-3.42-1.26c-.33 0-.83.05-1.15.3-.23.18-.3.35-.3.6 0 .35.05.68.98.88l1.93.43c1.48.33 2.36.93 2.86 1.43a4.5 4.5 0 0 1 1.28 3.31 5.4 5.4 0 0 1-1.51 3.94c-.95.98-2.76 2.13-5.9 2.13-2.56 0-4.27-.73-5.7-1.31l-.55-.23 1.83-4.72.65.5a6 6 0 0 0 3.39 1.23c.83 0 1.18-.2 1.3-.3a.9.9 0 0 0 .33-.75c0-.15-.02-.4-.2-.58-.2-.2-.53-.28-1.15-.4l-1.48-.28a5 5 0 0 1-2.91-1.43 4.2 4.2 0 0 1-1.21-3.09q-.01-2.34 1.63-3.99c1.28-1.31 3.16-2.16 5.83-2.16a9.5 9.5 0 0 1 5.1 1.46l-1.63 4.27Zm53.92 9.32-.45 2.08h-6.43l5.8-16.75h6.73l5.98 16.75h-6.45l-.55-2.08zm2.46-9.06h-.23c-.03.7-.13 1.28-.28 1.88l-.83 3.21h2.44l-.78-3.21q-.22-.98-.33-1.88Zm54.78 11.14v-16.75h6.08v16.75z" class="cls-1"/><path d="M1.65 241.31h697.72M29.61 216.39V0M54.4 216.39V0m110.89 216.39V0M1.65 52.77h216.39m26.12 0h216.39M244.16 68.08h216.39M244.16 92.87h216.39M244.16 108.2h216.39m22.42 55.44h216.4m-216.4-15.33h216.4m-216.4-15.33h216.4m-216.4-24.78h216.4m-216.4-15.33h216.4m-216.4-24.8h216.4m-216.4-15.32h216.4m-455.21 80.23h216.39m-216.39 15.33h216.39m-216.39 24.77h216.39m-458.9-9.46h216.39m-27.97 52.77V0M15.33 206.8 211.57 10.57m40.18 119.03L368.48 12.87M.26 186.81 183.15 3.91M1.65 27.94h697.72M1.65 188.45h697.72M1.65 224.19h697.72m-429.21-7.8V0M338 216.39V0m24.78 216.39V0m15.33 216.94V.55m52.51 215.84V0m80.56 216.39V0m55.44 216.39V0M551.3 216.39V0m80.23 216.39V0m-40.11 216.39V0m15.32 216.39V0m64.91 216.39V0m-24.79 216.39V0" class="cls-2"/><circle cx="134.55" cy="130.27" r="11.81" class="cls-2"/><circle cx="72.85" cy="157.66" r="5.96" class="cls-2"/><circle cx="159.32" cy="71.19" r="5.96" class="cls-2"/><circle cx="159.32" cy="157.66" r="5.96" class="cls-2"/><circle cx="60.37" cy="58.72" r="5.96" class="cls-2"/><circle cx="60.36" cy="118.53" r="5.96" class="cls-2"/><circle cx="120.16" cy="58.73" r="5.96" class="cls-2"/><circle cx="579.02" cy="80.47" r="11.81" class="cls-2"/><circle cx="398.19" cy="140.64" r="7.66" class="cls-2"/><circle cx="370.45" cy="60.41" r="7.66" class="cls-2"/><circle cx="330.34" cy="60.41" r="7.66" class="cls-2"/><circle cx="335.94" cy="94.93" r="2.07" class="cls-2"/><circle cx="283.76" cy="94.81" r="1.95" class="cls-2"/><circle cx="417.21" cy="94.81" r="1.95" class="cls-2"/><circle cx="326.81" cy="100.53" r="7.66" class="cls-2"/><circle cx="270.16" cy="100.53" r="7.66" class="cls-2"/><circle cx="430.62" cy="100.53" r="7.66" class="cls-2"/><circle cx="335.94" cy="106.13" r="2.07" class="cls-2"/><circle cx="313.04" cy="106.13" r="2.07" class="cls-2"/><circle cx="364.85" cy="94.93" r="2.07" class="cls-2"/><circle cx="373.98" cy="100.53" r="7.66" class="cls-2"/><circle cx="364.85" cy="106.13" r="2.07" class="cls-2"/><circle cx="387.75" cy="106.13" r="2.07" class="cls-2"/><circle cx="322.65" cy="188.47" r="15.35" class="cls-2"/><circle cx="631.55" cy="148.41" r="15.31" class="cls-2"/><circle cx="562.69" cy="158.23" r="3.93" class="cls-2"/><circle cx="537.85" cy="136.91" r="3.93" class="cls-2"/><circle cx="646.86" cy="108.18" r="15.32" class="cls-2"/><path d="M251.4 165 403.54 12.87m95.65 168.23 62.14-62.14m-45.8 80.86 61.92-61.92m-41.07 57.39-33.51-33.5m-55.34-33.69L332.93 13.49M448 163.62 297.86 13.49" class="cls-2"/></g></svg>