<?xml version="1.0" encoding="UTF-8"?><svg id="_イヤー_2" xmlns="http://www.w3.org/2000/svg" viewBox="0 0 117.12 13.68"><defs><style>.cls-1{fill:#fff;}.cls-2{fill:#333;}</style></defs><g id="_イヤー_1-2"><g><rect class="cls-2" width="117.12" height="13.68"/><g><path class="cls-1" d="M20.13,4.06h-1.88c.19,.27,.35,.53,.45,.75l-1.03,.4h1.51v2.83h-3.46v.65h4.1s-.01,.31-.02,.46c-.11,1.48-.24,2.19-.53,2.49-.24,.27-.5,.35-.84,.39-.31,.03-.84,.03-1.4,.02-.02-.39-.18-.88-.36-1.19,.46,.04,.92,.06,1.13,.04,.17,0,.27-.01,.38-.1,.11-.11,.19-.41,.27-1.02h-2.71v2.73h-1.27v-2.19c-.98,.89-2.26,1.65-3.5,2.07-.18-.31-.55-.78-.82-1.03,1.16-.32,2.39-.91,3.28-1.58h-1.29l-.07,.25-1.33-.15c.25-.78,.56-1.96,.73-2.92h2.99v-.69h-3.39v-1.07h1.49c-.1-.33-.3-.76-.52-1.15h-.14c-.32,.49-.67,.93-1.01,1.27-.24-.21-.76-.55-1.06-.72,.71-.6,1.36-1.57,1.72-2.51l1.21,.33c-.08,.2-.18,.41-.28,.61h2.46v.87c.45-.52,.83-1.16,1.07-1.81l1.24,.31c-.08,.21-.18,.42-.28,.63h3.14v1.02Zm-5.67,3.98h-1.9l-.15,.65h2.05v-.65Zm-1.09-3.98c.14,.27,.28,.54,.34,.75l-.9,.4h2.57c-.26-.22-.76-.55-1.05-.71,.17-.13,.33-.28,.49-.44h-1.46Zm4.18,1.15c-.13-.32-.42-.76-.7-1.15h-.44c-.3,.44-.63,.84-.95,1.15h2.09Zm.35,1.07h-2.17v.69h2.17v-.69Z"/><path class="cls-1" d="M34.73,10.58l.75-1.04c.46,.45,1.04,.83,1.8,.83,.85,0,1.45-.5,1.45-1.39s-.55-1.38-1.38-1.38c-.49,0-.75,.12-1.23,.43l-.74-.48,.22-3.98h4.37v1.36h-2.97l-.15,1.73c.33-.14,.61-.22,.98-.22,1.37,0,2.52,.77,2.52,2.47s-1.35,2.77-2.86,2.77c-1.29,0-2.15-.51-2.76-1.12Z"/><path class="cls-1" d="M52.5,9.51c0-.98,.65-1.61,1.4-2.01v-.04c-.62-.45-1.08-1.04-1.08-1.88,0-1.31,1.05-2.15,2.46-2.15s2.38,.86,2.38,2.17c0,.78-.53,1.43-1.05,1.79v.06c.74,.42,1.37,1,1.37,2.08,0,1.24-1.09,2.19-2.75,2.19-1.56,0-2.73-.91-2.73-2.19Zm3.97-.06c0-.8-.76-1.08-1.81-1.51-.43,.34-.75,.83-.75,1.39,0,.74,.61,1.22,1.37,1.22,.7,0,1.19-.39,1.19-1.09Zm-.13-3.76c0-.66-.4-1.13-1.08-1.13-.55,0-.99,.35-.99,1,0,.73,.64,1.07,1.49,1.4,.38-.4,.59-.83,.59-1.28Z"/><path class="cls-1" d="M82.54,2.55V12.5h-1.44v-.59h-6.64v.59h-1.37V2.55h9.45Zm-1.44,8.13V3.9h-6.64v6.78h6.64Zm-1.07-5.48v4.2h-4.51V5.2h4.51Zm-1.33,1.15h-1.94v1.91h1.94v-1.91Z"/></g></g></g></svg>