<svg xmlns="http://www.w3.org/2000/svg" viewBox="0 0 117.12 13.68"><path d="M0 0h117.12v13.68H0z" style="fill:#333"/><path d="M20.13 4.06h-1.88q.3.41.45.75l-1.03.4h1.51v2.83h-3.46v.65h4.1l-.02.46c-.11 1.48-.24 2.19-.53 2.49-.24.27-.5.35-.84.39-.31.03-.84.03-1.4.02a3 3 0 0 0-.36-1.19c.46.04.92.06 1.13.04.17 0 .27-.01.38-.1.11-.11.19-.41.27-1.02h-2.71v2.73h-1.27v-2.19c-.98.89-2.26 1.65-3.5 2.07a5 5 0 0 0-.82-1.03 10 10 0 0 0 3.28-1.58h-1.29l-.07.25-1.33-.15c.25-.78.56-1.96.73-2.92h2.99v-.69h-3.39V5.2h1.49c-.1-.33-.3-.76-.52-1.15h-.14q-.49.75-1.01 1.27a8 8 0 0 0-1.06-.72 6.5 6.5 0 0 0 1.72-2.51l1.21.33q-.12.3-.28.61h2.46v.87c.45-.52.83-1.16 1.07-1.81l1.24.31q-.12.31-.28.63h3.14v1.02Zm-5.67 3.98h-1.9l-.15.65h2.05zm-1.09-3.98q.23.42.34.75l-.9.4h2.57a8 8 0 0 0-1.05-.71q.25-.2.49-.44zm4.18 1.15a7 7 0 0 0-.7-1.15h-.44q-.46.67-.95 1.15zm.35 1.07h-2.17v.69h2.17zm16.83 4.3.75-1.04c.46.45 1.04.83 1.8.83.85 0 1.45-.5 1.45-1.39s-.55-1.38-1.38-1.38c-.49 0-.75.12-1.23.43l-.74-.48.22-3.98h4.37v1.36H37l-.15 1.73c.33-.14.61-.22.98-.22 1.37 0 2.52.77 2.52 2.47s-1.35 2.77-2.86 2.77a3.7 3.7 0 0 1-2.76-1.12ZM52.5 9.51c0-.98.65-1.61 1.4-2.01v-.04c-.62-.45-1.08-1.04-1.08-1.88 0-1.31 1.05-2.15 2.46-2.15s2.38.86 2.38 2.17c0 .78-.53 1.43-1.05 1.79v.06c.74.42 1.37 1 1.37 2.08 0 1.24-1.09 2.19-2.75 2.19-1.56 0-2.73-.91-2.73-2.19Zm3.97-.06c0-.8-.76-1.08-1.81-1.51-.43.34-.75.83-.75 1.39 0 .74.61 1.22 1.37 1.22.7 0 1.19-.39 1.19-1.09Zm-.13-3.76c0-.66-.4-1.13-1.08-1.13-.55 0-.99.35-.99 1 0 .73.64 1.07 1.49 1.4q.58-.6.59-1.28Zm26.2-3.14v9.95H81.1v-.59h-6.64v.59h-1.37V2.55zm-1.44 8.13V3.9h-6.64v6.78zM80.03 5.2v4.2h-4.51V5.2zM78.7 6.35h-1.94v1.91h1.94z" style="fill:#fff"/></svg>