<svg xmlns="http://www.w3.org/2000/svg" viewBox="0 0 117.12 13.68"><path d="M0 0h117.12v13.68H0z" style="fill:#333"/><path d="M10.3 5.49q0-1.7 1.66-2.55l.38.72c-.72.39-1.08.86-1.08 1.57l.12-.01c.48 0 .88.32.88.85 0 .57-.36.93-.88.93-.7 0-1.07-.55-1.07-1.5Zm2.76 0q0-1.7 1.66-2.55l.38.72c-.72.39-1.08.86-1.08 1.57l.12-.01c.48 0 .88.32.88.85 0 .57-.38.93-.88.93-.7 0-1.07-.55-1.07-1.5Zm24.4 1.44v.91h-9.88v-.91h4.25v-.39h-3.18v-.81h3.18v-.36h-3.57V4.5h3.57v-.44h1.28v.44h3.72v.87h-3.72v.36h3.34v.81h-3.34v.39zm-7.57-3.2h-2.26V2.7h2.26v-.5h1.28v.5h2.62v-.5h1.28v.5h2.34v1.03h-2.34v.55h-1.28v-.55h-2.62v.55h-1.28zm6.29 7.62c0 .57-.13.84-.54 1.01-.4.15-.98.17-1.76.15a4 4 0 0 0-.4-.99c.46.02 1.03.01 1.17.01.17-.01.22-.04.22-.18v-.61h-4.68v1.77h-1.28V8.19h7.27zm-5.99-1.56h1.67v-.71h-1.67zm4.68 0v-.71h-1.78v.71zm23.81-4.46a19 19 0 0 1-2.23 4.24q.8.52 1.31 1.02l-.92 1.26a16 16 0 0 0-4.17-2.73l.82-1.1c.54.23 1.14.52 1.72.83.59-.82 1.13-1.81 1.5-2.68h-3.16a12 12 0 0 1-2.32 3.28 9 9 0 0 0-1.27-.74c1.66-1.47 2.86-3.98 3.41-5.98l1.47.33q-.3.88-.69 1.79h3.25l.24-.06 1.02.54Zm23-1.98a11 11 0 0 1-1.87 2.57q.91.79 2.2 1.18a5 5 0 0 0-.82 1.1 6.5 6.5 0 0 1-2.36-1.44v.52h-4.16v-.49a8 8 0 0 1-2.57 1.54 4 4 0 0 0-.7-1.03 7 7 0 0 0 2.03-1.04c-.27-.24-.62-.54-.95-.78l-.35.26a4 4 0 0 0-.81-.85 6.6 6.6 0 0 0 2.44-2.71l1.23.21-.24.45h1.12l.22-.04.64.27-.15-.55 1.13-.23q.2.76.51 1.43v-.87h2.38l.25-.08.85.57Zm-6.85 6.64a7.5 7.5 0 0 1-2.18 2.38 10 10 0 0 0-1.08-.86 5 5 0 0 0 1.94-1.88zm2.54-.63v1.88c0 .61-.13.92-.6 1.09-.45.18-1.06.19-1.87.18a5 5 0 0 0-.44-1.16c.54.02 1.18.02 1.35.01.19 0 .23-.03.23-.17V9.36H72.5V8.18h8.4v1.18zm-4.23-4.43c.34.23.71.51.98.74q.21-.21.41-.45c-.27-.2-.64-.46-.99-.69zm1.04-1.19-.12.17c.33.19.7.41.97.61q.21-.37.38-.77zm4.07 2.39a9 9 0 0 1-1.44-2.78 7.5 7.5 0 0 1-1.48 2.78zm.04-2.21q.31.64.73 1.17c.31-.35.61-.77.85-1.17zm1.12 5.71c.75.59 1.71 1.46 2.18 2.07l-1.16.72c-.41-.6-1.35-1.51-2.11-2.15zm14.68-3.48c.72-.4 1.08-.86 1.08-1.58l-.12.01c-.48 0-.88-.32-.88-.85 0-.56.38-.93.88-.93.7 0 1.07.55 1.07 1.49q0 1.72-1.66 2.56l-.38-.71Zm2.76 0c.72-.4 1.08-.86 1.08-1.58l-.12.01c-.47 0-.88-.32-.88-.85 0-.56.38-.93.88-.93.7 0 1.07.55 1.07 1.49q0 1.72-1.66 2.56l-.38-.71Z" style="fill:#fff"/></svg>