<svg xmlns="http://www.w3.org/2000/svg" viewBox="0 0 117.12 13.68"><path d="M0 0h117.12v13.68H0z" style="fill:#333"/><path d="M16.77 9.18c.94.86 2.29 1.65 3.57 2.08a6 6 0 0 0-.94 1.14 11 11 0 0 1-3.62-2.57v2.68h-1.36V9.88a11 11 0 0 1-3.56 2.5 7 7 0 0 0-.91-1.1 10 10 0 0 0 3.48-2.09H11.2V4.96h3.21v-.63h-4.15V3.1h4.15v-.91h1.36v.91h4.25v1.23h-4.25v.63h3.37v4.22zm-4.3-2.58h1.94v-.65h-1.94zm0 1.6h1.94v-.67h-1.94zm3.3-2.25v.65h2.03v-.65zm2.03 1.58h-2.03v.67h2.03zm20.42-1.02c.73 2.15 2.07 3.89 4.13 4.73-.33.28-.76.86-.97 1.24-2-.94-3.28-2.55-4.14-4.68a7.6 7.6 0 0 1-4.13 4.69c-.21-.36-.6-.84-.98-1.12a6.6 6.6 0 0 0 4.01-4.86h-3.8V5.15h4.02c.11-1.04.1-2.04.11-2.95h1.44c-.01.91-.02 1.92-.13 2.95h4.34v1.36zm23.65.38v1.03h2.2v1.25h-2.2v1.87c0 .7-.14 1.05-.65 1.25-.48.2-1.18.21-2.11.21a5 5 0 0 0-.43-1.3c.62.02 1.35.02 1.55.01.21 0 .28-.04.28-.2V9.18h-3.4a8 8 0 0 1 1.39 1.68l-1.23.77a8 8 0 0 0-1.48-1.91l.87-.54h-2.13V7.93h5.98V6.9h-6.23V5.65h4.28V4.61h-3.3V3.36h3.3V2.17h1.37v1.19h3.57v1.25h-3.57v1.04h4.39V6.9h-2.43Zm24.42 2.73h-4.25v1.47c0 .69-.14 1.03-.69 1.22-.52.19-1.2.21-2.14.21a6 6 0 0 0-.54-1.28c.71.03 1.52.03 1.75.02s.29-.04.29-.2V9.62h-4.24v-1.2h4.24v-.73h.63q.45-.28.85-.61h-3.75V5.94h4.96l.29-.07.83.64c-.63.67-1.49 1.38-2.4 1.9h4.18zm-8.45-3H76.6V3.93h1.5c-.2-.36-.5-.8-.76-1.14l1.12-.5c.39.43.83 1.02 1.01 1.45l-.4.19h1.73a7 7 0 0 0-.7-1.38l1.16-.42c.35.47.72 1.15.86 1.59l-.53.21h1.67c.36-.52.74-1.16.95-1.68l1.42.43q-.46.65-.93 1.25h1.47v2.68h-1.29V5.09h-7.05v1.52Zm30.31-4.01v9.9h-1.28v-.4h-6.9v.4h-1.24v-9.9zm-1.28 8.33V3.79h-6.9v7.15zm-.32-2.28c-.35.28-.76.54-1.13.75q.63.3 1.3.45c-.22.2-.53.59-.66.84a7 7 0 0 1-2.23-1.25v1.24h-1.15V9.54q-.93.57-1.89.92a5 5 0 0 0-.71-.83 9 9 0 0 0 2.55-1.16h-1.73V6.58h5.09v1.71l.55.36Zm-.07-2.41h-6.14v-.74h2.46v-.42h-1.94v-.71h1.94v-.46h1.19v.46h2.03v.71h-2.03v.42h2.49zM102 7.81h2.85v-.55H102zm2.07.7q.27.25.61.49.36-.24.72-.52h-1.29z" style="fill:#fff"/></svg>