<?xml version="1.0" encoding="UTF-8"?><svg id="_イヤー_2" xmlns="http://www.w3.org/2000/svg" viewBox="0 0 117.12 13.68"><defs><style>.cls-1{fill:#fff;}.cls-2{fill:#333;}</style></defs><g id="_イヤー_1-2"><g><rect class="cls-2" width="117.12" height="13.68"/><g><path class="cls-1" d="M16.77,9.18c.94,.86,2.29,1.65,3.57,2.08-.31,.27-.73,.8-.94,1.14-1.29-.54-2.62-1.49-3.62-2.57v2.68h-1.36v-2.63c-.99,1.06-2.28,1.96-3.56,2.5-.21-.32-.62-.84-.91-1.1,1.26-.43,2.56-1.21,3.48-2.09h-2.23V4.96h3.21v-.63h-4.15v-1.23h4.15v-.91h1.36v.91h4.25v1.23h-4.25v.63h3.37v4.22h-2.38Zm-4.3-2.58h1.94v-.65h-1.94v.65Zm0,1.6h1.94v-.67h-1.94v.67Zm3.3-2.25v.65h2.03v-.65h-2.03Zm2.03,1.58h-2.03v.67h2.03v-.67Z"/><path class="cls-1" d="M38.22,6.51c.73,2.15,2.07,3.89,4.13,4.73-.33,.28-.76,.86-.97,1.24-2-.94-3.28-2.55-4.14-4.68-.6,1.84-1.79,3.57-4.13,4.69-.21-.36-.6-.84-.98-1.12,2.53-1.13,3.58-2.96,4.01-4.86h-3.8v-1.36h4.02c.11-1.04,.1-2.04,.11-2.95h1.44c-.01,.91-.02,1.92-.13,2.95h4.34v1.36h-3.89Z"/><path class="cls-1" d="M61.87,6.89v1.03h2.2v1.25h-2.2v1.87c0,.7-.14,1.05-.65,1.25-.48,.2-1.18,.21-2.11,.21-.06-.39-.25-.94-.43-1.3,.62,.02,1.35,.02,1.55,.01,.21,0,.28-.04,.28-.2v-1.83h-3.4c.54,.52,1.13,1.18,1.39,1.68l-1.23,.77c-.25-.55-.91-1.35-1.48-1.91l.87-.54h-2.13v-1.25h5.98v-1.03h-6.23v-1.25h4.28v-1.04h-3.3v-1.25h3.3v-1.19h1.37v1.19h3.57v1.25h-3.57v1.04h4.39v1.25h-2.43Z"/><path class="cls-1" d="M86.29,9.62h-4.25v1.47c0,.69-.14,1.03-.69,1.22-.52,.19-1.2,.21-2.14,.21-.09-.38-.34-.93-.54-1.28,.71,.03,1.52,.03,1.75,.02,.23,0,.29-.04,.29-.2v-1.44h-4.24v-1.2h4.24v-.73h.63c.29-.18,.59-.39,.85-.61h-3.75v-1.14h4.96l.29-.07,.83,.64c-.63,.67-1.49,1.38-2.4,1.9h4.18v1.2Zm-8.45-3h-1.24V3.93h1.5c-.2-.36-.5-.8-.76-1.14l1.12-.5c.39,.43,.83,1.02,1.01,1.45l-.4,.19h1.73c-.15-.43-.43-.96-.7-1.38l1.16-.42c.35,.47,.72,1.15,.86,1.59l-.53,.21h1.67c.36-.52,.74-1.16,.95-1.68l1.42,.43c-.3,.42-.63,.86-.93,1.25h1.47v2.68h-1.29v-1.52h-7.05v1.52Z"/><path class="cls-1" d="M108.15,2.61V12.51h-1.28v-.4h-6.9v.4h-1.24V2.61h9.42Zm-1.28,8.33V3.79h-6.9v7.15h6.9Zm-.32-2.28c-.35,.28-.76,.54-1.13,.75,.41,.19,.86,.35,1.3,.45-.22,.2-.53,.59-.66,.84-.81-.26-1.6-.71-2.23-1.25v1.24h-1.15v-1.15c-.61,.38-1.26,.69-1.89,.92-.13-.21-.49-.63-.71-.83,.91-.27,1.85-.66,2.55-1.16h-1.73v-1.89h5.09v1.71l.55,.36Zm-.07-2.41h-6.14v-.74h2.46v-.42h-1.94v-.71h1.94v-.46h1.19v.46h2.03v.71h-2.03v.42h2.49v.74Zm-4.48,1.56h2.85v-.55h-2.85v.55Zm2.07,.7c.18,.17,.38,.33,.61,.49,.23-.15,.49-.34,.72-.52h-1.29l-.03,.03Z"/></g></g></g></svg>