<?xml version="1.0" encoding="UTF-8"?><svg id="_イヤー_2" xmlns="http://www.w3.org/2000/svg" viewBox="0 0 117.12 13.68"><defs><style>.cls-1{fill:#fff;}.cls-2{fill:#333;}</style></defs><g id="_イヤー_1-2"><g><rect class="cls-2" width="117.12" height="13.68"/><g><path class="cls-1" d="M10.3,5.49c0-1.13,.55-1.98,1.66-2.55l.38,.72c-.72,.39-1.08,.86-1.08,1.57,.04-.01,.08-.01,.12-.01,.48,0,.88,.32,.88,.85,0,.57-.36,.93-.88,.93-.7,0-1.07-.55-1.07-1.5Zm2.76,0c0-1.13,.55-1.98,1.66-2.55l.38,.72c-.72,.39-1.08,.86-1.08,1.57,.04-.01,.08-.01,.12-.01,.48,0,.88,.32,.88,.85,0,.57-.38,.93-.88,.93-.7,0-1.07-.55-1.07-1.5Z"/><path class="cls-1" d="M37.46,6.93v.91h-9.88v-.91h4.25v-.39h-3.18v-.81h3.18v-.36h-3.57v-.87h3.57v-.44h1.28v.44h3.72v.87h-3.72v.36h3.34v.81h-3.34v.39h4.34Zm-7.57-3.2h-2.26v-1.03h2.26v-.5h1.28v.5h2.62v-.5h1.28v.5h2.34v1.03h-2.34v.55h-1.28v-.55h-2.62v.55h-1.28v-.55Zm6.29,7.62c0,.57-.13,.84-.54,1.01-.4,.15-.98,.17-1.76,.15-.07-.31-.24-.72-.4-.99,.46,.02,1.03,.01,1.17,.01,.17-.01,.22-.04,.22-.18v-.61h-4.68v1.77h-1.28v-4.32h7.27v3.16Zm-5.99-1.56h1.67v-.71h-1.67v.71Zm4.68,0v-.71h-1.78v.71h1.78Z"/><path class="cls-1" d="M58.68,5.33c-.48,1.35-1.34,2.96-2.23,4.24,.52,.34,.98,.69,1.31,1.02l-.92,1.26c-.83-.88-2.66-2.03-4.17-2.73l.82-1.1c.54,.23,1.14,.52,1.72,.83,.59-.82,1.13-1.81,1.5-2.68h-3.16c-.64,1.25-1.41,2.42-2.32,3.28-.31-.23-.9-.57-1.27-.74,1.66-1.47,2.86-3.98,3.41-5.98l1.47,.33c-.2,.59-.42,1.18-.69,1.79h3.25l.24-.06,1.02,.54Z"/><path class="cls-1" d="M81.68,3.35c-.46,.88-1.16,1.86-1.87,2.57,.61,.52,1.34,.92,2.2,1.18-.28,.25-.64,.76-.82,1.1-.94-.34-1.72-.82-2.36-1.44v.52h-4.16v-.49c-.74,.67-1.62,1.17-2.57,1.54-.15-.31-.44-.78-.7-1.03,.74-.23,1.42-.59,2.03-1.04-.27-.24-.62-.54-.95-.78-.11,.09-.23,.18-.35,.26-.18-.28-.55-.67-.81-.85,1.2-.76,2.01-1.79,2.44-2.71l1.23,.21c-.08,.15-.15,.3-.24,.45h1.12l.22-.04,.64,.27c-.06-.18-.1-.36-.15-.55l1.13-.23c.13,.51,.31,.98,.51,1.43v-.87h2.38l.25-.08,.85,.57Zm-6.85,6.64c-.52,.94-1.38,1.83-2.18,2.38-.24-.24-.77-.65-1.08-.86,.78-.44,1.54-1.15,1.94-1.88l1.31,.36Zm2.54-.63v1.88c0,.61-.13,.92-.6,1.09-.45,.18-1.06,.19-1.87,.18-.07-.35-.26-.84-.44-1.16,.54,.02,1.18,.02,1.35,.01,.19,0,.23-.03,.23-.17v-1.83h-3.54v-1.18h8.4v1.18h-3.54Zm-4.23-4.43c.34,.23,.71,.51,.98,.74,.14-.14,.28-.29,.41-.45-.27-.2-.64-.46-.99-.69-.13,.13-.25,.27-.4,.4Zm1.04-1.19l-.12,.17c.33,.19,.7,.41,.97,.61,.14-.24,.27-.51,.38-.77h-1.23Zm4.07,2.39c-.62-.77-1.08-1.7-1.44-2.78-.33,1.1-.83,2.03-1.48,2.78h2.92Zm.04-2.21c.21,.42,.45,.82,.73,1.17,.31-.35,.61-.77,.85-1.17h-1.58Zm1.12,5.71c.75,.59,1.71,1.46,2.18,2.07l-1.16,.72c-.41-.6-1.35-1.51-2.11-2.15l1.09-.63Z"/><path class="cls-1" d="M94.09,6.15c.72-.4,1.08-.86,1.08-1.58-.04,.01-.08,.01-.12,.01-.48,0-.88-.32-.88-.85,0-.56,.38-.93,.88-.93,.7,0,1.07,.55,1.07,1.49,0,1.14-.55,2-1.66,2.56l-.38-.71Zm2.76,0c.72-.4,1.08-.86,1.08-1.58-.04,.01-.08,.01-.12,.01-.47,0-.88-.32-.88-.85,0-.56,.38-.93,.88-.93,.7,0,1.07,.55,1.07,1.49,0,1.14-.55,2-1.66,2.56l-.38-.71Z"/></g></g></g></svg>