<svg xmlns="http://www.w3.org/2000/svg" width="575" height="100" fill="none" viewBox="0 0 575 100"><g fill="#ff0084" clip-path="url(#a)"><path d="M135.42 52.28v41.57c0 4.62 1.32 6.15 3.03 6.15H97.23s15.79-3.08 15.79-15.38V6.15c0-4.62-3.03-6.15-3.03-6.15h81.42s-5.82.8-5.82 3.26v90.59c0 4.62 1.32 6.15 3.03 6.15h-34.38s8.95-1.07 8.95-15.38V52.28zm0-4.55h27.77V4.55h-11.98c-4.79 0-15.79.85-15.79 10.83zm281.39 4.55v41.57c0 4.62 1.31 6.15 3 6.15h-40.78s15.62-3.08 15.62-15.38V6.15c0-4.62-3-6.15-3-6.15h80.56s-5.76.8-5.76 3.26v90.59c0 4.62 1.3 6.15 3 6.15h-34.02s8.86-1.07 8.86-15.38V52.28zm0-4.55h27.48V4.55h-11.85c-4.74 0-15.63.85-15.63 10.83zM99.28 68.69C99.28 89.57 77.1 100 68.37 100H0s15.79-3.08 15.79-15.38V6.15c0-4.62-3.03-6.15-3.03-6.15h65.56l20.96 20.96c0 14.21-10.28 23.59-19.6 28.12zM78.32 49.72c-3.86 1.7-7.45 2.56-9.95 2.56H38.19V89.1c0 4.62 1.32 6.15 3.03 6.15h7.59c15.23 0 29.5-9.6 29.5-25.99zm0-45.16H53.99c-4.79 0-15.79.85-15.79 10.83v32.34h10.63c15.23 0 29.5-9.8 29.5-26.19V4.55zm487.24 95.11 9.12.33-44.22-47.81h8.8c2.49 0 6.08-.86 9.93-2.56l1.36-.62c9.3-4.53 19.57-13.89 19.57-28.08L549.19 0h-65.45s3.03 1.54 3.03 6.14v78.33c0 12.29-15.77 15.36-15.77 15.36h41.16s-3.03-1.54-3.03-6.14v-41.5h12.65zm-56.43-84.31c0-9.97 10.99-10.82 15.77-10.82h22.14l2.15 2.15V21.5c0 16.36-14.24 26.15-29.45 26.15h-10.61zM283.55.07 265.83.06 200.97.01v16.15s2.22-10.34 10.58-10.34h48.91l-62.2 94.12h1.29l82.58.07V83.86s-2.22 10.34-10.58 10.34h-50.21L283.53.08zm41.24 52.21v41.57c0 4.62 1.3 6.15 3 6.15H287s15.62-3.08 15.62-15.38V6.15c0-4.62-3-6.15-3-6.15h80.56s-5.76.8-5.76 3.26v90.59c0 4.62 1.3 6.15 3 6.15H343.4s8.86-1.07 8.86-15.38V52.28zm0-4.55h27.47V4.55h-11.85c-4.74 0-15.62.85-15.62 10.83z"/></g><defs><clipPath id="a"><path fill="#fff" d="M0 0h574.68v100H0z"/></clipPath></defs></svg>