<svg xmlns="http://www.w3.org/2000/svg" width="77.09" height="13.87" viewBox="0 0 77.09 13.87"><g data-name="レイヤー 1"><g fill="#fff" data-name="グループ 71"><path d="M6.74 4.01 7.9 0H6.1L4.9 4.01Z" data-name="パス 32"/><path d="m1.91 7.94.65-2.24H1.14l.48-1.68h1.44L4.22 0H0v9.63l.5-1.69Z" data-name="パス 33"/><path d="M3.72 7.94h1.94L6.3 5.7H4.37Z" data-name="パス 34"/><path d="M24.87 4.55q0 1.91 1.4 1.92c1.07 0 1.62-.96 1.62-2.6 0-1.19-.5-1.87-1.44-1.87-.98 0-1.58.89-1.58 2.55" data-name="パス 35"/><path d="m14.79 2.64-.7 3.25a2.4 2.4 0 0 1 2.23-1.13c2.38 0 3.5 1.79 3.5 4.12a5 5 0 0 1-3.2 4.99h6.73a3.5 3.5 0 0 1-2.18-2.74l2.45-.98c.19 1.06.77 1.72 1.67 1.72 1.37 0 2.01-1.51 2.35-4.26a2.7 2.7 0 0 1-2.19 1.06 3.5 3.5 0 0 1-3.51-3.85c0-2.16.95-4.14 3.02-4.82h-4.4l-.53 2.64z" data-name="パス 36"/><path d="M0 9.63v4.24h.19L1.4 9.63Z" data-name="パス 37"/><path d="M44.7 5.14c-.84 0-1.43.93-1.65 2.45h2.72a4 4 0 0 0 .08-.9c0-.97-.37-1.55-1.14-1.55Z" data-name="パス 38"/><path d="M67.4 5.14c-.86 0-1.44.93-1.67 2.45h2.73a4 4 0 0 0 .08-.9c0-.97-.38-1.55-1.14-1.55" data-name="パス 39"/><path d="m3.29 9.63-1.25 4.24h1.83l1.22-4.24Z" data-name="パス 40"/><path d="M76.6 2.68h-2.94L74.1 0H54.37l-.45 2.68h-2.96L51.43 0H28.2c1.58.56 2.48 2.13 2.48 5.05 0 4.74-1.46 7.93-4.09 8.82h6.65a3 3 0 0 1-2.08-2.85l2.31-.33c.19 1.06.67 1.47 1.48 1.47.72 0 1.2-.29 1.2-.93 0-.63-.4-.92-1.64-1.44C32.6 9 32.1 8.1 32.1 6.86a3.4 3.4 0 0 1 3.61-3.5 3.05 3.05 0 0 1 3.41 2.9L37 6.78c-.14-1.08-.58-1.52-1.3-1.52a1 1 0 0 0-1.1.96c0 .56.2.79 1.6 1.43a6 6 0 0 1 1.86 1.15 2.5 2.5 0 0 1 .69 1.83 3.2 3.2 0 0 1-2.2 3.24h5.67c-1.57-.57-2.3-2.1-2.3-4.15 0-3.42 1.86-6.35 4.78-6.35 2.06 0 3.68 1.42 3.68 4.27a8 8 0 0 1-.1 1.58h-5.47a7 7 0 0 0-.08 1.14q-.02 1.8 1.18 1.8c1.2 0 1.25-.43 1.64-1.76l2.31.42a4.2 4.2 0 0 1-2.5 3.06h3.8l1.7-10.26h2.84L52 13.87h3.95a3 3 0 0 1-2.08-2.85l2.3-.33c.2 1.06.67 1.47 1.48 1.47.73 0 1.2-.29 1.2-.93 0-.63-.39-.92-1.63-1.44C55.3 9 54.8 8.09 54.8 6.86a3.4 3.4 0 0 1 3.62-3.5 3.05 3.05 0 0 1 3.41 2.9l-2.12.52c-.15-1.08-.58-1.52-1.31-1.52a1 1 0 0 0-1.1.96c0 .56.2.79 1.6 1.43a6 6 0 0 1 1.87 1.15 2.5 2.5 0 0 1 .69 1.83 3.2 3.2 0 0 1-2.2 3.24h5.67c-1.57-.57-2.3-2.1-2.3-4.15 0-3.42 1.86-6.35 4.78-6.35 2.05 0 3.68 1.42 3.68 4.27a8 8 0 0 1-.1 1.58H65.5a7 7 0 0 0-.08 1.14q-.02 1.8 1.18 1.8c1.2 0 1.25-.43 1.65-1.76l2.3.42a4.2 4.2 0 0 1-2.5 3.06h3.8l1.7-10.26h2.85l-1.73 10.25h2.42V0h-.03Z" data-name="パス 41"/><path d="m10.48 10.54 2.64-.87a1.93 1.93 0 0 0 1.85 2c1.23 0 1.9-1.06 1.9-2.72 0-1.23-.55-1.9-1.6-1.9a1.8 1.8 0 0 0-1.7 1.16l-2.22-.87L13.02 0H9.77L8.61 4.01H10L9.5 5.7H8.1l-.65 2.24h1.4l-.5 1.69h-1.4l-1.24 4.24h7.53a4.1 4.1 0 0 1-2.77-3.33" data-name="パス 42"/></g></g></svg>