<svg xmlns="http://www.w3.org/2000/svg" xml:space="preserve" id="レイヤー_1" x="0" y="0" viewBox="0 0 1125.8 35.4"><style>.st0,.st1{fill:none;stroke:#fff;stroke-width:.7111;stroke-miterlimit:5.6889}.st1{stroke-width:.5689}.st2{fill:#fff}</style><path id="_パス_45" d="M522 4c-7.2 5.1-6.4 11 2.2 15.3l9.3 4.7c7.1 4.3 3.3 10.7-4 10.7-10.8 0-14.6-8-14.8-11.3h-.7l-2.5 9.2S516 35 529.3 35c11.9 0 16.7-3.9 16.7-3.9 6.5-5.2 5.8-11.4-2.2-15.6l-9.3-4.9c-7.9-4.1-4.2-9.8 3.2-9.8 11 0 12.6 6.4 13 9.8h.6l2.2-8.1S549.6.3 537.8.3C526.2.3 522 4 522 4z" class="st0"/><path id="_パス_46" d="m729.9.8-.1.4c7.6 0 8.2 5.9 7.1 10.4l-3.5 12.9-17-23.6h-21.9l-.1.4c1.8.1 4.4.1 7.6 3.9l2.4 3.2-4.2 15.6c-.9 3.1-2 10.4-8.9 10.4v.5h17l.1-.5c-10 0-8.6-6.5-7.6-10.4l4-15 18.9 25.8h7.6l6.2-23.1c1.2-4.5 4.6-10.4 13.1-10.4l.1-.4z" class="st0"/><g id="_グループ_73"><path id="_パス_56" d="M453.1.8c-13.7 0-26.3 1.1-28.4 9.2-1.9 7.2 7.2 8.7 13.8 8.7-7.9 0-12.2 1.2-17.9 9.8-2.3 3.6-6.5 6-8.3 6.1l-.1.5 13.7-.5c4.9 0 6.9-2.2 11-11.1 2.2-4.8 10.4-4.6 10.4-4.6h3.2l-2.7 10.2c-1.3 4.7-1.6 5-4.5 5l-.1.5h19.1l.1-.5c-3 0-3.5-.1-2.2-5l6.4-23.8c.8-3 1.7-4.3 4.7-4.3l.1-.4zm-2.7 17.7h-2.2c-8.9 0-9.8.1-7.5-8.6 2.4-9.2 4.2-8.8 12.2-8.8h2.1z" class="st1"/><path id="_パス_57" d="M453.1.8c-13.7 0-26.3 1.1-28.4 9.2-1.9 7.2 7.2 8.7 13.8 8.7-7.9 0-12.2 1.2-17.9 9.8-2.3 3.6-6.5 6-8.3 6.1l-.1.5 13.7-.5c4.9 0 6.9-2.2 11-11.1 2.2-4.8 10.4-4.6 10.4-4.6h3.2l-2.7 10.2c-1.3 4.7-1.6 5-4.5 5l-.1.5h19.1l.1-.5c-3 0-3.5-.1-2.2-5l6.4-23.8c.8-3 1.7-4.3 4.7-4.3l.1-.4zm-2.7 17.7h-2.2c-8.9 0-9.8.1-7.5-8.6 2.4-9.2 4.2-8.8 12.2-8.8h2.1z" class="st0"/></g><path id="_パス_58" d="m492.2 1.2-4.3 16.1h5.6c.1 0 7.3.1 9.6-5.7h.6l-3.2 11.8h-.6c.8-5.7-6.5-5.7-6.6-5.7h-5.6l-4.4 16.4h2.4s19.5.5 22.1-9h.6l-2.5 9.4h-40.1l.1-.5c2.9 0 4.8-2.9 5.6-6.1L477 7.2c.8-3 .7-6.3-2.3-6.3l.1-.4h39.3l-2.7 9.8h-.6C513.3.9 494.6.9 494.6.9h-2.4z" class="st0"/><path id="_パス_60" d="M584.8.3c-15.1 0-27.2 8.1-29.8 17.6S560.3 35 575.5 35c15.1 0 27.1-7.6 29.7-17.1C607.7 8.4 600 .3 584.8.3m3.7 17.6c-3.5 13.3-4.7 16.7-12.9 16.7-8.1 0-7.6-3.5-4-16.7C575.1 4.7 576.5.7 584.7.7c8.2.1 7.3 4 3.8 17.2" class="st2"/><path id="_パス_61" d="M691.1 34.2c-1.7 0-2.4-2-3.1-3.9 0 0-.7-1.6-10.6-29.5h-.4l-20.4 24.5c-7.6 8.5-11.4 8.9-13.4 8.9l-.1.4h19.8l.1-.4c-8.2 0-7.7-6.7-5.7-8.9h13.5l1.3 3.3s2.6 5.6-2.9 5.6l-.1.4h22.2v-.5zm-33.6-9.3 9-10.8 4 10.8z" class="st2"/><path id="_パス_62" d="m633.9 34.6-19-25.8-4 15c-1 3.9-2.4 10.4 7.6 10.4l-.1.5h-21.8l.1-.5c9.5 0 12.6-6.6 13.7-10.4l4.2-15.6L612 5c-3.1-3.8-5.8-3.8-7.6-3.9l.1-.4h21.9l17 23.6 3.5-12.9c1.2-4.4.6-10.4-7-10.4l.1-.4h20.8l-.1.4c-8.5 0-11.9 5.9-13.1 10.4l-6.2 23.1z" class="st2"/><path id="_パス_70" d="M783.5 23.1h.6l-1.9 9.7c-2.1.9-9.4 2.3-16.7 2.3-14.7 0-26.1-6.5-23.1-17.4C745.2 6.8 760 .4 774.8.4c8.9 0 14.1 1.3 15.5 2.2l-3.3 9.7h-.6C787 2.3 779.6.8 774.6.8c-7.6 0-11.9 3.8-15.4 17-3.5 13.3-1.1 17 6.3 17 4.7-.2 13.1-2.1 18-11.7z" class="st0"/><path id="_パス_71" d="m833.1.8-2.6 9.8h-.6c2.5-9.4-16.2-9.4-16.2-9.4h-2.5l-4.3 16.1h5.6c.1 0 7.3.1 9.6-5.7h.6l-3.1 11.8h-.6c.8-5.7-6.5-5.7-6.6-5.7h-5.6l-4.4 16.4h2.4s19.5.5 22.1-9h.6l-2.5 9.4h-40.2l.1-.5c2.9 0 4.8-2.9 5.6-6.1L796 7.3c.8-3 .7-6.3-2.3-6.3l.1-.4h39.3z" class="st0"/><path id="_パス_45-2" d="M110.1 4c-7.2 5.1-6.4 11 2.2 15.3l9.3 4.7c7.1 4.3 3.3 10.7-4 10.7-10.8 0-14.6-8-14.8-11.3h-.6l-2.5 9.2s4.5 2.4 17.8 2.4c11.9 0 16.7-3.9 16.7-3.9 6.5-5.2 5.8-11.4-2.2-15.6l-9.3-4.9c-7.9-4.1-4.2-9.8 3.2-9.8 11 0 12.6 6.4 13 9.8h.6l2.2-8.1S137.8.3 126 .3C114.3.3 110.1 4 110.1 4z" class="st0"/><path id="_パス_46-2" d="m318 .8-.1.4c7.6 0 8.2 5.9 7.1 10.4l-3.5 12.9-17-23.6h-21.9l-.1.4c1.8.1 4.4.1 7.6 3.9l2.4 3.2-4.2 15.6c-.9 3.1-2 10.4-8.9 10.4v.5h17l.1-.5c-10 0-8.6-6.5-7.6-10.4l4-15 18.9 25.8h7.6l6.2-23.1c1.2-4.5 4.7-10.4 13.1-10.4l.1-.4z" class="st0"/><g id="_グループ_73-2"><path id="_パス_56-2" d="M866.1.8c-13.7 0-26.3 1.1-28.4 9.2-1.9 7.2 7.2 8.7 13.8 8.7-7.9 0-12.2 1.2-17.9 9.8-2.3 3.6-6.5 6-8.3 6.1l-.1.5 13.7-.5c4.9 0 6.9-2.2 11-11.1 2.2-4.8 10.4-4.6 10.4-4.6h3.2l-2.7 10.2c-1.3 4.7-1.6 5-4.5 5l-.1.5h19.1l.1-.5c-3 0-3.5-.1-2.2-5l6.4-23.8c.8-3 1.7-4.3 4.7-4.3l.1-.4zm-2.6 17.7h-2.2c-8.9 0-9.8.1-7.5-8.6C856.2.7 858 1.1 866 1.1h2.1z" class="st1"/><path id="_パス_57-2" d="M866.1.8c-13.7 0-26.3 1.1-28.4 9.2-1.9 7.2 7.2 8.7 13.8 8.7-7.9 0-12.2 1.2-17.9 9.8-2.3 3.6-6.5 6-8.3 6.1l-.1.5 13.7-.5c4.9 0 6.9-2.2 11-11.1 2.2-4.8 10.4-4.6 10.4-4.6h3.2l-2.7 10.2c-1.3 4.7-1.6 5-4.5 5l-.1.5h19.1l.1-.5c-3 0-3.5-.1-2.2-5l6.4-23.8c.8-3 1.7-4.3 4.7-4.3l.1-.4zm-2.6 17.7h-2.2c-8.9 0-9.8.1-7.5-8.6C856.2.7 858 1.1 866 1.1h2.1z" class="st0"/></g><path id="_パス_58-2" d="m905.2 1.2-4.3 16.1h5.6c.1 0 7.3.1 9.6-5.7h.6l-3.2 11.8h-.6c.8-5.7-6.5-5.7-6.6-5.7h-5.6l-4.4 16.4h2.4s19.5.5 22.1-9h.6l-2.5 9.4h-40.2l.1-.5c2.9 0 4.8-2.9 5.6-6.1L890 7.3c.8-3 .7-6.3-2.3-6.3l.1-.4h39.3l-2.6 9.8h-.6C926.4 1 907.7 1 907.7 1h-2.4v.2z" class="st0"/><path id="_パス_60-2" d="M172.9.3c-15.1 0-27.2 8.1-29.8 17.6S148.4 35 163.6 35c15.1 0 27.1-7.6 29.7-17.1S188.1.3 172.9.3zm3.7 17.6c-3.5 13.3-4.7 16.7-12.9 16.7-8.1 0-7.6-3.5-4-16.7C163.2 4.7 164.6.7 172.8.7s7.4 4 3.8 17.2z" class="st1"/><path id="_パス_61-2" d="M279.3 34.2c-1.7 0-2.4-2-3.1-3.9 0 0-.7-1.6-10.6-29.5h-.3l-20.4 24.5c-7.6 8.5-11.4 8.9-13.4 8.9l-.1.4H251l.1-.4c-8.2 0-7.7-6.7-5.7-8.9h13.5l1.3 3.3s2.6 5.6-2.9 5.6l-.1.4h22.2v-.5zm-33.7-9.3 9-10.8 4 10.8z" class="st1"/><path id="_パス_62-2" d="M222 34.6 203 8.8l-4 15c-1 3.9-2.4 10.4 7.6 10.4l-.1.5h-21.8l.1-.5c9.5 0 12.6-6.6 13.7-10.4l4.2-15.6-2.6-3.2c-3.1-3.8-5.8-3.8-7.6-3.9l.1-.4h21.9l17 23.6 3.5-12.9c1.3-4.4.6-10.4-7-10.4l.1-.4h20.8l-.1.4c-8.5 0-11.9 5.9-13.1 10.4l-6.2 23.1z" class="st1"/><path id="_パス_70-2" d="M371.6 23.1h.6l-1.9 9.7c-2.1.9-9.4 2.3-16.7 2.3-14.7 0-26.1-6.5-23.1-17.4S348.2.3 362.9.3c8.9 0 14.1 1.3 15.5 2.2l-3.3 9.7h-.6c.6-10-6.8-11.5-11.8-11.5-7.6 0-11.8 3.8-15.4 17-3.5 13.3-1.1 17 6.3 17 4.7-.1 13-2 18-11.6z" class="st0"/><path id="_パス_71-2" d="m421.2.8-2.6 9.8h-.6c2.5-9.4-16.2-9.4-16.2-9.4h-2.5L395 17.3h5.6c.1 0 7.3.1 9.6-5.7h.6l-3.1 11.8h-.7c.8-5.7-6.5-5.7-6.6-5.7h-5.6l-4.4 16.4h2.4s19.5.5 22.1-9h.6l-2.5 9.4h-40.1l.1-.5c2.9 0 4.8-2.9 5.6-6.1l5.5-20.7c.8-3 .7-6.3-2.3-6.3l.1-.4h39.3z" class="st0"/><path d="M0 .5h1125.8v34.7H0z" style="fill:none"/></svg>