<svg xmlns="http://www.w3.org/2000/svg" xml:space="preserve" id="レイヤー_1" x="0" y="0" viewBox="0 0 1125.8 35.4"><style>.st0{fill:none;stroke:#fff;stroke-width:.7111;stroke-miterlimit:5.6889}.st1{fill:#fff}.st2{fill:none;stroke:#fff;stroke-width:.5689;stroke-miterlimit:5.6889}</style><path id="_パス_43" d="M708 17.9C710.6 8.4 702.8.3 687.6.3c-15.1 0-27.2 8.1-29.8 17.6-2.6 9.6 5.4 17.1 20.5 17.1 15.1.1 27.1-7.5 29.7-17.1zm-16.7 0c-3.5 13.3-4.7 16.7-12.9 16.7-8.1 0-7.6-3.5-4-16.7C677.9 4.7 679.3.7 687.5.7c8.1.1 7.3 4 3.8 17.2z" class="st0"/><path id="_パス_44" d="m736.7 34.6-19-25.8-4 15c-1 3.9-2.4 10.4 7.6 10.4l-.1.5h-21.8l.1-.5c9.5 0 12.6-6.6 13.7-10.4l4.2-15.6-2.6-3.2c-3.1-3.8-5.8-3.8-7.6-3.9l.1-.4h21.9l17 23.6 3.5-12.9c1.2-4.4.6-10.4-7-10.4l.1-.4h20.8l-.1.4c-8.5 0-11.9 6-13.1 10.4l-6.2 23.1z" class="st0"/><path id="_パス_48" d="M555.9.8c-13.7 0-26.3 1.1-28.4 9.2-1.9 7.2 7.2 8.7 13.8 8.7-7.9 0-12.2 1.2-17.9 9.8-2.3 3.6-6.5 6.1-8.3 6.1l-.1.5 13.7-.5c4.9 0 6.9-2.2 11-11.1 2.2-4.8 10.4-4.6 10.4-4.6h3.2l-2.7 10.2c-1.3 4.7-1.6 5-4.5 5l-.1.5h19l.1-.5c-3 0-3.5-.1-2.2-5l6.4-23.8c.8-3 1.7-4.3 4.7-4.3l.1-.4zm-2.7 17.8h-2.1c-8.9 0-9.8.1-7.5-8.6 2.4-9.2 4.2-8.8 12.2-8.8h2.1z" class="st1"/><path id="_パス_49" d="m595 1.2-4.3 16.1h5.6c.1 0 7.3.1 9.6-5.7h.6l-3.1 11.8h-.6c.8-5.7-6.5-5.7-6.6-5.7h-5.6l-4.4 16.4h2.5s19.5.5 22.1-9h.6l-2.5 9.4h-40.2l.1-.5c2.9 0 4.8-2.9 5.6-6.1l5.5-20.7c.8-3 .7-6.3-2.3-6.3l.1-.4H617l-2.6 9.8h-.6C616.3.9 597.6.9 597.6.9H595z" class="st1"/><path id="_パス_50" d="M640.8.3c11.8 0 15.7 2.2 15.7 2.2l-2.2 8.1h-.6c-.5-3.5-2-9.8-13-9.8-7.4 0-11.1 5.7-3.2 9.8l9.3 4.9c8 4.2 8.7 10.4 2.2 15.6 0 0-4.8 3.9-16.7 3.9-13.3 0-17.8-2.4-17.8-2.4l2.5-9.2h.6c.2 3.3 4 11.3 14.8 11.3 7.3 0 11.2-6.4 4-10.7l-9.3-4.7c-8.6-4.3-9.4-10.1-2.2-15.3-.1 0 4.6-3.7 15.9-3.7" class="st1"/><path id="_パス_66" d="M794.1 34.2h-.1c-1.7 0-2.4-2-3.1-3.9 0 0-.7-1.6-10.6-29.5h-.3l-20.4 24.5c-7.6 8.5-11.4 8.9-13.4 8.9l-.1.4h19.8l.1-.4c-8.2 0-7.7-6.7-5.7-8.9h13.5l1.3 3.3s2.6 5.6-2.9 5.6l-.1.4h22.2c-.2-.1-.2-.3-.2-.4zm-33.8-9.3 9-10.8 4 10.8z" class="st0"/><path id="_パス_67" d="M886.3 23.1h.6l-1.9 9.7c-2.1.9-9.4 2.3-16.7 2.3-14.7 0-26.1-6.5-23.1-17.4C848 6.8 862.8.4 877.6.4c8.9 0 14.1 1.3 15.5 2.2l-3.3 9.7h-.6c.6-10-6.8-11.5-11.8-11.5-7.6 0-11.9 3.8-15.4 17-3.5 13.3-1.1 17 6.3 17 4.7-.2 13-2.2 18-11.7z" class="st0"/><path id="_パス_68" d="m935.9.8-2.6 9.8h-.6c2.5-9.4-16.2-9.4-16.2-9.4H914l-4.3 16.1h5.6c.1 0 7.3.1 9.6-5.7h.6l-3.1 11.8h-.6c.8-5.7-6.5-5.7-6.6-5.7h-5.6L905 34.1h2.5s19.5.5 22.1-9h.6l-2.5 9.4h-40.2l.1-.5c2.9 0 4.8-2.9 5.6-6.1l5.5-20.7c.8-3 .7-6.3-2.3-6.3l.1-.4z" class="st0"/><path id="_パス_69" d="m853.5.8-.1.4c-8.5 0-11.9 5.9-13.1 10.4L834 34.7h-7.6L807.5 8.8l-4 15c-1 3.9-2.4 10.4 7.6 10.4l-.1.5h-17v-.5c6.8-.1 8-7.2 8.9-10.4L807 8.3 804.6 5c-3.1-3.8-5.8-3.8-7.6-3.9l.1-.4H819l17 23.6 3.5-12.9c1.2-4.5.6-10.4-7.1-10.4l.1-.4z" class="st0"/><path id="_パス_43-2" d="M297.2 17.9C299.8 8.4 292 .3 276.8.3c-15.1 0-27.2 8.1-29.8 17.6-2.6 9.6 5.3 17.1 20.5 17.1 15.2.1 27.2-7.5 29.7-17.1zm-16.7 0c-3.5 13.3-4.8 16.7-12.9 16.7s-7.6-3.5-4-16.7C267.1 4.7 268.5.7 276.7.7c8.1.1 7.3 4 3.8 17.2z" class="st0"/><path id="_パス_44-2" d="M325.9 34.6 307 8.8l-4 15c-1 3.9-2.4 10.4 7.6 10.4l-.1.5h-21.8l.1-.5c9.5 0 12.6-6.6 13.7-10.4l4.2-15.6-2.6-3.2c-3.1-3.8-5.8-3.8-7.6-3.9l.1-.4h21.9l17 23.6 3.5-12.9c1.2-4.4.6-10.4-7.1-10.4l.1-.4h20.8V1c-8.5 0-11.9 5.9-13.1 10.4l-6.2 23.1z" class="st0"/><path id="_パス_48-2" d="M145.2.8c-13.7 0-26.3 1.1-28.4 9.2-1.9 7.2 7.2 8.7 13.8 8.7-7.9 0-12.2 1.2-17.9 9.8-2.3 3.6-6.5 6.1-8.3 6.1l-.1.5 13.7-.5c4.9 0 6.9-2.2 11-11.1 2.2-4.8 10.4-4.6 10.4-4.6h3.2l-2.7 10.2c-1.3 4.7-1.6 5-4.5 5l-.1.5h19.1l.1-.5c-3 0-3.5-.1-2.2-5l6.4-23.8c.8-3 1.7-4.3 4.7-4.3l.1-.4zm-2.7 17.8h-2.1c-8.9 0-9.8.1-7.5-8.6 2.4-9.2 4.2-8.8 12.2-8.8h2.1z" class="st2"/><path id="_パス_49-2" d="M184.3 1.2 180 17.3h5.6c.1 0 7.3.1 9.6-5.7h.6l-3.2 11.8h-.6c.8-5.7-6.5-5.7-6.6-5.7h-5.6l-4.4 16.4h2.5s19.5.5 22.1-9h.6l-2.5 9.4h-40.2l.1-.5c2.9 0 4.8-2.9 5.6-6.1l5.5-20.7c.8-3 .7-6.3-2.3-6.3l.1-.4h39.3l-2.6 9.8h-.6C205.5.9 186.8.9 186.8.9h-2.4v.3z" class="st2"/><path id="_パス_50-2" d="M230.1.3c11.8 0 15.7 2.2 15.7 2.2l-2.2 8.1h-.6c-.5-3.5-2-9.8-13-9.8-7.4 0-11.1 5.7-3.2 9.8l9.3 4.9c8 4.2 8.7 10.4 2.2 15.6 0 0-4.8 3.9-16.7 3.9-13.3 0-17.8-2.4-17.8-2.4l2.5-9.2h.6c.2 3.3 4 11.3 14.8 11.3 7.3 0 11.2-6.4 4-10.7l-9.3-4.7C207.8 15 207 9.2 214.2 4 214 4 218.8.3 230.1.3z" class="st2"/><path id="_パス_66-2" d="M383.3 34.2h-.1c-1.7 0-2.4-2-3.1-3.9 0 0-.7-1.6-10.6-29.5h-.3l-20.4 24.5c-7.6 8.5-11.4 8.9-13.4 8.9l-.1.4h19.8l.1-.4c-8.2 0-7.7-6.7-5.7-8.9H363l1.3 3.3s2.6 5.6-2.9 5.6l-.1.4h22.2c-.2-.1-.2-.3-.2-.4zm-33.7-9.3 9-10.8 4 10.8z" class="st0"/><path id="_パス_67-2" d="M475.5 23.1h.6l-1.9 9.7c-2.1.9-9.4 2.3-16.7 2.3-14.7 0-26.1-6.5-23.1-17.4C437.3 6.8 452.1.3 466.8.3c8.9 0 14.1 1.3 15.5 2.2l-3.3 9.7h-.6C479 2.2 471.6.7 466.6.7c-7.6 0-11.9 3.8-15.4 17-3.5 13.3-1.1 17 6.3 17 4.7-.1 13.1-2 18-11.6z" class="st0"/><path id="_パス_68-2" d="m525.1.8-2.6 9.8h-.6c2.5-9.4-16.2-9.4-16.2-9.4h-2.5l-4.3 16.1h5.6c.1 0 7.3.1 9.6-5.7h.6l-3.1 11.8h-.6c.8-5.7-6.5-5.7-6.6-5.7h-5.6l-4.4 16.4h2.5s19.5.5 22.1-9h.6l-2.5 9.4h-40.2l.1-.5c2.9 0 4.8-2.9 5.6-6.1l5.5-20.7c.8-3 .7-6.3-2.3-6.3l.1-.4z" class="st0"/><path id="_パス_69-2" d="m442.8.8-.1.4c-8.5 0-11.9 5.9-13.1 10.4l-6.2 23.1h-7.6l-19-25.9-4 15c-1 3.9-2.4 10.4 7.6 10.4l-.1.5h-17v-.5c6.8-.1 8-7.2 8.9-10.4l4.2-15.6-2.5-3.2c-3.1-3.8-5.8-3.8-7.6-3.9l.1-.4h21.9l17 23.6 3.5-12.9c1.2-4.5.6-10.4-7.1-10.4l.1-.4z" class="st0"/><path d="M0 .3h1125.8V35H0z" style="fill:none"/></svg>