<svg xmlns="http://www.w3.org/2000/svg" xml:space="preserve" id="レイヤー_1" x="0" y="0" viewBox="0 0 1125.8 36.4"><style>.st0,.st1{fill:none;stroke:#fff;stroke-width:.7111;stroke-miterlimit:5.6889}.st1{stroke-width:.5689}.st2{fill:#fff}</style><path id="_パス_47" d="M156.7 34.9h-.1c-1.7 0-2.4-2-3.1-3.9 0 0-.7-1.6-10.6-29.5h-.3L122.1 26c-7.6 8.5-11.4 8.9-13.5 8.9l-.1.4h19.8l.1-.4c-8.2 0-7.7-6.7-5.7-8.9h13.5l1.3 3.3s2.6 5.6-2.9 5.6l-.1.4h22.2zM123 25.5l9-10.8 4 10.8z" class="st0"/><path id="_パス_51" d="M897.8 18.6C900.4 9.1 892.6 1 877.5 1s-27.3 8-29.9 17.6 5.4 17.1 20.5 17.1 27.2-7.5 29.7-17.1zm-16.7 0c-3.5 13.3-4.7 16.7-12.9 16.7-8.1 0-7.6-3.5-4-16.7 3.5-13.2 4.9-17.2 13.1-17.2 8.1 0 7.3 4 3.8 17.2z" class="st0"/><path id="_パス_52" d="M926.5 35.3 907.6 9.4l-4 15c-1 3.9-2.4 10.4 7.6 10.4l-.1.5h-21.8l.1-.5c9.5 0 12.6-6.6 13.7-10.4l4.2-15.6-2.4-3.2c-3.1-3.8-5.8-3.8-7.6-3.9l.1-.4h21.9l17 23.6 3.5-12.9c1.2-4.5.6-10.4-7.1-10.4l.1-.4h20.8l-.1.4c-8.5 0-11.9 5.9-13.1 10.4l-6.2 23.1z" class="st0"/><g id="_グループ_72"><path id="_パス_53" d="M745.8 1.4c-13.7 0-26.3 1.1-28.4 9.2-1.9 7.2 7.2 8.7 13.8 8.7-7.9 0-12.2 1.2-17.9 9.8-2.3 3.6-6.5 6.1-8.3 6.1l-.1.5 13.7-.5c4.9 0 6.9-2.2 11-11.1 2.2-4.8 10.4-4.5 10.4-4.5h3.2l-2.7 10.2c-1.3 4.7-1.6 5-4.5 5l-.1.5H755l.1-.5c-3 0-3.5-.1-2.2-5L759.3 6c.8-3 1.7-4.3 4.7-4.3l.1-.4zm-2.7 17.8H741c-8.9 0-9.8.1-7.5-8.6 2.4-9.2 4.2-8.8 12.2-8.8h2.1z" class="st1"/><path id="_パス_54" d="M745.8 1.4c-13.7 0-26.3 1.1-28.4 9.2-1.9 7.2 7.2 8.7 13.8 8.7-7.9 0-12.2 1.2-17.9 9.8-2.3 3.6-6.5 6.1-8.3 6.1l-.1.5 13.7-.5c4.9 0 6.9-2.2 11-11.1 2.2-4.8 10.4-4.5 10.4-4.5h3.2l-2.7 10.2c-1.3 4.7-1.6 5-4.5 5l-.1.5H755l.1-.5c-3 0-3.5-.1-2.2-5L759.3 6c.8-3 1.7-4.3 4.7-4.3l.1-.4zm-2.7 17.8H741c-8.9 0-9.8.1-7.5-8.6 2.4-9.2 4.2-8.8 12.2-8.8h2.1z" class="st0"/></g><path id="_パス_55" d="m784.8 1.8-4.3 16.1h5.6c.1 0 7.3.1 9.6-5.7h.6L793.1 24h-.6c.8-5.7-6.5-5.7-6.6-5.7h-5.6l-4.4 16.4h2.5s19.5.5 22.1-9h.6l-2.5 9.4h-40.1l.1-.5c2.9 0 4.8-2.9 5.6-6.1L769.8 8c.8-3 .7-6.3-2.3-6.3l.1-.4h39.3l-2.6 9.8h-.6c2.5-9.4-16.2-9.4-16.2-9.4z" class="st0"/><path id="_パス_59" d="M830.6 1c11.8 0 15.7 2.2 15.7 2.2l-2.2 8.1h-.6c-.5-3.5-2-9.8-13-9.8-7.4 0-11.1 5.7-3.2 9.8l9.3 4.9c8 4.2 8.7 10.4 2.2 15.6 0 0-4.8 3.9-16.7 3.9-13.3 0-17.8-2.4-17.8-2.4l2.5-9.2h.6c.2 3.3 4 11.3 14.8 11.3 7.3 0 11.2-6.4 4-10.7l-9.3-4.7c-8.6-4.3-9.4-10.1-2.2-15.3-.1 0 4.7-3.7 15.9-3.7z" class="st0"/><path id="_パス_63" d="M248.9 23.7h.6l-1.9 9.7c-2.1.9-9.4 2.3-16.7 2.3-14.7 0-26.1-6.5-23.1-17.4C210.7 7.5 225.5 1 240.2 1c8.9 0 14.1 1.3 15.5 2.2l-3.3 9.7h-.6c.6-10-6.8-11.5-11.8-11.5-7.6 0-11.9 3.8-15.4 17s-1.1 17 6.3 17c4.8-.1 13.2-2.1 18-11.7z" class="st1"/><path id="_パス_64" d="m298.6 1.4-2.6 9.8h-.6c2.5-9.4-16.2-9.4-16.2-9.4h-2.5l-4.3 16.1h5.6c.1 0 7.3.1 9.6-5.7h.6L285 24h-.6c.8-5.7-6.5-5.7-6.6-5.7h-5.6l-4.4 16.4h2.5s19.5.5 22.1-9h.6l-2.5 9.4h-40.2l.1-.5c2.9 0 4.8-2.9 5.6-6.1L261.5 8c.8-3 .7-6.3-2.3-6.3l.1-.4z" class="st1"/><path id="_パス_65" d="m216.2 1.4-.1.4c-8.5 0-11.9 5.9-13.1 10.4l-6.2 23.1h-7.6l-19-25.8-4 15c-1 3.9-2.4 10.4 7.6 10.4l-.1.5h-17v-.5c6.8-.1 8-7.2 8.9-10.4l4.2-15.6-2.4-3.2c-3.1-3.8-5.8-3.8-7.6-3.9l.1-.4h21.9l17 23.6 3.4-12.9c1.2-4.5.6-10.4-7.1-10.4l.1-.4z" class="st1"/><path id="_パス_47-2" d="M570.9 34.9h-.1c-1.7 0-2.4-2-3.1-3.9 0 0-.7-1.6-10.6-29.5h-.3L536.2 26c-7.6 8.5-11.4 8.9-13.4 8.9l-.1.4h19.8l.1-.4c-8.2 0-7.7-6.7-5.7-8.9h13.5l1.3 3.3s2.6 5.6-2.9 5.6l-.1.4h22.2zm-33.8-9.4 9-10.8 4 10.8z" class="st0"/><path id="_パス_51-2" d="M484.8 18.6C487.4 9.1 479.6 1 464.4 1c-15.1 0-27.2 8.1-29.8 17.6s5.3 17.1 20.5 17.1c15.1 0 27.1-7.5 29.7-17.1zm-16.7 0c-3.5 13.3-4.7 16.7-12.9 16.7s-7.6-3.5-4-16.7c3.5-13.2 4.9-17.2 13.1-17.2 8.1 0 7.3 4 3.8 17.2z" class="st0"/><path id="_パス_52-2" d="M513.5 35.3 494.6 9.4l-4 15c-1 3.9-2.4 10.4 7.6 10.4l-.1.5h-21.8l.1-.5c9.5 0 12.6-6.6 13.7-10.4l4.2-15.6-2.4-3.2c-3.1-3.8-5.8-3.8-7.6-3.9l.1-.4h21.9l17 23.6 3.5-12.9c1.2-4.5.6-10.4-7.1-10.4l.1-.4h20.8l-.1.4c-8.5 0-11.9 5.9-13.1 10.4L521 35.2z" class="st0"/><g id="_グループ_72-2"><path id="_パス_53-2" d="M332.7 1.4c-13.7 0-26.3 1.1-28.4 9.2-1.9 7.2 7.2 8.7 13.8 8.7-7.9 0-12.2 1.2-17.9 9.8-2.3 3.6-6.5 6.1-8.3 6.1l-.1.5 13.7-.5c4.9 0 6.9-2.2 11-11.1 2.2-4.8 10.4-4.5 10.4-4.5h3.2l-2.7 10.2c-1.3 4.7-1.6 5-4.5 5l-.1.5h19.1l.1-.5c-3 0-3.5-.1-2.2-5L346.2 6c.8-3 1.7-4.3 4.7-4.3l.1-.4zm-2.6 17.8H328c-8.9 0-9.8.1-7.5-8.6 2.4-9.2 4.2-8.8 12.2-8.8h2.1z" class="st1"/><path id="_パス_54-2" d="M332.7 1.4c-13.7 0-26.3 1.1-28.4 9.2-1.9 7.2 7.2 8.7 13.8 8.7-7.9 0-12.2 1.2-17.9 9.8-2.3 3.6-6.5 6.1-8.3 6.1l-.1.5 13.7-.5c4.9 0 6.9-2.2 11-11.1 2.2-4.8 10.4-4.5 10.4-4.5h3.2l-2.7 10.2c-1.3 4.7-1.6 5-4.5 5l-.1.5h19.1l.1-.5c-3 0-3.5-.1-2.2-5L346.2 6c.8-3 1.7-4.3 4.7-4.3l.1-.4zm-2.6 17.8H328c-8.9 0-9.8.1-7.5-8.6 2.4-9.2 4.2-8.8 12.2-8.8h2.1z" class="st0"/></g><path id="_パス_55-2" d="m371.8 1.8-4.3 16.1h5.6c.1 0 7.3.1 9.6-5.7h.6L380.1 24h-.6c.8-5.7-6.5-5.7-6.6-5.7h-5.6l-4.4 16.4h2.5s19.5.5 22.1-9h.6l-2.5 9.4h-40.1l.1-.5c2.9 0 4.8-2.9 5.6-6.1L356.8 8c.8-3 .7-6.3-2.3-6.3l.1-.4h39.3l-2.7 9.8h-.6c2.5-9.4-16.2-9.4-16.2-9.4z" class="st0"/><path id="_パス_59-2" d="M417.6 1c11.8 0 15.7 2.2 15.7 2.2l-2.2 8.1h-.6c-.5-3.5-2-9.8-13-9.8-7.4 0-11.1 5.7-3.2 9.8l9.3 4.9c8 4.2 8.7 10.4 2.2 15.6 0 0-4.8 3.9-16.7 3.9-13.3 0-17.8-2.4-17.8-2.4l2.5-9.2h.6c.2 3.3 4 11.3 14.8 11.3 7.3 0 11.2-6.4 4-10.7l-9.3-4.7c-8.6-4.3-9.4-10.1-2.2-15.3-.1 0 4.7-3.7 15.9-3.7z" class="st0"/><path id="_パス_63-2" d="M663.1 23.7h.6l-1.9 9.7c-2.1.9-9.4 2.3-16.7 2.3-14.7 0-26.1-6.5-23.1-17.4C624.9 7.5 639.7 1 654.4 1c8.9 0 14.1 1.3 15.5 2.2l-3.3 9.7h-.6c.6-10-6.8-11.5-11.8-11.5-7.6 0-11.9 3.8-15.4 17s-1.1 17 6.3 17c4.7-.1 13.1-2.1 18-11.7" class="st2"/><path id="_パス_64-2" d="m712.7 1.4-2.7 9.8h-.6c2.5-9.4-16.2-9.4-16.2-9.4h-2.5l-4.3 16.1h5.6c.1 0 7.3.1 9.6-5.7h.6L699.1 24h-.6c.8-5.7-6.5-5.7-6.6-5.7h-5.6l-4.4 16.4h2.5s19.5.5 22.1-9h.6l-2.5 9.4h-40.2l.1-.5c2.9 0 4.8-2.9 5.6-6.1L675.6 8c.8-3 .7-6.3-2.3-6.3l.1-.4z" class="st2"/><path id="_パス_65-2" d="m630.3 1.4-.1.4c-8.5 0-11.9 5.9-13.1 10.4l-6.2 23.1h-7.6L584.4 9.5l-4 15c-1 3.9-2.4 10.4 7.6 10.4l-.1.5h-17v-.5c6.8-.1 8-7.2 8.9-10.4L584 8.9l-2.4-3.2c-3.1-3.8-5.8-3.8-7.6-3.9l.1-.4H596L613 25l3.4-12.9c1.2-4.5.6-10.4-7.1-10.4l.1-.4z" class="st2"/><path d="M0 0h1125.8v34.7H0z" style="fill:none"/></svg>