<svg xmlns="http://www.w3.org/2000/svg" viewBox="0 0 350 350"><defs><clipPath id="clip-path"><circle cx="176.7" cy="175" r="140.88" class="cls-1"/></clipPath><style>.cls-1{fill:none}.cls-5{fill:#fff}</style></defs><g id="Layer_2" data-name="Layer 2"><g id="Layer_1-2" data-name="Layer 1"><g style="clip-path:url(#clip-path)"><path d="M205.28 30c4.25.23 9.63 1.14 9.63 3.89 0 3.09-7.55 4.8-14.82 6.63-6 1.49-14.71 3.09-21.32 4-.37 5-.75 11.33-.85 18.42a47 47 0 0 1 19.72-3.66 8 8 0 0 0-1.22-4.81l1.41-1.25a9.8 9.8 0 0 1 3.49 6.4c15.76 1.94 25.47 12.35 25.47 28.25 0 16.58-12.35 28.47-39.9 31.56l-.66-2.63c23.87-4 34.43-14.41 34.53-29.51 0-12.92-7.08-21.84-19.44-24-.09.23-.09.8-.19 1.26-1.6 8.23-8.49 21.84-17.73 32 1.79 3.09 3.2 5 3.2 7.43 0 1.37-.37 3.66-2 3.66-1 0-3.39-1.83-5.66-6.52-5.94 5.49-12.64 9.27-19.24 9.27-4.72 0-9.91-3-9.91-11.78 0-12.47 8.11-26.19 23.87-34 .09-6.86.38-13.72.47-19.78-2.74.23-5.76.34-8.21.34-7.64 0-10.57-2.86-12.92-7.32l1.51-1.83c2.73 3.43 6.51 4.69 11.6 4.69 2.26 0 5.66-.23 8.21-.46.09-3 .28-7.66.28-10.63 0-3.66-.66-6.41-5-6.41a11 11 0 0 0-1.89.12l-.18-.57a5.2 5.2 0 0 1 5.37-3.66c4.44 0 9.63 2.17 9.63 5.83 0 1.2-1.28 1.86-2 5l-.17.85c-.23 1.28-.64 3.89-1.14 8.92 6-.91 15.48-2.74 20.95-5.14 2.92-1.15 4.25-2.52 4.53-4.12Zm-44.53 74.91c5 0 10.76-3.32 15.95-8.35-3.12-9.38-3.12-21.73-3.12-27.79-12.45 7.55-18.87 17.15-18.87 29.16 0 4.8 1.51 6.98 6.04 6.98m17-38.2c0 6.06 0 16.35 3.12 25.73 8.11-8.58 14.81-21.27 16.41-29.62-8.41-.68-17.56 2.97-19.55 3.89Zm-59.91 175.07a5 5 0 0 1 4.66-3.59c3.82 0 8.26 2.79 8.26 6.29 0 2.3-1.61 2.6-2.45 9.09-1 8-2.22 28.37-2.37 41.05 0 15.69 5.73 19 15 19 11.46 0 21.25-7.79 28.13-24.57l1.76 1.1c-6.42 20.28-17.2 29.07-30 29.07-9.94 0-18.73-5.2-18.73-24 0-13.68 1.15-35 1.91-48.64V246c0-4-2.9-4.1-4-4.1a11 11 0 0 0-1.92.2Z" style="fill:#231f20"/></g><path d="M184.04 121.88h65.18v65.18h-65.18z" style="fill:#8dc63f"/><path d="M230.08 144.71a3 3 0 0 1 2.53-1.28c2.68 0 5.16 3.27 5.16 4.81 0 1.34-.71 2.11-3 2.75-2.43.64-8.55 3.78-13.36 6.79q.06.87.05 1.73c0 8-.66 11-2.18 11-.81 0-1.37-1-1.37-2.75a11 11 0 0 1 .05-1.22 47 47 0 0 0 .61-7.3c-4.61 3.07-9.21 7.05-9.21 12.75 0 4.23 3.34 5.83 9.21 5.83 5.37 0 9.47-.32 10.38-1.54 3.19.26 5 1 5 2.11s-.35 1.61-1.82 2c-2.48.71-8 .83-10.78.83-11.85 0-14.18-3.84-14.18-8.9 0-6.15 5.87-11.85 11.34-15.44 0-5.19-1.27-8.07-4.15-8.07-4.81 0-10.69 7.94-15 15.88-1.16 2.18-1.77 3.21-2.48 3.21s-1.37-1.09-1.37-2.44c0-1.6.91-2.37 2.48-4.23 4.31-4.93 9-14.41 10.74-21a58 58 0 0 1-4.36.19c-2.48 0-4-.7-4.91-1.66a10 10 0 0 1-2.28-3.78l.66-.71c1.47 2.69 3.44 3.85 6.89 3.85a35 35 0 0 0 4.81-.45 25 25 0 0 0 1.11-6.54c0-1.6-1.47-2.18-2.73-2.18a5 5 0 0 0-1 .13l-.1-.06a2.8 2.8 0 0 1 2.79-2.44c2.68 0 5 1.73 5 3.21s-.71 1.53-1.16 3-.86 3-1.32 4.42a43 43 0 0 0 9.11-2.5 4.4 4.4 0 0 0 2.69-2.5c3 0 4.81.39 4.81 2.05 0 1-1.27 1.41-2.53 1.86a80 80 0 0 1-14.94 3.78 67 67 0 0 1-5.32 12.43l.26.13c3.59-4.36 6.58-5.58 8.6-5.58 2.89 0 5.62 1.8 6.33 8.27 5.52-3.53 11.95-6.73 11.95-8.07a1.8 1.8 0 0 0-2-1.73 3 3 0 0 0-.76.06Z" class="cls-5"/><path d="M155.08 185.56h77.35v77.35h-77.35z" style="fill:#f15a29"/><path d="M181.86 226.86c-3.53 9.77-7.06 20.61-7.06 23.72 0 1.34.73 3.11.73 5.42 0 2.58-.86 2.94-1.33 2.94-2.93 0-6.06-7.38-6.06-23.37 0-13.51 2.66-24.8 3.73-32.7a31 31 0 0 0 .27-4.18c0-6.13-3.14-7.2-3.6-7.29l-.07-.8a3.1 3.1 0 0 1 2.47-1.06c3.79 0 6.52 5.24 6.52 8.26 0 2.4-1 3.73-1.33 4.89-5 17-5 28.26-5 31.9 0 5.6.4 8.62.86 10.22l.67-.36a910 910 0 0 0 7.73-18.48Zm13.12-2.4c-3.06 4.26-5.46 9.06-5.46 13.95 0 7.73 4.13 10.22 13.59 10.22 5.86 0 10.12-1 11.52-1.6 3.53.62 4.73 2.4 4.73 3.82 0 2-2 2.58-14.72 2.58-12.12 0-17.92-3.91-17.92-14.49 0-6.13 3.4-11.55 6.8-16Zm-6.86-22.57a22 22 0 0 0 6.66.8c3.4 0 10.33-1.42 13.79-3.38 1.13-.62 2.47-1.86 2.93-1.86 2.07 0 5.13 1 5.13 3.19 0 1.78-2.33 2.31-4.93 3a72 72 0 0 1-15.19 2.48c-2.73 0-6.26-.17-8.72-2.57Z" class="cls-5"/><path d="M94.73 175h55.25v53.6H94.73z" style="fill:#f5a4c7"/><path d="M117.36 180.06a2.7 2.7 0 0 1 2.52-2.52c2.69 0 4.64 2.23 4.64 4 0 1.29-.71 1.76-.88 3.7a70 70 0 0 0-.27 6.38c4.16.24 10.17-1.52 10.4-3.4 2.74.12 4.06.77 4.06 2.06 0 1.11-1.59 1.69-4.55 2.52A34 34 0 0 1 126 194a8 8 0 0 1-2.61-.71c0 3 .22 6.22.35 9.44.09 2 .49 5.45.71 8.49a34 34 0 0 1 13.1 7.33 6 6 0 0 1 1.59 3.57c0 1.06-.53 1.7-1.37 1.7a2.1 2.1 0 0 1-1.77-1.05 27.6 27.6 0 0 0-11.42-8.67 37 37 0 0 1 .18 3.8c0 5.1-2.12 8.21-8.53 8.21-5.49 0-9.29-3.46-9.29-8.15s4.42-7.79 10.21-7.79a27 27 0 0 1 5 .53c-.62-9.73-1.06-17.23-1.06-25.9 0-3.23-.09-4.75-2.75-4.75a2 2 0 0 0-.84.18Zm4.86 33.17a16 16 0 0 0-5.53-1.12c-4.6 0-7.87 1.94-7.87 5.57 0 3.46 2.48 5.57 7.16 5.57 4.47 0 6.37-1.41 6.37-6.16q0-1.94-.13-3.86" class="cls-5"/><circle cx="175" cy="175" r="140.88" style="fill:none;stroke:#231f20;stroke-miterlimit:10;stroke-width:1.95px"/><path d="M0 0h350v350H0z" class="cls-1"/></g></g></svg>