<svg xmlns="http://www.w3.org/2000/svg" viewBox="0 0 283.72 318.17"><defs><clipPath id="clip-path" transform="translate(0 14.01)"><circle cx="143.56" cy="141.86" r="140.88" style="fill:none"/></clipPath><style>.cls-2{fill:#231f20}.cls-5{fill:#fff}</style></defs><g id="Layer_2" data-name="Layer 2"><g id="レイヤー_1" data-name="レイヤー 1"><path d="m61.44 314.45-1.12 3.56h-1.91l3.91-11.82h2.3l3.94 11.82h-2l-1.17-3.53Zm3.64-1.44-1-3.16c-.24-.75-.43-1.51-.61-2.19-.17.69-.35 1.46-.57 2.18l-1 3.17Zm14.45 5-3-11.82h2l1.27 5.67c.32 1.46.62 2.95.82 4.11.19-1.21.54-2.62.91-4.13l1.47-5.68h1.93l1.31 5.71a59 59 0 0 1 .77 4c.22-1.3.53-2.63.87-4.09l1.39-5.65h1.89l-3.22 11.88H86l-1.35-5.86a36 36 0 0 1-.73-3.8 34 34 0 0 1-.85 3.8l-1.57 5.86Zm30.8-6.06c0 4-2.44 6.23-5.57 6.23s-5.39-2.49-5.39-6c0-3.69 2.31-6.21 5.55-6.21s5.41 2.53 5.41 5.98m-9 .18c0 2.47 1.3 4.56 3.53 4.56s3.53-2.08 3.53-4.67c0-2.29-1.17-4.57-3.51-4.57s-3.56 2.17-3.56 4.68Zm18.29 5.88v-11.85h2.07l3.42 5.52a34 34 0 0 1 2.06 3.91 50 50 0 0 1-.19-4.88v-4.54h1.72v11.84h-1.89l-3.42-5.6a39 39 0 0 1-2.17-4c.09 1.52.11 3 .11 5v4.6Zm20.91-11.85v11.85h-1.85v-11.85Zm12.61 11.85v-5l-3.75-6.86h2.11l1.5 3.16c.42.88.76 1.57 1.1 2.39.31-.77.68-1.52 1.1-2.4l1.57-3.14h2.08l-3.85 6.85v5Zm24.79-6.06c0 4-2.43 6.23-5.57 6.23s-5.39-2.49-5.39-6c0-3.69 2.31-6.21 5.56-6.21s5.4 2.53 5.4 5.98m-9 .18c0 2.47 1.3 4.56 3.54 4.56s3.53-2.08 3.53-4.68c0-2.29-1.17-4.57-3.52-4.57s-3.56 2.18-3.56 4.69Zm18.17 3.74a5.6 5.6 0 0 0 2.8.76c1.46 0 2.31-.73 2.31-1.81s-.62-1.58-2.17-2.15c-1.94-.69-3.16-1.72-3.16-3.4 0-1.89 1.57-3.3 4-3.3a6 6 0 0 1 2.72.58l-.47 1.5a5 5 0 0 0-2.3-.56c-1.5 0-2.09.84-2.09 1.59 0 1 .7 1.49 2.3 2.11 2 .78 3 1.78 3 3.5s-1.38 3.48-4.31 3.48a6.5 6.5 0 0 1-3.11-.76Zm18.21-9.71v4.85h5.36v-4.84h1.85v11.84h-1.85v-5.38h-5.36v5.38h-1.85v-11.85Zm18.98 0v11.85h-1.85v-11.85Z" class="cls-2"/><path d="M172.14 10.87c4.25.23 9.62 1.14 9.62 3.89 0 3.08-7.54 4.8-14.81 6.63-6 1.49-14.71 3.09-21.32 4-.38 5-.75 11.32-.85 18.41a47 47 0 0 1 19.72-3.66 8 8 0 0 0-1.23-4.8l1.42-1.26a9.8 9.8 0 0 1 3.49 6.41c15.76 1.94 25.47 12.35 25.47 28.24 0 16.59-12.36 28.48-39.9 31.57l-.67-2.63c23.87-4 34.44-14.41 34.53-29.51 0-12.92-7.07-21.84-19.43-24-.09.23-.09.8-.19 1.25-1.6 8.24-8.49 21.85-17.74 32 1.8 3.09 3.21 5 3.21 7.44 0 1.37-.38 3.66-2 3.66-1 0-3.4-1.83-5.66-6.52-5.94 5.49-12.64 9.26-19.25 9.26-4.71 0-9.9-3-9.9-11.78 0-12.46 8.11-26.19 23.87-34 .09-6.86.37-13.72.47-19.79-2.74.23-5.76.35-8.21.35-7.64 0-10.57-2.86-12.93-7.32l1.51-1.83c2.74 3.43 6.51 4.69 11.61 4.69 2.26 0 5.66-.23 8.21-.46.09-3 .28-7.66.28-10.64 0-3.66-.66-6.4-5-6.4a12 12 0 0 0-1.89.11l-.19-.57a5.26 5.26 0 0 1 5.4-3.6c4.44 0 9.62 2.18 9.62 5.84 0 1.2-1.27 1.86-2 5-.08.31-.12.56-.18.85-.22 1.28-.63 3.89-1.13 8.92 6-.92 15.48-2.75 21-5.15 2.92-1.14 4.24-2.51 4.53-4.11Zm-44.53 74.9c5 0 10.76-3.31 16-8.35-3.12-9.37-3.12-21.72-3.12-27.78-12.49 7.54-18.92 17.15-18.92 29.16 0 4.8 1.51 6.97 6.04 6.97m17-38.19c0 6.06 0 16.35 3.12 25.73 8.11-8.58 14.81-21.27 16.41-29.62-8.41-.68-17.57 2.97-19.55 3.89ZM84.69 222.65a5 5 0 0 1 4.67-3.6c3.82 0 8.25 2.8 8.25 6.3 0 2.29-1.6 2.59-2.44 9.09-1 8-2.22 28.37-2.37 41.05 0 15.68 5.73 19 15 19 11.47 0 21.26-7.79 28.14-24.57l1.76 1.1c-6.42 20.27-17.2 29.06-30.05 29.06-9.94 0-18.73-5.19-18.73-24 0-13.68 1.15-35 1.91-48.64v-.6c0-4-2.91-4.1-4-4.1a11 11 0 0 0-1.91.2Z" class="cls-2" style="clip-path:url(#clip-path)"/><path d="M150.9 102.75h65.18v65.18H150.9z" style="fill:#8dc63f"/><path d="M196.93 125.58a3.1 3.1 0 0 1 2.54-1.28c2.68 0 5.16 3.27 5.16 4.81 0 1.34-.71 2.11-3 2.75s-8.56 3.78-13.37 6.79a17 17 0 0 1 .06 1.73c0 8-.66 11-2.18 11-.81 0-1.37-1-1.37-2.75a11 11 0 0 1 .05-1.22 47 47 0 0 0 .61-7.3c-4.61 3.07-9.22 7-9.22 12.74 0 4.23 3.35 5.84 9.22 5.84 5.37 0 9.47-.33 10.38-1.54 3.19.25 5 1 5 2.11s-.35 1.6-1.82 2c-2.48.7-8 .83-10.79.83-11.85 0-14.17-3.84-14.17-8.9 0-6.15 5.87-11.86 11.34-15.44 0-5.19-1.27-8.08-4.15-8.08-4.81 0-10.69 8-15 15.89-1.17 2.18-1.77 3.2-2.48 3.2s-1.37-1.08-1.37-2.43c0-1.6.91-2.37 2.48-4.23 4.31-4.93 9-14.41 10.74-21-1.57.13-3.3.19-4.36.19-2.48 0-4-.7-4.91-1.67a10 10 0 0 1-2.28-3.78l.66-.7c1.47 2.69 3.44 3.84 6.88 3.84a33 33 0 0 0 4.82-.45 25 25 0 0 0 1.09-6.52c0-1.6-1.47-2.18-2.73-2.18a5 5 0 0 0-1 .13l-.1-.06a2.8 2.8 0 0 1 2.79-2.44c2.68 0 5 1.73 5 3.2s-.71 1.54-1.17 3-.86 3-1.31 4.42a44 44 0 0 0 9.11-2.5 4.4 4.4 0 0 0 2.69-2.5c3 0 4.81.38 4.81 2 0 1-1.27 1.41-2.54 1.86a80 80 0 0 1-14.93 3.78 67 67 0 0 1-5.32 12.43l.25.12c3.6-4.35 6.59-5.57 8.61-5.57 2.89 0 5.62 1.79 6.33 8.27 5.52-3.53 11.95-6.73 11.95-8.08a1.8 1.8 0 0 0-2-1.73 3 3 0 0 0-.76.07Z" class="cls-5"/><path d="M121.94 166.43h77.35v77.35h-77.35z" style="fill:#f15a29"/><path d="M148.72 207.72c-3.53 9.78-7.06 20.62-7.06 23.73 0 1.33.73 3.11.73 5.42 0 2.58-.86 2.93-1.33 2.93-2.93 0-6.06-7.37-6.06-23.37 0-13.5 2.66-24.79 3.73-32.7a31 31 0 0 0 .26-4.17c0-6.13-3.13-7.2-3.59-7.29l-.07-.8a3.1 3.1 0 0 1 2.46-1.07c3.8 0 6.53 5.25 6.53 8.27 0 2.4-1 3.73-1.33 4.88-5 17-5 28.26-5 31.91 0 5.59.4 8.62.87 10.21l.67-.35c.86-2 5.39-12.62 7.72-18.48Zm13.12-2.39c-3.06 4.26-5.46 9.06-5.46 14 0 7.73 4.13 10.22 13.59 10.22 5.86 0 10.12-1 11.52-1.6 3.53.62 4.73 2.4 4.73 3.82 0 2-2 2.57-14.72 2.57-12.12 0-17.92-3.91-17.92-14.48 0-6.13 3.4-11.55 6.8-16ZM155 182.75a22 22 0 0 0 6.66.8c3.4 0 10.33-1.42 13.79-3.37 1.13-.62 2.46-1.87 2.93-1.87 2.07 0 5.13 1 5.13 3.2 0 1.78-2.33 2.31-4.93 3a72 72 0 0 1-15.21 2.5c-2.73 0-6.26-.18-8.72-2.58Z" class="cls-5"/><path d="M61.59 155.86h55.25v53.6H61.59z" style="fill:#f5a4c7"/><path d="M84.21 160.93a2.7 2.7 0 0 1 2.52-2.52c2.7 0 4.65 2.22 4.65 4 0 1.29-.71 1.76-.89 3.69a75 75 0 0 0-.26 6.39c4.16.24 10.17-1.52 10.39-3.4 2.75.12 4.07.76 4.07 2.05 0 1.12-1.59 1.7-4.55 2.52a33 33 0 0 1-7.3 1.17 8 8 0 0 1-2.61-.7c0 3.05.22 6.21.35 9.44.09 2.05.49 5.44.71 8.49a34 34 0 0 1 13.09 7.33 6 6 0 0 1 1.6 3.57c0 1.06-.54 1.7-1.38 1.7a2.1 2.1 0 0 1-1.76-1.06 27.7 27.7 0 0 0-11.42-8.67 37 37 0 0 1 .18 3.81c0 5.1-2.12 8.21-8.54 8.21-5.48 0-9.29-3.46-9.29-8.15s4.43-7.79 10.23-7.79a28 28 0 0 1 5 .52c-.62-9.72-1.07-17.22-1.07-25.89 0-3.23-.08-4.75-2.74-4.75a2 2 0 0 0-.84.17Zm4.87 33.16a16 16 0 0 0-5.53-1.08c-4.6 0-7.87 1.93-7.87 5.57 0 3.45 2.47 5.56 7.16 5.56 4.47 0 6.37-1.4 6.37-6.15q0-1.97-.13-3.9" class="cls-5"/><circle cx="141.86" cy="155.86" r="140.88" style="fill:none;stroke:#231f20;stroke-miterlimit:10;stroke-width:1.95px"/></g></g></svg>