<svg xmlns="http://www.w3.org/2000/svg" xmlns:xlink="http://www.w3.org/1999/xlink" viewBox="0 0 283.72 318.17"><defs><style>.cls-1,.cls-8{fill:none;}.cls-2{fill:#231f20;}.cls-3{clip-path:url(#clip-path);}.cls-4{fill:#8dc63f;}.cls-5{fill:#fff;}.cls-6{fill:#f15a29;}.cls-7{fill:#f5a4c7;}.cls-8{stroke:#231f20;stroke-miterlimit:10;stroke-width:1.95px;}</style><clipPath id="clip-path" transform="translate(0 14.01)"><circle class="cls-1" cx="143.56" cy="141.86" r="140.88"/></clipPath></defs><g id="Layer_2" data-name="Layer 2"><g id="レイヤー_1" data-name="レイヤー 1"><path class="cls-2" d="M61.44,300.44,60.32,304H58.41l3.91-11.82h2.3L68.56,304h-2l-1.17-3.53ZM65.08,299l-1-3.16c-.24-.75-.43-1.51-.61-2.19h0c-.17.69-.35,1.46-.57,2.18l-1,3.17Z" transform="translate(0 14.01)"/><path class="cls-2" d="M79.53,304l-3-11.82h2l1.27,5.67c.32,1.46.62,2.95.82,4.11h0c.19-1.21.54-2.62.91-4.13L83,292.15h1.93l1.31,5.71c.31,1.41.59,2.77.77,4h0c.22-1.3.53-2.63.87-4.09l1.39-5.65h1.89L87.94,304H86l-1.35-5.86a35.85,35.85,0,0,1-.73-3.8h0a34.29,34.29,0,0,1-.85,3.8L81.5,304Z" transform="translate(0 14.01)"/><path class="cls-2" d="M110.33,297.94c0,4-2.44,6.23-5.57,6.23s-5.39-2.49-5.39-6c0-3.69,2.31-6.21,5.55-6.21S110.33,294.49,110.33,297.94Zm-9,.18c0,2.47,1.3,4.56,3.53,4.56s3.53-2.08,3.53-4.67c0-2.29-1.17-4.57-3.51-4.57S101.32,295.61,101.32,298.12Z" transform="translate(0 14.01)"/><path class="cls-2" d="M119.62,304V292.15h2.07l3.42,5.52a33.85,33.85,0,0,1,2.06,3.91h0c-.15-1.58-.19-3.06-.19-4.88v-4.54h1.72V304h-1.89l-3.42-5.6a38.51,38.51,0,0,1-2.17-4l0,0c.09,1.52.11,3,.11,5V304Z" transform="translate(0 14.01)"/><path class="cls-2" d="M140.53,292.15V304h-1.85V292.15Z" transform="translate(0 14.01)"/><path class="cls-2" d="M153.14,304v-5l-3.75-6.86h2.11L153,295.3c.42.88.76,1.57,1.1,2.39h0c.31-.77.68-1.52,1.1-2.4l1.57-3.14h2.08L155,299v5Z" transform="translate(0 14.01)"/><path class="cls-2" d="M177.93,297.94c0,4-2.43,6.23-5.57,6.23s-5.39-2.49-5.39-6c0-3.69,2.31-6.21,5.56-6.21S177.93,294.49,177.93,297.94Zm-9,.18c0,2.47,1.3,4.56,3.54,4.56S176,300.6,176,298c0-2.29-1.17-4.57-3.52-4.57S168.92,295.61,168.92,298.12Z" transform="translate(0 14.01)"/><path class="cls-2" d="M187.1,301.86a5.6,5.6,0,0,0,2.8.76c1.46,0,2.31-.73,2.31-1.81s-.62-1.58-2.17-2.15c-1.94-.69-3.16-1.72-3.16-3.4,0-1.89,1.57-3.3,4-3.3a5.85,5.85,0,0,1,2.72.58l-.47,1.5a4.72,4.72,0,0,0-2.3-.56c-1.5,0-2.09.84-2.09,1.59,0,1,.7,1.49,2.3,2.11,2,.78,3,1.78,3,3.5s-1.38,3.48-4.31,3.48a6.46,6.46,0,0,1-3.11-.76Z" transform="translate(0 14.01)"/><path class="cls-2" d="M205.31,292.15V297h5.36v-4.84h1.85V304h-1.85v-5.38h-5.36V304h-1.85V292.15Z" transform="translate(0 14.01)"/><path class="cls-2" d="M224.29,292.15V304h-1.85V292.15Z" transform="translate(0 14.01)"/><g class="cls-3"><path class="cls-2" d="M172.14-3.14c4.25.23,9.62,1.14,9.62,3.89,0,3.08-7.54,4.8-14.81,6.63-6,1.49-14.71,3.09-21.32,4-.38,5-.75,11.32-.85,18.41a46.92,46.92,0,0,1,19.72-3.66,7.92,7.92,0,0,0-1.23-4.8l1.42-1.26a9.83,9.83,0,0,1,3.49,6.41c15.76,1.94,25.47,12.35,25.47,28.24,0,16.59-12.36,28.48-39.9,31.57l-.67-2.63c23.87-4,34.44-14.41,34.53-29.51,0-12.92-7.07-21.84-19.43-24-.09.23-.09.8-.19,1.25-1.6,8.24-8.49,21.85-17.74,32,1.8,3.09,3.21,5,3.21,7.44,0,1.37-.38,3.66-2,3.66-1,0-3.4-1.83-5.66-6.52-5.94,5.49-12.64,9.26-19.25,9.26-4.71,0-9.9-3-9.9-11.78,0-12.46,8.11-26.19,23.87-34,.09-6.86.37-13.72.47-19.79-2.74.23-5.76.35-8.21.35-7.64,0-10.57-2.86-12.93-7.32l1.51-1.83c2.74,3.43,6.51,4.69,11.61,4.69,2.26,0,5.66-.23,8.21-.46.09-3,.28-7.66.28-10.64,0-3.66-.66-6.4-5-6.4a12,12,0,0,0-1.89.11l-.19-.57A5.26,5.26,0,0,1,139.78-14c4.44,0,9.62,2.18,9.62,5.84,0,1.2-1.27,1.86-2,5-.08.31-.12.56-.18.85-.22,1.28-.63,3.89-1.13,8.92,6-.92,15.48-2.75,21-5.15,2.92-1.14,4.24-2.51,4.53-4.11Zm-44.53,74.9c5,0,10.76-3.31,16-8.35-3.12-9.37-3.12-21.72-3.12-27.78C128,43.17,121.57,52.78,121.57,64.79,121.57,69.59,123.08,71.76,127.61,71.76Zm17-38.19c0,6.06,0,16.35,3.12,25.73,8.11-8.58,14.81-21.27,16.41-29.62C155.73,29,146.57,32.65,144.59,33.57Z" transform="translate(0 14.01)"/><path class="cls-2" d="M84.69,208.64a5,5,0,0,1,4.67-3.6c3.82,0,8.25,2.8,8.25,6.3,0,2.29-1.6,2.59-2.44,9.09-1,8-2.22,28.37-2.37,41.05,0,15.68,5.73,19,15,19,11.47,0,21.26-7.79,28.14-24.57l1.76,1.1c-6.42,20.27-17.2,29.06-30.05,29.06-9.94,0-18.73-5.19-18.73-24,0-13.68,1.15-35,1.91-48.64v-.6c0-4-2.91-4.1-4-4.1a10.77,10.77,0,0,0-1.91.2Z" transform="translate(0 14.01)"/></g><rect class="cls-4" x="150.9" y="102.75" width="65.18" height="65.18"/><path class="cls-5" d="M196.93,111.57a3.09,3.09,0,0,1,2.54-1.28c2.68,0,5.16,3.27,5.16,4.81,0,1.34-.71,2.11-3,2.75s-8.56,3.78-13.37,6.79a16.76,16.76,0,0,1,.06,1.73c0,8-.66,11-2.18,11-.81,0-1.37-1-1.37-2.75a10.46,10.46,0,0,1,.05-1.22,46.94,46.94,0,0,0,.61-7.3c-4.61,3.07-9.22,7-9.22,12.74,0,4.23,3.35,5.84,9.22,5.84,5.37,0,9.47-.33,10.38-1.54,3.19.25,5,1,5,2.11s-.35,1.6-1.82,2c-2.48.7-8,.83-10.79.83-11.85,0-14.17-3.84-14.17-8.9,0-6.15,5.87-11.86,11.34-15.44,0-5.19-1.27-8.08-4.15-8.08-4.81,0-10.69,8-15,15.89-1.17,2.18-1.77,3.2-2.48,3.2s-1.37-1.08-1.37-2.43c0-1.6.91-2.37,2.48-4.23,4.31-4.93,9-14.41,10.74-21-1.57.13-3.3.19-4.36.19-2.48,0-4-.7-4.91-1.67a10,10,0,0,1-2.28-3.78l.66-.7c1.47,2.69,3.44,3.84,6.88,3.84a33.14,33.14,0,0,0,4.82-.45A24.47,24.47,0,0,0,177.49,98c0-1.6-1.47-2.18-2.73-2.18a4.84,4.84,0,0,0-1,.13l-.1-.06a2.79,2.79,0,0,1,2.79-2.44c2.68,0,5,1.73,5,3.2s-.71,1.54-1.17,3-.86,3-1.31,4.42a43.63,43.63,0,0,0,9.11-2.5,4.36,4.36,0,0,0,2.69-2.5c3,0,4.81.38,4.81,2,0,1-1.27,1.41-2.54,1.86a79.9,79.9,0,0,1-14.93,3.78,66.46,66.46,0,0,1-5.32,12.43l.25.12c3.6-4.35,6.59-5.57,8.61-5.57,2.89,0,5.62,1.79,6.33,8.27,5.52-3.53,11.95-6.73,11.95-8.08a1.82,1.82,0,0,0-2-1.73,2.76,2.76,0,0,0-.76.07Z" transform="translate(0 14.01)"/><rect class="cls-6" x="121.94" y="166.43" width="77.35" height="77.35"/><path class="cls-5" d="M148.72,193.71c-3.53,9.78-7.06,20.62-7.06,23.73,0,1.33.73,3.11.73,5.42,0,2.58-.86,2.93-1.33,2.93-2.93,0-6.06-7.37-6.06-23.37,0-13.5,2.66-24.79,3.73-32.7a30.88,30.88,0,0,0,.26-4.17c0-6.13-3.13-7.2-3.59-7.29l-.07-.8a3.11,3.11,0,0,1,2.46-1.07c3.8,0,6.53,5.25,6.53,8.27,0,2.4-1,3.73-1.33,4.88-5,17-5,28.26-5,31.91,0,5.59.4,8.62.87,10.21l.67-.35c.86-2,5.39-12.62,7.72-18.48Zm13.12-2.39c-3.06,4.26-5.46,9.06-5.46,14,0,7.73,4.13,10.22,13.59,10.22,5.86,0,10.12-1,11.52-1.6,3.53.62,4.73,2.4,4.73,3.82,0,2-2,2.57-14.72,2.57-12.12,0-17.92-3.91-17.92-14.48,0-6.13,3.4-11.55,6.8-16ZM155,168.74a21.58,21.58,0,0,0,6.66.8c3.4,0,10.33-1.42,13.79-3.37,1.13-.62,2.46-1.87,2.93-1.87,2.07,0,5.13,1,5.13,3.2,0,1.78-2.33,2.31-4.93,3A71.94,71.94,0,0,1,163.37,173c-2.73,0-6.26-.18-8.72-2.58Z" transform="translate(0 14.01)"/><rect class="cls-7" x="61.59" y="155.86" width="55.25" height="53.6"/><path class="cls-5" d="M84.21,146.92a2.73,2.73,0,0,1,2.52-2.52c2.7,0,4.65,2.22,4.65,4,0,1.29-.71,1.76-.89,3.69-.13,1.41-.26,3.81-.26,6.39,4.16.24,10.17-1.52,10.39-3.4,2.75.12,4.07.76,4.07,2.05,0,1.12-1.59,1.7-4.55,2.52a33.08,33.08,0,0,1-7.3,1.17,8.29,8.29,0,0,1-2.61-.7c0,3.05.22,6.21.35,9.44.09,2.05.49,5.44.71,8.49a33.73,33.73,0,0,1,13.09,7.33,6,6,0,0,1,1.6,3.57c0,1.06-.54,1.7-1.38,1.7a2.1,2.1,0,0,1-1.76-1.06,27.66,27.66,0,0,0-11.42-8.67,36.9,36.9,0,0,1,.18,3.81c0,5.1-2.12,8.21-8.54,8.21-5.48,0-9.29-3.46-9.29-8.15S78.2,177,84,177a28.39,28.39,0,0,1,5,.52c-.62-9.72-1.07-17.22-1.07-25.89,0-3.23-.08-4.75-2.74-4.75a1.84,1.84,0,0,0-.84.17Zm4.87,33.16A16.12,16.12,0,0,0,83.55,179c-4.6,0-7.87,1.93-7.87,5.57,0,3.45,2.47,5.56,7.16,5.56,4.47,0,6.37-1.4,6.37-6.15C89.21,182.66,89.17,181.37,89.08,180.08Z" transform="translate(0 14.01)"/><circle class="cls-8" cx="141.86" cy="155.86" r="140.88"/></g></g></svg>