<?xml version="1.0" encoding="utf-8"?>
<!-- Generator: Adobe Illustrator 19.2.1, SVG Export Plug-In . SVG Version: 6.00 Build 0)  -->
<svg version="1.1" id="レイヤー_1" xmlns="http://www.w3.org/2000/svg" xmlns:xlink="http://www.w3.org/1999/xlink" x="0px"
	 y="0px" viewBox="0 0 1031.8 728.5" style="enable-background:new 0 0 1031.8 728.5;" xml:space="preserve">
<style type="text/css">
	.st0{fill:#CE3A76;}
	.st1{fill:#37578D;}
	.st2{fill:#CE3A74;}
	.st3{fill:#FFFFFF;}
</style>
<g>
	<g>
		<g>
			<path class="st0" d="M142.1,347.4c-0.2,12.1-4.1,22.3-11.6,30.4c-4.2,4.5-9.2,8.1-15,10.6c-5.8,2.5-11.8,3.8-18,3.8
				c-5.4,0-10.7-1-15.9-3.1c-5.2-2-9.9-4.9-13.9-8.6c-5.2-4.7-9-10.4-11.5-17.1c-2-5.3-2.9-10.6-2.9-15.8c0-9.7,3-18.5,9-26.5
				c4.1-5.5,9.3-9.8,15.6-13c6.3-3.1,12.8-4.7,19.7-4.7c12.1,0,22.4,4.1,31.1,12.4c3.9,3.7,5.8,6.4,5.8,7.9c0,0.5-0.2,1-0.6,1.3
				c-0.4,0.4-0.9,0.6-1.6,0.6c-0.9,0-1.9-0.7-3-2.1c-8.2-10.9-18.7-16.4-31.6-16.4c-1.6,0-3.1,0.1-4.7,0.3L92.5,351l0.3,37
				c1.5,0.3,3.1,0.4,4.6,0.4c4.6,0,9.1-0.8,13.4-2.3c10.9-3.9,18.8-11,23.6-21.4c2-4.4,3.2-8.8,3.6-13.4h-32
				c-2.8-0.1-4.5-0.2-5.1-0.4c-0.6-0.2-0.9-0.7-0.9-1.6c0-1.3,1-2,2.9-2l3.7,0.1H142.1z"/>
			<path class="st1" d="M364.3,310.1l-0.3,19.2l-0.2,18.2l0.2,42.2h-37.4l0.4-48.8l-0.2-16.6l-0.2-14.1l-8.1,0.2l-11.6,0.2l-1.7,0.1
				c-2,0-2.9-0.7-2.9-2.2c0-1.3,0.6-2,1.7-2.2c0.3-0.1,1.3-0.1,3-0.2h75.2c2.6,0,4.2,0.2,4.7,0.4c0.8,0.3,1.2,1,1.2,2.1
				c0,1.4-1,2.1-3.1,2.1l-5.3-0.2l-14.1-0.2H364.3z"/>
			<path d="M568.7,325.3c3.5,1.7,6.5,4,8.8,6.8c3.1,3.8,4.7,8.2,4.7,13.2c0,3.6-0.9,6.9-2.7,10.1c-1.8,3.2-4.3,5.9-7.5,8
				c-6,4-13.2,6.1-21.6,6.1c-3.9,0-7.5-0.3-10.7-1c-3.3-0.7-6.3-1.7-8.9-3.1c-1.9,1.3-2.9,2.6-2.9,4c0,1.6,1.1,2.5,3.2,2.8
				c4.7,0.6,7.9,0.8,9.7,0.6l0.4-0.1h18.3l0.9-0.1c6.1-0.4,10.5,0.7,13.2,3.1c2.1,1.9,3.1,4.2,3.1,6.7c0,2.2-0.7,4.1-2.2,5.9
				c-2.5,2.9-5.8,4.4-9.9,4.4c-0.8,0-1.8,0-2.9-0.1c0.7-1,1-1.8,1-2.4c0-1.3-1.1-1.9-3.4-1.9c-2,0-6.1,0.4-12.3,1.3
				c-4.4,0.6-8,0.9-10.8,0.9c-4.5,0-8.4-1-11.7-2.9c-1.9-1.1-3.4-2.6-4.5-4.5c-1.1-1.9-1.7-4-1.7-6.3c0-2.5,0.7-4.9,2-7
				c1.3-2.1,3.5-4.3,6.6-6.6c-2.9-1.8-5.1-4.2-6.7-7.2c-1.6-3-2.4-6.2-2.4-9.7c0-8.3,4.1-14.8,12.4-19.7c6.2-3.7,13.7-5.5,22.6-5.5
				c2,0,4,0.1,6.1,0.3c2.9,0.2,5,0.4,6.3,0.4c3.2,0,5.6-1.4,7-4.3c0.9-1.7,1.8-2.6,2.8-2.6c0.8,0,1.5,0.3,2,0.8
				c0.6,0.5,0.9,1.1,0.9,1.9c0,1.5-0.8,2.9-2.5,4.3C573.8,323.2,571.6,324.4,568.7,325.3z M544.6,332.1V358c0,3.1,0.2,5,0.7,5.8
				c0.8,1.2,2.5,1.8,5.1,1.8c2.4,0,4-0.6,4.7-1.7c0.8-1.1,1.2-3.3,1.2-6.6v-25c0-2.8-0.4-4.6-1.2-5.6c-0.8-0.9-2.4-1.4-4.7-1.4
				c-2.3,0-3.9,0.5-4.7,1.4C545,327.5,544.6,329.4,544.6,332.1z"/>
			<path d="M615.9,358.1v19c0,3.7,0.2,6,0.7,7c0.9,1.9,2.9,2.8,6.1,2.8c4.7,0,9.4-1.3,14.1-3.9c4.6-2.6,8.7-6.2,12-10.8
				c1.1-1.5,1.9-2.5,2.4-2.9c0.5-0.4,1-0.6,1.6-0.6c0.7,0,1.3,0.3,1.7,0.8c0.4,0.5,0.7,1.2,0.7,1.9c0,1.7-1.4,4-4.1,6.9
				c-3.6,3.7-8.1,6.7-13.4,9.1s-10.5,3.5-15.6,3.5c-8.7,0-16.4-2.9-23-8.8c-3.9-3.4-6.9-7.7-8.9-12.7c-1.8-4.4-2.8-8.8-2.8-13.2
				c0-4.2,0.8-8.5,2.5-12.8c1.6-4.3,3.9-8,6.7-11.1c3.3-3.6,7.2-6.5,11.8-8.5c4.5-2,9.1-2.9,14-2.9c7.6,0,14.4,2.2,20.5,6.7
				c9.6,6.9,14.3,17,14.2,30.2h-14.3l-18.4,0.1L615.9,358.1z M631.6,354.1v-17.9c-0.1-3.8-0.2-6.1-0.2-6.9c-0.1-0.8-0.4-1.5-0.9-2.1
				c-1.1-1.6-3.5-2.4-7-2.4c-3.6,0-5.8,0.9-6.7,2.8c-0.6,1.1-0.9,4-0.9,8.6v17.9l7.5,0.2L631.6,354.1z"/>
			<path d="M700.4,301.1l-0.7,19.8l-0.1,1.9c3.6,0,6.8-0.1,9.7-0.4c0.5,0,0.9-0.1,1.3-0.1c1.8,0,2.7,0.8,2.7,2.5
				c0,1.5-0.9,2.3-2.8,2.3c-0.6,0-1.3,0-2.1-0.1c-3.2-0.2-5.5-0.4-6.9-0.4h-1.8l-0.1,11.9l0.2,23.8L700,375c0,3,0.2,5.1,0.7,6.3
				c0.5,1.2,1.2,1.8,2.3,1.8c1.5,0,3.1-0.9,4.7-2.6c1.6-1.7,2.9-3.8,3.9-6.3c0.9-2.4,1.9-3.6,3.1-3.6c1.4,0,2.1,0.8,2.1,2.3
				c0,1.6-0.7,3.5-2.1,5.8c-1.4,2.3-3.1,4.3-5,6c-4.8,4.2-11.1,6.3-18.8,6.3c-7.2,0-12.8-2.2-16.8-6.6c-2-2.2-3.5-4.7-4.2-7.4
				c-0.8-2.7-1.2-6.5-1.2-11.3v-4.6l0.1-12.9v-21.9c-0.6,0-1-0.1-1.2-0.1c-0.4,0-1.2,0-2.5,0.1c-1,0.1-1.9,0.1-2.6,0.1
				c-2,0-3-0.8-3-2.3c0-1.5,1-2.2,2.9-2.2c0.9,0,1.5,0,1.9,0.1l4.5,0.3v-6.9C680.9,311.1,691.4,306.3,700.4,301.1z"/>
			<path d="M752.2,331.3c3.9-2.7,7.1-4.6,9.6-5.8c6.1-3,12.2-4.5,18.2-4.5c4.3,0,8.2,0.8,11.7,2.3c3.5,1.6,6,3.7,7.7,6.4
				c2,3.2,3,9.2,3,17.8l-0.1,9.1l-0.1,12.1l0.5,20.9h-31.5l0.2-37.9l-0.4-19.4c-0.4-2.1-1.9-3.2-4.5-3.2c-1.9,0-4.1,0.6-6.4,1.7
				c-2.4,1.2-5,2.9-7.9,5.3l-0.1,15.4l0.2,26.7l0.2,11.3H721l0.1-25.9v-29.5l-0.2-25.5l0.1-2.8h31.3v1.7l0.1,10.5l-0.1,6.5V331.3z"
				/>
			<path d="M840.5,358.1v19c0,3.7,0.2,6,0.7,7c0.9,1.9,2.9,2.8,6.1,2.8c4.7,0,9.4-1.3,14.1-3.9c4.6-2.6,8.7-6.2,12-10.8
				c1.1-1.5,1.9-2.5,2.4-2.9c0.5-0.4,1-0.6,1.6-0.6c0.7,0,1.3,0.3,1.7,0.8c0.4,0.5,0.7,1.2,0.7,1.9c0,1.7-1.4,4-4.1,6.9
				c-3.6,3.7-8.1,6.7-13.4,9.1s-10.5,3.5-15.6,3.5c-8.7,0-16.4-2.9-23-8.8c-3.9-3.4-6.9-7.7-8.9-12.7c-1.8-4.4-2.8-8.8-2.8-13.2
				c0-4.2,0.8-8.5,2.5-12.8c1.6-4.3,3.9-8,6.7-11.1c3.3-3.6,7.2-6.5,11.8-8.5c4.5-2,9.1-2.9,14-2.9c7.6,0,14.4,2.2,20.5,6.7
				c9.6,6.9,14.3,17,14.2,30.2h-14.3l-18.4,0.1L840.5,358.1z M856.2,354.1v-17.9c-0.1-3.8-0.2-6.1-0.2-6.9c-0.1-0.8-0.4-1.5-0.9-2.1
				c-1.1-1.6-3.5-2.4-7-2.4c-3.6,0-5.8,0.9-6.7,2.8c-0.6,1.1-0.9,4-0.9,8.6v17.9l7.5,0.2L856.2,354.1z"/>
			<path d="M922.6,341.7l-0.1,23.5l0.2,24.4h-31.5l0.1-3.4l0.1-12.5l0.2-22.5l-0.3-25l-0.1-3.6h31.4v12.6c4.7-5,8-8.1,9.8-9.4
				c4.2-3,8.2-4.5,12-4.5c2.3,0,4.2,0.5,5.7,1.5c1.5,1,2.2,2.2,2.2,3.7c0,1.2-0.4,2.2-1.3,2.9c-0.9,0.8-2,1.2-3.4,1.2
				c-0.9,0-1.8-0.2-2.9-0.7c-1.8-0.9-3.3-1.3-4.5-1.3c-2.9,0-5.8,1-8.5,3C929,333.7,926,337,922.6,341.7z"/>
		</g>
		<g>
			<circle class="st2" cx="207.8" cy="338.4" r="52.7"/>
		</g>
		<g id="XMLID_4_">
			<g>
				<path class="st3" d="M200.8,373.7c-8.8,12.3-14.8,1.6-14.8,1.6c-15.4,4.2-10.1-6-10.1-6c-4.9,0.4-0.3-6.5-0.3-6.5
					c-9.4-2.6-2-8.9-2-8.9c-2.9-5.2,2.3-6.3,2.3-6.3c7.1-6,2.1-11.5,2.1-11.5c-13.3-20.9,3.1-24,3.1-24c1-9.5,9.7-8.3,9.7-8.3
					c4.3-5.6,10-3.4,10-3.4s10.8,3.9,15.5,0.1s11.7,0.1,14.7,2.2s0.1,5.6,0.1,5.6s9.3,4.4,11.4,19.9c0,0,0,3.7-1.1,5.2
					c0,0-1.3,4.5,7.9,13.3c0,0,3.9,1.5-5.6,5.2c0,0-1.5,0-1.5,4.3c0,0-0.2,0.3,1.8,2.5c0,0,0.6,1-1.9,1.8l1.4,1.7
					c0,0,0.4,1.3-2.4,1.7c0,0-1.5,1.4-0.6,4.6c0,0,5.1,5.2-11.9,4.1c0,0-13.5-3.3-8.4,18.6h-36c-0.7-1.4,5.8-4.2,5.8-4.2
					C197,384.6,200.7,374,200.8,373.7z"/>
			</g>
			<g>
			</g>
		</g>
		<circle class="st1" cx="447.2" cy="336.7" r="54.3"/>
		<g>
			<g id="XMLID_6_">
				<g>
					<path class="st3" d="M482,334.9c8.9-1.2,5.4,4.5-2.3,6.2c0,0-7.1,0.2-7,6.8c0,1.3,0.3,2.9,1.1,4.8l-42.7,11.7
						c-0.7-0.1-1.3-0.2-1.8-0.2c-4.4-0.7-2.9-1.7-2.9-1.7c2.1-5.9-1.1-5.3-1.1-5.3c-10.2-0.2-7.1-2.9-7.1-2.9l8-11.4
						c0.9-2.6-0.6-3.5-0.6-3.5l-5.3-4.8c0,0,24.1-7.8,41.7-2.3C462.1,332.4,473.1,336.2,482,334.9z"/>
				</g>
				<g>
				</g>
			</g>
			<g id="XMLID_7_">
				<g>
					<path class="st3" d="M475.5,342.3c0,0,6.3,3,2.1,14.5c0,0-0.9,2.6-5.9,2.9c0,0,1.7,2.7,1.4,5.7l-13.2,5.1l-7.5,6.2
						c0.6-4.9-2.5-4.3-2.5-4.3s-4.7-1.2-10.2,1.9c-5.4,3.1-12.5,3.4-11.1-0.8c1.4-4.2-0.1-4.2-0.1-4.2c-2-1.5-1.5-2.3-1.5-2.3
						l1.9-2.5L475.5,342.3z"/>
				</g>
				<g>
				</g>
			</g>
			<g id="XMLID_5_">
				<g>
					<path class="st3" d="M486.9,335.5l-66.5-0.8c0,0-43.8-6.8-3.6-13.2l9.3-1.4l3.2-20.3c0,0,2.7-5,11.3-2.9c0,0,26,3.2,34.8,10.2
						c0,0,5.1,0-0.5,19.1C474.9,326.2,475.9,329.8,486.9,335.5z"/>
				</g>
				<g>
				</g>
			</g>
			<path class="st3" d="M495.9,387.9c-9.9-26.8-22.8-22.6-22.8-22.6l-20.8,11.3c0,0-17.8,15.9-12.5,29.5"/>
		</g>
	</g>
	<rect x="55.9" y="389.4" width="899.2" height="17"/>
</g>
</svg>
