<svg xmlns="http://www.w3.org/2000/svg" xml:space="preserve" id="レイヤー_1" x="0" y="0" viewBox="0 0 1031.8 728.5"><style>.st1{fill:#37578d}.st3{fill:#fff}</style><path d="M142.1 347.4c-.2 12.1-4.1 22.3-11.6 30.4-4.2 4.5-9.2 8.1-15 10.6s-11.8 3.8-18 3.8c-5.4 0-10.7-1-15.9-3.1-5.2-2-9.9-4.9-13.9-8.6-5.2-4.7-9-10.4-11.5-17.1-2-5.3-2.9-10.6-2.9-15.8 0-9.7 3-18.5 9-26.5 4.1-5.5 9.3-9.8 15.6-13 6.3-3.1 12.8-4.7 19.7-4.7 12.1 0 22.4 4.1 31.1 12.4 3.9 3.7 5.8 6.4 5.8 7.9 0 .5-.2 1-.6 1.3-.4.4-.9.6-1.6.6q-1.35 0-3-2.1c-8.2-10.9-18.7-16.4-31.6-16.4-1.6 0-3.1.1-4.7.3l-.5 43.6.3 37c1.5.3 3.1.4 4.6.4 4.6 0 9.1-.8 13.4-2.3 10.9-3.9 18.8-11 23.6-21.4 2-4.4 3.2-8.8 3.6-13.4h-32c-2.8-.1-4.5-.2-5.1-.4s-.9-.7-.9-1.6c0-1.3 1-2 2.9-2l3.7.1z" style="fill:#ce3a76"/><path d="m364.3 310.1-.3 19.2-.2 18.2.2 42.2h-37.4l.4-48.8-.2-16.6-.2-14.1-8.1.2-11.6.2-1.7.1c-2 0-2.9-.7-2.9-2.2 0-1.3.6-2 1.7-2.2.3-.1 1.3-.1 3-.2h75.2c2.6 0 4.2.2 4.7.4q1.2.45 1.2 2.1c0 1.4-1 2.1-3.1 2.1l-5.3-.2-14.1-.2h-1.3z" class="st1"/><path d="M568.7 325.3a26 26 0 0 1 8.8 6.8c3.1 3.8 4.7 8.2 4.7 13.2 0 3.6-.9 6.9-2.7 10.1s-4.3 5.9-7.5 8c-6 4-13.2 6.1-21.6 6.1-3.9 0-7.5-.3-10.7-1-3.3-.7-6.3-1.7-8.9-3.1-1.9 1.3-2.9 2.6-2.9 4 0 1.6 1.1 2.5 3.2 2.8 4.7.6 7.9.8 9.7.6l.4-.1h18.3l.9-.1c6.1-.4 10.5.7 13.2 3.1 2.1 1.9 3.1 4.2 3.1 6.7 0 2.2-.7 4.1-2.2 5.9-2.5 2.9-5.8 4.4-9.9 4.4-.8 0-1.8 0-2.9-.1.7-1 1-1.8 1-2.4 0-1.3-1.1-1.9-3.4-1.9-2 0-6.1.4-12.3 1.3q-6.6.9-10.8.9c-4.5 0-8.4-1-11.7-2.9q-2.85-1.65-4.5-4.5c-1.1-1.9-1.7-4-1.7-6.3 0-2.5.7-4.9 2-7q1.95-3.15 6.6-6.6c-2.9-1.8-5.1-4.2-6.7-7.2s-2.4-6.2-2.4-9.7c0-8.3 4.1-14.8 12.4-19.7 6.2-3.7 13.7-5.5 22.6-5.5 2 0 4 .1 6.1.3 2.9.2 5 .4 6.3.4 3.2 0 5.6-1.4 7-4.3.9-1.7 1.8-2.6 2.8-2.6.8 0 1.5.3 2 .8.6.5.9 1.1.9 1.9 0 1.5-.8 2.9-2.5 4.3a20 20 0 0 1-6.7 3.4m-24.1 6.8V358c0 3.1.2 5 .7 5.8q1.2 1.8 5.1 1.8c2.4 0 4-.6 4.7-1.7q1.2-1.65 1.2-6.6v-25c0-2.8-.4-4.6-1.2-5.6-.8-.9-2.4-1.4-4.7-1.4s-3.9.5-4.7 1.4c-.7.8-1.1 2.7-1.1 5.4m71.3 26v19c0 3.7.2 6 .7 7 .9 1.9 2.9 2.8 6.1 2.8q7.05 0 14.1-3.9c4.6-2.6 8.7-6.2 12-10.8 1.1-1.5 1.9-2.5 2.4-2.9s1-.6 1.6-.6c.7 0 1.3.3 1.7.8s.7 1.2.7 1.9c0 1.7-1.4 4-4.1 6.9-3.6 3.7-8.1 6.7-13.4 9.1s-10.5 3.5-15.6 3.5c-8.7 0-16.4-2.9-23-8.8-3.9-3.4-6.9-7.7-8.9-12.7-1.8-4.4-2.8-8.8-2.8-13.2 0-4.2.8-8.5 2.5-12.8a34.3 34.3 0 0 1 18.5-19.6c4.5-2 9.1-2.9 14-2.9 7.6 0 14.4 2.2 20.5 6.7 9.6 6.9 14.3 17 14.2 30.2h-14.3l-18.4.1zm15.7-4v-17.9c-.1-3.8-.2-6.1-.2-6.9q-.15-1.2-.9-2.1c-1.1-1.6-3.5-2.4-7-2.4-3.6 0-5.8.9-6.7 2.8-.6 1.1-.9 4-.9 8.6v17.9l7.5.2zm68.8-53-.7 19.8-.1 1.9c3.6 0 6.8-.1 9.7-.4.5 0 .9-.1 1.3-.1 1.8 0 2.7.8 2.7 2.5 0 1.5-.9 2.3-2.8 2.3-.6 0-1.3 0-2.1-.1-3.2-.2-5.5-.4-6.9-.4h-1.8l-.1 11.9.2 23.8.2 12.7c0 3 .2 5.1.7 6.3s1.2 1.8 2.3 1.8c1.5 0 3.1-.9 4.7-2.6q2.4-2.55 3.9-6.3c.9-2.4 1.9-3.6 3.1-3.6 1.4 0 2.1.8 2.1 2.3 0 1.6-.7 3.5-2.1 5.8a27 27 0 0 1-5 6c-4.8 4.2-11.1 6.3-18.8 6.3q-10.8 0-16.8-6.6c-2-2.2-3.5-4.7-4.2-7.4-.8-2.7-1.2-6.5-1.2-11.3v-4.6l.1-12.9v-21.9c-.6 0-1-.1-1.2-.1-.4 0-1.2 0-2.5.1-1 .1-1.9.1-2.6.1-2 0-3-.8-3-2.3s1-2.2 2.9-2.2c.9 0 1.5 0 1.9.1l4.5.3v-6.9c12.1-4.3 22.6-9.1 31.6-14.3m51.8 30.2c3.9-2.7 7.1-4.6 9.6-5.8 6.1-3 12.2-4.5 18.2-4.5 4.3 0 8.2.8 11.7 2.3 3.5 1.6 6 3.7 7.7 6.4 2 3.2 3 9.2 3 17.8l-.1 9.1-.1 12.1.5 20.9h-31.5l.2-37.9-.4-19.4c-.4-2.1-1.9-3.2-4.5-3.2-1.9 0-4.1.6-6.4 1.7-2.4 1.2-5 2.9-7.9 5.3l-.1 15.4.2 26.7.2 11.3H721l.1-25.9v-29.5l-.2-25.5.1-2.8h31.3v1.7l.1 10.5-.1 6.5v6.8zm88.3 26.8v19c0 3.7.2 6 .7 7 .9 1.9 2.9 2.8 6.1 2.8q7.05 0 14.1-3.9c4.6-2.6 8.7-6.2 12-10.8 1.1-1.5 1.9-2.5 2.4-2.9s1-.6 1.6-.6c.7 0 1.3.3 1.7.8s.7 1.2.7 1.9c0 1.7-1.4 4-4.1 6.9-3.6 3.7-8.1 6.7-13.4 9.1s-10.5 3.5-15.6 3.5c-8.7 0-16.4-2.9-23-8.8-3.9-3.4-6.9-7.7-8.9-12.7-1.8-4.4-2.8-8.8-2.8-13.2 0-4.2.8-8.5 2.5-12.8a34.3 34.3 0 0 1 18.5-19.6c4.5-2 9.1-2.9 14-2.9 7.6 0 14.4 2.2 20.5 6.7 9.6 6.9 14.3 17 14.2 30.2h-14.3l-18.4.1zm15.7-4v-17.9c-.1-3.8-.2-6.1-.2-6.9q-.15-1.2-.9-2.1c-1.1-1.6-3.5-2.4-7-2.4-3.6 0-5.8.9-6.7 2.8-.6 1.1-.9 4-.9 8.6v17.9l7.5.2zm66.4-12.4-.1 23.5.2 24.4h-31.5l.1-3.4.1-12.5.2-22.5-.3-25-.1-3.6h31.4v12.6c4.7-5 8-8.1 9.8-9.4q6.3-4.5 12-4.5 3.45 0 5.7 1.5c1.5 1 2.2 2.2 2.2 3.7 0 1.2-.4 2.2-1.3 2.9-.9.8-2 1.2-3.4 1.2-.9 0-1.8-.2-2.9-.7-1.8-.9-3.3-1.3-4.5-1.3-2.9 0-5.8 1-8.5 3-2.7 2.1-5.7 5.4-9.1 10.1"/><circle cx="207.8" cy="338.4" r="52.7" style="fill:#ce3a74"/><path id="XMLID_4_" d="M200.8 373.7c-8.8 12.3-14.8 1.6-14.8 1.6-15.4 4.2-10.1-6-10.1-6-4.9.4-.3-6.5-.3-6.5-9.4-2.6-2-8.9-2-8.9-2.9-5.2 2.3-6.3 2.3-6.3 7.1-6 2.1-11.5 2.1-11.5-13.3-20.9 3.1-24 3.1-24 1-9.5 9.7-8.3 9.7-8.3 4.3-5.6 10-3.4 10-3.4s10.8 3.9 15.5.1 11.7.1 14.7 2.2.1 5.6.1 5.6 9.3 4.4 11.4 19.9c0 0 0 3.7-1.1 5.2 0 0-1.3 4.5 7.9 13.3 0 0 3.9 1.5-5.6 5.2 0 0-1.5 0-1.5 4.3 0 0-.2.3 1.8 2.5 0 0 .6 1-1.9 1.8l1.4 1.7s.4 1.3-2.4 1.7c0 0-1.5 1.4-.6 4.6 0 0 5.1 5.2-11.9 4.1 0 0-13.5-3.3-8.4 18.6h-36c-.7-1.4 5.8-4.2 5.8-4.2 7-2.4 10.7-13 10.8-13.3" class="st3"/><circle cx="447.2" cy="336.7" r="54.3" class="st1"/><path id="XMLID_6_" d="M482 334.9c8.9-1.2 5.4 4.5-2.3 6.2 0 0-7.1.2-7 6.8 0 1.3.3 2.9 1.1 4.8l-42.7 11.7c-.7-.1-1.3-.2-1.8-.2-4.4-.7-2.9-1.7-2.9-1.7 2.1-5.9-1.1-5.3-1.1-5.3-10.2-.2-7.1-2.9-7.1-2.9l8-11.4c.9-2.6-.6-3.5-.6-3.5l-5.3-4.8s24.1-7.8 41.7-2.3c.1.1 11.1 3.9 20 2.6" class="st3"/><path id="XMLID_7_" d="M475.5 342.3s6.3 3 2.1 14.5c0 0-.9 2.6-5.9 2.9 0 0 1.7 2.7 1.4 5.7l-13.2 5.1-7.5 6.2c.6-4.9-2.5-4.3-2.5-4.3s-4.7-1.2-10.2 1.9c-5.4 3.1-12.5 3.4-11.1-.8s-.1-4.2-.1-4.2c-2-1.5-1.5-2.3-1.5-2.3l1.9-2.5z" class="st3"/><path id="XMLID_5_" d="m486.9 335.5-66.5-.8s-43.8-6.8-3.6-13.2l9.3-1.4 3.2-20.3s2.7-5 11.3-2.9c0 0 26 3.2 34.8 10.2 0 0 5.1 0-.5 19.1 0 0 1 3.6 12 9.3" class="st3"/><path d="M495.9 387.9c-9.9-26.8-22.8-22.6-22.8-22.6l-20.8 11.3s-17.8 15.9-12.5 29.5" class="st3"/><path d="M55.9 389.4h899.2v17H55.9z"/></svg>